<?xml version="1.0" encoding="UTF-8" standalone="no"?>
<!DOCTYPE svg PUBLIC "-//W3C//DTD SVG 1.1//EN"
 "http://www.w3.org/Graphics/SVG/1.1/DTD/svg11.dtd">
<!-- Generated by graphviz version 12.2.1 (20241206.2353)
 -->
<!-- Title: src/Components.hpp Pages: 1 -->
<svg width="409pt" height="83pt"
 viewBox="0.00 0.00 409.12 82.50" xmlns="http://www.w3.org/2000/svg" xmlns:xlink="http://www.w3.org/1999/xlink">
<g id="graph0" class="graph" transform="scale(1 1) rotate(0) translate(4 78.5)">
<title>src/Components.hpp</title>
<!-- Node1 -->
<g id="Node000001" class="node">
<title>Node1</title>
<g id="a_Node000001"><a xlink:title=" ">
<polygon fill="#999999" stroke="#666666" points="309.88,-74.5 203.12,-74.5 203.12,-55.25 309.88,-55.25 309.88,-74.5"/>
<text text-anchor="middle" x="256.5" y="-61" font-family="Helvetica,sans-Serif" font-size="10.00">src/Components.hpp</text>
</a>
</g>
</g>
<!-- Node2 -->
<g id="Node000002" class="node">
<title>Node2</title>
<g id="a_Node000002"><a xlink:title=" ">
<polygon fill="#e0e0e0" stroke="#999999" points="103,-19.25 0,-19.25 0,0 103,0 103,-19.25"/>
<text text-anchor="middle" x="51.5" y="-5.75" font-family="Helvetica,sans-Serif" font-size="10.00">SFML/Graphics.hpp</text>
</a>
</g>
</g>
<!-- Node1&#45;&gt;Node2 -->
<g id="edge1_Node000001_Node000002" class="edge">
<title>Node1&#45;&gt;Node2</title>
<g id="a_edge1_Node000001_Node000002"><a xlink:title=" ">
<path fill="none" stroke="#63b8ff" d="M221.72,-54.84C187.41,-45.93 134.78,-32.26 97.13,-22.48"/>
<polygon fill="#63b8ff" stroke="#63b8ff" points="98.47,-19.21 87.91,-20.08 96.71,-25.98 98.47,-19.21"/>
</a>
</g>
</g>
<!-- Node3 -->
<g id="Node000003" class="node">
<title>Node3</title>
<g id="a_Node000003"><a xlink:title=" ">
<polygon fill="#e0e0e0" stroke="#999999" points="218.38,-19.25 120.62,-19.25 120.62,0 218.38,0 218.38,-19.25"/>
<text text-anchor="middle" x="169.5" y="-5.75" font-family="Helvetica,sans-Serif" font-size="10.00">SFML/Window.hpp</text>
</a>
</g>
</g>
<!-- Node1&#45;&gt;Node3 -->
<g id="edge2_Node000001_Node000003" class="edge">
<title>Node1&#45;&gt;Node3</title>
<g id="a_edge2_Node000001_Node000003"><a xlink:title=" ">
<path fill="none" stroke="#63b8ff" d="M241.74,-54.84C228.62,-46.81 209.18,-34.91 193.77,-25.48"/>
<polygon fill="#63b8ff" stroke="#63b8ff" points="195.98,-22.73 185.62,-20.49 192.32,-28.7 195.98,-22.73"/>
</a>
</g>
</g>
<!-- Node4 -->
<g id="Node000004" class="node">
<title>Node4</title>
<g id="a_Node000004"><a xlink:title=" ">
<polygon fill="#e0e0e0" stroke="#999999" points="276.5,-19.25 236.5,-19.25 236.5,0 276.5,0 276.5,-19.25"/>
<text text-anchor="middle" x="256.5" y="-5.75" font-family="Helvetica,sans-Serif" font-size="10.00">string</text>
</a>
</g>
</g>
<!-- Node1&#45;&gt;Node4 -->
<g id="edge3_Node000001_Node000004" class="edge">
<title>Node1&#45;&gt;Node4</title>
<g id="a_edge3_Node000001_Node000004"><a xlink:title=" ">
<path fill="none" stroke="#63b8ff" d="M256.5,-55.08C256.5,-48.57 256.5,-39.42 256.5,-31.12"/>
<polygon fill="#63b8ff" stroke="#63b8ff" points="260,-31.12 256.5,-21.12 253,-31.12 260,-31.12"/>
</a>
</g>
</g>
<!-- Node5 -->
<g id="Node000005" class="node">
<title>Node5</title>
<g id="a_Node000005"><a xlink:title=" ">
<polygon fill="#e0e0e0" stroke="#999999" points="338,-19.25 295,-19.25 295,0 338,0 338,-19.25"/>
<text text-anchor="middle" x="316.5" y="-5.75" font-family="Helvetica,sans-Serif" font-size="10.00">vector</text>
</a>
</g>
</g>
<!-- Node1&#45;&gt;Node5 -->
<g id="edge4_Node000001_Node000005" class="edge">
<title>Node1&#45;&gt;Node5</title>
<g id="a_edge4_Node000001_Node000005"><a xlink:title=" ">
<path fill="none" stroke="#63b8ff" d="M266.68,-54.84C275.26,-47.22 287.77,-36.12 298.1,-26.95"/>
<polygon fill="#63b8ff" stroke="#63b8ff" points="300.18,-29.79 305.34,-20.53 295.54,-24.55 300.18,-29.79"/>
</a>
</g>
</g>
<!-- Node6 -->
<g id="Node000006" class="node">
<title>Node6</title>
<g id="a_Node000006"><a xlink:title=" ">
<polygon fill="#e0e0e0" stroke="#999999" points="401.12,-19.25 355.88,-19.25 355.88,0 401.12,0 401.12,-19.25"/>
<text text-anchor="middle" x="378.5" y="-5.75" font-family="Helvetica,sans-Serif" font-size="10.00">chrono</text>
</a>
</g>
</g>
<!-- Node1&#45;&gt;Node6 -->
<g id="edge5_Node000001_Node000006" class="edge">
<title>Node1&#45;&gt;Node6</title>
<g id="a_edge5_Node000001_Node000006"><a xlink:title=" ">
<path fill="none" stroke="#63b8ff" d="M277.2,-54.84C296.39,-46.47 325.21,-33.88 347.22,-24.28"/>
<polygon fill="#63b8ff" stroke="#63b8ff" points="348.55,-27.52 356.32,-20.31 345.75,-21.1 348.55,-27.52"/>
</a>
</g>
</g>
</g>
</svg>
