<?xml version="1.0" encoding="UTF-8" standalone="no"?>
<!DOCTYPE svg PUBLIC "-//W3C//DTD SVG 1.1//EN"
 "http://www.w3.org/Graphics/SVG/1.1/DTD/svg11.dtd">
<!-- Generated by graphviz version 12.2.1 (20241206.2353)
 -->
<!-- Title: src/Components.hpp Pages: 1 -->
<svg width="1671pt" height="304pt"
 viewBox="0.00 0.00 1671.25 303.50" xmlns="http://www.w3.org/2000/svg" xmlns:xlink="http://www.w3.org/1999/xlink">
<g id="graph0" class="graph" transform="scale(1 1) rotate(0) translate(4 299.5)">
<title>src/Components.hpp</title>
<!-- Node1 -->
<g id="Node000001" class="node">
<title>Node1</title>
<g id="a_Node000001"><a xlink:title=" ">
<polygon fill="#999999" stroke="#666666" points="986.38,-295.5 879.62,-295.5 879.62,-276.25 986.38,-276.25 986.38,-295.5"/>
<text text-anchor="middle" x="933" y="-282" font-family="Helvetica,sans-Serif" font-size="10.00">src/Components.hpp</text>
</a>
</g>
</g>
<!-- Node2 -->
<g id="Node000002" class="node">
<title>Node2</title>
<g id="a_Node000002"><a xlink:href="_systems_8hpp.html" target="_top" xlink:title=" ">
<polygon fill="white" stroke="#666666" points="836.12,-240.25 745.88,-240.25 745.88,-221 836.12,-221 836.12,-240.25"/>
<text text-anchor="middle" x="791" y="-226.75" font-family="Helvetica,sans-Serif" font-size="10.00">src/Systems.hpp</text>
</a>
</g>
</g>
<!-- Node1&#45;&gt;Node2 -->
<g id="edge1_Node000001_Node000002" class="edge">
<title>Node1&#45;&gt;Node2</title>
<g id="a_edge1_Node000001_Node000002"><a xlink:title=" ">
<path fill="none" stroke="#63b8ff" d="M898.46,-271.92C872.68,-262.25 838.09,-249.29 815.21,-240.7"/>
<polygon fill="#63b8ff" stroke="#63b8ff" points="896.9,-275.08 907.49,-275.31 899.36,-268.52 896.9,-275.08"/>
</a>
</g>
</g>
<!-- Node4 -->
<g id="Node000004" class="node">
<title>Node4</title>
<g id="a_Node000004"><a xlink:href="_core_8hpp.html" target="_top" xlink:title=" ">
<polygon fill="white" stroke="#666666" points="971.25,-74.5 872.75,-74.5 872.75,-55.25 971.25,-55.25 971.25,-74.5"/>
<text text-anchor="middle" x="922" y="-61" font-family="Helvetica,sans-Serif" font-size="10.00">src/client/Core.hpp</text>
</a>
</g>
</g>
<!-- Node1&#45;&gt;Node4 -->
<g id="edge34_Node000001_Node000004" class="edge">
<title>Node1&#45;&gt;Node4</title>
<g id="a_edge34_Node000001_Node000004"><a xlink:title=" ">
<path fill="none" stroke="#63b8ff" d="M938.74,-265.26C947.38,-232.6 961.28,-165.22 947,-110.5 943.5,-97.1 934.98,-83.46 928.86,-74.85"/>
<polygon fill="#63b8ff" stroke="#63b8ff" points="935.47,-263.95 936.16,-274.53 942.21,-265.83 935.47,-263.95"/>
</a>
</g>
</g>
<!-- Node3 -->
<g id="Node000003" class="node">
<title>Node3</title>
<g id="a_Node000003"><a xlink:href="_systems_8cpp.html" target="_top" xlink:title=" ">
<polygon fill="white" stroke="#666666" points="909.12,-185 818.88,-185 818.88,-165.75 909.12,-165.75 909.12,-185"/>
<text text-anchor="middle" x="864" y="-171.5" font-family="Helvetica,sans-Serif" font-size="10.00">src/Systems.cpp</text>
</a>
</g>
</g>
<!-- Node2&#45;&gt;Node3 -->
<g id="edge2_Node000002_Node000003" class="edge">
<title>Node2&#45;&gt;Node3</title>
<g id="a_edge2_Node000002_Node000003"><a xlink:title=" ">
<path fill="none" stroke="#63b8ff" d="M812.47,-213.97C825.28,-204.62 841.1,-193.08 851.8,-185.27"/>
<polygon fill="#63b8ff" stroke="#63b8ff" points="810.62,-210.98 804.61,-219.7 814.75,-216.63 810.62,-210.98"/>
</a>
</g>
</g>
<!-- Node2&#45;&gt;Node4 -->
<g id="edge3_Node000002_Node000004" class="edge">
<title>Node2&#45;&gt;Node4</title>
<g id="a_edge3_Node000002_Node000004"><a xlink:title=" ">
<path fill="none" stroke="#63b8ff" d="M847.68,-224.09C873.41,-218.45 901.68,-207.24 918,-185 942.86,-151.14 930.81,-96.07 924.75,-74.72"/>
<polygon fill="#63b8ff" stroke="#63b8ff" points="847.12,-220.63 837.96,-225.95 848.44,-227.51 847.12,-220.63"/>
</a>
</g>
</g>
<!-- Node6 -->
<g id="Node000006" class="node">
<title>Node6</title>
<g id="a_Node000006"><a xlink:href="_gui_game_8cpp.html" target="_top" xlink:title=" ">
<polygon fill="white" stroke="#666666" points="710.38,-19.25 591.62,-19.25 591.62,0 710.38,0 710.38,-19.25"/>
<text text-anchor="middle" x="651" y="-5.75" font-family="Helvetica,sans-Serif" font-size="10.00">src/client/GuiGame.cpp</text>
</a>
</g>
</g>
<!-- Node2&#45;&gt;Node6 -->
<g id="edge14_Node000002_Node000006" class="edge">
<title>Node2&#45;&gt;Node6</title>
<g id="a_edge14_Node000002_Node000006"><a xlink:title=" ">
<path fill="none" stroke="#63b8ff" d="M791.99,-209.3C792.29,-184.38 789.79,-141.62 772,-110.5 747.12,-66.99 695.5,-34.43 668.43,-19.56"/>
<polygon fill="#63b8ff" stroke="#63b8ff" points="788.5,-208.94 791.69,-219.04 795.49,-209.15 788.5,-208.94"/>
</a>
</g>
</g>
<!-- Node11 -->
<g id="Node000011" class="node">
<title>Node11</title>
<g id="a_Node000011"><a xlink:href="_handle_animation_8cpp.html" target="_top" xlink:title=" ">
<polygon fill="white" stroke="#666666" points="573.88,-19.25 422.12,-19.25 422.12,0 573.88,0 573.88,-19.25"/>
<text text-anchor="middle" x="498" y="-5.75" font-family="Helvetica,sans-Serif" font-size="10.00">src/client/HandleAnimation.cpp</text>
</a>
</g>
</g>
<!-- Node2&#45;&gt;Node11 -->
<g id="edge15_Node000002_Node000011" class="edge">
<title>Node2&#45;&gt;Node11</title>
<g id="a_edge15_Node000002_Node000011"><a xlink:title=" ">
<path fill="none" stroke="#63b8ff" d="M734.42,-220.21C651.34,-205.09 502.84,-172.68 472,-129.75 447.05,-95.02 477.66,-40.93 491.69,-19.65"/>
<polygon fill="#63b8ff" stroke="#63b8ff" points="733.74,-223.64 744.2,-221.96 734.97,-216.75 733.74,-223.64"/>
</a>
</g>
</g>
<!-- Node12 -->
<g id="Node000012" class="node">
<title>Node12</title>
<g id="a_Node000012"><a xlink:href="_handle_commands_8cpp.html" target="_top" xlink:title=" ">
<polygon fill="white" stroke="#666666" points="1663.25,-19.25 1504.75,-19.25 1504.75,0 1663.25,0 1663.25,-19.25"/>
<text text-anchor="middle" x="1584" y="-5.75" font-family="Helvetica,sans-Serif" font-size="10.00">src/client/HandleCommands.cpp</text>
</a>
</g>
</g>
<!-- Node2&#45;&gt;Node12 -->
<g id="edge16_Node000002_Node000012" class="edge">
<title>Node2&#45;&gt;Node12</title>
<g id="a_edge16_Node000002_Node000012"><a xlink:title=" ">
<path fill="none" stroke="#63b8ff" d="M834.42,-217.63C976.51,-178.39 1425.7,-54.34 1551.16,-19.69"/>
<polygon fill="#63b8ff" stroke="#63b8ff" points="833.73,-214.19 825.02,-220.23 835.59,-220.94 833.73,-214.19"/>
</a>
</g>
</g>
<!-- Node13 -->
<g id="Node000013" class="node">
<title>Node13</title>
<g id="a_Node000013"><a xlink:href="_handle_input_8cpp.html" target="_top" xlink:title=" ">
<polygon fill="white" stroke="#666666" points="404,-19.25 274,-19.25 274,0 404,0 404,-19.25"/>
<text text-anchor="middle" x="339" y="-5.75" font-family="Helvetica,sans-Serif" font-size="10.00">src/client/HandleInput.cpp</text>
</a>
</g>
</g>
<!-- Node2&#45;&gt;Node13 -->
<g id="edge17_Node000002_Node000013" class="edge">
<title>Node2&#45;&gt;Node13</title>
<g id="a_edge17_Node000002_Node000013"><a xlink:title=" ">
<path fill="none" stroke="#63b8ff" d="M734.41,-228.62C678.97,-225.71 593.25,-216 526,-185 439.33,-145.05 366.34,-49.21 345.18,-19.54"/>
<polygon fill="#63b8ff" stroke="#63b8ff" points="734.1,-232.11 744.25,-229.07 734.42,-225.12 734.1,-232.11"/>
</a>
</g>
</g>
<!-- Node15 -->
<g id="Node000015" class="node">
<title>Node15</title>
<g id="a_Node000015"><a xlink:href="_mediator_8hpp.html" target="_top" xlink:title=" ">
<polygon fill="white" stroke="#666666" points="763,-185 645,-185 645,-165.75 763,-165.75 763,-185"/>
<text text-anchor="middle" x="704" y="-171.5" font-family="Helvetica,sans-Serif" font-size="10.00">src/server/Mediator.hpp</text>
</a>
</g>
</g>
<!-- Node2&#45;&gt;Node15 -->
<g id="edge18_Node000002_Node000015" class="edge">
<title>Node2&#45;&gt;Node15</title>
<g id="a_edge18_Node000002_Node000015"><a xlink:title=" ">
<path fill="none" stroke="#63b8ff" d="M761.17,-215.09C744.59,-205.63 725.19,-193.58 713.6,-185.45"/>
<polygon fill="#63b8ff" stroke="#63b8ff" points="759.26,-218.04 769.7,-219.85 762.68,-211.93 759.26,-218.04"/>
</a>
</g>
</g>
<!-- Node5 -->
<g id="Node000005" class="node">
<title>Node5</title>
<g id="a_Node000005"><a xlink:href="_core_8cpp.html" target="_top" xlink:title=" ">
<polygon fill="white" stroke="#666666" points="1216.25,-19.25 1117.75,-19.25 1117.75,0 1216.25,0 1216.25,-19.25"/>
<text text-anchor="middle" x="1167" y="-5.75" font-family="Helvetica,sans-Serif" font-size="10.00">src/client/Core.cpp</text>
</a>
</g>
</g>
<!-- Node4&#45;&gt;Node5 -->
<g id="edge4_Node000004_Node000005" class="edge">
<title>Node4&#45;&gt;Node5</title>
<g id="a_edge4_Node000004_Node000005"><a xlink:title=" ">
<path fill="none" stroke="#63b8ff" d="M974.86,-52.38C1019.93,-42.59 1083.82,-28.7 1125.33,-19.68"/>
<polygon fill="#63b8ff" stroke="#63b8ff" points="974.35,-48.92 965.32,-54.46 975.83,-55.76 974.35,-48.92"/>
</a>
</g>
</g>
<!-- Node4&#45;&gt;Node6 -->
<g id="edge5_Node000004_Node000006" class="edge">
<title>Node4&#45;&gt;Node6</title>
<g id="a_edge5_Node000004_Node000006"><a xlink:title=" ">
<path fill="none" stroke="#63b8ff" d="M864.47,-52.57C814.58,-42.77 743.3,-28.76 697.09,-19.68"/>
<polygon fill="#63b8ff" stroke="#63b8ff" points="863.75,-56 874.24,-54.49 865.1,-49.13 863.75,-56"/>
</a>
</g>
</g>
<!-- Node7 -->
<g id="Node000007" class="node">
<title>Node7</title>
<g id="a_Node000007"><a xlink:href="_gui_lobby_8cpp.html" target="_top" xlink:title=" ">
<polygon fill="white" stroke="#666666" points="1351.62,-19.25 1234.38,-19.25 1234.38,0 1351.62,0 1351.62,-19.25"/>
<text text-anchor="middle" x="1293" y="-5.75" font-family="Helvetica,sans-Serif" font-size="10.00">src/client/GuiLobby.cpp</text>
</a>
</g>
</g>
<!-- Node4&#45;&gt;Node7 -->
<g id="edge6_Node000004_Node000007" class="edge">
<title>Node4&#45;&gt;Node7</title>
<g id="a_edge6_Node000004_Node000007"><a xlink:title=" ">
<path fill="none" stroke="#63b8ff" d="M982.85,-55.14C1052.4,-45.16 1165.47,-28.93 1234.16,-19.07"/>
<polygon fill="#63b8ff" stroke="#63b8ff" points="982.55,-51.65 973.15,-56.53 983.54,-58.58 982.55,-51.65"/>
</a>
</g>
</g>
<!-- Node8 -->
<g id="Node000008" class="node">
<title>Node8</title>
<g id="a_Node000008"><a xlink:href="_gui_login_8cpp.html" target="_top" xlink:title=" ">
<polygon fill="white" stroke="#666666" points="843.88,-19.25 728.12,-19.25 728.12,0 843.88,0 843.88,-19.25"/>
<text text-anchor="middle" x="786" y="-5.75" font-family="Helvetica,sans-Serif" font-size="10.00">src/client/GuiLogin.cpp</text>
</a>
</g>
</g>
<!-- Node4&#45;&gt;Node8 -->
<g id="edge7_Node000004_Node000008" class="edge">
<title>Node4&#45;&gt;Node8</title>
<g id="a_edge7_Node000004_Node000008"><a xlink:title=" ">
<path fill="none" stroke="#63b8ff" d="M888.26,-50.66C863.64,-41.02 830.91,-28.21 809.18,-19.7"/>
<polygon fill="#63b8ff" stroke="#63b8ff" points="886.93,-53.9 897.52,-54.29 889.48,-47.38 886.93,-53.9"/>
</a>
</g>
</g>
<!-- Node9 -->
<g id="Node000009" class="node">
<title>Node9</title>
<g id="a_Node000009"><a xlink:href="_gui_menu_8cpp.html" target="_top" xlink:title=" ">
<polygon fill="white" stroke="#666666" points="1486.25,-19.25 1369.75,-19.25 1369.75,0 1486.25,0 1486.25,-19.25"/>
<text text-anchor="middle" x="1428" y="-5.75" font-family="Helvetica,sans-Serif" font-size="10.00">src/client/GuiMenu.cpp</text>
</a>
</g>
</g>
<!-- Node4&#45;&gt;Node9 -->
<g id="edge8_Node000004_Node000009" class="edge">
<title>Node4&#45;&gt;Node9</title>
<g id="a_edge8_Node000004_Node000009"><a xlink:title=" ">
<path fill="none" stroke="#63b8ff" d="M982.52,-55.54C983.35,-55.44 984.18,-55.35 985,-55.25 1151.75,-35.86 1194.17,-37.97 1361,-19.25 1363.8,-18.94 1366.66,-18.61 1369.55,-18.26"/>
<polygon fill="#63b8ff" stroke="#63b8ff" points="982.5,-52.02 973,-56.72 983.35,-58.96 982.5,-52.02"/>
</a>
</g>
</g>
<!-- Node10 -->
<g id="Node000010" class="node">
<title>Node10</title>
<g id="a_Node000010"><a xlink:href="_gui_option_8cpp.html" target="_top" xlink:title=" ">
<polygon fill="white" stroke="#666666" points="982.5,-19.25 861.5,-19.25 861.5,0 982.5,0 982.5,-19.25"/>
<text text-anchor="middle" x="922" y="-5.75" font-family="Helvetica,sans-Serif" font-size="10.00">src/client/GuiOption.cpp</text>
</a>
</g>
</g>
<!-- Node4&#45;&gt;Node10 -->
<g id="edge9_Node000004_Node000010" class="edge">
<title>Node4&#45;&gt;Node10</title>
<g id="a_edge9_Node000004_Node000010"><a xlink:title=" ">
<path fill="none" stroke="#63b8ff" d="M922,-43.63C922,-35.34 922,-26.17 922,-19.61"/>
<polygon fill="#63b8ff" stroke="#63b8ff" points="918.5,-43.57 922,-53.57 925.5,-43.57 918.5,-43.57"/>
</a>
</g>
</g>
<!-- Node4&#45;&gt;Node11 -->
<g id="edge10_Node000004_Node000011" class="edge">
<title>Node4&#45;&gt;Node11</title>
<g id="a_edge10_Node000004_Node000011"><a xlink:title=" ">
<path fill="none" stroke="#63b8ff" d="M861.16,-56.23C784.36,-46.59 652.43,-30.02 570.5,-19.73"/>
<polygon fill="#63b8ff" stroke="#63b8ff" points="860.67,-59.7 871.03,-57.47 861.54,-52.75 860.67,-59.7"/>
</a>
</g>
</g>
<!-- Node4&#45;&gt;Node12 -->
<g id="edge11_Node000004_Node000012" class="edge">
<title>Node4&#45;&gt;Node12</title>
<g id="a_edge11_Node000004_Node000012"><a xlink:title=" ">
<path fill="none" stroke="#63b8ff" d="M982.51,-55.51C983.35,-55.42 984.18,-55.34 985,-55.25 1211.02,-31.83 1268.56,-38.21 1495,-19.25 1498.09,-18.99 1501.25,-18.72 1504.43,-18.44"/>
<polygon fill="#63b8ff" stroke="#63b8ff" points="982.52,-51.99 972.99,-56.61 983.32,-58.94 982.52,-51.99"/>
</a>
</g>
</g>
<!-- Node4&#45;&gt;Node13 -->
<g id="edge12_Node000004_Node000013" class="edge">
<title>Node4&#45;&gt;Node13</title>
<g id="a_edge12_Node000004_Node000013"><a xlink:title=" ">
<path fill="none" stroke="#63b8ff" d="M861.01,-59.09C765.44,-51.48 574.59,-35.75 413,-19.25 410.17,-18.96 407.28,-18.66 404.36,-18.35"/>
<polygon fill="#63b8ff" stroke="#63b8ff" points="860.71,-62.58 870.95,-59.89 861.26,-55.6 860.71,-62.58"/>
</a>
</g>
</g>
<!-- Node14 -->
<g id="Node000014" class="node">
<title>Node14</title>
<g id="a_Node000014"><a xlink:href="client_2main_8cpp.html" target="_top" xlink:title=" ">
<polygon fill="white" stroke="#666666" points="1099.25,-19.25 1000.75,-19.25 1000.75,0 1099.25,0 1099.25,-19.25"/>
<text text-anchor="middle" x="1050" y="-5.75" font-family="Helvetica,sans-Serif" font-size="10.00">src/client/Main.cpp</text>
</a>
</g>
</g>
<!-- Node4&#45;&gt;Node14 -->
<g id="edge13_Node000004_Node000014" class="edge">
<title>Node4&#45;&gt;Node14</title>
<g id="a_edge13_Node000004_Node000014"><a xlink:title=" ">
<path fill="none" stroke="#63b8ff" d="M954.07,-50.53C977.21,-40.91 1007.82,-28.17 1028.18,-19.7"/>
<polygon fill="#63b8ff" stroke="#63b8ff" points="953,-47.19 945.11,-54.26 955.69,-53.65 953,-47.19"/>
</a>
</g>
</g>
<!-- Node15&#45;&gt;Node2 -->
<g id="edge19_Node000015_Node000002" class="edge">
<title>Node15&#45;&gt;Node2</title>
<g id="a_edge19_Node000015_Node000002"><a xlink:title=" ">
<path fill="none" stroke="#63b8ff" d="M733.92,-190.96C750.51,-200.43 769.9,-212.48 781.46,-220.59"/>
<polygon fill="#63b8ff" stroke="#63b8ff" points="735.82,-188.01 725.38,-186.19 732.4,-194.12 735.82,-188.01"/>
</a>
</g>
</g>
<!-- Node16 -->
<g id="Node000016" class="node">
<title>Node16</title>
<g id="a_Node000016"><a xlink:href="_mediator_8cpp.html" target="_top" xlink:title=" ">
<polygon fill="white" stroke="#666666" points="763,-129.75 645,-129.75 645,-110.5 763,-110.5 763,-129.75"/>
<text text-anchor="middle" x="704" y="-116.25" font-family="Helvetica,sans-Serif" font-size="10.00">src/server/Mediator.cpp</text>
</a>
</g>
</g>
<!-- Node15&#45;&gt;Node16 -->
<g id="edge20_Node000015_Node000016" class="edge">
<title>Node15&#45;&gt;Node16</title>
<g id="a_edge20_Node000015_Node000016"><a xlink:title=" ">
<path fill="none" stroke="#63b8ff" d="M704,-154.13C704,-145.84 704,-136.67 704,-130.11"/>
<polygon fill="#63b8ff" stroke="#63b8ff" points="700.5,-154.07 704,-164.07 707.5,-154.07 700.5,-154.07"/>
</a>
</g>
</g>
<!-- Node17 -->
<g id="Node000017" class="node">
<title>Node17</title>
<g id="a_Node000017"><a xlink:href="_server_game_8hpp.html" target="_top" xlink:title=" ">
<polygon fill="white" stroke="#666666" points="292,-74.5 156,-74.5 156,-55.25 292,-55.25 292,-74.5"/>
<text text-anchor="middle" x="224" y="-61" font-family="Helvetica,sans-Serif" font-size="10.00">src/server/ServerGame.hpp</text>
</a>
</g>
</g>
<!-- Node15&#45;&gt;Node17 -->
<g id="edge21_Node000015_Node000017" class="edge">
<title>Node15&#45;&gt;Node17</title>
<g id="a_edge21_Node000015_Node000017"><a xlink:title=" ">
<path fill="none" stroke="#63b8ff" d="M640.57,-163.27C593.82,-154.82 528.75,-142.5 472,-129.75 394.35,-112.3 304.04,-88.02 256.74,-75"/>
<polygon fill="#63b8ff" stroke="#63b8ff" points="639.8,-166.69 650.26,-165.01 641.04,-159.8 639.8,-166.69"/>
</a>
</g>
</g>
<!-- Node20 -->
<g id="Node000020" class="node">
<title>Node20</title>
<g id="a_Node000020"><a xlink:href="_server_network_8hpp.html" target="_top" xlink:title=" ">
<polygon fill="white" stroke="#666666" points="627.25,-129.75 480.75,-129.75 480.75,-110.5 627.25,-110.5 627.25,-129.75"/>
<text text-anchor="middle" x="554" y="-116.25" font-family="Helvetica,sans-Serif" font-size="10.00">src/server/ServerNetwork.hpp</text>
</a>
</g>
</g>
<!-- Node15&#45;&gt;Node20 -->
<g id="edge24_Node000015_Node000020" class="edge">
<title>Node15&#45;&gt;Node20</title>
<g id="a_edge24_Node000015_Node000020"><a xlink:title=" ">
<path fill="none" stroke="#63b8ff" d="M667.88,-161.55C640.61,-151.87 603.86,-138.82 579.57,-130.2"/>
<polygon fill="#63b8ff" stroke="#63b8ff" points="666.53,-164.79 677.13,-164.84 668.88,-158.19 666.53,-164.79"/>
</a>
</g>
</g>
<!-- Node18 -->
<g id="Node000018" class="node">
<title>Node18</title>
<g id="a_Node000018"><a xlink:href="_server_game_8cpp.html" target="_top" xlink:title=" ">
<polygon fill="white" stroke="#666666" points="136,-19.25 0,-19.25 0,0 136,0 136,-19.25"/>
<text text-anchor="middle" x="68" y="-5.75" font-family="Helvetica,sans-Serif" font-size="10.00">src/server/ServerGame.cpp</text>
</a>
</g>
</g>
<!-- Node17&#45;&gt;Node18 -->
<g id="edge22_Node000017_Node000018" class="edge">
<title>Node17&#45;&gt;Node18</title>
<g id="a_edge22_Node000017_Node000018"><a xlink:title=" ">
<path fill="none" stroke="#63b8ff" d="M186.81,-51.18C158.41,-41.49 119.96,-28.36 94.59,-19.7"/>
<polygon fill="#63b8ff" stroke="#63b8ff" points="185.51,-54.43 196.1,-54.35 187.77,-47.81 185.51,-54.43"/>
</a>
</g>
</g>
<!-- Node19 -->
<g id="Node000019" class="node">
<title>Node19</title>
<g id="a_Node000019"><a xlink:href="server_2main_8cpp.html" target="_top" xlink:title=" ">
<polygon fill="white" stroke="#666666" points="256.12,-19.25 153.88,-19.25 153.88,0 256.12,0 256.12,-19.25"/>
<text text-anchor="middle" x="205" y="-5.75" font-family="Helvetica,sans-Serif" font-size="10.00">src/server/main.cpp</text>
</a>
</g>
</g>
<!-- Node17&#45;&gt;Node19 -->
<g id="edge23_Node000017_Node000019" class="edge">
<title>Node17&#45;&gt;Node19</title>
<g id="a_edge23_Node000017_Node000019"><a xlink:title=" ">
<path fill="none" stroke="#63b8ff" d="M217.09,-44.5C214.05,-35.99 210.63,-26.4 208.21,-19.61"/>
<polygon fill="#63b8ff" stroke="#63b8ff" points="213.7,-45.41 220.35,-53.66 220.29,-43.06 213.7,-45.41"/>
</a>
</g>
</g>
<!-- Node20&#45;&gt;Node4 -->
<g id="edge25_Node000020_Node000004" class="edge">
<title>Node20&#45;&gt;Node4</title>
<g id="a_edge25_Node000020_Node000004"><a xlink:title=" ">
<path fill="none" stroke="#63b8ff" d="M628.19,-108.39C700.87,-97.87 809.6,-82.14 872.39,-73.05"/>
<polygon fill="#63b8ff" stroke="#63b8ff" points="627.74,-104.92 618.34,-109.81 628.74,-111.85 627.74,-104.92"/>
</a>
</g>
</g>
<!-- Node20&#45;&gt;Node6 -->
<g id="edge26_Node000020_Node000006" class="edge">
<title>Node20&#45;&gt;Node6</title>
<g id="a_edge26_Node000020_Node000006"><a xlink:title=" ">
<path fill="none" stroke="#63b8ff" d="M629.77,-106.34C647.07,-99.72 663.44,-89.69 674,-74.5 686.11,-57.08 669.82,-32.58 659.08,-19.57"/>
<polygon fill="#63b8ff" stroke="#63b8ff" points="628.7,-103.01 620.36,-109.55 630.95,-109.63 628.7,-103.01"/>
</a>
</g>
</g>
<!-- Node20&#45;&gt;Node8 -->
<g id="edge27_Node000020_Node000008" class="edge">
<title>Node20&#45;&gt;Node8</title>
<g id="a_edge27_Node000020_Node000008"><a xlink:title=" ">
<path fill="none" stroke="#63b8ff" d="M601.53,-106.95C628.22,-99.28 661.74,-88.23 690,-74.5 722.77,-58.58 757.47,-33.01 774.79,-19.56"/>
<polygon fill="#63b8ff" stroke="#63b8ff" points="600.68,-103.55 592,-109.62 602.57,-110.29 600.68,-103.55"/>
</a>
</g>
</g>
<!-- Node20&#45;&gt;Node11 -->
<g id="edge28_Node000020_Node000011" class="edge">
<title>Node20&#45;&gt;Node11</title>
<g id="a_edge28_Node000020_Node000011"><a xlink:title=" ">
<path fill="none" stroke="#63b8ff" d="M533.17,-102.82C524.72,-95.12 515.63,-85.26 510,-74.5 500.58,-56.5 498.48,-32.24 498.06,-19.41"/>
<polygon fill="#63b8ff" stroke="#63b8ff" points="530.88,-105.46 540.76,-109.29 535.42,-100.14 530.88,-105.46"/>
</a>
</g>
</g>
<!-- Node20&#45;&gt;Node12 -->
<g id="edge29_Node000020_Node000012" class="edge">
<title>Node20&#45;&gt;Node12</title>
<g id="a_edge29_Node000020_Node000012"><a xlink:title=" ">
<path fill="none" stroke="#63b8ff" d="M638.48,-110.28C790.94,-95.36 835.03,-113.47 980,-74.5 1000.22,-69.06 1002.7,-60.4 1023,-55.25 1226.92,-3.5 1285.4,-37.4 1495,-19.25 1498.09,-18.98 1501.25,-18.7 1504.43,-18.42"/>
<polygon fill="#63b8ff" stroke="#63b8ff" points="638.42,-106.77 628.82,-111.26 639.13,-113.73 638.42,-106.77"/>
</a>
</g>
</g>
<!-- Node20&#45;&gt;Node13 -->
<g id="edge30_Node000020_Node000013" class="edge">
<title>Node20&#45;&gt;Node13</title>
<g id="a_edge30_Node000020_Node000013"><a xlink:title=" ">
<path fill="none" stroke="#63b8ff" d="M525.84,-104.91C480.98,-82.28 394.54,-38.65 357.06,-19.74"/>
<polygon fill="#63b8ff" stroke="#63b8ff" points="524.18,-108 534.69,-109.38 527.34,-101.75 524.18,-108"/>
</a>
</g>
</g>
<!-- Node20&#45;&gt;Node17 -->
<g id="edge31_Node000020_Node000017" class="edge">
<title>Node20&#45;&gt;Node17</title>
<g id="a_edge31_Node000020_Node000017"><a xlink:title=" ">
<path fill="none" stroke="#63b8ff" d="M486.63,-108.25C425.87,-98.45 337.52,-84.19 280.4,-74.98"/>
<polygon fill="#63b8ff" stroke="#63b8ff" points="485.72,-111.65 496.15,-109.79 486.84,-104.74 485.72,-111.65"/>
</a>
</g>
</g>
<!-- Node20&#45;&gt;Node19 -->
<g id="edge33_Node000020_Node000019" class="edge">
<title>Node20&#45;&gt;Node19</title>
<g id="a_edge33_Node000020_Node000019"><a xlink:title=" ">
<path fill="none" stroke="#63b8ff" d="M514.14,-106.73C443.24,-84.69 296.82,-39.17 234.32,-19.74"/>
<polygon fill="#63b8ff" stroke="#63b8ff" points="512.81,-109.99 523.4,-109.61 514.89,-103.3 512.81,-109.99"/>
</a>
</g>
</g>
<!-- Node21 -->
<g id="Node000021" class="node">
<title>Node21</title>
<g id="a_Node000021"><a xlink:href="_server_network_8cpp.html" target="_top" xlink:title=" ">
<polygon fill="white" stroke="#666666" points="665.25,-74.5 518.75,-74.5 518.75,-55.25 665.25,-55.25 665.25,-74.5"/>
<text text-anchor="middle" x="592" y="-61" font-family="Helvetica,sans-Serif" font-size="10.00">src/server/ServerNetwork.cpp</text>
</a>
</g>
</g>
<!-- Node20&#45;&gt;Node21 -->
<g id="edge32_Node000020_Node000021" class="edge">
<title>Node20&#45;&gt;Node21</title>
<g id="a_edge32_Node000020_Node000021"><a xlink:title=" ">
<path fill="none" stroke="#63b8ff" d="M566.8,-101.19C573.12,-92.34 580.46,-82.04 585.59,-74.86"/>
<polygon fill="#63b8ff" stroke="#63b8ff" points="564.11,-98.93 561.15,-109.1 569.81,-102.99 564.11,-98.93"/>
</a>
</g>
</g>
</g>
</svg>
