<?xml version="1.0" encoding="UTF-8" standalone="no"?>
<!DOCTYPE svg PUBLIC "-//W3C//DTD SVG 1.1//EN"
 "http://www.w3.org/Graphics/SVG/1.1/DTD/svg11.dtd">
<!-- Generated by graphviz version 12.2.1 (20241206.2353)
 -->
<!-- Title: src/client/Core.cpp Pages: 1 -->
<svg width="1676pt" height="359pt"
 viewBox="0.00 0.00 1675.91 358.75" xmlns="http://www.w3.org/2000/svg" xmlns:xlink="http://www.w3.org/1999/xlink">
<g id="graph0" class="graph" transform="scale(1 1) rotate(0) translate(4 354.75)">
<title>src/client/Core.cpp</title>
<!-- Node1 -->
<g id="Node000001" class="node">
<title>Node1</title>
<g id="a_Node000001"><a xlink:title=" ">
<polygon fill="#999999" stroke="#666666" points="484.39,-350.75 385.89,-350.75 385.89,-331.5 484.39,-331.5 484.39,-350.75"/>
<text text-anchor="middle" x="435.14" y="-337.25" font-family="Helvetica,sans-Serif" font-size="10.00">src/client/Core.cpp</text>
</a>
</g>
</g>
<!-- Node2 -->
<g id="Node000002" class="node">
<title>Node2</title>
<g id="a_Node000002"><a xlink:href="_core_8hpp.html" target="_top" xlink:title=" ">
<polygon fill="white" stroke="#666666" points="722.02,-295.5 666.27,-295.5 666.27,-276.25 722.02,-276.25 722.02,-295.5"/>
<text text-anchor="middle" x="694.14" y="-282" font-family="Helvetica,sans-Serif" font-size="10.00">Core.hpp</text>
</a>
</g>
</g>
<!-- Node1&#45;&gt;Node2 -->
<g id="edge1_Node000001_Node000002" class="edge">
<title>Node1&#45;&gt;Node2</title>
<g id="a_edge1_Node000001_Node000002"><a xlink:title=" ">
<path fill="none" stroke="#63b8ff" d="M479.37,-331.03C528.76,-320.88 607.93,-304.6 655.1,-294.9"/>
<polygon fill="#63b8ff" stroke="#63b8ff" points="655.51,-298.39 664.6,-292.95 654.1,-291.53 655.51,-298.39"/>
</a>
</g>
</g>
<!-- Node28 -->
<g id="Node000028" class="node">
<title>Node28</title>
<g id="a_Node000028"><a xlink:href="_utils_8hpp.html" target="_top" xlink:title=" ">
<polygon fill="white" stroke="#666666" points="233.64,-185 178.64,-185 178.64,-165.75 233.64,-165.75 233.64,-185"/>
<text text-anchor="middle" x="206.14" y="-171.5" font-family="Helvetica,sans-Serif" font-size="10.00">Utils.hpp</text>
</a>
</g>
</g>
<!-- Node1&#45;&gt;Node28 -->
<g id="edge79_Node000001_Node000028" class="edge">
<title>Node1&#45;&gt;Node28</title>
<g id="a_edge79_Node000001_Node000028"><a xlink:title=" ">
<path fill="none" stroke="#63b8ff" d="M390.21,-331.07C341.54,-318.88 265.11,-292.43 222.14,-240.25 212.02,-227.95 208.17,-210.12 206.77,-196.42"/>
<polygon fill="#63b8ff" stroke="#63b8ff" points="210.29,-196.54 206.16,-186.79 203.3,-196.99 210.29,-196.54"/>
</a>
</g>
</g>
<!-- Node3 -->
<g id="Node000003" class="node">
<title>Node3</title>
<g id="a_Node000003"><a xlink:href="_entity_8hpp.html" target="_top" xlink:title=" ">
<polygon fill="white" stroke="#666666" points="523.02,-74.5 455.27,-74.5 455.27,-55.25 523.02,-55.25 523.02,-74.5"/>
<text text-anchor="middle" x="489.14" y="-61" font-family="Helvetica,sans-Serif" font-size="10.00">../Entity.hpp</text>
</a>
</g>
</g>
<!-- Node2&#45;&gt;Node3 -->
<g id="edge2_Node000002_Node000003" class="edge">
<title>Node2&#45;&gt;Node3</title>
<g id="a_edge2_Node000002_Node000003"><a xlink:title=" ">
<path fill="none" stroke="#63b8ff" d="M665.83,-276.16C645.81,-268.94 619.23,-257.11 600.14,-240.25 548.67,-194.78 512.13,-119.85 496.95,-84.91"/>
<polygon fill="#63b8ff" stroke="#63b8ff" points="500.34,-83.94 493.23,-76.09 493.89,-86.67 500.34,-83.94"/>
</a>
</g>
</g>
<!-- Node5 -->
<g id="Node000005" class="node">
<title>Node5</title>
<g id="a_Node000005"><a xlink:title=" ">
<polygon fill="#e0e0e0" stroke="#999999" points="513.27,-19.25 465.02,-19.25 465.02,0 513.27,0 513.27,-19.25"/>
<text text-anchor="middle" x="489.14" y="-5.75" font-family="Helvetica,sans-Serif" font-size="10.00">cstddef</text>
</a>
</g>
</g>
<!-- Node2&#45;&gt;Node5 -->
<g id="edge43_Node000002_Node000005" class="edge">
<title>Node2&#45;&gt;Node5</title>
<g id="a_edge43_Node000002_Node000005"><a xlink:title=" ">
<path fill="none" stroke="#63b8ff" d="M698.4,-275.9C702.34,-267.06 707.91,-253.06 710.14,-240.25 711.61,-231.82 710.68,-229.54 710.14,-221 705.28,-143.95 721.28,-99.68 658.14,-55.25 618.06,-27.04 561.28,-16.66 524.83,-12.85"/>
<polygon fill="#63b8ff" stroke="#63b8ff" points="525.54,-9.4 515.26,-11.96 524.9,-16.37 525.54,-9.4"/>
</a>
</g>
</g>
<!-- Node6 -->
<g id="Node000006" class="node">
<title>Node6</title>
<g id="a_Node000006"><a xlink:href="_registry_8hpp.html" target="_top" xlink:title=" ">
<polygon fill="white" stroke="#666666" points="686.64,-129.75 607.64,-129.75 607.64,-110.5 686.64,-110.5 686.64,-129.75"/>
<text text-anchor="middle" x="647.14" y="-116.25" font-family="Helvetica,sans-Serif" font-size="10.00">../Registry.hpp</text>
</a>
</g>
</g>
<!-- Node2&#45;&gt;Node6 -->
<g id="edge5_Node000002_Node000006" class="edge">
<title>Node2&#45;&gt;Node6</title>
<g id="a_edge5_Node000002_Node000006"><a xlink:title=" ">
<path fill="none" stroke="#63b8ff" d="M665.78,-278.03C646.4,-271.72 622.14,-260.21 610.14,-240.25 590.52,-207.61 615.32,-163.59 632.77,-139.24"/>
<polygon fill="#63b8ff" stroke="#63b8ff" points="635.52,-141.4 638.74,-131.3 629.93,-137.19 635.52,-141.4"/>
</a>
</g>
</g>
<!-- Node12 -->
<g id="Node000012" class="node">
<title>Node12</title>
<g id="a_Node000012"><a xlink:href="_sparse_array_8hpp.html" target="_top" xlink:title=" ">
<polygon fill="white" stroke="#666666" points="830.77,-74.5 743.52,-74.5 743.52,-55.25 830.77,-55.25 830.77,-74.5"/>
<text text-anchor="middle" x="787.14" y="-61" font-family="Helvetica,sans-Serif" font-size="10.00">SparseArray.hpp</text>
</a>
</g>
</g>
<!-- Node2&#45;&gt;Node12 -->
<g id="edge18_Node000002_Node000012" class="edge">
<title>Node2&#45;&gt;Node12</title>
<g id="a_edge18_Node000002_Node000012"><a xlink:title=" ">
<path fill="none" stroke="#63b8ff" d="M707.83,-275.87C718.98,-267.83 734.27,-255.06 743.14,-240.25 773.16,-190.13 782.8,-120.13 785.82,-86.08"/>
<polygon fill="#63b8ff" stroke="#63b8ff" points="789.28,-86.65 786.56,-76.41 782.31,-86.12 789.28,-86.65"/>
</a>
</g>
</g>
<!-- Node17 -->
<g id="Node000017" class="node">
<title>Node17</title>
<g id="a_Node000017"><a xlink:href="_components_8hpp.html" target="_top" xlink:title=" ">
<polygon fill="white" stroke="#666666" points="894.77,-185 795.52,-185 795.52,-165.75 894.77,-165.75 894.77,-185"/>
<text text-anchor="middle" x="845.14" y="-171.5" font-family="Helvetica,sans-Serif" font-size="10.00">../Components.hpp</text>
</a>
</g>
</g>
<!-- Node2&#45;&gt;Node17 -->
<g id="edge19_Node000002_Node000017" class="edge">
<title>Node2&#45;&gt;Node17</title>
<g id="a_edge19_Node000002_Node000017"><a xlink:title=" ">
<path fill="none" stroke="#63b8ff" d="M716.32,-275.81C734.58,-267.81 760.69,-255.13 781.14,-240.25 799.91,-226.59 818.35,-207.4 830.58,-193.62"/>
<polygon fill="#63b8ff" stroke="#63b8ff" points="833.08,-196.08 836.99,-186.23 827.79,-191.49 833.08,-196.08"/>
</a>
</g>
</g>
<!-- Node18 -->
<g id="Node000018" class="node">
<title>Node18</title>
<g id="a_Node000018"><a xlink:title=" ">
<polygon fill="#e0e0e0" stroke="#999999" points="320.64,-129.75 217.64,-129.75 217.64,-110.5 320.64,-110.5 320.64,-129.75"/>
<text text-anchor="middle" x="269.14" y="-116.25" font-family="Helvetica,sans-Serif" font-size="10.00">SFML/Graphics.hpp</text>
</a>
</g>
</g>
<!-- Node2&#45;&gt;Node18 -->
<g id="edge44_Node000002_Node000018" class="edge">
<title>Node2&#45;&gt;Node18</title>
<g id="a_edge44_Node000002_Node000018"><a xlink:title=" ">
<path fill="none" stroke="#63b8ff" d="M665.81,-284.27C616.44,-282.3 512.26,-274.11 432.14,-240.25 372.68,-215.12 314.41,-164.49 286.39,-138.06"/>
<polygon fill="#63b8ff" stroke="#63b8ff" points="288.82,-135.54 279.18,-131.14 283.98,-140.59 288.82,-135.54"/>
</a>
</g>
</g>
<!-- Node19 -->
<g id="Node000019" class="node">
<title>Node19</title>
<g id="a_Node000019"><a xlink:title=" ">
<polygon fill="#e0e0e0" stroke="#999999" points="475.02,-129.75 377.27,-129.75 377.27,-110.5 475.02,-110.5 475.02,-129.75"/>
<text text-anchor="middle" x="426.14" y="-116.25" font-family="Helvetica,sans-Serif" font-size="10.00">SFML/Window.hpp</text>
</a>
</g>
</g>
<!-- Node2&#45;&gt;Node19 -->
<g id="edge45_Node000002_Node000019" class="edge">
<title>Node2&#45;&gt;Node19</title>
<g id="a_edge45_Node000002_Node000019"><a xlink:title=" ">
<path fill="none" stroke="#63b8ff" d="M665.92,-283.63C608.18,-280.48 479.41,-270.2 449.14,-240.25 422.89,-214.28 421.81,-168.01 423.73,-141.43"/>
<polygon fill="#63b8ff" stroke="#63b8ff" points="427.2,-141.93 424.68,-131.64 420.23,-141.26 427.2,-141.93"/>
</a>
</g>
</g>
<!-- Node22 -->
<g id="Node000022" class="node">
<title>Node22</title>
<g id="a_Node000022"><a xlink:href="_systems_8hpp.html" target="_top" xlink:title=" ">
<polygon fill="white" stroke="#666666" points="701.52,-240.25 618.77,-240.25 618.77,-221 701.52,-221 701.52,-240.25"/>
<text text-anchor="middle" x="660.14" y="-226.75" font-family="Helvetica,sans-Serif" font-size="10.00">../Systems.hpp</text>
</a>
</g>
</g>
<!-- Node2&#45;&gt;Node22 -->
<g id="edge25_Node000002_Node000022" class="edge">
<title>Node2&#45;&gt;Node22</title>
<g id="a_edge25_Node000002_Node000022"><a xlink:title=" ">
<path fill="none" stroke="#63b8ff" d="M688.53,-276.08C684.03,-269.03 677.56,-258.9 671.93,-250.08"/>
<polygon fill="#63b8ff" stroke="#63b8ff" points="675.02,-248.43 666.69,-241.88 669.12,-252.2 675.02,-248.43"/>
</a>
</g>
</g>
<!-- Node26 -->
<g id="Node000026" class="node">
<title>Node26</title>
<g id="a_Node000026"><a xlink:title=" ">
<polygon fill="#e0e0e0" stroke="#999999" points="1280.52,-240.25 1191.77,-240.25 1191.77,-221 1280.52,-221 1280.52,-240.25"/>
<text text-anchor="middle" x="1236.14" y="-226.75" font-family="Helvetica,sans-Serif" font-size="10.00">SFML/Audio.hpp</text>
</a>
</g>
</g>
<!-- Node2&#45;&gt;Node26 -->
<g id="edge46_Node000002_Node000026" class="edge">
<title>Node2&#45;&gt;Node26</title>
<g id="a_edge46_Node000002_Node000026"><a xlink:title=" ">
<path fill="none" stroke="#63b8ff" d="M722.33,-283C795.89,-277.96 999.9,-263.03 1180.07,-240.56"/>
<polygon fill="#63b8ff" stroke="#63b8ff" points="1180.37,-244.05 1189.85,-239.33 1179.49,-237.11 1180.37,-244.05"/>
</a>
</g>
</g>
<!-- Node27 -->
<g id="Node000027" class="node">
<title>Node27</title>
<g id="a_Node000027"><a xlink:href="_sprite_8hpp.html" target="_top" xlink:title=" ">
<polygon fill="white" stroke="#666666" points="291.27,-240.25 231.02,-240.25 231.02,-221 291.27,-221 291.27,-240.25"/>
<text text-anchor="middle" x="261.14" y="-226.75" font-family="Helvetica,sans-Serif" font-size="10.00">Sprite.hpp</text>
</a>
</g>
</g>
<!-- Node2&#45;&gt;Node27 -->
<g id="edge47_Node000002_Node000027" class="edge">
<title>Node2&#45;&gt;Node27</title>
<g id="a_edge47_Node000002_Node000027"><a xlink:title=" ">
<path fill="none" stroke="#63b8ff" d="M666.21,-282.44C602.16,-276.68 439.83,-261.14 305.14,-240.25 304.31,-240.12 303.46,-239.99 302.61,-239.85"/>
<polygon fill="#63b8ff" stroke="#63b8ff" points="303.33,-236.42 292.87,-238.14 302.12,-243.32 303.33,-236.42"/>
</a>
</g>
</g>
<!-- Node30 -->
<g id="Node000030" class="node">
<title>Node30</title>
<g id="a_Node000030"><a xlink:href="_u_d_p_network_client_8hpp.html" target="_top" xlink:title=" ">
<polygon fill="white" stroke="#666666" points="1511.52,-240.25 1392.77,-240.25 1392.77,-221 1511.52,-221 1511.52,-240.25"/>
<text text-anchor="middle" x="1452.14" y="-226.75" font-family="Helvetica,sans-Serif" font-size="10.00">UDPNetworkClient.hpp</text>
</a>
</g>
</g>
<!-- Node2&#45;&gt;Node30 -->
<g id="edge59_Node000002_Node000030" class="edge">
<title>Node2&#45;&gt;Node30</title>
<g id="a_edge59_Node000002_Node000030"><a xlink:title=" ">
<path fill="none" stroke="#63b8ff" d="M722.36,-283.24C814.15,-277.86 1112.6,-259.95 1359.14,-240.25 1366.33,-239.68 1373.83,-239.04 1381.32,-238.38"/>
<polygon fill="#63b8ff" stroke="#63b8ff" points="1381.47,-241.88 1391.12,-237.51 1380.85,-234.91 1381.47,-241.88"/>
</a>
</g>
</g>
<!-- Node35 -->
<g id="Node000035" class="node">
<title>Node35</title>
<g id="a_Node000035"><a xlink:title=" ">
<polygon fill="#e0e0e0" stroke="#999999" points="1349.77,-240.25 1298.52,-240.25 1298.52,-221 1349.77,-221 1349.77,-240.25"/>
<text text-anchor="middle" x="1324.14" y="-226.75" font-family="Helvetica,sans-Serif" font-size="10.00">sstream</text>
</a>
</g>
</g>
<!-- Node2&#45;&gt;Node35 -->
<g id="edge69_Node000002_Node000035" class="edge">
<title>Node2&#45;&gt;Node35</title>
<g id="a_edge69_Node000002_Node000035"><a xlink:title=" ">
<path fill="none" stroke="#63b8ff" d="M722.22,-284.43C806.38,-282.74 1064.04,-275.04 1286.99,-240.3"/>
<polygon fill="#63b8ff" stroke="#63b8ff" points="1287.42,-243.77 1296.75,-238.75 1286.33,-236.86 1287.42,-243.77"/>
</a>
</g>
</g>
<!-- Node36 -->
<g id="Node000036" class="node">
<title>Node36</title>
<g id="a_Node000036"><a xlink:href="_server_network_8hpp.html" target="_top" xlink:title=" ">
<polygon fill="white" stroke="#666666" points="1173.64,-240.25 1034.64,-240.25 1034.64,-221 1173.64,-221 1173.64,-240.25"/>
<text text-anchor="middle" x="1104.14" y="-226.75" font-family="Helvetica,sans-Serif" font-size="10.00">../server/ServerNetwork.hpp</text>
</a>
</g>
</g>
<!-- Node2&#45;&gt;Node36 -->
<g id="edge70_Node000002_Node000036" class="edge">
<title>Node2&#45;&gt;Node36</title>
<g id="a_edge70_Node000002_Node000036"><a xlink:title=" ">
<path fill="none" stroke="#63b8ff" d="M722.32,-281.21C783.46,-273.27 930.2,-254.22 1022.93,-242.17"/>
<polygon fill="#63b8ff" stroke="#63b8ff" points="1023.28,-245.66 1032.74,-240.9 1022.37,-238.72 1023.28,-245.66"/>
</a>
</g>
</g>
<!-- Node4 -->
<g id="Node000004" class="node">
<title>Node4</title>
<g id="a_Node000004"><a xlink:title=" ">
<polygon fill="#e0e0e0" stroke="#999999" points="377.89,-19.25 324.39,-19.25 324.39,0 377.89,0 377.89,-19.25"/>
<text text-anchor="middle" x="351.14" y="-5.75" font-family="Helvetica,sans-Serif" font-size="10.00">iostream</text>
</a>
</g>
</g>
<!-- Node3&#45;&gt;Node4 -->
<g id="edge3_Node000003_Node000004" class="edge">
<title>Node3&#45;&gt;Node4</title>
<g id="a_edge3_Node000003_Node000004"><a xlink:title=" ">
<path fill="none" stroke="#63b8ff" d="M465.73,-54.84C443.63,-46.31 410.22,-33.42 385.17,-23.76"/>
<polygon fill="#63b8ff" stroke="#63b8ff" points="386.67,-20.58 376.08,-20.25 384.15,-27.11 386.67,-20.58"/>
</a>
</g>
</g>
<!-- Node3&#45;&gt;Node5 -->
<g id="edge4_Node000003_Node000005" class="edge">
<title>Node3&#45;&gt;Node5</title>
<g id="a_edge4_Node000003_Node000005"><a xlink:title=" ">
<path fill="none" stroke="#63b8ff" d="M489.14,-55.08C489.14,-48.57 489.14,-39.42 489.14,-31.12"/>
<polygon fill="#63b8ff" stroke="#63b8ff" points="492.64,-31.12 489.14,-21.12 485.64,-31.12 492.64,-31.12"/>
</a>
</g>
</g>
<!-- Node6&#45;&gt;Node3 -->
<g id="edge17_Node000006_Node000003" class="edge">
<title>Node6&#45;&gt;Node3</title>
<g id="a_edge17_Node000006_Node000003"><a xlink:title=" ">
<path fill="none" stroke="#63b8ff" d="M620.34,-110.09C594.69,-101.45 555.75,-88.32 526.95,-78.62"/>
<polygon fill="#63b8ff" stroke="#63b8ff" points="528.1,-75.31 517.51,-75.44 525.87,-81.95 528.1,-75.31"/>
</a>
</g>
</g>
<!-- Node7 -->
<g id="Node000007" class="node">
<title>Node7</title>
<g id="a_Node000007"><a xlink:title=" ">
<polygon fill="#e0e0e0" stroke="#999999" points="106.52,-74.5 23.77,-74.5 23.77,-55.25 106.52,-55.25 106.52,-74.5"/>
<text text-anchor="middle" x="65.14" y="-61" font-family="Helvetica,sans-Serif" font-size="10.00">unordered_map</text>
</a>
</g>
</g>
<!-- Node6&#45;&gt;Node7 -->
<g id="edge6_Node000006_Node000007" class="edge">
<title>Node6&#45;&gt;Node7</title>
<g id="a_edge6_Node000006_Node000007"><a xlink:title=" ">
<path fill="none" stroke="#63b8ff" d="M607.6,-115.51C505.56,-106.17 233.37,-81.27 118,-70.71"/>
<polygon fill="#63b8ff" stroke="#63b8ff" points="118.47,-67.24 108.19,-69.81 117.83,-74.21 118.47,-67.24"/>
</a>
</g>
</g>
<!-- Node8 -->
<g id="Node000008" class="node">
<title>Node8</title>
<g id="a_Node000008"><a xlink:title=" ">
<polygon fill="#e0e0e0" stroke="#999999" points="573.02,-74.5 541.27,-74.5 541.27,-55.25 573.02,-55.25 573.02,-74.5"/>
<text text-anchor="middle" x="557.14" y="-61" font-family="Helvetica,sans-Serif" font-size="10.00">any</text>
</a>
</g>
</g>
<!-- Node6&#45;&gt;Node8 -->
<g id="edge7_Node000006_Node000008" class="edge">
<title>Node6&#45;&gt;Node8</title>
<g id="a_edge7_Node000006_Node000008"><a xlink:title=" ">
<path fill="none" stroke="#63b8ff" d="M631.87,-110.09C618.3,-102.06 598.19,-90.16 582.25,-80.73"/>
<polygon fill="#63b8ff" stroke="#63b8ff" points="584.18,-77.8 573.79,-75.72 580.61,-83.83 584.18,-77.8"/>
</a>
</g>
</g>
<!-- Node9 -->
<g id="Node000009" class="node">
<title>Node9</title>
<g id="a_Node000009"><a xlink:title=" ">
<polygon fill="#e0e0e0" stroke="#999999" points="945.14,-74.5 887.14,-74.5 887.14,-55.25 945.14,-55.25 945.14,-74.5"/>
<text text-anchor="middle" x="916.14" y="-61" font-family="Helvetica,sans-Serif" font-size="10.00">functional</text>
</a>
</g>
</g>
<!-- Node6&#45;&gt;Node9 -->
<g id="edge8_Node000006_Node000009" class="edge">
<title>Node6&#45;&gt;Node9</title>
<g id="a_edge8_Node000006_Node000009"><a xlink:title=" ">
<path fill="none" stroke="#63b8ff" d="M687.12,-111.21C737.77,-101.18 824.57,-84 875.52,-73.92"/>
<polygon fill="#63b8ff" stroke="#63b8ff" points="876.12,-77.36 885.25,-71.99 874.77,-70.5 876.12,-77.36"/>
</a>
</g>
</g>
<!-- Node10 -->
<g id="Node000010" class="node">
<title>Node10</title>
<g id="a_Node000010"><a xlink:title=" ">
<polygon fill="#e0e0e0" stroke="#999999" points="649.14,-74.5 591.14,-74.5 591.14,-55.25 649.14,-55.25 649.14,-74.5"/>
<text text-anchor="middle" x="620.14" y="-61" font-family="Helvetica,sans-Serif" font-size="10.00">typeindex</text>
</a>
</g>
</g>
<!-- Node6&#45;&gt;Node10 -->
<g id="edge9_Node000006_Node000010" class="edge">
<title>Node6&#45;&gt;Node10</title>
<g id="a_edge9_Node000006_Node000010"><a xlink:title=" ">
<path fill="none" stroke="#63b8ff" d="M642.68,-110.33C639.19,-103.44 634.19,-93.59 629.79,-84.91"/>
<polygon fill="#63b8ff" stroke="#63b8ff" points="633.03,-83.55 625.38,-76.21 626.78,-86.71 633.03,-83.55"/>
</a>
</g>
</g>
<!-- Node11 -->
<g id="Node000011" class="node">
<title>Node11</title>
<g id="a_Node000011"><a xlink:title=" ">
<polygon fill="#e0e0e0" stroke="#999999" points="723.52,-19.25 664.77,-19.25 664.77,0 723.52,0 723.52,-19.25"/>
<text text-anchor="middle" x="694.14" y="-5.75" font-family="Helvetica,sans-Serif" font-size="10.00">stdexcept</text>
</a>
</g>
</g>
<!-- Node6&#45;&gt;Node11 -->
<g id="edge10_Node000006_Node000011" class="edge">
<title>Node6&#45;&gt;Node11</title>
<g id="a_edge10_Node000006_Node000011"><a xlink:title=" ">
<path fill="none" stroke="#63b8ff" d="M650.99,-110.25C658.53,-92.84 675.41,-53.87 685.68,-30.16"/>
<polygon fill="#63b8ff" stroke="#63b8ff" points="688.88,-31.58 689.64,-21.02 682.45,-28.8 688.88,-31.58"/>
</a>
</g>
</g>
<!-- Node6&#45;&gt;Node12 -->
<g id="edge11_Node000006_Node000012" class="edge">
<title>Node6&#45;&gt;Node12</title>
<g id="a_edge11_Node000006_Node000012"><a xlink:title=" ">
<path fill="none" stroke="#63b8ff" d="M670.89,-110.09C693.32,-101.56 727.21,-88.67 752.62,-79.01"/>
<polygon fill="#63b8ff" stroke="#63b8ff" points="753.76,-82.32 761.86,-75.49 751.27,-75.77 753.76,-82.32"/>
</a>
</g>
</g>
<!-- Node12&#45;&gt;Node11 -->
<g id="edge14_Node000012_Node000011" class="edge">
<title>Node12&#45;&gt;Node11</title>
<g id="a_edge14_Node000012_Node000011"><a xlink:title=" ">
<path fill="none" stroke="#63b8ff" d="M771.37,-54.84C757.2,-46.73 736.16,-34.68 719.61,-25.21"/>
<polygon fill="#63b8ff" stroke="#63b8ff" points="721.73,-22.39 711.31,-20.45 718.25,-28.46 721.73,-22.39"/>
</a>
</g>
</g>
<!-- Node13 -->
<g id="Node000013" class="node">
<title>Node13</title>
<g id="a_Node000013"><a xlink:title=" ">
<polygon fill="#e0e0e0" stroke="#999999" points="994.64,-19.25 951.64,-19.25 951.64,0 994.64,0 994.64,-19.25"/>
<text text-anchor="middle" x="973.14" y="-5.75" font-family="Helvetica,sans-Serif" font-size="10.00">vector</text>
</a>
</g>
</g>
<!-- Node12&#45;&gt;Node13 -->
<g id="edge12_Node000012_Node000013" class="edge">
<title>Node12&#45;&gt;Node13</title>
<g id="a_edge12_Node000012_Node000013"><a xlink:title=" ">
<path fill="none" stroke="#63b8ff" d="M818.69,-54.84C852.59,-45.14 906.2,-29.79 940.51,-19.97"/>
<polygon fill="#63b8ff" stroke="#63b8ff" points="941.24,-23.4 949.89,-17.28 939.31,-16.67 941.24,-23.4"/>
</a>
</g>
</g>
<!-- Node14 -->
<g id="Node000014" class="node">
<title>Node14</title>
<g id="a_Node000014"><a xlink:title=" ">
<polygon fill="#e0e0e0" stroke="#999999" points="1342.02,-19.25 1292.27,-19.25 1292.27,0 1342.02,0 1342.02,-19.25"/>
<text text-anchor="middle" x="1317.14" y="-5.75" font-family="Helvetica,sans-Serif" font-size="10.00">optional</text>
</a>
</g>
</g>
<!-- Node12&#45;&gt;Node14 -->
<g id="edge13_Node000012_Node000014" class="edge">
<title>Node12&#45;&gt;Node14</title>
<g id="a_edge13_Node000012_Node000014"><a xlink:title=" ">
<path fill="none" stroke="#63b8ff" d="M830.97,-59.47C933.24,-49.2 1186.14,-23.79 1280.69,-14.29"/>
<polygon fill="#63b8ff" stroke="#63b8ff" points="1280.83,-17.79 1290.43,-13.31 1280.13,-10.83 1280.83,-17.79"/>
</a>
</g>
</g>
<!-- Node15 -->
<g id="Node000015" class="node">
<title>Node15</title>
<g id="a_Node000015"><a xlink:title=" ">
<polygon fill="#e0e0e0" stroke="#999999" points="815.02,-19.25 759.27,-19.25 759.27,0 815.02,0 815.02,-19.25"/>
<text text-anchor="middle" x="787.14" y="-5.75" font-family="Helvetica,sans-Serif" font-size="10.00">algorithm</text>
</a>
</g>
</g>
<!-- Node12&#45;&gt;Node15 -->
<g id="edge15_Node000012_Node000015" class="edge">
<title>Node12&#45;&gt;Node15</title>
<g id="a_edge15_Node000012_Node000015"><a xlink:title=" ">
<path fill="none" stroke="#63b8ff" d="M787.14,-55.08C787.14,-48.57 787.14,-39.42 787.14,-31.12"/>
<polygon fill="#63b8ff" stroke="#63b8ff" points="790.64,-31.12 787.14,-21.12 783.64,-31.12 790.64,-31.12"/>
</a>
</g>
</g>
<!-- Node16 -->
<g id="Node000016" class="node">
<title>Node16</title>
<g id="a_Node000016"><a xlink:title=" ">
<polygon fill="#e0e0e0" stroke="#999999" points="1551.77,-19.25 1500.52,-19.25 1500.52,0 1551.77,0 1551.77,-19.25"/>
<text text-anchor="middle" x="1526.14" y="-5.75" font-family="Helvetica,sans-Serif" font-size="10.00">memory</text>
</a>
</g>
</g>
<!-- Node12&#45;&gt;Node16 -->
<g id="edge16_Node000012_Node000016" class="edge">
<title>Node12&#45;&gt;Node16</title>
<g id="a_edge16_Node000012_Node000016"><a xlink:title=" ">
<path fill="none" stroke="#63b8ff" d="M831.09,-59.48C846.02,-58.05 862.8,-56.51 878.14,-55.25 1110.11,-36.27 1389.24,-18.89 1488.7,-12.86"/>
<polygon fill="#63b8ff" stroke="#63b8ff" points="1488.92,-16.36 1498.69,-12.26 1488.49,-9.37 1488.92,-16.36"/>
</a>
</g>
</g>
<!-- Node17&#45;&gt;Node13 -->
<g id="edge23_Node000017_Node000013" class="edge">
<title>Node17&#45;&gt;Node13</title>
<g id="a_edge23_Node000017_Node000013"><a xlink:title=" ">
<path fill="none" stroke="#63b8ff" d="M845.19,-165.45C845.76,-143.94 850.05,-88.54 878.14,-55.25 894.11,-36.33 919.88,-24.93 940.55,-18.39"/>
<polygon fill="#63b8ff" stroke="#63b8ff" points="941.34,-21.8 949.97,-15.66 939.39,-15.08 941.34,-21.8"/>
</a>
</g>
</g>
<!-- Node17&#45;&gt;Node18 -->
<g id="edge20_Node000017_Node000018" class="edge">
<title>Node17&#45;&gt;Node18</title>
<g id="a_edge20_Node000017_Node000018"><a xlink:title=" ">
<path fill="none" stroke="#63b8ff" d="M795.03,-169.74C690.11,-160.04 447.51,-137.61 332.2,-126.96"/>
<polygon fill="#63b8ff" stroke="#63b8ff" points="332.57,-123.47 322.29,-126.04 331.93,-130.44 332.57,-123.47"/>
</a>
</g>
</g>
<!-- Node17&#45;&gt;Node19 -->
<g id="edge21_Node000017_Node000019" class="edge">
<title>Node17&#45;&gt;Node19</title>
<g id="a_edge21_Node000017_Node000019"><a xlink:title=" ">
<path fill="none" stroke="#63b8ff" d="M795.43,-168.06C718.31,-158.26 570.06,-139.42 486.77,-128.83"/>
<polygon fill="#63b8ff" stroke="#63b8ff" points="487.33,-125.37 476.96,-127.58 486.44,-132.32 487.33,-125.37"/>
</a>
</g>
</g>
<!-- Node20 -->
<g id="Node000020" class="node">
<title>Node20</title>
<g id="a_Node000020"><a xlink:title=" ">
<polygon fill="#e0e0e0" stroke="#999999" points="1146.14,-74.5 1106.14,-74.5 1106.14,-55.25 1146.14,-55.25 1146.14,-74.5"/>
<text text-anchor="middle" x="1126.14" y="-61" font-family="Helvetica,sans-Serif" font-size="10.00">string</text>
</a>
</g>
</g>
<!-- Node17&#45;&gt;Node20 -->
<g id="edge22_Node000017_Node000020" class="edge">
<title>Node17&#45;&gt;Node20</title>
<g id="a_edge22_Node000017_Node000020"><a xlink:title=" ">
<path fill="none" stroke="#63b8ff" d="M863.25,-165.44C889.97,-152.44 941.72,-127.94 987.14,-110.5 1023.74,-96.44 1066.86,-83.08 1095.26,-74.71"/>
<polygon fill="#63b8ff" stroke="#63b8ff" points="1096.03,-78.13 1104.65,-71.96 1094.07,-71.41 1096.03,-78.13"/>
</a>
</g>
</g>
<!-- Node21 -->
<g id="Node000021" class="node">
<title>Node21</title>
<g id="a_Node000021"><a xlink:title=" ">
<polygon fill="#e0e0e0" stroke="#999999" points="1041.77,-129.75 996.52,-129.75 996.52,-110.5 1041.77,-110.5 1041.77,-129.75"/>
<text text-anchor="middle" x="1019.14" y="-116.25" font-family="Helvetica,sans-Serif" font-size="10.00">chrono</text>
</a>
</g>
</g>
<!-- Node17&#45;&gt;Node21 -->
<g id="edge24_Node000017_Node000021" class="edge">
<title>Node17&#45;&gt;Node21</title>
<g id="a_edge24_Node000017_Node000021"><a xlink:title=" ">
<path fill="none" stroke="#63b8ff" d="M874.66,-165.34C905.36,-155.95 953.35,-141.26 985.51,-131.42"/>
<polygon fill="#63b8ff" stroke="#63b8ff" points="986.18,-134.87 994.72,-128.6 984.13,-128.18 986.18,-134.87"/>
</a>
</g>
</g>
<!-- Node22&#45;&gt;Node4 -->
<g id="edge31_Node000022_Node000004" class="edge">
<title>Node22&#45;&gt;Node4</title>
<g id="a_edge31_Node000022_Node000004"><a xlink:title=" ">
<path fill="none" stroke="#63b8ff" d="M648.17,-220.61C620.28,-199.81 548.45,-147.43 484.14,-110.5 452.08,-92.09 438.79,-96.6 409.14,-74.5 391.55,-61.39 375.11,-42.37 364.25,-28.5"/>
<polygon fill="#63b8ff" stroke="#63b8ff" points="367.15,-26.53 358.31,-20.67 361.57,-30.76 367.15,-26.53"/>
</a>
</g>
</g>
<!-- Node22&#45;&gt;Node6 -->
<g id="edge27_Node000022_Node000006" class="edge">
<title>Node22&#45;&gt;Node6</title>
<g id="a_edge27_Node000022_Node000006"><a xlink:title=" ">
<path fill="none" stroke="#63b8ff" d="M659.08,-220.75C657.01,-203.5 652.41,-165.08 649.56,-141.31"/>
<polygon fill="#63b8ff" stroke="#63b8ff" points="653.07,-141.14 648.4,-131.63 646.12,-141.97 653.07,-141.14"/>
</a>
</g>
</g>
<!-- Node22&#45;&gt;Node12 -->
<g id="edge28_Node000022_Node000012" class="edge">
<title>Node22&#45;&gt;Node12</title>
<g id="a_edge28_Node000022_Node000012"><a xlink:title=" ">
<path fill="none" stroke="#63b8ff" d="M666.97,-220.82C687.04,-194.94 746.13,-118.75 773.25,-83.78"/>
<polygon fill="#63b8ff" stroke="#63b8ff" points="775.99,-85.97 779.35,-75.92 770.46,-81.68 775.99,-85.97"/>
</a>
</g>
</g>
<!-- Node22&#45;&gt;Node17 -->
<g id="edge26_Node000022_Node000017" class="edge">
<title>Node22&#45;&gt;Node17</title>
<g id="a_edge26_Node000022_Node000017"><a xlink:title=" ">
<path fill="none" stroke="#63b8ff" d="M691.52,-220.59C722.09,-211.79 768.77,-198.36 802.65,-188.61"/>
<polygon fill="#63b8ff" stroke="#63b8ff" points="803.51,-192 812.15,-185.87 801.57,-185.27 803.51,-192"/>
</a>
</g>
</g>
<!-- Node22&#45;&gt;Node18 -->
<g id="edge29_Node000022_Node000018" class="edge">
<title>Node22&#45;&gt;Node18</title>
<g id="a_edge29_Node000022_Node000018"><a xlink:title=" ">
<path fill="none" stroke="#63b8ff" d="M627.48,-220.56C557.33,-201.09 392.23,-155.28 313.03,-133.3"/>
<polygon fill="#63b8ff" stroke="#63b8ff" points="314.02,-129.95 303.45,-130.64 312.15,-136.69 314.02,-129.95"/>
</a>
</g>
</g>
<!-- Node22&#45;&gt;Node19 -->
<g id="edge30_Node000022_Node000019" class="edge">
<title>Node22&#45;&gt;Node19</title>
<g id="a_edge30_Node000022_Node000019"><a xlink:title=" ">
<path fill="none" stroke="#63b8ff" d="M640.59,-220.56C599.64,-201.57 504.63,-157.52 455.99,-134.97"/>
<polygon fill="#63b8ff" stroke="#63b8ff" points="457.72,-131.91 447.17,-130.88 454.77,-138.26 457.72,-131.91"/>
</a>
</g>
</g>
<!-- Node23 -->
<g id="Node000023" class="node">
<title>Node23</title>
<g id="a_Node000023"><a xlink:href="_mediator_8hpp.html" target="_top" xlink:title=" ">
<polygon fill="white" stroke="#666666" points="1013.89,-185 912.39,-185 912.39,-165.75 1013.89,-165.75 1013.89,-185"/>
<text text-anchor="middle" x="963.14" y="-171.5" font-family="Helvetica,sans-Serif" font-size="10.00">server/Mediator.hpp</text>
</a>
</g>
</g>
<!-- Node22&#45;&gt;Node23 -->
<g id="edge32_Node000022_Node000023" class="edge">
<title>Node22&#45;&gt;Node23</title>
<g id="a_edge32_Node000022_Node000023"><a xlink:title=" ">
<path fill="none" stroke="#63b8ff" d="M701.79,-221.42C753.36,-211.98 841.45,-196.48 901.01,-186.35"/>
<polygon fill="#63b8ff" stroke="#63b8ff" points="901.38,-189.83 910.65,-184.71 900.21,-182.93 901.38,-189.83"/>
</a>
</g>
</g>
<!-- Node23&#45;&gt;Node4 -->
<g id="edge39_Node000023_Node000004" class="edge">
<title>Node23&#45;&gt;Node4</title>
<g id="a_edge39_Node000023_Node000004"><a xlink:title=" ">
<path fill="none" stroke="#63b8ff" d="M911.99,-166.81C909.34,-166.44 906.71,-166.09 904.14,-165.75 698.37,-138.57 631.26,-168.36 446.14,-74.5 418.95,-60.71 390.23,-40.51 371.58,-26.53"/>
<polygon fill="#63b8ff" stroke="#63b8ff" points="373.85,-23.86 363.77,-20.59 369.61,-29.43 373.85,-23.86"/>
</a>
</g>
</g>
<!-- Node23&#45;&gt;Node6 -->
<g id="edge34_Node000023_Node000006" class="edge">
<title>Node23&#45;&gt;Node6</title>
<g id="a_edge34_Node000023_Node000006"><a xlink:title=" ">
<path fill="none" stroke="#63b8ff" d="M912.02,-165.76C853.07,-155.83 756.74,-139.59 697.93,-129.68"/>
<polygon fill="#63b8ff" stroke="#63b8ff" points="698.62,-126.25 688.18,-128.04 697.46,-133.15 698.62,-126.25"/>
</a>
</g>
</g>
<!-- Node23&#45;&gt;Node13 -->
<g id="edge41_Node000023_Node000013" class="edge">
<title>Node23&#45;&gt;Node13</title>
<g id="a_edge41_Node000023_Node000013"><a xlink:title=" ">
<path fill="none" stroke="#63b8ff" d="M963.68,-165.57C965.23,-140.25 969.71,-66.75 971.91,-30.84"/>
<polygon fill="#63b8ff" stroke="#63b8ff" points="975.39,-31.18 972.51,-20.98 968.41,-30.75 975.39,-31.18"/>
</a>
</g>
</g>
<!-- Node23&#45;&gt;Node20 -->
<g id="edge40_Node000023_Node000020" class="edge">
<title>Node23&#45;&gt;Node20</title>
<g id="a_edge40_Node000023_Node000020"><a xlink:title=" ">
<path fill="none" stroke="#63b8ff" d="M984.18,-165.41C1002.51,-157.21 1029.47,-144.18 1051.14,-129.75 1072.36,-115.62 1094.3,-96.29 1108.92,-82.6"/>
<polygon fill="#63b8ff" stroke="#63b8ff" points="1111.08,-85.38 1115.92,-75.95 1106.26,-80.31 1111.08,-85.38"/>
</a>
</g>
</g>
<!-- Node23&#45;&gt;Node22 -->
<g id="edge33_Node000023_Node000022" class="edge">
<title>Node23&#45;&gt;Node22</title>
<g id="a_edge33_Node000023_Node000022"><a xlink:title=" ">
<path fill="none" stroke="#63b8ff" d="M916.71,-185.45C861.74,-195.48 770.58,-211.49 712.97,-221.23"/>
<polygon fill="#63b8ff" stroke="#63b8ff" points="712.68,-217.73 703.4,-222.84 713.85,-224.64 712.68,-217.73"/>
</a>
</g>
</g>
<!-- Node24 -->
<g id="Node000024" class="node">
<title>Node24</title>
<g id="a_Node000024"><a xlink:href="_i_sender_8hpp.html" target="_top" xlink:title=" ">
<polygon fill="white" stroke="#666666" points="1242.02,-129.75 1174.27,-129.75 1174.27,-110.5 1242.02,-110.5 1242.02,-129.75"/>
<text text-anchor="middle" x="1208.14" y="-116.25" font-family="Helvetica,sans-Serif" font-size="10.00">ISender.hpp</text>
</a>
</g>
</g>
<!-- Node23&#45;&gt;Node24 -->
<g id="edge35_Node000023_Node000024" class="edge">
<title>Node23&#45;&gt;Node24</title>
<g id="a_edge35_Node000023_Node000024"><a xlink:title=" ">
<path fill="none" stroke="#63b8ff" d="M1004.98,-165.28C1048.86,-155.74 1117.59,-140.81 1162.76,-130.99"/>
<polygon fill="#63b8ff" stroke="#63b8ff" points="1163.48,-134.41 1172.5,-128.87 1161.99,-127.57 1163.48,-134.41"/>
</a>
</g>
</g>
<!-- Node25 -->
<g id="Node000025" class="node">
<title>Node25</title>
<g id="a_Node000025"><a xlink:title=" ">
<polygon fill="#e0e0e0" stroke="#999999" points="1324.02,-74.5 1244.27,-74.5 1244.27,-55.25 1324.02,-55.25 1324.02,-74.5"/>
<text text-anchor="middle" x="1284.14" y="-61" font-family="Helvetica,sans-Serif" font-size="10.00">boost/asio.hpp</text>
</a>
</g>
</g>
<!-- Node23&#45;&gt;Node25 -->
<g id="edge42_Node000023_Node000025" class="edge">
<title>Node23&#45;&gt;Node25</title>
<g id="a_edge42_Node000023_Node000025"><a xlink:title=" ">
<path fill="none" stroke="#63b8ff" d="M1014.11,-166.77C1096.18,-154.49 1248.74,-131.48 1251.14,-129.75 1265.86,-119.15 1274.51,-100.01 1279.23,-85.43"/>
<polygon fill="#63b8ff" stroke="#63b8ff" points="1282.54,-86.58 1281.9,-76 1275.8,-84.67 1282.54,-86.58"/>
</a>
</g>
</g>
<!-- Node24&#45;&gt;Node13 -->
<g id="edge36_Node000024_Node000013" class="edge">
<title>Node24&#45;&gt;Node13</title>
<g id="a_edge36_Node000024_Node000013"><a xlink:title=" ">
<path fill="none" stroke="#63b8ff" d="M1203.26,-110.15C1195.16,-96.16 1177.62,-69.32 1155.14,-55.25 1108.76,-26.22 1044.76,-16.07 1006.32,-12.53"/>
<polygon fill="#63b8ff" stroke="#63b8ff" points="1006.78,-9.05 996.53,-11.73 1006.21,-16.03 1006.78,-9.05"/>
</a>
</g>
</g>
<!-- Node24&#45;&gt;Node20 -->
<g id="edge37_Node000024_Node000020" class="edge">
<title>Node24&#45;&gt;Node20</title>
<g id="a_edge37_Node000024_Node000020"><a xlink:title=" ">
<path fill="none" stroke="#63b8ff" d="M1194.23,-110.09C1181.98,-102.14 1163.89,-90.39 1149.43,-81"/>
<polygon fill="#63b8ff" stroke="#63b8ff" points="1151.68,-78.29 1141.39,-75.78 1147.87,-84.16 1151.68,-78.29"/>
</a>
</g>
</g>
<!-- Node24&#45;&gt;Node25 -->
<g id="edge38_Node000024_Node000025" class="edge">
<title>Node24&#45;&gt;Node25</title>
<g id="a_edge38_Node000024_Node000025"><a xlink:title=" ">
<path fill="none" stroke="#63b8ff" d="M1221.03,-110.09C1232.17,-102.29 1248.52,-90.84 1261.78,-81.54"/>
<polygon fill="#63b8ff" stroke="#63b8ff" points="1263.77,-84.43 1269.95,-75.82 1259.75,-78.69 1263.77,-84.43"/>
</a>
</g>
</g>
<!-- Node27&#45;&gt;Node4 -->
<g id="edge51_Node000027_Node000004" class="edge">
<title>Node27&#45;&gt;Node4</title>
<g id="a_edge51_Node000027_Node000004"><a xlink:title=" ">
<path fill="none" stroke="#63b8ff" d="M230.58,-222.1C150.14,-200.93 -56.52,-137.06 15.14,-55.25 34.52,-33.13 228.48,-18.35 312.58,-12.93"/>
<polygon fill="#63b8ff" stroke="#63b8ff" points="312.65,-16.43 322.41,-12.31 312.21,-9.45 312.65,-16.43"/>
</a>
</g>
</g>
<!-- Node27&#45;&gt;Node5 -->
<g id="edge48_Node000027_Node000005" class="edge">
<title>Node27&#45;&gt;Node5</title>
<g id="a_edge48_Node000027_Node000005"><a xlink:title=" ">
<path fill="none" stroke="#63b8ff" d="M268.5,-220.54C285.28,-200.05 328.02,-148.98 368.14,-110.5 401.29,-78.71 443.27,-45.47 468.06,-26.48"/>
<polygon fill="#63b8ff" stroke="#63b8ff" points="469.92,-29.46 475.76,-20.62 465.68,-23.89 469.92,-29.46"/>
</a>
</g>
</g>
<!-- Node27&#45;&gt;Node7 -->
<g id="edge52_Node000027_Node000007" class="edge">
<title>Node27&#45;&gt;Node7</title>
<g id="a_edge52_Node000027_Node000007"><a xlink:title=" ">
<path fill="none" stroke="#63b8ff" d="M231.39,-220.59C192.33,-207.18 124.37,-178.24 87.14,-129.75 77.3,-116.93 71.68,-99.4 68.59,-85.95"/>
<polygon fill="#63b8ff" stroke="#63b8ff" points="72.09,-85.6 66.7,-76.48 65.22,-86.97 72.09,-85.6"/>
</a>
</g>
</g>
<!-- Node27&#45;&gt;Node18 -->
<g id="edge49_Node000027_Node000018" class="edge">
<title>Node27&#45;&gt;Node18</title>
<g id="a_edge49_Node000027_Node000018"><a xlink:title=" ">
<path fill="none" stroke="#63b8ff" d="M261.8,-220.75C263.07,-203.5 265.9,-165.08 267.65,-141.31"/>
<polygon fill="#63b8ff" stroke="#63b8ff" points="271.12,-141.87 268.37,-131.64 264.14,-141.35 271.12,-141.87"/>
</a>
</g>
</g>
<!-- Node27&#45;&gt;Node19 -->
<g id="edge50_Node000027_Node000019" class="edge">
<title>Node27&#45;&gt;Node19</title>
<g id="a_edge50_Node000027_Node000019"><a xlink:title=" ">
<path fill="none" stroke="#63b8ff" d="M289.46,-220.53C310.8,-212.92 340.21,-200.77 363.14,-185 382.12,-171.95 400.2,-152.66 412.08,-138.7"/>
<polygon fill="#63b8ff" stroke="#63b8ff" points="414.61,-141.13 418.28,-131.19 409.21,-136.67 414.61,-141.13"/>
</a>
</g>
</g>
<!-- Node27&#45;&gt;Node28 -->
<g id="edge53_Node000027_Node000028" class="edge">
<title>Node27&#45;&gt;Node28</title>
<g id="a_edge53_Node000027_Node000028"><a xlink:title=" ">
<path fill="none" stroke="#63b8ff" d="M252.06,-220.83C244.3,-213.32 232.93,-202.31 223.45,-193.13"/>
<polygon fill="#63b8ff" stroke="#63b8ff" points="226.13,-190.85 216.51,-186.41 221.26,-195.88 226.13,-190.85"/>
</a>
</g>
</g>
<!-- Node28&#45;&gt;Node4 -->
<g id="edge56_Node000028_Node000004" class="edge">
<title>Node28&#45;&gt;Node4</title>
<g id="a_edge56_Node000028_Node000004"><a xlink:title=" ">
<path fill="none" stroke="#63b8ff" d="M184.2,-165.29C160.15,-153.95 126.78,-133.24 141.14,-110.5 178.87,-50.78 263.13,-26.04 312.68,-16.36"/>
<polygon fill="#63b8ff" stroke="#63b8ff" points="313.2,-19.82 322.4,-14.58 311.94,-12.94 313.2,-19.82"/>
</a>
</g>
</g>
<!-- Node28&#45;&gt;Node7 -->
<g id="edge58_Node000028_Node000007" class="edge">
<title>Node28&#45;&gt;Node7</title>
<g id="a_edge58_Node000028_Node000007"><a xlink:title=" ">
<path fill="none" stroke="#63b8ff" d="M178.51,-166.36C157.52,-159.26 128.83,-147.27 108.14,-129.75 93.49,-117.34 81.75,-98.75 74.26,-84.82"/>
<polygon fill="#63b8ff" stroke="#63b8ff" points="77.53,-83.53 69.88,-76.21 71.29,-86.71 77.53,-83.53"/>
</a>
</g>
</g>
<!-- Node28&#45;&gt;Node18 -->
<g id="edge54_Node000028_Node000018" class="edge">
<title>Node28&#45;&gt;Node18</title>
<g id="a_edge54_Node000028_Node000018"><a xlink:title=" ">
<path fill="none" stroke="#63b8ff" d="M216.83,-165.34C225.84,-157.72 238.97,-146.62 249.83,-137.45"/>
<polygon fill="#63b8ff" stroke="#63b8ff" points="252.08,-140.13 257.46,-131 247.56,-134.78 252.08,-140.13"/>
</a>
</g>
</g>
<!-- Node28&#45;&gt;Node19 -->
<g id="edge55_Node000028_Node000019" class="edge">
<title>Node28&#45;&gt;Node19</title>
<g id="a_edge55_Node000028_Node000019"><a xlink:title=" ">
<path fill="none" stroke="#63b8ff" d="M234.01,-167.63C270.06,-158.9 333.48,-143.55 377.54,-132.89"/>
<polygon fill="#63b8ff" stroke="#63b8ff" points="378.22,-136.33 387.11,-130.57 376.57,-129.52 378.22,-136.33"/>
</a>
</g>
</g>
<!-- Node29 -->
<g id="Node000029" class="node">
<title>Node29</title>
<g id="a_Node000029"><a xlink:title=" ">
<polygon fill="#e0e0e0" stroke="#999999" points="199.64,-129.75 150.64,-129.75 150.64,-110.5 199.64,-110.5 199.64,-129.75"/>
<text text-anchor="middle" x="175.14" y="-116.25" font-family="Helvetica,sans-Serif" font-size="10.00">fstream</text>
</a>
</g>
</g>
<!-- Node28&#45;&gt;Node29 -->
<g id="edge57_Node000028_Node000029" class="edge">
<title>Node28&#45;&gt;Node29</title>
<g id="a_edge57_Node000028_Node000029"><a xlink:title=" ">
<path fill="none" stroke="#63b8ff" d="M201.02,-165.58C196.96,-158.61 191.15,-148.62 186.06,-139.87"/>
<polygon fill="#63b8ff" stroke="#63b8ff" points="189.19,-138.3 181.13,-131.42 183.14,-141.82 189.19,-138.3"/>
</a>
</g>
</g>
<!-- Node30&#45;&gt;Node9 -->
<g id="edge66_Node000030_Node000009" class="edge">
<title>Node30&#45;&gt;Node9</title>
<g id="a_edge66_Node000030_Node000009"><a xlink:title=" ">
<path fill="none" stroke="#63b8ff" d="M1438.57,-220.54C1414.72,-204.72 1366.03,-173.1 1347.14,-165.75 1270.29,-135.86 1245.55,-148 1165.14,-129.75 1091.21,-112.97 1005.75,-90.33 956.62,-77"/>
<polygon fill="#63b8ff" stroke="#63b8ff" points="957.56,-73.63 946.99,-74.38 955.72,-80.38 957.56,-73.63"/>
</a>
</g>
</g>
<!-- Node30&#45;&gt;Node14 -->
<g id="edge67_Node000030_Node000014" class="edge">
<title>Node30&#45;&gt;Node14</title>
<g id="a_edge67_Node000030_Node000014"><a xlink:title=" ">
<path fill="none" stroke="#63b8ff" d="M1511.98,-223.4C1557.03,-215.93 1607.9,-199.83 1588.14,-165.75 1536.92,-77.41 1414.36,-35.09 1353.17,-18.89"/>
<polygon fill="#63b8ff" stroke="#63b8ff" points="1354.16,-15.53 1343.61,-16.45 1352.44,-22.31 1354.16,-15.53"/>
</a>
</g>
</g>
<!-- Node30&#45;&gt;Node16 -->
<g id="edge61_Node000030_Node000016" class="edge">
<title>Node30&#45;&gt;Node16</title>
<g id="a_edge61_Node000030_Node000016"><a xlink:title=" ">
<path fill="none" stroke="#63b8ff" d="M1511.85,-223.63C1561.32,-217.29 1626.04,-205.32 1642.14,-185 1677.95,-139.8 1674.79,-102.79 1642.14,-55.25 1624.59,-29.68 1590.18,-18.76 1563.37,-14.09"/>
<polygon fill="#63b8ff" stroke="#63b8ff" points="1563.96,-10.64 1553.55,-12.63 1562.93,-17.57 1563.96,-10.64"/>
</a>
</g>
</g>
<!-- Node30&#45;&gt;Node25 -->
<g id="edge60_Node000030_Node000025" class="edge">
<title>Node30&#45;&gt;Node25</title>
<g id="a_edge60_Node000030_Node000025"><a xlink:title=" ">
<path fill="none" stroke="#63b8ff" d="M1506.93,-220.59C1547.16,-211.42 1591.52,-194.42 1571.14,-165.75 1517.47,-90.24 1402.4,-71.33 1335.41,-66.9"/>
<polygon fill="#63b8ff" stroke="#63b8ff" points="1335.98,-63.42 1325.8,-66.35 1335.59,-70.41 1335.98,-63.42"/>
</a>
</g>
</g>
<!-- Node30&#45;&gt;Node28 -->
<g id="edge68_Node000030_Node000028" class="edge">
<title>Node30&#45;&gt;Node28</title>
<g id="a_edge68_Node000030_Node000028"><a xlink:title=" ">
<path fill="none" stroke="#63b8ff" d="M1392.64,-223.63C1381.52,-222.64 1369.98,-221.71 1359.14,-221 922.65,-192.33 391.91,-180.1 245.28,-177.13"/>
<polygon fill="#63b8ff" stroke="#63b8ff" points="245.42,-173.63 235.35,-176.93 245.27,-180.63 245.42,-173.63"/>
</a>
</g>
</g>
<!-- Node31 -->
<g id="Node000031" class="node">
<title>Node31</title>
<g id="a_Node000031"><a xlink:title=" ">
<polygon fill="#e0e0e0" stroke="#999999" points="1337.64,-185 1294.64,-185 1294.64,-165.75 1337.64,-165.75 1337.64,-185"/>
<text text-anchor="middle" x="1316.14" y="-171.5" font-family="Helvetica,sans-Serif" font-size="10.00">thread</text>
</a>
</g>
</g>
<!-- Node30&#45;&gt;Node31 -->
<g id="edge62_Node000030_Node000031" class="edge">
<title>Node30&#45;&gt;Node31</title>
<g id="a_edge62_Node000030_Node000031"><a xlink:title=" ">
<path fill="none" stroke="#63b8ff" d="M1429.07,-220.59C1406.99,-211.95 1373.47,-198.82 1348.68,-189.11"/>
<polygon fill="#63b8ff" stroke="#63b8ff" points="1349.97,-185.86 1339.38,-185.47 1347.42,-192.38 1349.97,-185.86"/>
</a>
</g>
</g>
<!-- Node32 -->
<g id="Node000032" class="node">
<title>Node32</title>
<g id="a_Node000032"><a xlink:title=" ">
<polygon fill="#e0e0e0" stroke="#999999" points="1437.64,-185 1394.64,-185 1394.64,-165.75 1437.64,-165.75 1437.64,-185"/>
<text text-anchor="middle" x="1416.14" y="-171.5" font-family="Helvetica,sans-Serif" font-size="10.00">mutex</text>
</a>
</g>
</g>
<!-- Node30&#45;&gt;Node32 -->
<g id="edge63_Node000030_Node000032" class="edge">
<title>Node30&#45;&gt;Node32</title>
<g id="a_edge63_Node000030_Node000032"><a xlink:title=" ">
<path fill="none" stroke="#63b8ff" d="M1446.2,-220.83C1441.43,-213.78 1434.58,-203.65 1428.62,-194.83"/>
<polygon fill="#63b8ff" stroke="#63b8ff" points="1431.56,-192.94 1423.06,-186.61 1425.76,-196.86 1431.56,-192.94"/>
</a>
</g>
</g>
<!-- Node33 -->
<g id="Node000033" class="node">
<title>Node33</title>
<g id="a_Node000033"><a xlink:title=" ">
<polygon fill="#e0e0e0" stroke="#999999" points="1498.27,-185 1456.02,-185 1456.02,-165.75 1498.27,-165.75 1498.27,-185"/>
<text text-anchor="middle" x="1477.14" y="-171.5" font-family="Helvetica,sans-Serif" font-size="10.00">queue</text>
</a>
</g>
</g>
<!-- Node30&#45;&gt;Node33 -->
<g id="edge64_Node000030_Node000033" class="edge">
<title>Node30&#45;&gt;Node33</title>
<g id="a_edge64_Node000030_Node000033"><a xlink:title=" ">
<path fill="none" stroke="#63b8ff" d="M1456.27,-220.83C1459.47,-214.01 1464.03,-204.31 1468.07,-195.7"/>
<polygon fill="#63b8ff" stroke="#63b8ff" points="1471.2,-197.27 1472.28,-186.73 1464.86,-194.29 1471.2,-197.27"/>
</a>
</g>
</g>
<!-- Node34 -->
<g id="Node000034" class="node">
<title>Node34</title>
<g id="a_Node000034"><a xlink:title=" ">
<polygon fill="#e0e0e0" stroke="#999999" points="1561.77,-185 1516.52,-185 1516.52,-165.75 1561.77,-165.75 1561.77,-185"/>
<text text-anchor="middle" x="1539.14" y="-171.5" font-family="Helvetica,sans-Serif" font-size="10.00">atomic</text>
</a>
</g>
</g>
<!-- Node30&#45;&gt;Node34 -->
<g id="edge65_Node000030_Node000034" class="edge">
<title>Node30&#45;&gt;Node34</title>
<g id="a_edge65_Node000030_Node000034"><a xlink:title=" ">
<path fill="none" stroke="#63b8ff" d="M1466.9,-220.59C1480.02,-212.56 1499.46,-200.66 1514.87,-191.23"/>
<polygon fill="#63b8ff" stroke="#63b8ff" points="1516.32,-194.45 1523.02,-186.24 1512.66,-188.48 1516.32,-194.45"/>
</a>
</g>
</g>
<!-- Node36&#45;&gt;Node13 -->
<g id="edge77_Node000036_Node000013" class="edge">
<title>Node36&#45;&gt;Node13</title>
<g id="a_edge77_Node000036_Node000013"><a xlink:title=" ">
<path fill="none" stroke="#63b8ff" d="M1148.75,-220.53C1176.01,-213.62 1210.79,-202.3 1238.14,-185 1298.55,-146.8 1380.47,-108.81 1333.14,-55.25 1311.66,-30.94 1091.46,-16.85 1006.41,-12.28"/>
<polygon fill="#63b8ff" stroke="#63b8ff" points="1006.79,-8.8 996.62,-11.77 1006.43,-15.79 1006.79,-8.8"/>
</a>
</g>
</g>
<!-- Node36&#45;&gt;Node20 -->
<g id="edge72_Node000036_Node000020" class="edge">
<title>Node36&#45;&gt;Node20</title>
<g id="a_edge72_Node000036_Node000020"><a xlink:title=" ">
<path fill="none" stroke="#63b8ff" d="M1118.07,-220.53C1128.82,-212.6 1142.88,-200.03 1149.14,-185 1163.13,-151.43 1147.79,-108.96 1136.32,-84.86"/>
<polygon fill="#63b8ff" stroke="#63b8ff" points="1139.6,-83.6 1131.97,-76.25 1133.35,-86.76 1139.6,-83.6"/>
</a>
</g>
</g>
<!-- Node36&#45;&gt;Node21 -->
<g id="edge75_Node000036_Node000021" class="edge">
<title>Node36&#45;&gt;Node21</title>
<g id="a_edge75_Node000036_Node000021"><a xlink:title=" ">
<path fill="none" stroke="#63b8ff" d="M1113.56,-220.87C1126.14,-208.08 1145.5,-183.86 1133.14,-165.75 1123.77,-152.01 1083.25,-138.39 1053.17,-129.88"/>
<polygon fill="#63b8ff" stroke="#63b8ff" points="1054.27,-126.55 1043.7,-127.28 1052.41,-133.3 1054.27,-126.55"/>
</a>
</g>
</g>
<!-- Node36&#45;&gt;Node23 -->
<g id="edge78_Node000036_Node000023" class="edge">
<title>Node36&#45;&gt;Node23</title>
<g id="a_edge78_Node000036_Node000023"><a xlink:title=" ">
<path fill="none" stroke="#63b8ff" d="M1080.22,-220.59C1057.64,-212.06 1023.51,-199.17 997.91,-189.51"/>
<polygon fill="#63b8ff" stroke="#63b8ff" points="999.19,-186.25 988.59,-185.99 996.71,-192.79 999.19,-186.25"/>
</a>
</g>
</g>
<!-- Node36&#45;&gt;Node25 -->
<g id="edge71_Node000036_Node000025" class="edge">
<title>Node36&#45;&gt;Node25</title>
<g id="a_edge71_Node000036_Node000025"><a xlink:title=" ">
<path fill="none" stroke="#63b8ff" d="M1134.36,-220.59C1173.12,-207.33 1239.38,-178.71 1273.14,-129.75 1281.95,-116.97 1284.46,-99.42 1284.9,-85.95"/>
<polygon fill="#63b8ff" stroke="#63b8ff" points="1288.41,-86.07 1284.84,-76.09 1281.41,-86.11 1288.41,-86.07"/>
</a>
</g>
</g>
<!-- Node36&#45;&gt;Node31 -->
<g id="edge73_Node000036_Node000031" class="edge">
<title>Node36&#45;&gt;Node31</title>
<g id="a_edge73_Node000036_Node000031"><a xlink:title=" ">
<path fill="none" stroke="#63b8ff" d="M1140.11,-220.59C1180.32,-210.49 1244.87,-194.28 1283.63,-184.54"/>
<polygon fill="#63b8ff" stroke="#63b8ff" points="1283.99,-188.06 1292.83,-182.23 1282.28,-181.27 1283.99,-188.06"/>
</a>
</g>
</g>
<!-- Node37 -->
<g id="Node000037" class="node">
<title>Node37</title>
<g id="a_Node000037"><a xlink:title=" ">
<polygon fill="#e0e0e0" stroke="#999999" points="1066.52,-185 1031.77,-185 1031.77,-165.75 1066.52,-165.75 1066.52,-185"/>
<text text-anchor="middle" x="1049.14" y="-171.5" font-family="Helvetica,sans-Serif" font-size="10.00">map</text>
</a>
</g>
</g>
<!-- Node36&#45;&gt;Node37 -->
<g id="edge74_Node000036_Node000037" class="edge">
<title>Node36&#45;&gt;Node37</title>
<g id="a_edge74_Node000036_Node000037"><a xlink:title=" ">
<path fill="none" stroke="#63b8ff" d="M1095.06,-220.83C1087.3,-213.32 1075.93,-202.31 1066.45,-193.13"/>
<polygon fill="#63b8ff" stroke="#63b8ff" points="1069.13,-190.85 1059.51,-186.41 1064.26,-195.88 1069.13,-190.85"/>
</a>
</g>
</g>
<!-- Node38 -->
<g id="Node000038" class="node">
<title>Node38</title>
<g id="a_Node000038"><a xlink:title=" ">
<polygon fill="#e0e0e0" stroke="#999999" points="1124.14,-185 1084.14,-185 1084.14,-165.75 1124.14,-165.75 1124.14,-185"/>
<text text-anchor="middle" x="1104.14" y="-171.5" font-family="Helvetica,sans-Serif" font-size="10.00">bitset</text>
</a>
</g>
</g>
<!-- Node36&#45;&gt;Node38 -->
<g id="edge76_Node000036_Node000038" class="edge">
<title>Node36&#45;&gt;Node38</title>
<g id="a_edge76_Node000036_Node000038"><a xlink:title=" ">
<path fill="none" stroke="#63b8ff" d="M1104.14,-220.83C1104.14,-214.32 1104.14,-205.17 1104.14,-196.87"/>
<polygon fill="#63b8ff" stroke="#63b8ff" points="1107.64,-196.87 1104.14,-186.87 1100.64,-196.87 1107.64,-196.87"/>
</a>
</g>
</g>
</g>
</svg>
