<?xml version="1.0" encoding="UTF-8" standalone="no"?>
<!DOCTYPE svg PUBLIC "-//W3C//DTD SVG 1.1//EN"
 "http://www.w3.org/Graphics/SVG/1.1/DTD/svg11.dtd">
<!-- Generated by graphviz version 12.2.1 (20241206.2353)
 -->
<!-- Title: src/client/Core.hpp Pages: 1 -->
<!--zoomable 83 -->

<svg id="main" version="1.1" xmlns="http://www.w3.org/2000/svg" xmlns:xlink="http://www.w3.org/1999/xlink" xml:space="preserve" onload="init(evt)">

<style type="text/css"><![CDATA[
.node, .edge {opacity: 0.7;}
.node.selected, .edge.selected {opacity: 1;}
.edge:hover path { stroke: red; }
.edge:hover polygon { stroke: red; fill: red; }
]]></style>

<defs>
  <circle id="rim" cx="0" cy="0" r="7"/>
  <circle id="rim2" cx="0" cy="0" r="3.5"/>
  <g id="zoomPlus">
    <use xlink:href="#rim" fill="#404040"><set attributeName="fill" to="#808080" begin="zoomplus.mouseover" end="zoomplus.mouseout"/></use>
    <path d="M-4,0h8M0,-4v8" fill="none" stroke="white" stroke-width="1.5" pointer-events="none"/>
  </g>
  <g id="zoomMin">
    <use xlink:href="#rim" fill="#404040"><set attributeName="fill" to="#808080" begin="zoomminus.mouseover" end="zoomminus.mouseout"/></use>
    <path d="M-4,0h8" fill="none" stroke="white" stroke-width="1.5" pointer-events="none"/>
  </g>
  <g id="arrowUp" transform="translate(30 24)">
    <use xlink:href="#rim"/>
    <path pointer-events="none" fill="none" stroke="white" stroke-width="1.5" d="M0,-3.0v7 M-2.5,-0.5L0,-3.0L2.5,-0.5"/>
  </g>
  <g id="arrowRight" transform="rotate(90) translate(36 -43)">
    <use xlink:href="#rim"/>
    <path pointer-events="none" fill="none" stroke="white" stroke-width="1.5" d="M0,-3.0v7 M-2.5,-0.5L0,-3.0L2.5,-0.5"/>
  </g>
  <g id="arrowDown" transform="rotate(180) translate(-30 -48)">
    <use xlink:href="#rim"/>
    <path pointer-events="none" fill="none" stroke="white" stroke-width="1.5" d="M0,-3.0v7 M-2.5,-0.5L0,-3.0L2.5,-0.5"/>
  </g>
  <g id="arrowLeft" transform="rotate(270) translate(-36 17)">
    <use xlink:href="#rim"/>
    <path pointer-events="none" fill="none" stroke="white" stroke-width="1.5" d="M0,-3.0v7 M-2.5,-0.5L0,-3.0L2.5,-0.5"/>
  </g>
  <g id="resetDef">
    <use xlink:href="#rim2" fill="#404040"><set attributeName="fill" to="#808080" begin="reset.mouseover" end="reset.mouseout"/></use>
  </g>
</defs>
<script type="application/ecmascript">
var viewWidth = 1397;
var viewHeight = 83;
var sectionId = 'dynsection-1';
</script>
<script type="application/ecmascript" xlink:href="svg.min.js"/>
<svg id="graph" class="graph">
<g id="viewport">
<title>src/client/Core.hpp</title>
<!-- Node1 -->
<g id="Node000001" class="node">
<title>Node1</title>
<g id="a_Node000001"><a xlink:title=" ">
<polygon fill="#999999" stroke="#666666" points="698.5,-74.5 600,-74.5 600,-55.25 698.5,-55.25 698.5,-74.5"/>
<text text-anchor="middle" x="649.25" y="-61" font-family="Helvetica,sans-Serif" font-size="10.00">src/client/Core.hpp</text>
</a>
</g>
</g>
<!-- Node2 -->
<g id="Node000002" class="node">
<title>Node2</title>
<g id="a_Node000002"><a xlink:href="_core_8cpp.html" target="_top" xlink:title=" ">
<polygon fill="white" stroke="#666666" points="98.5,-19.25 0,-19.25 0,0 98.5,0 98.5,-19.25"/>
<text text-anchor="middle" x="49.25" y="-5.75" font-family="Helvetica,sans-Serif" font-size="10.00">src/client/Core.cpp</text>
</a>
</g>
</g>
<!-- Node1&#45;&gt;Node2 -->
<g id="edge1_Node000001_Node000002" class="edge">
<title>Node1&#45;&gt;Node2</title>
<g id="a_edge1_Node000001_Node000002"><a xlink:title=" ">
<path fill="none" stroke="#63b8ff" d="M588.13,-60.09C487.77,-53.59 281.86,-39.08 108.25,-19.25 105.16,-18.9 101.99,-18.51 98.8,-18.1"/>
<polygon fill="#63b8ff" stroke="#63b8ff" points="587.83,-63.58 598.04,-60.73 588.28,-56.59 587.83,-63.58"/>
</a>
</g>
</g>
<!-- Node3 -->
<g id="Node000003" class="node">
<title>Node3</title>
<g id="a_Node000003"><a xlink:href="_gui_game_8cpp.html" target="_top" xlink:title=" ">
<polygon fill="white" stroke="#666666" points="235.62,-19.25 116.88,-19.25 116.88,0 235.62,0 235.62,-19.25"/>
<text text-anchor="middle" x="176.25" y="-5.75" font-family="Helvetica,sans-Serif" font-size="10.00">src/client/GuiGame.cpp</text>
</a>
</g>
</g>
<!-- Node1&#45;&gt;Node3 -->
<g id="edge2_Node000001_Node000003" class="edge">
<title>Node1&#45;&gt;Node3</title>
<g id="a_edge2_Node000001_Node000003"><a xlink:title=" ">
<path fill="none" stroke="#63b8ff" d="M588.43,-57.49C509.17,-49.09 366.27,-33.71 244.25,-19.25 241.53,-18.93 238.75,-18.59 235.95,-18.25"/>
<polygon fill="#63b8ff" stroke="#63b8ff" points="587.84,-60.94 598.15,-58.52 588.57,-53.98 587.84,-60.94"/>
</a>
</g>
</g>
<!-- Node4 -->
<g id="Node000004" class="node">
<title>Node4</title>
<g id="a_Node000004"><a xlink:href="_gui_lobby_8cpp.html" target="_top" xlink:title=" ">
<polygon fill="white" stroke="#666666" points="370.88,-19.25 253.62,-19.25 253.62,0 370.88,0 370.88,-19.25"/>
<text text-anchor="middle" x="312.25" y="-5.75" font-family="Helvetica,sans-Serif" font-size="10.00">src/client/GuiLobby.cpp</text>
</a>
</g>
</g>
<!-- Node1&#45;&gt;Node4 -->
<g id="edge3_Node000001_Node000004" class="edge">
<title>Node1&#45;&gt;Node4</title>
<g id="a_edge3_Node000001_Node000004"><a xlink:title=" ">
<path fill="none" stroke="#63b8ff" d="M588.34,-54.25C526.25,-44.44 430.66,-29.33 369.81,-19.72"/>
<polygon fill="#63b8ff" stroke="#63b8ff" points="587.61,-57.68 598.03,-55.78 588.7,-50.76 587.61,-57.68"/>
</a>
</g>
</g>
<!-- Node5 -->
<g id="Node000005" class="node">
<title>Node5</title>
<g id="a_Node000005"><a xlink:href="_gui_login_8cpp.html" target="_top" xlink:title=" ">
<polygon fill="white" stroke="#666666" points="505.12,-19.25 389.38,-19.25 389.38,0 505.12,0 505.12,-19.25"/>
<text text-anchor="middle" x="447.25" y="-5.75" font-family="Helvetica,sans-Serif" font-size="10.00">src/client/GuiLogin.cpp</text>
</a>
</g>
</g>
<!-- Node1&#45;&gt;Node5 -->
<g id="edge4_Node000001_Node000005" class="edge">
<title>Node1&#45;&gt;Node5</title>
<g id="a_edge4_Node000001_Node000005"><a xlink:title=" ">
<path fill="none" stroke="#63b8ff" d="M604,-51.95C566.98,-42.19 515.41,-28.59 481.68,-19.7"/>
<polygon fill="#63b8ff" stroke="#63b8ff" points="602.96,-55.29 613.52,-54.46 604.74,-48.52 602.96,-55.29"/>
</a>
</g>
</g>
<!-- Node6 -->
<g id="Node000006" class="node">
<title>Node6</title>
<g id="a_Node000006"><a xlink:href="_gui_menu_8cpp.html" target="_top" xlink:title=" ">
<polygon fill="white" stroke="#666666" points="639.5,-19.25 523,-19.25 523,0 639.5,0 639.5,-19.25"/>
<text text-anchor="middle" x="581.25" y="-5.75" font-family="Helvetica,sans-Serif" font-size="10.00">src/client/GuiMenu.cpp</text>
</a>
</g>
</g>
<!-- Node1&#45;&gt;Node6 -->
<g id="edge5_Node000001_Node000006" class="edge">
<title>Node1&#45;&gt;Node6</title>
<g id="a_edge5_Node000001_Node000006"><a xlink:title=" ">
<path fill="none" stroke="#63b8ff" d="M628.9,-47.94C617.03,-38.64 602.49,-27.26 592.61,-19.52"/>
<polygon fill="#63b8ff" stroke="#63b8ff" points="626.49,-50.5 636.52,-53.91 630.81,-44.99 626.49,-50.5"/>
</a>
</g>
</g>
<!-- Node7 -->
<g id="Node000007" class="node">
<title>Node7</title>
<g id="a_Node000007"><a xlink:href="_gui_option_8cpp.html" target="_top" xlink:title=" ">
<polygon fill="white" stroke="#666666" points="778.75,-19.25 657.75,-19.25 657.75,0 778.75,0 778.75,-19.25"/>
<text text-anchor="middle" x="718.25" y="-5.75" font-family="Helvetica,sans-Serif" font-size="10.00">src/client/GuiOption.cpp</text>
</a>
</g>
</g>
<!-- Node1&#45;&gt;Node7 -->
<g id="edge6_Node000001_Node000007" class="edge">
<title>Node1&#45;&gt;Node7</title>
<g id="a_edge6_Node000001_Node000007"><a xlink:title=" ">
<path fill="none" stroke="#63b8ff" d="M669.9,-47.94C681.95,-38.64 696.7,-27.26 706.72,-19.52"/>
<polygon fill="#63b8ff" stroke="#63b8ff" points="667.93,-45.04 662.15,-53.92 672.21,-50.58 667.93,-45.04"/>
</a>
</g>
</g>
<!-- Node8 -->
<g id="Node000008" class="node">
<title>Node8</title>
<g id="a_Node000008"><a xlink:href="_handle_animation_8cpp.html" target="_top" xlink:title=" ">
<polygon fill="white" stroke="#666666" points="948.12,-19.25 796.38,-19.25 796.38,0 948.12,0 948.12,-19.25"/>
<text text-anchor="middle" x="872.25" y="-5.75" font-family="Helvetica,sans-Serif" font-size="10.00">src/client/HandleAnimation.cpp</text>
</a>
</g>
</g>
<!-- Node1&#45;&gt;Node8 -->
<g id="edge7_Node000001_Node000008" class="edge">
<title>Node1&#45;&gt;Node8</title>
<g id="a_edge7_Node000001_Node000008"><a xlink:title=" ">
<path fill="none" stroke="#63b8ff" d="M698.41,-52.14C739.37,-42.36 796.86,-28.63 834.33,-19.68"/>
<polygon fill="#63b8ff" stroke="#63b8ff" points="697.72,-48.7 688.8,-54.43 699.34,-55.51 697.72,-48.7"/>
</a>
</g>
</g>
<!-- Node9 -->
<g id="Node000009" class="node">
<title>Node9</title>
<g id="a_Node000009"><a xlink:href="_handle_commands_8cpp.html" target="_top" xlink:title=" ">
<polygon fill="white" stroke="#666666" points="1124.5,-19.25 966,-19.25 966,0 1124.5,0 1124.5,-19.25"/>
<text text-anchor="middle" x="1045.25" y="-5.75" font-family="Helvetica,sans-Serif" font-size="10.00">src/client/HandleCommands.cpp</text>
</a>
</g>
</g>
<!-- Node1&#45;&gt;Node9 -->
<g id="edge8_Node000001_Node000009" class="edge">
<title>Node1&#45;&gt;Node9</title>
<g id="a_edge8_Node000001_Node000009"><a xlink:title=" ">
<path fill="none" stroke="#63b8ff" d="M709.77,-55.74C782.01,-46.02 902.47,-29.82 977.69,-19.71"/>
<polygon fill="#63b8ff" stroke="#63b8ff" points="709.55,-52.24 700.1,-57.04 710.48,-59.17 709.55,-52.24"/>
</a>
</g>
</g>
<!-- Node10 -->
<g id="Node000010" class="node">
<title>Node10</title>
<g id="a_Node000010"><a xlink:href="_handle_input_8cpp.html" target="_top" xlink:title=" ">
<polygon fill="white" stroke="#666666" points="1272.25,-19.25 1142.25,-19.25 1142.25,0 1272.25,0 1272.25,-19.25"/>
<text text-anchor="middle" x="1207.25" y="-5.75" font-family="Helvetica,sans-Serif" font-size="10.00">src/client/HandleInput.cpp</text>
</a>
</g>
</g>
<!-- Node1&#45;&gt;Node10 -->
<g id="edge9_Node000001_Node000010" class="edge">
<title>Node1&#45;&gt;Node10</title>
<g id="a_edge9_Node000001_Node000010"><a xlink:title=" ">
<path fill="none" stroke="#63b8ff" d="M710.04,-58.74C801.8,-50.89 981.13,-35.13 1133.25,-19.25 1136.08,-18.95 1138.97,-18.65 1141.89,-18.33"/>
<polygon fill="#63b8ff" stroke="#63b8ff" points="709.93,-55.24 700.27,-59.58 710.53,-62.21 709.93,-55.24"/>
</a>
</g>
</g>
<!-- Node11 -->
<g id="Node000011" class="node">
<title>Node11</title>
<g id="a_Node000011"><a xlink:href="client_2main_8cpp.html" target="_top" xlink:title=" ">
<polygon fill="white" stroke="#666666" points="1388.5,-19.25 1290,-19.25 1290,0 1388.5,0 1388.5,-19.25"/>
<text text-anchor="middle" x="1339.25" y="-5.75" font-family="Helvetica,sans-Serif" font-size="10.00">src/client/Main.cpp</text>
</a>
</g>
</g>
<!-- Node1&#45;&gt;Node11 -->
<g id="edge10_Node000001_Node000011" class="edge">
<title>Node1&#45;&gt;Node11</title>
<g id="a_edge10_Node000001_Node000011"><a xlink:title=" ">
<path fill="none" stroke="#63b8ff" d="M710.42,-61.13C823.41,-55.7 1072.42,-42.12 1281.25,-19.25 1283.98,-18.95 1286.78,-18.62 1289.61,-18.26"/>
<polygon fill="#63b8ff" stroke="#63b8ff" points="710.27,-57.63 700.45,-61.6 710.61,-64.62 710.27,-57.63"/>
</a>
</g>
</g>
</g>
</svg>

<g id="navigator" transform="translate(0 0)" fill="#404254">
  <rect fill="#f2f5e9" fill-opacity="0.5" stroke="#606060" stroke-width=".5" x="0" y="0" width="60" height="60"/>
  <use id="zoomplus" xlink:href="#zoomPlus" x="17" y="9" onmousedown="handleZoom(evt,'in')"/>
  <use id="zoomminus" xlink:href="#zoomMin" x="42" y="9" onmousedown="handleZoom(evt,'out')"/>
  <use id="reset" xlink:href="#resetDef" x="30" y="36" onmousedown="handleReset()"/>
   <use id="arrowup" xlink:href="#arrowUp" x="0" y="0" onmousedown="handlePan(0,-1)"/>
  <use id="arrowright" xlink:href="#arrowRight" x="0" y="0" onmousedown="handlePan(1,0)"/>
  <use id="arrowdown" xlink:href="#arrowDown" x="0" y="0" onmousedown="handlePan(0,1)"/>
  <use id="arrowleft" xlink:href="#arrowLeft" x="0" y="0" onmousedown="handlePan(-1,0)"/>
</g>
<svg viewBox="0 0 15 15" width="100%" height="30px" preserveAspectRatio="xMaxYMin meet">
 <g id="arrow_out" transform="scale(0.3 0.3)">
  <a xlink:href="_core_8hpp__dep__incl_org.svg" target="_base">
   <rect id="button" ry="5" rx="5" y="6" x="6" height="38" width="38"
        fill="#f2f5e9" fill-opacity="0.5" stroke="#606060" stroke-width="1.0"/>
   <path id="arrow"
     d="M 11.500037,31.436501 C 11.940474,20.09759 22.043105,11.32322 32.158766,21.979434 L 37.068811,17.246167 C 37.068811,17.246167 37.088388,32 37.088388,32 L 22.160133,31.978069 C 22.160133,31.978069 26.997745,27.140456 26.997745,27.140456 C 18.528582,18.264221 13.291696,25.230495 11.500037,31.436501 z"
     style="fill:#404040;"/>
  </a>
 </g>
</svg>

<style type='text/css'>
<![CDATA[
[data-mouse-over-selected='false'] { opacity: 0.7; }
[data-mouse-over-selected='true']  { opacity: 1.0; }
]]>
</style>
<script type="application/ecmascript"><![CDATA[
document.addEventListener('DOMContentLoaded', (event) => {
  highlightEdges();
  highlightAdjacentNodes();
});
]]></script>
</svg>
