<?xml version="1.0" encoding="UTF-8" standalone="no"?>
<!DOCTYPE svg PUBLIC "-//W3C//DTD SVG 1.1//EN"
 "http://www.w3.org/Graphics/SVG/1.1/DTD/svg11.dtd">
<!-- Generated by graphviz version 12.2.1 (20241206.2353)
 -->
<!-- Title: src/Entity.hpp Pages: 1 -->
<svg width="1671pt" height="359pt"
 viewBox="0.00 0.00 1671.38 358.75" xmlns="http://www.w3.org/2000/svg" xmlns:xlink="http://www.w3.org/1999/xlink">
<g id="graph0" class="graph" transform="scale(1 1) rotate(0) translate(4 354.75)">
<title>src/Entity.hpp</title>
<!-- Node1 -->
<g id="Node000001" class="node">
<title>Node1</title>
<g id="a_Node000001"><a xlink:title=" ">
<polygon fill="#999999" stroke="#666666" points="819,-350.75 743.75,-350.75 743.75,-331.5 819,-331.5 819,-350.75"/>
<text text-anchor="middle" x="781.38" y="-337.25" font-family="Helvetica,sans-Serif" font-size="10.00">src/Entity.hpp</text>
</a>
</g>
</g>
<!-- Node2 -->
<g id="Node000002" class="node">
<title>Node2</title>
<g id="a_Node000002"><a xlink:href="_registry_8hpp.html" target="_top" xlink:title=" ">
<polygon fill="white" stroke="#666666" points="985.62,-295.5 899.12,-295.5 899.12,-276.25 985.62,-276.25 985.62,-295.5"/>
<text text-anchor="middle" x="942.38" y="-282" font-family="Helvetica,sans-Serif" font-size="10.00">src/Registry.hpp</text>
</a>
</g>
</g>
<!-- Node1&#45;&gt;Node2 -->
<g id="edge1_Node000001_Node000002" class="edge">
<title>Node1&#45;&gt;Node2</title>
<g id="a_edge1_Node000001_Node000002"><a xlink:title=" ">
<path fill="none" stroke="#63b8ff" d="M819.37,-327.56C848.71,-317.85 888.63,-304.65 914.93,-295.95"/>
<polygon fill="#63b8ff" stroke="#63b8ff" points="818.52,-324.15 810.12,-330.62 820.72,-330.8 818.52,-324.15"/>
</a>
</g>
</g>
<!-- Node5 -->
<g id="Node000005" class="node">
<title>Node5</title>
<g id="a_Node000005"><a xlink:href="_core_8hpp.html" target="_top" xlink:title=" ">
<polygon fill="white" stroke="#666666" points="925.62,-74.5 827.12,-74.5 827.12,-55.25 925.62,-55.25 925.62,-74.5"/>
<text text-anchor="middle" x="876.38" y="-61" font-family="Helvetica,sans-Serif" font-size="10.00">src/client/Core.hpp</text>
</a>
</g>
</g>
<!-- Node1&#45;&gt;Node5 -->
<g id="edge38_Node000001_Node000005" class="edge">
<title>Node1&#45;&gt;Node5</title>
<g id="a_edge38_Node000001_Node000005"><a xlink:title=" ">
<path fill="none" stroke="#63b8ff" d="M741.29,-326.94C701.81,-311.12 647.38,-280.47 647.38,-231.62 647.38,-231.62 647.38,-231.62 647.38,-174.38 647.38,-95.63 759.33,-73.96 826.69,-68.04"/>
<polygon fill="#63b8ff" stroke="#63b8ff" points="739.96,-330.18 750.55,-330.47 742.45,-323.64 739.96,-330.18"/>
</a>
</g>
</g>
<!-- Node3 -->
<g id="Node000003" class="node">
<title>Node3</title>
<g id="a_Node000003"><a xlink:href="_systems_8hpp.html" target="_top" xlink:title=" ">
<polygon fill="white" stroke="#666666" points="987.5,-240.25 897.25,-240.25 897.25,-221 987.5,-221 987.5,-240.25"/>
<text text-anchor="middle" x="942.38" y="-226.75" font-family="Helvetica,sans-Serif" font-size="10.00">src/Systems.hpp</text>
</a>
</g>
</g>
<!-- Node2&#45;&gt;Node3 -->
<g id="edge2_Node000002_Node000003" class="edge">
<title>Node2&#45;&gt;Node3</title>
<g id="a_edge2_Node000002_Node000003"><a xlink:title=" ">
<path fill="none" stroke="#63b8ff" d="M942.38,-264.63C942.38,-256.34 942.38,-247.17 942.38,-240.61"/>
<polygon fill="#63b8ff" stroke="#63b8ff" points="938.88,-264.57 942.38,-274.57 945.88,-264.57 938.88,-264.57"/>
</a>
</g>
</g>
<!-- Node2&#45;&gt;Node5 -->
<g id="edge35_Node000002_Node000005" class="edge">
<title>Node2&#45;&gt;Node5</title>
<g id="a_edge35_Node000002_Node000005"><a xlink:title=" ">
<path fill="none" stroke="#63b8ff" d="M905.82,-271.6C870.57,-256.59 819.29,-228.45 796.38,-185 773.36,-141.37 833.8,-93.97 862.37,-74.73"/>
<polygon fill="#63b8ff" stroke="#63b8ff" points="904.21,-274.72 914.8,-275.26 906.86,-268.24 904.21,-274.72"/>
</a>
</g>
</g>
<!-- Node16 -->
<g id="Node000016" class="node">
<title>Node16</title>
<g id="a_Node000016"><a xlink:href="_mediator_8hpp.html" target="_top" xlink:title=" ">
<polygon fill="white" stroke="#666666" points="1169.38,-185 1051.38,-185 1051.38,-165.75 1169.38,-165.75 1169.38,-185"/>
<text text-anchor="middle" x="1110.38" y="-171.5" font-family="Helvetica,sans-Serif" font-size="10.00">src/server/Mediator.hpp</text>
</a>
</g>
</g>
<!-- Node2&#45;&gt;Node16 -->
<g id="edge36_Node000002_Node000016" class="edge">
<title>Node2&#45;&gt;Node16</title>
<g id="a_edge36_Node000002_Node000016"><a xlink:title=" ">
<path fill="none" stroke="#63b8ff" d="M965.98,-269.63C1001.55,-246.66 1067.78,-203.88 1096.5,-185.34"/>
<polygon fill="#63b8ff" stroke="#63b8ff" points="964.18,-266.62 957.68,-274.99 967.98,-272.5 964.18,-266.62"/>
</a>
</g>
</g>
<!-- Node18 -->
<g id="Node000018" class="node">
<title>Node18</title>
<g id="a_Node000018"><a xlink:href="_server_game_8hpp.html" target="_top" xlink:title=" ">
<polygon fill="white" stroke="#666666" points="1513.38,-74.5 1377.38,-74.5 1377.38,-55.25 1513.38,-55.25 1513.38,-74.5"/>
<text text-anchor="middle" x="1445.38" y="-61" font-family="Helvetica,sans-Serif" font-size="10.00">src/server/ServerGame.hpp</text>
</a>
</g>
</g>
<!-- Node2&#45;&gt;Node18 -->
<g id="edge37_Node000002_Node000018" class="edge">
<title>Node2&#45;&gt;Node18</title>
<g id="a_edge37_Node000002_Node000018"><a xlink:title=" ">
<path fill="none" stroke="#63b8ff" d="M992.37,-273C1074.93,-252.05 1243.28,-203.63 1370.38,-129.75 1397.29,-114.11 1423.84,-88.42 1436.94,-74.88"/>
<polygon fill="#63b8ff" stroke="#63b8ff" points="991.62,-269.58 982.77,-275.4 993.32,-276.37 991.62,-269.58"/>
</a>
</g>
</g>
<!-- Node4 -->
<g id="Node000004" class="node">
<title>Node4</title>
<g id="a_Node000004"><a xlink:href="_systems_8cpp.html" target="_top" xlink:title=" ">
<polygon fill="white" stroke="#666666" points="895.5,-185 805.25,-185 805.25,-165.75 895.5,-165.75 895.5,-185"/>
<text text-anchor="middle" x="850.38" y="-171.5" font-family="Helvetica,sans-Serif" font-size="10.00">src/Systems.cpp</text>
</a>
</g>
</g>
<!-- Node3&#45;&gt;Node4 -->
<g id="edge3_Node000003_Node000004" class="edge">
<title>Node3&#45;&gt;Node4</title>
<g id="a_edge3_Node000003_Node000004"><a xlink:title=" ">
<path fill="none" stroke="#63b8ff" d="M917.27,-215.09C900.92,-205.63 880.09,-193.58 866.06,-185.45"/>
<polygon fill="#63b8ff" stroke="#63b8ff" points="915.05,-217.85 925.46,-219.83 918.56,-211.79 915.05,-217.85"/>
</a>
</g>
</g>
<!-- Node3&#45;&gt;Node5 -->
<g id="edge4_Node000003_Node000005" class="edge">
<title>Node3&#45;&gt;Node5</title>
<g id="a_edge4_Node000003_Node000005"><a xlink:title=" ">
<path fill="none" stroke="#63b8ff" d="M934.63,-210.41C920.32,-174.9 890.26,-100.32 879.94,-74.72"/>
<polygon fill="#63b8ff" stroke="#63b8ff" points="931.28,-211.45 938.26,-219.42 937.77,-208.83 931.28,-211.45"/>
</a>
</g>
</g>
<!-- Node7 -->
<g id="Node000007" class="node">
<title>Node7</title>
<g id="a_Node000007"><a xlink:href="_gui_game_8cpp.html" target="_top" xlink:title=" ">
<polygon fill="white" stroke="#666666" points="118.75,-19.25 0,-19.25 0,0 118.75,0 118.75,-19.25"/>
<text text-anchor="middle" x="59.38" y="-5.75" font-family="Helvetica,sans-Serif" font-size="10.00">src/client/GuiGame.cpp</text>
</a>
</g>
</g>
<!-- Node3&#45;&gt;Node7 -->
<g id="edge15_Node000003_Node000007" class="edge">
<title>Node3&#45;&gt;Node7</title>
<g id="a_edge15_Node000003_Node000007"><a xlink:title=" ">
<path fill="none" stroke="#63b8ff" d="M894.67,-217.79C737.15,-178.73 235.74,-54.37 95.9,-19.68"/>
<polygon fill="#63b8ff" stroke="#63b8ff" points="893.82,-221.19 904.37,-220.2 895.5,-214.39 893.82,-221.19"/>
</a>
</g>
</g>
<!-- Node12 -->
<g id="Node000012" class="node">
<title>Node12</title>
<g id="a_Node000012"><a xlink:href="_handle_animation_8cpp.html" target="_top" xlink:title=" ">
<polygon fill="white" stroke="#666666" points="288.25,-19.25 136.5,-19.25 136.5,0 288.25,0 288.25,-19.25"/>
<text text-anchor="middle" x="212.38" y="-5.75" font-family="Helvetica,sans-Serif" font-size="10.00">src/client/HandleAnimation.cpp</text>
</a>
</g>
</g>
<!-- Node3&#45;&gt;Node12 -->
<g id="edge16_Node000003_Node000012" class="edge">
<title>Node3&#45;&gt;Node12</title>
<g id="a_edge16_Node000003_Node000012"><a xlink:title=" ">
<path fill="none" stroke="#63b8ff" d="M885.87,-221C857.13,-214.57 822.79,-203.57 796.38,-185 737.47,-143.59 762.25,-90.33 699.38,-55.25 620.86,-11.44 385.88,-27.84 296.38,-19.25 293.75,-19 291.08,-18.74 288.38,-18.47"/>
<polygon fill="#63b8ff" stroke="#63b8ff" points="885,-224.4 895.5,-223.02 886.43,-217.55 885,-224.4"/>
</a>
</g>
</g>
<!-- Node13 -->
<g id="Node000013" class="node">
<title>Node13</title>
<g id="a_Node000013"><a xlink:href="_handle_commands_8cpp.html" target="_top" xlink:title=" ">
<polygon fill="white" stroke="#666666" points="1107.62,-19.25 949.12,-19.25 949.12,0 1107.62,0 1107.62,-19.25"/>
<text text-anchor="middle" x="1028.38" y="-5.75" font-family="Helvetica,sans-Serif" font-size="10.00">src/client/HandleCommands.cpp</text>
</a>
</g>
</g>
<!-- Node3&#45;&gt;Node13 -->
<g id="edge17_Node000003_Node000013" class="edge">
<title>Node3&#45;&gt;Node13</title>
<g id="a_edge17_Node000003_Node000013"><a xlink:title=" ">
<path fill="none" stroke="#63b8ff" d="M949.99,-210.24C967.92,-164.57 1012.28,-51.6 1024.95,-19.35"/>
<polygon fill="#63b8ff" stroke="#63b8ff" points="946.8,-208.77 946.41,-219.36 953.32,-211.33 946.8,-208.77"/>
</a>
</g>
</g>
<!-- Node14 -->
<g id="Node000014" class="node">
<title>Node14</title>
<g id="a_Node000014"><a xlink:href="_handle_input_8cpp.html" target="_top" xlink:title=" ">
<polygon fill="white" stroke="#666666" points="1255.38,-19.25 1125.38,-19.25 1125.38,0 1255.38,0 1255.38,-19.25"/>
<text text-anchor="middle" x="1190.38" y="-5.75" font-family="Helvetica,sans-Serif" font-size="10.00">src/client/HandleInput.cpp</text>
</a>
</g>
</g>
<!-- Node3&#45;&gt;Node14 -->
<g id="edge18_Node000003_Node000014" class="edge">
<title>Node3&#45;&gt;Node14</title>
<g id="a_edge18_Node000003_Node000014"><a xlink:title=" ">
<path fill="none" stroke="#63b8ff" d="M956.67,-212.12C963.32,-203.92 971.3,-194 978.38,-185 1004.13,-152.22 1004.73,-138.77 1035.38,-110.5 1079.38,-69.91 1141.8,-35.33 1172.25,-19.63"/>
<polygon fill="#63b8ff" stroke="#63b8ff" points="954.17,-209.65 950.57,-219.61 959.6,-214.07 954.17,-209.65"/>
</a>
</g>
</g>
<!-- Node3&#45;&gt;Node16 -->
<g id="edge19_Node000003_Node000016" class="edge">
<title>Node3&#45;&gt;Node16</title>
<g id="a_edge19_Node000003_Node000016"><a xlink:title=" ">
<path fill="none" stroke="#63b8ff" d="M976.57,-216.93C1005.78,-207.24 1047.39,-194.11 1076.51,-185.45"/>
<polygon fill="#63b8ff" stroke="#63b8ff" points="975.46,-213.61 967.09,-220.11 977.69,-220.25 975.46,-213.61"/>
</a>
</g>
</g>
<!-- Node6 -->
<g id="Node000006" class="node">
<title>Node6</title>
<g id="a_Node000006"><a xlink:href="_core_8cpp.html" target="_top" xlink:title=" ">
<polygon fill="white" stroke="#666666" points="660.62,-19.25 562.12,-19.25 562.12,0 660.62,0 660.62,-19.25"/>
<text text-anchor="middle" x="611.38" y="-5.75" font-family="Helvetica,sans-Serif" font-size="10.00">src/client/Core.cpp</text>
</a>
</g>
</g>
<!-- Node5&#45;&gt;Node6 -->
<g id="edge5_Node000005_Node000006" class="edge">
<title>Node5&#45;&gt;Node6</title>
<g id="a_edge5_Node000005_Node000006"><a xlink:title=" ">
<path fill="none" stroke="#63b8ff" d="M820.12,-52.57C771.33,-42.77 701.63,-28.76 656.44,-19.68"/>
<polygon fill="#63b8ff" stroke="#63b8ff" points="819.14,-55.94 829.64,-54.48 820.52,-49.08 819.14,-55.94"/>
</a>
</g>
</g>
<!-- Node5&#45;&gt;Node7 -->
<g id="edge6_Node000005_Node000007" class="edge">
<title>Node5&#45;&gt;Node7</title>
<g id="a_edge6_Node000005_Node000007"><a xlink:title=" ">
<path fill="none" stroke="#63b8ff" d="M815.61,-60.06C791.28,-58.55 763,-56.8 737.38,-55.25 466.29,-38.84 397.8,-44.35 127.38,-19.25 124.65,-19 121.87,-18.72 119.05,-18.42"/>
<polygon fill="#63b8ff" stroke="#63b8ff" points="815.13,-63.54 825.33,-60.67 815.57,-56.56 815.13,-63.54"/>
</a>
</g>
</g>
<!-- Node8 -->
<g id="Node000008" class="node">
<title>Node8</title>
<g id="a_Node000008"><a xlink:href="_gui_lobby_8cpp.html" target="_top" xlink:title=" ">
<polygon fill="white" stroke="#666666" points="796,-19.25 678.75,-19.25 678.75,0 796,0 796,-19.25"/>
<text text-anchor="middle" x="737.38" y="-5.75" font-family="Helvetica,sans-Serif" font-size="10.00">src/client/GuiLobby.cpp</text>
</a>
</g>
</g>
<!-- Node5&#45;&gt;Node8 -->
<g id="edge7_Node000005_Node000008" class="edge">
<title>Node5&#45;&gt;Node8</title>
<g id="a_edge7_Node000005_Node000008"><a xlink:title=" ">
<path fill="none" stroke="#63b8ff" d="M842.23,-50.79C817.03,-41.14 783.37,-28.25 761.07,-19.7"/>
<polygon fill="#63b8ff" stroke="#63b8ff" points="840.79,-53.99 851.38,-54.3 843.3,-47.45 840.79,-53.99"/>
</a>
</g>
</g>
<!-- Node9 -->
<g id="Node000009" class="node">
<title>Node9</title>
<g id="a_Node000009"><a xlink:href="_gui_login_8cpp.html" target="_top" xlink:title=" ">
<polygon fill="white" stroke="#666666" points="1389.25,-19.25 1273.5,-19.25 1273.5,0 1389.25,0 1389.25,-19.25"/>
<text text-anchor="middle" x="1331.38" y="-5.75" font-family="Helvetica,sans-Serif" font-size="10.00">src/client/GuiLogin.cpp</text>
</a>
</g>
</g>
<!-- Node5&#45;&gt;Node9 -->
<g id="edge8_Node000005_Node000009" class="edge">
<title>Node5&#45;&gt;Node9</title>
<g id="a_edge8_Node000005_Node000009"><a xlink:title=" ">
<path fill="none" stroke="#63b8ff" d="M937.31,-57.12C1013.75,-48.6 1148.82,-33.33 1264.38,-19.25 1267.29,-18.9 1270.27,-18.53 1273.28,-18.15"/>
<polygon fill="#63b8ff" stroke="#63b8ff" points="937.07,-53.63 927.52,-58.22 937.84,-60.59 937.07,-53.63"/>
</a>
</g>
</g>
<!-- Node10 -->
<g id="Node000010" class="node">
<title>Node10</title>
<g id="a_Node000010"><a xlink:href="_gui_menu_8cpp.html" target="_top" xlink:title=" ">
<polygon fill="white" stroke="#666666" points="930.62,-19.25 814.12,-19.25 814.12,0 930.62,0 930.62,-19.25"/>
<text text-anchor="middle" x="872.38" y="-5.75" font-family="Helvetica,sans-Serif" font-size="10.00">src/client/GuiMenu.cpp</text>
</a>
</g>
</g>
<!-- Node5&#45;&gt;Node10 -->
<g id="edge9_Node000005_Node000010" class="edge">
<title>Node5&#45;&gt;Node10</title>
<g id="a_edge9_Node000005_Node000010"><a xlink:title=" ">
<path fill="none" stroke="#63b8ff" d="M874.85,-43.63C874.23,-35.34 873.54,-26.17 873.05,-19.61"/>
<polygon fill="#63b8ff" stroke="#63b8ff" points="871.36,-43.86 875.6,-53.57 878.34,-43.34 871.36,-43.86"/>
</a>
</g>
</g>
<!-- Node11 -->
<g id="Node000011" class="node">
<title>Node11</title>
<g id="a_Node000011"><a xlink:href="_gui_option_8cpp.html" target="_top" xlink:title=" ">
<polygon fill="white" stroke="#666666" points="426.88,-19.25 305.88,-19.25 305.88,0 426.88,0 426.88,-19.25"/>
<text text-anchor="middle" x="366.38" y="-5.75" font-family="Helvetica,sans-Serif" font-size="10.00">src/client/GuiOption.cpp</text>
</a>
</g>
</g>
<!-- Node5&#45;&gt;Node11 -->
<g id="edge10_Node000005_Node000011" class="edge">
<title>Node5&#45;&gt;Node11</title>
<g id="a_edge10_Node000005_Node000011"><a xlink:title=" ">
<path fill="none" stroke="#63b8ff" d="M815.86,-55.54C815.03,-55.44 814.2,-55.35 813.38,-55.25 646.18,-35.83 603.7,-37.54 436.38,-19.25 433.33,-18.92 430.22,-18.57 427.07,-18.21"/>
<polygon fill="#63b8ff" stroke="#63b8ff" points="815.02,-58.96 825.37,-56.72 815.88,-52.02 815.02,-58.96"/>
</a>
</g>
</g>
<!-- Node5&#45;&gt;Node12 -->
<g id="edge11_Node000005_Node000012" class="edge">
<title>Node5&#45;&gt;Node12</title>
<g id="a_edge11_Node000005_Node000012"><a xlink:title=" ">
<path fill="none" stroke="#63b8ff" d="M815.86,-55.51C815.03,-55.42 814.2,-55.33 813.38,-55.25 584.26,-31.62 525.86,-39.02 296.38,-19.25 293.75,-19.02 291.07,-18.79 288.37,-18.54"/>
<polygon fill="#63b8ff" stroke="#63b8ff" points="815.05,-58.94 825.39,-56.61 815.85,-51.99 815.05,-58.94"/>
</a>
</g>
</g>
<!-- Node5&#45;&gt;Node13 -->
<g id="edge12_Node000005_Node000013" class="edge">
<title>Node5&#45;&gt;Node13</title>
<g id="a_edge12_Node000005_Node000013"><a xlink:title=" ">
<path fill="none" stroke="#63b8ff" d="M912.98,-51.05C940.61,-41.37 977.85,-28.32 1002.46,-19.7"/>
<polygon fill="#63b8ff" stroke="#63b8ff" points="911.87,-47.73 903.59,-54.34 914.18,-54.34 911.87,-47.73"/>
</a>
</g>
</g>
<!-- Node5&#45;&gt;Node14 -->
<g id="edge13_Node000005_Node000014" class="edge">
<title>Node5&#45;&gt;Node14</title>
<g id="a_edge13_Node000005_Node000014"><a xlink:title=" ">
<path fill="none" stroke="#63b8ff" d="M936.97,-53.6C994.87,-43.78 1081.33,-29.12 1136.79,-19.71"/>
<polygon fill="#63b8ff" stroke="#63b8ff" points="936.55,-50.12 927.28,-55.24 937.72,-57.02 936.55,-50.12"/>
</a>
</g>
</g>
<!-- Node15 -->
<g id="Node000015" class="node">
<title>Node15</title>
<g id="a_Node000015"><a xlink:href="client_2main_8cpp.html" target="_top" xlink:title=" ">
<polygon fill="white" stroke="#666666" points="543.62,-19.25 445.12,-19.25 445.12,0 543.62,0 543.62,-19.25"/>
<text text-anchor="middle" x="494.38" y="-5.75" font-family="Helvetica,sans-Serif" font-size="10.00">src/client/Main.cpp</text>
</a>
</g>
</g>
<!-- Node5&#45;&gt;Node15 -->
<g id="edge14_Node000005_Node000015" class="edge">
<title>Node5&#45;&gt;Node15</title>
<g id="a_edge14_Node000005_Node000015"><a xlink:title=" ">
<path fill="none" stroke="#63b8ff" d="M815.39,-55.51C736.28,-44.64 602.59,-26.25 553.38,-19.25 550.3,-18.81 547.14,-18.36 543.95,-17.9"/>
<polygon fill="#63b8ff" stroke="#63b8ff" points="814.76,-58.95 825.15,-56.85 815.72,-52.02 814.76,-58.95"/>
</a>
</g>
</g>
<!-- Node16&#45;&gt;Node3 -->
<g id="edge20_Node000016_Node000003" class="edge">
<title>Node16&#45;&gt;Node3</title>
<g id="a_edge20_Node000016_Node000003"><a xlink:title=" ">
<path fill="none" stroke="#63b8ff" d="M1076.41,-188.99C1047.15,-198.71 1005.29,-211.91 976.09,-220.59"/>
<polygon fill="#63b8ff" stroke="#63b8ff" points="1077.16,-192.43 1085.53,-185.93 1074.93,-185.8 1077.16,-192.43"/>
</a>
</g>
</g>
<!-- Node17 -->
<g id="Node000017" class="node">
<title>Node17</title>
<g id="a_Node000017"><a xlink:href="_mediator_8cpp.html" target="_top" xlink:title=" ">
<polygon fill="white" stroke="#666666" points="1326.38,-129.75 1208.38,-129.75 1208.38,-110.5 1326.38,-110.5 1326.38,-129.75"/>
<text text-anchor="middle" x="1267.38" y="-116.25" font-family="Helvetica,sans-Serif" font-size="10.00">src/server/Mediator.cpp</text>
</a>
</g>
</g>
<!-- Node16&#45;&gt;Node17 -->
<g id="edge21_Node000016_Node000017" class="edge">
<title>Node16&#45;&gt;Node17</title>
<g id="a_edge21_Node000016_Node000017"><a xlink:title=" ">
<path fill="none" stroke="#63b8ff" d="M1147.8,-161.68C1176.38,-151.99 1215.08,-138.86 1240.61,-130.2"/>
<polygon fill="#63b8ff" stroke="#63b8ff" points="1146.79,-158.33 1138.44,-164.86 1149.04,-164.96 1146.79,-158.33"/>
</a>
</g>
</g>
<!-- Node16&#45;&gt;Node18 -->
<g id="edge22_Node000016_Node000018" class="edge">
<title>Node16&#45;&gt;Node18</title>
<g id="a_edge22_Node000016_Node000018"><a xlink:title=" ">
<path fill="none" stroke="#63b8ff" d="M1180.82,-166.49C1226.03,-159.96 1285.4,-148.61 1335.38,-129.75 1373.39,-115.4 1413.58,-88.68 1433.19,-74.79"/>
<polygon fill="#63b8ff" stroke="#63b8ff" points="1180.57,-162.99 1171.15,-167.84 1181.53,-169.92 1180.57,-162.99"/>
</a>
</g>
</g>
<!-- Node21 -->
<g id="Node000021" class="node">
<title>Node21</title>
<g id="a_Node000021"><a xlink:href="_server_network_8hpp.html" target="_top" xlink:title=" ">
<polygon fill="white" stroke="#666666" points="1190.62,-129.75 1044.12,-129.75 1044.12,-110.5 1190.62,-110.5 1190.62,-129.75"/>
<text text-anchor="middle" x="1117.38" y="-116.25" font-family="Helvetica,sans-Serif" font-size="10.00">src/server/ServerNetwork.hpp</text>
</a>
</g>
</g>
<!-- Node16&#45;&gt;Node21 -->
<g id="edge25_Node000016_Node000021" class="edge">
<title>Node16&#45;&gt;Node21</title>
<g id="a_edge25_Node000016_Node000021"><a xlink:title=" ">
<path fill="none" stroke="#63b8ff" d="M1113,-154.42C1114.1,-146.05 1115.32,-136.75 1116.19,-130.11"/>
<polygon fill="#63b8ff" stroke="#63b8ff" points="1109.56,-153.71 1111.73,-164.08 1116.5,-154.62 1109.56,-153.71"/>
</a>
</g>
</g>
<!-- Node19 -->
<g id="Node000019" class="node">
<title>Node19</title>
<g id="a_Node000019"><a xlink:href="_server_game_8cpp.html" target="_top" xlink:title=" ">
<polygon fill="white" stroke="#666666" points="1663.38,-19.25 1527.38,-19.25 1527.38,0 1663.38,0 1663.38,-19.25"/>
<text text-anchor="middle" x="1595.38" y="-5.75" font-family="Helvetica,sans-Serif" font-size="10.00">src/server/ServerGame.cpp</text>
</a>
</g>
</g>
<!-- Node18&#45;&gt;Node19 -->
<g id="edge23_Node000018_Node000019" class="edge">
<title>Node18&#45;&gt;Node19</title>
<g id="a_edge23_Node000018_Node000019"><a xlink:title=" ">
<path fill="none" stroke="#63b8ff" d="M1481.5,-51.05C1508.77,-41.37 1545.52,-28.32 1569.8,-19.7"/>
<polygon fill="#63b8ff" stroke="#63b8ff" points="1480.5,-47.69 1472.25,-54.34 1482.84,-54.29 1480.5,-47.69"/>
</a>
</g>
</g>
<!-- Node20 -->
<g id="Node000020" class="node">
<title>Node20</title>
<g id="a_Node000020"><a xlink:href="server_2main_8cpp.html" target="_top" xlink:title=" ">
<polygon fill="white" stroke="#666666" points="1509.5,-19.25 1407.25,-19.25 1407.25,0 1509.5,0 1509.5,-19.25"/>
<text text-anchor="middle" x="1458.38" y="-5.75" font-family="Helvetica,sans-Serif" font-size="10.00">src/server/main.cpp</text>
</a>
</g>
</g>
<!-- Node18&#45;&gt;Node20 -->
<g id="edge24_Node000018_Node000020" class="edge">
<title>Node18&#45;&gt;Node20</title>
<g id="a_edge24_Node000018_Node000020"><a xlink:title=" ">
<path fill="none" stroke="#63b8ff" d="M1450.25,-43.92C1452.29,-35.55 1454.56,-26.25 1456.18,-19.61"/>
<polygon fill="#63b8ff" stroke="#63b8ff" points="1446.85,-43.07 1447.88,-53.61 1453.65,-44.73 1446.85,-43.07"/>
</a>
</g>
</g>
<!-- Node21&#45;&gt;Node5 -->
<g id="edge26_Node000021_Node000005" class="edge">
<title>Node21&#45;&gt;Node5</title>
<g id="a_edge26_Node000021_Node000005"><a xlink:title=" ">
<path fill="none" stroke="#63b8ff" d="M1065.09,-107.57C1020.78,-97.78 958.11,-83.94 917.36,-74.93"/>
<polygon fill="#63b8ff" stroke="#63b8ff" points="1064.22,-110.96 1074.74,-109.7 1065.73,-104.13 1064.22,-110.96"/>
</a>
</g>
</g>
<!-- Node21&#45;&gt;Node7 -->
<g id="edge27_Node000021_Node000007" class="edge">
<title>Node21&#45;&gt;Node7</title>
<g id="a_edge27_Node000021_Node000007"><a xlink:title=" ">
<path fill="none" stroke="#63b8ff" d="M1032.24,-111.33C961.89,-104.13 859.61,-91.9 771.38,-74.5 738.88,-68.09 732.06,-60.59 699.38,-55.25 447.99,-14.15 380.96,-43.29 127.38,-19.25 124.65,-18.99 121.87,-18.71 119.06,-18.41"/>
<polygon fill="#63b8ff" stroke="#63b8ff" points="1031.87,-114.81 1042.18,-112.34 1032.58,-107.85 1031.87,-114.81"/>
</a>
</g>
</g>
<!-- Node21&#45;&gt;Node9 -->
<g id="edge28_Node000021_Node000009" class="edge">
<title>Node21&#45;&gt;Node9</title>
<g id="a_edge28_Node000021_Node000009"><a xlink:title=" ">
<path fill="none" stroke="#63b8ff" d="M1127.24,-100.36C1135.75,-85.95 1149.35,-66.66 1166.38,-55.25 1185.73,-42.28 1243.4,-28.44 1285.12,-19.67"/>
<polygon fill="#63b8ff" stroke="#63b8ff" points="1124.3,-98.44 1122.49,-108.88 1130.41,-101.85 1124.3,-98.44"/>
</a>
</g>
</g>
<!-- Node21&#45;&gt;Node12 -->
<g id="edge29_Node000021_Node000012" class="edge">
<title>Node21&#45;&gt;Node12</title>
<g id="a_edge29_Node000021_Node000012"><a xlink:title=" ">
<path fill="none" stroke="#63b8ff" d="M1032.25,-112.64C971.68,-106.54 888.89,-95.12 818.38,-74.5 798.28,-68.62 795.67,-60.39 775.38,-55.25 568.42,-2.85 509.03,-38.15 296.38,-19.25 293.75,-19.02 291.07,-18.77 288.37,-18.52"/>
<polygon fill="#63b8ff" stroke="#63b8ff" points="1031.87,-116.12 1042.17,-113.61 1032.55,-109.16 1031.87,-116.12"/>
</a>
</g>
</g>
<!-- Node21&#45;&gt;Node13 -->
<g id="edge30_Node000021_Node000013" class="edge">
<title>Node21&#45;&gt;Node13</title>
<g id="a_edge30_Node000021_Node000013"><a xlink:title=" ">
<path fill="none" stroke="#63b8ff" d="M1102.79,-101.35C1083.56,-77.91 1050.45,-37.53 1035.76,-19.63"/>
<polygon fill="#63b8ff" stroke="#63b8ff" points="1100.08,-103.56 1109.13,-109.08 1105.5,-99.12 1100.08,-103.56"/>
</a>
</g>
</g>
<!-- Node21&#45;&gt;Node14 -->
<g id="edge31_Node000021_Node000014" class="edge">
<title>Node21&#45;&gt;Node14</title>
<g id="a_edge31_Node000021_Node000014"><a xlink:title=" ">
<path fill="none" stroke="#63b8ff" d="M1119.03,-98.89C1120.9,-85.6 1124.88,-68.33 1133.38,-55.25 1143.37,-39.86 1160.5,-27.51 1173.38,-19.74"/>
<polygon fill="#63b8ff" stroke="#63b8ff" points="1115.57,-98.32 1117.97,-108.64 1122.53,-99.07 1115.57,-98.32"/>
</a>
</g>
</g>
<!-- Node21&#45;&gt;Node18 -->
<g id="edge32_Node000021_Node000018" class="edge">
<title>Node21&#45;&gt;Node18</title>
<g id="a_edge32_Node000021_Node000018"><a xlink:title=" ">
<path fill="none" stroke="#63b8ff" d="M1184.71,-108.19C1245.09,-98.39 1332.67,-84.17 1389.32,-74.98"/>
<polygon fill="#63b8ff" stroke="#63b8ff" points="1184.19,-104.73 1174.88,-109.79 1185.31,-111.64 1184.19,-104.73"/>
</a>
</g>
</g>
<!-- Node21&#45;&gt;Node20 -->
<g id="edge34_Node000021_Node000020" class="edge">
<title>Node21&#45;&gt;Node20</title>
<g id="a_edge34_Node000021_Node000020"><a xlink:title=" ">
<path fill="none" stroke="#63b8ff" d="M1193.75,-108.12C1234.94,-100.95 1286.22,-90 1330.38,-74.5 1348.24,-68.23 1351.45,-63.73 1368.38,-55.25 1393.17,-42.83 1421.88,-28.62 1440.08,-19.64"/>
<polygon fill="#63b8ff" stroke="#63b8ff" points="1193.18,-104.67 1183.91,-109.79 1194.36,-111.57 1193.18,-104.67"/>
</a>
</g>
</g>
<!-- Node22 -->
<g id="Node000022" class="node">
<title>Node22</title>
<g id="a_Node000022"><a xlink:href="_server_network_8cpp.html" target="_top" xlink:title=" ">
<polygon fill="white" stroke="#666666" points="1321.62,-74.5 1175.12,-74.5 1175.12,-55.25 1321.62,-55.25 1321.62,-74.5"/>
<text text-anchor="middle" x="1248.38" y="-61" font-family="Helvetica,sans-Serif" font-size="10.00">src/server/ServerNetwork.cpp</text>
</a>
</g>
</g>
<!-- Node21&#45;&gt;Node22 -->
<g id="edge33_Node000021_Node000022" class="edge">
<title>Node21&#45;&gt;Node22</title>
<g id="a_edge33_Node000021_Node000022"><a xlink:title=" ">
<path fill="none" stroke="#63b8ff" d="M1150.2,-105.78C1173.88,-96.16 1205.21,-83.42 1226.04,-74.95"/>
<polygon fill="#63b8ff" stroke="#63b8ff" points="1148.95,-102.51 1141,-109.52 1151.58,-109 1148.95,-102.51"/>
</a>
</g>
</g>
</g>
</svg>
