<?xml version="1.0" encoding="UTF-8" standalone="no"?>
<!DOCTYPE svg PUBLIC "-//W3C//DTD SVG 1.1//EN"
 "http://www.w3.org/Graphics/SVG/1.1/DTD/svg11.dtd">
<!-- Generated by graphviz version 12.2.1 (20241206.2353)
 -->
<!-- Title: src/client/GuiLogin.cpp Pages: 1 -->
<svg width="1738pt" height="359pt"
 viewBox="0.00 0.00 1737.52 358.75" xmlns="http://www.w3.org/2000/svg" xmlns:xlink="http://www.w3.org/1999/xlink">
<g id="graph0" class="graph" transform="scale(1 1) rotate(0) translate(4 354.75)">
<title>src/client/GuiLogin.cpp</title>
<!-- Node1 -->
<g id="Node000001" class="node">
<title>Node1</title>
<g id="a_Node000001"><a xlink:title=" ">
<polygon fill="#999999" stroke="#666666" points="800.88,-350.75 685.12,-350.75 685.12,-331.5 800.88,-331.5 800.88,-350.75"/>
<text text-anchor="middle" x="743" y="-337.25" font-family="Helvetica,sans-Serif" font-size="10.00">src/client/GuiLogin.cpp</text>
</a>
</g>
</g>
<!-- Node2 -->
<g id="Node000002" class="node">
<title>Node2</title>
<g id="a_Node000002"><a xlink:href="_core_8hpp.html" target="_top" xlink:title=" ">
<polygon fill="white" stroke="#666666" points="742.88,-295.5 687.12,-295.5 687.12,-276.25 742.88,-276.25 742.88,-295.5"/>
<text text-anchor="middle" x="715" y="-282" font-family="Helvetica,sans-Serif" font-size="10.00">Core.hpp</text>
</a>
</g>
</g>
<!-- Node1&#45;&gt;Node2 -->
<g id="edge1_Node000001_Node000002" class="edge">
<title>Node1&#45;&gt;Node2</title>
<g id="a_edge1_Node000001_Node000002"><a xlink:title=" ">
<path fill="none" stroke="#63b8ff" d="M738.38,-331.33C734.75,-324.44 729.57,-314.59 725.01,-305.91"/>
<polygon fill="#63b8ff" stroke="#63b8ff" points="728.18,-304.42 720.43,-297.2 721.98,-307.68 728.18,-304.42"/>
</a>
</g>
</g>
<!-- Node36 -->
<g id="Node000036" class="node">
<title>Node36</title>
<g id="a_Node000036"><a xlink:href="_server_network_8hpp.html" target="_top" xlink:title=" ">
<polygon fill="white" stroke="#666666" points="1506.5,-240.25 1367.5,-240.25 1367.5,-221 1506.5,-221 1506.5,-240.25"/>
<text text-anchor="middle" x="1437" y="-226.75" font-family="Helvetica,sans-Serif" font-size="10.00">../server/ServerNetwork.hpp</text>
</a>
</g>
</g>
<!-- Node1&#45;&gt;Node36 -->
<g id="edge79_Node000001_Node000036" class="edge">
<title>Node1&#45;&gt;Node36</title>
<g id="a_edge79_Node000001_Node000036"><a xlink:title=" ">
<path fill="none" stroke="#63b8ff" d="M801.27,-331.01C928.53,-311.12 1230.83,-263.86 1367.63,-242.47"/>
<polygon fill="#63b8ff" stroke="#63b8ff" points="1367.93,-245.97 1377.27,-240.96 1366.85,-239.05 1367.93,-245.97"/>
</a>
</g>
</g>
<!-- Node3 -->
<g id="Node000003" class="node">
<title>Node3</title>
<g id="a_Node000003"><a xlink:href="_entity_8hpp.html" target="_top" xlink:title=" ">
<polygon fill="white" stroke="#666666" points="613.88,-74.5 546.12,-74.5 546.12,-55.25 613.88,-55.25 613.88,-74.5"/>
<text text-anchor="middle" x="580" y="-61" font-family="Helvetica,sans-Serif" font-size="10.00">../Entity.hpp</text>
</a>
</g>
</g>
<!-- Node2&#45;&gt;Node3 -->
<g id="edge2_Node000002_Node000003" class="edge">
<title>Node2&#45;&gt;Node3</title>
<g id="a_edge2_Node000002_Node000003"><a xlink:title=" ">
<path fill="none" stroke="#63b8ff" d="M686.73,-281.79C660.45,-277.34 622.37,-266.49 602,-240.25 566.51,-194.52 571.54,-120.81 576.52,-85.7"/>
<polygon fill="#63b8ff" stroke="#63b8ff" points="579.93,-86.56 578.04,-76.13 573.02,-85.46 579.93,-86.56"/>
</a>
</g>
</g>
<!-- Node5 -->
<g id="Node000005" class="node">
<title>Node5</title>
<g id="a_Node000005"><a xlink:title=" ">
<polygon fill="#e0e0e0" stroke="#999999" points="62.12,-19.25 13.88,-19.25 13.88,0 62.12,0 62.12,-19.25"/>
<text text-anchor="middle" x="38" y="-5.75" font-family="Helvetica,sans-Serif" font-size="10.00">cstddef</text>
</a>
</g>
</g>
<!-- Node2&#45;&gt;Node5 -->
<g id="edge43_Node000002_Node000005" class="edge">
<title>Node2&#45;&gt;Node5</title>
<g id="a_edge43_Node000002_Node000005"><a xlink:title=" ">
<path fill="none" stroke="#63b8ff" d="M686.97,-283.64C554.78,-277.43 0,-247.16 0,-176.38 0,-176.38 0,-176.38 0,-119.12 0,-86.13 15.84,-50.51 27.07,-29.41"/>
<polygon fill="#63b8ff" stroke="#63b8ff" points="30.02,-31.3 31.82,-20.86 23.9,-27.9 30.02,-31.3"/>
</a>
</g>
</g>
<!-- Node6 -->
<g id="Node000006" class="node">
<title>Node6</title>
<g id="a_Node000006"><a xlink:href="_registry_8hpp.html" target="_top" xlink:title=" ">
<polygon fill="white" stroke="#666666" points="702.5,-129.75 623.5,-129.75 623.5,-110.5 702.5,-110.5 702.5,-129.75"/>
<text text-anchor="middle" x="663" y="-116.25" font-family="Helvetica,sans-Serif" font-size="10.00">../Registry.hpp</text>
</a>
</g>
</g>
<!-- Node2&#45;&gt;Node6 -->
<g id="edge5_Node000002_Node000006" class="edge">
<title>Node2&#45;&gt;Node6</title>
<g id="a_edge5_Node000002_Node000006"><a xlink:title=" ">
<path fill="none" stroke="#63b8ff" d="M687.08,-281.13C662.89,-276.25 629.29,-265.16 613,-240.25 591.12,-206.79 623.94,-162.18 645.9,-138.16"/>
<polygon fill="#63b8ff" stroke="#63b8ff" points="648.24,-140.78 652.61,-131.13 643.17,-135.95 648.24,-140.78"/>
</a>
</g>
</g>
<!-- Node12 -->
<g id="Node000012" class="node">
<title>Node12</title>
<g id="a_Node000012"><a xlink:href="_sparse_array_8hpp.html" target="_top" xlink:title=" ">
<polygon fill="white" stroke="#666666" points="1035.62,-74.5 948.38,-74.5 948.38,-55.25 1035.62,-55.25 1035.62,-74.5"/>
<text text-anchor="middle" x="992" y="-61" font-family="Helvetica,sans-Serif" font-size="10.00">SparseArray.hpp</text>
</a>
</g>
</g>
<!-- Node2&#45;&gt;Node12 -->
<g id="edge18_Node000002_Node000012" class="edge">
<title>Node2&#45;&gt;Node12</title>
<g id="a_edge18_Node000002_Node000012"><a xlink:title=" ">
<path fill="none" stroke="#63b8ff" d="M742.95,-281.29C767.68,-276.5 802.47,-265.46 820,-240.25 852.96,-192.85 789.83,-155.49 826,-110.5 839.99,-93.1 894.34,-80.8 937.08,-73.57"/>
<polygon fill="#63b8ff" stroke="#63b8ff" points="937.43,-77.06 946.73,-72 936.3,-70.15 937.43,-77.06"/>
</a>
</g>
</g>
<!-- Node17 -->
<g id="Node000017" class="node">
<title>Node17</title>
<g id="a_Node000017"><a xlink:href="_components_8hpp.html" target="_top" xlink:title=" ">
<polygon fill="white" stroke="#666666" points="934.62,-129.75 835.38,-129.75 835.38,-110.5 934.62,-110.5 934.62,-129.75"/>
<text text-anchor="middle" x="885" y="-116.25" font-family="Helvetica,sans-Serif" font-size="10.00">../Components.hpp</text>
</a>
</g>
</g>
<!-- Node2&#45;&gt;Node17 -->
<g id="edge19_Node000002_Node000017" class="edge">
<title>Node2&#45;&gt;Node17</title>
<g id="a_edge19_Node000002_Node000017"><a xlink:title=" ">
<path fill="none" stroke="#63b8ff" d="M743.21,-283.47C774.42,-280.37 824.11,-270.63 853,-240.25 878.75,-213.17 884.26,-167.65 885.17,-141.42"/>
<polygon fill="#63b8ff" stroke="#63b8ff" points="888.66,-141.51 885.28,-131.47 881.66,-141.43 888.66,-141.51"/>
</a>
</g>
</g>
<!-- Node18 -->
<g id="Node000018" class="node">
<title>Node18</title>
<g id="a_Node000018"><a xlink:title=" ">
<polygon fill="#e0e0e0" stroke="#999999" points="169.5,-74.5 66.5,-74.5 66.5,-55.25 169.5,-55.25 169.5,-74.5"/>
<text text-anchor="middle" x="118" y="-61" font-family="Helvetica,sans-Serif" font-size="10.00">SFML/Graphics.hpp</text>
</a>
</g>
</g>
<!-- Node2&#45;&gt;Node18 -->
<g id="edge44_Node000002_Node000018" class="edge">
<title>Node2&#45;&gt;Node18</title>
<g id="a_edge44_Node000002_Node000018"><a xlink:title=" ">
<path fill="none" stroke="#63b8ff" d="M687.02,-283.74C634.92,-280.92 520.05,-271.41 429,-240.25 311.99,-200.2 188.2,-116.46 139.47,-81.61"/>
<polygon fill="#63b8ff" stroke="#63b8ff" points="141.63,-78.85 131.47,-75.84 137.53,-84.53 141.63,-78.85"/>
</a>
</g>
</g>
<!-- Node19 -->
<g id="Node000019" class="node">
<title>Node19</title>
<g id="a_Node000019"><a xlink:title=" ">
<polygon fill="#e0e0e0" stroke="#999999" points="284.88,-74.5 187.12,-74.5 187.12,-55.25 284.88,-55.25 284.88,-74.5"/>
<text text-anchor="middle" x="236" y="-61" font-family="Helvetica,sans-Serif" font-size="10.00">SFML/Window.hpp</text>
</a>
</g>
</g>
<!-- Node2&#45;&gt;Node19 -->
<g id="edge45_Node000002_Node000019" class="edge">
<title>Node2&#45;&gt;Node19</title>
<g id="a_edge45_Node000002_Node000019"><a xlink:title=" ">
<path fill="none" stroke="#63b8ff" d="M686.88,-282.44C623.62,-275.85 467.09,-253.32 358,-185 312.84,-156.72 270.87,-109.31 249.93,-83.66"/>
<polygon fill="#63b8ff" stroke="#63b8ff" points="252.91,-81.77 243.92,-76.16 247.44,-86.15 252.91,-81.77"/>
</a>
</g>
</g>
<!-- Node22 -->
<g id="Node000022" class="node">
<title>Node22</title>
<g id="a_Node000022"><a xlink:href="_systems_8hpp.html" target="_top" xlink:title=" ">
<polygon fill="white" stroke="#666666" points="704.38,-240.25 621.62,-240.25 621.62,-221 704.38,-221 704.38,-240.25"/>
<text text-anchor="middle" x="663" y="-226.75" font-family="Helvetica,sans-Serif" font-size="10.00">../Systems.hpp</text>
</a>
</g>
</g>
<!-- Node2&#45;&gt;Node22 -->
<g id="edge25_Node000002_Node000022" class="edge">
<title>Node2&#45;&gt;Node22</title>
<g id="a_edge25_Node000002_Node000022"><a xlink:title=" ">
<path fill="none" stroke="#63b8ff" d="M706.41,-276.08C699.16,-268.65 688.55,-257.79 679.63,-248.66"/>
<polygon fill="#63b8ff" stroke="#63b8ff" points="682.32,-246.4 672.83,-241.69 677.31,-251.29 682.32,-246.4"/>
</a>
</g>
</g>
<!-- Node26 -->
<g id="Node000026" class="node">
<title>Node26</title>
<g id="a_Node000026"><a xlink:title=" ">
<polygon fill="#e0e0e0" stroke="#999999" points="811.38,-240.25 722.62,-240.25 722.62,-221 811.38,-221 811.38,-240.25"/>
<text text-anchor="middle" x="767" y="-226.75" font-family="Helvetica,sans-Serif" font-size="10.00">SFML/Audio.hpp</text>
</a>
</g>
</g>
<!-- Node2&#45;&gt;Node26 -->
<g id="edge46_Node000002_Node000026" class="edge">
<title>Node2&#45;&gt;Node26</title>
<g id="a_edge46_Node000002_Node000026"><a xlink:title=" ">
<path fill="none" stroke="#63b8ff" d="M723.59,-276.08C730.84,-268.65 741.45,-257.79 750.37,-248.66"/>
<polygon fill="#63b8ff" stroke="#63b8ff" points="752.69,-251.29 757.17,-241.69 747.68,-246.4 752.69,-251.29"/>
</a>
</g>
</g>
<!-- Node27 -->
<g id="Node000027" class="node">
<title>Node27</title>
<g id="a_Node000027"><a xlink:href="_sprite_8hpp.html" target="_top" xlink:title=" ">
<polygon fill="white" stroke="#666666" points="427.12,-185 366.88,-185 366.88,-165.75 427.12,-165.75 427.12,-185"/>
<text text-anchor="middle" x="397" y="-171.5" font-family="Helvetica,sans-Serif" font-size="10.00">Sprite.hpp</text>
</a>
</g>
</g>
<!-- Node2&#45;&gt;Node27 -->
<g id="edge47_Node000002_Node000027" class="edge">
<title>Node2&#45;&gt;Node27</title>
<g id="a_edge47_Node000002_Node000027"><a xlink:title=" ">
<path fill="none" stroke="#63b8ff" d="M686.72,-279.06C652.12,-271.62 591.97,-257.57 542,-240.25 500.29,-225.79 453.88,-204.35 425.07,-190.37"/>
<polygon fill="#63b8ff" stroke="#63b8ff" points="426.81,-187.33 416.29,-186.08 423.73,-193.62 426.81,-187.33"/>
</a>
</g>
</g>
<!-- Node30 -->
<g id="Node000030" class="node">
<title>Node30</title>
<g id="a_Node000030"><a xlink:href="_u_d_p_network_client_8hpp.html" target="_top" xlink:title=" ">
<polygon fill="white" stroke="#666666" points="1122.38,-185 1003.62,-185 1003.62,-165.75 1122.38,-165.75 1122.38,-185"/>
<text text-anchor="middle" x="1063" y="-171.5" font-family="Helvetica,sans-Serif" font-size="10.00">UDPNetworkClient.hpp</text>
</a>
</g>
</g>
<!-- Node2&#45;&gt;Node30 -->
<g id="edge59_Node000002_Node000030" class="edge">
<title>Node2&#45;&gt;Node30</title>
<g id="a_edge59_Node000002_Node000030"><a xlink:title=" ">
<path fill="none" stroke="#63b8ff" d="M743.11,-283.99C791.6,-281.59 893.32,-272.77 972,-240.25 999.69,-228.8 1027.27,-207.75 1044.68,-192.95"/>
<polygon fill="#63b8ff" stroke="#63b8ff" points="1046.87,-195.68 1052.1,-186.47 1042.27,-190.41 1046.87,-195.68"/>
</a>
</g>
</g>
<!-- Node35 -->
<g id="Node000035" class="node">
<title>Node35</title>
<g id="a_Node000035"><a xlink:title=" ">
<polygon fill="#e0e0e0" stroke="#999999" points="962.62,-240.25 911.38,-240.25 911.38,-221 962.62,-221 962.62,-240.25"/>
<text text-anchor="middle" x="937" y="-226.75" font-family="Helvetica,sans-Serif" font-size="10.00">sstream</text>
</a>
</g>
</g>
<!-- Node2&#45;&gt;Node35 -->
<g id="edge69_Node000002_Node000035" class="edge">
<title>Node2&#45;&gt;Node35</title>
<g id="a_edge69_Node000002_Node000035"><a xlink:title=" ">
<path fill="none" stroke="#63b8ff" d="M743.12,-278.13C782.96,-268.57 855.9,-251.08 900.07,-240.48"/>
<polygon fill="#63b8ff" stroke="#63b8ff" points="900.79,-243.91 909.7,-238.17 899.16,-237.1 900.79,-243.91"/>
</a>
</g>
</g>
<!-- Node2&#45;&gt;Node36 -->
<g id="edge70_Node000002_Node000036" class="edge">
<title>Node2&#45;&gt;Node36</title>
<g id="a_edge70_Node000002_Node000036"><a xlink:title=" ">
<path fill="none" stroke="#63b8ff" d="M743.3,-282.79C845.21,-275.27 1195.81,-249.41 1356,-237.6"/>
<polygon fill="#63b8ff" stroke="#63b8ff" points="1355.97,-241.11 1365.69,-236.88 1355.46,-234.13 1355.97,-241.11"/>
</a>
</g>
</g>
<!-- Node4 -->
<g id="Node000004" class="node">
<title>Node4</title>
<g id="a_Node000004"><a xlink:title=" ">
<polygon fill="#e0e0e0" stroke="#999999" points="606.75,-19.25 553.25,-19.25 553.25,0 606.75,0 606.75,-19.25"/>
<text text-anchor="middle" x="580" y="-5.75" font-family="Helvetica,sans-Serif" font-size="10.00">iostream</text>
</a>
</g>
</g>
<!-- Node3&#45;&gt;Node4 -->
<g id="edge3_Node000003_Node000004" class="edge">
<title>Node3&#45;&gt;Node4</title>
<g id="a_edge3_Node000003_Node000004"><a xlink:title=" ">
<path fill="none" stroke="#63b8ff" d="M580,-55.08C580,-48.57 580,-39.42 580,-31.12"/>
<polygon fill="#63b8ff" stroke="#63b8ff" points="583.5,-31.12 580,-21.12 576.5,-31.12 583.5,-31.12"/>
</a>
</g>
</g>
<!-- Node3&#45;&gt;Node5 -->
<g id="edge4_Node000003_Node000005" class="edge">
<title>Node3&#45;&gt;Node5</title>
<g id="a_edge4_Node000003_Node000005"><a xlink:title=" ">
<path fill="none" stroke="#63b8ff" d="M545.72,-60.15C531.3,-58.6 514.34,-56.81 499,-55.25 340.35,-39.13 150.84,-21.2 73.5,-13.94"/>
<polygon fill="#63b8ff" stroke="#63b8ff" points="74.29,-10.5 64,-13.05 73.63,-17.47 74.29,-10.5"/>
</a>
</g>
</g>
<!-- Node6&#45;&gt;Node3 -->
<g id="edge17_Node000006_Node000003" class="edge">
<title>Node6&#45;&gt;Node3</title>
<g id="a_edge17_Node000006_Node000003"><a xlink:title=" ">
<path fill="none" stroke="#63b8ff" d="M648.92,-110.09C636.52,-102.14 618.21,-90.39 603.57,-81"/>
<polygon fill="#63b8ff" stroke="#63b8ff" points="605.73,-78.22 595.42,-75.77 601.95,-84.12 605.73,-78.22"/>
</a>
</g>
</g>
<!-- Node7 -->
<g id="Node000007" class="node">
<title>Node7</title>
<g id="a_Node000007"><a xlink:title=" ">
<polygon fill="#e0e0e0" stroke="#999999" points="490.38,-74.5 407.62,-74.5 407.62,-55.25 490.38,-55.25 490.38,-74.5"/>
<text text-anchor="middle" x="449" y="-61" font-family="Helvetica,sans-Serif" font-size="10.00">unordered_map</text>
</a>
</g>
</g>
<!-- Node6&#45;&gt;Node7 -->
<g id="edge6_Node000006_Node000007" class="edge">
<title>Node6&#45;&gt;Node7</title>
<g id="a_edge6_Node000006_Node000007"><a xlink:title=" ">
<path fill="none" stroke="#63b8ff" d="M626.7,-110.09C590.88,-101.18 535.94,-87.51 496.63,-77.73"/>
<polygon fill="#63b8ff" stroke="#63b8ff" points="497.5,-74.34 486.95,-75.32 495.81,-81.13 497.5,-74.34"/>
</a>
</g>
</g>
<!-- Node8 -->
<g id="Node000008" class="node">
<title>Node8</title>
<g id="a_Node000008"><a xlink:title=" ">
<polygon fill="#e0e0e0" stroke="#999999" points="701.88,-74.5 670.12,-74.5 670.12,-55.25 701.88,-55.25 701.88,-74.5"/>
<text text-anchor="middle" x="686" y="-61" font-family="Helvetica,sans-Serif" font-size="10.00">any</text>
</a>
</g>
</g>
<!-- Node6&#45;&gt;Node8 -->
<g id="edge7_Node000006_Node000008" class="edge">
<title>Node6&#45;&gt;Node8</title>
<g id="a_edge7_Node000006_Node000008"><a xlink:title=" ">
<path fill="none" stroke="#63b8ff" d="M666.8,-110.33C669.74,-103.51 673.94,-93.81 677.65,-85.2"/>
<polygon fill="#63b8ff" stroke="#63b8ff" points="680.77,-86.82 681.52,-76.25 674.34,-84.04 680.77,-86.82"/>
</a>
</g>
</g>
<!-- Node9 -->
<g id="Node000009" class="node">
<title>Node9</title>
<g id="a_Node000009"><a xlink:title=" ">
<polygon fill="#e0e0e0" stroke="#999999" points="854,-74.5 796,-74.5 796,-55.25 854,-55.25 854,-74.5"/>
<text text-anchor="middle" x="825" y="-61" font-family="Helvetica,sans-Serif" font-size="10.00">functional</text>
</a>
</g>
</g>
<!-- Node6&#45;&gt;Node9 -->
<g id="edge8_Node000006_Node000009" class="edge">
<title>Node6&#45;&gt;Node9</title>
<g id="a_edge8_Node000006_Node000009"><a xlink:title=" ">
<path fill="none" stroke="#63b8ff" d="M690.48,-110.09C716.9,-101.41 757.06,-88.21 786.62,-78.49"/>
<polygon fill="#63b8ff" stroke="#63b8ff" points="787.54,-81.87 795.95,-75.43 785.35,-75.22 787.54,-81.87"/>
</a>
</g>
</g>
<!-- Node10 -->
<g id="Node000010" class="node">
<title>Node10</title>
<g id="a_Node000010"><a xlink:title=" ">
<polygon fill="#e0e0e0" stroke="#999999" points="778,-74.5 720,-74.5 720,-55.25 778,-55.25 778,-74.5"/>
<text text-anchor="middle" x="749" y="-61" font-family="Helvetica,sans-Serif" font-size="10.00">typeindex</text>
</a>
</g>
</g>
<!-- Node6&#45;&gt;Node10 -->
<g id="edge9_Node000006_Node000010" class="edge">
<title>Node6&#45;&gt;Node10</title>
<g id="a_edge9_Node000006_Node000010"><a xlink:title=" ">
<path fill="none" stroke="#63b8ff" d="M677.59,-110.09C690.44,-102.14 709.41,-90.39 724.57,-81"/>
<polygon fill="#63b8ff" stroke="#63b8ff" points="726.39,-83.99 733.05,-75.75 722.71,-78.04 726.39,-83.99"/>
</a>
</g>
</g>
<!-- Node11 -->
<g id="Node000011" class="node">
<title>Node11</title>
<g id="a_Node000011"><a xlink:title=" ">
<polygon fill="#e0e0e0" stroke="#999999" points="815.38,-19.25 756.62,-19.25 756.62,0 815.38,0 815.38,-19.25"/>
<text text-anchor="middle" x="786" y="-5.75" font-family="Helvetica,sans-Serif" font-size="10.00">stdexcept</text>
</a>
</g>
</g>
<!-- Node6&#45;&gt;Node11 -->
<g id="edge10_Node000006_Node000011" class="edge">
<title>Node6&#45;&gt;Node11</title>
<g id="a_edge10_Node000006_Node000011"><a xlink:title=" ">
<path fill="none" stroke="#63b8ff" d="M659.68,-110.34C655.29,-97.08 649.37,-71.76 661,-55.25 679.84,-28.52 716.22,-17.71 744.89,-13.39"/>
<polygon fill="#63b8ff" stroke="#63b8ff" points="745.26,-16.87 754.74,-12.13 744.38,-9.92 745.26,-16.87"/>
</a>
</g>
</g>
<!-- Node6&#45;&gt;Node12 -->
<g id="edge11_Node000006_Node000012" class="edge">
<title>Node6&#45;&gt;Node12</title>
<g id="a_edge11_Node000006_Node000012"><a xlink:title=" ">
<path fill="none" stroke="#63b8ff" d="M702.69,-112.7C761.17,-103.24 870.72,-85.51 936.94,-74.79"/>
<polygon fill="#63b8ff" stroke="#63b8ff" points="937.18,-78.29 946.49,-73.24 936.06,-71.38 937.18,-78.29"/>
</a>
</g>
</g>
<!-- Node12&#45;&gt;Node11 -->
<g id="edge14_Node000012_Node000011" class="edge">
<title>Node12&#45;&gt;Node11</title>
<g id="a_edge14_Node000012_Node000011"><a xlink:title=" ">
<path fill="none" stroke="#63b8ff" d="M957.05,-54.84C920.91,-45.5 864.51,-30.92 826.46,-21.08"/>
<polygon fill="#63b8ff" stroke="#63b8ff" points="827.78,-17.81 817.22,-18.7 826.03,-24.59 827.78,-17.81"/>
</a>
</g>
</g>
<!-- Node13 -->
<g id="Node000013" class="node">
<title>Node13</title>
<g id="a_Node000013"><a xlink:title=" ">
<polygon fill="#e0e0e0" stroke="#999999" points="1523.5,-19.25 1480.5,-19.25 1480.5,0 1523.5,0 1523.5,-19.25"/>
<text text-anchor="middle" x="1502" y="-5.75" font-family="Helvetica,sans-Serif" font-size="10.00">vector</text>
</a>
</g>
</g>
<!-- Node12&#45;&gt;Node13 -->
<g id="edge12_Node000012_Node000013" class="edge">
<title>Node12&#45;&gt;Node13</title>
<g id="a_edge12_Node000012_Node000013"><a xlink:title=" ">
<path fill="none" stroke="#63b8ff" d="M1035.92,-59.29C1136.18,-48.82 1380.04,-23.36 1468.9,-14.08"/>
<polygon fill="#63b8ff" stroke="#63b8ff" points="1469.06,-17.58 1478.64,-13.06 1468.33,-10.62 1469.06,-17.58"/>
</a>
</g>
</g>
<!-- Node14 -->
<g id="Node000014" class="node">
<title>Node14</title>
<g id="a_Node000014"><a xlink:title=" ">
<polygon fill="#e0e0e0" stroke="#999999" points="1088.88,-19.25 1039.12,-19.25 1039.12,0 1088.88,0 1088.88,-19.25"/>
<text text-anchor="middle" x="1064" y="-5.75" font-family="Helvetica,sans-Serif" font-size="10.00">optional</text>
</a>
</g>
</g>
<!-- Node12&#45;&gt;Node14 -->
<g id="edge13_Node000012_Node000014" class="edge">
<title>Node12&#45;&gt;Node14</title>
<g id="a_edge13_Node000012_Node000014"><a xlink:title=" ">
<path fill="none" stroke="#63b8ff" d="M1004.21,-54.84C1014.83,-46.99 1030.44,-35.45 1043.04,-26.12"/>
<polygon fill="#63b8ff" stroke="#63b8ff" points="1044.79,-29.19 1050.75,-20.42 1040.63,-23.56 1044.79,-29.19"/>
</a>
</g>
</g>
<!-- Node15 -->
<g id="Node000015" class="node">
<title>Node15</title>
<g id="a_Node000015"><a xlink:title=" ">
<polygon fill="#e0e0e0" stroke="#999999" points="1019.88,-19.25 964.12,-19.25 964.12,0 1019.88,0 1019.88,-19.25"/>
<text text-anchor="middle" x="992" y="-5.75" font-family="Helvetica,sans-Serif" font-size="10.00">algorithm</text>
</a>
</g>
</g>
<!-- Node12&#45;&gt;Node15 -->
<g id="edge15_Node000012_Node000015" class="edge">
<title>Node12&#45;&gt;Node15</title>
<g id="a_edge15_Node000012_Node000015"><a xlink:title=" ">
<path fill="none" stroke="#63b8ff" d="M992,-55.08C992,-48.57 992,-39.42 992,-31.12"/>
<polygon fill="#63b8ff" stroke="#63b8ff" points="995.5,-31.12 992,-21.12 988.5,-31.12 995.5,-31.12"/>
</a>
</g>
</g>
<!-- Node16 -->
<g id="Node000016" class="node">
<title>Node16</title>
<g id="a_Node000016"><a xlink:title=" ">
<polygon fill="#e0e0e0" stroke="#999999" points="1194.62,-19.25 1143.38,-19.25 1143.38,0 1194.62,0 1194.62,-19.25"/>
<text text-anchor="middle" x="1169" y="-5.75" font-family="Helvetica,sans-Serif" font-size="10.00">memory</text>
</a>
</g>
</g>
<!-- Node12&#45;&gt;Node16 -->
<g id="edge16_Node000012_Node000016" class="edge">
<title>Node12&#45;&gt;Node16</title>
<g id="a_edge16_Node000012_Node000016"><a xlink:title=" ">
<path fill="none" stroke="#63b8ff" d="M1022.03,-54.84C1052.46,-45.68 1099.61,-31.5 1132.26,-21.68"/>
<polygon fill="#63b8ff" stroke="#63b8ff" points="1133.13,-25.07 1141.7,-18.84 1131.12,-18.37 1133.13,-25.07"/>
</a>
</g>
</g>
<!-- Node17&#45;&gt;Node13 -->
<g id="edge23_Node000017_Node000013" class="edge">
<title>Node17&#45;&gt;Node13</title>
<g id="a_edge23_Node000017_Node000013"><a xlink:title=" ">
<path fill="none" stroke="#63b8ff" d="M917.19,-110.13C976.97,-93.46 1100.89,-59.13 1121,-55.25 1248.43,-30.68 1402.63,-17.66 1469,-12.84"/>
<polygon fill="#63b8ff" stroke="#63b8ff" points="1469.11,-16.34 1478.84,-12.14 1468.61,-9.36 1469.11,-16.34"/>
</a>
</g>
</g>
<!-- Node17&#45;&gt;Node18 -->
<g id="edge20_Node000017_Node000018" class="edge">
<title>Node17&#45;&gt;Node18</title>
<g id="a_edge20_Node000017_Node000018"><a xlink:title=" ">
<path fill="none" stroke="#63b8ff" d="M834.94,-116.49C699.38,-109.26 326.15,-88.81 180.96,-74.7"/>
<polygon fill="#63b8ff" stroke="#63b8ff" points="181.48,-71.24 171.18,-73.72 180.78,-78.2 181.48,-71.24"/>
</a>
</g>
</g>
<!-- Node17&#45;&gt;Node19 -->
<g id="edge21_Node000017_Node000019" class="edge">
<title>Node17&#45;&gt;Node19</title>
<g id="a_edge21_Node000017_Node000019"><a xlink:title=" ">
<path fill="none" stroke="#63b8ff" d="M834.98,-116.62C734.73,-111.33 501.84,-97.67 296.4,-74.81"/>
<polygon fill="#63b8ff" stroke="#63b8ff" points="296.93,-71.35 286.6,-73.71 296.14,-78.31 296.93,-71.35"/>
</a>
</g>
</g>
<!-- Node20 -->
<g id="Node000020" class="node">
<title>Node20</title>
<g id="a_Node000020"><a xlink:title=" ">
<polygon fill="#e0e0e0" stroke="#999999" points="1466,-74.5 1426,-74.5 1426,-55.25 1466,-55.25 1466,-74.5"/>
<text text-anchor="middle" x="1446" y="-61" font-family="Helvetica,sans-Serif" font-size="10.00">string</text>
</a>
</g>
</g>
<!-- Node17&#45;&gt;Node20 -->
<g id="edge22_Node000017_Node000020" class="edge">
<title>Node17&#45;&gt;Node20</title>
<g id="a_edge22_Node000017_Node000020"><a xlink:title=" ">
<path fill="none" stroke="#63b8ff" d="M934.79,-114.4C1047.71,-103.68 1320.68,-77.77 1414.05,-68.91"/>
<polygon fill="#63b8ff" stroke="#63b8ff" points="1414.38,-72.39 1424.01,-67.96 1413.72,-65.42 1414.38,-72.39"/>
</a>
</g>
</g>
<!-- Node21 -->
<g id="Node000021" class="node">
<title>Node21</title>
<g id="a_Node000021"><a xlink:title=" ">
<polygon fill="#e0e0e0" stroke="#999999" points="1175.62,-74.5 1130.38,-74.5 1130.38,-55.25 1175.62,-55.25 1175.62,-74.5"/>
<text text-anchor="middle" x="1153" y="-61" font-family="Helvetica,sans-Serif" font-size="10.00">chrono</text>
</a>
</g>
</g>
<!-- Node17&#45;&gt;Node21 -->
<g id="edge24_Node000017_Node000021" class="edge">
<title>Node17&#45;&gt;Node21</title>
<g id="a_edge24_Node000017_Node000021"><a xlink:title=" ">
<path fill="none" stroke="#63b8ff" d="M934.68,-110.1C981.53,-101.44 1053.68,-87.78 1116,-74.5 1116.99,-74.29 1117.99,-74.07 1119,-73.85"/>
<polygon fill="#63b8ff" stroke="#63b8ff" points="1119.47,-77.33 1128.46,-71.73 1117.94,-70.5 1119.47,-77.33"/>
</a>
</g>
</g>
<!-- Node22&#45;&gt;Node4 -->
<g id="edge31_Node000022_Node000004" class="edge">
<title>Node22&#45;&gt;Node4</title>
<g id="a_edge31_Node000022_Node000004"><a xlink:title=" ">
<path fill="none" stroke="#63b8ff" d="M668.97,-220.56C683.77,-198.73 724.35,-142.67 771,-110.5 810.27,-83.42 893.99,-91.51 863,-55.25 847.28,-36.86 691.95,-20.64 618.33,-13.92"/>
<polygon fill="#63b8ff" stroke="#63b8ff" points="619.03,-10.47 608.76,-13.06 618.4,-17.44 619.03,-10.47"/>
</a>
</g>
</g>
<!-- Node22&#45;&gt;Node6 -->
<g id="edge27_Node000022_Node000006" class="edge">
<title>Node22&#45;&gt;Node6</title>
<g id="a_edge27_Node000022_Node000006"><a xlink:title=" ">
<path fill="none" stroke="#63b8ff" d="M663,-220.75C663,-203.5 663,-165.08 663,-141.31"/>
<polygon fill="#63b8ff" stroke="#63b8ff" points="666.5,-141.64 663,-131.64 659.5,-141.64 666.5,-141.64"/>
</a>
</g>
</g>
<!-- Node22&#45;&gt;Node12 -->
<g id="edge28_Node000022_Node000012" class="edge">
<title>Node22&#45;&gt;Node12</title>
<g id="a_edge28_Node000022_Node000012"><a xlink:title=" ">
<path fill="none" stroke="#63b8ff" d="M686.53,-220.59C704.09,-213.02 727.9,-200.88 745,-185 773.86,-158.2 760.7,-133.05 793,-110.5 815.94,-94.48 886.4,-81.23 936.97,-73.44"/>
<polygon fill="#63b8ff" stroke="#63b8ff" points="937.21,-76.94 946.57,-71.99 936.16,-70.02 937.21,-76.94"/>
</a>
</g>
</g>
<!-- Node22&#45;&gt;Node17 -->
<g id="edge26_Node000022_Node000017" class="edge">
<title>Node22&#45;&gt;Node17</title>
<g id="a_edge26_Node000022_Node000017"><a xlink:title=" ">
<path fill="none" stroke="#63b8ff" d="M692.3,-220.59C717.03,-212.52 753.09,-199.73 783,-185 812.02,-170.7 843.25,-150.33 863.4,-136.47"/>
<polygon fill="#63b8ff" stroke="#63b8ff" points="865.16,-139.51 871.36,-130.92 861.15,-133.77 865.16,-139.51"/>
</a>
</g>
</g>
<!-- Node22&#45;&gt;Node18 -->
<g id="edge29_Node000022_Node000018" class="edge">
<title>Node22&#45;&gt;Node18</title>
<g id="a_edge29_Node000022_Node000018"><a xlink:title=" ">
<path fill="none" stroke="#63b8ff" d="M621.21,-227.42C561.65,-223.41 449.45,-212.61 358,-185 302.95,-168.38 292.53,-155.28 241,-129.75 207.76,-113.28 169.94,-93.48 145.12,-80.33"/>
<polygon fill="#63b8ff" stroke="#63b8ff" points="146.82,-77.27 136.35,-75.68 143.54,-83.46 146.82,-77.27"/>
</a>
</g>
</g>
<!-- Node22&#45;&gt;Node19 -->
<g id="edge30_Node000022_Node000019" class="edge">
<title>Node22&#45;&gt;Node19</title>
<g id="a_edge30_Node000022_Node000019"><a xlink:title=" ">
<path fill="none" stroke="#63b8ff" d="M627.57,-220.55C570.06,-205.25 453.43,-171.84 360,-129.75 344.52,-122.78 341.97,-118.52 327,-110.5 306.84,-99.69 283.68,-88.35 265.77,-79.81"/>
<polygon fill="#63b8ff" stroke="#63b8ff" points="267.28,-76.65 256.75,-75.53 264.28,-82.97 267.28,-76.65"/>
</a>
</g>
</g>
<!-- Node23 -->
<g id="Node000023" class="node">
<title>Node23</title>
<g id="a_Node000023"><a xlink:href="_mediator_8hpp.html" target="_top" xlink:title=" ">
<polygon fill="white" stroke="#666666" points="1448.75,-185 1347.25,-185 1347.25,-165.75 1448.75,-165.75 1448.75,-185"/>
<text text-anchor="middle" x="1398" y="-171.5" font-family="Helvetica,sans-Serif" font-size="10.00">server/Mediator.hpp</text>
</a>
</g>
</g>
<!-- Node22&#45;&gt;Node23 -->
<g id="edge32_Node000022_Node000023" class="edge">
<title>Node22&#45;&gt;Node23</title>
<g id="a_edge32_Node000022_Node000023"><a xlink:title=" ">
<path fill="none" stroke="#63b8ff" d="M704.73,-221.03C704.82,-221.02 704.91,-221.01 705,-221 936.3,-193.97 1213.66,-182.19 1335.53,-178.14"/>
<polygon fill="#63b8ff" stroke="#63b8ff" points="1335.44,-181.64 1345.32,-177.82 1335.21,-174.65 1335.44,-181.64"/>
</a>
</g>
</g>
<!-- Node23&#45;&gt;Node4 -->
<g id="edge39_Node000023_Node000004" class="edge">
<title>Node23&#45;&gt;Node4</title>
<g id="a_edge39_Node000023_Node000004"><a xlink:title=" ">
<path fill="none" stroke="#63b8ff" d="M1398.57,-165.27C1398.9,-151.11 1397.2,-124.04 1381,-110.5 1305.37,-47.32 1034.46,-98.99 939,-74.5 918.72,-69.3 916.12,-61.05 896,-55.25 798.42,-27.13 678.59,-16.4 618.39,-12.57"/>
<polygon fill="#63b8ff" stroke="#63b8ff" points="618.87,-9.1 608.68,-11.99 618.45,-16.08 618.87,-9.1"/>
</a>
</g>
</g>
<!-- Node23&#45;&gt;Node6 -->
<g id="edge34_Node000023_Node000006" class="edge">
<title>Node23&#45;&gt;Node6</title>
<g id="a_edge34_Node000023_Node000006"><a xlink:title=" ">
<path fill="none" stroke="#63b8ff" d="M1346.9,-170.67C1212.14,-160.91 848.27,-134.55 713.82,-124.81"/>
<polygon fill="#63b8ff" stroke="#63b8ff" points="714.4,-121.34 704.17,-124.11 713.9,-128.32 714.4,-121.34"/>
</a>
</g>
</g>
<!-- Node23&#45;&gt;Node13 -->
<g id="edge41_Node000023_Node000013" class="edge">
<title>Node23&#45;&gt;Node13</title>
<g id="a_edge41_Node000023_Node000013"><a xlink:title=" ">
<path fill="none" stroke="#63b8ff" d="M1448.85,-168.56C1500.53,-161.71 1576.01,-148.79 1598,-129.75 1624.01,-107.23 1638.52,-83.58 1619,-55.25 1600.22,-27.99 1562.4,-17.37 1534.82,-13.24"/>
<polygon fill="#63b8ff" stroke="#63b8ff" points="1535.58,-9.81 1525.22,-12.03 1534.7,-16.75 1535.58,-9.81"/>
</a>
</g>
</g>
<!-- Node23&#45;&gt;Node20 -->
<g id="edge40_Node000023_Node000020" class="edge">
<title>Node23&#45;&gt;Node20</title>
<g id="a_edge40_Node000023_Node000020"><a xlink:title=" ">
<path fill="none" stroke="#63b8ff" d="M1401.93,-165.5C1409.66,-148.01 1427.02,-108.77 1437.5,-85.09"/>
<polygon fill="#63b8ff" stroke="#63b8ff" points="1440.56,-86.82 1441.41,-76.26 1434.16,-83.99 1440.56,-86.82"/>
</a>
</g>
</g>
<!-- Node23&#45;&gt;Node22 -->
<g id="edge33_Node000023_Node000022" class="edge">
<title>Node23&#45;&gt;Node22</title>
<g id="a_edge33_Node000023_Node000022"><a xlink:title=" ">
<path fill="none" stroke="#63b8ff" d="M1346.9,-178.09C1233.96,-182.09 955.26,-193.86 723,-221 720.7,-221.27 718.35,-221.57 715.96,-221.9"/>
<polygon fill="#63b8ff" stroke="#63b8ff" points="715.57,-218.42 706.19,-223.34 716.6,-225.34 715.57,-218.42"/>
</a>
</g>
</g>
<!-- Node24 -->
<g id="Node000024" class="node">
<title>Node24</title>
<g id="a_Node000024"><a xlink:href="_i_sender_8hpp.html" target="_top" xlink:title=" ">
<polygon fill="white" stroke="#666666" points="1571.88,-129.75 1504.12,-129.75 1504.12,-110.5 1571.88,-110.5 1571.88,-129.75"/>
<text text-anchor="middle" x="1538" y="-116.25" font-family="Helvetica,sans-Serif" font-size="10.00">ISender.hpp</text>
</a>
</g>
</g>
<!-- Node23&#45;&gt;Node24 -->
<g id="edge35_Node000023_Node000024" class="edge">
<title>Node23&#45;&gt;Node24</title>
<g id="a_edge35_Node000023_Node000024"><a xlink:title=" ">
<path fill="none" stroke="#63b8ff" d="M1421.75,-165.34C1444.17,-156.81 1478.06,-143.92 1503.47,-134.26"/>
<polygon fill="#63b8ff" stroke="#63b8ff" points="1504.62,-137.57 1512.72,-130.74 1502.13,-131.02 1504.62,-137.57"/>
</a>
</g>
</g>
<!-- Node25 -->
<g id="Node000025" class="node">
<title>Node25</title>
<g id="a_Node000025"><a xlink:title=" ">
<polygon fill="#e0e0e0" stroke="#999999" points="1609.88,-74.5 1530.12,-74.5 1530.12,-55.25 1609.88,-55.25 1609.88,-74.5"/>
<text text-anchor="middle" x="1570" y="-61" font-family="Helvetica,sans-Serif" font-size="10.00">boost/asio.hpp</text>
</a>
</g>
</g>
<!-- Node23&#45;&gt;Node25 -->
<g id="edge42_Node000023_Node000025" class="edge">
<title>Node23&#45;&gt;Node25</title>
<g id="a_edge42_Node000023_Node000025"><a xlink:title=" ">
<path fill="none" stroke="#63b8ff" d="M1449.08,-168.93C1497.4,-162.61 1564.84,-150.32 1581,-129.75 1590.88,-117.17 1586.39,-98.86 1580.45,-85.06"/>
<polygon fill="#63b8ff" stroke="#63b8ff" points="1583.61,-83.56 1576.06,-76.12 1577.33,-86.64 1583.61,-83.56"/>
</a>
</g>
</g>
<!-- Node24&#45;&gt;Node13 -->
<g id="edge36_Node000024_Node000013" class="edge">
<title>Node24&#45;&gt;Node13</title>
<g id="a_edge36_Node000024_Node000013"><a xlink:title=" ">
<path fill="none" stroke="#63b8ff" d="M1534.42,-110.31C1530.83,-101.35 1525.26,-87.06 1521,-74.5 1515.99,-59.72 1510.99,-42.78 1507.37,-30.06"/>
<polygon fill="#63b8ff" stroke="#63b8ff" points="1510.85,-29.51 1504.79,-20.83 1504.11,-31.4 1510.85,-29.51"/>
</a>
</g>
</g>
<!-- Node24&#45;&gt;Node20 -->
<g id="edge37_Node000024_Node000020" class="edge">
<title>Node24&#45;&gt;Node20</title>
<g id="a_edge37_Node000024_Node000020"><a xlink:title=" ">
<path fill="none" stroke="#63b8ff" d="M1522.39,-110.09C1508.38,-101.98 1487.57,-89.93 1471.2,-80.46"/>
<polygon fill="#63b8ff" stroke="#63b8ff" points="1473.4,-77.69 1462.99,-75.71 1469.89,-83.75 1473.4,-77.69"/>
</a>
</g>
</g>
<!-- Node24&#45;&gt;Node25 -->
<g id="edge38_Node000024_Node000025" class="edge">
<title>Node24&#45;&gt;Node25</title>
<g id="a_edge38_Node000024_Node000025"><a xlink:title=" ">
<path fill="none" stroke="#63b8ff" d="M1543.28,-110.33C1547.47,-103.36 1553.48,-93.37 1558.73,-84.62"/>
<polygon fill="#63b8ff" stroke="#63b8ff" points="1561.67,-86.53 1563.82,-76.16 1555.67,-82.93 1561.67,-86.53"/>
</a>
</g>
</g>
<!-- Node27&#45;&gt;Node4 -->
<g id="edge51_Node000027_Node000004" class="edge">
<title>Node27&#45;&gt;Node4</title>
<g id="a_edge51_Node000027_Node000004"><a xlink:title=" ">
<path fill="none" stroke="#63b8ff" d="M408.56,-165.37C419.82,-156.51 437.34,-142.5 452,-129.75 492.63,-94.43 538.4,-50.88 562.68,-27.45"/>
<polygon fill="#63b8ff" stroke="#63b8ff" points="565.04,-30.04 569.79,-20.57 560.17,-25 565.04,-30.04"/>
</a>
</g>
</g>
<!-- Node27&#45;&gt;Node5 -->
<g id="edge48_Node000027_Node000005" class="edge">
<title>Node27&#45;&gt;Node5</title>
<g id="a_edge48_Node000027_Node000005"><a xlink:title=" ">
<path fill="none" stroke="#63b8ff" d="M366.76,-174.66C300.83,-173.57 143.19,-161.45 57,-74.5 45.53,-62.93 40.93,-44.75 39.11,-30.74"/>
<polygon fill="#63b8ff" stroke="#63b8ff" points="42.6,-30.52 38.24,-20.86 35.63,-31.13 42.6,-30.52"/>
</a>
</g>
</g>
<!-- Node27&#45;&gt;Node7 -->
<g id="edge52_Node000027_Node000007" class="edge">
<title>Node27&#45;&gt;Node7</title>
<g id="a_edge52_Node000027_Node000007"><a xlink:title=" ">
<path fill="none" stroke="#63b8ff" d="M406.65,-165.38C415.11,-156.96 427.1,-143.63 434,-129.75 440.77,-116.13 444.56,-99.35 446.63,-86.4"/>
<polygon fill="#63b8ff" stroke="#63b8ff" points="450.1,-86.87 447.98,-76.49 443.17,-85.93 450.1,-86.87"/>
</a>
</g>
</g>
<!-- Node27&#45;&gt;Node18 -->
<g id="edge49_Node000027_Node000018" class="edge">
<title>Node27&#45;&gt;Node18</title>
<g id="a_edge49_Node000027_Node000018"><a xlink:title=" ">
<path fill="none" stroke="#63b8ff" d="M375.66,-165.32C345.72,-152.68 289.46,-129.2 241,-110.5 212.15,-99.36 179.19,-87.45 154.66,-78.74"/>
<polygon fill="#63b8ff" stroke="#63b8ff" points="156.05,-75.52 145.46,-75.48 153.72,-82.11 156.05,-75.52"/>
</a>
</g>
</g>
<!-- Node27&#45;&gt;Node19 -->
<g id="edge50_Node000027_Node000019" class="edge">
<title>Node27&#45;&gt;Node19</title>
<g id="a_edge50_Node000027_Node000019"><a xlink:title=" ">
<path fill="none" stroke="#63b8ff" d="M382.4,-165.33C368.15,-156.45 345.92,-142.41 327,-129.75 303.04,-113.72 276.07,-94.65 257.75,-81.55"/>
<polygon fill="#63b8ff" stroke="#63b8ff" points="259.93,-78.81 249.77,-75.82 255.85,-84.5 259.93,-78.81"/>
</a>
</g>
</g>
<!-- Node28 -->
<g id="Node000028" class="node">
<title>Node28</title>
<g id="a_Node000028"><a xlink:href="_utils_8hpp.html" target="_top" xlink:title=" ">
<polygon fill="white" stroke="#666666" points="424.5,-129.75 369.5,-129.75 369.5,-110.5 424.5,-110.5 424.5,-129.75"/>
<text text-anchor="middle" x="397" y="-116.25" font-family="Helvetica,sans-Serif" font-size="10.00">Utils.hpp</text>
</a>
</g>
</g>
<!-- Node27&#45;&gt;Node28 -->
<g id="edge53_Node000027_Node000028" class="edge">
<title>Node27&#45;&gt;Node28</title>
<g id="a_edge53_Node000027_Node000028"><a xlink:title=" ">
<path fill="none" stroke="#63b8ff" d="M397,-165.58C397,-159.07 397,-149.92 397,-141.62"/>
<polygon fill="#63b8ff" stroke="#63b8ff" points="400.5,-141.62 397,-131.62 393.5,-141.62 400.5,-141.62"/>
</a>
</g>
</g>
<!-- Node28&#45;&gt;Node4 -->
<g id="edge56_Node000028_Node000004" class="edge">
<title>Node28&#45;&gt;Node4</title>
<g id="a_edge56_Node000028_Node000004"><a xlink:title=" ">
<path fill="none" stroke="#63b8ff" d="M394.22,-110.13C390.65,-96.61 386.3,-70.95 399,-55.25 416.72,-33.34 494.09,-20.59 541.75,-14.67"/>
<polygon fill="#63b8ff" stroke="#63b8ff" points="541.87,-18.19 551.38,-13.53 541.04,-11.24 541.87,-18.19"/>
</a>
</g>
</g>
<!-- Node28&#45;&gt;Node7 -->
<g id="edge58_Node000028_Node000007" class="edge">
<title>Node28&#45;&gt;Node7</title>
<g id="a_edge58_Node000028_Node000007"><a xlink:title=" ">
<path fill="none" stroke="#63b8ff" d="M405.59,-110.33C412.84,-102.9 423.45,-92.04 432.37,-82.91"/>
<polygon fill="#63b8ff" stroke="#63b8ff" points="434.69,-85.54 439.17,-75.94 429.68,-80.65 434.69,-85.54"/>
</a>
</g>
</g>
<!-- Node28&#45;&gt;Node18 -->
<g id="edge54_Node000028_Node000018" class="edge">
<title>Node28&#45;&gt;Node18</title>
<g id="a_edge54_Node000028_Node000018"><a xlink:title=" ">
<path fill="none" stroke="#63b8ff" d="M369.23,-113.82C324.56,-105.3 235.77,-88.35 176.62,-77.06"/>
<polygon fill="#63b8ff" stroke="#63b8ff" points="177.54,-73.67 167.06,-75.24 176.22,-80.55 177.54,-73.67"/>
</a>
</g>
</g>
<!-- Node28&#45;&gt;Node19 -->
<g id="edge55_Node000028_Node000019" class="edge">
<title>Node28&#45;&gt;Node19</title>
<g id="a_edge55_Node000028_Node000019"><a xlink:title=" ">
<path fill="none" stroke="#63b8ff" d="M369.69,-110.09C343.44,-101.41 303.52,-88.21 274.14,-78.49"/>
<polygon fill="#63b8ff" stroke="#63b8ff" points="275.48,-75.24 264.88,-75.43 273.28,-81.89 275.48,-75.24"/>
</a>
</g>
</g>
<!-- Node29 -->
<g id="Node000029" class="node">
<title>Node29</title>
<g id="a_Node000029"><a xlink:title=" ">
<polygon fill="#e0e0e0" stroke="#999999" points="351.5,-74.5 302.5,-74.5 302.5,-55.25 351.5,-55.25 351.5,-74.5"/>
<text text-anchor="middle" x="327" y="-61" font-family="Helvetica,sans-Serif" font-size="10.00">fstream</text>
</a>
</g>
</g>
<!-- Node28&#45;&gt;Node29 -->
<g id="edge57_Node000028_Node000029" class="edge">
<title>Node28&#45;&gt;Node29</title>
<g id="a_edge57_Node000028_Node000029"><a xlink:title=" ">
<path fill="none" stroke="#63b8ff" d="M385.13,-110.09C374.91,-102.32 359.93,-90.92 347.74,-81.65"/>
<polygon fill="#63b8ff" stroke="#63b8ff" points="349.98,-78.96 339.9,-75.69 345.74,-84.53 349.98,-78.96"/>
</a>
</g>
</g>
<!-- Node30&#45;&gt;Node9 -->
<g id="edge66_Node000030_Node000009" class="edge">
<title>Node30&#45;&gt;Node9</title>
<g id="a_edge66_Node000030_Node000009"><a xlink:title=" ">
<path fill="none" stroke="#63b8ff" d="M1047.93,-165.44C1025.66,-152.43 982.44,-127.93 944,-110.5 917.46,-98.47 886.63,-86.97 863,-78.66"/>
<polygon fill="#63b8ff" stroke="#63b8ff" points="864.38,-75.44 853.79,-75.46 862.09,-82.05 864.38,-75.44"/>
</a>
</g>
</g>
<!-- Node30&#45;&gt;Node14 -->
<g id="edge67_Node000030_Node000014" class="edge">
<title>Node30&#45;&gt;Node14</title>
<g id="a_edge67_Node000030_Node000014"><a xlink:title=" ">
<path fill="none" stroke="#63b8ff" d="M1051.93,-165.45C1042.74,-157.28 1030.34,-144.27 1025,-129.75 1022.04,-121.72 1022.85,-118.78 1025,-110.5 1029.59,-92.78 1037.9,-91.37 1045,-74.5 1051.05,-60.11 1056,-43.15 1059.33,-30.33"/>
<polygon fill="#63b8ff" stroke="#63b8ff" points="1062.64,-31.53 1061.64,-20.98 1055.84,-29.85 1062.64,-31.53"/>
</a>
</g>
</g>
<!-- Node30&#45;&gt;Node16 -->
<g id="edge61_Node000030_Node000016" class="edge">
<title>Node30&#45;&gt;Node16</title>
<g id="a_edge61_Node000030_Node000016"><a xlink:title=" ">
<path fill="none" stroke="#63b8ff" d="M1058.93,-165.5C1053.47,-152.12 1045.79,-126.65 1058,-110.5 1093.38,-63.7 1149.62,-121.3 1185,-74.5 1194.9,-61.4 1188.66,-42.9 1181.27,-29.18"/>
<polygon fill="#63b8ff" stroke="#63b8ff" points="1184.32,-27.45 1176.16,-20.69 1178.32,-31.06 1184.32,-27.45"/>
</a>
</g>
</g>
<!-- Node30&#45;&gt;Node25 -->
<g id="edge60_Node000030_Node000025" class="edge">
<title>Node30&#45;&gt;Node25</title>
<g id="a_edge60_Node000030_Node000025"><a xlink:title=" ">
<path fill="none" stroke="#63b8ff" d="M1099.89,-165.25C1136.28,-156.25 1193.48,-142.08 1243,-129.75 1277.23,-121.23 1285.51,-117.88 1320,-110.5 1388.4,-95.86 1468.03,-82.23 1518.71,-73.98"/>
<polygon fill="#63b8ff" stroke="#63b8ff" points="1519.2,-77.44 1528.51,-72.39 1518.08,-70.53 1519.2,-77.44"/>
</a>
</g>
</g>
<!-- Node30&#45;&gt;Node28 -->
<g id="edge68_Node000030_Node000028" class="edge">
<title>Node30&#45;&gt;Node28</title>
<g id="a_edge68_Node000030_Node000028"><a xlink:title=" ">
<path fill="none" stroke="#63b8ff" d="M1003.31,-169.6C869.46,-158.9 548.31,-133.22 436.32,-124.27"/>
<polygon fill="#63b8ff" stroke="#63b8ff" points="436.69,-120.79 426.44,-123.48 436.13,-127.77 436.69,-120.79"/>
</a>
</g>
</g>
<!-- Node31 -->
<g id="Node000031" class="node">
<title>Node31</title>
<g id="a_Node000031"><a xlink:title=" ">
<polygon fill="#e0e0e0" stroke="#999999" points="1371.5,-129.75 1328.5,-129.75 1328.5,-110.5 1371.5,-110.5 1371.5,-129.75"/>
<text text-anchor="middle" x="1350" y="-116.25" font-family="Helvetica,sans-Serif" font-size="10.00">thread</text>
</a>
</g>
</g>
<!-- Node30&#45;&gt;Node31 -->
<g id="edge62_Node000030_Node000031" class="edge">
<title>Node30&#45;&gt;Node31</title>
<g id="a_edge62_Node000030_Node000031"><a xlink:title=" ">
<path fill="none" stroke="#63b8ff" d="M1119.51,-165.31C1170.5,-156.9 1247.49,-143.62 1314,-129.75 1315.16,-129.51 1316.35,-129.25 1317.54,-128.99"/>
<polygon fill="#63b8ff" stroke="#63b8ff" points="1317.9,-132.5 1326.87,-126.87 1316.34,-125.68 1317.9,-132.5"/>
</a>
</g>
</g>
<!-- Node32 -->
<g id="Node000032" class="node">
<title>Node32</title>
<g id="a_Node000032"><a xlink:title=" ">
<polygon fill="#e0e0e0" stroke="#999999" points="1233.5,-129.75 1190.5,-129.75 1190.5,-110.5 1233.5,-110.5 1233.5,-129.75"/>
<text text-anchor="middle" x="1212" y="-116.25" font-family="Helvetica,sans-Serif" font-size="10.00">mutex</text>
</a>
</g>
</g>
<!-- Node30&#45;&gt;Node32 -->
<g id="edge63_Node000030_Node000032" class="edge">
<title>Node30&#45;&gt;Node32</title>
<g id="a_edge63_Node000030_Node000032"><a xlink:title=" ">
<path fill="none" stroke="#63b8ff" d="M1088.28,-165.34C1113.38,-156.37 1151.98,-142.58 1179.38,-132.78"/>
<polygon fill="#63b8ff" stroke="#63b8ff" points="1180.34,-136.16 1188.58,-129.5 1177.98,-129.56 1180.34,-136.16"/>
</a>
</g>
</g>
<!-- Node33 -->
<g id="Node000033" class="node">
<title>Node33</title>
<g id="a_Node000033"><a xlink:title=" ">
<polygon fill="#e0e0e0" stroke="#999999" points="1109.12,-129.75 1066.88,-129.75 1066.88,-110.5 1109.12,-110.5 1109.12,-129.75"/>
<text text-anchor="middle" x="1088" y="-116.25" font-family="Helvetica,sans-Serif" font-size="10.00">queue</text>
</a>
</g>
</g>
<!-- Node30&#45;&gt;Node33 -->
<g id="edge64_Node000030_Node000033" class="edge">
<title>Node30&#45;&gt;Node33</title>
<g id="a_edge64_Node000030_Node000033"><a xlink:title=" ">
<path fill="none" stroke="#63b8ff" d="M1067.13,-165.58C1070.33,-158.76 1074.89,-149.06 1078.93,-140.45"/>
<polygon fill="#63b8ff" stroke="#63b8ff" points="1082.06,-142.02 1083.14,-131.48 1075.72,-139.04 1082.06,-142.02"/>
</a>
</g>
</g>
<!-- Node34 -->
<g id="Node000034" class="node">
<title>Node34</title>
<g id="a_Node000034"><a xlink:title=" ">
<polygon fill="#e0e0e0" stroke="#999999" points="1172.62,-129.75 1127.38,-129.75 1127.38,-110.5 1172.62,-110.5 1172.62,-129.75"/>
<text text-anchor="middle" x="1150" y="-116.25" font-family="Helvetica,sans-Serif" font-size="10.00">atomic</text>
</a>
</g>
</g>
<!-- Node30&#45;&gt;Node34 -->
<g id="edge65_Node000030_Node000034" class="edge">
<title>Node30&#45;&gt;Node34</title>
<g id="a_edge65_Node000030_Node000034"><a xlink:title=" ">
<path fill="none" stroke="#63b8ff" d="M1077.76,-165.34C1090.88,-157.31 1110.32,-145.41 1125.73,-135.98"/>
<polygon fill="#63b8ff" stroke="#63b8ff" points="1127.18,-139.2 1133.88,-130.99 1123.52,-133.23 1127.18,-139.2"/>
</a>
</g>
</g>
<!-- Node36&#45;&gt;Node13 -->
<g id="edge77_Node000036_Node000013" class="edge">
<title>Node36&#45;&gt;Node13</title>
<g id="a_edge77_Node000036_Node000013"><a xlink:title=" ">
<path fill="none" stroke="#63b8ff" d="M1506.85,-227.35C1574.87,-223.49 1671.36,-213.08 1695,-185 1728.34,-145.4 1771.83,-169.59 1637,-55.25 1607.75,-30.44 1564.27,-19.31 1534.62,-14.39"/>
<polygon fill="#63b8ff" stroke="#63b8ff" points="1535.51,-10.99 1525.1,-12.97 1534.47,-17.91 1535.51,-10.99"/>
</a>
</g>
</g>
<!-- Node36&#45;&gt;Node20 -->
<g id="edge72_Node000036_Node000020" class="edge">
<title>Node36&#45;&gt;Node20</title>
<g id="a_edge72_Node000036_Node000020"><a xlink:title=" ">
<path fill="none" stroke="#63b8ff" d="M1442.58,-220.82C1447.74,-212.11 1455.05,-198.2 1458,-185 1465.65,-150.78 1458.01,-109.94 1451.91,-86.05"/>
<polygon fill="#63b8ff" stroke="#63b8ff" points="1455.28,-85.14 1449.26,-76.42 1448.53,-86.99 1455.28,-85.14"/>
</a>
</g>
</g>
<!-- Node36&#45;&gt;Node21 -->
<g id="edge75_Node000036_Node000021" class="edge">
<title>Node36&#45;&gt;Node21</title>
<g id="a_edge75_Node000036_Node000021"><a xlink:title=" ">
<path fill="none" stroke="#63b8ff" d="M1408.28,-220.6C1385.79,-212.88 1354.21,-200.55 1329,-185 1285.96,-158.45 1285.1,-138.51 1243,-110.5 1224.84,-98.42 1202.95,-87.49 1185.3,-79.48"/>
<polygon fill="#63b8ff" stroke="#63b8ff" points="1186.88,-76.35 1176.32,-75.49 1184.04,-82.74 1186.88,-76.35"/>
</a>
</g>
</g>
<!-- Node36&#45;&gt;Node23 -->
<g id="edge78_Node000036_Node000023" class="edge">
<title>Node36&#45;&gt;Node23</title>
<g id="a_edge78_Node000036_Node000023"><a xlink:title=" ">
<path fill="none" stroke="#63b8ff" d="M1430.56,-220.83C1425.34,-213.71 1417.81,-203.43 1411.31,-194.55"/>
<polygon fill="#63b8ff" stroke="#63b8ff" points="1414.21,-192.58 1405.47,-186.58 1408.56,-196.72 1414.21,-192.58"/>
</a>
</g>
</g>
<!-- Node36&#45;&gt;Node25 -->
<g id="edge71_Node000036_Node000025" class="edge">
<title>Node36&#45;&gt;Node25</title>
<g id="a_edge71_Node000036_Node000025"><a xlink:title=" ">
<path fill="none" stroke="#63b8ff" d="M1468.41,-220.5C1506.9,-207.44 1570.41,-179.33 1598,-129.75 1606.43,-114.6 1596.66,-96.4 1586.42,-83.32"/>
<polygon fill="#63b8ff" stroke="#63b8ff" points="1589.28,-81.27 1580.12,-75.96 1583.96,-85.83 1589.28,-81.27"/>
</a>
</g>
</g>
<!-- Node36&#45;&gt;Node31 -->
<g id="edge73_Node000036_Node000031" class="edge">
<title>Node36&#45;&gt;Node31</title>
<g id="a_edge73_Node000036_Node000031"><a xlink:title=" ">
<path fill="none" stroke="#63b8ff" d="M1390.95,-220.58C1371.12,-214.16 1349.82,-203.29 1338,-185 1329.39,-171.67 1333.86,-153.71 1339.64,-140.23"/>
<polygon fill="#63b8ff" stroke="#63b8ff" points="1342.65,-142.04 1343.88,-131.52 1336.35,-138.98 1342.65,-142.04"/>
</a>
</g>
</g>
<!-- Node37 -->
<g id="Node000037" class="node">
<title>Node37</title>
<g id="a_Node000037"><a xlink:title=" ">
<polygon fill="#e0e0e0" stroke="#999999" points="1628.38,-185 1593.62,-185 1593.62,-165.75 1628.38,-165.75 1628.38,-185"/>
<text text-anchor="middle" x="1611" y="-171.5" font-family="Helvetica,sans-Serif" font-size="10.00">map</text>
</a>
</g>
</g>
<!-- Node36&#45;&gt;Node37 -->
<g id="edge74_Node000036_Node000037" class="edge">
<title>Node36&#45;&gt;Node37</title>
<g id="a_edge74_Node000036_Node000037"><a xlink:title=" ">
<path fill="none" stroke="#63b8ff" d="M1466.52,-220.59C1498.99,-210.66 1550.79,-194.8 1582.75,-185.02"/>
<polygon fill="#63b8ff" stroke="#63b8ff" points="1583.56,-188.43 1592.1,-182.16 1581.52,-181.74 1583.56,-188.43"/>
</a>
</g>
</g>
<!-- Node38 -->
<g id="Node000038" class="node">
<title>Node38</title>
<g id="a_Node000038"><a xlink:title=" ">
<polygon fill="#e0e0e0" stroke="#999999" points="1686,-185 1646,-185 1646,-165.75 1686,-165.75 1686,-185"/>
<text text-anchor="middle" x="1666" y="-171.5" font-family="Helvetica,sans-Serif" font-size="10.00">bitset</text>
</a>
</g>
</g>
<!-- Node36&#45;&gt;Node38 -->
<g id="edge76_Node000036_Node000038" class="edge">
<title>Node36&#45;&gt;Node38</title>
<g id="a_edge76_Node000036_Node000038"><a xlink:title=" ">
<path fill="none" stroke="#63b8ff" d="M1481.7,-220.58C1519.99,-212.63 1576.83,-200.33 1634.91,-185.4"/>
<polygon fill="#63b8ff" stroke="#63b8ff" points="1635.5,-188.87 1644.3,-182.97 1633.75,-182.09 1635.5,-188.87"/>
</a>
</g>
</g>
</g>
</svg>
