<?xml version="1.0" encoding="UTF-8" standalone="no"?>
<!DOCTYPE svg PUBLIC "-//W3C//DTD SVG 1.1//EN"
 "http://www.w3.org/Graphics/SVG/1.1/DTD/svg11.dtd">
<!-- Generated by graphviz version 12.2.1 (20241206.2353)
 -->
<!-- Title: src/client/HandleCommands.cpp Pages: 1 -->
<svg width="1737pt" height="359pt"
 viewBox="0.00 0.00 1736.72 358.75" xmlns="http://www.w3.org/2000/svg" xmlns:xlink="http://www.w3.org/1999/xlink">
<g id="graph0" class="graph" transform="scale(1 1) rotate(0) translate(4 354.75)">
<title>src/client/HandleCommands.cpp</title>
<!-- Node1 -->
<g id="Node000001" class="node">
<title>Node1</title>
<g id="a_Node000001"><a xlink:title=" ">
<polygon fill="#999999" stroke="#666666" points="1263.62,-350.75 1105.12,-350.75 1105.12,-331.5 1263.62,-331.5 1263.62,-350.75"/>
<text text-anchor="middle" x="1184.38" y="-337.25" font-family="Helvetica,sans-Serif" font-size="10.00">src/client/HandleCommands.cpp</text>
</a>
</g>
</g>
<!-- Node2 -->
<g id="Node000002" class="node">
<title>Node2</title>
<g id="a_Node000002"><a xlink:href="_core_8hpp.html" target="_top" xlink:title=" ">
<polygon fill="white" stroke="#666666" points="736.25,-295.5 680.5,-295.5 680.5,-276.25 736.25,-276.25 736.25,-295.5"/>
<text text-anchor="middle" x="708.38" y="-282" font-family="Helvetica,sans-Serif" font-size="10.00">Core.hpp</text>
</a>
</g>
</g>
<!-- Node1&#45;&gt;Node2 -->
<g id="edge1_Node000001_Node000002" class="edge">
<title>Node1&#45;&gt;Node2</title>
<g id="a_edge1_Node000001_Node000002"><a xlink:title=" ">
<path fill="none" stroke="#63b8ff" d="M1104.7,-331.21C1001.62,-319.68 826,-300.03 747.88,-291.29"/>
<polygon fill="#63b8ff" stroke="#63b8ff" points="748.47,-287.84 738.14,-290.2 747.69,-294.8 748.47,-287.84"/>
</a>
</g>
</g>
<!-- Node22 -->
<g id="Node000022" class="node">
<title>Node22</title>
<g id="a_Node000022"><a xlink:href="_systems_8hpp.html" target="_top" xlink:title=" ">
<polygon fill="white" stroke="#666666" points="1225.75,-240.25 1143,-240.25 1143,-221 1225.75,-221 1225.75,-240.25"/>
<text text-anchor="middle" x="1184.38" y="-226.75" font-family="Helvetica,sans-Serif" font-size="10.00">../Systems.hpp</text>
</a>
</g>
</g>
<!-- Node1&#45;&gt;Node22 -->
<g id="edge79_Node000001_Node000022" class="edge">
<title>Node1&#45;&gt;Node22</title>
<g id="a_edge79_Node000001_Node000022"><a xlink:title=" ">
<path fill="none" stroke="#63b8ff" d="M1184.38,-331.25C1184.38,-314 1184.38,-275.58 1184.38,-251.81"/>
<polygon fill="#63b8ff" stroke="#63b8ff" points="1187.88,-252.14 1184.38,-242.14 1180.88,-252.14 1187.88,-252.14"/>
</a>
</g>
</g>
<!-- Node36 -->
<g id="Node000036" class="node">
<title>Node36</title>
<g id="a_Node000036"><a xlink:href="_server_network_8hpp.html" target="_top" xlink:title=" ">
<polygon fill="white" stroke="#666666" points="1548.88,-240.25 1409.88,-240.25 1409.88,-221 1548.88,-221 1548.88,-240.25"/>
<text text-anchor="middle" x="1479.38" y="-226.75" font-family="Helvetica,sans-Serif" font-size="10.00">../server/ServerNetwork.hpp</text>
</a>
</g>
</g>
<!-- Node1&#45;&gt;Node36 -->
<g id="edge80_Node000001_Node000036" class="edge">
<title>Node1&#45;&gt;Node36</title>
<g id="a_edge80_Node000001_Node000036"><a xlink:title=" ">
<path fill="none" stroke="#63b8ff" d="M1209.02,-331.06C1261.29,-311.83 1383.46,-266.9 1444.03,-244.62"/>
<polygon fill="#63b8ff" stroke="#63b8ff" points="1445,-248 1453.17,-241.26 1442.58,-241.43 1445,-248"/>
</a>
</g>
</g>
<!-- Node3 -->
<g id="Node000003" class="node">
<title>Node3</title>
<g id="a_Node000003"><a xlink:href="_entity_8hpp.html" target="_top" xlink:title=" ">
<polygon fill="white" stroke="#666666" points="320.25,-74.5 252.5,-74.5 252.5,-55.25 320.25,-55.25 320.25,-74.5"/>
<text text-anchor="middle" x="286.38" y="-61" font-family="Helvetica,sans-Serif" font-size="10.00">../Entity.hpp</text>
</a>
</g>
</g>
<!-- Node2&#45;&gt;Node3 -->
<g id="edge2_Node000002_Node000003" class="edge">
<title>Node2&#45;&gt;Node3</title>
<g id="a_edge2_Node000002_Node000003"><a xlink:title=" ">
<path fill="none" stroke="#63b8ff" d="M680.28,-284.89C632.95,-283.82 535.43,-276.91 463.38,-240.25 388.14,-201.97 324.5,-120.33 298.69,-83.98"/>
<polygon fill="#63b8ff" stroke="#63b8ff" points="301.63,-82.07 293.05,-75.87 295.89,-86.07 301.63,-82.07"/>
</a>
</g>
</g>
<!-- Node5 -->
<g id="Node000005" class="node">
<title>Node5</title>
<g id="a_Node000005"><a xlink:title=" ">
<polygon fill="#e0e0e0" stroke="#999999" points="248.5,-19.25 200.25,-19.25 200.25,0 248.5,0 248.5,-19.25"/>
<text text-anchor="middle" x="224.38" y="-5.75" font-family="Helvetica,sans-Serif" font-size="10.00">cstddef</text>
</a>
</g>
</g>
<!-- Node2&#45;&gt;Node5 -->
<g id="edge43_Node000002_Node000005" class="edge">
<title>Node2&#45;&gt;Node5</title>
<g id="a_edge43_Node000002_Node000005"><a xlink:title=" ">
<path fill="none" stroke="#63b8ff" d="M680.31,-285.08C571.89,-285.14 186.38,-278.19 186.38,-176.38 186.38,-176.38 186.38,-176.38 186.38,-119.12 186.38,-86.13 202.22,-50.51 213.44,-29.41"/>
<polygon fill="#63b8ff" stroke="#63b8ff" points="216.4,-31.3 218.2,-20.86 210.28,-27.9 216.4,-31.3"/>
</a>
</g>
</g>
<!-- Node6 -->
<g id="Node000006" class="node">
<title>Node6</title>
<g id="a_Node000006"><a xlink:href="_registry_8hpp.html" target="_top" xlink:title=" ">
<polygon fill="white" stroke="#666666" points="1155.88,-129.75 1076.88,-129.75 1076.88,-110.5 1155.88,-110.5 1155.88,-129.75"/>
<text text-anchor="middle" x="1116.38" y="-116.25" font-family="Helvetica,sans-Serif" font-size="10.00">../Registry.hpp</text>
</a>
</g>
</g>
<!-- Node2&#45;&gt;Node6 -->
<g id="edge5_Node000002_Node000006" class="edge">
<title>Node2&#45;&gt;Node6</title>
<g id="a_edge5_Node000002_Node000006"><a xlink:title=" ">
<path fill="none" stroke="#63b8ff" d="M730.89,-275.84C798.94,-248.53 1002.71,-166.75 1083.17,-134.45"/>
<polygon fill="#63b8ff" stroke="#63b8ff" points="1084.3,-137.77 1092.27,-130.8 1081.69,-131.28 1084.3,-137.77"/>
</a>
</g>
</g>
<!-- Node12 -->
<g id="Node000012" class="node">
<title>Node12</title>
<g id="a_Node000012"><a xlink:href="_sparse_array_8hpp.html" target="_top" xlink:title=" ">
<polygon fill="white" stroke="#666666" points="1319,-74.5 1231.75,-74.5 1231.75,-55.25 1319,-55.25 1319,-74.5"/>
<text text-anchor="middle" x="1275.38" y="-61" font-family="Helvetica,sans-Serif" font-size="10.00">SparseArray.hpp</text>
</a>
</g>
</g>
<!-- Node2&#45;&gt;Node12 -->
<g id="edge18_Node000002_Node000012" class="edge">
<title>Node2&#45;&gt;Node12</title>
<g id="a_edge18_Node000002_Node000012"><a xlink:title=" ">
<path fill="none" stroke="#63b8ff" d="M736.49,-277.63C809.31,-258.39 1009.29,-202.43 1165.38,-129.75 1196.48,-115.26 1230.36,-94.83 1252.17,-81.01"/>
<polygon fill="#63b8ff" stroke="#63b8ff" points="1253.77,-84.14 1260.3,-75.8 1249.99,-78.25 1253.77,-84.14"/>
</a>
</g>
</g>
<!-- Node17 -->
<g id="Node000017" class="node">
<title>Node17</title>
<g id="a_Node000017"><a xlink:href="_components_8hpp.html" target="_top" xlink:title=" ">
<polygon fill="white" stroke="#666666" points="1350,-129.75 1250.75,-129.75 1250.75,-110.5 1350,-110.5 1350,-129.75"/>
<text text-anchor="middle" x="1300.38" y="-116.25" font-family="Helvetica,sans-Serif" font-size="10.00">../Components.hpp</text>
</a>
</g>
</g>
<!-- Node2&#45;&gt;Node17 -->
<g id="edge19_Node000002_Node000017" class="edge">
<title>Node2&#45;&gt;Node17</title>
<g id="a_edge19_Node000002_Node000017"><a xlink:title=" ">
<path fill="none" stroke="#63b8ff" d="M736.58,-284.02C839.69,-280.7 1192.4,-267.43 1234.38,-240.25 1269.83,-217.29 1287.94,-168.37 1295.65,-140.89"/>
<polygon fill="#63b8ff" stroke="#63b8ff" points="1298.98,-141.98 1298.1,-131.42 1292.21,-140.22 1298.98,-141.98"/>
</a>
</g>
</g>
<!-- Node18 -->
<g id="Node000018" class="node">
<title>Node18</title>
<g id="a_Node000018"><a xlink:title=" ">
<polygon fill="#e0e0e0" stroke="#999999" points="479.88,-74.5 376.88,-74.5 376.88,-55.25 479.88,-55.25 479.88,-74.5"/>
<text text-anchor="middle" x="428.38" y="-61" font-family="Helvetica,sans-Serif" font-size="10.00">SFML/Graphics.hpp</text>
</a>
</g>
</g>
<!-- Node2&#45;&gt;Node18 -->
<g id="edge44_Node000002_Node000018" class="edge">
<title>Node2&#45;&gt;Node18</title>
<g id="a_edge44_Node000002_Node000018"><a xlink:title=" ">
<path fill="none" stroke="#63b8ff" d="M680.16,-283.92C622.31,-280.33 490.1,-263.49 423.38,-185 401.17,-158.88 394.72,-143.67 403.38,-110.5 405.78,-101.28 410.56,-91.96 415.3,-84.23"/>
<polygon fill="#63b8ff" stroke="#63b8ff" points="418.07,-86.38 420.68,-76.11 412.24,-82.51 418.07,-86.38"/>
</a>
</g>
</g>
<!-- Node19 -->
<g id="Node000019" class="node">
<title>Node19</title>
<g id="a_Node000019"><a xlink:title=" ">
<polygon fill="#e0e0e0" stroke="#999999" points="802.25,-74.5 704.5,-74.5 704.5,-55.25 802.25,-55.25 802.25,-74.5"/>
<text text-anchor="middle" x="753.38" y="-61" font-family="Helvetica,sans-Serif" font-size="10.00">SFML/Window.hpp</text>
</a>
</g>
</g>
<!-- Node2&#45;&gt;Node19 -->
<g id="edge45_Node000002_Node000019" class="edge">
<title>Node2&#45;&gt;Node19</title>
<g id="a_edge45_Node000002_Node000019"><a xlink:title=" ">
<path fill="none" stroke="#63b8ff" d="M701.27,-275.8C680.96,-248.67 626.26,-166.57 661.38,-110.5 670.65,-95.69 686.4,-85.67 702.26,-78.95"/>
<polygon fill="#63b8ff" stroke="#63b8ff" points="703.13,-82.36 711.23,-75.53 700.64,-75.82 703.13,-82.36"/>
</a>
</g>
</g>
<!-- Node2&#45;&gt;Node22 -->
<g id="edge25_Node000002_Node000022" class="edge">
<title>Node2&#45;&gt;Node22</title>
<g id="a_edge25_Node000002_Node000022"><a xlink:title=" ">
<path fill="none" stroke="#63b8ff" d="M736.52,-282.14C803.47,-275.58 977.45,-258.14 1122.38,-240.25 1125.36,-239.88 1128.42,-239.49 1131.5,-239.09"/>
<polygon fill="#63b8ff" stroke="#63b8ff" points="1131.76,-242.59 1141.21,-237.8 1130.84,-235.65 1131.76,-242.59"/>
</a>
</g>
</g>
<!-- Node26 -->
<g id="Node000026" class="node">
<title>Node26</title>
<g id="a_Node000026"><a xlink:title=" ">
<polygon fill="#e0e0e0" stroke="#999999" points="88.75,-240.25 0,-240.25 0,-221 88.75,-221 88.75,-240.25"/>
<text text-anchor="middle" x="44.38" y="-226.75" font-family="Helvetica,sans-Serif" font-size="10.00">SFML/Audio.hpp</text>
</a>
</g>
</g>
<!-- Node2&#45;&gt;Node26 -->
<g id="edge46_Node000002_Node000026" class="edge">
<title>Node2&#45;&gt;Node26</title>
<g id="a_edge46_Node000002_Node000026"><a xlink:title=" ">
<path fill="none" stroke="#63b8ff" d="M680.28,-283.71C594.77,-279.97 330.03,-267.02 100.41,-240.51"/>
<polygon fill="#63b8ff" stroke="#63b8ff" points="101,-237.06 90.66,-239.37 100.19,-244.01 101,-237.06"/>
</a>
</g>
</g>
<!-- Node27 -->
<g id="Node000027" class="node">
<title>Node27</title>
<g id="a_Node000027"><a xlink:href="_sprite_8hpp.html" target="_top" xlink:title=" ">
<polygon fill="white" stroke="#666666" points="492.5,-185 432.25,-185 432.25,-165.75 492.5,-165.75 492.5,-185"/>
<text text-anchor="middle" x="462.38" y="-171.5" font-family="Helvetica,sans-Serif" font-size="10.00">Sprite.hpp</text>
</a>
</g>
</g>
<!-- Node2&#45;&gt;Node27 -->
<g id="edge47_Node000002_Node000027" class="edge">
<title>Node2&#45;&gt;Node27</title>
<g id="a_edge47_Node000002_Node000027"><a xlink:title=" ">
<path fill="none" stroke="#63b8ff" d="M680.23,-278.92C649.8,-271.9 600.28,-258.81 560.38,-240.25 531.83,-226.98 501.93,-206.37 482.78,-192.16"/>
<polygon fill="#63b8ff" stroke="#63b8ff" points="485.1,-189.53 475.01,-186.31 480.89,-195.12 485.1,-189.53"/>
</a>
</g>
</g>
<!-- Node30 -->
<g id="Node000030" class="node">
<title>Node30</title>
<g id="a_Node000030"><a xlink:href="_u_d_p_network_client_8hpp.html" target="_top" xlink:title=" ">
<polygon fill="white" stroke="#666666" points="901.75,-185 783,-185 783,-165.75 901.75,-165.75 901.75,-185"/>
<text text-anchor="middle" x="842.38" y="-171.5" font-family="Helvetica,sans-Serif" font-size="10.00">UDPNetworkClient.hpp</text>
</a>
</g>
</g>
<!-- Node2&#45;&gt;Node30 -->
<g id="edge59_Node000002_Node000030" class="edge">
<title>Node2&#45;&gt;Node30</title>
<g id="a_edge59_Node000002_Node000030"><a xlink:title=" ">
<path fill="none" stroke="#63b8ff" d="M719.34,-276C741.92,-257.72 793.86,-215.65 822.51,-192.46"/>
<polygon fill="#63b8ff" stroke="#63b8ff" points="824.51,-195.34 830.08,-186.33 820.11,-189.9 824.51,-195.34"/>
</a>
</g>
</g>
<!-- Node35 -->
<g id="Node000035" class="node">
<title>Node35</title>
<g id="a_Node000035"><a xlink:title=" ">
<polygon fill="#e0e0e0" stroke="#999999" points="158,-240.25 106.75,-240.25 106.75,-221 158,-221 158,-240.25"/>
<text text-anchor="middle" x="132.38" y="-226.75" font-family="Helvetica,sans-Serif" font-size="10.00">sstream</text>
</a>
</g>
</g>
<!-- Node2&#45;&gt;Node35 -->
<g id="edge69_Node000002_Node000035" class="edge">
<title>Node2&#45;&gt;Node35</title>
<g id="a_edge69_Node000002_Node000035"><a xlink:title=" ">
<path fill="none" stroke="#63b8ff" d="M680.04,-283.81C599.95,-280.51 365.18,-268.94 172.38,-240.25 171.36,-240.1 170.33,-239.94 169.3,-239.77"/>
<polygon fill="#63b8ff" stroke="#63b8ff" points="170.07,-236.35 159.59,-237.96 168.79,-243.23 170.07,-236.35"/>
</a>
</g>
</g>
<!-- Node2&#45;&gt;Node36 -->
<g id="edge70_Node000002_Node000036" class="edge">
<title>Node2&#45;&gt;Node36</title>
<g id="a_edge70_Node000002_Node000036"><a xlink:title=" ">
<path fill="none" stroke="#63b8ff" d="M736.73,-282.92C844.15,-275.5 1228.59,-248.95 1398.1,-237.24"/>
<polygon fill="#63b8ff" stroke="#63b8ff" points="1398.2,-240.74 1407.93,-236.56 1397.71,-233.76 1398.2,-240.74"/>
</a>
</g>
</g>
<!-- Node4 -->
<g id="Node000004" class="node">
<title>Node4</title>
<g id="a_Node000004"><a xlink:title=" ">
<polygon fill="#e0e0e0" stroke="#999999" points="703.12,-19.25 649.62,-19.25 649.62,0 703.12,0 703.12,-19.25"/>
<text text-anchor="middle" x="676.38" y="-5.75" font-family="Helvetica,sans-Serif" font-size="10.00">iostream</text>
</a>
</g>
</g>
<!-- Node3&#45;&gt;Node4 -->
<g id="edge3_Node000003_Node000004" class="edge">
<title>Node3&#45;&gt;Node4</title>
<g id="a_edge3_Node000003_Node000004"><a xlink:title=" ">
<path fill="none" stroke="#63b8ff" d="M320.69,-57.5C325.28,-56.71 329.94,-55.94 334.38,-55.25 444.16,-38.23 574.46,-22.44 637.87,-15.04"/>
<polygon fill="#63b8ff" stroke="#63b8ff" points="638.24,-18.52 647.76,-13.89 637.43,-11.57 638.24,-18.52"/>
</a>
</g>
</g>
<!-- Node3&#45;&gt;Node5 -->
<g id="edge4_Node000003_Node000005" class="edge">
<title>Node3&#45;&gt;Node5</title>
<g id="a_edge4_Node000003_Node000005"><a xlink:title=" ">
<path fill="none" stroke="#63b8ff" d="M275.86,-54.84C266.99,-47.22 254.06,-36.12 243.39,-26.95"/>
<polygon fill="#63b8ff" stroke="#63b8ff" points="245.75,-24.37 235.89,-20.51 241.19,-29.68 245.75,-24.37"/>
</a>
</g>
</g>
<!-- Node6&#45;&gt;Node3 -->
<g id="edge17_Node000006_Node000003" class="edge">
<title>Node6&#45;&gt;Node3</title>
<g id="a_edge17_Node000006_Node000003"><a xlink:title=" ">
<path fill="none" stroke="#63b8ff" d="M1076.59,-111.7C1073.48,-111.25 1070.38,-110.84 1067.38,-110.5 757.83,-75.43 677.93,-99 367.38,-74.5 355.85,-73.59 343.43,-72.38 331.85,-71.16"/>
<polygon fill="#63b8ff" stroke="#63b8ff" points="332.45,-67.7 322.13,-70.1 331.69,-74.66 332.45,-67.7"/>
</a>
</g>
</g>
<!-- Node7 -->
<g id="Node000007" class="node">
<title>Node7</title>
<g id="a_Node000007"><a xlink:title=" ">
<polygon fill="#e0e0e0" stroke="#999999" points="580.75,-74.5 498,-74.5 498,-55.25 580.75,-55.25 580.75,-74.5"/>
<text text-anchor="middle" x="539.38" y="-61" font-family="Helvetica,sans-Serif" font-size="10.00">unordered_map</text>
</a>
</g>
</g>
<!-- Node6&#45;&gt;Node7 -->
<g id="edge6_Node000006_Node000007" class="edge">
<title>Node6&#45;&gt;Node7</title>
<g id="a_edge6_Node000006_Node000007"><a xlink:title=" ">
<path fill="none" stroke="#63b8ff" d="M1076.58,-111.78C1073.47,-111.31 1070.37,-110.88 1067.38,-110.5 859.6,-84.45 802.74,-100.08 592.2,-74.73"/>
<polygon fill="#63b8ff" stroke="#63b8ff" points="592.93,-71.3 582.57,-73.56 592.08,-78.25 592.93,-71.3"/>
</a>
</g>
</g>
<!-- Node8 -->
<g id="Node000008" class="node">
<title>Node8</title>
<g id="a_Node000008"><a xlink:title=" ">
<polygon fill="#e0e0e0" stroke="#999999" points="1137.25,-74.5 1105.5,-74.5 1105.5,-55.25 1137.25,-55.25 1137.25,-74.5"/>
<text text-anchor="middle" x="1121.38" y="-61" font-family="Helvetica,sans-Serif" font-size="10.00">any</text>
</a>
</g>
</g>
<!-- Node6&#45;&gt;Node8 -->
<g id="edge7_Node000006_Node000008" class="edge">
<title>Node6&#45;&gt;Node8</title>
<g id="a_edge7_Node000006_Node000008"><a xlink:title=" ">
<path fill="none" stroke="#63b8ff" d="M1117.2,-110.33C1117.82,-103.74 1118.69,-94.46 1119.48,-86.07"/>
<polygon fill="#63b8ff" stroke="#63b8ff" points="1122.94,-86.65 1120.39,-76.37 1115.97,-86 1122.94,-86.65"/>
</a>
</g>
</g>
<!-- Node9 -->
<g id="Node000009" class="node">
<title>Node9</title>
<g id="a_Node000009"><a xlink:title=" ">
<polygon fill="#e0e0e0" stroke="#999999" points="1011.38,-74.5 953.38,-74.5 953.38,-55.25 1011.38,-55.25 1011.38,-74.5"/>
<text text-anchor="middle" x="982.38" y="-61" font-family="Helvetica,sans-Serif" font-size="10.00">functional</text>
</a>
</g>
</g>
<!-- Node6&#45;&gt;Node9 -->
<g id="edge8_Node000006_Node000009" class="edge">
<title>Node6&#45;&gt;Node9</title>
<g id="a_edge8_Node000006_Node000009"><a xlink:title=" ">
<path fill="none" stroke="#63b8ff" d="M1093.64,-110.09C1072.28,-101.6 1040.03,-88.79 1015.75,-79.14"/>
<polygon fill="#63b8ff" stroke="#63b8ff" points="1017.21,-75.95 1006.62,-75.51 1014.62,-82.46 1017.21,-75.95"/>
</a>
</g>
</g>
<!-- Node10 -->
<g id="Node000010" class="node">
<title>Node10</title>
<g id="a_Node000010"><a xlink:title=" ">
<polygon fill="#e0e0e0" stroke="#999999" points="1087.38,-74.5 1029.38,-74.5 1029.38,-55.25 1087.38,-55.25 1087.38,-74.5"/>
<text text-anchor="middle" x="1058.38" y="-61" font-family="Helvetica,sans-Serif" font-size="10.00">typeindex</text>
</a>
</g>
</g>
<!-- Node6&#45;&gt;Node10 -->
<g id="edge9_Node000006_Node000010" class="edge">
<title>Node6&#45;&gt;Node10</title>
<g id="a_edge9_Node000006_Node000010"><a xlink:title=" ">
<path fill="none" stroke="#63b8ff" d="M1106.54,-110.09C1098.32,-102.55 1086.39,-91.6 1076.46,-82.48"/>
<polygon fill="#63b8ff" stroke="#63b8ff" points="1078.92,-79.98 1069.18,-75.8 1074.18,-85.14 1078.92,-79.98"/>
</a>
</g>
</g>
<!-- Node11 -->
<g id="Node000011" class="node">
<title>Node11</title>
<g id="a_Node000011"><a xlink:title=" ">
<polygon fill="#e0e0e0" stroke="#999999" points="1212.75,-19.25 1154,-19.25 1154,0 1212.75,0 1212.75,-19.25"/>
<text text-anchor="middle" x="1183.38" y="-5.75" font-family="Helvetica,sans-Serif" font-size="10.00">stdexcept</text>
</a>
</g>
</g>
<!-- Node6&#45;&gt;Node11 -->
<g id="edge10_Node000006_Node000011" class="edge">
<title>Node6&#45;&gt;Node11</title>
<g id="a_edge10_Node000006_Node000011"><a xlink:title=" ">
<path fill="none" stroke="#63b8ff" d="M1122.76,-110.01C1128.96,-101.08 1138.56,-87.01 1146.38,-74.5 1155.72,-59.54 1165.72,-42.19 1172.96,-29.36"/>
<polygon fill="#63b8ff" stroke="#63b8ff" points="1175.96,-31.17 1177.79,-20.73 1169.85,-27.75 1175.96,-31.17"/>
</a>
</g>
</g>
<!-- Node6&#45;&gt;Node12 -->
<g id="edge11_Node000006_Node000012" class="edge">
<title>Node6&#45;&gt;Node12</title>
<g id="a_edge11_Node000006_Node000012"><a xlink:title=" ">
<path fill="none" stroke="#63b8ff" d="M1143.35,-110.09C1169.27,-101.41 1208.69,-88.21 1237.71,-78.49"/>
<polygon fill="#63b8ff" stroke="#63b8ff" points="1238.46,-81.93 1246.84,-75.43 1236.24,-75.29 1238.46,-81.93"/>
</a>
</g>
</g>
<!-- Node12&#45;&gt;Node11 -->
<g id="edge14_Node000012_Node000011" class="edge">
<title>Node12&#45;&gt;Node11</title>
<g id="a_edge14_Node000012_Node000011"><a xlink:title=" ">
<path fill="none" stroke="#63b8ff" d="M1259.77,-54.84C1245.76,-46.73 1224.94,-34.68 1208.57,-25.21"/>
<polygon fill="#63b8ff" stroke="#63b8ff" points="1210.78,-22.44 1200.37,-20.46 1207.27,-28.5 1210.78,-22.44"/>
</a>
</g>
</g>
<!-- Node13 -->
<g id="Node000013" class="node">
<title>Node13</title>
<g id="a_Node000013"><a xlink:title=" ">
<polygon fill="#e0e0e0" stroke="#999999" points="1437.88,-19.25 1394.88,-19.25 1394.88,0 1437.88,0 1437.88,-19.25"/>
<text text-anchor="middle" x="1416.38" y="-5.75" font-family="Helvetica,sans-Serif" font-size="10.00">vector</text>
</a>
</g>
</g>
<!-- Node12&#45;&gt;Node13 -->
<g id="edge12_Node000012_Node000013" class="edge">
<title>Node12&#45;&gt;Node13</title>
<g id="a_edge12_Node000012_Node000013"><a xlink:title=" ">
<path fill="none" stroke="#63b8ff" d="M1299.29,-54.84C1322.56,-46.05 1358.09,-32.64 1383.91,-22.89"/>
<polygon fill="#63b8ff" stroke="#63b8ff" points="1385.12,-26.17 1393.24,-19.36 1382.65,-19.62 1385.12,-26.17"/>
</a>
</g>
</g>
<!-- Node14 -->
<g id="Node000014" class="node">
<title>Node14</title>
<g id="a_Node000014"><a xlink:title=" ">
<polygon fill="#e0e0e0" stroke="#999999" points="934.25,-19.25 884.5,-19.25 884.5,0 934.25,0 934.25,-19.25"/>
<text text-anchor="middle" x="909.38" y="-5.75" font-family="Helvetica,sans-Serif" font-size="10.00">optional</text>
</a>
</g>
</g>
<!-- Node12&#45;&gt;Node14 -->
<g id="edge13_Node000012_Node000014" class="edge">
<title>Node12&#45;&gt;Node14</title>
<g id="a_edge13_Node000012_Node000014"><a xlink:title=" ">
<path fill="none" stroke="#63b8ff" d="M1231.36,-57.31C1226.64,-56.61 1221.91,-55.92 1217.38,-55.25 1119.1,-40.82 1003.14,-24.1 945.57,-15.82"/>
<polygon fill="#63b8ff" stroke="#63b8ff" points="946.43,-12.41 936.03,-14.45 945.43,-19.34 946.43,-12.41"/>
</a>
</g>
</g>
<!-- Node15 -->
<g id="Node000015" class="node">
<title>Node15</title>
<g id="a_Node000015"><a xlink:title=" ">
<polygon fill="#e0e0e0" stroke="#999999" points="1303.25,-19.25 1247.5,-19.25 1247.5,0 1303.25,0 1303.25,-19.25"/>
<text text-anchor="middle" x="1275.38" y="-5.75" font-family="Helvetica,sans-Serif" font-size="10.00">algorithm</text>
</a>
</g>
</g>
<!-- Node12&#45;&gt;Node15 -->
<g id="edge15_Node000012_Node000015" class="edge">
<title>Node12&#45;&gt;Node15</title>
<g id="a_edge15_Node000012_Node000015"><a xlink:title=" ">
<path fill="none" stroke="#63b8ff" d="M1275.38,-55.08C1275.38,-48.57 1275.38,-39.42 1275.38,-31.12"/>
<polygon fill="#63b8ff" stroke="#63b8ff" points="1278.88,-31.12 1275.38,-21.12 1271.88,-31.12 1278.88,-31.12"/>
</a>
</g>
</g>
<!-- Node16 -->
<g id="Node000016" class="node">
<title>Node16</title>
<g id="a_Node000016"><a xlink:title=" ">
<polygon fill="#e0e0e0" stroke="#999999" points="1041,-19.25 989.75,-19.25 989.75,0 1041,0 1041,-19.25"/>
<text text-anchor="middle" x="1015.38" y="-5.75" font-family="Helvetica,sans-Serif" font-size="10.00">memory</text>
</a>
</g>
</g>
<!-- Node12&#45;&gt;Node16 -->
<g id="edge16_Node000012_Node000016" class="edge">
<title>Node12&#45;&gt;Node16</title>
<g id="a_edge16_Node000012_Node000016"><a xlink:title=" ">
<path fill="none" stroke="#63b8ff" d="M1231.27,-54.84C1181.05,-44.56 1099.88,-27.93 1052.68,-18.26"/>
<polygon fill="#63b8ff" stroke="#63b8ff" points="1053.43,-14.85 1042.93,-16.27 1052.03,-21.7 1053.43,-14.85"/>
</a>
</g>
</g>
<!-- Node17&#45;&gt;Node13 -->
<g id="edge23_Node000017_Node000013" class="edge">
<title>Node17&#45;&gt;Node13</title>
<g id="a_edge23_Node000017_Node000013"><a xlink:title=" ">
<path fill="none" stroke="#63b8ff" d="M1309.87,-110.25C1329.24,-92.13 1373.6,-50.63 1398.53,-27.32"/>
<polygon fill="#63b8ff" stroke="#63b8ff" points="1400.73,-30.05 1405.65,-20.66 1395.95,-24.94 1400.73,-30.05"/>
</a>
</g>
</g>
<!-- Node17&#45;&gt;Node18 -->
<g id="edge20_Node000017_Node000018" class="edge">
<title>Node17&#45;&gt;Node18</title>
<g id="a_edge20_Node000017_Node000018"><a xlink:title=" ">
<path fill="none" stroke="#63b8ff" d="M1250.38,-115.8C1224.93,-114.15 1193.51,-112.15 1165.38,-110.5 868.69,-93.12 790.73,-103.33 491.45,-74.61"/>
<polygon fill="#63b8ff" stroke="#63b8ff" points="492.05,-71.15 481.76,-73.67 491.38,-78.12 492.05,-71.15"/>
</a>
</g>
</g>
<!-- Node17&#45;&gt;Node19 -->
<g id="edge21_Node000017_Node000019" class="edge">
<title>Node17&#45;&gt;Node19</title>
<g id="a_edge21_Node000017_Node000019"><a xlink:title=" ">
<path fill="none" stroke="#63b8ff" d="M1250.38,-114.26C1149.74,-104.46 923.04,-82.39 814.09,-71.79"/>
<polygon fill="#63b8ff" stroke="#63b8ff" points="814.46,-68.3 804.17,-70.82 813.78,-75.27 814.46,-68.3"/>
</a>
</g>
</g>
<!-- Node20 -->
<g id="Node000020" class="node">
<title>Node20</title>
<g id="a_Node000020"><a xlink:title=" ">
<polygon fill="#e0e0e0" stroke="#999999" points="1702.38,-74.5 1662.38,-74.5 1662.38,-55.25 1702.38,-55.25 1702.38,-74.5"/>
<text text-anchor="middle" x="1682.38" y="-61" font-family="Helvetica,sans-Serif" font-size="10.00">string</text>
</a>
</g>
</g>
<!-- Node17&#45;&gt;Node20 -->
<g id="edge22_Node000017_Node000020" class="edge">
<title>Node17&#45;&gt;Node20</title>
<g id="a_edge22_Node000017_Node000020"><a xlink:title=" ">
<path fill="none" stroke="#63b8ff" d="M1350.31,-112.16C1430.09,-101.04 1584.03,-79.58 1650.52,-70.32"/>
<polygon fill="#63b8ff" stroke="#63b8ff" points="1650.96,-73.79 1660.38,-68.94 1649.99,-66.86 1650.96,-73.79"/>
</a>
</g>
</g>
<!-- Node21 -->
<g id="Node000021" class="node">
<title>Node21</title>
<g id="a_Node000021"><a xlink:title=" ">
<polygon fill="#e0e0e0" stroke="#999999" points="1492,-74.5 1446.75,-74.5 1446.75,-55.25 1492,-55.25 1492,-74.5"/>
<text text-anchor="middle" x="1469.38" y="-61" font-family="Helvetica,sans-Serif" font-size="10.00">chrono</text>
</a>
</g>
</g>
<!-- Node17&#45;&gt;Node21 -->
<g id="edge24_Node000017_Node000021" class="edge">
<title>Node17&#45;&gt;Node21</title>
<g id="a_edge24_Node000017_Node000021"><a xlink:title=" ">
<path fill="none" stroke="#63b8ff" d="M1329.04,-110.09C1358.48,-100.82 1404.29,-86.38 1435.5,-76.55"/>
<polygon fill="#63b8ff" stroke="#63b8ff" points="1436.35,-79.95 1444.84,-73.61 1434.25,-73.27 1436.35,-79.95"/>
</a>
</g>
</g>
<!-- Node22&#45;&gt;Node4 -->
<g id="edge31_Node000022_Node000004" class="edge">
<title>Node22&#45;&gt;Node4</title>
<g id="a_edge31_Node000022_Node000004"><a xlink:title=" ">
<path fill="none" stroke="#63b8ff" d="M1166.84,-220.52C1114.05,-193.29 951.54,-110.95 811.38,-55.25 779.12,-42.43 741.56,-30.23 714.26,-21.84"/>
<polygon fill="#63b8ff" stroke="#63b8ff" points="715.64,-18.6 705.05,-19.03 713.6,-25.29 715.64,-18.6"/>
</a>
</g>
</g>
<!-- Node22&#45;&gt;Node6 -->
<g id="edge27_Node000022_Node000006" class="edge">
<title>Node22&#45;&gt;Node6</title>
<g id="a_edge27_Node000022_Node000006"><a xlink:title=" ">
<path fill="none" stroke="#63b8ff" d="M1178.81,-220.75C1167.75,-203.1 1142.81,-163.3 1128.01,-139.7"/>
<polygon fill="#63b8ff" stroke="#63b8ff" points="1131.1,-138.02 1122.82,-131.41 1125.17,-141.74 1131.1,-138.02"/>
</a>
</g>
</g>
<!-- Node22&#45;&gt;Node12 -->
<g id="edge28_Node000022_Node000012" class="edge">
<title>Node22&#45;&gt;Node12</title>
<g id="a_edge28_Node000022_Node000012"><a xlink:title=" ">
<path fill="none" stroke="#63b8ff" d="M1187.93,-220.63C1196.12,-200.32 1217.46,-149.62 1241.38,-110.5 1247.08,-101.17 1254.33,-91.43 1260.66,-83.44"/>
<polygon fill="#63b8ff" stroke="#63b8ff" points="1263.21,-85.85 1266.81,-75.89 1257.79,-81.43 1263.21,-85.85"/>
</a>
</g>
</g>
<!-- Node22&#45;&gt;Node17 -->
<g id="edge26_Node000022_Node000017" class="edge">
<title>Node22&#45;&gt;Node17</title>
<g id="a_edge26_Node000022_Node000017"><a xlink:title=" ">
<path fill="none" stroke="#63b8ff" d="M1195.34,-220.63C1206.01,-211.77 1222.58,-197.77 1236.38,-185 1253.04,-169.58 1271.3,-151.19 1284.03,-138.12"/>
<polygon fill="#63b8ff" stroke="#63b8ff" points="1286.39,-140.72 1290.83,-131.1 1281.36,-135.85 1286.39,-140.72"/>
</a>
</g>
</g>
<!-- Node22&#45;&gt;Node18 -->
<g id="edge29_Node000022_Node000018" class="edge">
<title>Node22&#45;&gt;Node18</title>
<g id="a_edge29_Node000022_Node000018"><a xlink:title=" ">
<path fill="none" stroke="#63b8ff" d="M1142.86,-228.06C1009.39,-222.38 593.41,-199.37 481.38,-129.75 463.25,-118.49 448.36,-98.89 439.03,-84.36"/>
<polygon fill="#63b8ff" stroke="#63b8ff" points="442.23,-82.88 434.04,-76.16 436.25,-86.52 442.23,-82.88"/>
</a>
</g>
</g>
<!-- Node22&#45;&gt;Node19 -->
<g id="edge30_Node000022_Node000019" class="edge">
<title>Node22&#45;&gt;Node19</title>
<g id="a_edge30_Node000022_Node000019"><a xlink:title=" ">
<path fill="none" stroke="#63b8ff" d="M1142.83,-228.98C1029.2,-226.16 718.45,-211.03 669.38,-129.75 655.75,-107.18 683.98,-89.8 711.32,-78.91"/>
<polygon fill="#63b8ff" stroke="#63b8ff" points="712.49,-82.21 720.64,-75.45 710.05,-75.65 712.49,-82.21"/>
</a>
</g>
</g>
<!-- Node23 -->
<g id="Node000023" class="node">
<title>Node23</title>
<g id="a_Node000023"><a xlink:href="_mediator_8hpp.html" target="_top" xlink:title=" ">
<polygon fill="white" stroke="#666666" points="1429.12,-185 1327.62,-185 1327.62,-165.75 1429.12,-165.75 1429.12,-185"/>
<text text-anchor="middle" x="1378.38" y="-171.5" font-family="Helvetica,sans-Serif" font-size="10.00">server/Mediator.hpp</text>
</a>
</g>
</g>
<!-- Node22&#45;&gt;Node23 -->
<g id="edge32_Node000022_Node000023" class="edge">
<title>Node22&#45;&gt;Node23</title>
<g id="a_edge32_Node000022_Node000023"><a xlink:title=" ">
<path fill="none" stroke="#63b8ff" d="M1212.07,-220.59C1242.55,-211.72 1291.89,-198.12 1328.99,-188.35"/>
<polygon fill="#63b8ff" stroke="#63b8ff" points="1329.83,-191.75 1338.61,-185.84 1328.05,-184.98 1329.83,-191.75"/>
</a>
</g>
</g>
<!-- Node23&#45;&gt;Node4 -->
<g id="edge39_Node000023_Node000004" class="edge">
<title>Node23&#45;&gt;Node4</title>
<g id="a_edge39_Node000023_Node000004"><a xlink:title=" ">
<path fill="none" stroke="#63b8ff" d="M1378.35,-165.57C1377.81,-151.81 1374.69,-125.28 1359.38,-110.5 1358.28,-109.44 1147.88,-55.51 1146.38,-55.25 987.5,-27.28 795.1,-15.94 714.64,-12.19"/>
<polygon fill="#63b8ff" stroke="#63b8ff" points="715.26,-8.72 705.11,-11.76 714.94,-15.71 715.26,-8.72"/>
</a>
</g>
</g>
<!-- Node23&#45;&gt;Node6 -->
<g id="edge34_Node000023_Node000006" class="edge">
<title>Node23&#45;&gt;Node6</title>
<g id="a_edge34_Node000023_Node000006"><a xlink:title=" ">
<path fill="none" stroke="#63b8ff" d="M1333.63,-165.28C1287.49,-155.9 1215.66,-141.3 1167.35,-131.49"/>
<polygon fill="#63b8ff" stroke="#63b8ff" points="1168.19,-128.09 1157.7,-129.52 1166.8,-134.94 1168.19,-128.09"/>
</a>
</g>
</g>
<!-- Node23&#45;&gt;Node13 -->
<g id="edge41_Node000023_Node000013" class="edge">
<title>Node23&#45;&gt;Node13</title>
<g id="a_edge41_Node000023_Node000013"><a xlink:title=" ">
<path fill="none" stroke="#63b8ff" d="M1381.44,-165.56C1384.48,-156.62 1389.14,-142.33 1392.38,-129.75 1401.23,-95.28 1408.83,-54.52 1412.99,-30.72"/>
<polygon fill="#63b8ff" stroke="#63b8ff" points="1416.39,-31.6 1414.63,-21.16 1409.49,-30.42 1416.39,-31.6"/>
</a>
</g>
</g>
<!-- Node23&#45;&gt;Node20 -->
<g id="edge40_Node000023_Node000020" class="edge">
<title>Node23&#45;&gt;Node20</title>
<g id="a_edge40_Node000023_Node000020"><a xlink:title=" ">
<path fill="none" stroke="#63b8ff" d="M1429.33,-169.97C1509.17,-162.58 1656.48,-146.82 1673.38,-129.75 1684.59,-118.42 1686.11,-99.95 1685.26,-85.78"/>
<polygon fill="#63b8ff" stroke="#63b8ff" points="1688.78,-85.79 1684.24,-76.22 1681.82,-86.54 1688.78,-85.79"/>
</a>
</g>
</g>
<!-- Node23&#45;&gt;Node22 -->
<g id="edge33_Node000023_Node000022" class="edge">
<title>Node23&#45;&gt;Node22</title>
<g id="a_edge33_Node000023_Node000022"><a xlink:title=" ">
<path fill="none" stroke="#63b8ff" d="M1350.53,-185.45C1319.99,-194.34 1270.63,-207.94 1233.57,-217.7"/>
<polygon fill="#63b8ff" stroke="#63b8ff" points="1232.75,-214.29 1223.97,-220.21 1234.53,-221.06 1232.75,-214.29"/>
</a>
</g>
</g>
<!-- Node24 -->
<g id="Node000024" class="node">
<title>Node24</title>
<g id="a_Node000024"><a xlink:href="_i_sender_8hpp.html" target="_top" xlink:title=" ">
<polygon fill="white" stroke="#666666" points="1664.25,-129.75 1596.5,-129.75 1596.5,-110.5 1664.25,-110.5 1664.25,-129.75"/>
<text text-anchor="middle" x="1630.38" y="-116.25" font-family="Helvetica,sans-Serif" font-size="10.00">ISender.hpp</text>
</a>
</g>
</g>
<!-- Node23&#45;&gt;Node24 -->
<g id="edge35_Node000023_Node000024" class="edge">
<title>Node23&#45;&gt;Node24</title>
<g id="a_edge35_Node000023_Node000024"><a xlink:title=" ">
<path fill="none" stroke="#63b8ff" d="M1421.41,-165.28C1466.9,-155.67 1538.35,-140.57 1584.78,-130.76"/>
<polygon fill="#63b8ff" stroke="#63b8ff" points="1585.48,-134.19 1594.54,-128.7 1584.03,-127.34 1585.48,-134.19"/>
</a>
</g>
</g>
<!-- Node25 -->
<g id="Node000025" class="node">
<title>Node25</title>
<g id="a_Node000025"><a xlink:title=" ">
<polygon fill="#e0e0e0" stroke="#999999" points="1593.25,-74.5 1513.5,-74.5 1513.5,-55.25 1593.25,-55.25 1593.25,-74.5"/>
<text text-anchor="middle" x="1553.38" y="-61" font-family="Helvetica,sans-Serif" font-size="10.00">boost/asio.hpp</text>
</a>
</g>
</g>
<!-- Node23&#45;&gt;Node25 -->
<g id="edge42_Node000023_Node000025" class="edge">
<title>Node23&#45;&gt;Node25</title>
<g id="a_edge42_Node000023_Node000025"><a xlink:title=" ">
<path fill="none" stroke="#63b8ff" d="M1399.33,-165.32C1417.95,-156.96 1445.66,-143.75 1468.38,-129.75 1492.02,-115.18 1517.23,-95.67 1534,-82.06"/>
<polygon fill="#63b8ff" stroke="#63b8ff" points="1536.15,-84.82 1541.66,-75.77 1531.71,-79.42 1536.15,-84.82"/>
</a>
</g>
</g>
<!-- Node24&#45;&gt;Node13 -->
<g id="edge36_Node000024_Node000013" class="edge">
<title>Node24&#45;&gt;Node13</title>
<g id="a_edge36_Node000024_Node000013"><a xlink:title=" ">
<path fill="none" stroke="#63b8ff" d="M1629.03,-110.2C1626.45,-96.29 1619.46,-69.54 1602.38,-55.25 1558.77,-18.78 1490.3,-11.13 1449.73,-10.06"/>
<polygon fill="#63b8ff" stroke="#63b8ff" points="1449.89,-6.57 1439.85,-9.94 1449.8,-13.57 1449.89,-6.57"/>
</a>
</g>
</g>
<!-- Node24&#45;&gt;Node20 -->
<g id="edge37_Node000024_Node000020" class="edge">
<title>Node24&#45;&gt;Node20</title>
<g id="a_edge37_Node000024_Node000020"><a xlink:title=" ">
<path fill="none" stroke="#63b8ff" d="M1638.96,-110.33C1646.22,-102.9 1656.83,-92.04 1665.74,-82.91"/>
<polygon fill="#63b8ff" stroke="#63b8ff" points="1668.06,-85.54 1672.54,-75.94 1663.05,-80.65 1668.06,-85.54"/>
</a>
</g>
</g>
<!-- Node24&#45;&gt;Node25 -->
<g id="edge38_Node000024_Node000025" class="edge">
<title>Node24&#45;&gt;Node25</title>
<g id="a_edge38_Node000024_Node000025"><a xlink:title=" ">
<path fill="none" stroke="#63b8ff" d="M1617.31,-110.09C1605.92,-102.21 1589.15,-90.61 1575.64,-81.27"/>
<polygon fill="#63b8ff" stroke="#63b8ff" points="1577.96,-78.62 1567.75,-75.81 1573.98,-84.38 1577.96,-78.62"/>
</a>
</g>
</g>
<!-- Node27&#45;&gt;Node4 -->
<g id="edge51_Node000027_Node000004" class="edge">
<title>Node27&#45;&gt;Node4</title>
<g id="a_edge51_Node000027_Node000004"><a xlink:title=" ">
<path fill="none" stroke="#63b8ff" d="M445.49,-165.36C409.82,-145.2 332.83,-95.14 367.38,-55.25 401.98,-15.29 563.25,-10.32 638.07,-10.21"/>
<polygon fill="#63b8ff" stroke="#63b8ff" points="637.78,-13.71 647.79,-10.23 637.8,-6.71 637.78,-13.71"/>
</a>
</g>
</g>
<!-- Node27&#45;&gt;Node5 -->
<g id="edge48_Node000027_Node000005" class="edge">
<title>Node27&#45;&gt;Node5</title>
<g id="a_edge48_Node000027_Node000005"><a xlink:title=" ">
<path fill="none" stroke="#63b8ff" d="M432.13,-168.88C384.9,-158.72 293.84,-132.51 243.38,-74.5 232.79,-62.34 228.1,-44.49 226.02,-30.75"/>
<polygon fill="#63b8ff" stroke="#63b8ff" points="229.53,-30.61 224.93,-21.07 222.57,-31.4 229.53,-30.61"/>
</a>
</g>
</g>
<!-- Node27&#45;&gt;Node7 -->
<g id="edge52_Node000027_Node000007" class="edge">
<title>Node27&#45;&gt;Node7</title>
<g id="a_edge52_Node000027_Node000007"><a xlink:title=" ">
<path fill="none" stroke="#63b8ff" d="M463.29,-165.37C464.98,-152.27 469.58,-127.66 481.38,-110.5 489.56,-98.59 501.91,-88.46 513.12,-80.88"/>
<polygon fill="#63b8ff" stroke="#63b8ff" points="514.7,-84.02 521.26,-75.7 510.94,-78.11 514.7,-84.02"/>
</a>
</g>
</g>
<!-- Node27&#45;&gt;Node18 -->
<g id="edge49_Node000027_Node000018" class="edge">
<title>Node27&#45;&gt;Node18</title>
<g id="a_edge49_Node000027_Node000018"><a xlink:title=" ">
<path fill="none" stroke="#63b8ff" d="M445.59,-165.32C433.3,-157.66 417.58,-145.42 410.38,-129.75 403.68,-115.19 409.57,-97.6 416.35,-84.57"/>
<polygon fill="#63b8ff" stroke="#63b8ff" points="419.23,-86.57 421.23,-76.17 413.18,-83.06 419.23,-86.57"/>
</a>
</g>
</g>
<!-- Node27&#45;&gt;Node19 -->
<g id="edge50_Node000027_Node000019" class="edge">
<title>Node27&#45;&gt;Node19</title>
<g id="a_edge50_Node000027_Node000019"><a xlink:title=" ">
<path fill="none" stroke="#63b8ff" d="M480.7,-165.32C512.17,-149.86 575.3,-119.18 598.38,-110.5 633.27,-97.38 673.8,-85.83 704.66,-77.77"/>
<polygon fill="#63b8ff" stroke="#63b8ff" points="705.29,-81.23 714.1,-75.34 703.54,-74.45 705.29,-81.23"/>
</a>
</g>
</g>
<!-- Node28 -->
<g id="Node000028" class="node">
<title>Node28</title>
<g id="a_Node000028"><a xlink:href="_utils_8hpp.html" target="_top" xlink:title=" ">
<polygon fill="white" stroke="#666666" points="545.88,-129.75 490.88,-129.75 490.88,-110.5 545.88,-110.5 545.88,-129.75"/>
<text text-anchor="middle" x="518.38" y="-116.25" font-family="Helvetica,sans-Serif" font-size="10.00">Utils.hpp</text>
</a>
</g>
</g>
<!-- Node27&#45;&gt;Node28 -->
<g id="edge53_Node000027_Node000028" class="edge">
<title>Node27&#45;&gt;Node28</title>
<g id="a_edge53_Node000027_Node000028"><a xlink:title=" ">
<path fill="none" stroke="#63b8ff" d="M471.87,-165.34C479.81,-157.8 491.32,-146.85 500.91,-137.73"/>
<polygon fill="#63b8ff" stroke="#63b8ff" points="503.08,-140.49 507.92,-131.07 498.26,-135.42 503.08,-140.49"/>
</a>
</g>
</g>
<!-- Node28&#45;&gt;Node4 -->
<g id="edge56_Node000028_Node000004" class="edge">
<title>Node28&#45;&gt;Node4</title>
<g id="a_edge56_Node000028_Node000004"><a xlink:title=" ">
<path fill="none" stroke="#63b8ff" d="M546.12,-113.32C581.74,-105.34 640.82,-90.2 656.38,-74.5 667.9,-62.87 672.79,-44.7 674.87,-30.7"/>
<polygon fill="#63b8ff" stroke="#63b8ff" points="678.34,-31.16 675.93,-20.84 671.38,-30.41 678.34,-31.16"/>
</a>
</g>
</g>
<!-- Node28&#45;&gt;Node7 -->
<g id="edge58_Node000028_Node000007" class="edge">
<title>Node28&#45;&gt;Node7</title>
<g id="a_edge58_Node000028_Node000007"><a xlink:title=" ">
<path fill="none" stroke="#63b8ff" d="M521.84,-110.33C524.5,-103.59 528.27,-94.02 531.64,-85.49"/>
<polygon fill="#63b8ff" stroke="#63b8ff" points="534.86,-86.85 535.28,-76.27 528.35,-84.29 534.86,-86.85"/>
</a>
</g>
</g>
<!-- Node28&#45;&gt;Node18 -->
<g id="edge54_Node000028_Node000018" class="edge">
<title>Node28&#45;&gt;Node18</title>
<g id="a_edge54_Node000028_Node000018"><a xlink:title=" ">
<path fill="none" stroke="#63b8ff" d="M503.11,-110.09C489.53,-102.06 469.42,-90.16 453.48,-80.73"/>
<polygon fill="#63b8ff" stroke="#63b8ff" points="455.41,-77.8 445.02,-75.72 451.84,-83.83 455.41,-77.8"/>
</a>
</g>
</g>
<!-- Node28&#45;&gt;Node19 -->
<g id="edge55_Node000028_Node000019" class="edge">
<title>Node28&#45;&gt;Node19</title>
<g id="a_edge55_Node000028_Node000019"><a xlink:title=" ">
<path fill="none" stroke="#63b8ff" d="M546.26,-112.81C584.64,-104.11 654.43,-88.3 702.31,-77.45"/>
<polygon fill="#63b8ff" stroke="#63b8ff" points="702.92,-80.9 711.89,-75.27 701.37,-74.07 702.92,-80.9"/>
</a>
</g>
</g>
<!-- Node29 -->
<g id="Node000029" class="node">
<title>Node29</title>
<g id="a_Node000029"><a xlink:title=" ">
<polygon fill="#e0e0e0" stroke="#999999" points="647.88,-74.5 598.88,-74.5 598.88,-55.25 647.88,-55.25 647.88,-74.5"/>
<text text-anchor="middle" x="623.38" y="-61" font-family="Helvetica,sans-Serif" font-size="10.00">fstream</text>
</a>
</g>
</g>
<!-- Node28&#45;&gt;Node29 -->
<g id="edge57_Node000028_Node000029" class="edge">
<title>Node28&#45;&gt;Node29</title>
<g id="a_edge57_Node000028_Node000029"><a xlink:title=" ">
<path fill="none" stroke="#63b8ff" d="M536.19,-110.09C552.4,-101.87 576.61,-89.59 595.41,-80.06"/>
<polygon fill="#63b8ff" stroke="#63b8ff" points="596.79,-83.28 604.13,-75.64 593.62,-77.04 596.79,-83.28"/>
</a>
</g>
</g>
<!-- Node30&#45;&gt;Node9 -->
<g id="edge66_Node000030_Node000009" class="edge">
<title>Node30&#45;&gt;Node9</title>
<g id="a_edge66_Node000030_Node000009"><a xlink:title=" ">
<path fill="none" stroke="#63b8ff" d="M864.08,-165.26C881.59,-157.32 906.36,-144.74 925.38,-129.75 942.47,-116.27 958.66,-97.31 969.38,-83.55"/>
<polygon fill="#63b8ff" stroke="#63b8ff" points="972,-85.89 975.25,-75.81 966.42,-81.66 972,-85.89"/>
</a>
</g>
</g>
<!-- Node30&#45;&gt;Node14 -->
<g id="edge67_Node000030_Node000014" class="edge">
<title>Node30&#45;&gt;Node14</title>
<g id="a_edge67_Node000030_Node000014"><a xlink:title=" ">
<path fill="none" stroke="#63b8ff" d="M845.98,-165.57C856.43,-140.03 886.94,-65.45 901.49,-29.9"/>
<polygon fill="#63b8ff" stroke="#63b8ff" points="904.63,-31.45 905.18,-20.87 898.16,-28.8 904.63,-31.45"/>
</a>
</g>
</g>
<!-- Node30&#45;&gt;Node16 -->
<g id="edge61_Node000030_Node000016" class="edge">
<title>Node30&#45;&gt;Node16</title>
<g id="a_edge61_Node000030_Node000016"><a xlink:title=" ">
<path fill="none" stroke="#63b8ff" d="M849.71,-165.5C871.26,-139.47 933.5,-64.63 944.38,-55.25 957.64,-43.81 974.12,-33.26 987.86,-25.3"/>
<polygon fill="#63b8ff" stroke="#63b8ff" points="989.42,-28.44 996.42,-20.48 985.99,-22.34 989.42,-28.44"/>
</a>
</g>
</g>
<!-- Node30&#45;&gt;Node25 -->
<g id="edge60_Node000030_Node000025" class="edge">
<title>Node30&#45;&gt;Node25</title>
<g id="a_edge60_Node000030_Node000025"><a xlink:title=" ">
<path fill="none" stroke="#63b8ff" d="M901.94,-173.7C998.81,-171.61 1196.1,-163.2 1359.38,-129.75 1417.71,-117.8 1482.99,-94.04 1521,-79.11"/>
<polygon fill="#63b8ff" stroke="#63b8ff" points="1522.02,-82.47 1530.02,-75.53 1519.43,-75.97 1522.02,-82.47"/>
</a>
</g>
</g>
<!-- Node30&#45;&gt;Node28 -->
<g id="edge68_Node000030_Node000028" class="edge">
<title>Node30&#45;&gt;Node28</title>
<g id="a_edge68_Node000030_Node000028"><a xlink:title=" ">
<path fill="none" stroke="#63b8ff" d="M787.05,-165.28C721.61,-154.53 614.37,-136.9 557.17,-127.5"/>
<polygon fill="#63b8ff" stroke="#63b8ff" points="558.02,-124.09 547.58,-125.93 556.88,-131 558.02,-124.09"/>
</a>
</g>
</g>
<!-- Node31 -->
<g id="Node000031" class="node">
<title>Node31</title>
<g id="a_Node000031"><a xlink:title=" ">
<polygon fill="#e0e0e0" stroke="#999999" points="1058.88,-129.75 1015.88,-129.75 1015.88,-110.5 1058.88,-110.5 1058.88,-129.75"/>
<text text-anchor="middle" x="1037.38" y="-116.25" font-family="Helvetica,sans-Serif" font-size="10.00">thread</text>
</a>
</g>
</g>
<!-- Node30&#45;&gt;Node31 -->
<g id="edge62_Node000030_Node000031" class="edge">
<title>Node30&#45;&gt;Node31</title>
<g id="a_edge62_Node000030_Node000031"><a xlink:title=" ">
<path fill="none" stroke="#63b8ff" d="M875.45,-165.34C911.54,-155.49 968.92,-139.82 1004.8,-130.02"/>
<polygon fill="#63b8ff" stroke="#63b8ff" points="1005.46,-133.47 1014.18,-127.46 1003.62,-126.72 1005.46,-133.47"/>
</a>
</g>
</g>
<!-- Node32 -->
<g id="Node000032" class="node">
<title>Node32</title>
<g id="a_Node000032"><a xlink:title=" ">
<polygon fill="#e0e0e0" stroke="#999999" points="844.88,-129.75 801.88,-129.75 801.88,-110.5 844.88,-110.5 844.88,-129.75"/>
<text text-anchor="middle" x="823.38" y="-116.25" font-family="Helvetica,sans-Serif" font-size="10.00">mutex</text>
</a>
</g>
</g>
<!-- Node30&#45;&gt;Node32 -->
<g id="edge63_Node000030_Node000032" class="edge">
<title>Node30&#45;&gt;Node32</title>
<g id="a_edge63_Node000030_Node000032"><a xlink:title=" ">
<path fill="none" stroke="#63b8ff" d="M839.24,-165.58C836.83,-158.84 833.42,-149.27 830.37,-140.74"/>
<polygon fill="#63b8ff" stroke="#63b8ff" points="833.75,-139.78 827.09,-131.53 827.15,-142.13 833.75,-139.78"/>
</a>
</g>
</g>
<!-- Node33 -->
<g id="Node000033" class="node">
<title>Node33</title>
<g id="a_Node000033"><a xlink:title=" ">
<polygon fill="#e0e0e0" stroke="#999999" points="720.5,-129.75 678.25,-129.75 678.25,-110.5 720.5,-110.5 720.5,-129.75"/>
<text text-anchor="middle" x="699.38" y="-116.25" font-family="Helvetica,sans-Serif" font-size="10.00">queue</text>
</a>
</g>
</g>
<!-- Node30&#45;&gt;Node33 -->
<g id="edge64_Node000030_Node000033" class="edge">
<title>Node30&#45;&gt;Node33</title>
<g id="a_edge64_Node000030_Node000033"><a xlink:title=" ">
<path fill="none" stroke="#63b8ff" d="M818.12,-165.34C794.27,-156.46 757.74,-142.86 731.49,-133.08"/>
<polygon fill="#63b8ff" stroke="#63b8ff" points="732.95,-129.89 722.36,-129.68 730.51,-136.45 732.95,-129.89"/>
</a>
</g>
</g>
<!-- Node34 -->
<g id="Node000034" class="node">
<title>Node34</title>
<g id="a_Node000034"><a xlink:title=" ">
<polygon fill="#e0e0e0" stroke="#999999" points="784,-129.75 738.75,-129.75 738.75,-110.5 784,-110.5 784,-129.75"/>
<text text-anchor="middle" x="761.38" y="-116.25" font-family="Helvetica,sans-Serif" font-size="10.00">atomic</text>
</a>
</g>
</g>
<!-- Node30&#45;&gt;Node34 -->
<g id="edge65_Node000030_Node000034" class="edge">
<title>Node30&#45;&gt;Node34</title>
<g id="a_edge65_Node000030_Node000034"><a xlink:title=" ">
<path fill="none" stroke="#63b8ff" d="M828.63,-165.34C816.65,-157.46 799,-145.86 784.79,-136.52"/>
<polygon fill="#63b8ff" stroke="#63b8ff" points="786.73,-133.6 776.45,-131.03 782.88,-139.45 786.73,-133.6"/>
</a>
</g>
</g>
<!-- Node36&#45;&gt;Node13 -->
<g id="edge77_Node000036_Node000013" class="edge">
<title>Node36&#45;&gt;Node13</title>
<g id="a_edge77_Node000036_Node000013"><a xlink:title=" ">
<path fill="none" stroke="#63b8ff" d="M1549.04,-223.18C1585.03,-217.34 1628.39,-206.21 1662.38,-185 1714.67,-152.37 1751.57,-101.98 1711.38,-55.25 1677.85,-16.27 1518.93,-10.91 1449.25,-10.47"/>
<polygon fill="#63b8ff" stroke="#63b8ff" points="1449.62,-6.97 1439.6,-10.44 1449.59,-13.97 1449.62,-6.97"/>
</a>
</g>
</g>
<!-- Node36&#45;&gt;Node20 -->
<g id="edge72_Node000036_Node000020" class="edge">
<title>Node36&#45;&gt;Node20</title>
<g id="a_edge72_Node000036_Node000020"><a xlink:title=" ">
<path fill="none" stroke="#63b8ff" d="M1540.44,-220.52C1591.86,-209.16 1661.78,-184.12 1692.38,-129.75 1700.04,-116.13 1696.41,-98.43 1691.5,-85.12"/>
<polygon fill="#63b8ff" stroke="#63b8ff" points="1694.83,-84 1687.71,-76.16 1688.38,-86.73 1694.83,-84"/>
</a>
</g>
</g>
<!-- Node36&#45;&gt;Node21 -->
<g id="edge75_Node000036_Node000021" class="edge">
<title>Node36&#45;&gt;Node21</title>
<g id="a_edge75_Node000036_Node000021"><a xlink:title=" ">
<path fill="none" stroke="#63b8ff" d="M1478.76,-220.74C1478.13,-211.73 1477.16,-197.4 1476.38,-185 1474.19,-150.28 1471.86,-109.86 1470.51,-86.15"/>
<polygon fill="#63b8ff" stroke="#63b8ff" points="1474.02,-86.14 1469.96,-76.35 1467.03,-86.54 1474.02,-86.14"/>
</a>
</g>
</g>
<!-- Node36&#45;&gt;Node23 -->
<g id="edge78_Node000036_Node000023" class="edge">
<title>Node36&#45;&gt;Node23</title>
<g id="a_edge78_Node000036_Node000023"><a xlink:title=" ">
<path fill="none" stroke="#63b8ff" d="M1462.24,-220.59C1446.72,-212.41 1423.57,-200.21 1405.53,-190.69"/>
<polygon fill="#63b8ff" stroke="#63b8ff" points="1407.41,-187.73 1396.93,-186.16 1404.14,-193.92 1407.41,-187.73"/>
</a>
</g>
</g>
<!-- Node36&#45;&gt;Node25 -->
<g id="edge71_Node000036_Node000025" class="edge">
<title>Node36&#45;&gt;Node25</title>
<g id="a_edge71_Node000036_Node000025"><a xlink:title=" ">
<path fill="none" stroke="#63b8ff" d="M1532.39,-220.53C1552.81,-214.15 1574.15,-203.34 1586.38,-185 1597.3,-168.6 1575.57,-114.44 1562.42,-85.12"/>
<polygon fill="#63b8ff" stroke="#63b8ff" points="1565.71,-83.91 1558.36,-76.29 1559.35,-86.83 1565.71,-83.91"/>
</a>
</g>
</g>
<!-- Node36&#45;&gt;Node31 -->
<g id="edge73_Node000036_Node000031" class="edge">
<title>Node36&#45;&gt;Node31</title>
<g id="a_edge73_Node000036_Node000031"><a xlink:title=" ">
<path fill="none" stroke="#63b8ff" d="M1439.46,-220.54C1367.6,-204.05 1211.46,-167.65 1070.3,-130.45"/>
<polygon fill="#63b8ff" stroke="#63b8ff" points="1071.33,-127.1 1060.76,-127.93 1069.54,-133.87 1071.33,-127.1"/>
</a>
</g>
</g>
<!-- Node37 -->
<g id="Node000037" class="node">
<title>Node37</title>
<g id="a_Node000037"><a xlink:title=" ">
<polygon fill="#e0e0e0" stroke="#999999" points="1519.75,-185 1485,-185 1485,-165.75 1519.75,-165.75 1519.75,-185"/>
<text text-anchor="middle" x="1502.38" y="-171.5" font-family="Helvetica,sans-Serif" font-size="10.00">map</text>
</a>
</g>
</g>
<!-- Node36&#45;&gt;Node37 -->
<g id="edge74_Node000036_Node000037" class="edge">
<title>Node36&#45;&gt;Node37</title>
<g id="a_edge74_Node000036_Node000037"><a xlink:title=" ">
<path fill="none" stroke="#63b8ff" d="M1483.17,-220.83C1486.12,-214.01 1490.31,-204.31 1494.03,-195.7"/>
<polygon fill="#63b8ff" stroke="#63b8ff" points="1497.14,-197.32 1497.89,-186.75 1490.72,-194.54 1497.14,-197.32"/>
</a>
</g>
</g>
<!-- Node38 -->
<g id="Node000038" class="node">
<title>Node38</title>
<g id="a_Node000038"><a xlink:title=" ">
<polygon fill="#e0e0e0" stroke="#999999" points="1577.38,-185 1537.38,-185 1537.38,-165.75 1577.38,-165.75 1577.38,-185"/>
<text text-anchor="middle" x="1557.38" y="-171.5" font-family="Helvetica,sans-Serif" font-size="10.00">bitset</text>
</a>
</g>
</g>
<!-- Node36&#45;&gt;Node38 -->
<g id="edge76_Node000036_Node000038" class="edge">
<title>Node36&#45;&gt;Node38</title>
<g id="a_edge76_Node000036_Node000038"><a xlink:title=" ">
<path fill="none" stroke="#63b8ff" d="M1492.61,-220.59C1504.15,-212.71 1521.14,-201.11 1534.82,-191.77"/>
<polygon fill="#63b8ff" stroke="#63b8ff" points="1536.54,-194.83 1542.83,-186.31 1532.6,-189.05 1536.54,-194.83"/>
</a>
</g>
</g>
</g>
</svg>
