<?xml version="1.0" encoding="UTF-8" standalone="no"?>
<!DOCTYPE svg PUBLIC "-//W3C//DTD SVG 1.1//EN"
 "http://www.w3.org/Graphics/SVG/1.1/DTD/svg11.dtd">
<!-- Generated by graphviz version 12.2.1 (20241206.2353)
 -->
<!-- Title: src/server/Mediator.hpp Pages: 1 -->
<svg width="1672pt" height="193pt"
 viewBox="0.00 0.00 1672.25 193.00" xmlns="http://www.w3.org/2000/svg" xmlns:xlink="http://www.w3.org/1999/xlink">
<g id="graph0" class="graph" transform="scale(1 1) rotate(0) translate(4 189)">
<title>src/server/Mediator.hpp</title>
<!-- Node1 -->
<g id="Node000001" class="node">
<title>Node1</title>
<g id="a_Node000001"><a xlink:title=" ">
<polygon fill="#999999" stroke="#666666" points="1105.25,-185 987.25,-185 987.25,-165.75 1105.25,-165.75 1105.25,-185"/>
<text text-anchor="middle" x="1046.25" y="-171.5" font-family="Helvetica,sans-Serif" font-size="10.00">src/server/Mediator.hpp</text>
</a>
</g>
</g>
<!-- Node2 -->
<g id="Node000002" class="node">
<title>Node2</title>
<g id="a_Node000002"><a xlink:href="_systems_8hpp.html" target="_top" xlink:title=" ">
<polygon fill="white" stroke="#666666" points="915.38,-129.75 825.12,-129.75 825.12,-110.5 915.38,-110.5 915.38,-129.75"/>
<text text-anchor="middle" x="870.25" y="-116.25" font-family="Helvetica,sans-Serif" font-size="10.00">src/Systems.hpp</text>
</a>
</g>
</g>
<!-- Node1&#45;&gt;Node2 -->
<g id="edge1_Node000001_Node000002" class="edge">
<title>Node1&#45;&gt;Node2</title>
<g id="a_edge1_Node000001_Node000002"><a xlink:title=" ">
<path fill="none" stroke="#63b8ff" d="M1000.21,-162.19C966.56,-152.45 922.33,-139.02 895.03,-130.2"/>
<polygon fill="#63b8ff" stroke="#63b8ff" points="999.14,-165.53 1009.72,-164.92 1001.08,-158.8 999.14,-165.53"/>
</a>
</g>
</g>
<!-- Node15 -->
<g id="Node000015" class="node">
<title>Node15</title>
<g id="a_Node000015"><a xlink:href="_mediator_8cpp.html" target="_top" xlink:title=" ">
<polygon fill="white" stroke="#666666" points="1293.25,-129.75 1175.25,-129.75 1175.25,-110.5 1293.25,-110.5 1293.25,-129.75"/>
<text text-anchor="middle" x="1234.25" y="-116.25" font-family="Helvetica,sans-Serif" font-size="10.00">src/server/Mediator.cpp</text>
</a>
</g>
</g>
<!-- Node1&#45;&gt;Node15 -->
<g id="edge19_Node000001_Node000015" class="edge">
<title>Node1&#45;&gt;Node15</title>
<g id="a_edge19_Node000001_Node000015"><a xlink:title=" ">
<path fill="none" stroke="#63b8ff" d="M1088.81,-162.32C1123.23,-152.57 1170.95,-139.05 1202.2,-130.2"/>
<polygon fill="#63b8ff" stroke="#63b8ff" points="1088.27,-158.84 1079.6,-164.93 1090.17,-165.57 1088.27,-158.84"/>
</a>
</g>
</g>
<!-- Node16 -->
<g id="Node000016" class="node">
<title>Node16</title>
<g id="a_Node000016"><a xlink:href="_server_game_8hpp.html" target="_top" xlink:title=" ">
<polygon fill="white" stroke="#666666" points="1520.25,-74.5 1384.25,-74.5 1384.25,-55.25 1520.25,-55.25 1520.25,-74.5"/>
<text text-anchor="middle" x="1452.25" y="-61" font-family="Helvetica,sans-Serif" font-size="10.00">src/server/ServerGame.hpp</text>
</a>
</g>
</g>
<!-- Node1&#45;&gt;Node16 -->
<g id="edge20_Node000001_Node000016" class="edge">
<title>Node1&#45;&gt;Node16</title>
<g id="a_edge20_Node000001_Node000016"><a xlink:title=" ">
<path fill="none" stroke="#63b8ff" d="M1072.75,-159.98C1106.57,-141.65 1161.33,-112.14 1166.25,-110.5 1205.46,-97.42 1312.37,-82.72 1383.79,-73.89"/>
<polygon fill="#63b8ff" stroke="#63b8ff" points="1071.45,-156.7 1064.33,-164.55 1074.79,-162.86 1071.45,-156.7"/>
</a>
</g>
</g>
<!-- Node19 -->
<g id="Node000019" class="node">
<title>Node19</title>
<g id="a_Node000019"><a xlink:href="_server_network_8hpp.html" target="_top" xlink:title=" ">
<polygon fill="white" stroke="#666666" points="1119.5,-129.75 973,-129.75 973,-110.5 1119.5,-110.5 1119.5,-129.75"/>
<text text-anchor="middle" x="1046.25" y="-116.25" font-family="Helvetica,sans-Serif" font-size="10.00">src/server/ServerNetwork.hpp</text>
</a>
</g>
</g>
<!-- Node1&#45;&gt;Node19 -->
<g id="edge23_Node000001_Node000019" class="edge">
<title>Node1&#45;&gt;Node19</title>
<g id="a_edge23_Node000001_Node000019"><a xlink:title=" ">
<path fill="none" stroke="#63b8ff" d="M1046.25,-154.13C1046.25,-145.84 1046.25,-136.67 1046.25,-130.11"/>
<polygon fill="#63b8ff" stroke="#63b8ff" points="1042.75,-154.07 1046.25,-164.07 1049.75,-154.07 1042.75,-154.07"/>
</a>
</g>
</g>
<!-- Node2&#45;&gt;Node1 -->
<g id="edge18_Node000002_Node000001" class="edge">
<title>Node2&#45;&gt;Node1</title>
<g id="a_edge18_Node000002_Node000001"><a xlink:title=" ">
<path fill="none" stroke="#63b8ff" d="M916.46,-133.36C950.15,-143.11 994.37,-156.54 1021.61,-165.34"/>
<polygon fill="#63b8ff" stroke="#63b8ff" points="917.51,-130.02 906.93,-130.62 915.58,-136.74 917.51,-130.02"/>
</a>
</g>
</g>
<!-- Node3 -->
<g id="Node000003" class="node">
<title>Node3</title>
<g id="a_Node000003"><a xlink:href="_systems_8cpp.html" target="_top" xlink:title=" ">
<polygon fill="white" stroke="#666666" points="651.38,-74.5 561.12,-74.5 561.12,-55.25 651.38,-55.25 651.38,-74.5"/>
<text text-anchor="middle" x="606.25" y="-61" font-family="Helvetica,sans-Serif" font-size="10.00">src/Systems.cpp</text>
</a>
</g>
</g>
<!-- Node2&#45;&gt;Node3 -->
<g id="edge2_Node000002_Node000003" class="edge">
<title>Node2&#45;&gt;Node3</title>
<g id="a_edge2_Node000002_Node000003"><a xlink:title=" ">
<path fill="none" stroke="#63b8ff" d="M813.9,-107.76C765.31,-97.96 696.07,-83.99 651.15,-74.93"/>
<polygon fill="#63b8ff" stroke="#63b8ff" points="813.19,-111.19 823.68,-109.73 814.57,-104.32 813.19,-111.19"/>
</a>
</g>
</g>
<!-- Node4 -->
<g id="Node000004" class="node">
<title>Node4</title>
<g id="a_Node000004"><a xlink:href="_core_8hpp.html" target="_top" xlink:title=" ">
<polygon fill="white" stroke="#666666" points="881.5,-74.5 783,-74.5 783,-55.25 881.5,-55.25 881.5,-74.5"/>
<text text-anchor="middle" x="832.25" y="-61" font-family="Helvetica,sans-Serif" font-size="10.00">src/client/Core.hpp</text>
</a>
</g>
</g>
<!-- Node2&#45;&gt;Node4 -->
<g id="edge3_Node000002_Node000004" class="edge">
<title>Node2&#45;&gt;Node4</title>
<g id="a_edge3_Node000002_Node000004"><a xlink:title=" ">
<path fill="none" stroke="#63b8ff" d="M857.45,-101.19C851.13,-92.34 843.79,-82.04 838.66,-74.86"/>
<polygon fill="#63b8ff" stroke="#63b8ff" points="854.44,-102.99 863.1,-109.1 860.14,-98.93 854.44,-102.99"/>
</a>
</g>
</g>
<!-- Node6 -->
<g id="Node000006" class="node">
<title>Node6</title>
<g id="a_Node000006"><a xlink:href="_gui_game_8cpp.html" target="_top" xlink:title=" ">
<polygon fill="white" stroke="#666666" points="1086.62,-19.25 967.88,-19.25 967.88,0 1086.62,0 1086.62,-19.25"/>
<text text-anchor="middle" x="1027.25" y="-5.75" font-family="Helvetica,sans-Serif" font-size="10.00">src/client/GuiGame.cpp</text>
</a>
</g>
</g>
<!-- Node2&#45;&gt;Node6 -->
<g id="edge14_Node000002_Node000006" class="edge">
<title>Node2&#45;&gt;Node6</title>
<g id="a_edge14_Node000002_Node000006"><a xlink:title=" ">
<path fill="none" stroke="#63b8ff" d="M892.74,-103.58C926.08,-80.54 987.56,-38.05 1014.28,-19.59"/>
<polygon fill="#63b8ff" stroke="#63b8ff" points="890.85,-100.64 884.61,-109.2 894.83,-106.39 890.85,-100.64"/>
</a>
</g>
</g>
<!-- Node11 -->
<g id="Node000011" class="node">
<title>Node11</title>
<g id="a_Node000011"><a xlink:href="_handle_animation_8cpp.html" target="_top" xlink:title=" ">
<polygon fill="white" stroke="#666666" points="1256.12,-19.25 1104.38,-19.25 1104.38,0 1256.12,0 1256.12,-19.25"/>
<text text-anchor="middle" x="1180.25" y="-5.75" font-family="Helvetica,sans-Serif" font-size="10.00">src/client/HandleAnimation.cpp</text>
</a>
</g>
</g>
<!-- Node2&#45;&gt;Node11 -->
<g id="edge15_Node000002_Node000011" class="edge">
<title>Node2&#45;&gt;Node11</title>
<g id="a_edge15_Node000002_Node000011"><a xlink:title=" ">
<path fill="none" stroke="#63b8ff" d="M899.38,-105.15C937.98,-86.65 1001.56,-56.22 1004.25,-55.25 1047.39,-39.67 1098.34,-27.39 1134.3,-19.68"/>
<polygon fill="#63b8ff" stroke="#63b8ff" points="898.09,-101.89 890.59,-109.37 901.12,-108.2 898.09,-101.89"/>
</a>
</g>
</g>
<!-- Node12 -->
<g id="Node000012" class="node">
<title>Node12</title>
<g id="a_Node000012"><a xlink:href="_handle_commands_8cpp.html" target="_top" xlink:title=" ">
<polygon fill="white" stroke="#666666" points="158.5,-19.25 0,-19.25 0,0 158.5,0 158.5,-19.25"/>
<text text-anchor="middle" x="79.25" y="-5.75" font-family="Helvetica,sans-Serif" font-size="10.00">src/client/HandleCommands.cpp</text>
</a>
</g>
</g>
<!-- Node2&#45;&gt;Node12 -->
<g id="edge16_Node000002_Node000012" class="edge">
<title>Node2&#45;&gt;Node12</title>
<g id="a_edge16_Node000002_Node000012"><a xlink:title=" ">
<path fill="none" stroke="#63b8ff" d="M813.83,-111.39C671.47,-91.86 298.15,-40.65 145.62,-19.73"/>
<polygon fill="#63b8ff" stroke="#63b8ff" points="813,-114.8 823.38,-112.7 813.95,-107.87 813,-114.8"/>
</a>
</g>
</g>
<!-- Node13 -->
<g id="Node000013" class="node">
<title>Node13</title>
<g id="a_Node000013"><a xlink:href="_handle_input_8cpp.html" target="_top" xlink:title=" ">
<polygon fill="white" stroke="#666666" points="306.25,-19.25 176.25,-19.25 176.25,0 306.25,0 306.25,-19.25"/>
<text text-anchor="middle" x="241.25" y="-5.75" font-family="Helvetica,sans-Serif" font-size="10.00">src/client/HandleInput.cpp</text>
</a>
</g>
</g>
<!-- Node2&#45;&gt;Node13 -->
<g id="edge17_Node000002_Node000013" class="edge">
<title>Node2&#45;&gt;Node13</title>
<g id="a_edge17_Node000002_Node000013"><a xlink:title=" ">
<path fill="none" stroke="#63b8ff" d="M835.25,-106.22C793.99,-91.54 723.07,-67.96 660.25,-55.25 509.15,-24.68 468.48,-36.17 315.25,-19.25 312.42,-18.94 309.53,-18.62 306.62,-18.29"/>
<polygon fill="#63b8ff" stroke="#63b8ff" points="834.05,-109.51 844.64,-109.6 836.42,-102.92 834.05,-109.51"/>
</a>
</g>
</g>
<!-- Node5 -->
<g id="Node000005" class="node">
<title>Node5</title>
<g id="a_Node000005"><a xlink:href="_core_8cpp.html" target="_top" xlink:title=" ">
<polygon fill="white" stroke="#666666" points="679.5,-19.25 581,-19.25 581,0 679.5,0 679.5,-19.25"/>
<text text-anchor="middle" x="630.25" y="-5.75" font-family="Helvetica,sans-Serif" font-size="10.00">src/client/Core.cpp</text>
</a>
</g>
</g>
<!-- Node4&#45;&gt;Node5 -->
<g id="edge4_Node000004_Node000005" class="edge">
<title>Node4&#45;&gt;Node5</title>
<g id="a_edge4_Node000004_Node000005"><a xlink:title=" ">
<path fill="none" stroke="#63b8ff" d="M787,-51.95C749.98,-42.19 698.41,-28.59 664.68,-19.7"/>
<polygon fill="#63b8ff" stroke="#63b8ff" points="785.96,-55.29 796.52,-54.46 787.74,-48.52 785.96,-55.29"/>
</a>
</g>
</g>
<!-- Node4&#45;&gt;Node6 -->
<g id="edge5_Node000004_Node000006" class="edge">
<title>Node4&#45;&gt;Node6</title>
<g id="a_edge5_Node000004_Node000006"><a xlink:title=" ">
<path fill="none" stroke="#63b8ff" d="M876.4,-51.82C912.1,-42.07 961.6,-28.55 994.01,-19.7"/>
<polygon fill="#63b8ff" stroke="#63b8ff" points="875.51,-48.43 866.79,-54.44 877.36,-55.19 875.51,-48.43"/>
</a>
</g>
</g>
<!-- Node7 -->
<g id="Node000007" class="node">
<title>Node7</title>
<g id="a_Node000007"><a xlink:href="_gui_lobby_8cpp.html" target="_top" xlink:title=" ">
<polygon fill="white" stroke="#666666" points="814.88,-19.25 697.62,-19.25 697.62,0 814.88,0 814.88,-19.25"/>
<text text-anchor="middle" x="756.25" y="-5.75" font-family="Helvetica,sans-Serif" font-size="10.00">src/client/GuiLobby.cpp</text>
</a>
</g>
</g>
<!-- Node4&#45;&gt;Node7 -->
<g id="edge6_Node000004_Node000007" class="edge">
<title>Node4&#45;&gt;Node7</title>
<g id="a_edge6_Node000004_Node000007"><a xlink:title=" ">
<path fill="none" stroke="#63b8ff" d="M809.96,-48.26C796.71,-38.97 780.36,-27.52 769.21,-19.7"/>
<polygon fill="#63b8ff" stroke="#63b8ff" points="807.92,-51.1 818.12,-53.97 811.94,-45.37 807.92,-51.1"/>
</a>
</g>
</g>
<!-- Node8 -->
<g id="Node000008" class="node">
<title>Node8</title>
<g id="a_Node000008"><a xlink:href="_gui_login_8cpp.html" target="_top" xlink:title=" ">
<polygon fill="white" stroke="#666666" points="1390.12,-19.25 1274.38,-19.25 1274.38,0 1390.12,0 1390.12,-19.25"/>
<text text-anchor="middle" x="1332.25" y="-5.75" font-family="Helvetica,sans-Serif" font-size="10.00">src/client/GuiLogin.cpp</text>
</a>
</g>
</g>
<!-- Node4&#45;&gt;Node8 -->
<g id="edge7_Node000004_Node000008" class="edge">
<title>Node4&#45;&gt;Node8</title>
<g id="a_edge7_Node000004_Node000008"><a xlink:title=" ">
<path fill="none" stroke="#63b8ff" d="M893.33,-58.07C977.22,-49.99 1132.79,-34.6 1265.25,-19.25 1268.16,-18.91 1271.15,-18.56 1274.16,-18.19"/>
<polygon fill="#63b8ff" stroke="#63b8ff" points="893.1,-54.58 883.48,-59.02 893.77,-61.55 893.1,-54.58"/>
</a>
</g>
</g>
<!-- Node9 -->
<g id="Node000009" class="node">
<title>Node9</title>
<g id="a_Node000009"><a xlink:href="_gui_menu_8cpp.html" target="_top" xlink:title=" ">
<polygon fill="white" stroke="#666666" points="949.5,-19.25 833,-19.25 833,0 949.5,0 949.5,-19.25"/>
<text text-anchor="middle" x="891.25" y="-5.75" font-family="Helvetica,sans-Serif" font-size="10.00">src/client/GuiMenu.cpp</text>
</a>
</g>
</g>
<!-- Node4&#45;&gt;Node9 -->
<g id="edge8_Node000004_Node000009" class="edge">
<title>Node4&#45;&gt;Node9</title>
<g id="a_edge8_Node000004_Node000009"><a xlink:title=" ">
<path fill="none" stroke="#63b8ff" d="M850.52,-47.39C860.71,-38.19 872.99,-27.1 881.39,-19.52"/>
<polygon fill="#63b8ff" stroke="#63b8ff" points="848.46,-44.53 843.38,-53.83 853.15,-49.73 848.46,-44.53"/>
</a>
</g>
</g>
<!-- Node10 -->
<g id="Node000010" class="node">
<title>Node10</title>
<g id="a_Node000010"><a xlink:href="_gui_option_8cpp.html" target="_top" xlink:title=" ">
<polygon fill="white" stroke="#666666" points="445.75,-19.25 324.75,-19.25 324.75,0 445.75,0 445.75,-19.25"/>
<text text-anchor="middle" x="385.25" y="-5.75" font-family="Helvetica,sans-Serif" font-size="10.00">src/client/GuiOption.cpp</text>
</a>
</g>
</g>
<!-- Node4&#45;&gt;Node10 -->
<g id="edge9_Node000004_Node000010" class="edge">
<title>Node4&#45;&gt;Node10</title>
<g id="a_edge9_Node000004_Node000010"><a xlink:title=" ">
<path fill="none" stroke="#63b8ff" d="M771.73,-55.56C770.9,-55.46 770.07,-55.35 769.25,-55.25 629.88,-37.72 594.74,-35.84 455.25,-19.25 452.21,-18.89 449.1,-18.52 445.95,-18.14"/>
<polygon fill="#63b8ff" stroke="#63b8ff" points="770.87,-58.98 781.24,-56.8 771.77,-52.04 770.87,-58.98"/>
</a>
</g>
</g>
<!-- Node4&#45;&gt;Node11 -->
<g id="edge10_Node000004_Node000011" class="edge">
<title>Node4&#45;&gt;Node11</title>
<g id="a_edge10_Node000004_Node000011"><a xlink:title=" ">
<path fill="none" stroke="#63b8ff" d="M892.86,-54.6C956.87,-44.81 1057.14,-29.46 1120.73,-19.73"/>
<polygon fill="#63b8ff" stroke="#63b8ff" points="892.59,-51.1 883.24,-56.07 893.65,-58.02 892.59,-51.1"/>
</a>
</g>
</g>
<!-- Node4&#45;&gt;Node12 -->
<g id="edge11_Node000004_Node000012" class="edge">
<title>Node4&#45;&gt;Node12</title>
<g id="a_edge11_Node000004_Node000012"><a xlink:title=" ">
<path fill="none" stroke="#63b8ff" d="M771.15,-60.02C629.83,-51.05 283.62,-28.86 167.25,-19.25 164.5,-19.02 161.69,-18.78 158.87,-18.54"/>
<polygon fill="#63b8ff" stroke="#63b8ff" points="770.86,-63.5 781.06,-60.64 771.3,-56.52 770.86,-63.5"/>
</a>
</g>
</g>
<!-- Node4&#45;&gt;Node13 -->
<g id="edge12_Node000004_Node000013" class="edge">
<title>Node4&#45;&gt;Node13</title>
<g id="a_edge12_Node000004_Node000013"><a xlink:title=" ">
<path fill="none" stroke="#63b8ff" d="M771.74,-55.52C770.9,-55.43 770.07,-55.34 769.25,-55.25 568.01,-33.51 516.7,-38.97 315.25,-19.25 312.42,-18.97 309.53,-18.68 306.61,-18.37"/>
<polygon fill="#63b8ff" stroke="#63b8ff" points="770.91,-58.95 781.26,-56.65 771.74,-52 770.91,-58.95"/>
</a>
</g>
</g>
<!-- Node14 -->
<g id="Node000014" class="node">
<title>Node14</title>
<g id="a_Node000014"><a xlink:href="client_2main_8cpp.html" target="_top" xlink:title=" ">
<polygon fill="white" stroke="#666666" points="562.5,-19.25 464,-19.25 464,0 562.5,0 562.5,-19.25"/>
<text text-anchor="middle" x="513.25" y="-5.75" font-family="Helvetica,sans-Serif" font-size="10.00">src/client/Main.cpp</text>
</a>
</g>
</g>
<!-- Node4&#45;&gt;Node14 -->
<g id="edge13_Node000004_Node000014" class="edge">
<title>Node4&#45;&gt;Node14</title>
<g id="a_edge13_Node000004_Node000014"><a xlink:title=" ">
<path fill="none" stroke="#63b8ff" d="M771.46,-53.73C710.93,-43.62 619.14,-28.3 562.86,-18.91"/>
<polygon fill="#63b8ff" stroke="#63b8ff" points="770.82,-57.17 781.26,-55.36 771.98,-50.27 770.82,-57.17"/>
</a>
</g>
</g>
<!-- Node17 -->
<g id="Node000017" class="node">
<title>Node17</title>
<g id="a_Node000017"><a xlink:href="_server_game_8cpp.html" target="_top" xlink:title=" ">
<polygon fill="white" stroke="#666666" points="1664.25,-19.25 1528.25,-19.25 1528.25,0 1664.25,0 1664.25,-19.25"/>
<text text-anchor="middle" x="1596.25" y="-5.75" font-family="Helvetica,sans-Serif" font-size="10.00">src/server/ServerGame.cpp</text>
</a>
</g>
</g>
<!-- Node16&#45;&gt;Node17 -->
<g id="edge21_Node000016_Node000017" class="edge">
<title>Node16&#45;&gt;Node17</title>
<g id="a_edge21_Node000016_Node000017"><a xlink:title=" ">
<path fill="none" stroke="#63b8ff" d="M1487.28,-50.92C1513.42,-41.25 1548.49,-28.29 1571.7,-19.7"/>
<polygon fill="#63b8ff" stroke="#63b8ff" points="1486.26,-47.57 1478.1,-54.32 1488.69,-54.13 1486.26,-47.57"/>
</a>
</g>
</g>
<!-- Node18 -->
<g id="Node000018" class="node">
<title>Node18</title>
<g id="a_Node000018"><a xlink:href="server_2main_8cpp.html" target="_top" xlink:title=" ">
<polygon fill="white" stroke="#666666" points="1510.38,-19.25 1408.12,-19.25 1408.12,0 1510.38,0 1510.38,-19.25"/>
<text text-anchor="middle" x="1459.25" y="-5.75" font-family="Helvetica,sans-Serif" font-size="10.00">src/server/main.cpp</text>
</a>
</g>
</g>
<!-- Node16&#45;&gt;Node18 -->
<g id="edge22_Node000016_Node000018" class="edge">
<title>Node16&#45;&gt;Node18</title>
<g id="a_edge22_Node000016_Node000018"><a xlink:title=" ">
<path fill="none" stroke="#63b8ff" d="M1454.87,-43.92C1455.97,-35.55 1457.2,-26.25 1458.07,-19.61"/>
<polygon fill="#63b8ff" stroke="#63b8ff" points="1451.44,-43.21 1453.6,-53.58 1458.38,-44.12 1451.44,-43.21"/>
</a>
</g>
</g>
<!-- Node19&#45;&gt;Node4 -->
<g id="edge24_Node000019_Node000004" class="edge">
<title>Node19&#45;&gt;Node4</title>
<g id="a_edge24_Node000019_Node000004"><a xlink:title=" ">
<path fill="none" stroke="#63b8ff" d="M998.82,-107.32C959.56,-97.55 904.61,-83.88 868.73,-74.95"/>
<polygon fill="#63b8ff" stroke="#63b8ff" points="997.93,-110.71 1008.48,-109.73 999.62,-103.92 997.93,-110.71"/>
</a>
</g>
</g>
<!-- Node19&#45;&gt;Node6 -->
<g id="edge25_Node000019_Node000006" class="edge">
<title>Node19&#45;&gt;Node6</title>
<g id="a_edge25_Node000019_Node000006"><a xlink:title=" ">
<path fill="none" stroke="#63b8ff" d="M1025.09,-102.78C1016.95,-95.18 1008.57,-85.39 1004.25,-74.5 996.52,-55 1010.66,-31.73 1019.99,-19.37"/>
<polygon fill="#63b8ff" stroke="#63b8ff" points="1022.63,-105.28 1032.49,-109.15 1027.19,-99.97 1022.63,-105.28"/>
</a>
</g>
</g>
<!-- Node19&#45;&gt;Node8 -->
<g id="edge26_Node000019_Node000008" class="edge">
<title>Node19&#45;&gt;Node8</title>
<g id="a_edge26_Node000019_Node000008"><a xlink:title=" ">
<path fill="none" stroke="#63b8ff" d="M1088.92,-106.94C1117.1,-98.56 1154.7,-86.78 1187.25,-74.5 1233.58,-57.02 1286.44,-32.54 1313.75,-19.55"/>
<polygon fill="#63b8ff" stroke="#63b8ff" points="1088.28,-103.47 1079.68,-109.65 1090.26,-110.19 1088.28,-103.47"/>
</a>
</g>
</g>
<!-- Node19&#45;&gt;Node11 -->
<g id="edge27_Node000019_Node000011" class="edge">
<title>Node19&#45;&gt;Node11</title>
<g id="a_edge27_Node000019_Node000011"><a xlink:title=" ">
<path fill="none" stroke="#63b8ff" d="M1117.15,-106.67C1136.21,-100.07 1155.15,-89.96 1168.25,-74.5 1181.53,-58.83 1181.99,-33.16 1181.15,-19.62"/>
<polygon fill="#63b8ff" stroke="#63b8ff" points="1116.21,-103.3 1107.72,-109.63 1118.31,-109.98 1116.21,-103.3"/>
</a>
</g>
</g>
<!-- Node19&#45;&gt;Node12 -->
<g id="edge28_Node000019_Node000012" class="edge">
<title>Node19&#45;&gt;Node12</title>
<g id="a_edge28_Node000019_Node000012"><a xlink:title=" ">
<path fill="none" stroke="#63b8ff" d="M961.46,-113.83C892.41,-108.12 792.86,-96.68 708.25,-74.5 686.02,-68.67 682.64,-60.43 660.25,-55.25 446.2,-5.77 386.15,-37.97 167.25,-19.25 164.5,-19.01 161.7,-18.77 158.87,-18.52"/>
<polygon fill="#63b8ff" stroke="#63b8ff" points="960.95,-117.3 971.2,-114.61 961.51,-110.32 960.95,-117.3"/>
</a>
</g>
</g>
<!-- Node19&#45;&gt;Node13 -->
<g id="edge29_Node000019_Node000013" class="edge">
<title>Node19&#45;&gt;Node13</title>
<g id="a_edge29_Node000019_Node000013"><a xlink:title=" ">
<path fill="none" stroke="#63b8ff" d="M962.57,-108.45C908.48,-100.8 836.75,-89.26 774.25,-74.5 746.17,-67.87 740.55,-60.86 712.25,-55.25 538.46,-20.79 491.48,-37.51 315.25,-19.25 312.42,-18.96 309.53,-18.65 306.61,-18.33"/>
<polygon fill="#63b8ff" stroke="#63b8ff" points="961.95,-111.9 972.34,-109.82 962.92,-104.97 961.95,-111.9"/>
</a>
</g>
</g>
<!-- Node19&#45;&gt;Node16 -->
<g id="edge30_Node000019_Node000016" class="edge">
<title>Node19&#45;&gt;Node16</title>
<g id="a_edge30_Node000019_Node000016"><a xlink:title=" ">
<path fill="none" stroke="#63b8ff" d="M1126.87,-108.55C1202.04,-98.69 1312.93,-84.15 1383.88,-74.84"/>
<polygon fill="#63b8ff" stroke="#63b8ff" points="1126.54,-105.06 1117.08,-109.83 1127.45,-112 1126.54,-105.06"/>
</a>
</g>
</g>
<!-- Node19&#45;&gt;Node18 -->
<g id="edge32_Node000019_Node000018" class="edge">
<title>Node19&#45;&gt;Node18</title>
<g id="a_edge32_Node000019_Node000018"><a xlink:title=" ">
<path fill="none" stroke="#63b8ff" d="M1093.96,-107.33C1129.62,-98.47 1179.54,-85.93 1223.25,-74.5 1295.94,-55.5 1380.93,-32.24 1426.46,-19.69"/>
<polygon fill="#63b8ff" stroke="#63b8ff" points="1093.24,-103.91 1084.38,-109.71 1094.93,-110.7 1093.24,-103.91"/>
</a>
</g>
</g>
<!-- Node20 -->
<g id="Node000020" class="node">
<title>Node20</title>
<g id="a_Node000020"><a xlink:href="_server_network_8cpp.html" target="_top" xlink:title=" ">
<polygon fill="white" stroke="#666666" points="1159.5,-74.5 1013,-74.5 1013,-55.25 1159.5,-55.25 1159.5,-74.5"/>
<text text-anchor="middle" x="1086.25" y="-61" font-family="Helvetica,sans-Serif" font-size="10.00">src/server/ServerNetwork.cpp</text>
</a>
</g>
</g>
<!-- Node19&#45;&gt;Node20 -->
<g id="edge31_Node000019_Node000020" class="edge">
<title>Node19&#45;&gt;Node20</title>
<g id="a_edge31_Node000019_Node000020"><a xlink:title=" ">
<path fill="none" stroke="#63b8ff" d="M1059.72,-101.19C1066.37,-92.34 1074.11,-82.04 1079.5,-74.86"/>
<polygon fill="#63b8ff" stroke="#63b8ff" points="1056.97,-99.02 1053.76,-109.12 1062.57,-103.23 1056.97,-99.02"/>
</a>
</g>
</g>
</g>
</svg>
