<?xml version="1.0" encoding="UTF-8" standalone="no"?>
<!DOCTYPE svg PUBLIC "-//W3C//DTD SVG 1.1//EN"
 "http://www.w3.org/Graphics/SVG/1.1/DTD/svg11.dtd">
<!-- Generated by graphviz version 12.2.1 (20241206.2353)
 -->
<!-- Title: src/server/Mediator.cpp Pages: 1 -->
<!--zoomable 304 -->

<svg id="main" version="1.1" xmlns="http://www.w3.org/2000/svg" xmlns:xlink="http://www.w3.org/1999/xlink" xml:space="preserve" onload="init(evt)">

<style type="text/css"><![CDATA[
.node, .edge {opacity: 0.7;}
.node.selected, .edge.selected {opacity: 1;}
.edge:hover path { stroke: red; }
.edge:hover polygon { stroke: red; fill: red; }
]]></style>

<defs>
  <circle id="rim" cx="0" cy="0" r="7"/>
  <circle id="rim2" cx="0" cy="0" r="3.5"/>
  <g id="zoomPlus">
    <use xlink:href="#rim" fill="#404040"><set attributeName="fill" to="#808080" begin="zoomplus.mouseover" end="zoomplus.mouseout"/></use>
    <path d="M-4,0h8M0,-4v8" fill="none" stroke="white" stroke-width="1.5" pointer-events="none"/>
  </g>
  <g id="zoomMin">
    <use xlink:href="#rim" fill="#404040"><set attributeName="fill" to="#808080" begin="zoomminus.mouseover" end="zoomminus.mouseout"/></use>
    <path d="M-4,0h8" fill="none" stroke="white" stroke-width="1.5" pointer-events="none"/>
  </g>
  <g id="arrowUp" transform="translate(30 24)">
    <use xlink:href="#rim"/>
    <path pointer-events="none" fill="none" stroke="white" stroke-width="1.5" d="M0,-3.0v7 M-2.5,-0.5L0,-3.0L2.5,-0.5"/>
  </g>
  <g id="arrowRight" transform="rotate(90) translate(36 -43)">
    <use xlink:href="#rim"/>
    <path pointer-events="none" fill="none" stroke="white" stroke-width="1.5" d="M0,-3.0v7 M-2.5,-0.5L0,-3.0L2.5,-0.5"/>
  </g>
  <g id="arrowDown" transform="rotate(180) translate(-30 -48)">
    <use xlink:href="#rim"/>
    <path pointer-events="none" fill="none" stroke="white" stroke-width="1.5" d="M0,-3.0v7 M-2.5,-0.5L0,-3.0L2.5,-0.5"/>
  </g>
  <g id="arrowLeft" transform="rotate(270) translate(-36 17)">
    <use xlink:href="#rim"/>
    <path pointer-events="none" fill="none" stroke="white" stroke-width="1.5" d="M0,-3.0v7 M-2.5,-0.5L0,-3.0L2.5,-0.5"/>
  </g>
  <g id="resetDef">
    <use xlink:href="#rim2" fill="#404040"><set attributeName="fill" to="#808080" begin="reset.mouseover" end="reset.mouseout"/></use>
  </g>
</defs>
<script type="application/ecmascript">
var viewWidth = 1082;
var viewHeight = 304;
var sectionId = 'dynsection-0';
</script>
<script type="application/ecmascript" xlink:href="svg.min.js"/>
<svg id="graph" class="graph">
<g id="viewport">
<title>src/server/Mediator.cpp</title>
<!-- Node1 -->
<g id="Node000001" class="node">
<title>Node1</title>
<g id="a_Node000001"><a xlink:title=" ">
<polygon fill="#999999" stroke="#666666" points="503.5,-295.5 385.5,-295.5 385.5,-276.25 503.5,-276.25 503.5,-295.5"/>
<text text-anchor="middle" x="444.5" y="-282" font-family="Helvetica,sans-Serif" font-size="10.00">src/server/Mediator.cpp</text>
</a>
</g>
</g>
<!-- Node2 -->
<g id="Node000002" class="node">
<title>Node2</title>
<g id="a_Node000002"><a xlink:href="_mediator_8hpp.html" target="_top" xlink:title=" ">
<polygon fill="white" stroke="#666666" points="480.25,-240.25 408.75,-240.25 408.75,-221 480.25,-221 480.25,-240.25"/>
<text text-anchor="middle" x="444.5" y="-226.75" font-family="Helvetica,sans-Serif" font-size="10.00">Mediator.hpp</text>
</a>
</g>
</g>
<!-- Node1&#45;&gt;Node2 -->
<g id="edge1_Node000001_Node000002" class="edge">
<title>Node1&#45;&gt;Node2</title>
<g id="a_edge1_Node000001_Node000002"><a xlink:title=" ">
<path fill="none" stroke="#63b8ff" d="M444.5,-276.08C444.5,-269.57 444.5,-260.42 444.5,-252.12"/>
<polygon fill="#63b8ff" stroke="#63b8ff" points="448,-252.12 444.5,-242.12 441,-252.12 448,-252.12"/>
</a>
</g>
</g>
<!-- Node3 -->
<g id="Node000003" class="node">
<title>Node3</title>
<g id="a_Node000003"><a xlink:href="_systems_8hpp.html" target="_top" xlink:title=" ">
<polygon fill="white" stroke="#666666" points="302.88,-185 220.12,-185 220.12,-165.75 302.88,-165.75 302.88,-185"/>
<text text-anchor="middle" x="261.5" y="-171.5" font-family="Helvetica,sans-Serif" font-size="10.00">../Systems.hpp</text>
</a>
</g>
</g>
<!-- Node2&#45;&gt;Node3 -->
<g id="edge2_Node000002_Node000003" class="edge">
<title>Node2&#45;&gt;Node3</title>
<g id="a_edge2_Node000002_Node000003"><a xlink:title=" ">
<path fill="none" stroke="#63b8ff" d="M408.68,-220.71C376.8,-211.97 330.54,-198.57 298.36,-188.79"/>
<polygon fill="#63b8ff" stroke="#63b8ff" points="299.64,-185.52 289.06,-185.94 297.59,-192.22 299.64,-185.52"/>
</a>
</g>
</g>
<!-- Node7 -->
<g id="Node000007" class="node">
<title>Node7</title>
<g id="a_Node000007"><a xlink:title=" ">
<polygon fill="#e0e0e0" stroke="#999999" points="378.5,-74.5 338.5,-74.5 338.5,-55.25 378.5,-55.25 378.5,-74.5"/>
<text text-anchor="middle" x="358.5" y="-61" font-family="Helvetica,sans-Serif" font-size="10.00">string</text>
</a>
</g>
</g>
<!-- Node2&#45;&gt;Node7 -->
<g id="edge35_Node000002_Node000007" class="edge">
<title>Node2&#45;&gt;Node7</title>
<g id="a_edge35_Node000002_Node000007"><a xlink:title=" ">
<path fill="none" stroke="#63b8ff" d="M430.09,-220.74C418.32,-212.76 402.13,-200.03 392.5,-185 372.64,-154 364.14,-111.2 360.68,-86.24"/>
<polygon fill="#63b8ff" stroke="#63b8ff" points="364.18,-85.97 359.49,-76.47 357.23,-86.82 364.18,-85.97"/>
</a>
</g>
</g>
<!-- Node8 -->
<g id="Node000008" class="node">
<title>Node8</title>
<g id="a_Node000008"><a xlink:title=" ">
<polygon fill="#e0e0e0" stroke="#999999" points="432,-19.25 389,-19.25 389,0 432,0 432,-19.25"/>
<text text-anchor="middle" x="410.5" y="-5.75" font-family="Helvetica,sans-Serif" font-size="10.00">vector</text>
</a>
</g>
</g>
<!-- Node2&#45;&gt;Node8 -->
<g id="edge36_Node000002_Node000008" class="edge">
<title>Node2&#45;&gt;Node8</title>
<g id="a_edge36_Node000002_Node000008"><a xlink:title=" ">
<path fill="none" stroke="#63b8ff" d="M441.75,-220.82C439.04,-211.88 434.98,-197.6 432.5,-185 421.64,-129.74 415,-63.52 412.15,-30.87"/>
<polygon fill="#63b8ff" stroke="#63b8ff" points="415.63,-30.58 411.31,-20.91 408.66,-31.17 415.63,-30.58"/>
</a>
</g>
</g>
<!-- Node10 -->
<g id="Node000010" class="node">
<title>Node10</title>
<g id="a_Node000010"><a xlink:href="_registry_8hpp.html" target="_top" xlink:title=" ">
<polygon fill="white" stroke="#666666" points="692.5,-129.75 622.5,-129.75 622.5,-110.5 692.5,-110.5 692.5,-129.75"/>
<text text-anchor="middle" x="657.5" y="-116.25" font-family="Helvetica,sans-Serif" font-size="10.00">Registry.hpp</text>
</a>
</g>
</g>
<!-- Node2&#45;&gt;Node10 -->
<g id="edge29_Node000002_Node000010" class="edge">
<title>Node2&#45;&gt;Node10</title>
<g id="a_edge29_Node000002_Node000010"><a xlink:title=" ">
<path fill="none" stroke="#63b8ff" d="M462.29,-220.56C499.33,-201.69 584.97,-158.07 629.48,-135.4"/>
<polygon fill="#63b8ff" stroke="#63b8ff" points="630.94,-138.58 638.26,-130.93 627.76,-132.35 630.94,-138.58"/>
</a>
</g>
</g>
<!-- Node21 -->
<g id="Node000021" class="node">
<title>Node21</title>
<g id="a_Node000021"><a xlink:title=" ">
<polygon fill="#e0e0e0" stroke="#999999" points="987.25,-19.25 933.75,-19.25 933.75,0 987.25,0 987.25,-19.25"/>
<text text-anchor="middle" x="960.5" y="-5.75" font-family="Helvetica,sans-Serif" font-size="10.00">iostream</text>
</a>
</g>
</g>
<!-- Node2&#45;&gt;Node21 -->
<g id="edge34_Node000002_Node000021" class="edge">
<title>Node2&#45;&gt;Node21</title>
<g id="a_edge34_Node000002_Node000021"><a xlink:title=" ">
<path fill="none" stroke="#63b8ff" d="M480.55,-224.73C563.09,-212.11 769.42,-172.3 909.5,-74.5 926.56,-62.59 940.81,-43.37 949.87,-29.12"/>
<polygon fill="#63b8ff" stroke="#63b8ff" points="952.79,-31.06 954.96,-20.69 946.8,-27.44 952.79,-31.06"/>
</a>
</g>
</g>
<!-- Node23 -->
<g id="Node000023" class="node">
<title>Node23</title>
<g id="a_Node000023"><a xlink:href="_i_sender_8hpp.html" target="_top" xlink:title=" ">
<polygon fill="white" stroke="#666666" points="509.38,-185 441.62,-185 441.62,-165.75 509.38,-165.75 509.38,-185"/>
<text text-anchor="middle" x="475.5" y="-171.5" font-family="Helvetica,sans-Serif" font-size="10.00">ISender.hpp</text>
</a>
</g>
</g>
<!-- Node2&#45;&gt;Node23 -->
<g id="edge30_Node000002_Node000023" class="edge">
<title>Node2&#45;&gt;Node23</title>
<g id="a_edge30_Node000002_Node000023"><a xlink:title=" ">
<path fill="none" stroke="#63b8ff" d="M449.62,-220.83C453.68,-213.86 459.49,-203.87 464.59,-195.12"/>
<polygon fill="#63b8ff" stroke="#63b8ff" points="467.5,-197.07 469.51,-186.67 461.45,-193.55 467.5,-197.07"/>
</a>
</g>
</g>
<!-- Node24 -->
<g id="Node000024" class="node">
<title>Node24</title>
<g id="a_Node000024"><a xlink:title=" ">
<polygon fill="#e0e0e0" stroke="#999999" points="1074.38,-129.75 994.62,-129.75 994.62,-110.5 1074.38,-110.5 1074.38,-129.75"/>
<text text-anchor="middle" x="1034.5" y="-116.25" font-family="Helvetica,sans-Serif" font-size="10.00">boost/asio.hpp</text>
</a>
</g>
</g>
<!-- Node2&#45;&gt;Node24 -->
<g id="edge37_Node000002_Node000024" class="edge">
<title>Node2&#45;&gt;Node24</title>
<g id="a_edge37_Node000002_Node000024"><a xlink:title=" ">
<path fill="none" stroke="#63b8ff" d="M480.43,-228.78C579.93,-226.08 857.33,-215.91 942.5,-185 971.19,-174.59 999.28,-152.94 1016.72,-137.74"/>
<polygon fill="#63b8ff" stroke="#63b8ff" points="1019.03,-140.37 1024.13,-131.08 1014.35,-135.17 1019.03,-140.37"/>
</a>
</g>
</g>
<!-- Node3&#45;&gt;Node2 -->
<g id="edge28_Node000003_Node000002" class="edge">
<title>Node3&#45;&gt;Node2</title>
<g id="a_edge28_Node000003_Node000002"><a xlink:title=" ">
<path fill="none" stroke="#63b8ff" d="M297.92,-185.45C329.9,-194.23 376,-207.59 407.99,-217.32"/>
<polygon fill="#63b8ff" stroke="#63b8ff" points="406.64,-220.56 417.23,-220.15 408.69,-213.87 406.64,-220.56"/>
</a>
</g>
</g>
<!-- Node4 -->
<g id="Node000004" class="node">
<title>Node4</title>
<g id="a_Node000004"><a xlink:href="_components_8hpp.html" target="_top" xlink:title=" ">
<polygon fill="white" stroke="#666666" points="296.62,-129.75 206.38,-129.75 206.38,-110.5 296.62,-110.5 296.62,-129.75"/>
<text text-anchor="middle" x="251.5" y="-116.25" font-family="Helvetica,sans-Serif" font-size="10.00">Components.hpp</text>
</a>
</g>
</g>
<!-- Node3&#45;&gt;Node4 -->
<g id="edge3_Node000003_Node000004" class="edge">
<title>Node3&#45;&gt;Node4</title>
<g id="a_edge3_Node000003_Node000004"><a xlink:title=" ">
<path fill="none" stroke="#63b8ff" d="M259.85,-165.58C258.61,-158.99 256.87,-149.71 255.29,-141.32"/>
<polygon fill="#63b8ff" stroke="#63b8ff" points="258.75,-140.78 253.47,-131.6 251.87,-142.07 258.75,-140.78"/>
</a>
</g>
</g>
<!-- Node5 -->
<g id="Node000005" class="node">
<title>Node5</title>
<g id="a_Node000005"><a xlink:title=" ">
<polygon fill="#e0e0e0" stroke="#999999" points="103,-74.5 0,-74.5 0,-55.25 103,-55.25 103,-74.5"/>
<text text-anchor="middle" x="51.5" y="-61" font-family="Helvetica,sans-Serif" font-size="10.00">SFML/Graphics.hpp</text>
</a>
</g>
</g>
<!-- Node3&#45;&gt;Node5 -->
<g id="edge25_Node000003_Node000005" class="edge">
<title>Node3&#45;&gt;Node5</title>
<g id="a_edge25_Node000003_Node000005"><a xlink:title=" ">
<path fill="none" stroke="#63b8ff" d="M243.96,-165.31C207.44,-146.44 123.01,-102.82 79.12,-80.15"/>
<polygon fill="#63b8ff" stroke="#63b8ff" points="80.98,-77.17 70.49,-75.68 77.76,-83.38 80.98,-77.17"/>
</a>
</g>
</g>
<!-- Node6 -->
<g id="Node000006" class="node">
<title>Node6</title>
<g id="a_Node000006"><a xlink:title=" ">
<polygon fill="#e0e0e0" stroke="#999999" points="218.38,-74.5 120.62,-74.5 120.62,-55.25 218.38,-55.25 218.38,-74.5"/>
<text text-anchor="middle" x="169.5" y="-61" font-family="Helvetica,sans-Serif" font-size="10.00">SFML/Window.hpp</text>
</a>
</g>
</g>
<!-- Node3&#45;&gt;Node6 -->
<g id="edge26_Node000003_Node000006" class="edge">
<title>Node3&#45;&gt;Node6</title>
<g id="a_edge26_Node000003_Node000006"><a xlink:title=" ">
<path fill="none" stroke="#63b8ff" d="M243.45,-165.36C229.36,-157.57 210.14,-145.14 197.5,-129.75 186.91,-116.85 179.61,-99.33 175.12,-85.9"/>
<polygon fill="#63b8ff" stroke="#63b8ff" points="178.49,-84.96 172.22,-76.42 171.8,-87 178.49,-84.96"/>
</a>
</g>
</g>
<!-- Node3&#45;&gt;Node10 -->
<g id="edge9_Node000003_Node000010" class="edge">
<title>Node3&#45;&gt;Node10</title>
<g id="a_edge9_Node000003_Node000010"><a xlink:title=" ">
<path fill="none" stroke="#63b8ff" d="M303.13,-168.78C377.55,-158.77 532.88,-137.88 610.81,-127.4"/>
<polygon fill="#63b8ff" stroke="#63b8ff" points="611.23,-130.88 620.68,-126.08 610.3,-123.94 611.23,-130.88"/>
</a>
</g>
</g>
<!-- Node16 -->
<g id="Node000016" class="node">
<title>Node16</title>
<g id="a_Node000016"><a xlink:href="_sparse_array_8hpp.html" target="_top" xlink:title=" ">
<polygon fill="white" stroke="#666666" points="598.12,-74.5 510.88,-74.5 510.88,-55.25 598.12,-55.25 598.12,-74.5"/>
<text text-anchor="middle" x="554.5" y="-61" font-family="Helvetica,sans-Serif" font-size="10.00">SparseArray.hpp</text>
</a>
</g>
</g>
<!-- Node3&#45;&gt;Node16 -->
<g id="edge24_Node000003_Node000016" class="edge">
<title>Node3&#45;&gt;Node16</title>
<g id="a_edge24_Node000003_Node000016"><a xlink:title=" ">
<path fill="none" stroke="#63b8ff" d="M285.98,-165.31C337.9,-146.08 459.23,-101.15 519.4,-78.87"/>
<polygon fill="#63b8ff" stroke="#63b8ff" points="520.3,-82.27 528.47,-75.52 517.87,-75.71 520.3,-82.27"/>
</a>
</g>
</g>
<!-- Node3&#45;&gt;Node21 -->
<g id="edge27_Node000003_Node000021" class="edge">
<title>Node3&#45;&gt;Node21</title>
<g id="a_edge27_Node000003_Node000021"><a xlink:title=" ">
<path fill="none" stroke="#63b8ff" d="M302.95,-172.41C429.48,-165.72 808.34,-140.53 909.5,-74.5 926.92,-63.13 941.12,-43.83 950.07,-29.41"/>
<polygon fill="#63b8ff" stroke="#63b8ff" points="953.04,-31.25 955.09,-20.86 947.01,-27.71 953.04,-31.25"/>
</a>
</g>
</g>
<!-- Node4&#45;&gt;Node5 -->
<g id="edge4_Node000004_Node000005" class="edge">
<title>Node4&#45;&gt;Node5</title>
<g id="a_edge4_Node000004_Node000005"><a xlink:title=" ">
<path fill="none" stroke="#63b8ff" d="M217.57,-110.09C184.24,-101.22 133.19,-87.62 96.49,-77.85"/>
<polygon fill="#63b8ff" stroke="#63b8ff" points="97.62,-74.53 87.06,-75.34 95.82,-81.3 97.62,-74.53"/>
</a>
</g>
</g>
<!-- Node4&#45;&gt;Node6 -->
<g id="edge5_Node000004_Node000006" class="edge">
<title>Node4&#45;&gt;Node6</title>
<g id="a_edge5_Node000004_Node000006"><a xlink:title=" ">
<path fill="none" stroke="#63b8ff" d="M237.59,-110.09C225.34,-102.14 207.25,-90.39 192.79,-81"/>
<polygon fill="#63b8ff" stroke="#63b8ff" points="195.04,-78.29 184.75,-75.78 191.23,-84.16 195.04,-78.29"/>
</a>
</g>
</g>
<!-- Node4&#45;&gt;Node7 -->
<g id="edge6_Node000004_Node000007" class="edge">
<title>Node4&#45;&gt;Node7</title>
<g id="a_edge6_Node000004_Node000007"><a xlink:title=" ">
<path fill="none" stroke="#63b8ff" d="M269.65,-110.09C286.18,-101.87 310.84,-89.59 330,-80.06"/>
<polygon fill="#63b8ff" stroke="#63b8ff" points="331.51,-83.22 338.9,-75.63 328.39,-76.95 331.51,-83.22"/>
</a>
</g>
</g>
<!-- Node4&#45;&gt;Node8 -->
<g id="edge7_Node000004_Node000008" class="edge">
<title>Node4&#45;&gt;Node8</title>
<g id="a_edge7_Node000004_Node000008"><a xlink:title=" ">
<path fill="none" stroke="#63b8ff" d="M250.83,-110.01C250.33,-96.32 251.51,-70.45 265.5,-55.25 294.18,-24.1 344.02,-14.47 377.13,-11.62"/>
<polygon fill="#63b8ff" stroke="#63b8ff" points="377.25,-15.12 386.99,-10.95 376.78,-8.14 377.25,-15.12"/>
</a>
</g>
</g>
<!-- Node9 -->
<g id="Node000009" class="node">
<title>Node9</title>
<g id="a_Node000009"><a xlink:title=" ">
<polygon fill="#e0e0e0" stroke="#999999" points="320.12,-74.5 274.88,-74.5 274.88,-55.25 320.12,-55.25 320.12,-74.5"/>
<text text-anchor="middle" x="297.5" y="-61" font-family="Helvetica,sans-Serif" font-size="10.00">chrono</text>
</a>
</g>
</g>
<!-- Node4&#45;&gt;Node9 -->
<g id="edge8_Node000004_Node000009" class="edge">
<title>Node4&#45;&gt;Node9</title>
<g id="a_edge8_Node000004_Node000009"><a xlink:title=" ">
<path fill="none" stroke="#63b8ff" d="M259.1,-110.33C265.38,-103.05 274.51,-92.48 282.3,-83.48"/>
<polygon fill="#63b8ff" stroke="#63b8ff" points="284.86,-85.86 288.75,-76 279.56,-81.28 284.86,-85.86"/>
</a>
</g>
</g>
<!-- Node11 -->
<g id="Node000011" class="node">
<title>Node11</title>
<g id="a_Node000011"><a xlink:title=" ">
<polygon fill="#e0e0e0" stroke="#999999" points="698.88,-74.5 616.12,-74.5 616.12,-55.25 698.88,-55.25 698.88,-74.5"/>
<text text-anchor="middle" x="657.5" y="-61" font-family="Helvetica,sans-Serif" font-size="10.00">unordered_map</text>
</a>
</g>
</g>
<!-- Node10&#45;&gt;Node11 -->
<g id="edge10_Node000010_Node000011" class="edge">
<title>Node10&#45;&gt;Node11</title>
<g id="a_edge10_Node000010_Node000011"><a xlink:title=" ">
<path fill="none" stroke="#63b8ff" d="M657.5,-110.33C657.5,-103.82 657.5,-94.67 657.5,-86.37"/>
<polygon fill="#63b8ff" stroke="#63b8ff" points="661,-86.37 657.5,-76.37 654,-86.37 661,-86.37"/>
</a>
</g>
</g>
<!-- Node12 -->
<g id="Node000012" class="node">
<title>Node12</title>
<g id="a_Node000012"><a xlink:title=" ">
<polygon fill="#e0e0e0" stroke="#999999" points="748.38,-74.5 716.62,-74.5 716.62,-55.25 748.38,-55.25 748.38,-74.5"/>
<text text-anchor="middle" x="732.5" y="-61" font-family="Helvetica,sans-Serif" font-size="10.00">any</text>
</a>
</g>
</g>
<!-- Node10&#45;&gt;Node12 -->
<g id="edge11_Node000010_Node000012" class="edge">
<title>Node10&#45;&gt;Node12</title>
<g id="a_edge11_Node000010_Node000012"><a xlink:title=" ">
<path fill="none" stroke="#63b8ff" d="M670.22,-110.09C681.21,-102.29 697.34,-90.84 710.43,-81.54"/>
<polygon fill="#63b8ff" stroke="#63b8ff" points="712.35,-84.47 718.48,-75.83 708.3,-78.76 712.35,-84.47"/>
</a>
</g>
</g>
<!-- Node13 -->
<g id="Node000013" class="node">
<title>Node13</title>
<g id="a_Node000013"><a xlink:title=" ">
<polygon fill="#e0e0e0" stroke="#999999" points="824.5,-74.5 766.5,-74.5 766.5,-55.25 824.5,-55.25 824.5,-74.5"/>
<text text-anchor="middle" x="795.5" y="-61" font-family="Helvetica,sans-Serif" font-size="10.00">functional</text>
</a>
</g>
</g>
<!-- Node10&#45;&gt;Node13 -->
<g id="edge12_Node000010_Node000013" class="edge">
<title>Node10&#45;&gt;Node13</title>
<g id="a_edge12_Node000010_Node000013"><a xlink:title=" ">
<path fill="none" stroke="#63b8ff" d="M680.91,-110.09C703.02,-101.56 736.42,-88.67 761.47,-79.01"/>
<polygon fill="#63b8ff" stroke="#63b8ff" points="762.49,-82.36 770.56,-75.5 759.97,-75.83 762.49,-82.36"/>
</a>
</g>
</g>
<!-- Node14 -->
<g id="Node000014" class="node">
<title>Node14</title>
<g id="a_Node000014"><a xlink:title=" ">
<polygon fill="#e0e0e0" stroke="#999999" points="900.5,-74.5 842.5,-74.5 842.5,-55.25 900.5,-55.25 900.5,-74.5"/>
<text text-anchor="middle" x="871.5" y="-61" font-family="Helvetica,sans-Serif" font-size="10.00">typeindex</text>
</a>
</g>
</g>
<!-- Node10&#45;&gt;Node14 -->
<g id="edge13_Node000010_Node000014" class="edge">
<title>Node10&#45;&gt;Node14</title>
<g id="a_edge13_Node000010_Node000014"><a xlink:title=" ">
<path fill="none" stroke="#63b8ff" d="M692.84,-110.33C730.87,-100.87 791.26,-85.84 831.14,-75.92"/>
<polygon fill="#63b8ff" stroke="#63b8ff" points="831.98,-79.32 840.84,-73.51 830.29,-72.52 831.98,-79.32"/>
</a>
</g>
</g>
<!-- Node15 -->
<g id="Node000015" class="node">
<title>Node15</title>
<g id="a_Node000015"><a xlink:title=" ">
<polygon fill="#e0e0e0" stroke="#999999" points="511.88,-19.25 453.12,-19.25 453.12,0 511.88,0 511.88,-19.25"/>
<text text-anchor="middle" x="482.5" y="-5.75" font-family="Helvetica,sans-Serif" font-size="10.00">stdexcept</text>
</a>
</g>
</g>
<!-- Node10&#45;&gt;Node15 -->
<g id="edge14_Node000010_Node000015" class="edge">
<title>Node10&#45;&gt;Node15</title>
<g id="a_edge14_Node000010_Node000015"><a xlink:title=" ">
<path fill="none" stroke="#63b8ff" d="M622.31,-118.43C587.13,-115.83 533.74,-106.4 501.5,-74.5 489.91,-63.04 485.33,-44.85 483.54,-30.8"/>
<polygon fill="#63b8ff" stroke="#63b8ff" points="487.03,-30.56 482.7,-20.9 480.06,-31.16 487.03,-30.56"/>
</a>
</g>
</g>
<!-- Node10&#45;&gt;Node16 -->
<g id="edge15_Node000010_Node000016" class="edge">
<title>Node10&#45;&gt;Node16</title>
<g id="a_edge15_Node000010_Node000016"><a xlink:title=" ">
<path fill="none" stroke="#63b8ff" d="M640.03,-110.09C624.19,-101.91 600.59,-89.71 582.19,-80.19"/>
<polygon fill="#63b8ff" stroke="#63b8ff" points="583.89,-77.13 573.4,-75.65 580.68,-83.35 583.89,-77.13"/>
</a>
</g>
</g>
<!-- Node20 -->
<g id="Node000020" class="node">
<title>Node20</title>
<g id="a_Node000020"><a xlink:href="_entity_8hpp.html" target="_top" xlink:title=" ">
<polygon fill="white" stroke="#666666" points="1052.88,-74.5 994.12,-74.5 994.12,-55.25 1052.88,-55.25 1052.88,-74.5"/>
<text text-anchor="middle" x="1023.5" y="-61" font-family="Helvetica,sans-Serif" font-size="10.00">Entity.hpp</text>
</a>
</g>
</g>
<!-- Node10&#45;&gt;Node20 -->
<g id="edge21_Node000010_Node000020" class="edge">
<title>Node10&#45;&gt;Node20</title>
<g id="a_edge21_Node000010_Node000020"><a xlink:title=" ">
<path fill="none" stroke="#63b8ff" d="M692.93,-113.97C761.07,-104.06 910.06,-82.38 982.42,-71.85"/>
<polygon fill="#63b8ff" stroke="#63b8ff" points="982.88,-75.32 992.27,-70.42 981.87,-68.39 982.88,-75.32"/>
</a>
</g>
</g>
<!-- Node16&#45;&gt;Node8 -->
<g id="edge16_Node000016_Node000008" class="edge">
<title>Node16&#45;&gt;Node8</title>
<g id="a_edge16_Node000016_Node000008"><a xlink:title=" ">
<path fill="none" stroke="#63b8ff" d="M530.07,-54.84C506.06,-45.96 469.27,-32.36 442.84,-22.58"/>
<polygon fill="#63b8ff" stroke="#63b8ff" points="444.23,-19.37 433.64,-19.18 441.8,-25.93 444.23,-19.37"/>
</a>
</g>
</g>
<!-- Node16&#45;&gt;Node15 -->
<g id="edge18_Node000016_Node000015" class="edge">
<title>Node16&#45;&gt;Node15</title>
<g id="a_edge18_Node000016_Node000015"><a xlink:title=" ">
<path fill="none" stroke="#63b8ff" d="M542.29,-54.84C531.67,-46.99 516.06,-35.45 503.46,-26.12"/>
<polygon fill="#63b8ff" stroke="#63b8ff" points="505.87,-23.56 495.75,-20.42 501.71,-29.19 505.87,-23.56"/>
</a>
</g>
</g>
<!-- Node17 -->
<g id="Node000017" class="node">
<title>Node17</title>
<g id="a_Node000017"><a xlink:title=" ">
<polygon fill="#e0e0e0" stroke="#999999" points="579.38,-19.25 529.62,-19.25 529.62,0 579.38,0 579.38,-19.25"/>
<text text-anchor="middle" x="554.5" y="-5.75" font-family="Helvetica,sans-Serif" font-size="10.00">optional</text>
</a>
</g>
</g>
<!-- Node16&#45;&gt;Node17 -->
<g id="edge17_Node000016_Node000017" class="edge">
<title>Node16&#45;&gt;Node17</title>
<g id="a_edge17_Node000016_Node000017"><a xlink:title=" ">
<path fill="none" stroke="#63b8ff" d="M554.5,-55.08C554.5,-48.57 554.5,-39.42 554.5,-31.12"/>
<polygon fill="#63b8ff" stroke="#63b8ff" points="558,-31.12 554.5,-21.12 551,-31.12 558,-31.12"/>
</a>
</g>
</g>
<!-- Node18 -->
<g id="Node000018" class="node">
<title>Node18</title>
<g id="a_Node000018"><a xlink:title=" ">
<polygon fill="#e0e0e0" stroke="#999999" points="653.38,-19.25 597.62,-19.25 597.62,0 653.38,0 653.38,-19.25"/>
<text text-anchor="middle" x="625.5" y="-5.75" font-family="Helvetica,sans-Serif" font-size="10.00">algorithm</text>
</a>
</g>
</g>
<!-- Node16&#45;&gt;Node18 -->
<g id="edge19_Node000016_Node000018" class="edge">
<title>Node16&#45;&gt;Node18</title>
<g id="a_edge19_Node000016_Node000018"><a xlink:title=" ">
<path fill="none" stroke="#63b8ff" d="M566.54,-54.84C576.91,-47.07 592.1,-35.67 604.47,-26.4"/>
<polygon fill="#63b8ff" stroke="#63b8ff" points="606.52,-29.23 612.42,-20.43 602.32,-23.63 606.52,-29.23"/>
</a>
</g>
</g>
<!-- Node19 -->
<g id="Node000019" class="node">
<title>Node19</title>
<g id="a_Node000019"><a xlink:title=" ">
<polygon fill="#e0e0e0" stroke="#999999" points="723.12,-19.25 671.88,-19.25 671.88,0 723.12,0 723.12,-19.25"/>
<text text-anchor="middle" x="697.5" y="-5.75" font-family="Helvetica,sans-Serif" font-size="10.00">memory</text>
</a>
</g>
</g>
<!-- Node16&#45;&gt;Node19 -->
<g id="edge20_Node000016_Node000019" class="edge">
<title>Node16&#45;&gt;Node19</title>
<g id="a_edge20_Node000016_Node000019"><a xlink:title=" ">
<path fill="none" stroke="#63b8ff" d="M578.76,-54.84C601.77,-46.27 636.59,-33.31 662.58,-23.63"/>
<polygon fill="#63b8ff" stroke="#63b8ff" points="663.55,-27 671.7,-20.23 661.11,-20.44 663.55,-27"/>
</a>
</g>
</g>
<!-- Node20&#45;&gt;Node21 -->
<g id="edge22_Node000020_Node000021" class="edge">
<title>Node20&#45;&gt;Node21</title>
<g id="a_edge22_Node000020_Node000021"><a xlink:title=" ">
<path fill="none" stroke="#63b8ff" d="M1012.81,-54.84C1003.8,-47.22 990.67,-36.12 979.82,-26.95"/>
<polygon fill="#63b8ff" stroke="#63b8ff" points="982.08,-24.28 972.19,-20.5 977.56,-29.63 982.08,-24.28"/>
</a>
</g>
</g>
<!-- Node22 -->
<g id="Node000022" class="node">
<title>Node22</title>
<g id="a_Node000022"><a xlink:title=" ">
<polygon fill="#e0e0e0" stroke="#999999" points="1053.62,-19.25 1005.38,-19.25 1005.38,0 1053.62,0 1053.62,-19.25"/>
<text text-anchor="middle" x="1029.5" y="-5.75" font-family="Helvetica,sans-Serif" font-size="10.00">cstddef</text>
</a>
</g>
</g>
<!-- Node20&#45;&gt;Node22 -->
<g id="edge23_Node000020_Node000022" class="edge">
<title>Node20&#45;&gt;Node22</title>
<g id="a_edge23_Node000020_Node000022"><a xlink:title=" ">
<path fill="none" stroke="#63b8ff" d="M1024.49,-55.08C1025.23,-48.49 1026.28,-39.21 1027.22,-30.82"/>
<polygon fill="#63b8ff" stroke="#63b8ff" points="1030.68,-31.44 1028.32,-21.11 1023.72,-30.66 1030.68,-31.44"/>
</a>
</g>
</g>
<!-- Node23&#45;&gt;Node7 -->
<g id="edge32_Node000023_Node000007" class="edge">
<title>Node23&#45;&gt;Node7</title>
<g id="a_edge32_Node000023_Node000007"><a xlink:title=" ">
<path fill="none" stroke="#63b8ff" d="M465.93,-165.5C446.39,-147.38 401.64,-105.88 376.5,-82.57"/>
<polygon fill="#63b8ff" stroke="#63b8ff" points="379.03,-80.14 369.32,-75.91 374.27,-85.27 379.03,-80.14"/>
</a>
</g>
</g>
<!-- Node23&#45;&gt;Node8 -->
<g id="edge31_Node000023_Node000008" class="edge">
<title>Node23&#45;&gt;Node8</title>
<g id="a_edge31_Node000023_Node000008"><a xlink:title=" ">
<path fill="none" stroke="#63b8ff" d="M472.01,-165.57C461.87,-140.03 432.26,-65.45 418.15,-29.9"/>
<polygon fill="#63b8ff" stroke="#63b8ff" points="421.51,-28.88 414.57,-20.88 415.01,-31.47 421.51,-28.88"/>
</a>
</g>
</g>
<!-- Node23&#45;&gt;Node24 -->
<g id="edge33_Node000023_Node000024" class="edge">
<title>Node23&#45;&gt;Node24</title>
<g id="a_edge33_Node000023_Node000024"><a xlink:title=" ">
<path fill="none" stroke="#63b8ff" d="M509.57,-172.19C591.11,-166.79 803.84,-151.64 980.5,-129.75 981.33,-129.65 982.17,-129.54 983.01,-129.43"/>
<polygon fill="#63b8ff" stroke="#63b8ff" points="983.22,-132.94 992.65,-128.1 982.26,-126 983.22,-132.94"/>
</a>
</g>
</g>
</g>
</svg>

<g id="navigator" transform="translate(0 0)" fill="#404254">
  <rect fill="#f2f5e9" fill-opacity="0.5" stroke="#606060" stroke-width=".5" x="0" y="0" width="60" height="60"/>
  <use id="zoomplus" xlink:href="#zoomPlus" x="17" y="9" onmousedown="handleZoom(evt,'in')"/>
  <use id="zoomminus" xlink:href="#zoomMin" x="42" y="9" onmousedown="handleZoom(evt,'out')"/>
  <use id="reset" xlink:href="#resetDef" x="30" y="36" onmousedown="handleReset()"/>
   <use id="arrowup" xlink:href="#arrowUp" x="0" y="0" onmousedown="handlePan(0,-1)"/>
  <use id="arrowright" xlink:href="#arrowRight" x="0" y="0" onmousedown="handlePan(1,0)"/>
  <use id="arrowdown" xlink:href="#arrowDown" x="0" y="0" onmousedown="handlePan(0,1)"/>
  <use id="arrowleft" xlink:href="#arrowLeft" x="0" y="0" onmousedown="handlePan(-1,0)"/>
</g>
<svg viewBox="0 0 15 15" width="100%" height="30px" preserveAspectRatio="xMaxYMin meet">
 <g id="arrow_out" transform="scale(0.3 0.3)">
  <a xlink:href="_mediator_8cpp__incl_org.svg" target="_base">
   <rect id="button" ry="5" rx="5" y="6" x="6" height="38" width="38"
        fill="#f2f5e9" fill-opacity="0.5" stroke="#606060" stroke-width="1.0"/>
   <path id="arrow"
     d="M 11.500037,31.436501 C 11.940474,20.09759 22.043105,11.32322 32.158766,21.979434 L 37.068811,17.246167 C 37.068811,17.246167 37.088388,32 37.088388,32 L 22.160133,31.978069 C 22.160133,31.978069 26.997745,27.140456 26.997745,27.140456 C 18.528582,18.264221 13.291696,25.230495 11.500037,31.436501 z"
     style="fill:#404040;"/>
  </a>
 </g>
</svg>

<style type='text/css'>
<![CDATA[
[data-mouse-over-selected='false'] { opacity: 0.7; }
[data-mouse-over-selected='true']  { opacity: 1.0; }
]]>
</style>
<script type="application/ecmascript"><![CDATA[
document.addEventListener('DOMContentLoaded', (event) => {
  highlightEdges();
  highlightAdjacentNodes();
});
]]></script>
</svg>
