<?xml version="1.0" encoding="UTF-8" standalone="no"?>
<!DOCTYPE svg PUBLIC "-//W3C//DTD SVG 1.1//EN"
 "http://www.w3.org/Graphics/SVG/1.1/DTD/svg11.dtd">
<!-- Generated by graphviz version 12.2.1 (20241206.2353)
 -->
<!-- Title: src/Registry.hpp Pages: 1 -->
<!--zoomable 304 -->

<svg id="main" version="1.1" xmlns="http://www.w3.org/2000/svg" xmlns:xlink="http://www.w3.org/1999/xlink" xml:space="preserve" onload="init(evt)">

<style type="text/css"><![CDATA[
.node, .edge {opacity: 0.7;}
.node.selected, .edge.selected {opacity: 1;}
.edge:hover path { stroke: red; }
.edge:hover polygon { stroke: red; fill: red; }
]]></style>

<defs>
  <circle id="rim" cx="0" cy="0" r="7"/>
  <circle id="rim2" cx="0" cy="0" r="3.5"/>
  <g id="zoomPlus">
    <use xlink:href="#rim" fill="#404040"><set attributeName="fill" to="#808080" begin="zoomplus.mouseover" end="zoomplus.mouseout"/></use>
    <path d="M-4,0h8M0,-4v8" fill="none" stroke="white" stroke-width="1.5" pointer-events="none"/>
  </g>
  <g id="zoomMin">
    <use xlink:href="#rim" fill="#404040"><set attributeName="fill" to="#808080" begin="zoomminus.mouseover" end="zoomminus.mouseout"/></use>
    <path d="M-4,0h8" fill="none" stroke="white" stroke-width="1.5" pointer-events="none"/>
  </g>
  <g id="arrowUp" transform="translate(30 24)">
    <use xlink:href="#rim"/>
    <path pointer-events="none" fill="none" stroke="white" stroke-width="1.5" d="M0,-3.0v7 M-2.5,-0.5L0,-3.0L2.5,-0.5"/>
  </g>
  <g id="arrowRight" transform="rotate(90) translate(36 -43)">
    <use xlink:href="#rim"/>
    <path pointer-events="none" fill="none" stroke="white" stroke-width="1.5" d="M0,-3.0v7 M-2.5,-0.5L0,-3.0L2.5,-0.5"/>
  </g>
  <g id="arrowDown" transform="rotate(180) translate(-30 -48)">
    <use xlink:href="#rim"/>
    <path pointer-events="none" fill="none" stroke="white" stroke-width="1.5" d="M0,-3.0v7 M-2.5,-0.5L0,-3.0L2.5,-0.5"/>
  </g>
  <g id="arrowLeft" transform="rotate(270) translate(-36 17)">
    <use xlink:href="#rim"/>
    <path pointer-events="none" fill="none" stroke="white" stroke-width="1.5" d="M0,-3.0v7 M-2.5,-0.5L0,-3.0L2.5,-0.5"/>
  </g>
  <g id="resetDef">
    <use xlink:href="#rim2" fill="#404040"><set attributeName="fill" to="#808080" begin="reset.mouseover" end="reset.mouseout"/></use>
  </g>
</defs>
<script type="application/ecmascript">
var viewWidth = 1673;
var viewHeight = 304;
var sectionId = 'dynsection-1';
</script>
<script type="application/ecmascript" xlink:href="svg.min.js"/>
<svg id="graph" class="graph">
<g id="viewport">
<title>src/Registry.hpp</title>
<!-- Node1 -->
<g id="Node000001" class="node">
<title>Node1</title>
<g id="a_Node000001"><a xlink:title=" ">
<polygon fill="#999999" stroke="#666666" points="1060.25,-295.5 973.75,-295.5 973.75,-276.25 1060.25,-276.25 1060.25,-295.5"/>
<text text-anchor="middle" x="1017" y="-282" font-family="Helvetica,sans-Serif" font-size="10.00">src/Registry.hpp</text>
</a>
</g>
</g>
<!-- Node2 -->
<g id="Node000002" class="node">
<title>Node2</title>
<g id="a_Node000002"><a xlink:href="_systems_8hpp.html" target="_top" xlink:title=" ">
<polygon fill="white" stroke="#666666" points="982.12,-240.25 891.88,-240.25 891.88,-221 982.12,-221 982.12,-240.25"/>
<text text-anchor="middle" x="937" y="-226.75" font-family="Helvetica,sans-Serif" font-size="10.00">src/Systems.hpp</text>
</a>
</g>
</g>
<!-- Node1&#45;&gt;Node2 -->
<g id="edge1_Node000001_Node000002" class="edge">
<title>Node1&#45;&gt;Node2</title>
<g id="a_edge1_Node000001_Node000002"><a xlink:title=" ">
<path fill="none" stroke="#63b8ff" d="M993.95,-269.53C979.93,-260.2 962.5,-248.6 950.64,-240.7"/>
<polygon fill="#63b8ff" stroke="#63b8ff" points="991.91,-272.38 1002.17,-275 995.78,-266.55 991.91,-272.38"/>
</a>
</g>
</g>
<!-- Node4 -->
<g id="Node000004" class="node">
<title>Node4</title>
<g id="a_Node000004"><a xlink:href="_core_8hpp.html" target="_top" xlink:title=" ">
<polygon fill="white" stroke="#666666" points="798.25,-74.5 699.75,-74.5 699.75,-55.25 798.25,-55.25 798.25,-74.5"/>
<text text-anchor="middle" x="749" y="-61" font-family="Helvetica,sans-Serif" font-size="10.00">src/client/Core.hpp</text>
</a>
</g>
</g>
<!-- Node1&#45;&gt;Node4 -->
<g id="edge34_Node000001_Node000004" class="edge">
<title>Node1&#45;&gt;Node4</title>
<g id="a_edge34_Node000001_Node000004"><a xlink:title=" ">
<path fill="none" stroke="#63b8ff" d="M962.32,-273.29C912.2,-260 839.13,-233.51 794,-185 763.43,-152.14 753.05,-96.49 750.06,-74.85"/>
<polygon fill="#63b8ff" stroke="#63b8ff" points="961.25,-276.63 971.81,-275.71 962.98,-269.85 961.25,-276.63"/>
</a>
</g>
</g>
<!-- Node15 -->
<g id="Node000015" class="node">
<title>Node15</title>
<g id="a_Node000015"><a xlink:href="_mediator_8hpp.html" target="_top" xlink:title=" ">
<polygon fill="white" stroke="#666666" points="1163,-185 1045,-185 1045,-165.75 1163,-165.75 1163,-185"/>
<text text-anchor="middle" x="1104" y="-171.5" font-family="Helvetica,sans-Serif" font-size="10.00">src/server/Mediator.hpp</text>
</a>
</g>
</g>
<!-- Node1&#45;&gt;Node15 -->
<g id="edge35_Node000001_Node000015" class="edge">
<title>Node1&#45;&gt;Node15</title>
<g id="a_edge35_Node000001_Node000015"><a xlink:title=" ">
<path fill="none" stroke="#63b8ff" d="M1031.25,-267.1C1050.05,-243.66 1082.42,-203.28 1096.78,-185.38"/>
<polygon fill="#63b8ff" stroke="#63b8ff" points="1028.59,-264.82 1025.07,-274.82 1034.05,-269.2 1028.59,-264.82"/>
</a>
</g>
</g>
<!-- Node17 -->
<g id="Node000017" class="node">
<title>Node17</title>
<g id="a_Node000017"><a xlink:href="_server_game_8hpp.html" target="_top" xlink:title=" ">
<polygon fill="white" stroke="#666666" points="1486,-74.5 1350,-74.5 1350,-55.25 1486,-55.25 1486,-74.5"/>
<text text-anchor="middle" x="1418" y="-61" font-family="Helvetica,sans-Serif" font-size="10.00">src/server/ServerGame.hpp</text>
</a>
</g>
</g>
<!-- Node1&#45;&gt;Node17 -->
<g id="edge36_Node000001_Node000017" class="edge">
<title>Node1&#45;&gt;Node17</title>
<g id="a_edge36_Node000001_Node000017"><a xlink:title=" ">
<path fill="none" stroke="#63b8ff" d="M1057.06,-272.19C1123.41,-250.01 1258.54,-199.78 1357,-129.75 1379.74,-113.57 1400.98,-88.11 1411.36,-74.75"/>
<polygon fill="#63b8ff" stroke="#63b8ff" points="1056.09,-268.83 1047.69,-275.28 1058.29,-275.47 1056.09,-268.83"/>
</a>
</g>
</g>
<!-- Node3 -->
<g id="Node000003" class="node">
<title>Node3</title>
<g id="a_Node000003"><a xlink:href="_systems_8cpp.html" target="_top" xlink:title=" ">
<polygon fill="white" stroke="#666666" points="982.12,-185 891.88,-185 891.88,-165.75 982.12,-165.75 982.12,-185"/>
<text text-anchor="middle" x="937" y="-171.5" font-family="Helvetica,sans-Serif" font-size="10.00">src/Systems.cpp</text>
</a>
</g>
</g>
<!-- Node2&#45;&gt;Node3 -->
<g id="edge2_Node000002_Node000003" class="edge">
<title>Node2&#45;&gt;Node3</title>
<g id="a_edge2_Node000002_Node000003"><a xlink:title=" ">
<path fill="none" stroke="#63b8ff" d="M937,-209.38C937,-201.09 937,-191.92 937,-185.36"/>
<polygon fill="#63b8ff" stroke="#63b8ff" points="933.5,-209.32 937,-219.32 940.5,-209.32 933.5,-209.32"/>
</a>
</g>
</g>
<!-- Node2&#45;&gt;Node4 -->
<g id="edge3_Node000002_Node000004" class="edge">
<title>Node2&#45;&gt;Node4</title>
<g id="a_edge3_Node000002_Node000004"><a xlink:title=" ">
<path fill="none" stroke="#63b8ff" d="M880.69,-218.99C857.37,-212.34 831.32,-201.73 812,-185 793.52,-169 763.22,-99.72 752.72,-74.83"/>
<polygon fill="#63b8ff" stroke="#63b8ff" points="879.5,-222.3 890.06,-221.48 881.29,-215.53 879.5,-222.3"/>
</a>
</g>
</g>
<!-- Node6 -->
<g id="Node000006" class="node">
<title>Node6</title>
<g id="a_Node000006"><a xlink:href="_gui_game_8cpp.html" target="_top" xlink:title=" ">
<polygon fill="white" stroke="#666666" points="910.38,-19.25 791.62,-19.25 791.62,0 910.38,0 910.38,-19.25"/>
<text text-anchor="middle" x="851" y="-5.75" font-family="Helvetica,sans-Serif" font-size="10.00">src/client/GuiGame.cpp</text>
</a>
</g>
</g>
<!-- Node2&#45;&gt;Node6 -->
<g id="edge14_Node000002_Node000006" class="edge">
<title>Node2&#45;&gt;Node6</title>
<g id="a_edge14_Node000002_Node000006"><a xlink:title=" ">
<path fill="none" stroke="#63b8ff" d="M908.06,-214.71C896.58,-207.32 884.38,-197.32 877,-185 843.66,-129.33 847.71,-46.28 850.09,-19.37"/>
<polygon fill="#63b8ff" stroke="#63b8ff" points="906.14,-217.64 916.52,-219.75 909.72,-211.63 906.14,-217.64"/>
</a>
</g>
</g>
<!-- Node11 -->
<g id="Node000011" class="node">
<title>Node11</title>
<g id="a_Node000011"><a xlink:href="_handle_animation_8cpp.html" target="_top" xlink:title=" ">
<polygon fill="white" stroke="#666666" points="1256.88,-19.25 1105.12,-19.25 1105.12,0 1256.88,0 1256.88,-19.25"/>
<text text-anchor="middle" x="1181" y="-5.75" font-family="Helvetica,sans-Serif" font-size="10.00">src/client/HandleAnimation.cpp</text>
</a>
</g>
</g>
<!-- Node2&#45;&gt;Node11 -->
<g id="edge15_Node000002_Node000011" class="edge">
<title>Node2&#45;&gt;Node11</title>
<g id="a_edge15_Node000002_Node000011"><a xlink:title=" ">
<path fill="none" stroke="#63b8ff" d="M959.98,-214.3C970.45,-206.47 982.39,-196.23 991,-185 1031.13,-132.66 1011.1,-95.94 1063,-55.25 1085.32,-37.75 1115.25,-26.54 1139.39,-19.73"/>
<polygon fill="#63b8ff" stroke="#63b8ff" points="958.26,-211.24 952.16,-219.9 962.33,-216.93 958.26,-211.24"/>
</a>
</g>
</g>
<!-- Node12 -->
<g id="Node000012" class="node">
<title>Node12</title>
<g id="a_Node000012"><a xlink:href="_handle_commands_8cpp.html" target="_top" xlink:title=" ">
<polygon fill="white" stroke="#666666" points="1087.25,-19.25 928.75,-19.25 928.75,0 1087.25,0 1087.25,-19.25"/>
<text text-anchor="middle" x="1008" y="-5.75" font-family="Helvetica,sans-Serif" font-size="10.00">src/client/HandleCommands.cpp</text>
</a>
</g>
</g>
<!-- Node2&#45;&gt;Node12 -->
<g id="edge16_Node000002_Node000012" class="edge">
<title>Node2&#45;&gt;Node12</title>
<g id="a_edge16_Node000002_Node000012"><a xlink:title=" ">
<path fill="none" stroke="#63b8ff" d="M909.97,-214.5C899.52,-207.09 888.71,-197.13 883,-185 879.36,-177.26 880.15,-173.82 883,-165.75 906.24,-99.86 970.63,-41.37 996.76,-19.63"/>
<polygon fill="#63b8ff" stroke="#63b8ff" points="907.76,-217.23 918.05,-219.75 911.57,-211.36 907.76,-217.23"/>
</a>
</g>
</g>
<!-- Node13 -->
<g id="Node000013" class="node">
<title>Node13</title>
<g id="a_Node000013"><a xlink:href="_handle_input_8cpp.html" target="_top" xlink:title=" ">
<polygon fill="white" stroke="#666666" points="130,-19.25 0,-19.25 0,0 130,0 130,-19.25"/>
<text text-anchor="middle" x="65" y="-5.75" font-family="Helvetica,sans-Serif" font-size="10.00">src/client/HandleInput.cpp</text>
</a>
</g>
</g>
<!-- Node2&#45;&gt;Node13 -->
<g id="edge17_Node000002_Node000013" class="edge">
<title>Node2&#45;&gt;Node13</title>
<g id="a_edge17_Node000002_Node000013"><a xlink:title=" ">
<path fill="none" stroke="#63b8ff" d="M889.89,-217.79C734.33,-178.73 239.17,-54.37 101.07,-19.68"/>
<polygon fill="#63b8ff" stroke="#63b8ff" points="888.9,-221.15 899.45,-220.19 890.6,-214.36 888.9,-221.15"/>
</a>
</g>
</g>
<!-- Node2&#45;&gt;Node15 -->
<g id="edge18_Node000002_Node000015" class="edge">
<title>Node2&#45;&gt;Node15</title>
<g id="a_edge18_Node000002_Node000015"><a xlink:title=" ">
<path fill="none" stroke="#63b8ff" d="M970.96,-216.93C999.98,-207.24 1041.35,-194.11 1070.31,-185.45"/>
<polygon fill="#63b8ff" stroke="#63b8ff" points="969.9,-213.59 961.55,-220.11 972.14,-220.23 969.9,-213.59"/>
</a>
</g>
</g>
<!-- Node5 -->
<g id="Node000005" class="node">
<title>Node5</title>
<g id="a_Node000005"><a xlink:href="_core_8cpp.html" target="_top" xlink:title=" ">
<polygon fill="white" stroke="#666666" points="773.25,-19.25 674.75,-19.25 674.75,0 773.25,0 773.25,-19.25"/>
<text text-anchor="middle" x="724" y="-5.75" font-family="Helvetica,sans-Serif" font-size="10.00">src/client/Core.cpp</text>
</a>
</g>
</g>
<!-- Node4&#45;&gt;Node5 -->
<g id="edge4_Node000004_Node000005" class="edge">
<title>Node4&#45;&gt;Node5</title>
<g id="a_edge4_Node000004_Node000005"><a xlink:title=" ">
<path fill="none" stroke="#63b8ff" d="M740.04,-44.79C736.01,-36.21 731.44,-26.48 728.22,-19.61"/>
<polygon fill="#63b8ff" stroke="#63b8ff" points="736.81,-46.15 744.23,-53.71 743.15,-43.17 736.81,-46.15"/>
</a>
</g>
</g>
<!-- Node4&#45;&gt;Node6 -->
<g id="edge5_Node000004_Node000006" class="edge">
<title>Node4&#45;&gt;Node6</title>
<g id="a_edge5_Node000004_Node000006"><a xlink:title=" ">
<path fill="none" stroke="#63b8ff" d="M776.33,-49.61C794.53,-40.11 817.91,-27.9 833.61,-19.7"/>
<polygon fill="#63b8ff" stroke="#63b8ff" points="774.89,-46.41 767.64,-54.14 778.13,-52.62 774.89,-46.41"/>
</a>
</g>
</g>
<!-- Node7 -->
<g id="Node000007" class="node">
<title>Node7</title>
<g id="a_Node000007"><a xlink:href="_gui_lobby_8cpp.html" target="_top" xlink:title=" ">
<polygon fill="white" stroke="#666666" points="265.62,-19.25 148.38,-19.25 148.38,0 265.62,0 265.62,-19.25"/>
<text text-anchor="middle" x="207" y="-5.75" font-family="Helvetica,sans-Serif" font-size="10.00">src/client/GuiLobby.cpp</text>
</a>
</g>
</g>
<!-- Node4&#45;&gt;Node7 -->
<g id="edge6_Node000004_Node000007" class="edge">
<title>Node4&#45;&gt;Node7</title>
<g id="a_edge6_Node000004_Node000007"><a xlink:title=" ">
<path fill="none" stroke="#63b8ff" d="M688.1,-58.77C597.81,-51.07 423.16,-35.62 275,-19.25 272.04,-18.92 269.01,-18.58 265.96,-18.22"/>
<polygon fill="#63b8ff" stroke="#63b8ff" points="687.7,-62.25 697.96,-59.61 688.3,-55.28 687.7,-62.25"/>
</a>
</g>
</g>
<!-- Node8 -->
<g id="Node000008" class="node">
<title>Node8</title>
<g id="a_Node000008"><a xlink:href="_gui_login_8cpp.html" target="_top" xlink:title=" ">
<polygon fill="white" stroke="#666666" points="1390.88,-19.25 1275.12,-19.25 1275.12,0 1390.88,0 1390.88,-19.25"/>
<text text-anchor="middle" x="1333" y="-5.75" font-family="Helvetica,sans-Serif" font-size="10.00">src/client/GuiLogin.cpp</text>
</a>
</g>
</g>
<!-- Node4&#45;&gt;Node8 -->
<g id="edge7_Node000004_Node000008" class="edge">
<title>Node4&#45;&gt;Node8</title>
<g id="a_edge7_Node000004_Node000008"><a xlink:title=" ">
<path fill="none" stroke="#63b8ff" d="M809.92,-59.45C906.67,-52.23 1101.38,-36.94 1266,-19.25 1268.92,-18.94 1271.9,-18.6 1274.91,-18.25"/>
<polygon fill="#63b8ff" stroke="#63b8ff" points="809.84,-55.94 800.12,-60.18 810.35,-62.93 809.84,-55.94"/>
</a>
</g>
</g>
<!-- Node9 -->
<g id="Node000009" class="node">
<title>Node9</title>
<g id="a_Node000009"><a xlink:href="_gui_menu_8cpp.html" target="_top" xlink:title=" ">
<polygon fill="white" stroke="#666666" points="400.25,-19.25 283.75,-19.25 283.75,0 400.25,0 400.25,-19.25"/>
<text text-anchor="middle" x="342" y="-5.75" font-family="Helvetica,sans-Serif" font-size="10.00">src/client/GuiMenu.cpp</text>
</a>
</g>
</g>
<!-- Node4&#45;&gt;Node9 -->
<g id="edge8_Node000004_Node000009" class="edge">
<title>Node4&#45;&gt;Node9</title>
<g id="a_edge8_Node000004_Node000009"><a xlink:title=" ">
<path fill="none" stroke="#63b8ff" d="M688.48,-55.96C610.91,-45.81 477.34,-28.33 400.68,-18.3"/>
<polygon fill="#63b8ff" stroke="#63b8ff" points="687.63,-59.38 698,-57.2 688.54,-52.43 687.63,-59.38"/>
</a>
</g>
</g>
<!-- Node10 -->
<g id="Node000010" class="node">
<title>Node10</title>
<g id="a_Node000010"><a xlink:href="_gui_option_8cpp.html" target="_top" xlink:title=" ">
<polygon fill="white" stroke="#666666" points="539.5,-19.25 418.5,-19.25 418.5,0 539.5,0 539.5,-19.25"/>
<text text-anchor="middle" x="479" y="-5.75" font-family="Helvetica,sans-Serif" font-size="10.00">src/client/GuiOption.cpp</text>
</a>
</g>
</g>
<!-- Node4&#45;&gt;Node10 -->
<g id="edge9_Node000004_Node000010" class="edge">
<title>Node4&#45;&gt;Node10</title>
<g id="a_edge9_Node000004_Node000010"><a xlink:title=" ">
<path fill="none" stroke="#63b8ff" d="M691.69,-52.57C641.97,-42.77 570.96,-28.76 524.92,-19.68"/>
<polygon fill="#63b8ff" stroke="#63b8ff" points="690.92,-55.99 701.41,-54.49 692.27,-49.12 690.92,-55.99"/>
</a>
</g>
</g>
<!-- Node4&#45;&gt;Node11 -->
<g id="edge10_Node000004_Node000011" class="edge">
<title>Node4&#45;&gt;Node11</title>
<g id="a_edge10_Node000004_Node000011"><a xlink:title=" ">
<path fill="none" stroke="#63b8ff" d="M809.64,-56.4C887.7,-46.78 1023.23,-30.07 1107.19,-19.72"/>
<polygon fill="#63b8ff" stroke="#63b8ff" points="809.55,-52.88 800.06,-57.58 810.41,-59.83 809.55,-52.88"/>
</a>
</g>
</g>
<!-- Node4&#45;&gt;Node12 -->
<g id="edge11_Node000004_Node000012" class="edge">
<title>Node4&#45;&gt;Node12</title>
<g id="a_edge11_Node000004_Node000012"><a xlink:title=" ">
<path fill="none" stroke="#63b8ff" d="M804.28,-52.51C851.95,-42.71 919.88,-28.74 963.95,-19.68"/>
<polygon fill="#63b8ff" stroke="#63b8ff" points="803.8,-49.03 794.71,-54.48 805.21,-55.89 803.8,-49.03"/>
</a>
</g>
</g>
<!-- Node4&#45;&gt;Node13 -->
<g id="edge12_Node000004_Node000013" class="edge">
<title>Node4&#45;&gt;Node13</title>
<g id="a_edge12_Node000004_Node000013"><a xlink:title=" ">
<path fill="none" stroke="#63b8ff" d="M688.03,-60.29C578.16,-53.62 339.68,-38.28 139,-19.25 136.17,-18.98 133.27,-18.7 130.35,-18.4"/>
<polygon fill="#63b8ff" stroke="#63b8ff" points="687.82,-63.78 698.01,-60.89 688.24,-56.79 687.82,-63.78"/>
</a>
</g>
</g>
<!-- Node14 -->
<g id="Node000014" class="node">
<title>Node14</title>
<g id="a_Node000014"><a xlink:href="client_2main_8cpp.html" target="_top" xlink:title=" ">
<polygon fill="white" stroke="#666666" points="656.25,-19.25 557.75,-19.25 557.75,0 656.25,0 656.25,-19.25"/>
<text text-anchor="middle" x="607" y="-5.75" font-family="Helvetica,sans-Serif" font-size="10.00">src/client/Main.cpp</text>
</a>
</g>
</g>
<!-- Node4&#45;&gt;Node14 -->
<g id="edge13_Node000004_Node000014" class="edge">
<title>Node4&#45;&gt;Node14</title>
<g id="a_edge13_Node000004_Node000014"><a xlink:title=" ">
<path fill="none" stroke="#63b8ff" d="M714.46,-50.92C688.68,-41.25 654.09,-28.29 631.21,-19.7"/>
<polygon fill="#63b8ff" stroke="#63b8ff" points="712.9,-54.08 723.49,-54.31 715.36,-47.52 712.9,-54.08"/>
</a>
</g>
</g>
<!-- Node15&#45;&gt;Node2 -->
<g id="edge19_Node000015_Node000002" class="edge">
<title>Node15&#45;&gt;Node2</title>
<g id="a_edge19_Node000015_Node000002"><a xlink:title=" ">
<path fill="none" stroke="#63b8ff" d="M1069.89,-189.12C1040.83,-198.82 999.46,-211.95 970.55,-220.59"/>
<polygon fill="#63b8ff" stroke="#63b8ff" points="1070.97,-192.45 1079.32,-185.94 1068.73,-185.82 1070.97,-192.45"/>
</a>
</g>
</g>
<!-- Node16 -->
<g id="Node000016" class="node">
<title>Node16</title>
<g id="a_Node000016"><a xlink:href="_mediator_8cpp.html" target="_top" xlink:title=" ">
<polygon fill="white" stroke="#666666" points="1316,-129.75 1198,-129.75 1198,-110.5 1316,-110.5 1316,-129.75"/>
<text text-anchor="middle" x="1257" y="-116.25" font-family="Helvetica,sans-Serif" font-size="10.00">src/server/Mediator.cpp</text>
</a>
</g>
</g>
<!-- Node15&#45;&gt;Node16 -->
<g id="edge20_Node000015_Node000016" class="edge">
<title>Node15&#45;&gt;Node16</title>
<g id="a_edge20_Node000015_Node000016"><a xlink:title=" ">
<path fill="none" stroke="#63b8ff" d="M1140.47,-161.68C1168.33,-151.99 1206.04,-138.86 1230.92,-130.2"/>
<polygon fill="#63b8ff" stroke="#63b8ff" points="1139.68,-158.25 1131.38,-164.84 1141.98,-164.86 1139.68,-158.25"/>
</a>
</g>
</g>
<!-- Node15&#45;&gt;Node17 -->
<g id="edge21_Node000015_Node000017" class="edge">
<title>Node15&#45;&gt;Node17</title>
<g id="a_edge21_Node000015_Node000017"><a xlink:title=" ">
<path fill="none" stroke="#63b8ff" d="M1174.44,-167.48C1218.95,-161.37 1276.92,-150.11 1325,-129.75 1358.19,-115.7 1391.71,-88.85 1407.94,-74.86"/>
<polygon fill="#63b8ff" stroke="#63b8ff" points="1174.1,-164 1164.64,-168.77 1175.01,-170.94 1174.1,-164"/>
</a>
</g>
</g>
<!-- Node20 -->
<g id="Node000020" class="node">
<title>Node20</title>
<g id="a_Node000020"><a xlink:href="_server_network_8hpp.html" target="_top" xlink:title=" ">
<polygon fill="white" stroke="#666666" points="1180.25,-129.75 1033.75,-129.75 1033.75,-110.5 1180.25,-110.5 1180.25,-129.75"/>
<text text-anchor="middle" x="1107" y="-116.25" font-family="Helvetica,sans-Serif" font-size="10.00">src/server/ServerNetwork.hpp</text>
</a>
</g>
</g>
<!-- Node15&#45;&gt;Node20 -->
<g id="edge24_Node000015_Node000020" class="edge">
<title>Node15&#45;&gt;Node20</title>
<g id="a_edge24_Node000015_Node000020"><a xlink:title=" ">
<path fill="none" stroke="#63b8ff" d="M1105.14,-154.13C1105.61,-145.84 1106.12,-136.67 1106.49,-130.11"/>
<polygon fill="#63b8ff" stroke="#63b8ff" points="1101.65,-153.89 1104.58,-164.07 1108.64,-154.28 1101.65,-153.89"/>
</a>
</g>
</g>
<!-- Node18 -->
<g id="Node000018" class="node">
<title>Node18</title>
<g id="a_Node000018"><a xlink:href="_server_game_8cpp.html" target="_top" xlink:title=" ">
<polygon fill="white" stroke="#666666" points="1665,-19.25 1529,-19.25 1529,0 1665,0 1665,-19.25"/>
<text text-anchor="middle" x="1597" y="-5.75" font-family="Helvetica,sans-Serif" font-size="10.00">src/server/ServerGame.cpp</text>
</a>
</g>
</g>
<!-- Node17&#45;&gt;Node18 -->
<g id="edge22_Node000017_Node000018" class="edge">
<title>Node17&#45;&gt;Node18</title>
<g id="a_edge22_Node000017_Node000018"><a xlink:title=" ">
<path fill="none" stroke="#63b8ff" d="M1459.38,-51.57C1492.08,-41.84 1536.99,-28.48 1566.49,-19.7"/>
<polygon fill="#63b8ff" stroke="#63b8ff" points="1458.4,-48.2 1449.82,-54.41 1460.4,-54.91 1458.4,-48.2"/>
</a>
</g>
</g>
<!-- Node19 -->
<g id="Node000019" class="node">
<title>Node19</title>
<g id="a_Node000019"><a xlink:href="server_2main_8cpp.html" target="_top" xlink:title=" ">
<polygon fill="white" stroke="#666666" points="1511.12,-19.25 1408.88,-19.25 1408.88,0 1511.12,0 1511.12,-19.25"/>
<text text-anchor="middle" x="1460" y="-5.75" font-family="Helvetica,sans-Serif" font-size="10.00">src/server/main.cpp</text>
</a>
</g>
</g>
<!-- Node17&#45;&gt;Node19 -->
<g id="edge23_Node000017_Node000019" class="edge">
<title>Node17&#45;&gt;Node19</title>
<g id="a_edge23_Node000017_Node000019"><a xlink:title=" ">
<path fill="none" stroke="#63b8ff" d="M1431.92,-46.22C1438.96,-37.31 1447.19,-26.87 1452.91,-19.61"/>
<polygon fill="#63b8ff" stroke="#63b8ff" points="1429.32,-43.87 1425.87,-53.89 1434.81,-48.21 1429.32,-43.87"/>
</a>
</g>
</g>
<!-- Node20&#45;&gt;Node4 -->
<g id="edge25_Node000020_Node000004" class="edge">
<title>Node20&#45;&gt;Node4</title>
<g id="a_edge25_Node000020_Node000004"><a xlink:title=" ">
<path fill="none" stroke="#63b8ff" d="M1034.48,-108.34C964.3,-97.9 859.82,-82.36 798.64,-73.26"/>
<polygon fill="#63b8ff" stroke="#63b8ff" points="1033.96,-111.8 1044.37,-109.81 1034.99,-104.88 1033.96,-111.8"/>
</a>
</g>
</g>
<!-- Node20&#45;&gt;Node6 -->
<g id="edge26_Node000020_Node000006" class="edge">
<title>Node20&#45;&gt;Node6</title>
<g id="a_edge26_Node000020_Node000006"><a xlink:title=" ">
<path fill="none" stroke="#63b8ff" d="M1075.15,-105.63C1022.24,-83.2 917.6,-38.85 872.51,-19.74"/>
<polygon fill="#63b8ff" stroke="#63b8ff" points="1073.65,-108.79 1084.22,-109.47 1076.38,-102.35 1073.65,-108.79"/>
</a>
</g>
</g>
<!-- Node20&#45;&gt;Node8 -->
<g id="edge27_Node000020_Node000008" class="edge">
<title>Node20&#45;&gt;Node8</title>
<g id="a_edge27_Node000020_Node000008"><a xlink:title=" ">
<path fill="none" stroke="#63b8ff" d="M1155.52,-107.04C1182.12,-99.48 1215.24,-88.5 1243,-74.5 1274.14,-58.8 1306.49,-33.14 1322.59,-19.61"/>
<polygon fill="#63b8ff" stroke="#63b8ff" points="1154.72,-103.63 1146.01,-109.67 1156.59,-110.38 1154.72,-103.63"/>
</a>
</g>
</g>
<!-- Node20&#45;&gt;Node11 -->
<g id="edge28_Node000020_Node000011" class="edge">
<title>Node20&#45;&gt;Node11</title>
<g id="a_edge28_Node000020_Node000011"><a xlink:title=" ">
<path fill="none" stroke="#63b8ff" d="M1182.77,-106.34C1200.07,-99.72 1216.44,-89.69 1227,-74.5 1240.73,-54.75 1213.84,-31.97 1195.69,-19.65"/>
<polygon fill="#63b8ff" stroke="#63b8ff" points="1181.7,-103.01 1173.36,-109.55 1183.95,-109.63 1181.7,-103.01"/>
</a>
</g>
</g>
<!-- Node20&#45;&gt;Node12 -->
<g id="edge29_Node000020_Node000012" class="edge">
<title>Node20&#45;&gt;Node12</title>
<g id="a_edge29_Node000020_Node000012"><a xlink:title=" ">
<path fill="none" stroke="#63b8ff" d="M1089.6,-102.02C1081.39,-93.82 1071.56,-83.78 1063,-74.5 1045.35,-55.35 1025.65,-31.95 1015.29,-19.47"/>
<polygon fill="#63b8ff" stroke="#63b8ff" points="1087.08,-104.45 1096.64,-109 1092,-99.48 1087.08,-104.45"/>
</a>
</g>
</g>
<!-- Node20&#45;&gt;Node13 -->
<g id="edge30_Node000020_Node000013" class="edge">
<title>Node20&#45;&gt;Node13</title>
<g id="a_edge30_Node000020_Node000013"><a xlink:title=" ">
<path fill="none" stroke="#63b8ff" d="M1022.24,-110.76C853.85,-94.06 465.28,-55.1 139,-19.25 136.17,-18.94 133.28,-18.62 130.36,-18.29"/>
<polygon fill="#63b8ff" stroke="#63b8ff" points="1021.69,-114.22 1031.99,-111.73 1022.38,-107.26 1021.69,-114.22"/>
</a>
</g>
</g>
<!-- Node20&#45;&gt;Node17 -->
<g id="edge31_Node000020_Node000017" class="edge">
<title>Node20&#45;&gt;Node17</title>
<g id="a_edge31_Node000020_Node000017"><a xlink:title=" ">
<path fill="none" stroke="#63b8ff" d="M1171.2,-108.13C1228.44,-98.33 1311.24,-84.15 1364.85,-74.98"/>
<polygon fill="#63b8ff" stroke="#63b8ff" points="1170.87,-104.64 1161.6,-109.78 1172.05,-111.54 1170.87,-104.64"/>
</a>
</g>
</g>
<!-- Node20&#45;&gt;Node19 -->
<g id="edge33_Node000020_Node000019" class="edge">
<title>Node20&#45;&gt;Node19</title>
<g id="a_edge33_Node000020_Node000019"><a xlink:title=" ">
<path fill="none" stroke="#63b8ff" d="M1154.28,-107.31C1187.62,-98.76 1233.25,-86.62 1273,-74.5 1331.58,-56.64 1399.38,-32.63 1435.07,-19.73"/>
<polygon fill="#63b8ff" stroke="#63b8ff" points="1153.76,-103.83 1144.93,-109.69 1155.49,-110.61 1153.76,-103.83"/>
</a>
</g>
</g>
<!-- Node21 -->
<g id="Node000021" class="node">
<title>Node21</title>
<g id="a_Node000021"><a xlink:href="_server_network_8cpp.html" target="_top" xlink:title=" ">
<polygon fill="white" stroke="#666666" points="1218.25,-74.5 1071.75,-74.5 1071.75,-55.25 1218.25,-55.25 1218.25,-74.5"/>
<text text-anchor="middle" x="1145" y="-61" font-family="Helvetica,sans-Serif" font-size="10.00">src/server/ServerNetwork.cpp</text>
</a>
</g>
</g>
<!-- Node20&#45;&gt;Node21 -->
<g id="edge32_Node000020_Node000021" class="edge">
<title>Node20&#45;&gt;Node21</title>
<g id="a_edge32_Node000020_Node000021"><a xlink:title=" ">
<path fill="none" stroke="#63b8ff" d="M1119.8,-101.19C1126.12,-92.34 1133.46,-82.04 1138.59,-74.86"/>
<polygon fill="#63b8ff" stroke="#63b8ff" points="1117.11,-98.93 1114.15,-109.1 1122.81,-102.99 1117.11,-98.93"/>
</a>
</g>
</g>
</g>
</svg>

<g id="navigator" transform="translate(0 0)" fill="#404254">
  <rect fill="#f2f5e9" fill-opacity="0.5" stroke="#606060" stroke-width=".5" x="0" y="0" width="60" height="60"/>
  <use id="zoomplus" xlink:href="#zoomPlus" x="17" y="9" onmousedown="handleZoom(evt,'in')"/>
  <use id="zoomminus" xlink:href="#zoomMin" x="42" y="9" onmousedown="handleZoom(evt,'out')"/>
  <use id="reset" xlink:href="#resetDef" x="30" y="36" onmousedown="handleReset()"/>
   <use id="arrowup" xlink:href="#arrowUp" x="0" y="0" onmousedown="handlePan(0,-1)"/>
  <use id="arrowright" xlink:href="#arrowRight" x="0" y="0" onmousedown="handlePan(1,0)"/>
  <use id="arrowdown" xlink:href="#arrowDown" x="0" y="0" onmousedown="handlePan(0,1)"/>
  <use id="arrowleft" xlink:href="#arrowLeft" x="0" y="0" onmousedown="handlePan(-1,0)"/>
</g>
<svg viewBox="0 0 15 15" width="100%" height="30px" preserveAspectRatio="xMaxYMin meet">
 <g id="arrow_out" transform="scale(0.3 0.3)">
  <a xlink:href="_registry_8hpp__dep__incl_org.svg" target="_base">
   <rect id="button" ry="5" rx="5" y="6" x="6" height="38" width="38"
        fill="#f2f5e9" fill-opacity="0.5" stroke="#606060" stroke-width="1.0"/>
   <path id="arrow"
     d="M 11.500037,31.436501 C 11.940474,20.09759 22.043105,11.32322 32.158766,21.979434 L 37.068811,17.246167 C 37.068811,17.246167 37.088388,32 37.088388,32 L 22.160133,31.978069 C 22.160133,31.978069 26.997745,27.140456 26.997745,27.140456 C 18.528582,18.264221 13.291696,25.230495 11.500037,31.436501 z"
     style="fill:#404040;"/>
  </a>
 </g>
</svg>

<style type='text/css'>
<![CDATA[
[data-mouse-over-selected='false'] { opacity: 0.7; }
[data-mouse-over-selected='true']  { opacity: 1.0; }
]]>
</style>
<script type="application/ecmascript"><![CDATA[
document.addEventListener('DOMContentLoaded', (event) => {
  highlightEdges();
  highlightAdjacentNodes();
});
]]></script>
</svg>
