<?xml version="1.0" encoding="UTF-8" standalone="no"?>
<!DOCTYPE svg PUBLIC "-//W3C//DTD SVG 1.1//EN"
 "http://www.w3.org/Graphics/SVG/1.1/DTD/svg11.dtd">
<!-- Generated by graphviz version 12.2.1 (20241206.2353)
 -->
<!-- Title: src/Registry.hpp Pages: 1 -->
<svg width="699pt" height="138pt"
 viewBox="0.00 0.00 698.50 137.75" xmlns="http://www.w3.org/2000/svg" xmlns:xlink="http://www.w3.org/1999/xlink">
<g id="graph0" class="graph" transform="scale(1 1) rotate(0) translate(4 133.75)">
<title>src/Registry.hpp</title>
<!-- Node1 -->
<g id="Node000001" class="node">
<title>Node1</title>
<g id="a_Node000001"><a xlink:title=" ">
<polygon fill="#999999" stroke="#666666" points="298.62,-129.75 212.12,-129.75 212.12,-110.5 298.62,-110.5 298.62,-129.75"/>
<text text-anchor="middle" x="255.38" y="-116.25" font-family="Helvetica,sans-Serif" font-size="10.00">src/Registry.hpp</text>
</a>
</g>
</g>
<!-- Node2 -->
<g id="Node000002" class="node">
<title>Node2</title>
<g id="a_Node000002"><a xlink:title=" ">
<polygon fill="#e0e0e0" stroke="#999999" points="82.75,-74.5 0,-74.5 0,-55.25 82.75,-55.25 82.75,-74.5"/>
<text text-anchor="middle" x="41.38" y="-61" font-family="Helvetica,sans-Serif" font-size="10.00">unordered_map</text>
</a>
</g>
</g>
<!-- Node1&#45;&gt;Node2 -->
<g id="edge1_Node000001_Node000002" class="edge">
<title>Node1&#45;&gt;Node2</title>
<g id="a_edge1_Node000001_Node000002"><a xlink:title=" ">
<path fill="none" stroke="#63b8ff" d="M219.07,-110.09C183.26,-101.18 128.31,-87.51 89,-77.73"/>
<polygon fill="#63b8ff" stroke="#63b8ff" points="89.87,-74.34 79.32,-75.32 88.18,-81.13 89.87,-74.34"/>
</a>
</g>
</g>
<!-- Node3 -->
<g id="Node000003" class="node">
<title>Node3</title>
<g id="a_Node000003"><a xlink:title=" ">
<polygon fill="#e0e0e0" stroke="#999999" points="132.25,-74.5 100.5,-74.5 100.5,-55.25 132.25,-55.25 132.25,-74.5"/>
<text text-anchor="middle" x="116.38" y="-61" font-family="Helvetica,sans-Serif" font-size="10.00">any</text>
</a>
</g>
</g>
<!-- Node1&#45;&gt;Node3 -->
<g id="edge2_Node000001_Node000003" class="edge">
<title>Node1&#45;&gt;Node3</title>
<g id="a_edge2_Node000001_Node000003"><a xlink:title=" ">
<path fill="none" stroke="#63b8ff" d="M231.8,-110.09C207.24,-100.68 168.83,-85.97 143.15,-76.13"/>
<polygon fill="#63b8ff" stroke="#63b8ff" points="144.67,-72.97 134.08,-72.66 142.16,-79.5 144.67,-72.97"/>
</a>
</g>
</g>
<!-- Node4 -->
<g id="Node000004" class="node">
<title>Node4</title>
<g id="a_Node000004"><a xlink:title=" ">
<polygon fill="#e0e0e0" stroke="#999999" points="208.38,-74.5 150.38,-74.5 150.38,-55.25 208.38,-55.25 208.38,-74.5"/>
<text text-anchor="middle" x="179.38" y="-61" font-family="Helvetica,sans-Serif" font-size="10.00">functional</text>
</a>
</g>
</g>
<!-- Node1&#45;&gt;Node4 -->
<g id="edge3_Node000001_Node000004" class="edge">
<title>Node1&#45;&gt;Node4</title>
<g id="a_edge3_Node000001_Node000004"><a xlink:title=" ">
<path fill="none" stroke="#63b8ff" d="M242.48,-110.09C231.35,-102.29 215,-90.84 201.74,-81.54"/>
<polygon fill="#63b8ff" stroke="#63b8ff" points="203.77,-78.69 193.57,-75.82 199.75,-84.43 203.77,-78.69"/>
</a>
</g>
</g>
<!-- Node5 -->
<g id="Node000005" class="node">
<title>Node5</title>
<g id="a_Node000005"><a xlink:title=" ">
<polygon fill="#e0e0e0" stroke="#999999" points="284.38,-74.5 226.38,-74.5 226.38,-55.25 284.38,-55.25 284.38,-74.5"/>
<text text-anchor="middle" x="255.38" y="-61" font-family="Helvetica,sans-Serif" font-size="10.00">typeindex</text>
</a>
</g>
</g>
<!-- Node1&#45;&gt;Node5 -->
<g id="edge4_Node000001_Node000005" class="edge">
<title>Node1&#45;&gt;Node5</title>
<g id="a_edge4_Node000001_Node000005"><a xlink:title=" ">
<path fill="none" stroke="#63b8ff" d="M255.38,-110.33C255.38,-103.82 255.38,-94.67 255.38,-86.37"/>
<polygon fill="#63b8ff" stroke="#63b8ff" points="258.88,-86.37 255.38,-76.37 251.88,-86.37 258.88,-86.37"/>
</a>
</g>
</g>
<!-- Node6 -->
<g id="Node000006" class="node">
<title>Node6</title>
<g id="a_Node000006"><a xlink:title=" ">
<polygon fill="#e0e0e0" stroke="#999999" points="280.75,-19.25 222,-19.25 222,0 280.75,0 280.75,-19.25"/>
<text text-anchor="middle" x="251.38" y="-5.75" font-family="Helvetica,sans-Serif" font-size="10.00">stdexcept</text>
</a>
</g>
</g>
<!-- Node1&#45;&gt;Node6 -->
<g id="edge5_Node000001_Node000006" class="edge">
<title>Node1&#45;&gt;Node6</title>
<g id="a_edge5_Node000001_Node000006"><a xlink:title=" ">
<path fill="none" stroke="#63b8ff" d="M267.12,-110.09C281.12,-98.13 301.65,-76.12 293.38,-55.25 289.05,-44.36 280.68,-34.57 272.53,-26.97"/>
<polygon fill="#63b8ff" stroke="#63b8ff" points="275,-24.47 265.14,-20.6 270.43,-29.78 275,-24.47"/>
</a>
</g>
</g>
<!-- Node7 -->
<g id="Node000007" class="node">
<title>Node7</title>
<g id="a_Node000007"><a xlink:href="_sparse_array_8hpp.html" target="_top" xlink:title=" ">
<polygon fill="white" stroke="#666666" points="428,-74.5 340.75,-74.5 340.75,-55.25 428,-55.25 428,-74.5"/>
<text text-anchor="middle" x="384.38" y="-61" font-family="Helvetica,sans-Serif" font-size="10.00">SparseArray.hpp</text>
</a>
</g>
</g>
<!-- Node1&#45;&gt;Node7 -->
<g id="edge6_Node000001_Node000007" class="edge">
<title>Node1&#45;&gt;Node7</title>
<g id="a_edge6_Node000001_Node000007"><a xlink:title=" ">
<path fill="none" stroke="#63b8ff" d="M277.26,-110.09C297.74,-101.64 328.59,-88.9 351.93,-79.27"/>
<polygon fill="#63b8ff" stroke="#63b8ff" points="353.08,-82.58 360.99,-75.53 350.41,-76.11 353.08,-82.58"/>
</a>
</g>
</g>
<!-- Node12 -->
<g id="Node000012" class="node">
<title>Node12</title>
<g id="a_Node000012"><a xlink:href="_entity_8hpp.html" target="_top" xlink:title=" ">
<polygon fill="white" stroke="#666666" points="626.75,-74.5 568,-74.5 568,-55.25 626.75,-55.25 626.75,-74.5"/>
<text text-anchor="middle" x="597.38" y="-61" font-family="Helvetica,sans-Serif" font-size="10.00">Entity.hpp</text>
</a>
</g>
</g>
<!-- Node1&#45;&gt;Node12 -->
<g id="edge12_Node000001_Node000012" class="edge">
<title>Node1&#45;&gt;Node12</title>
<g id="a_edge12_Node000001_Node000012"><a xlink:title=" ">
<path fill="none" stroke="#63b8ff" d="M299.04,-112.33C365.63,-101.96 491.66,-82.34 556.53,-72.23"/>
<polygon fill="#63b8ff" stroke="#63b8ff" points="556.69,-75.75 566.03,-70.76 555.61,-68.84 556.69,-75.75"/>
</a>
</g>
</g>
<!-- Node7&#45;&gt;Node6 -->
<g id="edge9_Node000007_Node000006" class="edge">
<title>Node7&#45;&gt;Node6</title>
<g id="a_edge9_Node000007_Node000006"><a xlink:title=" ">
<path fill="none" stroke="#63b8ff" d="M361.81,-54.84C340.6,-46.35 308.6,-33.54 284.5,-23.89"/>
<polygon fill="#63b8ff" stroke="#63b8ff" points="286.04,-20.73 275.45,-20.27 283.44,-27.23 286.04,-20.73"/>
</a>
</g>
</g>
<!-- Node8 -->
<g id="Node000008" class="node">
<title>Node8</title>
<g id="a_Node000008"><a xlink:title=" ">
<polygon fill="#e0e0e0" stroke="#999999" points="341.88,-19.25 298.88,-19.25 298.88,0 341.88,0 341.88,-19.25"/>
<text text-anchor="middle" x="320.38" y="-5.75" font-family="Helvetica,sans-Serif" font-size="10.00">vector</text>
</a>
</g>
</g>
<!-- Node7&#45;&gt;Node8 -->
<g id="edge7_Node000007_Node000008" class="edge">
<title>Node7&#45;&gt;Node8</title>
<g id="a_edge7_Node000007_Node000008"><a xlink:title=" ">
<path fill="none" stroke="#63b8ff" d="M373.52,-54.84C364.27,-47.15 350.75,-35.9 339.67,-26.68"/>
<polygon fill="#63b8ff" stroke="#63b8ff" points="342.16,-24.2 332.23,-20.49 337.68,-29.58 342.16,-24.2"/>
</a>
</g>
</g>
<!-- Node9 -->
<g id="Node000009" class="node">
<title>Node9</title>
<g id="a_Node000009"><a xlink:title=" ">
<polygon fill="#e0e0e0" stroke="#999999" points="409.25,-19.25 359.5,-19.25 359.5,0 409.25,0 409.25,-19.25"/>
<text text-anchor="middle" x="384.38" y="-5.75" font-family="Helvetica,sans-Serif" font-size="10.00">optional</text>
</a>
</g>
</g>
<!-- Node7&#45;&gt;Node9 -->
<g id="edge8_Node000007_Node000009" class="edge">
<title>Node7&#45;&gt;Node9</title>
<g id="a_edge8_Node000007_Node000009"><a xlink:title=" ">
<path fill="none" stroke="#63b8ff" d="M384.38,-55.08C384.38,-48.57 384.38,-39.42 384.38,-31.12"/>
<polygon fill="#63b8ff" stroke="#63b8ff" points="387.88,-31.12 384.38,-21.12 380.88,-31.12 387.88,-31.12"/>
</a>
</g>
</g>
<!-- Node10 -->
<g id="Node000010" class="node">
<title>Node10</title>
<g id="a_Node000010"><a xlink:title=" ">
<polygon fill="#e0e0e0" stroke="#999999" points="483.25,-19.25 427.5,-19.25 427.5,0 483.25,0 483.25,-19.25"/>
<text text-anchor="middle" x="455.38" y="-5.75" font-family="Helvetica,sans-Serif" font-size="10.00">algorithm</text>
</a>
</g>
</g>
<!-- Node7&#45;&gt;Node10 -->
<g id="edge10_Node000007_Node000010" class="edge">
<title>Node7&#45;&gt;Node10</title>
<g id="a_edge10_Node000007_Node000010"><a xlink:title=" ">
<path fill="none" stroke="#63b8ff" d="M396.42,-54.84C406.78,-47.07 421.98,-35.67 434.34,-26.4"/>
<polygon fill="#63b8ff" stroke="#63b8ff" points="436.4,-29.23 442.3,-20.43 432.2,-23.63 436.4,-29.23"/>
</a>
</g>
</g>
<!-- Node11 -->
<g id="Node000011" class="node">
<title>Node11</title>
<g id="a_Node000011"><a xlink:title=" ">
<polygon fill="#e0e0e0" stroke="#999999" points="553,-19.25 501.75,-19.25 501.75,0 553,0 553,-19.25"/>
<text text-anchor="middle" x="527.38" y="-5.75" font-family="Helvetica,sans-Serif" font-size="10.00">memory</text>
</a>
</g>
</g>
<!-- Node7&#45;&gt;Node11 -->
<g id="edge11_Node000007_Node000011" class="edge">
<title>Node7&#45;&gt;Node11</title>
<g id="a_edge11_Node000007_Node000011"><a xlink:title=" ">
<path fill="none" stroke="#63b8ff" d="M408.63,-54.84C431.64,-46.27 466.47,-33.31 492.46,-23.63"/>
<polygon fill="#63b8ff" stroke="#63b8ff" points="493.43,-27 501.58,-20.23 490.99,-20.44 493.43,-27"/>
</a>
</g>
</g>
<!-- Node13 -->
<g id="Node000013" class="node">
<title>Node13</title>
<g id="a_Node000013"><a xlink:title=" ">
<polygon fill="#e0e0e0" stroke="#999999" points="624.12,-19.25 570.62,-19.25 570.62,0 624.12,0 624.12,-19.25"/>
<text text-anchor="middle" x="597.38" y="-5.75" font-family="Helvetica,sans-Serif" font-size="10.00">iostream</text>
</a>
</g>
</g>
<!-- Node12&#45;&gt;Node13 -->
<g id="edge13_Node000012_Node000013" class="edge">
<title>Node12&#45;&gt;Node13</title>
<g id="a_edge13_Node000012_Node000013"><a xlink:title=" ">
<path fill="none" stroke="#63b8ff" d="M597.38,-55.08C597.38,-48.57 597.38,-39.42 597.38,-31.12"/>
<polygon fill="#63b8ff" stroke="#63b8ff" points="600.88,-31.12 597.38,-21.12 593.88,-31.12 600.88,-31.12"/>
</a>
</g>
</g>
<!-- Node14 -->
<g id="Node000014" class="node">
<title>Node14</title>
<g id="a_Node000014"><a xlink:title=" ">
<polygon fill="#e0e0e0" stroke="#999999" points="690.5,-19.25 642.25,-19.25 642.25,0 690.5,0 690.5,-19.25"/>
<text text-anchor="middle" x="666.38" y="-5.75" font-family="Helvetica,sans-Serif" font-size="10.00">cstddef</text>
</a>
</g>
</g>
<!-- Node12&#45;&gt;Node14 -->
<g id="edge14_Node000012_Node000014" class="edge">
<title>Node12&#45;&gt;Node14</title>
<g id="a_edge14_Node000012_Node000014"><a xlink:title=" ">
<path fill="none" stroke="#63b8ff" d="M609.08,-54.84C619.15,-47.07 633.92,-35.67 645.94,-26.4"/>
<polygon fill="#63b8ff" stroke="#63b8ff" points="647.87,-29.33 653.64,-20.45 643.59,-23.79 647.87,-29.33"/>
</a>
</g>
</g>
</g>
</svg>
