<?xml version="1.0" encoding="UTF-8" standalone="no"?>
<!DOCTYPE svg PUBLIC "-//W3C//DTD SVG 1.1//EN"
 "http://www.w3.org/Graphics/SVG/1.1/DTD/svg11.dtd">
<!-- Generated by graphviz version 12.2.1 (20241206.2353)
 -->
<!-- Title: src/server/ServerGame.hpp Pages: 1 -->
<!--zoomable 359 -->

<svg id="main" version="1.1" xmlns="http://www.w3.org/2000/svg" xmlns:xlink="http://www.w3.org/1999/xlink" xml:space="preserve" onload="init(evt)">

<style type="text/css"><![CDATA[
.node, .edge {opacity: 0.7;}
.node.selected, .edge.selected {opacity: 1;}
.edge:hover path { stroke: red; }
.edge:hover polygon { stroke: red; fill: red; }
]]></style>

<defs>
  <circle id="rim" cx="0" cy="0" r="7"/>
  <circle id="rim2" cx="0" cy="0" r="3.5"/>
  <g id="zoomPlus">
    <use xlink:href="#rim" fill="#404040"><set attributeName="fill" to="#808080" begin="zoomplus.mouseover" end="zoomplus.mouseout"/></use>
    <path d="M-4,0h8M0,-4v8" fill="none" stroke="white" stroke-width="1.5" pointer-events="none"/>
  </g>
  <g id="zoomMin">
    <use xlink:href="#rim" fill="#404040"><set attributeName="fill" to="#808080" begin="zoomminus.mouseover" end="zoomminus.mouseout"/></use>
    <path d="M-4,0h8" fill="none" stroke="white" stroke-width="1.5" pointer-events="none"/>
  </g>
  <g id="arrowUp" transform="translate(30 24)">
    <use xlink:href="#rim"/>
    <path pointer-events="none" fill="none" stroke="white" stroke-width="1.5" d="M0,-3.0v7 M-2.5,-0.5L0,-3.0L2.5,-0.5"/>
  </g>
  <g id="arrowRight" transform="rotate(90) translate(36 -43)">
    <use xlink:href="#rim"/>
    <path pointer-events="none" fill="none" stroke="white" stroke-width="1.5" d="M0,-3.0v7 M-2.5,-0.5L0,-3.0L2.5,-0.5"/>
  </g>
  <g id="arrowDown" transform="rotate(180) translate(-30 -48)">
    <use xlink:href="#rim"/>
    <path pointer-events="none" fill="none" stroke="white" stroke-width="1.5" d="M0,-3.0v7 M-2.5,-0.5L0,-3.0L2.5,-0.5"/>
  </g>
  <g id="arrowLeft" transform="rotate(270) translate(-36 17)">
    <use xlink:href="#rim"/>
    <path pointer-events="none" fill="none" stroke="white" stroke-width="1.5" d="M0,-3.0v7 M-2.5,-0.5L0,-3.0L2.5,-0.5"/>
  </g>
  <g id="resetDef">
    <use xlink:href="#rim2" fill="#404040"><set attributeName="fill" to="#808080" begin="reset.mouseover" end="reset.mouseout"/></use>
  </g>
</defs>
<script type="application/ecmascript">
var viewWidth = 1479;
var viewHeight = 359;
var sectionId = 'dynsection-0';
</script>
<script type="application/ecmascript" xlink:href="svg.min.js"/>
<svg id="graph" class="graph">
<g id="viewport">
<title>src/server/ServerGame.hpp</title>
<!-- Node1 -->
<g id="Node000001" class="node">
<title>Node1</title>
<g id="a_Node000001"><a xlink:title=" ">
<polygon fill="#999999" stroke="#666666" points="454.91,-350.75 318.91,-350.75 318.91,-331.5 454.91,-331.5 454.91,-350.75"/>
<text text-anchor="middle" x="386.91" y="-337.25" font-family="Helvetica,sans-Serif" font-size="10.00">src/server/ServerGame.hpp</text>
</a>
</g>
</g>
<!-- Node2 -->
<g id="Node000002" class="node">
<title>Node2</title>
<g id="a_Node000002"><a xlink:title=" ">
<polygon fill="#e0e0e0" stroke="#999999" points="425.78,-129.75 346.03,-129.75 346.03,-110.5 425.78,-110.5 425.78,-129.75"/>
<text text-anchor="middle" x="385.91" y="-116.25" font-family="Helvetica,sans-Serif" font-size="10.00">boost/asio.hpp</text>
</a>
</g>
</g>
<!-- Node1&#45;&gt;Node2 -->
<g id="edge1_Node000001_Node000002" class="edge">
<title>Node1&#45;&gt;Node2</title>
<g id="a_edge1_Node000001_Node000002"><a xlink:title=" ">
<path fill="none" stroke="#63b8ff" d="M395.67,-331.2C411.04,-314.83 442.36,-278.2 453.91,-240.25 456.4,-232.07 457.61,-228.71 453.91,-221 442.81,-197.92 423.81,-205.83 408.91,-185 399.46,-171.79 393.52,-154.29 390.05,-140.95"/>
<polygon fill="#63b8ff" stroke="#63b8ff" points="393.54,-140.53 387.86,-131.58 386.72,-142.12 393.54,-140.53"/>
</a>
</g>
</g>
<!-- Node3 -->
<g id="Node000003" class="node">
<title>Node3</title>
<g id="a_Node000003"><a xlink:title=" ">
<polygon fill="#e0e0e0" stroke="#999999" points="92.53,-295.5 29.28,-295.5 29.28,-276.25 92.53,-276.25 92.53,-295.5"/>
<text text-anchor="middle" x="60.91" y="-282" font-family="Helvetica,sans-Serif" font-size="10.00">sol/sol.hpp</text>
</a>
</g>
</g>
<!-- Node1&#45;&gt;Node3 -->
<g id="edge2_Node000001_Node000003" class="edge">
<title>Node1&#45;&gt;Node3</title>
<g id="a_edge2_Node000001_Node000003"><a xlink:title=" ">
<path fill="none" stroke="#63b8ff" d="M326.75,-331.02C269.99,-322.32 182.57,-308.62 106.91,-295.5 105.89,-295.32 104.86,-295.14 103.83,-294.96"/>
<polygon fill="#63b8ff" stroke="#63b8ff" points="104.51,-291.53 94.05,-293.2 103.27,-298.42 104.51,-291.53"/>
</a>
</g>
</g>
<!-- Node4 -->
<g id="Node000004" class="node">
<title>Node4</title>
<g id="a_Node000004"><a xlink:title=" ">
<polygon fill="#e0e0e0" stroke="#999999" points="558.91,-74.5 518.91,-74.5 518.91,-55.25 558.91,-55.25 558.91,-74.5"/>
<text text-anchor="middle" x="538.91" y="-61" font-family="Helvetica,sans-Serif" font-size="10.00">string</text>
</a>
</g>
</g>
<!-- Node1&#45;&gt;Node4 -->
<g id="edge3_Node000001_Node000004" class="edge">
<title>Node1&#45;&gt;Node4</title>
<g id="a_edge3_Node000001_Node000004"><a xlink:title=" ">
<path fill="none" stroke="#63b8ff" d="M448.86,-331.04C504.3,-318.99 576.91,-291.74 576.91,-231.62 576.91,-231.62 576.91,-231.62 576.91,-174.38 576.91,-141.38 561.06,-105.76 549.84,-84.66"/>
<polygon fill="#63b8ff" stroke="#63b8ff" points="553,-83.15 545.09,-76.11 546.89,-86.55 553,-83.15"/>
</a>
</g>
</g>
<!-- Node5 -->
<g id="Node000005" class="node">
<title>Node5</title>
<g id="a_Node000005"><a xlink:title=" ">
<polygon fill="#e0e0e0" stroke="#999999" points="182.41,-240.25 139.41,-240.25 139.41,-221 182.41,-221 182.41,-240.25"/>
<text text-anchor="middle" x="160.91" y="-226.75" font-family="Helvetica,sans-Serif" font-size="10.00">thread</text>
</a>
</g>
</g>
<!-- Node1&#45;&gt;Node5 -->
<g id="edge4_Node000001_Node000005" class="edge">
<title>Node1&#45;&gt;Node5</title>
<g id="a_edge4_Node000001_Node000005"><a xlink:title=" ">
<path fill="none" stroke="#63b8ff" d="M350.53,-331.05C322.93,-323.45 284.48,-311.31 252.91,-295.5 226.21,-282.13 198.44,-261.82 180.48,-247.7"/>
<polygon fill="#63b8ff" stroke="#63b8ff" points="182.77,-245.04 172.77,-241.53 178.39,-250.51 182.77,-245.04"/>
</a>
</g>
</g>
<!-- Node6 -->
<g id="Node000006" class="node">
<title>Node6</title>
<g id="a_Node000006"><a xlink:title=" ">
<polygon fill="#e0e0e0" stroke="#999999" points="235.28,-240.25 200.53,-240.25 200.53,-221 235.28,-221 235.28,-240.25"/>
<text text-anchor="middle" x="217.91" y="-226.75" font-family="Helvetica,sans-Serif" font-size="10.00">map</text>
</a>
</g>
</g>
<!-- Node1&#45;&gt;Node6 -->
<g id="edge5_Node000001_Node000006" class="edge">
<title>Node1&#45;&gt;Node6</title>
<g id="a_edge5_Node000001_Node000006"><a xlink:title=" ">
<path fill="none" stroke="#63b8ff" d="M356.2,-331.03C333.87,-323.55 303.53,-311.58 279.91,-295.5 261.02,-282.64 243.26,-263.32 231.63,-249.3"/>
<polygon fill="#63b8ff" stroke="#63b8ff" points="234.57,-247.36 225.57,-241.76 229.11,-251.75 234.57,-247.36"/>
</a>
</g>
</g>
<!-- Node7 -->
<g id="Node000007" class="node">
<title>Node7</title>
<g id="a_Node000007"><a xlink:title=" ">
<polygon fill="#e0e0e0" stroke="#999999" points="272.53,-74.5 227.28,-74.5 227.28,-55.25 272.53,-55.25 272.53,-74.5"/>
<text text-anchor="middle" x="249.91" y="-61" font-family="Helvetica,sans-Serif" font-size="10.00">chrono</text>
</a>
</g>
</g>
<!-- Node1&#45;&gt;Node7 -->
<g id="edge6_Node000001_Node000007" class="edge">
<title>Node1&#45;&gt;Node7</title>
<g id="a_edge6_Node000001_Node000007"><a xlink:title=" ">
<path fill="none" stroke="#63b8ff" d="M318.67,-336.47C255.8,-328.87 166.98,-306.3 130.91,-240.25 97.01,-178.18 181.83,-110.61 225.65,-81.09"/>
<polygon fill="#63b8ff" stroke="#63b8ff" points="227.37,-84.15 233.81,-75.74 223.53,-78.3 227.37,-84.15"/>
</a>
</g>
</g>
<!-- Node8 -->
<g id="Node000008" class="node">
<title>Node8</title>
<g id="a_Node000008"><a xlink:title=" ">
<polygon fill="#e0e0e0" stroke="#999999" points="444.91,-240.25 404.91,-240.25 404.91,-221 444.91,-221 444.91,-240.25"/>
<text text-anchor="middle" x="424.91" y="-226.75" font-family="Helvetica,sans-Serif" font-size="10.00">bitset</text>
</a>
</g>
</g>
<!-- Node1&#45;&gt;Node8 -->
<g id="edge7_Node000001_Node000008" class="edge">
<title>Node1&#45;&gt;Node8</title>
<g id="a_edge7_Node000001_Node000008"><a xlink:title=" ">
<path fill="none" stroke="#63b8ff" d="M455.24,-331.17C476.6,-324.79 497.95,-313.94 510.91,-295.5 528.58,-270.36 487.62,-251.07 456.35,-240.54"/>
<polygon fill="#63b8ff" stroke="#63b8ff" points="457.43,-237.21 446.84,-237.53 455.31,-243.89 457.43,-237.21"/>
</a>
</g>
</g>
<!-- Node9 -->
<g id="Node000009" class="node">
<title>Node9</title>
<g id="a_Node000009"><a xlink:title=" ">
<polygon fill="#e0e0e0" stroke="#999999" points="502.03,-295.5 453.78,-295.5 453.78,-276.25 502.03,-276.25 502.03,-295.5"/>
<text text-anchor="middle" x="477.91" y="-282" font-family="Helvetica,sans-Serif" font-size="10.00">random</text>
</a>
</g>
</g>
<!-- Node1&#45;&gt;Node9 -->
<g id="edge8_Node000001_Node000009" class="edge">
<title>Node1&#45;&gt;Node9</title>
<g id="a_edge8_Node000001_Node000009"><a xlink:title=" ">
<path fill="none" stroke="#63b8ff" d="M402.34,-331.09C416.07,-323.06 436.41,-311.16 452.52,-301.73"/>
<polygon fill="#63b8ff" stroke="#63b8ff" points="454.22,-304.79 461.09,-296.72 450.69,-298.75 454.22,-304.79"/>
</a>
</g>
</g>
<!-- Node10 -->
<g id="Node000010" class="node">
<title>Node10</title>
<g id="a_Node000010"><a xlink:title=" ">
<polygon fill="#e0e0e0" stroke="#999999" points="546.41,-19.25 503.41,-19.25 503.41,0 546.41,0 546.41,-19.25"/>
<text text-anchor="middle" x="524.91" y="-5.75" font-family="Helvetica,sans-Serif" font-size="10.00">vector</text>
</a>
</g>
</g>
<!-- Node1&#45;&gt;Node10 -->
<g id="edge9_Node000001_Node000010" class="edge">
<title>Node1&#45;&gt;Node10</title>
<g id="a_edge9_Node000001_Node000010"><a xlink:title=" ">
<path fill="none" stroke="#63b8ff" d="M318.79,-340.5C225.28,-339.6 63.73,-332.51 19.91,-295.5 -2.72,-276.39 0.91,-261.24 0.91,-231.62 0.91,-231.62 0.91,-231.62 0.91,-119.12 0.91,-18.41 376.81,-10.47 491.85,-10.39"/>
<polygon fill="#63b8ff" stroke="#63b8ff" points="491.54,-13.89 501.54,-10.41 491.55,-6.89 491.54,-13.89"/>
</a>
</g>
</g>
<!-- Node11 -->
<g id="Node000011" class="node">
<title>Node11</title>
<g id="a_Node000011"><a xlink:href="_registry_8hpp.html" target="_top" xlink:title=" ">
<polygon fill="white" stroke="#666666" points="1164.41,-129.75 1085.41,-129.75 1085.41,-110.5 1164.41,-110.5 1164.41,-129.75"/>
<text text-anchor="middle" x="1124.91" y="-116.25" font-family="Helvetica,sans-Serif" font-size="10.00">../Registry.hpp</text>
</a>
</g>
</g>
<!-- Node1&#45;&gt;Node11 -->
<g id="edge10_Node000001_Node000011" class="edge">
<title>Node1&#45;&gt;Node11</title>
<g id="a_edge10_Node000001_Node000011"><a xlink:title=" ">
<path fill="none" stroke="#63b8ff" d="M436.82,-331.03C483.49,-322.39 555.07,-308.78 616.91,-295.5 826.29,-250.54 912.49,-310.65 1085.91,-185 1101.18,-173.93 1111.68,-154.87 1117.9,-140.45"/>
<polygon fill="#63b8ff" stroke="#63b8ff" points="1121.01,-142.11 1121.43,-131.52 1114.5,-139.53 1121.01,-142.11"/>
</a>
</g>
</g>
<!-- Node24 -->
<g id="Node000024" class="node">
<title>Node24</title>
<g id="a_Node000024"><a xlink:href="_server_network_8hpp.html" target="_top" xlink:title=" ">
<polygon fill="white" stroke="#666666" points="388.91,-295.5 288.91,-295.5 288.91,-276.25 388.91,-276.25 388.91,-295.5"/>
<text text-anchor="middle" x="338.91" y="-282" font-family="Helvetica,sans-Serif" font-size="10.00">ServerNetwork.hpp</text>
</a>
</g>
</g>
<!-- Node1&#45;&gt;Node24 -->
<g id="edge25_Node000001_Node000024" class="edge">
<title>Node1&#45;&gt;Node24</title>
<g id="a_edge25_Node000001_Node000024"><a xlink:title=" ">
<path fill="none" stroke="#63b8ff" d="M378.98,-331.33C372.35,-323.98 362.69,-313.26 354.52,-304.19"/>
<polygon fill="#63b8ff" stroke="#63b8ff" points="357.31,-302.07 348.02,-296.98 352.11,-306.75 357.31,-302.07"/>
</a>
</g>
</g>
<!-- Node25 -->
<g id="Node000025" class="node">
<title>Node25</title>
<g id="a_Node000025"><a xlink:href="_mediator_8hpp.html" target="_top" xlink:title=" ">
<polygon fill="white" stroke="#666666" points="682.66,-240.25 611.16,-240.25 611.16,-221 682.66,-221 682.66,-240.25"/>
<text text-anchor="middle" x="646.91" y="-226.75" font-family="Helvetica,sans-Serif" font-size="10.00">Mediator.hpp</text>
</a>
</g>
</g>
<!-- Node1&#45;&gt;Node25 -->
<g id="edge56_Node000001_Node000025" class="edge">
<title>Node1&#45;&gt;Node25</title>
<g id="a_edge56_Node000001_Node000025"><a xlink:title=" ">
<path fill="none" stroke="#63b8ff" d="M455.12,-335.98C496.74,-330.93 549.69,-319.82 590.91,-295.5 609.71,-284.4 625.5,-264.77 635.47,-250.2"/>
<polygon fill="#63b8ff" stroke="#63b8ff" points="638.32,-252.23 640.83,-241.94 632.45,-248.42 638.32,-252.23"/>
</a>
</g>
</g>
<!-- Node12 -->
<g id="Node000012" class="node">
<title>Node12</title>
<g id="a_Node000012"><a xlink:title=" ">
<polygon fill="#e0e0e0" stroke="#999999" points="1394.28,-74.5 1311.53,-74.5 1311.53,-55.25 1394.28,-55.25 1394.28,-74.5"/>
<text text-anchor="middle" x="1352.91" y="-61" font-family="Helvetica,sans-Serif" font-size="10.00">unordered_map</text>
</a>
</g>
</g>
<!-- Node11&#45;&gt;Node12 -->
<g id="edge11_Node000011_Node000012" class="edge">
<title>Node11&#45;&gt;Node12</title>
<g id="a_edge11_Node000011_Node000012"><a xlink:title=" ">
<path fill="none" stroke="#63b8ff" d="M1163.84,-110.03C1202.29,-101.05 1261.24,-87.28 1303.08,-77.51"/>
<polygon fill="#63b8ff" stroke="#63b8ff" points="1303.72,-80.96 1312.66,-75.28 1302.12,-74.14 1303.72,-80.96"/>
</a>
</g>
</g>
<!-- Node13 -->
<g id="Node000013" class="node">
<title>Node13</title>
<g id="a_Node000013"><a xlink:title=" ">
<polygon fill="#e0e0e0" stroke="#999999" points="1141.78,-74.5 1110.03,-74.5 1110.03,-55.25 1141.78,-55.25 1141.78,-74.5"/>
<text text-anchor="middle" x="1125.91" y="-61" font-family="Helvetica,sans-Serif" font-size="10.00">any</text>
</a>
</g>
</g>
<!-- Node11&#45;&gt;Node13 -->
<g id="edge12_Node000011_Node000013" class="edge">
<title>Node11&#45;&gt;Node13</title>
<g id="a_edge12_Node000011_Node000013"><a xlink:title=" ">
<path fill="none" stroke="#63b8ff" d="M1125.07,-110.33C1125.19,-103.82 1125.37,-94.67 1125.52,-86.37"/>
<polygon fill="#63b8ff" stroke="#63b8ff" points="1129.02,-86.44 1125.71,-76.37 1122.02,-86.3 1129.02,-86.44"/>
</a>
</g>
</g>
<!-- Node14 -->
<g id="Node000014" class="node">
<title>Node14</title>
<g id="a_Node000014"><a xlink:title=" ">
<polygon fill="#e0e0e0" stroke="#999999" points="1217.91,-74.5 1159.91,-74.5 1159.91,-55.25 1217.91,-55.25 1217.91,-74.5"/>
<text text-anchor="middle" x="1188.91" y="-61" font-family="Helvetica,sans-Serif" font-size="10.00">functional</text>
</a>
</g>
</g>
<!-- Node11&#45;&gt;Node14 -->
<g id="edge13_Node000011_Node000014" class="edge">
<title>Node11&#45;&gt;Node14</title>
<g id="a_edge13_Node000011_Node000014"><a xlink:title=" ">
<path fill="none" stroke="#63b8ff" d="M1135.76,-110.09C1145.01,-102.4 1158.53,-91.15 1169.62,-81.93"/>
<polygon fill="#63b8ff" stroke="#63b8ff" points="1171.6,-84.83 1177.05,-75.74 1167.12,-79.45 1171.6,-84.83"/>
</a>
</g>
</g>
<!-- Node15 -->
<g id="Node000015" class="node">
<title>Node15</title>
<g id="a_Node000015"><a xlink:title=" ">
<polygon fill="#e0e0e0" stroke="#999999" points="1293.91,-74.5 1235.91,-74.5 1235.91,-55.25 1293.91,-55.25 1293.91,-74.5"/>
<text text-anchor="middle" x="1264.91" y="-61" font-family="Helvetica,sans-Serif" font-size="10.00">typeindex</text>
</a>
</g>
</g>
<!-- Node11&#45;&gt;Node15 -->
<g id="edge14_Node000011_Node000015" class="edge">
<title>Node11&#45;&gt;Node15</title>
<g id="a_edge14_Node000011_Node000015"><a xlink:title=" ">
<path fill="none" stroke="#63b8ff" d="M1148.66,-110.09C1171.08,-101.56 1204.97,-88.67 1230.38,-79.01"/>
<polygon fill="#63b8ff" stroke="#63b8ff" points="1231.52,-82.32 1239.63,-75.49 1229.04,-75.77 1231.52,-82.32"/>
</a>
</g>
</g>
<!-- Node16 -->
<g id="Node000016" class="node">
<title>Node16</title>
<g id="a_Node000016"><a xlink:title=" ">
<polygon fill="#e0e0e0" stroke="#999999" points="1073.28,-19.25 1014.53,-19.25 1014.53,0 1073.28,0 1073.28,-19.25"/>
<text text-anchor="middle" x="1043.91" y="-5.75" font-family="Helvetica,sans-Serif" font-size="10.00">stdexcept</text>
</a>
</g>
</g>
<!-- Node11&#45;&gt;Node16 -->
<g id="edge15_Node000011_Node000016" class="edge">
<title>Node11&#45;&gt;Node16</title>
<g id="a_edge15_Node000011_Node000016"><a xlink:title=" ">
<path fill="none" stroke="#63b8ff" d="M1118.28,-110.25C1104.99,-92.44 1074.86,-52.08 1057.3,-28.56"/>
<polygon fill="#63b8ff" stroke="#63b8ff" points="1060.32,-26.76 1051.53,-20.84 1054.71,-30.95 1060.32,-26.76"/>
</a>
</g>
</g>
<!-- Node17 -->
<g id="Node000017" class="node">
<title>Node17</title>
<g id="a_Node000017"><a xlink:href="_sparse_array_8hpp.html" target="_top" xlink:title=" ">
<polygon fill="white" stroke="#666666" points="977.53,-74.5 890.28,-74.5 890.28,-55.25 977.53,-55.25 977.53,-74.5"/>
<text text-anchor="middle" x="933.91" y="-61" font-family="Helvetica,sans-Serif" font-size="10.00">SparseArray.hpp</text>
</a>
</g>
</g>
<!-- Node11&#45;&gt;Node17 -->
<g id="edge16_Node000011_Node000017" class="edge">
<title>Node11&#45;&gt;Node17</title>
<g id="a_edge16_Node000011_Node000017"><a xlink:title=" ">
<path fill="none" stroke="#63b8ff" d="M1092.51,-110.09C1060.81,-101.26 1012.34,-87.74 977.32,-77.98"/>
<polygon fill="#63b8ff" stroke="#63b8ff" points="978.5,-74.67 967.92,-75.36 976.62,-81.42 978.5,-74.67"/>
</a>
</g>
</g>
<!-- Node21 -->
<g id="Node000021" class="node">
<title>Node21</title>
<g id="a_Node000021"><a xlink:href="_entity_8hpp.html" target="_top" xlink:title=" ">
<polygon fill="white" stroke="#666666" points="1471.28,-74.5 1412.53,-74.5 1412.53,-55.25 1471.28,-55.25 1471.28,-74.5"/>
<text text-anchor="middle" x="1441.91" y="-61" font-family="Helvetica,sans-Serif" font-size="10.00">Entity.hpp</text>
</a>
</g>
</g>
<!-- Node11&#45;&gt;Node21 -->
<g id="edge22_Node000011_Node000021" class="edge">
<title>Node11&#45;&gt;Node21</title>
<g id="a_edge22_Node000011_Node000021"><a xlink:title=" ">
<path fill="none" stroke="#63b8ff" d="M1164.63,-113.5C1216.53,-105.98 1310.49,-91.81 1400.85,-74.79"/>
<polygon fill="#63b8ff" stroke="#63b8ff" points="1401.48,-78.23 1410.65,-72.93 1400.17,-71.36 1401.48,-78.23"/>
</a>
</g>
</g>
<!-- Node17&#45;&gt;Node10 -->
<g id="edge17_Node000017_Node000010" class="edge">
<title>Node17&#45;&gt;Node10</title>
<g id="a_edge17_Node000017_Node000010"><a xlink:title=" ">
<path fill="none" stroke="#63b8ff" d="M889.97,-56.6C886.9,-56.13 883.86,-55.68 880.91,-55.25 762.17,-38.15 620.61,-21.52 557.76,-14.34"/>
<polygon fill="#63b8ff" stroke="#63b8ff" points="558.45,-10.89 548.12,-13.24 557.66,-17.85 558.45,-10.89"/>
</a>
</g>
</g>
<!-- Node17&#45;&gt;Node16 -->
<g id="edge19_Node000017_Node000016" class="edge">
<title>Node17&#45;&gt;Node16</title>
<g id="a_edge19_Node000017_Node000016"><a xlink:title=" ">
<path fill="none" stroke="#63b8ff" d="M952.57,-54.84C969.63,-46.58 995.15,-34.23 1014.88,-24.68"/>
<polygon fill="#63b8ff" stroke="#63b8ff" points="1016.32,-27.87 1023.79,-20.36 1013.27,-21.57 1016.32,-27.87"/>
</a>
</g>
</g>
<!-- Node18 -->
<g id="Node000018" class="node">
<title>Node18</title>
<g id="a_Node000018"><a xlink:title=" ">
<polygon fill="#e0e0e0" stroke="#999999" points="922.78,-19.25 873.03,-19.25 873.03,0 922.78,0 922.78,-19.25"/>
<text text-anchor="middle" x="897.91" y="-5.75" font-family="Helvetica,sans-Serif" font-size="10.00">optional</text>
</a>
</g>
</g>
<!-- Node17&#45;&gt;Node18 -->
<g id="edge18_Node000017_Node000018" class="edge">
<title>Node17&#45;&gt;Node18</title>
<g id="a_edge18_Node000017_Node000018"><a xlink:title=" ">
<path fill="none" stroke="#63b8ff" d="M927.96,-55.08C923.2,-48.03 916.34,-37.9 910.39,-29.08"/>
<polygon fill="#63b8ff" stroke="#63b8ff" points="913.33,-27.19 904.83,-20.86 907.53,-31.11 913.33,-27.19"/>
</a>
</g>
</g>
<!-- Node19 -->
<g id="Node000019" class="node">
<title>Node19</title>
<g id="a_Node000019"><a xlink:title=" ">
<polygon fill="#e0e0e0" stroke="#999999" points="996.78,-19.25 941.03,-19.25 941.03,0 996.78,0 996.78,-19.25"/>
<text text-anchor="middle" x="968.91" y="-5.75" font-family="Helvetica,sans-Serif" font-size="10.00">algorithm</text>
</a>
</g>
</g>
<!-- Node17&#45;&gt;Node19 -->
<g id="edge20_Node000017_Node000019" class="edge">
<title>Node17&#45;&gt;Node19</title>
<g id="a_edge20_Node000017_Node000019"><a xlink:title=" ">
<path fill="none" stroke="#63b8ff" d="M939.69,-55.08C944.32,-48.03 950.98,-37.9 956.77,-29.08"/>
<polygon fill="#63b8ff" stroke="#63b8ff" points="959.6,-31.15 962.17,-20.87 953.75,-27.31 959.6,-31.15"/>
</a>
</g>
</g>
<!-- Node20 -->
<g id="Node000020" class="node">
<title>Node20</title>
<g id="a_Node000020"><a xlink:title=" ">
<polygon fill="#e0e0e0" stroke="#999999" points="854.53,-19.25 803.28,-19.25 803.28,0 854.53,0 854.53,-19.25"/>
<text text-anchor="middle" x="828.91" y="-5.75" font-family="Helvetica,sans-Serif" font-size="10.00">memory</text>
</a>
</g>
</g>
<!-- Node17&#45;&gt;Node20 -->
<g id="edge21_Node000017_Node000020" class="edge">
<title>Node17&#45;&gt;Node20</title>
<g id="a_edge21_Node000017_Node000020"><a xlink:title=" ">
<path fill="none" stroke="#63b8ff" d="M916.1,-54.84C899.88,-46.62 875.67,-34.34 856.88,-24.81"/>
<polygon fill="#63b8ff" stroke="#63b8ff" points="858.66,-21.79 848.16,-20.39 855.49,-28.03 858.66,-21.79"/>
</a>
</g>
</g>
<!-- Node22 -->
<g id="Node000022" class="node">
<title>Node22</title>
<g id="a_Node000022"><a xlink:title=" ">
<polygon fill="#e0e0e0" stroke="#999999" points="1144.66,-19.25 1091.16,-19.25 1091.16,0 1144.66,0 1144.66,-19.25"/>
<text text-anchor="middle" x="1117.91" y="-5.75" font-family="Helvetica,sans-Serif" font-size="10.00">iostream</text>
</a>
</g>
</g>
<!-- Node21&#45;&gt;Node22 -->
<g id="edge23_Node000021_Node000022" class="edge">
<title>Node21&#45;&gt;Node22</title>
<g id="a_edge23_Node000021_Node000022"><a xlink:title=" ">
<path fill="none" stroke="#63b8ff" d="M1412.14,-57.09C1409.02,-56.44 1405.91,-55.82 1402.91,-55.25 1315.11,-38.68 1211.26,-23.53 1156.38,-15.87"/>
<polygon fill="#63b8ff" stroke="#63b8ff" points="1157,-12.43 1146.62,-14.52 1156.04,-19.36 1157,-12.43"/>
</a>
</g>
</g>
<!-- Node23 -->
<g id="Node000023" class="node">
<title>Node23</title>
<g id="a_Node000023"><a xlink:title=" ">
<polygon fill="#e0e0e0" stroke="#999999" points="1466.03,-19.25 1417.78,-19.25 1417.78,0 1466.03,0 1466.03,-19.25"/>
<text text-anchor="middle" x="1441.91" y="-5.75" font-family="Helvetica,sans-Serif" font-size="10.00">cstddef</text>
</a>
</g>
</g>
<!-- Node21&#45;&gt;Node23 -->
<g id="edge24_Node000021_Node000023" class="edge">
<title>Node21&#45;&gt;Node23</title>
<g id="a_edge24_Node000021_Node000023"><a xlink:title=" ">
<path fill="none" stroke="#63b8ff" d="M1441.91,-55.08C1441.91,-48.57 1441.91,-39.42 1441.91,-31.12"/>
<polygon fill="#63b8ff" stroke="#63b8ff" points="1445.41,-31.12 1441.91,-21.12 1438.41,-31.12 1445.41,-31.12"/>
</a>
</g>
</g>
<!-- Node24&#45;&gt;Node2 -->
<g id="edge26_Node000024_Node000002" class="edge">
<title>Node24&#45;&gt;Node2</title>
<g id="a_edge26_Node000024_Node000002"><a xlink:title=" ">
<path fill="none" stroke="#63b8ff" d="M339.84,-275.98C342.15,-255.88 348.94,-205.57 362.91,-165.75 366.01,-156.92 370.55,-147.64 374.79,-139.85"/>
<polygon fill="#63b8ff" stroke="#63b8ff" points="377.73,-141.76 379.63,-131.34 371.64,-138.3 377.73,-141.76"/>
</a>
</g>
</g>
<!-- Node24&#45;&gt;Node4 -->
<g id="edge27_Node000024_Node000004" class="edge">
<title>Node24&#45;&gt;Node4</title>
<g id="a_edge27_Node000024_Node000004"><a xlink:title=" ">
<path fill="none" stroke="#63b8ff" d="M344.41,-276.02C353.45,-262.2 372.77,-235.58 395.91,-221 444.46,-190.4 481.93,-228.02 519.91,-185 544.09,-157.61 544.13,-112.23 541.71,-86.1"/>
<polygon fill="#63b8ff" stroke="#63b8ff" points="545.23,-86.01 540.59,-76.48 538.27,-86.82 545.23,-86.01"/>
</a>
</g>
</g>
<!-- Node24&#45;&gt;Node5 -->
<g id="edge28_Node000024_Node000005" class="edge">
<title>Node24&#45;&gt;Node5</title>
<g id="a_edge28_Node000024_Node000005"><a xlink:title=" ">
<path fill="none" stroke="#63b8ff" d="M308.71,-275.84C276.77,-266.29 226.54,-251.26 193.66,-241.42"/>
<polygon fill="#63b8ff" stroke="#63b8ff" points="194.84,-238.12 184.26,-238.61 192.84,-244.83 194.84,-238.12"/>
</a>
</g>
</g>
<!-- Node24&#45;&gt;Node6 -->
<g id="edge29_Node000024_Node000006" class="edge">
<title>Node24&#45;&gt;Node6</title>
<g id="a_edge29_Node000024_Node000006"><a xlink:title=" ">
<path fill="none" stroke="#63b8ff" d="M318.38,-275.84C298.54,-267.11 268.31,-253.81 246.2,-244.07"/>
<polygon fill="#63b8ff" stroke="#63b8ff" points="247.72,-240.92 237.15,-240.1 244.9,-247.33 247.72,-240.92"/>
</a>
</g>
</g>
<!-- Node24&#45;&gt;Node7 -->
<g id="edge30_Node000024_Node000007" class="edge">
<title>Node24&#45;&gt;Node7</title>
<g id="a_edge30_Node000024_Node000007"><a xlink:title=" ">
<path fill="none" stroke="#63b8ff" d="M323.75,-275.84C311.87,-267.94 295.89,-255.39 286.91,-240.25 257.37,-190.45 251.24,-120.3 250.09,-86.15"/>
<polygon fill="#63b8ff" stroke="#63b8ff" points="253.59,-86.37 249.88,-76.45 246.59,-86.52 253.59,-86.37"/>
</a>
</g>
</g>
<!-- Node24&#45;&gt;Node8 -->
<g id="edge31_Node000024_Node000008" class="edge">
<title>Node24&#45;&gt;Node8</title>
<g id="a_edge31_Node000024_Node000008"><a xlink:title=" ">
<path fill="none" stroke="#63b8ff" d="M353.5,-275.84C366.34,-267.89 385.32,-256.14 400.48,-246.75"/>
<polygon fill="#63b8ff" stroke="#63b8ff" points="402.3,-249.74 408.96,-241.5 398.62,-243.79 402.3,-249.74"/>
</a>
</g>
</g>
<!-- Node24&#45;&gt;Node10 -->
<g id="edge32_Node000024_Node000010" class="edge">
<title>Node24&#45;&gt;Node10</title>
<g id="a_edge32_Node000024_Node000010"><a xlink:title=" ">
<path fill="none" stroke="#63b8ff" d="M333.46,-275.96C322.96,-257.88 300.91,-215.29 300.91,-176.38 300.91,-176.38 300.91,-176.38 300.91,-119.12 300.91,-35.3 429.54,-16.21 491.85,-11.88"/>
<polygon fill="#63b8ff" stroke="#63b8ff" points="491.74,-15.4 501.51,-11.31 491.32,-8.41 491.74,-15.4"/>
</a>
</g>
</g>
<!-- Node24&#45;&gt;Node25 -->
<g id="edge33_Node000024_Node000025" class="edge">
<title>Node24&#45;&gt;Node25</title>
<g id="a_edge33_Node000024_Node000025"><a xlink:title=" ">
<path fill="none" stroke="#63b8ff" d="M389.08,-276.2C447.29,-266.14 542.54,-249.67 599.53,-239.82"/>
<polygon fill="#63b8ff" stroke="#63b8ff" points="599.99,-243.29 609.25,-238.14 598.8,-236.39 599.99,-243.29"/>
</a>
</g>
</g>
<!-- Node25&#45;&gt;Node2 -->
<g id="edge55_Node000025_Node000002" class="edge">
<title>Node25&#45;&gt;Node2</title>
<g id="a_edge55_Node000025_Node000002"><a xlink:title=" ">
<path fill="none" stroke="#63b8ff" d="M610.87,-229.63C566.04,-228.03 488.74,-219.87 433.91,-185 416.74,-174.09 403.5,-154.72 395.31,-140.16"/>
<polygon fill="#63b8ff" stroke="#63b8ff" points="398.52,-138.74 390.76,-131.53 392.32,-142.01 398.52,-138.74"/>
</a>
</g>
</g>
<!-- Node25&#45;&gt;Node4 -->
<g id="edge53_Node000025_Node000004" class="edge">
<title>Node25&#45;&gt;Node4</title>
<g id="a_edge53_Node000025_Node000004"><a xlink:title=" ">
<path fill="none" stroke="#63b8ff" d="M644.12,-220.55C637.38,-199.64 618.72,-147.05 590.91,-110.5 582.61,-99.6 571.25,-89.47 561.27,-81.63"/>
<polygon fill="#63b8ff" stroke="#63b8ff" points="563.57,-78.98 553.47,-75.77 559.36,-84.58 563.57,-78.98"/>
</a>
</g>
</g>
<!-- Node25&#45;&gt;Node10 -->
<g id="edge54_Node000025_Node000010" class="edge">
<title>Node25&#45;&gt;Node10</title>
<g id="a_edge54_Node000025_Node000010"><a xlink:title=" ">
<path fill="none" stroke="#63b8ff" d="M646.75,-220.75C646.32,-208.22 644.73,-184.77 638.91,-165.75 621.08,-107.46 570.79,-53.49 543.34,-27.27"/>
<polygon fill="#63b8ff" stroke="#63b8ff" points="545.8,-24.77 536.1,-20.51 541.02,-29.89 545.8,-24.77"/>
</a>
</g>
</g>
<!-- Node25&#45;&gt;Node11 -->
<g id="edge47_Node000025_Node000011" class="edge">
<title>Node25&#45;&gt;Node11</title>
<g id="a_edge47_Node000025_Node000011"><a xlink:title=" ">
<path fill="none" stroke="#63b8ff" d="M682.99,-228.66C770.49,-225.84 991.59,-215.8 1057.91,-185 1080.15,-174.67 1099.68,-153.96 1111.83,-138.92"/>
<polygon fill="#63b8ff" stroke="#63b8ff" points="1114.43,-141.27 1117.77,-131.21 1108.89,-136.99 1114.43,-141.27"/>
</a>
</g>
</g>
<!-- Node25&#45;&gt;Node22 -->
<g id="edge52_Node000025_Node000022" class="edge">
<title>Node25&#45;&gt;Node22</title>
<g id="a_edge52_Node000025_Node000022"><a xlink:title=" ">
<path fill="none" stroke="#63b8ff" d="M683.07,-226.86C727.96,-222.42 806.16,-211.34 867.91,-185 964.34,-143.86 1061.24,-61.96 1100.13,-27.03"/>
<polygon fill="#63b8ff" stroke="#63b8ff" points="1102.17,-29.91 1107.22,-20.59 1097.46,-24.73 1102.17,-29.91"/>
</a>
</g>
</g>
<!-- Node26 -->
<g id="Node000026" class="node">
<title>Node26</title>
<g id="a_Node000026"><a xlink:href="_systems_8hpp.html" target="_top" xlink:title=" ">
<polygon fill="white" stroke="#666666" points="859.28,-185 776.53,-185 776.53,-165.75 859.28,-165.75 859.28,-185"/>
<text text-anchor="middle" x="817.91" y="-171.5" font-family="Helvetica,sans-Serif" font-size="10.00">../Systems.hpp</text>
</a>
</g>
</g>
<!-- Node25&#45;&gt;Node26 -->
<g id="edge34_Node000025_Node000026" class="edge">
<title>Node25&#45;&gt;Node26</title>
<g id="a_edge34_Node000025_Node000026"><a xlink:title=" ">
<path fill="none" stroke="#63b8ff" d="M670.7,-220.59C697.12,-211.79 740.07,-198.36 772.85,-188.61"/>
<polygon fill="#63b8ff" stroke="#63b8ff" points="773.48,-192.07 782.08,-185.88 771.5,-185.36 773.48,-192.07"/>
</a>
</g>
</g>
<!-- Node30 -->
<g id="Node000030" class="node">
<title>Node30</title>
<g id="a_Node000030"><a xlink:href="_i_sender_8hpp.html" target="_top" xlink:title=" ">
<polygon fill="white" stroke="#666666" points="510.78,-185 443.03,-185 443.03,-165.75 510.78,-165.75 510.78,-185"/>
<text text-anchor="middle" x="476.91" y="-171.5" font-family="Helvetica,sans-Serif" font-size="10.00">ISender.hpp</text>
</a>
</g>
</g>
<!-- Node25&#45;&gt;Node30 -->
<g id="edge48_Node000025_Node000030" class="edge">
<title>Node25&#45;&gt;Node30</title>
<g id="a_edge48_Node000025_Node000030"><a xlink:title=" ">
<path fill="none" stroke="#63b8ff" d="M618.07,-220.59C590.23,-211.87 547.83,-198.59 516.77,-188.86"/>
<polygon fill="#63b8ff" stroke="#63b8ff" points="517.92,-185.55 507.33,-185.9 515.83,-192.23 517.92,-185.55"/>
</a>
</g>
</g>
<!-- Node26&#45;&gt;Node11 -->
<g id="edge41_Node000026_Node000011" class="edge">
<title>Node26&#45;&gt;Node11</title>
<g id="a_edge41_Node000026_Node000011"><a xlink:title=" ">
<path fill="none" stroke="#63b8ff" d="M859.63,-167.14C915.38,-157.47 1014.11,-140.34 1074.12,-129.93"/>
<polygon fill="#63b8ff" stroke="#63b8ff" points="1074.48,-133.42 1083.73,-128.27 1073.28,-126.53 1074.48,-133.42"/>
</a>
</g>
</g>
<!-- Node26&#45;&gt;Node17 -->
<g id="edge42_Node000026_Node000017" class="edge">
<title>Node26&#45;&gt;Node17</title>
<g id="a_edge42_Node000026_Node000017"><a xlink:title=" ">
<path fill="none" stroke="#63b8ff" d="M827.4,-165.5C846.77,-147.38 891.13,-105.88 916.06,-82.57"/>
<polygon fill="#63b8ff" stroke="#63b8ff" points="918.27,-85.3 923.18,-75.91 913.48,-80.19 918.27,-85.3"/>
</a>
</g>
</g>
<!-- Node26&#45;&gt;Node22 -->
<g id="edge45_Node000026_Node000022" class="edge">
<title>Node26&#45;&gt;Node22</title>
<g id="a_edge45_Node000026_Node000022"><a xlink:title=" ">
<path fill="none" stroke="#63b8ff" d="M833.47,-165.33C868.37,-145.11 955.62,-94.94 1029.91,-55.25 1049.68,-44.69 1072.23,-33.27 1089.55,-24.62"/>
<polygon fill="#63b8ff" stroke="#63b8ff" points="1090.84,-27.89 1098.23,-20.3 1087.72,-21.62 1090.84,-27.89"/>
</a>
</g>
</g>
<!-- Node26&#45;&gt;Node25 -->
<g id="edge46_Node000026_Node000025" class="edge">
<title>Node26&#45;&gt;Node25</title>
<g id="a_edge46_Node000026_Node000025"><a xlink:title=" ">
<path fill="none" stroke="#63b8ff" d="M793.98,-185.45C767.51,-194.27 724.54,-207.7 691.8,-217.44"/>
<polygon fill="#63b8ff" stroke="#63b8ff" points="691.18,-213.98 682.58,-220.16 693.17,-220.69 691.18,-213.98"/>
</a>
</g>
</g>
<!-- Node27 -->
<g id="Node000027" class="node">
<title>Node27</title>
<g id="a_Node000027"><a xlink:href="_components_8hpp.html" target="_top" xlink:title=" ">
<polygon fill="white" stroke="#666666" points="771.03,-129.75 680.78,-129.75 680.78,-110.5 771.03,-110.5 771.03,-129.75"/>
<text text-anchor="middle" x="725.91" y="-116.25" font-family="Helvetica,sans-Serif" font-size="10.00">Components.hpp</text>
</a>
</g>
</g>
<!-- Node26&#45;&gt;Node27 -->
<g id="edge35_Node000026_Node000027" class="edge">
<title>Node26&#45;&gt;Node27</title>
<g id="a_edge35_Node000026_Node000027"><a xlink:title=" ">
<path fill="none" stroke="#63b8ff" d="M802.3,-165.34C788.29,-157.23 767.47,-145.18 751.11,-135.71"/>
<polygon fill="#63b8ff" stroke="#63b8ff" points="753.31,-132.94 742.9,-130.96 749.8,-139 753.31,-132.94"/>
</a>
</g>
</g>
<!-- Node28 -->
<g id="Node000028" class="node">
<title>Node28</title>
<g id="a_Node000028"><a xlink:title=" ">
<polygon fill="#e0e0e0" stroke="#999999" points="756.41,-74.5 653.41,-74.5 653.41,-55.25 756.41,-55.25 756.41,-74.5"/>
<text text-anchor="middle" x="704.91" y="-61" font-family="Helvetica,sans-Serif" font-size="10.00">SFML/Graphics.hpp</text>
</a>
</g>
</g>
<!-- Node26&#45;&gt;Node28 -->
<g id="edge43_Node000026_Node000028" class="edge">
<title>Node26&#45;&gt;Node28</title>
<g id="a_edge43_Node000026_Node000028"><a xlink:title=" ">
<path fill="none" stroke="#63b8ff" d="M814.38,-165.61C808.71,-152.39 796.51,-127.11 779.91,-110.5 767.32,-97.91 750.49,-87.48 735.96,-79.88"/>
<polygon fill="#63b8ff" stroke="#63b8ff" points="737.75,-76.86 727.24,-75.52 734.63,-83.12 737.75,-76.86"/>
</a>
</g>
</g>
<!-- Node29 -->
<g id="Node000029" class="node">
<title>Node29</title>
<g id="a_Node000029"><a xlink:title=" ">
<polygon fill="#e0e0e0" stroke="#999999" points="871.78,-74.5 774.03,-74.5 774.03,-55.25 871.78,-55.25 871.78,-74.5"/>
<text text-anchor="middle" x="822.91" y="-61" font-family="Helvetica,sans-Serif" font-size="10.00">SFML/Window.hpp</text>
</a>
</g>
</g>
<!-- Node26&#45;&gt;Node29 -->
<g id="edge44_Node000026_Node000029" class="edge">
<title>Node26&#45;&gt;Node29</title>
<g id="a_edge44_Node000026_Node000029"><a xlink:title=" ">
<path fill="none" stroke="#63b8ff" d="M818.32,-165.5C819.11,-148.25 820.88,-109.83 821.98,-86.06"/>
<polygon fill="#63b8ff" stroke="#63b8ff" points="825.46,-86.54 822.42,-76.39 818.47,-86.22 825.46,-86.54"/>
</a>
</g>
</g>
<!-- Node27&#45;&gt;Node4 -->
<g id="edge38_Node000027_Node000004" class="edge">
<title>Node27&#45;&gt;Node4</title>
<g id="a_edge38_Node000027_Node000004"><a xlink:title=" ">
<path fill="none" stroke="#63b8ff" d="M694.18,-110.09C659.55,-100.23 604.43,-84.53 570.03,-74.74"/>
<polygon fill="#63b8ff" stroke="#63b8ff" points="571.25,-71.45 560.67,-72.07 569.33,-78.18 571.25,-71.45"/>
</a>
</g>
</g>
<!-- Node27&#45;&gt;Node7 -->
<g id="edge40_Node000027_Node000007" class="edge">
<title>Node27&#45;&gt;Node7</title>
<g id="a_edge40_Node000027_Node000007"><a xlink:title=" ">
<path fill="none" stroke="#63b8ff" d="M680.7,-114.07C585.93,-103.47 368.3,-79.12 284.07,-69.7"/>
<polygon fill="#63b8ff" stroke="#63b8ff" points="284.7,-66.25 274.37,-68.61 283.92,-73.2 284.7,-66.25"/>
</a>
</g>
</g>
<!-- Node27&#45;&gt;Node10 -->
<g id="edge39_Node000027_Node000010" class="edge">
<title>Node27&#45;&gt;Node10</title>
<g id="a_edge39_Node000027_Node000010"><a xlink:title=" ">
<path fill="none" stroke="#63b8ff" d="M709.12,-110.06C674.31,-91.27 594.04,-47.94 551.88,-25.18"/>
<polygon fill="#63b8ff" stroke="#63b8ff" points="553.59,-22.13 543.12,-20.46 550.26,-28.29 553.59,-22.13"/>
</a>
</g>
</g>
<!-- Node27&#45;&gt;Node28 -->
<g id="edge36_Node000027_Node000028" class="edge">
<title>Node27&#45;&gt;Node28</title>
<g id="a_edge36_Node000027_Node000028"><a xlink:title=" ">
<path fill="none" stroke="#63b8ff" d="M722.44,-110.33C719.78,-103.59 716.01,-94.02 712.64,-85.49"/>
<polygon fill="#63b8ff" stroke="#63b8ff" points="715.93,-84.29 709.01,-76.27 709.42,-86.85 715.93,-84.29"/>
</a>
</g>
</g>
<!-- Node27&#45;&gt;Node29 -->
<g id="edge37_Node000027_Node000029" class="edge">
<title>Node27&#45;&gt;Node29</title>
<g id="a_edge37_Node000027_Node000029"><a xlink:title=" ">
<path fill="none" stroke="#63b8ff" d="M742.36,-110.09C757.13,-101.98 779.08,-89.93 796.34,-80.46"/>
<polygon fill="#63b8ff" stroke="#63b8ff" points="797.96,-83.56 805.04,-75.68 794.59,-77.43 797.96,-83.56"/>
</a>
</g>
</g>
<!-- Node30&#45;&gt;Node2 -->
<g id="edge51_Node000030_Node000002" class="edge">
<title>Node30&#45;&gt;Node2</title>
<g id="a_edge51_Node000030_Node000002"><a xlink:title=" ">
<path fill="none" stroke="#63b8ff" d="M461.47,-165.34C447.74,-157.31 427.41,-145.41 411.29,-135.98"/>
<polygon fill="#63b8ff" stroke="#63b8ff" points="413.12,-133 402.73,-130.97 409.59,-139.04 413.12,-133"/>
</a>
</g>
</g>
<!-- Node30&#45;&gt;Node4 -->
<g id="edge50_Node000030_Node000004" class="edge">
<title>Node30&#45;&gt;Node4</title>
<g id="a_edge50_Node000030_Node000004"><a xlink:title=" ">
<path fill="none" stroke="#63b8ff" d="M481.98,-165.5C492.02,-147.93 514.6,-108.41 528.11,-84.77"/>
<polygon fill="#63b8ff" stroke="#63b8ff" points="531.09,-86.61 533.01,-76.19 525.01,-83.14 531.09,-86.61"/>
</a>
</g>
</g>
<!-- Node30&#45;&gt;Node10 -->
<g id="edge49_Node000030_Node000010" class="edge">
<title>Node30&#45;&gt;Node10</title>
<g id="a_edge49_Node000030_Node000010"><a xlink:title=" ">
<path fill="none" stroke="#63b8ff" d="M479.23,-165.36C484.4,-145.42 497.4,-96.08 509.91,-55.25 512.42,-47.04 515.4,-38.06 518.03,-30.32"/>
<polygon fill="#63b8ff" stroke="#63b8ff" points="521.33,-31.5 521.28,-20.9 514.71,-29.21 521.33,-31.5"/>
</a>
</g>
</g>
</g>
</svg>

<g id="navigator" transform="translate(0 0)" fill="#404254">
  <rect fill="#f2f5e9" fill-opacity="0.5" stroke="#606060" stroke-width=".5" x="0" y="0" width="60" height="60"/>
  <use id="zoomplus" xlink:href="#zoomPlus" x="17" y="9" onmousedown="handleZoom(evt,'in')"/>
  <use id="zoomminus" xlink:href="#zoomMin" x="42" y="9" onmousedown="handleZoom(evt,'out')"/>
  <use id="reset" xlink:href="#resetDef" x="30" y="36" onmousedown="handleReset()"/>
   <use id="arrowup" xlink:href="#arrowUp" x="0" y="0" onmousedown="handlePan(0,-1)"/>
  <use id="arrowright" xlink:href="#arrowRight" x="0" y="0" onmousedown="handlePan(1,0)"/>
  <use id="arrowdown" xlink:href="#arrowDown" x="0" y="0" onmousedown="handlePan(0,1)"/>
  <use id="arrowleft" xlink:href="#arrowLeft" x="0" y="0" onmousedown="handlePan(-1,0)"/>
</g>
<svg viewBox="0 0 15 15" width="100%" height="30px" preserveAspectRatio="xMaxYMin meet">
 <g id="arrow_out" transform="scale(0.3 0.3)">
  <a xlink:href="_server_game_8hpp__incl_org.svg" target="_base">
   <rect id="button" ry="5" rx="5" y="6" x="6" height="38" width="38"
        fill="#f2f5e9" fill-opacity="0.5" stroke="#606060" stroke-width="1.0"/>
   <path id="arrow"
     d="M 11.500037,31.436501 C 11.940474,20.09759 22.043105,11.32322 32.158766,21.979434 L 37.068811,17.246167 C 37.068811,17.246167 37.088388,32 37.088388,32 L 22.160133,31.978069 C 22.160133,31.978069 26.997745,27.140456 26.997745,27.140456 C 18.528582,18.264221 13.291696,25.230495 11.500037,31.436501 z"
     style="fill:#404040;"/>
  </a>
 </g>
</svg>

<style type='text/css'>
<![CDATA[
[data-mouse-over-selected='false'] { opacity: 0.7; }
[data-mouse-over-selected='true']  { opacity: 1.0; }
]]>
</style>
<script type="application/ecmascript"><![CDATA[
document.addEventListener('DOMContentLoaded', (event) => {
  highlightEdges();
  highlightAdjacentNodes();
});
]]></script>
</svg>
