<?xml version="1.0" encoding="UTF-8" standalone="no"?>
<!DOCTYPE svg PUBLIC "-//W3C//DTD SVG 1.1//EN"
 "http://www.w3.org/Graphics/SVG/1.1/DTD/svg11.dtd">
<!-- Generated by graphviz version 12.2.1 (20241206.2353)
 -->
<!-- Title: src/server/ServerNetwork.cpp Pages: 1 -->
<svg width="1316pt" height="359pt"
 viewBox="0.00 0.00 1316.10 358.75" xmlns="http://www.w3.org/2000/svg" xmlns:xlink="http://www.w3.org/1999/xlink">
<g id="graph0" class="graph" transform="scale(1 1) rotate(0) translate(4 354.75)">
<title>src/server/ServerNetwork.cpp</title>
<!-- Node1 -->
<g id="Node000001" class="node">
<title>Node1</title>
<g id="a_Node000001"><a xlink:title=" ">
<polygon fill="#999999" stroke="#666666" points="1180.35,-350.75 1033.85,-350.75 1033.85,-331.5 1180.35,-331.5 1180.35,-350.75"/>
<text text-anchor="middle" x="1107.1" y="-337.25" font-family="Helvetica,sans-Serif" font-size="10.00">src/server/ServerNetwork.cpp</text>
</a>
</g>
</g>
<!-- Node2 -->
<g id="Node000002" class="node">
<title>Node2</title>
<g id="a_Node000002"><a xlink:href="_server_network_8hpp.html" target="_top" xlink:title=" ">
<polygon fill="white" stroke="#666666" points="1157.1,-295.5 1057.1,-295.5 1057.1,-276.25 1157.1,-276.25 1157.1,-295.5"/>
<text text-anchor="middle" x="1107.1" y="-282" font-family="Helvetica,sans-Serif" font-size="10.00">ServerNetwork.hpp</text>
</a>
</g>
</g>
<!-- Node1&#45;&gt;Node2 -->
<g id="edge1_Node000001_Node000002" class="edge">
<title>Node1&#45;&gt;Node2</title>
<g id="a_edge1_Node000001_Node000002"><a xlink:title=" ">
<path fill="none" stroke="#63b8ff" d="M1107.1,-331.33C1107.1,-324.82 1107.1,-315.67 1107.1,-307.37"/>
<polygon fill="#63b8ff" stroke="#63b8ff" points="1110.6,-307.37 1107.1,-297.37 1103.6,-307.37 1110.6,-307.37"/>
</a>
</g>
</g>
<!-- Node3 -->
<g id="Node000003" class="node">
<title>Node3</title>
<g id="a_Node000003"><a xlink:title=" ">
<polygon fill="#e0e0e0" stroke="#999999" points="983.97,-129.75 904.22,-129.75 904.22,-110.5 983.97,-110.5 983.97,-129.75"/>
<text text-anchor="middle" x="944.1" y="-116.25" font-family="Helvetica,sans-Serif" font-size="10.00">boost/asio.hpp</text>
</a>
</g>
</g>
<!-- Node2&#45;&gt;Node3 -->
<g id="edge2_Node000002_Node000003" class="edge">
<title>Node2&#45;&gt;Node3</title>
<g id="a_edge2_Node000002_Node000003"><a xlink:title=" ">
<path fill="none" stroke="#63b8ff" d="M1098.34,-276.07C1072.25,-249.86 994.77,-172.03 960.6,-137.7"/>
<polygon fill="#63b8ff" stroke="#63b8ff" points="963.51,-135.66 953.97,-131.05 958.55,-140.6 963.51,-135.66"/>
</a>
</g>
</g>
<!-- Node4 -->
<g id="Node000004" class="node">
<title>Node4</title>
<g id="a_Node000004"><a xlink:title=" ">
<polygon fill="#e0e0e0" stroke="#999999" points="1010.1,-74.5 970.1,-74.5 970.1,-55.25 1010.1,-55.25 1010.1,-74.5"/>
<text text-anchor="middle" x="990.1" y="-61" font-family="Helvetica,sans-Serif" font-size="10.00">string</text>
</a>
</g>
</g>
<!-- Node2&#45;&gt;Node4 -->
<g id="edge3_Node000002_Node000004" class="edge">
<title>Node2&#45;&gt;Node4</title>
<g id="a_edge3_Node000002_Node000004"><a xlink:title=" ">
<path fill="none" stroke="#63b8ff" d="M1102.37,-276.02C1084.95,-243.41 1024.15,-129.61 1000.05,-84.5"/>
<polygon fill="#63b8ff" stroke="#63b8ff" points="1003.27,-83.11 995.48,-75.94 997.1,-86.41 1003.27,-83.11"/>
</a>
</g>
</g>
<!-- Node5 -->
<g id="Node000005" class="node">
<title>Node5</title>
<g id="a_Node000005"><a xlink:title=" ">
<polygon fill="#e0e0e0" stroke="#999999" points="1197.6,-240.25 1154.6,-240.25 1154.6,-221 1197.6,-221 1197.6,-240.25"/>
<text text-anchor="middle" x="1176.1" y="-226.75" font-family="Helvetica,sans-Serif" font-size="10.00">thread</text>
</a>
</g>
</g>
<!-- Node2&#45;&gt;Node5 -->
<g id="edge4_Node000002_Node000005" class="edge">
<title>Node2&#45;&gt;Node5</title>
<g id="a_edge4_Node000002_Node000005"><a xlink:title=" ">
<path fill="none" stroke="#63b8ff" d="M1118.8,-275.84C1128.88,-268.07 1143.64,-256.67 1155.66,-247.4"/>
<polygon fill="#63b8ff" stroke="#63b8ff" points="1157.59,-250.33 1163.37,-241.45 1153.31,-244.79 1157.59,-250.33"/>
</a>
</g>
</g>
<!-- Node6 -->
<g id="Node000006" class="node">
<title>Node6</title>
<g id="a_Node000006"><a xlink:title=" ">
<polygon fill="#e0e0e0" stroke="#999999" points="1250.47,-240.25 1215.72,-240.25 1215.72,-221 1250.47,-221 1250.47,-240.25"/>
<text text-anchor="middle" x="1233.1" y="-226.75" font-family="Helvetica,sans-Serif" font-size="10.00">map</text>
</a>
</g>
</g>
<!-- Node2&#45;&gt;Node6 -->
<g id="edge5_Node000002_Node000006" class="edge">
<title>Node2&#45;&gt;Node6</title>
<g id="a_edge5_Node000002_Node000006"><a xlink:title=" ">
<path fill="none" stroke="#63b8ff" d="M1128.47,-275.84C1149.47,-266.97 1181.64,-253.37 1204.76,-243.6"/>
<polygon fill="#63b8ff" stroke="#63b8ff" points="1206.05,-246.86 1213.9,-239.74 1203.33,-240.41 1206.05,-246.86"/>
</a>
</g>
</g>
<!-- Node7 -->
<g id="Node000007" class="node">
<title>Node7</title>
<g id="a_Node000007"><a xlink:title=" ">
<polygon fill="#e0e0e0" stroke="#999999" points="581.72,-74.5 536.47,-74.5 536.47,-55.25 581.72,-55.25 581.72,-74.5"/>
<text text-anchor="middle" x="559.1" y="-61" font-family="Helvetica,sans-Serif" font-size="10.00">chrono</text>
</a>
</g>
</g>
<!-- Node2&#45;&gt;Node7 -->
<g id="edge6_Node000002_Node000007" class="edge">
<title>Node2&#45;&gt;Node7</title>
<g id="a_edge6_Node000002_Node000007"><a xlink:title=" ">
<path fill="none" stroke="#63b8ff" d="M1056.68,-285.48C967.97,-284.16 781.51,-270.48 656.1,-185 616.76,-158.19 585.12,-110.85 569.57,-84.65"/>
<polygon fill="#63b8ff" stroke="#63b8ff" points="572.7,-83.06 564.67,-76.14 566.63,-86.55 572.7,-83.06"/>
</a>
</g>
</g>
<!-- Node8 -->
<g id="Node000008" class="node">
<title>Node8</title>
<g id="a_Node000008"><a xlink:title=" ">
<polygon fill="#e0e0e0" stroke="#999999" points="1308.1,-240.25 1268.1,-240.25 1268.1,-221 1308.1,-221 1308.1,-240.25"/>
<text text-anchor="middle" x="1288.1" y="-226.75" font-family="Helvetica,sans-Serif" font-size="10.00">bitset</text>
</a>
</g>
</g>
<!-- Node2&#45;&gt;Node8 -->
<g id="edge7_Node000002_Node000008" class="edge">
<title>Node2&#45;&gt;Node8</title>
<g id="a_edge7_Node000002_Node000008"><a xlink:title=" ">
<path fill="none" stroke="#63b8ff" d="M1138.26,-275.76C1166.77,-267.42 1210.41,-254.62 1256.91,-240.89"/>
<polygon fill="#63b8ff" stroke="#63b8ff" points="1257.77,-244.29 1266.37,-238.09 1255.79,-237.57 1257.77,-244.29"/>
</a>
</g>
</g>
<!-- Node9 -->
<g id="Node000009" class="node">
<title>Node9</title>
<g id="a_Node000009"><a xlink:title=" ">
<polygon fill="#e0e0e0" stroke="#999999" points="945.6,-19.25 902.6,-19.25 902.6,0 945.6,0 945.6,-19.25"/>
<text text-anchor="middle" x="924.1" y="-5.75" font-family="Helvetica,sans-Serif" font-size="10.00">vector</text>
</a>
</g>
</g>
<!-- Node2&#45;&gt;Node9 -->
<g id="edge8_Node000002_Node000009" class="edge">
<title>Node2&#45;&gt;Node9</title>
<g id="a_edge8_Node000002_Node000009"><a xlink:title=" ">
<path fill="none" stroke="#63b8ff" d="M1109.74,-275.97C1114.96,-257.55 1126.1,-213.86 1126.1,-176.38 1126.1,-176.38 1126.1,-176.38 1126.1,-119.12 1126.1,-43.31 1014.3,-20.25 957.05,-13.41"/>
<polygon fill="#63b8ff" stroke="#63b8ff" points="957.54,-9.94 947.22,-12.35 956.79,-16.9 957.54,-9.94"/>
</a>
</g>
</g>
<!-- Node10 -->
<g id="Node000010" class="node">
<title>Node10</title>
<g id="a_Node000010"><a xlink:href="_mediator_8hpp.html" target="_top" xlink:title=" ">
<polygon fill="white" stroke="#666666" points="909.85,-240.25 838.35,-240.25 838.35,-221 909.85,-221 909.85,-240.25"/>
<text text-anchor="middle" x="874.1" y="-226.75" font-family="Helvetica,sans-Serif" font-size="10.00">Mediator.hpp</text>
</a>
</g>
</g>
<!-- Node2&#45;&gt;Node10 -->
<g id="edge9_Node000002_Node000010" class="edge">
<title>Node2&#45;&gt;Node10</title>
<g id="a_edge9_Node000002_Node000010"><a xlink:title=" ">
<path fill="none" stroke="#63b8ff" d="M1067.31,-275.78C1026.86,-266.54 964.21,-252.22 921.28,-242.41"/>
<polygon fill="#63b8ff" stroke="#63b8ff" points="922.28,-239.05 911.75,-240.23 920.72,-245.87 922.28,-239.05"/>
</a>
</g>
</g>
<!-- Node10&#45;&gt;Node3 -->
<g id="edge45_Node000010_Node000003" class="edge">
<title>Node10&#45;&gt;Node3</title>
<g id="a_edge45_Node000010_Node000003"><a xlink:title=" ">
<path fill="none" stroke="#63b8ff" d="M884.79,-220.6C894.27,-212.17 907.97,-198.83 917.1,-185 926.24,-171.15 933.36,-153.7 937.99,-140.54"/>
<polygon fill="#63b8ff" stroke="#63b8ff" points="941.22,-141.92 941.05,-131.33 934.58,-139.71 941.22,-141.92"/>
</a>
</g>
</g>
<!-- Node10&#45;&gt;Node4 -->
<g id="edge43_Node000010_Node000004" class="edge">
<title>Node10&#45;&gt;Node4</title>
<g id="a_edge43_Node000010_Node000004"><a xlink:title=" ">
<path fill="none" stroke="#63b8ff" d="M893.86,-220.51C922.46,-206.02 974.07,-174.71 993.1,-129.75 998.94,-115.96 997.79,-98.97 995.4,-85.98"/>
<polygon fill="#63b8ff" stroke="#63b8ff" points="998.87,-85.44 993.25,-76.46 992.04,-86.99 998.87,-85.44"/>
</a>
</g>
</g>
<!-- Node10&#45;&gt;Node9 -->
<g id="edge44_Node000010_Node000009" class="edge">
<title>Node10&#45;&gt;Node9</title>
<g id="a_edge44_Node000010_Node000009"><a xlink:title=" ">
<path fill="none" stroke="#63b8ff" d="M906.53,-220.55C927.54,-213.45 954.54,-201.91 974.1,-185 996.09,-165.99 998.54,-156.83 1009.1,-129.75 1021.24,-98.63 1037.01,-83.45 1019.1,-55.25 1005.52,-33.87 978.67,-22.55 956.98,-16.67"/>
<polygon fill="#63b8ff" stroke="#63b8ff" points="957.89,-13.29 947.35,-14.35 956.26,-20.1 957.89,-13.29"/>
</a>
</g>
</g>
<!-- Node11 -->
<g id="Node000011" class="node">
<title>Node11</title>
<g id="a_Node000011"><a xlink:href="_systems_8hpp.html" target="_top" xlink:title=" ">
<polygon fill="white" stroke="#666666" points="747.47,-185 664.72,-185 664.72,-165.75 747.47,-165.75 747.47,-185"/>
<text text-anchor="middle" x="706.1" y="-171.5" font-family="Helvetica,sans-Serif" font-size="10.00">../Systems.hpp</text>
</a>
</g>
</g>
<!-- Node10&#45;&gt;Node11 -->
<g id="edge10_Node000010_Node000011" class="edge">
<title>Node10&#45;&gt;Node11</title>
<g id="a_edge10_Node000010_Node000011"><a xlink:title=" ">
<path fill="none" stroke="#63b8ff" d="M840.38,-220.59C811.18,-211.91 769.33,-198.71 740.06,-188.99"/>
<polygon fill="#63b8ff" stroke="#63b8ff" points="741.54,-185.8 730.95,-185.93 739.32,-192.43 741.54,-185.8"/>
</a>
</g>
</g>
<!-- Node15 -->
<g id="Node000015" class="node">
<title>Node15</title>
<g id="a_Node000015"><a xlink:href="_registry_8hpp.html" target="_top" xlink:title=" ">
<polygon fill="white" stroke="#666666" points="304.1,-129.75 234.1,-129.75 234.1,-110.5 304.1,-110.5 304.1,-129.75"/>
<text text-anchor="middle" x="269.1" y="-116.25" font-family="Helvetica,sans-Serif" font-size="10.00">Registry.hpp</text>
</a>
</g>
</g>
<!-- Node10&#45;&gt;Node15 -->
<g id="edge37_Node000010_Node000015" class="edge">
<title>Node10&#45;&gt;Node15</title>
<g id="a_edge37_Node000010_Node000015"><a xlink:title=" ">
<path fill="none" stroke="#63b8ff" d="M837.97,-224.01C785.81,-215.84 686.43,-200 602.1,-185 499.59,-166.76 379.76,-143.23 315.49,-130.43"/>
<polygon fill="#63b8ff" stroke="#63b8ff" points="316.5,-127.06 306.01,-128.54 315.13,-133.93 316.5,-127.06"/>
</a>
</g>
</g>
<!-- Node26 -->
<g id="Node000026" class="node">
<title>Node26</title>
<g id="a_Node000026"><a xlink:title=" ">
<polygon fill="#e0e0e0" stroke="#999999" points="569.85,-19.25 516.35,-19.25 516.35,0 569.85,0 569.85,-19.25"/>
<text text-anchor="middle" x="543.1" y="-5.75" font-family="Helvetica,sans-Serif" font-size="10.00">iostream</text>
</a>
</g>
</g>
<!-- Node10&#45;&gt;Node26 -->
<g id="edge42_Node000010_Node000026" class="edge">
<title>Node10&#45;&gt;Node26</title>
<g id="a_edge42_Node000010_Node000026"><a xlink:title=" ">
<path fill="none" stroke="#63b8ff" d="M837.98,-227.77C793.22,-224.25 715.61,-214.12 656.1,-185 588.29,-151.82 558.66,-143.08 527.1,-74.5 520.52,-60.2 525.65,-42.81 531.79,-29.79"/>
<polygon fill="#63b8ff" stroke="#63b8ff" points="534.86,-31.46 536.47,-20.99 528.68,-28.17 534.86,-31.46"/>
</a>
</g>
</g>
<!-- Node28 -->
<g id="Node000028" class="node">
<title>Node28</title>
<g id="a_Node000028"><a xlink:href="_i_sender_8hpp.html" target="_top" xlink:title=" ">
<polygon fill="white" stroke="#666666" points="907.97,-185 840.22,-185 840.22,-165.75 907.97,-165.75 907.97,-185"/>
<text text-anchor="middle" x="874.1" y="-171.5" font-family="Helvetica,sans-Serif" font-size="10.00">ISender.hpp</text>
</a>
</g>
</g>
<!-- Node10&#45;&gt;Node28 -->
<g id="edge38_Node000010_Node000028" class="edge">
<title>Node10&#45;&gt;Node28</title>
<g id="a_edge38_Node000010_Node000028"><a xlink:title=" ">
<path fill="none" stroke="#63b8ff" d="M874.1,-220.83C874.1,-214.32 874.1,-205.17 874.1,-196.87"/>
<polygon fill="#63b8ff" stroke="#63b8ff" points="877.6,-196.87 874.1,-186.87 870.6,-196.87 877.6,-196.87"/>
</a>
</g>
</g>
<!-- Node11&#45;&gt;Node10 -->
<g id="edge36_Node000011_Node000010" class="edge">
<title>Node11&#45;&gt;Node10</title>
<g id="a_edge36_Node000011_Node000010"><a xlink:title=" ">
<path fill="none" stroke="#63b8ff" d="M739.96,-185.45C769.08,-194.11 810.7,-207.24 839.9,-216.93"/>
<polygon fill="#63b8ff" stroke="#63b8ff" points="838.79,-220.25 849.38,-220.11 841.01,-213.61 838.79,-220.25"/>
</a>
</g>
</g>
<!-- Node12 -->
<g id="Node000012" class="node">
<title>Node12</title>
<g id="a_Node000012"><a xlink:href="_components_8hpp.html" target="_top" xlink:title=" ">
<polygon fill="white" stroke="#666666" points="772.22,-129.75 681.97,-129.75 681.97,-110.5 772.22,-110.5 772.22,-129.75"/>
<text text-anchor="middle" x="727.1" y="-116.25" font-family="Helvetica,sans-Serif" font-size="10.00">Components.hpp</text>
</a>
</g>
</g>
<!-- Node11&#45;&gt;Node12 -->
<g id="edge11_Node000011_Node000012" class="edge">
<title>Node11&#45;&gt;Node12</title>
<g id="a_edge11_Node000011_Node000012"><a xlink:title=" ">
<path fill="none" stroke="#63b8ff" d="M709.57,-165.58C712.23,-158.84 716,-149.27 719.36,-140.74"/>
<polygon fill="#63b8ff" stroke="#63b8ff" points="722.59,-142.1 723,-131.52 716.08,-139.54 722.59,-142.1"/>
</a>
</g>
</g>
<!-- Node13 -->
<g id="Node000013" class="node">
<title>Node13</title>
<g id="a_Node000013"><a xlink:title=" ">
<polygon fill="#e0e0e0" stroke="#999999" points="895.6,-74.5 792.6,-74.5 792.6,-55.25 895.6,-55.25 895.6,-74.5"/>
<text text-anchor="middle" x="844.1" y="-61" font-family="Helvetica,sans-Serif" font-size="10.00">SFML/Graphics.hpp</text>
</a>
</g>
</g>
<!-- Node11&#45;&gt;Node13 -->
<g id="edge33_Node000011_Node000013" class="edge">
<title>Node11&#45;&gt;Node13</title>
<g id="a_edge33_Node000011_Node000013"><a xlink:title=" ">
<path fill="none" stroke="#63b8ff" d="M724.2,-165.3C739.93,-157.02 762.97,-143.95 781.1,-129.75 799.03,-115.7 817.04,-96.86 829.18,-83.28"/>
<polygon fill="#63b8ff" stroke="#63b8ff" points="831.61,-85.81 835.58,-75.99 826.35,-81.2 831.61,-85.81"/>
</a>
</g>
</g>
<!-- Node14 -->
<g id="Node000014" class="node">
<title>Node14</title>
<g id="a_Node000014"><a xlink:title=" ">
<polygon fill="#e0e0e0" stroke="#999999" points="735.97,-74.5 638.22,-74.5 638.22,-55.25 735.97,-55.25 735.97,-74.5"/>
<text text-anchor="middle" x="687.1" y="-61" font-family="Helvetica,sans-Serif" font-size="10.00">SFML/Window.hpp</text>
</a>
</g>
</g>
<!-- Node11&#45;&gt;Node14 -->
<g id="edge34_Node000011_Node000014" class="edge">
<title>Node11&#45;&gt;Node14</title>
<g id="a_edge34_Node000011_Node000014"><a xlink:title=" ">
<path fill="none" stroke="#63b8ff" d="M696.77,-165.48C688.74,-157.13 677.74,-143.84 673.1,-129.75 668.26,-115.06 672.54,-97.9 677.6,-85.08"/>
<polygon fill="#63b8ff" stroke="#63b8ff" points="680.73,-86.65 681.61,-76.09 674.34,-83.79 680.73,-86.65"/>
</a>
</g>
</g>
<!-- Node11&#45;&gt;Node15 -->
<g id="edge17_Node000011_Node000015" class="edge">
<title>Node11&#45;&gt;Node15</title>
<g id="a_edge17_Node000011_Node000015"><a xlink:title=" ">
<path fill="none" stroke="#63b8ff" d="M664.59,-169.32C582.81,-159.35 401.36,-137.24 315.65,-126.8"/>
<polygon fill="#63b8ff" stroke="#63b8ff" points="316.31,-123.35 305.96,-125.62 315.47,-130.3 316.31,-123.35"/>
</a>
</g>
</g>
<!-- Node21 -->
<g id="Node000021" class="node">
<title>Node21</title>
<g id="a_Node000021"><a xlink:href="_sparse_array_8hpp.html" target="_top" xlink:title=" ">
<polygon fill="white" stroke="#666666" points="479.72,-74.5 392.47,-74.5 392.47,-55.25 479.72,-55.25 479.72,-74.5"/>
<text text-anchor="middle" x="436.1" y="-61" font-family="Helvetica,sans-Serif" font-size="10.00">SparseArray.hpp</text>
</a>
</g>
</g>
<!-- Node11&#45;&gt;Node21 -->
<g id="edge32_Node000011_Node000021" class="edge">
<title>Node11&#45;&gt;Node21</title>
<g id="a_edge32_Node000011_Node000021"><a xlink:title=" ">
<path fill="none" stroke="#63b8ff" d="M683.54,-165.31C635.9,-146.16 524.82,-101.53 469.14,-79.15"/>
<polygon fill="#63b8ff" stroke="#63b8ff" points="470.77,-76.04 460.19,-75.55 468.16,-82.53 470.77,-76.04"/>
</a>
</g>
</g>
<!-- Node11&#45;&gt;Node26 -->
<g id="edge35_Node000011_Node000026" class="edge">
<title>Node11&#45;&gt;Node26</title>
<g id="a_edge35_Node000011_Node000026"><a xlink:title=" ">
<path fill="none" stroke="#63b8ff" d="M697.89,-165.55C679.24,-145.58 632.13,-95.52 591.1,-55.25 581.48,-45.81 570.48,-35.54 561.44,-27.24"/>
<polygon fill="#63b8ff" stroke="#63b8ff" points="564.04,-24.88 554.29,-20.72 559.32,-30.05 564.04,-24.88"/>
</a>
</g>
</g>
<!-- Node12&#45;&gt;Node4 -->
<g id="edge14_Node000012_Node000004" class="edge">
<title>Node12&#45;&gt;Node4</title>
<g id="a_edge14_Node000012_Node000004"><a xlink:title=" ">
<path fill="none" stroke="#63b8ff" d="M772.01,-110.03C825.19,-99.27 912.37,-81.61 958.76,-72.22"/>
<polygon fill="#63b8ff" stroke="#63b8ff" points="959.31,-75.68 968.42,-70.27 957.92,-68.82 959.31,-75.68"/>
</a>
</g>
</g>
<!-- Node12&#45;&gt;Node7 -->
<g id="edge16_Node000012_Node000007" class="edge">
<title>Node12&#45;&gt;Node7</title>
<g id="a_edge16_Node000012_Node000007"><a xlink:title=" ">
<path fill="none" stroke="#63b8ff" d="M698.6,-110.09C669.34,-100.82 623.8,-86.38 592.78,-76.55"/>
<polygon fill="#63b8ff" stroke="#63b8ff" points="594.09,-73.29 583.5,-73.61 591.98,-79.97 594.09,-73.29"/>
</a>
</g>
</g>
<!-- Node12&#45;&gt;Node9 -->
<g id="edge15_Node000012_Node000009" class="edge">
<title>Node12&#45;&gt;Node9</title>
<g id="a_edge15_Node000012_Node000009"><a xlink:title=" ">
<path fill="none" stroke="#63b8ff" d="M732.65,-110.34C741.75,-96.62 761.16,-70.13 784.1,-55.25 817.17,-33.8 861.31,-21.99 891.12,-15.99"/>
<polygon fill="#63b8ff" stroke="#63b8ff" points="891.51,-19.48 900.68,-14.19 890.21,-12.6 891.51,-19.48"/>
</a>
</g>
</g>
<!-- Node12&#45;&gt;Node13 -->
<g id="edge12_Node000012_Node000013" class="edge">
<title>Node12&#45;&gt;Node13</title>
<g id="a_edge12_Node000012_Node000013"><a xlink:title=" ">
<path fill="none" stroke="#63b8ff" d="M746.95,-110.09C765.27,-101.75 792.75,-89.25 813.81,-79.66"/>
<polygon fill="#63b8ff" stroke="#63b8ff" points="815.13,-82.91 822.78,-75.58 812.23,-76.54 815.13,-82.91"/>
</a>
</g>
</g>
<!-- Node12&#45;&gt;Node14 -->
<g id="edge13_Node000012_Node000014" class="edge">
<title>Node12&#45;&gt;Node14</title>
<g id="a_edge13_Node000012_Node000014"><a xlink:title=" ">
<path fill="none" stroke="#63b8ff" d="M720.49,-110.33C715.14,-103.21 707.42,-92.93 700.75,-84.05"/>
<polygon fill="#63b8ff" stroke="#63b8ff" points="703.56,-81.96 694.76,-76.07 697.97,-86.17 703.56,-81.96"/>
</a>
</g>
</g>
<!-- Node16 -->
<g id="Node000016" class="node">
<title>Node16</title>
<g id="a_Node000016"><a xlink:title=" ">
<polygon fill="#e0e0e0" stroke="#999999" points="172.47,-74.5 89.72,-74.5 89.72,-55.25 172.47,-55.25 172.47,-74.5"/>
<text text-anchor="middle" x="131.1" y="-61" font-family="Helvetica,sans-Serif" font-size="10.00">unordered_map</text>
</a>
</g>
</g>
<!-- Node15&#45;&gt;Node16 -->
<g id="edge18_Node000015_Node000016" class="edge">
<title>Node15&#45;&gt;Node16</title>
<g id="a_edge18_Node000015_Node000016"><a xlink:title=" ">
<path fill="none" stroke="#63b8ff" d="M245.69,-110.09C223.58,-101.56 190.18,-88.67 165.13,-79.01"/>
<polygon fill="#63b8ff" stroke="#63b8ff" points="166.63,-75.83 156.04,-75.5 164.11,-82.36 166.63,-75.83"/>
</a>
</g>
</g>
<!-- Node17 -->
<g id="Node000017" class="node">
<title>Node17</title>
<g id="a_Node000017"><a xlink:title=" ">
<polygon fill="#e0e0e0" stroke="#999999" points="221.97,-74.5 190.22,-74.5 190.22,-55.25 221.97,-55.25 221.97,-74.5"/>
<text text-anchor="middle" x="206.1" y="-61" font-family="Helvetica,sans-Serif" font-size="10.00">any</text>
</a>
</g>
</g>
<!-- Node15&#45;&gt;Node17 -->
<g id="edge19_Node000015_Node000017" class="edge">
<title>Node15&#45;&gt;Node17</title>
<g id="a_edge19_Node000015_Node000017"><a xlink:title=" ">
<path fill="none" stroke="#63b8ff" d="M258.41,-110.09C249.4,-102.47 236.27,-91.37 225.42,-82.2"/>
<polygon fill="#63b8ff" stroke="#63b8ff" points="227.68,-79.53 217.79,-75.75 223.16,-84.88 227.68,-79.53"/>
</a>
</g>
</g>
<!-- Node18 -->
<g id="Node000018" class="node">
<title>Node18</title>
<g id="a_Node000018"><a xlink:title=" ">
<polygon fill="#e0e0e0" stroke="#999999" points="298.1,-74.5 240.1,-74.5 240.1,-55.25 298.1,-55.25 298.1,-74.5"/>
<text text-anchor="middle" x="269.1" y="-61" font-family="Helvetica,sans-Serif" font-size="10.00">functional</text>
</a>
</g>
</g>
<!-- Node15&#45;&gt;Node18 -->
<g id="edge20_Node000015_Node000018" class="edge">
<title>Node15&#45;&gt;Node18</title>
<g id="a_edge20_Node000015_Node000018"><a xlink:title=" ">
<path fill="none" stroke="#63b8ff" d="M269.1,-110.33C269.1,-103.82 269.1,-94.67 269.1,-86.37"/>
<polygon fill="#63b8ff" stroke="#63b8ff" points="272.6,-86.37 269.1,-76.37 265.6,-86.37 272.6,-86.37"/>
</a>
</g>
</g>
<!-- Node19 -->
<g id="Node000019" class="node">
<title>Node19</title>
<g id="a_Node000019"><a xlink:title=" ">
<polygon fill="#e0e0e0" stroke="#999999" points="374.1,-74.5 316.1,-74.5 316.1,-55.25 374.1,-55.25 374.1,-74.5"/>
<text text-anchor="middle" x="345.1" y="-61" font-family="Helvetica,sans-Serif" font-size="10.00">typeindex</text>
</a>
</g>
</g>
<!-- Node15&#45;&gt;Node19 -->
<g id="edge21_Node000015_Node000019" class="edge">
<title>Node15&#45;&gt;Node19</title>
<g id="a_edge21_Node000015_Node000019"><a xlink:title=" ">
<path fill="none" stroke="#63b8ff" d="M281.99,-110.09C293.13,-102.29 309.47,-90.84 322.74,-81.54"/>
<polygon fill="#63b8ff" stroke="#63b8ff" points="324.72,-84.43 330.9,-75.82 320.71,-78.69 324.72,-84.43"/>
</a>
</g>
</g>
<!-- Node20 -->
<g id="Node000020" class="node">
<title>Node20</title>
<g id="a_Node000020"><a xlink:title=" ">
<polygon fill="#e0e0e0" stroke="#999999" points="233.47,-19.25 174.72,-19.25 174.72,0 233.47,0 233.47,-19.25"/>
<text text-anchor="middle" x="204.1" y="-5.75" font-family="Helvetica,sans-Serif" font-size="10.00">stdexcept</text>
</a>
</g>
</g>
<!-- Node15&#45;&gt;Node20 -->
<g id="edge22_Node000015_Node000020" class="edge">
<title>Node15&#45;&gt;Node20</title>
<g id="a_edge22_Node000015_Node000020"><a xlink:title=" ">
<path fill="none" stroke="#63b8ff" d="M233.63,-118.58C168.32,-116.74 33.1,-108.79 4.1,-74.5 -1.42,-67.97 -1.25,-61.93 4.1,-55.25 23.65,-30.86 110.58,-18.93 163.19,-13.84"/>
<polygon fill="#63b8ff" stroke="#63b8ff" points="163.35,-17.34 172.99,-12.94 162.71,-10.37 163.35,-17.34"/>
</a>
</g>
</g>
<!-- Node15&#45;&gt;Node21 -->
<g id="edge23_Node000015_Node000021" class="edge">
<title>Node15&#45;&gt;Node21</title>
<g id="a_edge23_Node000015_Node000021"><a xlink:title=" ">
<path fill="none" stroke="#63b8ff" d="M297.43,-110.09C324.78,-101.37 366.42,-88.09 396.94,-78.36"/>
<polygon fill="#63b8ff" stroke="#63b8ff" points="397.73,-81.78 406.19,-75.41 395.6,-75.12 397.73,-81.78"/>
</a>
</g>
</g>
<!-- Node25 -->
<g id="Node000025" class="node">
<title>Node25</title>
<g id="a_Node000025"><a xlink:href="_entity_8hpp.html" target="_top" xlink:title=" ">
<polygon fill="white" stroke="#666666" points="71.47,-74.5 12.72,-74.5 12.72,-55.25 71.47,-55.25 71.47,-74.5"/>
<text text-anchor="middle" x="42.1" y="-61" font-family="Helvetica,sans-Serif" font-size="10.00">Entity.hpp</text>
</a>
</g>
</g>
<!-- Node15&#45;&gt;Node25 -->
<g id="edge29_Node000015_Node000025" class="edge">
<title>Node15&#45;&gt;Node25</title>
<g id="a_edge29_Node000015_Node000025"><a xlink:title=" ">
<path fill="none" stroke="#63b8ff" d="M233.63,-110.8C192.85,-101.24 126.03,-85.56 83.07,-75.49"/>
<polygon fill="#63b8ff" stroke="#63b8ff" points="83.9,-72.09 73.37,-73.21 82.3,-78.9 83.9,-72.09"/>
</a>
</g>
</g>
<!-- Node21&#45;&gt;Node9 -->
<g id="edge24_Node000021_Node000009" class="edge">
<title>Node21&#45;&gt;Node9</title>
<g id="a_edge24_Node000021_Node000009"><a xlink:title=" ">
<path fill="none" stroke="#63b8ff" d="M479.84,-59.1C576.26,-48.58 805.35,-23.58 891.02,-14.24"/>
<polygon fill="#63b8ff" stroke="#63b8ff" points="891.29,-17.73 900.85,-13.16 890.53,-10.77 891.29,-17.73"/>
</a>
</g>
</g>
<!-- Node21&#45;&gt;Node20 -->
<g id="edge26_Node000021_Node000020" class="edge">
<title>Node21&#45;&gt;Node20</title>
<g id="a_edge26_Node000021_Node000020"><a xlink:title=" ">
<path fill="none" stroke="#63b8ff" d="M396.48,-54.78C354.28,-45.09 287.79,-29.83 245.08,-20.03"/>
<polygon fill="#63b8ff" stroke="#63b8ff" points="245.97,-16.64 235.44,-17.82 244.4,-23.47 245.97,-16.64"/>
</a>
</g>
</g>
<!-- Node22 -->
<g id="Node000022" class="node">
<title>Node22</title>
<g id="a_Node000022"><a xlink:title=" ">
<polygon fill="#e0e0e0" stroke="#999999" points="354.97,-19.25 305.22,-19.25 305.22,0 354.97,0 354.97,-19.25"/>
<text text-anchor="middle" x="330.1" y="-5.75" font-family="Helvetica,sans-Serif" font-size="10.00">optional</text>
</a>
</g>
</g>
<!-- Node21&#45;&gt;Node22 -->
<g id="edge25_Node000021_Node000022" class="edge">
<title>Node21&#45;&gt;Node22</title>
<g id="a_edge25_Node000021_Node000022"><a xlink:title=" ">
<path fill="none" stroke="#63b8ff" d="M418.12,-54.84C401.75,-46.62 377.31,-34.34 358.34,-24.81"/>
<polygon fill="#63b8ff" stroke="#63b8ff" points="360.03,-21.74 349.52,-20.38 356.89,-28 360.03,-21.74"/>
</a>
</g>
</g>
<!-- Node23 -->
<g id="Node000023" class="node">
<title>Node23</title>
<g id="a_Node000023"><a xlink:title=" ">
<polygon fill="#e0e0e0" stroke="#999999" points="428.97,-19.25 373.22,-19.25 373.22,0 428.97,0 428.97,-19.25"/>
<text text-anchor="middle" x="401.1" y="-5.75" font-family="Helvetica,sans-Serif" font-size="10.00">algorithm</text>
</a>
</g>
</g>
<!-- Node21&#45;&gt;Node23 -->
<g id="edge27_Node000021_Node000023" class="edge">
<title>Node21&#45;&gt;Node23</title>
<g id="a_edge27_Node000021_Node000023"><a xlink:title=" ">
<path fill="none" stroke="#63b8ff" d="M430.32,-55.08C425.69,-48.03 419.03,-37.9 413.23,-29.08"/>
<polygon fill="#63b8ff" stroke="#63b8ff" points="416.25,-27.31 407.84,-20.87 410.4,-31.15 416.25,-27.31"/>
</a>
</g>
</g>
<!-- Node24 -->
<g id="Node000024" class="node">
<title>Node24</title>
<g id="a_Node000024"><a xlink:title=" ">
<polygon fill="#e0e0e0" stroke="#999999" points="498.72,-19.25 447.47,-19.25 447.47,0 498.72,0 498.72,-19.25"/>
<text text-anchor="middle" x="473.1" y="-5.75" font-family="Helvetica,sans-Serif" font-size="10.00">memory</text>
</a>
</g>
</g>
<!-- Node21&#45;&gt;Node24 -->
<g id="edge28_Node000021_Node000024" class="edge">
<title>Node21&#45;&gt;Node24</title>
<g id="a_edge28_Node000021_Node000024"><a xlink:title=" ">
<path fill="none" stroke="#63b8ff" d="M442.21,-55.08C447.16,-47.96 454.3,-37.68 460.47,-28.8"/>
<polygon fill="#63b8ff" stroke="#63b8ff" points="463.16,-31.06 465.99,-20.85 457.41,-27.07 463.16,-31.06"/>
</a>
</g>
</g>
<!-- Node25&#45;&gt;Node26 -->
<g id="edge30_Node000025_Node000026" class="edge">
<title>Node25&#45;&gt;Node26</title>
<g id="a_edge30_Node000025_Node000026"><a xlink:title=" ">
<path fill="none" stroke="#63b8ff" d="M71.83,-56.87C74.95,-56.26 78.08,-55.71 81.1,-55.25 265.71,-27.18 318.13,-49.23 504.74,-19.57"/>
<polygon fill="#63b8ff" stroke="#63b8ff" points="505.25,-23.03 514.56,-17.98 504.13,-16.12 505.25,-23.03"/>
</a>
</g>
</g>
<!-- Node27 -->
<g id="Node000027" class="node">
<title>Node27</title>
<g id="a_Node000027"><a xlink:title=" ">
<polygon fill="#e0e0e0" stroke="#999999" points="66.22,-19.25 17.97,-19.25 17.97,0 66.22,0 66.22,-19.25"/>
<text text-anchor="middle" x="42.1" y="-5.75" font-family="Helvetica,sans-Serif" font-size="10.00">cstddef</text>
</a>
</g>
</g>
<!-- Node25&#45;&gt;Node27 -->
<g id="edge31_Node000025_Node000027" class="edge">
<title>Node25&#45;&gt;Node27</title>
<g id="a_edge31_Node000025_Node000027"><a xlink:title=" ">
<path fill="none" stroke="#63b8ff" d="M42.1,-55.08C42.1,-48.57 42.1,-39.42 42.1,-31.12"/>
<polygon fill="#63b8ff" stroke="#63b8ff" points="45.6,-31.12 42.1,-21.12 38.6,-31.12 45.6,-31.12"/>
</a>
</g>
</g>
<!-- Node28&#45;&gt;Node3 -->
<g id="edge41_Node000028_Node000003" class="edge">
<title>Node28&#45;&gt;Node3</title>
<g id="a_edge41_Node000028_Node000003"><a xlink:title=" ">
<path fill="none" stroke="#63b8ff" d="M885.97,-165.34C896.19,-157.57 911.17,-146.17 923.36,-136.9"/>
<polygon fill="#63b8ff" stroke="#63b8ff" points="925.36,-139.78 931.2,-130.94 921.12,-134.21 925.36,-139.78"/>
</a>
</g>
</g>
<!-- Node28&#45;&gt;Node4 -->
<g id="edge40_Node000028_Node000004" class="edge">
<title>Node28&#45;&gt;Node4</title>
<g id="a_edge40_Node000028_Node000004"><a xlink:title=" ">
<path fill="none" stroke="#63b8ff" d="M874.82,-165.44C876.34,-151.98 881.02,-126.41 895.1,-110.5 911.81,-91.62 938.22,-80.11 958.95,-73.52"/>
<polygon fill="#63b8ff" stroke="#63b8ff" points="959.72,-76.95 968.33,-70.78 957.75,-70.23 959.72,-76.95"/>
</a>
</g>
</g>
<!-- Node28&#45;&gt;Node9 -->
<g id="edge39_Node000028_Node000009" class="edge">
<title>Node28&#45;&gt;Node9</title>
<g id="a_edge39_Node000028_Node000009"><a xlink:title=" ">
<path fill="none" stroke="#63b8ff" d="M873.54,-165.39C873.05,-152.73 873.3,-129.12 880.1,-110.5 886.79,-92.2 896.66,-92.06 905.1,-74.5 911.86,-60.43 916.77,-43.46 919.91,-30.54"/>
<polygon fill="#63b8ff" stroke="#63b8ff" points="923.25,-31.63 922.03,-21.11 916.42,-30.09 923.25,-31.63"/>
</a>
</g>
</g>
</g>
</svg>
