<?xml version="1.0" encoding="UTF-8" standalone="no"?>
<!DOCTYPE svg PUBLIC "-//W3C//DTD SVG 1.1//EN"
 "http://www.w3.org/Graphics/SVG/1.1/DTD/svg11.dtd">
<!-- Generated by graphviz version 12.2.1 (20241206.2353)
 -->
<!-- Title: src/SparseArray.hpp Pages: 1 -->
<svg width="1672pt" height="359pt"
 viewBox="0.00 0.00 1672.00 358.75" xmlns="http://www.w3.org/2000/svg" xmlns:xlink="http://www.w3.org/1999/xlink">
<g id="graph0" class="graph" transform="scale(1 1) rotate(0) translate(4 354.75)">
<title>src/SparseArray.hpp</title>
<!-- Node1 -->
<g id="Node000001" class="node">
<title>Node1</title>
<g id="a_Node000001"><a xlink:title=" ">
<polygon fill="#999999" stroke="#666666" points="709.88,-350.75 606.12,-350.75 606.12,-331.5 709.88,-331.5 709.88,-350.75"/>
<text text-anchor="middle" x="658" y="-337.25" font-family="Helvetica,sans-Serif" font-size="10.00">src/SparseArray.hpp</text>
</a>
</g>
</g>
<!-- Node2 -->
<g id="Node000002" class="node">
<title>Node2</title>
<g id="a_Node000002"><a xlink:href="_registry_8hpp.html" target="_top" xlink:title=" ">
<polygon fill="white" stroke="#666666" points="630.25,-295.5 543.75,-295.5 543.75,-276.25 630.25,-276.25 630.25,-295.5"/>
<text text-anchor="middle" x="587" y="-282" font-family="Helvetica,sans-Serif" font-size="10.00">src/Registry.hpp</text>
</a>
</g>
</g>
<!-- Node1&#45;&gt;Node2 -->
<g id="edge1_Node000001_Node000002" class="edge">
<title>Node1&#45;&gt;Node2</title>
<g id="a_edge1_Node000001_Node000002"><a xlink:title=" ">
<path fill="none" stroke="#63b8ff" d="M636.75,-324.19C624.36,-314.89 609.18,-303.51 598.87,-295.77"/>
<polygon fill="#63b8ff" stroke="#63b8ff" points="634.64,-326.98 644.74,-330.18 638.84,-321.38 634.64,-326.98"/>
</a>
</g>
</g>
<!-- Node3 -->
<g id="Node000003" class="node">
<title>Node3</title>
<g id="a_Node000003"><a xlink:href="_systems_8hpp.html" target="_top" xlink:title=" ">
<polygon fill="white" stroke="#666666" points="668.12,-240.25 577.88,-240.25 577.88,-221 668.12,-221 668.12,-240.25"/>
<text text-anchor="middle" x="623" y="-226.75" font-family="Helvetica,sans-Serif" font-size="10.00">src/Systems.hpp</text>
</a>
</g>
</g>
<!-- Node1&#45;&gt;Node3 -->
<g id="edge38_Node000001_Node000003" class="edge">
<title>Node1&#45;&gt;Node3</title>
<g id="a_edge38_Node000001_Node000003"><a xlink:title=" ">
<path fill="none" stroke="#63b8ff" d="M652.42,-320.33C648.77,-307.67 643.81,-290.93 639,-276.25 634.9,-263.74 629.67,-249.43 626.33,-240.47"/>
<polygon fill="#63b8ff" stroke="#63b8ff" points="649.05,-321.28 655.15,-329.94 655.78,-319.37 649.05,-321.28"/>
</a>
</g>
</g>
<!-- Node5 -->
<g id="Node000005" class="node">
<title>Node5</title>
<g id="a_Node000005"><a xlink:href="_core_8hpp.html" target="_top" xlink:title=" ">
<polygon fill="white" stroke="#666666" points="897.25,-74.5 798.75,-74.5 798.75,-55.25 897.25,-55.25 897.25,-74.5"/>
<text text-anchor="middle" x="848" y="-61" font-family="Helvetica,sans-Serif" font-size="10.00">src/client/Core.hpp</text>
</a>
</g>
</g>
<!-- Node1&#45;&gt;Node5 -->
<g id="edge39_Node000001_Node000005" class="edge">
<title>Node1&#45;&gt;Node5</title>
<g id="a_edge39_Node000001_Node000005"><a xlink:title=" ">
<path fill="none" stroke="#63b8ff" d="M721.7,-336.43C789.15,-328.66 886,-304.77 886,-231.62 886,-231.62 886,-231.62 886,-174.38 886,-135.46 863.95,-92.87 853.44,-74.79"/>
<polygon fill="#63b8ff" stroke="#63b8ff" points="721.39,-332.94 711.81,-337.46 722.12,-339.9 721.39,-332.94"/>
</a>
</g>
</g>
<!-- Node2&#45;&gt;Node3 -->
<g id="edge2_Node000002_Node000003" class="edge">
<title>Node2&#45;&gt;Node3</title>
<g id="a_edge2_Node000002_Node000003"><a xlink:title=" ">
<path fill="none" stroke="#63b8ff" d="M599.32,-266.65C605.26,-257.86 612.12,-247.71 616.93,-240.61"/>
<polygon fill="#63b8ff" stroke="#63b8ff" points="596.49,-264.58 593.79,-274.83 602.29,-268.5 596.49,-264.58"/>
</a>
</g>
</g>
<!-- Node2&#45;&gt;Node5 -->
<g id="edge35_Node000002_Node000005" class="edge">
<title>Node2&#45;&gt;Node5</title>
<g id="a_edge35_Node000002_Node000005"><a xlink:title=" ">
<path fill="none" stroke="#63b8ff" d="M623.26,-271.77C662.96,-256.01 726.74,-226.41 770,-185 806.07,-150.47 833.78,-96.26 843.87,-74.93"/>
<polygon fill="#63b8ff" stroke="#63b8ff" points="622.2,-268.42 614.14,-275.3 624.73,-274.95 622.2,-268.42"/>
</a>
</g>
</g>
<!-- Node16 -->
<g id="Node000016" class="node">
<title>Node16</title>
<g id="a_Node000016"><a xlink:href="_mediator_8hpp.html" target="_top" xlink:title=" ">
<polygon fill="white" stroke="#666666" points="390,-185 272,-185 272,-165.75 390,-165.75 390,-185"/>
<text text-anchor="middle" x="331" y="-171.5" font-family="Helvetica,sans-Serif" font-size="10.00">src/server/Mediator.hpp</text>
</a>
</g>
</g>
<!-- Node2&#45;&gt;Node16 -->
<g id="edge36_Node000002_Node000016" class="edge">
<title>Node2&#45;&gt;Node16</title>
<g id="a_edge36_Node000002_Node000016"><a xlink:title=" ">
<path fill="none" stroke="#63b8ff" d="M555.15,-271.38C502.24,-248.95 397.6,-204.6 352.51,-185.49"/>
<polygon fill="#63b8ff" stroke="#63b8ff" points="553.65,-274.54 564.22,-275.22 556.38,-268.1 553.65,-274.54"/>
</a>
</g>
</g>
<!-- Node18 -->
<g id="Node000018" class="node">
<title>Node18</title>
<g id="a_Node000018"><a xlink:href="_server_game_8hpp.html" target="_top" xlink:title=" ">
<polygon fill="white" stroke="#666666" points="274,-74.5 138,-74.5 138,-55.25 274,-55.25 274,-74.5"/>
<text text-anchor="middle" x="206" y="-61" font-family="Helvetica,sans-Serif" font-size="10.00">src/server/ServerGame.hpp</text>
</a>
</g>
</g>
<!-- Node2&#45;&gt;Node18 -->
<g id="edge37_Node000002_Node000018" class="edge">
<title>Node2&#45;&gt;Node18</title>
<g id="a_edge37_Node000002_Node000018"><a xlink:title=" ">
<path fill="none" stroke="#63b8ff" d="M532.19,-281.31C462.04,-274.04 340.36,-251.97 263,-185 227.64,-154.39 212.44,-96.92 207.72,-74.83"/>
<polygon fill="#63b8ff" stroke="#63b8ff" points="531.61,-284.77 541.9,-282.25 532.28,-277.8 531.61,-284.77"/>
</a>
</g>
</g>
<!-- Node4 -->
<g id="Node000004" class="node">
<title>Node4</title>
<g id="a_Node000004"><a xlink:href="_systems_8cpp.html" target="_top" xlink:title=" ">
<polygon fill="white" stroke="#666666" points="705.12,-185 614.88,-185 614.88,-165.75 705.12,-165.75 705.12,-185"/>
<text text-anchor="middle" x="660" y="-171.5" font-family="Helvetica,sans-Serif" font-size="10.00">src/Systems.cpp</text>
</a>
</g>
</g>
<!-- Node3&#45;&gt;Node4 -->
<g id="edge3_Node000003_Node000004" class="edge">
<title>Node3&#45;&gt;Node4</title>
<g id="a_edge3_Node000003_Node000004"><a xlink:title=" ">
<path fill="none" stroke="#63b8ff" d="M635.66,-211.4C641.77,-202.61 648.82,-192.46 653.76,-185.36"/>
<polygon fill="#63b8ff" stroke="#63b8ff" points="632.81,-209.38 629.97,-219.59 638.55,-213.37 632.81,-209.38"/>
</a>
</g>
</g>
<!-- Node3&#45;&gt;Node5 -->
<g id="edge4_Node000003_Node000005" class="edge">
<title>Node3&#45;&gt;Node5</title>
<g id="a_edge4_Node000003_Node000005"><a xlink:title=" ">
<path fill="none" stroke="#63b8ff" d="M679.24,-217.67C701.96,-210.84 727.38,-200.45 747,-185 778.13,-160.48 769.82,-140.25 796,-110.5 808.1,-96.75 824.46,-83.39 835.58,-74.93"/>
<polygon fill="#63b8ff" stroke="#63b8ff" points="678.47,-214.25 669.8,-220.34 680.37,-220.99 678.47,-214.25"/>
</a>
</g>
</g>
<!-- Node7 -->
<g id="Node000007" class="node">
<title>Node7</title>
<g id="a_Node000007"><a xlink:href="_gui_game_8cpp.html" target="_top" xlink:title=" ">
<polygon fill="white" stroke="#666666" points="393.38,-19.25 274.62,-19.25 274.62,0 393.38,0 393.38,-19.25"/>
<text text-anchor="middle" x="334" y="-5.75" font-family="Helvetica,sans-Serif" font-size="10.00">src/client/GuiGame.cpp</text>
</a>
</g>
</g>
<!-- Node3&#45;&gt;Node7 -->
<g id="edge15_Node000003_Node000007" class="edge">
<title>Node3&#45;&gt;Node7</title>
<g id="a_edge15_Node000003_Node000007"><a xlink:title=" ">
<path fill="none" stroke="#63b8ff" d="M587.89,-216.49C534.18,-194.75 431.49,-146.4 371,-74.5 356.15,-56.85 343.89,-32.44 337.92,-19.5"/>
<polygon fill="#63b8ff" stroke="#63b8ff" points="586.27,-219.61 596.86,-220.05 588.85,-213.11 586.27,-219.61"/>
</a>
</g>
</g>
<!-- Node12 -->
<g id="Node000012" class="node">
<title>Node12</title>
<g id="a_Node000012"><a xlink:href="_handle_animation_8cpp.html" target="_top" xlink:title=" ">
<polygon fill="white" stroke="#666666" points="562.88,-19.25 411.12,-19.25 411.12,0 562.88,0 562.88,-19.25"/>
<text text-anchor="middle" x="487" y="-5.75" font-family="Helvetica,sans-Serif" font-size="10.00">src/client/HandleAnimation.cpp</text>
</a>
</g>
</g>
<!-- Node3&#45;&gt;Node12 -->
<g id="edge16_Node000003_Node000012" class="edge">
<title>Node3&#45;&gt;Node12</title>
<g id="a_edge16_Node000003_Node000012"><a xlink:title=" ">
<path fill="none" stroke="#63b8ff" d="M614.17,-210.22C611.05,-202.53 607.86,-193.5 606,-185 593.4,-127.46 619.11,-98.39 579,-55.25 562.92,-37.96 538.72,-26.59 519.17,-19.66"/>
<polygon fill="#63b8ff" stroke="#63b8ff" points="610.89,-211.45 618.07,-219.25 617.32,-208.68 610.89,-211.45"/>
</a>
</g>
</g>
<!-- Node13 -->
<g id="Node000013" class="node">
<title>Node13</title>
<g id="a_Node000013"><a xlink:href="_handle_commands_8cpp.html" target="_top" xlink:title=" ">
<polygon fill="white" stroke="#666666" points="739.25,-19.25 580.75,-19.25 580.75,0 739.25,0 739.25,-19.25"/>
<text text-anchor="middle" x="660" y="-5.75" font-family="Helvetica,sans-Serif" font-size="10.00">src/client/HandleCommands.cpp</text>
</a>
</g>
</g>
<!-- Node3&#45;&gt;Node13 -->
<g id="edge17_Node000003_Node000013" class="edge">
<title>Node3&#45;&gt;Node13</title>
<g id="a_edge17_Node000003_Node000013"><a xlink:title=" ">
<path fill="none" stroke="#63b8ff" d="M673.18,-216.59C689.01,-209.86 704.76,-199.82 714,-185 749.37,-128.25 689.75,-46.59 667.7,-19.63"/>
<polygon fill="#63b8ff" stroke="#63b8ff" points="672.33,-213.17 664.25,-220.02 674.84,-219.7 672.33,-213.17"/>
</a>
</g>
</g>
<!-- Node14 -->
<g id="Node000014" class="node">
<title>Node14</title>
<g id="a_Node000014"><a xlink:href="_handle_input_8cpp.html" target="_top" xlink:title=" ">
<polygon fill="white" stroke="#666666" points="1664,-19.25 1534,-19.25 1534,0 1664,0 1664,-19.25"/>
<text text-anchor="middle" x="1599" y="-5.75" font-family="Helvetica,sans-Serif" font-size="10.00">src/client/HandleInput.cpp</text>
</a>
</g>
</g>
<!-- Node3&#45;&gt;Node14 -->
<g id="edge18_Node000003_Node000014" class="edge">
<title>Node3&#45;&gt;Node14</title>
<g id="a_edge18_Node000003_Node000014"><a xlink:title=" ">
<path fill="none" stroke="#63b8ff" d="M674.43,-218.09C846.95,-179.37 1403.02,-54.6 1558.36,-19.74"/>
<polygon fill="#63b8ff" stroke="#63b8ff" points="673.85,-214.63 664.86,-220.23 675.39,-221.46 673.85,-214.63"/>
</a>
</g>
</g>
<!-- Node3&#45;&gt;Node16 -->
<g id="edge19_Node000003_Node000016" class="edge">
<title>Node3&#45;&gt;Node16</title>
<g id="a_edge19_Node000003_Node000016"><a xlink:title=" ">
<path fill="none" stroke="#63b8ff" d="M566.47,-220.28C510.8,-210.49 427.02,-195.21 375.79,-185.5"/>
<polygon fill="#63b8ff" stroke="#63b8ff" points="565.61,-223.68 576.06,-221.96 566.82,-216.79 565.61,-223.68"/>
</a>
</g>
</g>
<!-- Node6 -->
<g id="Node000006" class="node">
<title>Node6</title>
<g id="a_Node000006"><a xlink:href="_core_8cpp.html" target="_top" xlink:title=" ">
<polygon fill="white" stroke="#666666" points="1380.25,-19.25 1281.75,-19.25 1281.75,0 1380.25,0 1380.25,-19.25"/>
<text text-anchor="middle" x="1331" y="-5.75" font-family="Helvetica,sans-Serif" font-size="10.00">src/client/Core.cpp</text>
</a>
</g>
</g>
<!-- Node5&#45;&gt;Node6 -->
<g id="edge5_Node000005_Node000006" class="edge">
<title>Node5&#45;&gt;Node6</title>
<g id="a_edge5_Node000005_Node000006"><a xlink:title=" ">
<path fill="none" stroke="#63b8ff" d="M908.52,-55.55C909.35,-55.45 910.18,-55.35 911,-55.25 1071.12,-36.31 1111.96,-38.92 1272,-19.25 1275.08,-18.87 1278.25,-18.46 1281.45,-18.04"/>
<polygon fill="#63b8ff" stroke="#63b8ff" points="908.49,-52.02 899,-56.74 909.36,-58.97 908.49,-52.02"/>
</a>
</g>
</g>
<!-- Node5&#45;&gt;Node7 -->
<g id="edge6_Node000005_Node000007" class="edge">
<title>Node5&#45;&gt;Node7</title>
<g id="a_edge6_Node000005_Node000007"><a xlink:title=" ">
<path fill="none" stroke="#63b8ff" d="M787.1,-58.3C701.18,-50.31 539.5,-34.85 402,-19.25 399.28,-18.94 396.5,-18.62 393.69,-18.29"/>
<polygon fill="#63b8ff" stroke="#63b8ff" points="786.67,-61.77 796.95,-59.21 787.31,-54.8 786.67,-61.77"/>
</a>
</g>
</g>
<!-- Node8 -->
<g id="Node000008" class="node">
<title>Node8</title>
<g id="a_Node000008"><a xlink:href="_gui_lobby_8cpp.html" target="_top" xlink:title=" ">
<polygon fill="white" stroke="#666666" points="1515.62,-19.25 1398.38,-19.25 1398.38,0 1515.62,0 1515.62,-19.25"/>
<text text-anchor="middle" x="1457" y="-5.75" font-family="Helvetica,sans-Serif" font-size="10.00">src/client/GuiLobby.cpp</text>
</a>
</g>
</g>
<!-- Node5&#45;&gt;Node8 -->
<g id="edge7_Node000005_Node000008" class="edge">
<title>Node5&#45;&gt;Node8</title>
<g id="a_edge7_Node000005_Node000008"><a xlink:title=" ">
<path fill="none" stroke="#63b8ff" d="M908.51,-55.52C909.35,-55.43 910.18,-55.34 911,-55.25 1122.86,-32.79 1177.03,-40.66 1389,-19.25 1391.96,-18.95 1394.99,-18.63 1398.05,-18.29"/>
<polygon fill="#63b8ff" stroke="#63b8ff" points="908.52,-51.99 898.99,-56.63 909.33,-58.95 908.52,-51.99"/>
</a>
</g>
</g>
<!-- Node9 -->
<g id="Node000009" class="node">
<title>Node9</title>
<g id="a_Node000009"><a xlink:href="_gui_login_8cpp.html" target="_top" xlink:title=" ">
<polygon fill="white" stroke="#666666" points="872.88,-19.25 757.12,-19.25 757.12,0 872.88,0 872.88,-19.25"/>
<text text-anchor="middle" x="815" y="-5.75" font-family="Helvetica,sans-Serif" font-size="10.00">src/client/GuiLogin.cpp</text>
</a>
</g>
</g>
<!-- Node5&#45;&gt;Node9 -->
<g id="edge8_Node000005_Node000009" class="edge">
<title>Node5&#45;&gt;Node9</title>
<g id="a_edge8_Node000005_Node000009"><a xlink:title=" ">
<path fill="none" stroke="#63b8ff" d="M836.53,-45.37C831.12,-36.64 824.92,-26.64 820.57,-19.61"/>
<polygon fill="#63b8ff" stroke="#63b8ff" points="833.51,-47.14 841.75,-53.8 839.46,-43.45 833.51,-47.14"/>
</a>
</g>
</g>
<!-- Node10 -->
<g id="Node000010" class="node">
<title>Node10</title>
<g id="a_Node000010"><a xlink:href="_gui_menu_8cpp.html" target="_top" xlink:title=" ">
<polygon fill="white" stroke="#666666" points="1007.25,-19.25 890.75,-19.25 890.75,0 1007.25,0 1007.25,-19.25"/>
<text text-anchor="middle" x="949" y="-5.75" font-family="Helvetica,sans-Serif" font-size="10.00">src/client/GuiMenu.cpp</text>
</a>
</g>
</g>
<!-- Node5&#45;&gt;Node10 -->
<g id="edge9_Node000005_Node000010" class="edge">
<title>Node5&#45;&gt;Node10</title>
<g id="a_edge9_Node000005_Node000010"><a xlink:title=" ">
<path fill="none" stroke="#63b8ff" d="M875.31,-49.48C893.3,-39.99 916.3,-27.86 931.78,-19.7"/>
<polygon fill="#63b8ff" stroke="#63b8ff" points="873.69,-46.38 866.47,-54.14 876.95,-52.57 873.69,-46.38"/>
</a>
</g>
</g>
<!-- Node11 -->
<g id="Node000011" class="node">
<title>Node11</title>
<g id="a_Node000011"><a xlink:href="_gui_option_8cpp.html" target="_top" xlink:title=" ">
<polygon fill="white" stroke="#666666" points="1146.5,-19.25 1025.5,-19.25 1025.5,0 1146.5,0 1146.5,-19.25"/>
<text text-anchor="middle" x="1086" y="-5.75" font-family="Helvetica,sans-Serif" font-size="10.00">src/client/GuiOption.cpp</text>
</a>
</g>
</g>
<!-- Node5&#45;&gt;Node11 -->
<g id="edge10_Node000005_Node000011" class="edge">
<title>Node5&#45;&gt;Node11</title>
<g id="a_edge10_Node000005_Node000011"><a xlink:title=" ">
<path fill="none" stroke="#63b8ff" d="M899.63,-52.32C943.39,-42.53 1005.28,-28.69 1045.52,-19.68"/>
<polygon fill="#63b8ff" stroke="#63b8ff" points="899.11,-48.85 890.12,-54.45 900.64,-55.68 899.11,-48.85"/>
</a>
</g>
</g>
<!-- Node5&#45;&gt;Node12 -->
<g id="edge11_Node000005_Node000012" class="edge">
<title>Node5&#45;&gt;Node12</title>
<g id="a_edge11_Node000005_Node000012"><a xlink:title=" ">
<path fill="none" stroke="#63b8ff" d="M787.47,-54.95C721.23,-45.18 615.58,-29.59 548.82,-19.74"/>
<polygon fill="#63b8ff" stroke="#63b8ff" points="786.66,-58.36 797.06,-56.36 787.68,-51.44 786.66,-58.36"/>
</a>
</g>
</g>
<!-- Node5&#45;&gt;Node13 -->
<g id="edge12_Node000005_Node000013" class="edge">
<title>Node5&#45;&gt;Node13</title>
<g id="a_edge12_Node000005_Node000013"><a xlink:title=" ">
<path fill="none" stroke="#63b8ff" d="M805.44,-51.82C771.02,-42.07 723.3,-28.55 692.05,-19.7"/>
<polygon fill="#63b8ff" stroke="#63b8ff" points="804.08,-55.07 814.65,-54.43 805.98,-48.34 804.08,-55.07"/>
</a>
</g>
</g>
<!-- Node5&#45;&gt;Node14 -->
<g id="edge13_Node000005_Node000014" class="edge">
<title>Node5&#45;&gt;Node14</title>
<g id="a_edge13_Node000005_Node000014"><a xlink:title=" ">
<path fill="none" stroke="#63b8ff" d="M908.51,-55.5C909.35,-55.41 910.18,-55.33 911,-55.25 1183.06,-28.69 1252.68,-43.08 1525,-19.25 1527.83,-19 1530.73,-18.73 1533.65,-18.45"/>
<polygon fill="#63b8ff" stroke="#63b8ff" points="908.53,-51.97 898.98,-56.56 909.31,-58.93 908.53,-51.97"/>
</a>
</g>
</g>
<!-- Node15 -->
<g id="Node000015" class="node">
<title>Node15</title>
<g id="a_Node000015"><a xlink:href="client_2main_8cpp.html" target="_top" xlink:title=" ">
<polygon fill="white" stroke="#666666" points="1263.25,-19.25 1164.75,-19.25 1164.75,0 1263.25,0 1263.25,-19.25"/>
<text text-anchor="middle" x="1214" y="-5.75" font-family="Helvetica,sans-Serif" font-size="10.00">src/client/Main.cpp</text>
</a>
</g>
</g>
<!-- Node5&#45;&gt;Node15 -->
<g id="edge14_Node000005_Node000015" class="edge">
<title>Node5&#45;&gt;Node15</title>
<g id="a_edge14_Node000005_Node000015"><a xlink:title=" ">
<path fill="none" stroke="#63b8ff" d="M908.78,-55.14C970.91,-46.19 1070.2,-31.85 1156,-19.25 1158.72,-18.85 1161.51,-18.44 1164.33,-18.02"/>
<polygon fill="#63b8ff" stroke="#63b8ff" points="908.52,-51.64 899.12,-56.53 909.51,-58.57 908.52,-51.64"/>
</a>
</g>
</g>
<!-- Node16&#45;&gt;Node3 -->
<g id="edge20_Node000016_Node000003" class="edge">
<title>Node16&#45;&gt;Node3</title>
<g id="a_edge20_Node000016_Node000003"><a xlink:title=" ">
<path fill="none" stroke="#63b8ff" d="M397.25,-187.44C452.65,-197.24 530.05,-211.37 578.36,-220.53"/>
<polygon fill="#63b8ff" stroke="#63b8ff" points="398.08,-184.03 387.62,-185.74 396.87,-190.92 398.08,-184.03"/>
</a>
</g>
</g>
<!-- Node17 -->
<g id="Node000017" class="node">
<title>Node17</title>
<g id="a_Node000017"><a xlink:href="_mediator_8cpp.html" target="_top" xlink:title=" ">
<polygon fill="white" stroke="#666666" points="390,-129.75 272,-129.75 272,-110.5 390,-110.5 390,-129.75"/>
<text text-anchor="middle" x="331" y="-116.25" font-family="Helvetica,sans-Serif" font-size="10.00">src/server/Mediator.cpp</text>
</a>
</g>
</g>
<!-- Node16&#45;&gt;Node17 -->
<g id="edge21_Node000016_Node000017" class="edge">
<title>Node16&#45;&gt;Node17</title>
<g id="a_edge21_Node000016_Node000017"><a xlink:title=" ">
<path fill="none" stroke="#63b8ff" d="M331,-154.13C331,-145.84 331,-136.67 331,-130.11"/>
<polygon fill="#63b8ff" stroke="#63b8ff" points="327.5,-154.07 331,-164.07 334.5,-154.07 327.5,-154.07"/>
</a>
</g>
</g>
<!-- Node16&#45;&gt;Node18 -->
<g id="edge22_Node000016_Node000018" class="edge">
<title>Node16&#45;&gt;Node18</title>
<g id="a_edge22_Node000016_Node000018"><a xlink:title=" ">
<path fill="none" stroke="#63b8ff" d="M304.92,-159.49C291.77,-151.44 275.91,-140.88 263,-129.75 242.74,-112.28 222.79,-87.8 212.73,-74.8"/>
<polygon fill="#63b8ff" stroke="#63b8ff" points="303.1,-162.48 313.48,-164.59 306.68,-156.46 303.1,-162.48"/>
</a>
</g>
</g>
<!-- Node21 -->
<g id="Node000021" class="node">
<title>Node21</title>
<g id="a_Node000021"><a xlink:href="_server_network_8hpp.html" target="_top" xlink:title=" ">
<polygon fill="white" stroke="#666666" points="592.25,-129.75 445.75,-129.75 445.75,-110.5 592.25,-110.5 592.25,-129.75"/>
<text text-anchor="middle" x="519" y="-116.25" font-family="Helvetica,sans-Serif" font-size="10.00">src/server/ServerNetwork.hpp</text>
</a>
</g>
</g>
<!-- Node16&#45;&gt;Node21 -->
<g id="edge25_Node000016_Node000021" class="edge">
<title>Node16&#45;&gt;Node21</title>
<g id="a_edge25_Node000016_Node000021"><a xlink:title=" ">
<path fill="none" stroke="#63b8ff" d="M373.56,-162.32C407.98,-152.57 455.7,-139.05 486.95,-130.2"/>
<polygon fill="#63b8ff" stroke="#63b8ff" points="373.02,-158.84 364.35,-164.93 374.92,-165.57 373.02,-158.84"/>
</a>
</g>
</g>
<!-- Node19 -->
<g id="Node000019" class="node">
<title>Node19</title>
<g id="a_Node000019"><a xlink:href="_server_game_8cpp.html" target="_top" xlink:title=" ">
<polygon fill="white" stroke="#666666" points="136,-19.25 0,-19.25 0,0 136,0 136,-19.25"/>
<text text-anchor="middle" x="68" y="-5.75" font-family="Helvetica,sans-Serif" font-size="10.00">src/server/ServerGame.cpp</text>
</a>
</g>
</g>
<!-- Node18&#45;&gt;Node19 -->
<g id="edge23_Node000018_Node000019" class="edge">
<title>Node18&#45;&gt;Node19</title>
<g id="a_edge23_Node000018_Node000019"><a xlink:title=" ">
<path fill="none" stroke="#63b8ff" d="M172.1,-50.79C147.08,-41.14 113.67,-28.25 91.52,-19.7"/>
<polygon fill="#63b8ff" stroke="#63b8ff" points="170.59,-53.96 181.18,-54.3 173.11,-47.43 170.59,-53.96"/>
</a>
</g>
</g>
<!-- Node20 -->
<g id="Node000020" class="node">
<title>Node20</title>
<g id="a_Node000020"><a xlink:href="server_2main_8cpp.html" target="_top" xlink:title=" ">
<polygon fill="white" stroke="#666666" points="256.12,-19.25 153.88,-19.25 153.88,0 256.12,0 256.12,-19.25"/>
<text text-anchor="middle" x="205" y="-5.75" font-family="Helvetica,sans-Serif" font-size="10.00">src/server/main.cpp</text>
</a>
</g>
</g>
<!-- Node18&#45;&gt;Node20 -->
<g id="edge24_Node000018_Node000020" class="edge">
<title>Node18&#45;&gt;Node20</title>
<g id="a_edge24_Node000018_Node000020"><a xlink:title=" ">
<path fill="none" stroke="#63b8ff" d="M205.62,-43.63C205.46,-35.34 205.29,-26.17 205.17,-19.61"/>
<polygon fill="#63b8ff" stroke="#63b8ff" points="202.12,-43.64 205.81,-53.57 209.12,-43.5 202.12,-43.64"/>
</a>
</g>
</g>
<!-- Node21&#45;&gt;Node5 -->
<g id="edge26_Node000021_Node000005" class="edge">
<title>Node21&#45;&gt;Node5</title>
<g id="a_edge26_Node000021_Node000005"><a xlink:title=" ">
<path fill="none" stroke="#63b8ff" d="M586.2,-108.25C649.22,-98.05 741.98,-83.03 798.5,-73.89"/>
<polygon fill="#63b8ff" stroke="#63b8ff" points="585.99,-104.74 576.68,-109.79 587.11,-111.65 585.99,-104.74"/>
</a>
</g>
</g>
<!-- Node21&#45;&gt;Node7 -->
<g id="edge27_Node000021_Node000007" class="edge">
<title>Node21&#45;&gt;Node7</title>
<g id="a_edge27_Node000021_Node000007"><a xlink:title=" ">
<path fill="none" stroke="#63b8ff" d="M472.12,-106.74C449.03,-99.41 421.41,-88.75 399,-74.5 374.7,-59.05 352.1,-33.28 341.06,-19.68"/>
<polygon fill="#63b8ff" stroke="#63b8ff" points="471.02,-110.06 481.61,-109.63 473.06,-103.37 471.02,-110.06"/>
</a>
</g>
</g>
<!-- Node21&#45;&gt;Node9 -->
<g id="edge28_Node000021_Node000009" class="edge">
<title>Node21&#45;&gt;Node9</title>
<g id="a_edge28_Node000021_Node000009"><a xlink:title=" ">
<path fill="none" stroke="#63b8ff" d="M554.3,-106.18C614.98,-83.94 737.56,-39.01 790.13,-19.74"/>
<polygon fill="#63b8ff" stroke="#63b8ff" points="553.33,-102.81 545.15,-109.54 555.74,-109.38 553.33,-102.81"/>
</a>
</g>
</g>
<!-- Node21&#45;&gt;Node12 -->
<g id="edge29_Node000021_Node000012" class="edge">
<title>Node21&#45;&gt;Node12</title>
<g id="a_edge29_Node000021_Node000012"><a xlink:title=" ">
<path fill="none" stroke="#63b8ff" d="M541.71,-103.41C557.02,-90.76 572.79,-72.35 563,-55.25 553.04,-37.85 533.37,-26.58 516.54,-19.71"/>
<polygon fill="#63b8ff" stroke="#63b8ff" points="539.95,-100.34 534.14,-109.21 544.21,-105.9 539.95,-100.34"/>
</a>
</g>
</g>
<!-- Node21&#45;&gt;Node13 -->
<g id="edge30_Node000021_Node000013" class="edge">
<title>Node21&#45;&gt;Node13</title>
<g id="a_edge30_Node000021_Node000013"><a xlink:title=" ">
<path fill="none" stroke="#63b8ff" d="M540.28,-103.52C551.8,-95.02 566.25,-84.27 579,-74.5 604.17,-55.23 633.25,-32.07 648.81,-19.61"/>
<polygon fill="#63b8ff" stroke="#63b8ff" points="538.23,-100.69 532.25,-109.44 542.38,-106.33 538.23,-100.69"/>
</a>
</g>
</g>
<!-- Node21&#45;&gt;Node14 -->
<g id="edge31_Node000021_Node000014" class="edge">
<title>Node21&#45;&gt;Node14</title>
<g id="a_edge31_Node000021_Node000014"><a xlink:title=" ">
<path fill="none" stroke="#63b8ff" d="M604.06,-116.77C683.43,-112.83 804.52,-102.35 906,-74.5 926.19,-68.96 928.67,-60.26 949,-55.25 1198.05,6.14 1269.52,-42.11 1525,-19.25 1527.83,-19 1530.73,-18.72 1533.65,-18.43"/>
<polygon fill="#63b8ff" stroke="#63b8ff" points="604,-113.27 594.17,-117.23 604.32,-120.26 604,-113.27"/>
</a>
</g>
</g>
<!-- Node21&#45;&gt;Node18 -->
<g id="edge32_Node000021_Node000018" class="edge">
<title>Node21&#45;&gt;Node18</title>
<g id="a_edge32_Node000021_Node000018"><a xlink:title=" ">
<path fill="none" stroke="#63b8ff" d="M454.39,-108.13C396.78,-98.33 313.44,-84.15 259.49,-74.98"/>
<polygon fill="#63b8ff" stroke="#63b8ff" points="453.61,-111.55 464.06,-109.78 454.79,-104.65 453.61,-111.55"/>
</a>
</g>
</g>
<!-- Node21&#45;&gt;Node20 -->
<g id="edge34_Node000021_Node000020" class="edge">
<title>Node21&#45;&gt;Node20</title>
<g id="a_edge34_Node000021_Node000020"><a xlink:title=" ">
<path fill="none" stroke="#63b8ff" d="M475.62,-106.97C445.98,-98.44 405.89,-86.46 371,-74.5 318.86,-56.63 258.72,-32.63 227.09,-19.73"/>
<polygon fill="#63b8ff" stroke="#63b8ff" points="474.41,-110.26 484.99,-109.65 476.34,-103.53 474.41,-110.26"/>
</a>
</g>
</g>
<!-- Node22 -->
<g id="Node000022" class="node">
<title>Node22</title>
<g id="a_Node000022"><a xlink:href="_server_network_8cpp.html" target="_top" xlink:title=" ">
<polygon fill="white" stroke="#666666" points="554.25,-74.5 407.75,-74.5 407.75,-55.25 554.25,-55.25 554.25,-74.5"/>
<text text-anchor="middle" x="481" y="-61" font-family="Helvetica,sans-Serif" font-size="10.00">src/server/ServerNetwork.cpp</text>
</a>
</g>
</g>
<!-- Node21&#45;&gt;Node22 -->
<g id="edge33_Node000021_Node000022" class="edge">
<title>Node21&#45;&gt;Node22</title>
<g id="a_edge33_Node000021_Node000022"><a xlink:title=" ">
<path fill="none" stroke="#63b8ff" d="M506.2,-101.19C499.88,-92.34 492.54,-82.04 487.41,-74.86"/>
<polygon fill="#63b8ff" stroke="#63b8ff" points="503.19,-102.99 511.85,-109.1 508.89,-98.93 503.19,-102.99"/>
</a>
</g>
</g>
</g>
</svg>
