<?xml version="1.0" encoding="UTF-8" standalone="no"?>
<!DOCTYPE svg PUBLIC "-//W3C//DTD SVG 1.1//EN"
 "http://www.w3.org/Graphics/SVG/1.1/DTD/svg11.dtd">
<!-- Generated by graphviz version 12.2.1 (20241206.2353)
 -->
<!-- Title: src/client/Sprite.cpp Pages: 1 -->
<svg width="465pt" height="193pt"
 viewBox="0.00 0.00 464.88 193.00" xmlns="http://www.w3.org/2000/svg" xmlns:xlink="http://www.w3.org/1999/xlink">
<g id="graph0" class="graph" transform="scale(1 1) rotate(0) translate(4 189)">
<title>src/client/Sprite.cpp</title>
<!-- Node1 -->
<g id="Node000001" class="node">
<title>Node1</title>
<g id="a_Node000001"><a xlink:title=" ">
<polygon fill="#999999" stroke="#666666" points="284,-185 181,-185 181,-165.75 284,-165.75 284,-185"/>
<text text-anchor="middle" x="232.5" y="-171.5" font-family="Helvetica,sans-Serif" font-size="10.00">src/client/Sprite.cpp</text>
</a>
</g>
</g>
<!-- Node2 -->
<g id="Node000002" class="node">
<title>Node2</title>
<g id="a_Node000002"><a xlink:href="_sprite_8hpp.html" target="_top" xlink:title=" ">
<polygon fill="white" stroke="#666666" points="262.62,-129.75 202.38,-129.75 202.38,-110.5 262.62,-110.5 262.62,-129.75"/>
<text text-anchor="middle" x="232.5" y="-116.25" font-family="Helvetica,sans-Serif" font-size="10.00">Sprite.hpp</text>
</a>
</g>
</g>
<!-- Node1&#45;&gt;Node2 -->
<g id="edge1_Node000001_Node000002" class="edge">
<title>Node1&#45;&gt;Node2</title>
<g id="a_edge1_Node000001_Node000002"><a xlink:title=" ">
<path fill="none" stroke="#63b8ff" d="M232.5,-165.58C232.5,-159.07 232.5,-149.92 232.5,-141.62"/>
<polygon fill="#63b8ff" stroke="#63b8ff" points="236,-141.62 232.5,-131.62 229,-141.62 236,-141.62"/>
</a>
</g>
</g>
<!-- Node3 -->
<g id="Node000003" class="node">
<title>Node3</title>
<g id="a_Node000003"><a xlink:title=" ">
<polygon fill="#e0e0e0" stroke="#999999" points="138.62,-74.5 90.38,-74.5 90.38,-55.25 138.62,-55.25 138.62,-74.5"/>
<text text-anchor="middle" x="114.5" y="-61" font-family="Helvetica,sans-Serif" font-size="10.00">cstddef</text>
</a>
</g>
</g>
<!-- Node2&#45;&gt;Node3 -->
<g id="edge2_Node000002_Node000003" class="edge">
<title>Node2&#45;&gt;Node3</title>
<g id="a_edge2_Node000002_Node000003"><a xlink:title=" ">
<path fill="none" stroke="#63b8ff" d="M212.48,-110.09C194.01,-101.75 166.29,-89.25 145.05,-79.66"/>
<polygon fill="#63b8ff" stroke="#63b8ff" points="146.55,-76.5 135.99,-75.58 143.67,-82.88 146.55,-76.5"/>
</a>
</g>
</g>
<!-- Node4 -->
<g id="Node000004" class="node">
<title>Node4</title>
<g id="a_Node000004"><a xlink:title=" ">
<polygon fill="#e0e0e0" stroke="#999999" points="103,-19.25 0,-19.25 0,0 103,0 103,-19.25"/>
<text text-anchor="middle" x="51.5" y="-5.75" font-family="Helvetica,sans-Serif" font-size="10.00">SFML/Graphics.hpp</text>
</a>
</g>
</g>
<!-- Node2&#45;&gt;Node4 -->
<g id="edge3_Node000002_Node000004" class="edge">
<title>Node2&#45;&gt;Node4</title>
<g id="a_edge3_Node000002_Node000004"><a xlink:title=" ">
<path fill="none" stroke="#63b8ff" d="M222.01,-110.09C206.45,-96.97 176,-72.33 147.5,-55.25 127.47,-43.25 103.67,-32.17 84.78,-24.05"/>
<polygon fill="#63b8ff" stroke="#63b8ff" points="86.26,-20.87 75.69,-20.21 83.54,-27.32 86.26,-20.87"/>
</a>
</g>
</g>
<!-- Node5 -->
<g id="Node000005" class="node">
<title>Node5</title>
<g id="a_Node000005"><a xlink:title=" ">
<polygon fill="#e0e0e0" stroke="#999999" points="218.38,-19.25 120.62,-19.25 120.62,0 218.38,0 218.38,-19.25"/>
<text text-anchor="middle" x="169.5" y="-5.75" font-family="Helvetica,sans-Serif" font-size="10.00">SFML/Window.hpp</text>
</a>
</g>
</g>
<!-- Node2&#45;&gt;Node5 -->
<g id="edge4_Node000002_Node000005" class="edge">
<title>Node2&#45;&gt;Node5</title>
<g id="a_edge4_Node000002_Node000005"><a xlink:title=" ">
<path fill="none" stroke="#63b8ff" d="M227.34,-110.25C217.15,-92.68 194.2,-53.16 180.47,-29.52"/>
<polygon fill="#63b8ff" stroke="#63b8ff" points="183.53,-27.83 175.49,-20.94 177.48,-31.34 183.53,-27.83"/>
</a>
</g>
</g>
<!-- Node6 -->
<g id="Node000006" class="node">
<title>Node6</title>
<g id="a_Node000006"><a xlink:title=" ">
<polygon fill="#e0e0e0" stroke="#999999" points="356.25,-19.25 302.75,-19.25 302.75,0 356.25,0 356.25,-19.25"/>
<text text-anchor="middle" x="329.5" y="-5.75" font-family="Helvetica,sans-Serif" font-size="10.00">iostream</text>
</a>
</g>
</g>
<!-- Node2&#45;&gt;Node6 -->
<g id="edge5_Node000002_Node000006" class="edge">
<title>Node2&#45;&gt;Node6</title>
<g id="a_edge5_Node000002_Node000006"><a xlink:title=" ">
<path fill="none" stroke="#63b8ff" d="M250.34,-110.15C264.55,-102.3 284.19,-89.77 297.5,-74.5 308.84,-61.48 317.31,-43.73 322.68,-30.25"/>
<polygon fill="#63b8ff" stroke="#63b8ff" points="325.86,-31.73 326.06,-21.14 319.3,-29.29 325.86,-31.73"/>
</a>
</g>
</g>
<!-- Node7 -->
<g id="Node000007" class="node">
<title>Node7</title>
<g id="a_Node000007"><a xlink:title=" ">
<polygon fill="#e0e0e0" stroke="#999999" points="456.88,-19.25 374.12,-19.25 374.12,0 456.88,0 456.88,-19.25"/>
<text text-anchor="middle" x="415.5" y="-5.75" font-family="Helvetica,sans-Serif" font-size="10.00">unordered_map</text>
</a>
</g>
</g>
<!-- Node2&#45;&gt;Node7 -->
<g id="edge6_Node000002_Node000007" class="edge">
<title>Node2&#45;&gt;Node7</title>
<g id="a_edge6_Node000002_Node000007"><a xlink:title=" ">
<path fill="none" stroke="#63b8ff" d="M251.25,-110.09C268.88,-101.44 295.87,-87.78 318.5,-74.5 344.74,-59.11 373.75,-39.67 393.14,-26.3"/>
<polygon fill="#63b8ff" stroke="#63b8ff" points="395.13,-29.18 401.35,-20.61 391.14,-23.43 395.13,-29.18"/>
</a>
</g>
</g>
<!-- Node8 -->
<g id="Node000008" class="node">
<title>Node8</title>
<g id="a_Node000008"><a xlink:href="_utils_8hpp.html" target="_top" xlink:title=" ">
<polygon fill="white" stroke="#666666" points="288,-74.5 233,-74.5 233,-55.25 288,-55.25 288,-74.5"/>
<text text-anchor="middle" x="260.5" y="-61" font-family="Helvetica,sans-Serif" font-size="10.00">Utils.hpp</text>
</a>
</g>
</g>
<!-- Node2&#45;&gt;Node8 -->
<g id="edge7_Node000002_Node000008" class="edge">
<title>Node2&#45;&gt;Node8</title>
<g id="a_edge7_Node000002_Node000008"><a xlink:title=" ">
<path fill="none" stroke="#63b8ff" d="M237.12,-110.33C240.75,-103.44 245.93,-93.59 250.49,-84.91"/>
<polygon fill="#63b8ff" stroke="#63b8ff" points="253.52,-86.68 255.07,-76.2 247.32,-83.42 253.52,-86.68"/>
</a>
</g>
</g>
<!-- Node8&#45;&gt;Node4 -->
<g id="edge8_Node000008_Node000004" class="edge">
<title>Node8&#45;&gt;Node4</title>
<g id="a_edge8_Node000008_Node000004"><a xlink:title=" ">
<path fill="none" stroke="#63b8ff" d="M232.75,-56.8C198.44,-48.06 139.54,-33.06 98.22,-22.53"/>
<polygon fill="#63b8ff" stroke="#63b8ff" points="99.09,-19.14 88.53,-20.06 97.36,-25.92 99.09,-19.14"/>
</a>
</g>
</g>
<!-- Node8&#45;&gt;Node5 -->
<g id="edge9_Node000008_Node000005" class="edge">
<title>Node8&#45;&gt;Node5</title>
<g id="a_edge9_Node000008_Node000005"><a xlink:title=" ">
<path fill="none" stroke="#63b8ff" d="M245.06,-54.84C231.34,-46.81 211,-34.91 194.88,-25.48"/>
<polygon fill="#63b8ff" stroke="#63b8ff" points="196.72,-22.5 186.32,-20.47 193.18,-28.54 196.72,-22.5"/>
</a>
</g>
</g>
<!-- Node8&#45;&gt;Node6 -->
<g id="edge10_Node000008_Node000006" class="edge">
<title>Node8&#45;&gt;Node6</title>
<g id="a_edge10_Node000008_Node000006"><a xlink:title=" ">
<path fill="none" stroke="#63b8ff" d="M272.2,-54.84C282.28,-47.07 297.04,-35.67 309.06,-26.4"/>
<polygon fill="#63b8ff" stroke="#63b8ff" points="310.99,-29.33 316.77,-20.45 306.71,-23.79 310.99,-29.33"/>
</a>
</g>
</g>
<!-- Node8&#45;&gt;Node7 -->
<g id="edge12_Node000008_Node000007" class="edge">
<title>Node8&#45;&gt;Node7</title>
<g id="a_edge12_Node000008_Node000007"><a xlink:title=" ">
<path fill="none" stroke="#63b8ff" d="M286.79,-54.84C311.96,-46.2 350.15,-33.07 378.41,-23.37"/>
<polygon fill="#63b8ff" stroke="#63b8ff" points="379.33,-26.75 387.65,-20.19 377.05,-20.13 379.33,-26.75"/>
</a>
</g>
</g>
<!-- Node9 -->
<g id="Node000009" class="node">
<title>Node9</title>
<g id="a_Node000009"><a xlink:title=" ">
<polygon fill="#e0e0e0" stroke="#999999" points="285,-19.25 236,-19.25 236,0 285,0 285,-19.25"/>
<text text-anchor="middle" x="260.5" y="-5.75" font-family="Helvetica,sans-Serif" font-size="10.00">fstream</text>
</a>
</g>
</g>
<!-- Node8&#45;&gt;Node9 -->
<g id="edge11_Node000008_Node000009" class="edge">
<title>Node8&#45;&gt;Node9</title>
<g id="a_edge11_Node000008_Node000009"><a xlink:title=" ">
<path fill="none" stroke="#63b8ff" d="M260.5,-55.08C260.5,-48.57 260.5,-39.42 260.5,-31.12"/>
<polygon fill="#63b8ff" stroke="#63b8ff" points="264,-31.12 260.5,-21.12 257,-31.12 264,-31.12"/>
</a>
</g>
</g>
</g>
</svg>
