<?xml version="1.0" encoding="UTF-8" standalone="no"?>
<!DOCTYPE svg PUBLIC "-//W3C//DTD SVG 1.1//EN"
 "http://www.w3.org/Graphics/SVG/1.1/DTD/svg11.dtd">
<!-- Generated by graphviz version 12.2.1 (20241206.2353)
 -->
<!-- Title: src/client/Sprite.hpp Pages: 1 -->
<svg width="1397pt" height="138pt"
 viewBox="0.00 0.00 1396.50 137.75" xmlns="http://www.w3.org/2000/svg" xmlns:xlink="http://www.w3.org/1999/xlink">
<g id="graph0" class="graph" transform="scale(1 1) rotate(0) translate(4 133.75)">
<title>src/client/Sprite.hpp</title>
<!-- Node1 -->
<g id="Node000001" class="node">
<title>Node1</title>
<g id="a_Node000001"><a xlink:title=" ">
<polygon fill="#999999" stroke="#666666" points="759.75,-129.75 656.75,-129.75 656.75,-110.5 759.75,-110.5 759.75,-129.75"/>
<text text-anchor="middle" x="708.25" y="-116.25" font-family="Helvetica,sans-Serif" font-size="10.00">src/client/Sprite.hpp</text>
</a>
</g>
</g>
<!-- Node2 -->
<g id="Node000002" class="node">
<title>Node2</title>
<g id="a_Node000002"><a xlink:href="_core_8hpp.html" target="_top" xlink:title=" ">
<polygon fill="white" stroke="#666666" points="698.5,-74.5 600,-74.5 600,-55.25 698.5,-55.25 698.5,-74.5"/>
<text text-anchor="middle" x="649.25" y="-61" font-family="Helvetica,sans-Serif" font-size="10.00">src/client/Core.hpp</text>
</a>
</g>
</g>
<!-- Node1&#45;&gt;Node2 -->
<g id="edge1_Node000001_Node000002" class="edge">
<title>Node1&#45;&gt;Node2</title>
<g id="a_edge1_Node000001_Node000002"><a xlink:title=" ">
<path fill="none" stroke="#63b8ff" d="M689.98,-102.64C679.79,-93.44 667.51,-82.35 659.11,-74.77"/>
<polygon fill="#63b8ff" stroke="#63b8ff" points="687.35,-104.98 697.12,-109.08 692.04,-99.78 687.35,-104.98"/>
</a>
</g>
</g>
<!-- Node13 -->
<g id="Node000013" class="node">
<title>Node13</title>
<g id="a_Node000013"><a xlink:href="_sprite_8cpp.html" target="_top" xlink:title=" ">
<polygon fill="white" stroke="#666666" points="819.75,-74.5 716.75,-74.5 716.75,-55.25 819.75,-55.25 819.75,-74.5"/>
<text text-anchor="middle" x="768.25" y="-61" font-family="Helvetica,sans-Serif" font-size="10.00">src/client/Sprite.cpp</text>
</a>
</g>
</g>
<!-- Node1&#45;&gt;Node13 -->
<g id="edge12_Node000001_Node000013" class="edge">
<title>Node1&#45;&gt;Node13</title>
<g id="a_edge12_Node000001_Node000013"><a xlink:title=" ">
<path fill="none" stroke="#63b8ff" d="M726.83,-102.64C737.19,-93.44 749.68,-82.35 758.22,-74.77"/>
<polygon fill="#63b8ff" stroke="#63b8ff" points="724.72,-99.83 719.56,-109.09 729.36,-105.07 724.72,-99.83"/>
</a>
</g>
</g>
<!-- Node3 -->
<g id="Node000003" class="node">
<title>Node3</title>
<g id="a_Node000003"><a xlink:href="_core_8cpp.html" target="_top" xlink:title=" ">
<polygon fill="white" stroke="#666666" points="98.5,-19.25 0,-19.25 0,0 98.5,0 98.5,-19.25"/>
<text text-anchor="middle" x="49.25" y="-5.75" font-family="Helvetica,sans-Serif" font-size="10.00">src/client/Core.cpp</text>
</a>
</g>
</g>
<!-- Node2&#45;&gt;Node3 -->
<g id="edge2_Node000002_Node000003" class="edge">
<title>Node2&#45;&gt;Node3</title>
<g id="a_edge2_Node000002_Node000003"><a xlink:title=" ">
<path fill="none" stroke="#63b8ff" d="M588.13,-60.09C487.77,-53.59 281.86,-39.08 108.25,-19.25 105.16,-18.9 101.99,-18.51 98.8,-18.1"/>
<polygon fill="#63b8ff" stroke="#63b8ff" points="587.83,-63.58 598.04,-60.73 588.28,-56.59 587.83,-63.58"/>
</a>
</g>
</g>
<!-- Node4 -->
<g id="Node000004" class="node">
<title>Node4</title>
<g id="a_Node000004"><a xlink:href="_gui_game_8cpp.html" target="_top" xlink:title=" ">
<polygon fill="white" stroke="#666666" points="235.62,-19.25 116.88,-19.25 116.88,0 235.62,0 235.62,-19.25"/>
<text text-anchor="middle" x="176.25" y="-5.75" font-family="Helvetica,sans-Serif" font-size="10.00">src/client/GuiGame.cpp</text>
</a>
</g>
</g>
<!-- Node2&#45;&gt;Node4 -->
<g id="edge3_Node000002_Node000004" class="edge">
<title>Node2&#45;&gt;Node4</title>
<g id="a_edge3_Node000002_Node000004"><a xlink:title=" ">
<path fill="none" stroke="#63b8ff" d="M588.43,-57.49C509.17,-49.09 366.27,-33.71 244.25,-19.25 241.53,-18.93 238.75,-18.59 235.95,-18.25"/>
<polygon fill="#63b8ff" stroke="#63b8ff" points="587.84,-60.94 598.15,-58.52 588.57,-53.98 587.84,-60.94"/>
</a>
</g>
</g>
<!-- Node5 -->
<g id="Node000005" class="node">
<title>Node5</title>
<g id="a_Node000005"><a xlink:href="_gui_lobby_8cpp.html" target="_top" xlink:title=" ">
<polygon fill="white" stroke="#666666" points="370.88,-19.25 253.62,-19.25 253.62,0 370.88,0 370.88,-19.25"/>
<text text-anchor="middle" x="312.25" y="-5.75" font-family="Helvetica,sans-Serif" font-size="10.00">src/client/GuiLobby.cpp</text>
</a>
</g>
</g>
<!-- Node2&#45;&gt;Node5 -->
<g id="edge4_Node000002_Node000005" class="edge">
<title>Node2&#45;&gt;Node5</title>
<g id="a_edge4_Node000002_Node000005"><a xlink:title=" ">
<path fill="none" stroke="#63b8ff" d="M588.34,-54.25C526.25,-44.44 430.66,-29.33 369.81,-19.72"/>
<polygon fill="#63b8ff" stroke="#63b8ff" points="587.61,-57.68 598.03,-55.78 588.7,-50.76 587.61,-57.68"/>
</a>
</g>
</g>
<!-- Node6 -->
<g id="Node000006" class="node">
<title>Node6</title>
<g id="a_Node000006"><a xlink:href="_gui_login_8cpp.html" target="_top" xlink:title=" ">
<polygon fill="white" stroke="#666666" points="505.12,-19.25 389.38,-19.25 389.38,0 505.12,0 505.12,-19.25"/>
<text text-anchor="middle" x="447.25" y="-5.75" font-family="Helvetica,sans-Serif" font-size="10.00">src/client/GuiLogin.cpp</text>
</a>
</g>
</g>
<!-- Node2&#45;&gt;Node6 -->
<g id="edge5_Node000002_Node000006" class="edge">
<title>Node2&#45;&gt;Node6</title>
<g id="a_edge5_Node000002_Node000006"><a xlink:title=" ">
<path fill="none" stroke="#63b8ff" d="M604,-51.95C566.98,-42.19 515.41,-28.59 481.68,-19.7"/>
<polygon fill="#63b8ff" stroke="#63b8ff" points="602.96,-55.29 613.52,-54.46 604.74,-48.52 602.96,-55.29"/>
</a>
</g>
</g>
<!-- Node7 -->
<g id="Node000007" class="node">
<title>Node7</title>
<g id="a_Node000007"><a xlink:href="_gui_menu_8cpp.html" target="_top" xlink:title=" ">
<polygon fill="white" stroke="#666666" points="639.5,-19.25 523,-19.25 523,0 639.5,0 639.5,-19.25"/>
<text text-anchor="middle" x="581.25" y="-5.75" font-family="Helvetica,sans-Serif" font-size="10.00">src/client/GuiMenu.cpp</text>
</a>
</g>
</g>
<!-- Node2&#45;&gt;Node7 -->
<g id="edge6_Node000002_Node000007" class="edge">
<title>Node2&#45;&gt;Node7</title>
<g id="a_edge6_Node000002_Node000007"><a xlink:title=" ">
<path fill="none" stroke="#63b8ff" d="M628.9,-47.94C617.03,-38.64 602.49,-27.26 592.61,-19.52"/>
<polygon fill="#63b8ff" stroke="#63b8ff" points="626.49,-50.5 636.52,-53.91 630.81,-44.99 626.49,-50.5"/>
</a>
</g>
</g>
<!-- Node8 -->
<g id="Node000008" class="node">
<title>Node8</title>
<g id="a_Node000008"><a xlink:href="_gui_option_8cpp.html" target="_top" xlink:title=" ">
<polygon fill="white" stroke="#666666" points="778.75,-19.25 657.75,-19.25 657.75,0 778.75,0 778.75,-19.25"/>
<text text-anchor="middle" x="718.25" y="-5.75" font-family="Helvetica,sans-Serif" font-size="10.00">src/client/GuiOption.cpp</text>
</a>
</g>
</g>
<!-- Node2&#45;&gt;Node8 -->
<g id="edge7_Node000002_Node000008" class="edge">
<title>Node2&#45;&gt;Node8</title>
<g id="a_edge7_Node000002_Node000008"><a xlink:title=" ">
<path fill="none" stroke="#63b8ff" d="M669.9,-47.94C681.95,-38.64 696.7,-27.26 706.72,-19.52"/>
<polygon fill="#63b8ff" stroke="#63b8ff" points="667.93,-45.04 662.15,-53.92 672.21,-50.58 667.93,-45.04"/>
</a>
</g>
</g>
<!-- Node9 -->
<g id="Node000009" class="node">
<title>Node9</title>
<g id="a_Node000009"><a xlink:href="_handle_animation_8cpp.html" target="_top" xlink:title=" ">
<polygon fill="white" stroke="#666666" points="948.12,-19.25 796.38,-19.25 796.38,0 948.12,0 948.12,-19.25"/>
<text text-anchor="middle" x="872.25" y="-5.75" font-family="Helvetica,sans-Serif" font-size="10.00">src/client/HandleAnimation.cpp</text>
</a>
</g>
</g>
<!-- Node2&#45;&gt;Node9 -->
<g id="edge8_Node000002_Node000009" class="edge">
<title>Node2&#45;&gt;Node9</title>
<g id="a_edge8_Node000002_Node000009"><a xlink:title=" ">
<path fill="none" stroke="#63b8ff" d="M698.41,-52.14C739.37,-42.36 796.86,-28.63 834.33,-19.68"/>
<polygon fill="#63b8ff" stroke="#63b8ff" points="697.72,-48.7 688.8,-54.43 699.34,-55.51 697.72,-48.7"/>
</a>
</g>
</g>
<!-- Node10 -->
<g id="Node000010" class="node">
<title>Node10</title>
<g id="a_Node000010"><a xlink:href="_handle_commands_8cpp.html" target="_top" xlink:title=" ">
<polygon fill="white" stroke="#666666" points="1124.5,-19.25 966,-19.25 966,0 1124.5,0 1124.5,-19.25"/>
<text text-anchor="middle" x="1045.25" y="-5.75" font-family="Helvetica,sans-Serif" font-size="10.00">src/client/HandleCommands.cpp</text>
</a>
</g>
</g>
<!-- Node2&#45;&gt;Node10 -->
<g id="edge9_Node000002_Node000010" class="edge">
<title>Node2&#45;&gt;Node10</title>
<g id="a_edge9_Node000002_Node000010"><a xlink:title=" ">
<path fill="none" stroke="#63b8ff" d="M710.1,-55.01C807.83,-41.44 908.51,-28.25 974.21,-19.75"/>
<polygon fill="#63b8ff" stroke="#63b8ff" points="709.74,-51.53 700.32,-56.37 710.7,-58.46 709.74,-51.53"/>
</a>
</g>
</g>
<!-- Node11 -->
<g id="Node000011" class="node">
<title>Node11</title>
<g id="a_Node000011"><a xlink:href="_handle_input_8cpp.html" target="_top" xlink:title=" ">
<polygon fill="white" stroke="#666666" points="1272.25,-19.25 1142.25,-19.25 1142.25,0 1272.25,0 1272.25,-19.25"/>
<text text-anchor="middle" x="1207.25" y="-5.75" font-family="Helvetica,sans-Serif" font-size="10.00">src/client/HandleInput.cpp</text>
</a>
</g>
</g>
<!-- Node2&#45;&gt;Node11 -->
<g id="edge10_Node000002_Node000011" class="edge">
<title>Node2&#45;&gt;Node11</title>
<g id="a_edge10_Node000002_Node000011"><a xlink:title=" ">
<path fill="none" stroke="#63b8ff" d="M710.21,-55.1C898.5,-33.7 948.32,-37.85 1133.25,-19.25 1136.08,-18.97 1138.97,-18.67 1141.89,-18.36"/>
<polygon fill="#63b8ff" stroke="#63b8ff" points="709.84,-51.62 700.3,-56.24 710.63,-58.57 709.84,-51.62"/>
</a>
</g>
</g>
<!-- Node12 -->
<g id="Node000012" class="node">
<title>Node12</title>
<g id="a_Node000012"><a xlink:href="client_2main_8cpp.html" target="_top" xlink:title=" ">
<polygon fill="white" stroke="#666666" points="1388.5,-19.25 1290,-19.25 1290,0 1388.5,0 1388.5,-19.25"/>
<text text-anchor="middle" x="1339.25" y="-5.75" font-family="Helvetica,sans-Serif" font-size="10.00">src/client/Main.cpp</text>
</a>
</g>
</g>
<!-- Node2&#45;&gt;Node12 -->
<g id="edge11_Node000002_Node000012" class="edge">
<title>Node2&#45;&gt;Node12</title>
<g id="a_edge11_Node000002_Node000012"><a xlink:title=" ">
<path fill="none" stroke="#63b8ff" d="M710.23,-55.15C964,-29.27 1031.21,-45.65 1281.25,-19.25 1283.98,-18.96 1286.79,-18.64 1289.61,-18.29"/>
<polygon fill="#63b8ff" stroke="#63b8ff" points="709.88,-51.67 700.29,-56.18 710.6,-58.63 709.88,-51.67"/>
</a>
</g>
</g>
</g>
</svg>
