<?xml version="1.0" encoding="UTF-8" standalone="no"?>
<!DOCTYPE svg PUBLIC "-//W3C//DTD SVG 1.1//EN"
 "http://www.w3.org/Graphics/SVG/1.1/DTD/svg11.dtd">
<!-- Generated by graphviz version 12.2.1 (20241206.2353)
 -->
<!-- Title: src/Systems.cpp Pages: 1 -->
<svg width="1133pt" height="304pt"
 viewBox="0.00 0.00 1133.25 303.50" xmlns="http://www.w3.org/2000/svg" xmlns:xlink="http://www.w3.org/1999/xlink">
<g id="graph0" class="graph" transform="scale(1 1) rotate(0) translate(4 299.5)">
<title>src/Systems.cpp</title>
<!-- Node1 -->
<g id="Node000001" class="node">
<title>Node1</title>
<g id="a_Node000001"><a xlink:title=" ">
<polygon fill="#999999" stroke="#666666" points="553.62,-295.5 463.38,-295.5 463.38,-276.25 553.62,-276.25 553.62,-295.5"/>
<text text-anchor="middle" x="508.5" y="-282" font-family="Helvetica,sans-Serif" font-size="10.00">src/Systems.cpp</text>
</a>
</g>
</g>
<!-- Node2 -->
<g id="Node000002" class="node">
<title>Node2</title>
<g id="a_Node000002"><a xlink:href="_systems_8hpp.html" target="_top" xlink:title=" ">
<polygon fill="white" stroke="#666666" points="545.38,-240.25 471.62,-240.25 471.62,-221 545.38,-221 545.38,-240.25"/>
<text text-anchor="middle" x="508.5" y="-226.75" font-family="Helvetica,sans-Serif" font-size="10.00">Systems.hpp</text>
</a>
</g>
</g>
<!-- Node1&#45;&gt;Node2 -->
<g id="edge1_Node000001_Node000002" class="edge">
<title>Node1&#45;&gt;Node2</title>
<g id="a_edge1_Node000001_Node000002"><a xlink:title=" ">
<path fill="none" stroke="#63b8ff" d="M508.5,-276.08C508.5,-269.57 508.5,-260.42 508.5,-252.12"/>
<polygon fill="#63b8ff" stroke="#63b8ff" points="512,-252.12 508.5,-242.12 505,-252.12 512,-252.12"/>
</a>
</g>
</g>
<!-- Node3 -->
<g id="Node000003" class="node">
<title>Node3</title>
<g id="a_Node000003"><a xlink:href="_components_8hpp.html" target="_top" xlink:title=" ">
<polygon fill="white" stroke="#666666" points="319.62,-185 229.38,-185 229.38,-165.75 319.62,-165.75 319.62,-185"/>
<text text-anchor="middle" x="274.5" y="-171.5" font-family="Helvetica,sans-Serif" font-size="10.00">Components.hpp</text>
</a>
</g>
</g>
<!-- Node2&#45;&gt;Node3 -->
<g id="edge2_Node000002_Node000003" class="edge">
<title>Node2&#45;&gt;Node3</title>
<g id="a_edge2_Node000002_Node000003"><a xlink:title=" ">
<path fill="none" stroke="#63b8ff" d="M471.16,-221.13C431.75,-212.16 369.38,-197.97 325.47,-187.97"/>
<polygon fill="#63b8ff" stroke="#63b8ff" points="326.45,-184.61 315.92,-185.8 324.9,-191.43 326.45,-184.61"/>
</a>
</g>
</g>
<!-- Node4 -->
<g id="Node000004" class="node">
<title>Node4</title>
<g id="a_Node000004"><a xlink:title=" ">
<polygon fill="#e0e0e0" stroke="#999999" points="103,-129.75 0,-129.75 0,-110.5 103,-110.5 103,-129.75"/>
<text text-anchor="middle" x="51.5" y="-116.25" font-family="Helvetica,sans-Serif" font-size="10.00">SFML/Graphics.hpp</text>
</a>
</g>
</g>
<!-- Node2&#45;&gt;Node4 -->
<g id="edge24_Node000002_Node000004" class="edge">
<title>Node2&#45;&gt;Node4</title>
<g id="a_edge24_Node000002_Node000004"><a xlink:title=" ">
<path fill="none" stroke="#63b8ff" d="M471.54,-227.71C412.12,-223.9 292.11,-213.14 194.5,-185 151.87,-172.71 105.5,-150.14 77.46,-135.39"/>
<polygon fill="#63b8ff" stroke="#63b8ff" points="79.47,-132.49 69,-130.87 76.17,-138.66 79.47,-132.49"/>
</a>
</g>
</g>
<!-- Node5 -->
<g id="Node000005" class="node">
<title>Node5</title>
<g id="a_Node000005"><a xlink:title=" ">
<polygon fill="#e0e0e0" stroke="#999999" points="218.38,-129.75 120.62,-129.75 120.62,-110.5 218.38,-110.5 218.38,-129.75"/>
<text text-anchor="middle" x="169.5" y="-116.25" font-family="Helvetica,sans-Serif" font-size="10.00">SFML/Window.hpp</text>
</a>
</g>
</g>
<!-- Node2&#45;&gt;Node5 -->
<g id="edge25_Node000002_Node000005" class="edge">
<title>Node2&#45;&gt;Node5</title>
<g id="a_edge25_Node000002_Node000005"><a xlink:title=" ">
<path fill="none" stroke="#63b8ff" d="M471.38,-227.22C403.51,-222.28 262.52,-209.36 220.5,-185 202.13,-174.35 187.8,-154.32 179.08,-139.52"/>
<polygon fill="#63b8ff" stroke="#63b8ff" points="182.37,-138.25 174.47,-131.2 176.25,-141.64 182.37,-138.25"/>
</a>
</g>
</g>
<!-- Node9 -->
<g id="Node000009" class="node">
<title>Node9</title>
<g id="a_Node000009"><a xlink:href="_registry_8hpp.html" target="_top" xlink:title=" ">
<polygon fill="white" stroke="#666666" points="774.5,-129.75 704.5,-129.75 704.5,-110.5 774.5,-110.5 774.5,-129.75"/>
<text text-anchor="middle" x="739.5" y="-116.25" font-family="Helvetica,sans-Serif" font-size="10.00">Registry.hpp</text>
</a>
</g>
</g>
<!-- Node2&#45;&gt;Node9 -->
<g id="edge8_Node000002_Node000009" class="edge">
<title>Node2&#45;&gt;Node9</title>
<g id="a_edge8_Node000002_Node000009"><a xlink:title=" ">
<path fill="none" stroke="#63b8ff" d="M530.81,-220.65C552.2,-211.93 585.31,-198.12 613.5,-185 648.13,-168.88 687.26,-148.74 712.6,-135.43"/>
<polygon fill="#63b8ff" stroke="#63b8ff" points="714.01,-138.64 721.22,-130.88 710.74,-132.45 714.01,-138.64"/>
</a>
</g>
</g>
<!-- Node15 -->
<g id="Node000015" class="node">
<title>Node15</title>
<g id="a_Node000015"><a xlink:href="_sparse_array_8hpp.html" target="_top" xlink:title=" ">
<polygon fill="white" stroke="#666666" points="654.12,-74.5 566.88,-74.5 566.88,-55.25 654.12,-55.25 654.12,-74.5"/>
<text text-anchor="middle" x="610.5" y="-61" font-family="Helvetica,sans-Serif" font-size="10.00">SparseArray.hpp</text>
</a>
</g>
</g>
<!-- Node2&#45;&gt;Node15 -->
<g id="edge23_Node000002_Node000015" class="edge">
<title>Node2&#45;&gt;Node15</title>
<g id="a_edge23_Node000002_Node000015"><a xlink:title=" ">
<path fill="none" stroke="#63b8ff" d="M525.71,-220.6C539.08,-212.8 557.18,-200.36 568.5,-185 590.98,-154.5 602.25,-110.89 607.2,-85.78"/>
<polygon fill="#63b8ff" stroke="#63b8ff" points="610.58,-86.73 608.92,-76.27 603.69,-85.49 610.58,-86.73"/>
</a>
</g>
</g>
<!-- Node20 -->
<g id="Node000020" class="node">
<title>Node20</title>
<g id="a_Node000020"><a xlink:title=" ">
<polygon fill="#e0e0e0" stroke="#999999" points="1125.25,-19.25 1071.75,-19.25 1071.75,0 1125.25,0 1125.25,-19.25"/>
<text text-anchor="middle" x="1098.5" y="-5.75" font-family="Helvetica,sans-Serif" font-size="10.00">iostream</text>
</a>
</g>
</g>
<!-- Node2&#45;&gt;Node20 -->
<g id="edge26_Node000002_Node000020" class="edge">
<title>Node2&#45;&gt;Node20</title>
<g id="a_edge26_Node000002_Node000020"><a xlink:title=" ">
<path fill="none" stroke="#63b8ff" d="M545.7,-225.13C627.39,-214.56 827.88,-184.77 987.5,-129.75 1039.98,-111.66 1070.19,-121.64 1099.5,-74.5 1107.57,-61.52 1106.66,-44 1104.1,-30.6"/>
<polygon fill="#63b8ff" stroke="#63b8ff" points="1107.58,-30.07 1101.85,-21.16 1100.77,-31.7 1107.58,-30.07"/>
</a>
</g>
</g>
<!-- Node22 -->
<g id="Node000022" class="node">
<title>Node22</title>
<g id="a_Node000022"><a xlink:href="_mediator_8hpp.html" target="_top" xlink:title=" ">
<polygon fill="white" stroke="#666666" points="559.25,-185 457.75,-185 457.75,-165.75 559.25,-165.75 559.25,-185"/>
<text text-anchor="middle" x="508.5" y="-171.5" font-family="Helvetica,sans-Serif" font-size="10.00">server/Mediator.hpp</text>
</a>
</g>
</g>
<!-- Node2&#45;&gt;Node22 -->
<g id="edge27_Node000002_Node000022" class="edge">
<title>Node2&#45;&gt;Node22</title>
<g id="a_edge27_Node000002_Node000022"><a xlink:title=" ">
<path fill="none" stroke="#63b8ff" d="M503.33,-220.83C501.92,-214.24 501.46,-204.96 501.93,-196.57"/>
<polygon fill="#63b8ff" stroke="#63b8ff" points="505.38,-197.21 503.11,-186.86 498.43,-196.37 505.38,-197.21"/>
</a>
</g>
</g>
<!-- Node3&#45;&gt;Node4 -->
<g id="edge3_Node000003_Node000004" class="edge">
<title>Node3&#45;&gt;Node4</title>
<g id="a_edge3_Node000003_Node000004"><a xlink:title=" ">
<path fill="none" stroke="#63b8ff" d="M236.42,-165.28C198.9,-156.32 141.4,-142.59 100.49,-132.82"/>
<polygon fill="#63b8ff" stroke="#63b8ff" points="101.44,-129.45 90.9,-130.53 99.81,-136.26 101.44,-129.45"/>
</a>
</g>
</g>
<!-- Node3&#45;&gt;Node5 -->
<g id="edge4_Node000003_Node000005" class="edge">
<title>Node3&#45;&gt;Node5</title>
<g id="a_edge4_Node000003_Node000005"><a xlink:title=" ">
<path fill="none" stroke="#63b8ff" d="M256.69,-165.34C240.47,-157.12 216.26,-144.84 197.47,-135.31"/>
<polygon fill="#63b8ff" stroke="#63b8ff" points="199.25,-132.29 188.75,-130.89 196.08,-138.53 199.25,-132.29"/>
</a>
</g>
</g>
<!-- Node6 -->
<g id="Node000006" class="node">
<title>Node6</title>
<g id="a_Node000006"><a xlink:title=" ">
<polygon fill="#e0e0e0" stroke="#999999" points="374.5,-74.5 334.5,-74.5 334.5,-55.25 374.5,-55.25 374.5,-74.5"/>
<text text-anchor="middle" x="354.5" y="-61" font-family="Helvetica,sans-Serif" font-size="10.00">string</text>
</a>
</g>
</g>
<!-- Node3&#45;&gt;Node6 -->
<g id="edge5_Node000003_Node000006" class="edge">
<title>Node3&#45;&gt;Node6</title>
<g id="a_edge5_Node000003_Node000006"><a xlink:title=" ">
<path fill="none" stroke="#63b8ff" d="M277.19,-165.48C281.4,-152.53 290.42,-128.1 303.5,-110.5 311.58,-99.62 322.72,-89.5 332.52,-81.65"/>
<polygon fill="#63b8ff" stroke="#63b8ff" points="334.35,-84.66 340.17,-75.8 330.1,-79.1 334.35,-84.66"/>
</a>
</g>
</g>
<!-- Node7 -->
<g id="Node000007" class="node">
<title>Node7</title>
<g id="a_Node000007"><a xlink:title=" ">
<polygon fill="#e0e0e0" stroke="#999999" points="424,-19.25 381,-19.25 381,0 424,0 424,-19.25"/>
<text text-anchor="middle" x="402.5" y="-5.75" font-family="Helvetica,sans-Serif" font-size="10.00">vector</text>
</a>
</g>
</g>
<!-- Node3&#45;&gt;Node7 -->
<g id="edge6_Node000003_Node000007" class="edge">
<title>Node3&#45;&gt;Node7</title>
<g id="a_edge6_Node000003_Node000007"><a xlink:title=" ">
<path fill="none" stroke="#63b8ff" d="M275.4,-165.38C276.9,-152.71 280.58,-129.09 288.5,-110.5 300.09,-83.31 303.94,-75.46 325.5,-55.25 338.74,-42.84 356.05,-32.42 370.9,-24.78"/>
<polygon fill="#63b8ff" stroke="#63b8ff" points="372.4,-27.94 379.83,-20.39 369.31,-21.66 372.4,-27.94"/>
</a>
</g>
</g>
<!-- Node8 -->
<g id="Node000008" class="node">
<title>Node8</title>
<g id="a_Node000008"><a xlink:title=" ">
<polygon fill="#e0e0e0" stroke="#999999" points="358.12,-129.75 312.88,-129.75 312.88,-110.5 358.12,-110.5 358.12,-129.75"/>
<text text-anchor="middle" x="335.5" y="-116.25" font-family="Helvetica,sans-Serif" font-size="10.00">chrono</text>
</a>
</g>
</g>
<!-- Node3&#45;&gt;Node8 -->
<g id="edge7_Node000003_Node000008" class="edge">
<title>Node3&#45;&gt;Node8</title>
<g id="a_edge7_Node000003_Node000008"><a xlink:title=" ">
<path fill="none" stroke="#63b8ff" d="M284.85,-165.34C293.58,-157.72 306.29,-146.62 316.8,-137.45"/>
<polygon fill="#63b8ff" stroke="#63b8ff" points="318.93,-140.23 324.16,-131.02 314.33,-134.96 318.93,-140.23"/>
</a>
</g>
</g>
<!-- Node10 -->
<g id="Node000010" class="node">
<title>Node10</title>
<g id="a_Node000010"><a xlink:title=" ">
<polygon fill="#e0e0e0" stroke="#999999" points="1070.88,-74.5 988.12,-74.5 988.12,-55.25 1070.88,-55.25 1070.88,-74.5"/>
<text text-anchor="middle" x="1029.5" y="-61" font-family="Helvetica,sans-Serif" font-size="10.00">unordered_map</text>
</a>
</g>
</g>
<!-- Node9&#45;&gt;Node10 -->
<g id="edge9_Node000009_Node000010" class="edge">
<title>Node9&#45;&gt;Node10</title>
<g id="a_edge9_Node000009_Node000010"><a xlink:title=" ">
<path fill="none" stroke="#63b8ff" d="M774.77,-112.65C825.15,-103.4 918.09,-86.33 976.69,-75.57"/>
<polygon fill="#63b8ff" stroke="#63b8ff" points="977.24,-79.03 986.44,-73.78 975.98,-72.14 977.24,-79.03"/>
</a>
</g>
</g>
<!-- Node11 -->
<g id="Node000011" class="node">
<title>Node11</title>
<g id="a_Node000011"><a xlink:title=" ">
<polygon fill="#e0e0e0" stroke="#999999" points="818.38,-74.5 786.62,-74.5 786.62,-55.25 818.38,-55.25 818.38,-74.5"/>
<text text-anchor="middle" x="802.5" y="-61" font-family="Helvetica,sans-Serif" font-size="10.00">any</text>
</a>
</g>
</g>
<!-- Node9&#45;&gt;Node11 -->
<g id="edge10_Node000009_Node000011" class="edge">
<title>Node9&#45;&gt;Node11</title>
<g id="a_edge10_Node000009_Node000011"><a xlink:title=" ">
<path fill="none" stroke="#63b8ff" d="M750.19,-110.09C759.2,-102.47 772.33,-91.37 783.18,-82.2"/>
<polygon fill="#63b8ff" stroke="#63b8ff" points="785.44,-84.88 790.81,-75.75 780.92,-79.53 785.44,-84.88"/>
</a>
</g>
</g>
<!-- Node12 -->
<g id="Node000012" class="node">
<title>Node12</title>
<g id="a_Node000012"><a xlink:title=" ">
<polygon fill="#e0e0e0" stroke="#999999" points="894.5,-74.5 836.5,-74.5 836.5,-55.25 894.5,-55.25 894.5,-74.5"/>
<text text-anchor="middle" x="865.5" y="-61" font-family="Helvetica,sans-Serif" font-size="10.00">functional</text>
</a>
</g>
</g>
<!-- Node9&#45;&gt;Node12 -->
<g id="edge11_Node000009_Node000012" class="edge">
<title>Node9&#45;&gt;Node12</title>
<g id="a_edge11_Node000009_Node000012"><a xlink:title=" ">
<path fill="none" stroke="#63b8ff" d="M760.87,-110.09C780.79,-101.68 810.74,-89.02 833.5,-79.4"/>
<polygon fill="#63b8ff" stroke="#63b8ff" points="834.78,-82.66 842.63,-75.54 832.05,-76.21 834.78,-82.66"/>
</a>
</g>
</g>
<!-- Node13 -->
<g id="Node000013" class="node">
<title>Node13</title>
<g id="a_Node000013"><a xlink:title=" ">
<polygon fill="#e0e0e0" stroke="#999999" points="970.5,-74.5 912.5,-74.5 912.5,-55.25 970.5,-55.25 970.5,-74.5"/>
<text text-anchor="middle" x="941.5" y="-61" font-family="Helvetica,sans-Serif" font-size="10.00">typeindex</text>
</a>
</g>
</g>
<!-- Node9&#45;&gt;Node13 -->
<g id="edge12_Node000009_Node000013" class="edge">
<title>Node9&#45;&gt;Node13</title>
<g id="a_edge12_Node000009_Node000013"><a xlink:title=" ">
<path fill="none" stroke="#63b8ff" d="M773.77,-110.09C808.96,-100.81 863.72,-86.38 901.02,-76.54"/>
<polygon fill="#63b8ff" stroke="#63b8ff" points="901.76,-79.97 910.54,-74.04 899.98,-73.2 901.76,-79.97"/>
</a>
</g>
</g>
<!-- Node14 -->
<g id="Node000014" class="node">
<title>Node14</title>
<g id="a_Node000014"><a xlink:title=" ">
<polygon fill="#e0e0e0" stroke="#999999" points="711.88,-19.25 653.12,-19.25 653.12,0 711.88,0 711.88,-19.25"/>
<text text-anchor="middle" x="682.5" y="-5.75" font-family="Helvetica,sans-Serif" font-size="10.00">stdexcept</text>
</a>
</g>
</g>
<!-- Node9&#45;&gt;Node14 -->
<g id="edge13_Node000009_Node000014" class="edge">
<title>Node9&#45;&gt;Node14</title>
<g id="a_edge13_Node000009_Node000014"><a xlink:title=" ">
<path fill="none" stroke="#63b8ff" d="M729.77,-110.08C721.21,-101.62 708.98,-88.27 701.5,-74.5 693.97,-60.63 689.07,-43.41 686.14,-30.34"/>
<polygon fill="#63b8ff" stroke="#63b8ff" points="689.62,-29.92 684.2,-20.82 682.76,-31.31 689.62,-29.92"/>
</a>
</g>
</g>
<!-- Node9&#45;&gt;Node15 -->
<g id="edge14_Node000009_Node000015" class="edge">
<title>Node9&#45;&gt;Node15</title>
<g id="a_edge14_Node000009_Node000015"><a xlink:title=" ">
<path fill="none" stroke="#63b8ff" d="M717.62,-110.09C697.14,-101.64 666.29,-88.9 642.94,-79.27"/>
<polygon fill="#63b8ff" stroke="#63b8ff" points="644.47,-76.11 633.89,-75.53 641.8,-82.58 644.47,-76.11"/>
</a>
</g>
</g>
<!-- Node19 -->
<g id="Node000019" class="node">
<title>Node19</title>
<g id="a_Node000019"><a xlink:href="_entity_8hpp.html" target="_top" xlink:title=" ">
<polygon fill="white" stroke="#666666" points="768.88,-74.5 710.12,-74.5 710.12,-55.25 768.88,-55.25 768.88,-74.5"/>
<text text-anchor="middle" x="739.5" y="-61" font-family="Helvetica,sans-Serif" font-size="10.00">Entity.hpp</text>
</a>
</g>
</g>
<!-- Node9&#45;&gt;Node19 -->
<g id="edge20_Node000009_Node000019" class="edge">
<title>Node9&#45;&gt;Node19</title>
<g id="a_edge20_Node000009_Node000019"><a xlink:title=" ">
<path fill="none" stroke="#63b8ff" d="M739.5,-110.33C739.5,-103.82 739.5,-94.67 739.5,-86.37"/>
<polygon fill="#63b8ff" stroke="#63b8ff" points="743,-86.37 739.5,-76.37 736,-86.37 743,-86.37"/>
</a>
</g>
</g>
<!-- Node15&#45;&gt;Node7 -->
<g id="edge15_Node000015_Node000007" class="edge">
<title>Node15&#45;&gt;Node7</title>
<g id="a_edge15_Node000015_Node000007"><a xlink:title=" ">
<path fill="none" stroke="#63b8ff" d="M572.55,-54.76C538.78,-46.56 487.76,-33.96 435.29,-19.94"/>
<polygon fill="#63b8ff" stroke="#63b8ff" points="436.46,-16.63 425.89,-17.42 434.64,-23.39 436.46,-16.63"/>
</a>
</g>
</g>
<!-- Node15&#45;&gt;Node14 -->
<g id="edge17_Node000015_Node000014" class="edge">
<title>Node15&#45;&gt;Node14</title>
<g id="a_edge17_Node000015_Node000014"><a xlink:title=" ">
<path fill="none" stroke="#63b8ff" d="M622.71,-54.84C633.33,-46.99 648.94,-35.45 661.54,-26.12"/>
<polygon fill="#63b8ff" stroke="#63b8ff" points="663.29,-29.19 669.25,-20.42 659.13,-23.56 663.29,-29.19"/>
</a>
</g>
</g>
<!-- Node16 -->
<g id="Node000016" class="node">
<title>Node16</title>
<g id="a_Node000016"><a xlink:title=" ">
<polygon fill="#e0e0e0" stroke="#999999" points="491.38,-19.25 441.62,-19.25 441.62,0 491.38,0 491.38,-19.25"/>
<text text-anchor="middle" x="466.5" y="-5.75" font-family="Helvetica,sans-Serif" font-size="10.00">optional</text>
</a>
</g>
</g>
<!-- Node15&#45;&gt;Node16 -->
<g id="edge16_Node000015_Node000016" class="edge">
<title>Node15&#45;&gt;Node16</title>
<g id="a_edge16_Node000015_Node000016"><a xlink:title=" ">
<path fill="none" stroke="#63b8ff" d="M586.07,-54.84C562.9,-46.27 527.84,-33.31 501.66,-23.63"/>
<polygon fill="#63b8ff" stroke="#63b8ff" points="503.06,-20.41 492.47,-20.23 500.63,-26.98 503.06,-20.41"/>
</a>
</g>
</g>
<!-- Node17 -->
<g id="Node000017" class="node">
<title>Node17</title>
<g id="a_Node000017"><a xlink:title=" ">
<polygon fill="#e0e0e0" stroke="#999999" points="565.38,-19.25 509.62,-19.25 509.62,0 565.38,0 565.38,-19.25"/>
<text text-anchor="middle" x="537.5" y="-5.75" font-family="Helvetica,sans-Serif" font-size="10.00">algorithm</text>
</a>
</g>
</g>
<!-- Node15&#45;&gt;Node17 -->
<g id="edge18_Node000015_Node000017" class="edge">
<title>Node15&#45;&gt;Node17</title>
<g id="a_edge18_Node000015_Node000017"><a xlink:title=" ">
<path fill="none" stroke="#63b8ff" d="M598.12,-54.84C587.35,-46.99 571.53,-35.45 558.75,-26.12"/>
<polygon fill="#63b8ff" stroke="#63b8ff" points="561.06,-23.48 550.92,-20.42 556.94,-29.14 561.06,-23.48"/>
</a>
</g>
</g>
<!-- Node18 -->
<g id="Node000018" class="node">
<title>Node18</title>
<g id="a_Node000018"><a xlink:title=" ">
<polygon fill="#e0e0e0" stroke="#999999" points="635.12,-19.25 583.88,-19.25 583.88,0 635.12,0 635.12,-19.25"/>
<text text-anchor="middle" x="609.5" y="-5.75" font-family="Helvetica,sans-Serif" font-size="10.00">memory</text>
</a>
</g>
</g>
<!-- Node15&#45;&gt;Node18 -->
<g id="edge19_Node000015_Node000018" class="edge">
<title>Node15&#45;&gt;Node18</title>
<g id="a_edge19_Node000015_Node000018"><a xlink:title=" ">
<path fill="none" stroke="#63b8ff" d="M610.33,-55.08C610.21,-48.57 610.04,-39.42 609.88,-31.12"/>
<polygon fill="#63b8ff" stroke="#63b8ff" points="613.38,-31.05 609.7,-21.12 606.39,-31.19 613.38,-31.05"/>
</a>
</g>
</g>
<!-- Node19&#45;&gt;Node20 -->
<g id="edge21_Node000019_Node000020" class="edge">
<title>Node19&#45;&gt;Node20</title>
<g id="a_edge21_Node000019_Node000020"><a xlink:title=" ">
<path fill="none" stroke="#63b8ff" d="M769.32,-56.85C772.08,-56.28 774.84,-55.74 777.5,-55.25 878.95,-36.72 999.67,-21.85 1060.07,-14.9"/>
<polygon fill="#63b8ff" stroke="#63b8ff" points="1060.28,-18.4 1069.82,-13.78 1059.48,-11.44 1060.28,-18.4"/>
</a>
</g>
</g>
<!-- Node21 -->
<g id="Node000021" class="node">
<title>Node21</title>
<g id="a_Node000021"><a xlink:title=" ">
<polygon fill="#e0e0e0" stroke="#999999" points="778.62,-19.25 730.38,-19.25 730.38,0 778.62,0 778.62,-19.25"/>
<text text-anchor="middle" x="754.5" y="-5.75" font-family="Helvetica,sans-Serif" font-size="10.00">cstddef</text>
</a>
</g>
</g>
<!-- Node19&#45;&gt;Node21 -->
<g id="edge22_Node000019_Node000021" class="edge">
<title>Node19&#45;&gt;Node21</title>
<g id="a_edge22_Node000019_Node000021"><a xlink:title=" ">
<path fill="none" stroke="#63b8ff" d="M741.98,-55.08C743.85,-48.42 746.51,-38.99 748.89,-30.53"/>
<polygon fill="#63b8ff" stroke="#63b8ff" points="752.22,-31.64 751.56,-21.07 745.48,-29.74 752.22,-31.64"/>
</a>
</g>
</g>
<!-- Node22&#45;&gt;Node2 -->
<g id="edge28_Node000022_Node000002" class="edge">
<title>Node22&#45;&gt;Node2</title>
<g id="a_edge28_Node000022_Node000002"><a xlink:title=" ">
<path fill="none" stroke="#63b8ff" d="M513.71,-185.36C515.1,-192 515.55,-201.3 515.06,-209.67"/>
<polygon fill="#63b8ff" stroke="#63b8ff" points="511.62,-208.97 513.85,-219.33 518.56,-209.84 511.62,-208.97"/>
</a>
</g>
</g>
<!-- Node22&#45;&gt;Node6 -->
<g id="edge35_Node000022_Node000006" class="edge">
<title>Node22&#45;&gt;Node6</title>
<g id="a_edge35_Node000022_Node000006"><a xlink:title=" ">
<path fill="none" stroke="#63b8ff" d="M480.62,-165.29C460.02,-157.75 431.96,-145.7 410.5,-129.75 393.16,-116.87 377.34,-97.82 366.96,-83.88"/>
<polygon fill="#63b8ff" stroke="#63b8ff" points="369.99,-82.09 361.32,-76.02 364.31,-86.18 369.99,-82.09"/>
</a>
</g>
</g>
<!-- Node22&#45;&gt;Node7 -->
<g id="edge36_Node000022_Node000007" class="edge">
<title>Node22&#45;&gt;Node7</title>
<g id="a_edge36_Node000022_Node000007"><a xlink:title=" ">
<path fill="none" stroke="#63b8ff" d="M489.21,-165.39C474.77,-157.77 455.52,-145.55 443.5,-129.75 420.62,-99.67 409.95,-55.92 405.43,-30.66"/>
<polygon fill="#63b8ff" stroke="#63b8ff" points="408.93,-30.4 403.87,-21.09 402.02,-31.52 408.93,-30.4"/>
</a>
</g>
</g>
<!-- Node22&#45;&gt;Node9 -->
<g id="edge29_Node000022_Node000009" class="edge">
<title>Node22&#45;&gt;Node9</title>
<g id="a_edge29_Node000022_Node000009"><a xlink:title=" ">
<path fill="none" stroke="#63b8ff" d="M547.95,-165.28C588.08,-156.03 650.27,-141.7 692.83,-131.88"/>
<polygon fill="#63b8ff" stroke="#63b8ff" points="693.57,-135.3 702.53,-129.65 692,-128.48 693.57,-135.3"/>
</a>
</g>
</g>
<!-- Node22&#45;&gt;Node20 -->
<g id="edge34_Node000022_Node000020" class="edge">
<title>Node22&#45;&gt;Node20</title>
<g id="a_edge34_Node000022_Node000020"><a xlink:title=" ">
<path fill="none" stroke="#63b8ff" d="M559.7,-172.21C685.14,-165.88 1003.13,-143.28 1079.5,-74.5 1091.74,-63.48 1096.24,-44.97 1097.83,-30.71"/>
<polygon fill="#63b8ff" stroke="#63b8ff" points="1101.29,-31.29 1098.49,-21.07 1094.31,-30.81 1101.29,-31.29"/>
</a>
</g>
</g>
<!-- Node23 -->
<g id="Node000023" class="node">
<title>Node23</title>
<g id="a_Node000023"><a xlink:href="_i_sender_8hpp.html" target="_top" xlink:title=" ">
<polygon fill="white" stroke="#666666" points="520.38,-129.75 452.62,-129.75 452.62,-110.5 520.38,-110.5 520.38,-129.75"/>
<text text-anchor="middle" x="486.5" y="-116.25" font-family="Helvetica,sans-Serif" font-size="10.00">ISender.hpp</text>
</a>
</g>
</g>
<!-- Node22&#45;&gt;Node23 -->
<g id="edge30_Node000022_Node000023" class="edge">
<title>Node22&#45;&gt;Node23</title>
<g id="a_edge30_Node000022_Node000023"><a xlink:title=" ">
<path fill="none" stroke="#63b8ff" d="M504.87,-165.58C502.08,-158.84 498.13,-149.27 494.6,-140.74"/>
<polygon fill="#63b8ff" stroke="#63b8ff" points="497.84,-139.41 490.79,-131.51 491.37,-142.09 497.84,-139.41"/>
</a>
</g>
</g>
<!-- Node24 -->
<g id="Node000024" class="node">
<title>Node24</title>
<g id="a_Node000024"><a xlink:title=" ">
<polygon fill="#e0e0e0" stroke="#999999" points="548.38,-74.5 468.62,-74.5 468.62,-55.25 548.38,-55.25 548.38,-74.5"/>
<text text-anchor="middle" x="508.5" y="-61" font-family="Helvetica,sans-Serif" font-size="10.00">boost/asio.hpp</text>
</a>
</g>
</g>
<!-- Node22&#45;&gt;Node24 -->
<g id="edge37_Node000022_Node000024" class="edge">
<title>Node22&#45;&gt;Node24</title>
<g id="a_edge37_Node000022_Node000024"><a xlink:title=" ">
<path fill="none" stroke="#63b8ff" d="M514.68,-165.43C522.38,-153.22 533.98,-130.55 529.5,-110.5 527.52,-101.63 523.57,-92.44 519.62,-84.73"/>
<polygon fill="#63b8ff" stroke="#63b8ff" points="522.71,-83.07 514.81,-76.01 516.58,-86.45 522.71,-83.07"/>
</a>
</g>
</g>
<!-- Node23&#45;&gt;Node6 -->
<g id="edge32_Node000023_Node000006" class="edge">
<title>Node23&#45;&gt;Node6</title>
<g id="a_edge32_Node000023_Node000006"><a xlink:title=" ">
<path fill="none" stroke="#63b8ff" d="M464.11,-110.09C442.42,-101.34 409.36,-88.01 385.22,-78.27"/>
<polygon fill="#63b8ff" stroke="#63b8ff" points="386.82,-75.14 376.23,-74.64 384.2,-81.63 386.82,-75.14"/>
</a>
</g>
</g>
<!-- Node23&#45;&gt;Node7 -->
<g id="edge31_Node000023_Node000007" class="edge">
<title>Node23&#45;&gt;Node7</title>
<g id="a_edge31_Node000023_Node000007"><a xlink:title=" ">
<path fill="none" stroke="#63b8ff" d="M479.63,-110.25C465.84,-92.44 434.6,-52.08 416.39,-28.56"/>
<polygon fill="#63b8ff" stroke="#63b8ff" points="419.28,-26.59 410.4,-20.82 413.75,-30.87 419.28,-26.59"/>
</a>
</g>
</g>
<!-- Node23&#45;&gt;Node24 -->
<g id="edge33_Node000023_Node000024" class="edge">
<title>Node23&#45;&gt;Node24</title>
<g id="a_edge33_Node000023_Node000024"><a xlink:title=" ">
<path fill="none" stroke="#63b8ff" d="M490.13,-110.33C492.92,-103.59 496.87,-94.02 500.4,-85.49"/>
<polygon fill="#63b8ff" stroke="#63b8ff" points="503.63,-86.84 504.21,-76.26 497.16,-84.16 503.63,-86.84"/>
</a>
</g>
</g>
</g>
</svg>
