<?xml version="1.0" encoding="UTF-8" standalone="no"?>
<!DOCTYPE svg PUBLIC "-//W3C//DTD SVG 1.1//EN"
 "http://www.w3.org/Graphics/SVG/1.1/DTD/svg11.dtd">
<!-- Generated by graphviz version 12.2.1 (20241206.2353)
 -->
<!-- Title: src/Systems.hpp Pages: 1 -->
<!--zoomable 248 -->

<svg id="main" version="1.1" xmlns="http://www.w3.org/2000/svg" xmlns:xlink="http://www.w3.org/1999/xlink" xml:space="preserve" onload="init(evt)">

<style type="text/css"><![CDATA[
.node, .edge {opacity: 0.7;}
.node.selected, .edge.selected {opacity: 1;}
.edge:hover path { stroke: red; }
.edge:hover polygon { stroke: red; fill: red; }
]]></style>

<defs>
  <circle id="rim" cx="0" cy="0" r="7"/>
  <circle id="rim2" cx="0" cy="0" r="3.5"/>
  <g id="zoomPlus">
    <use xlink:href="#rim" fill="#404040"><set attributeName="fill" to="#808080" begin="zoomplus.mouseover" end="zoomplus.mouseout"/></use>
    <path d="M-4,0h8M0,-4v8" fill="none" stroke="white" stroke-width="1.5" pointer-events="none"/>
  </g>
  <g id="zoomMin">
    <use xlink:href="#rim" fill="#404040"><set attributeName="fill" to="#808080" begin="zoomminus.mouseover" end="zoomminus.mouseout"/></use>
    <path d="M-4,0h8" fill="none" stroke="white" stroke-width="1.5" pointer-events="none"/>
  </g>
  <g id="arrowUp" transform="translate(30 24)">
    <use xlink:href="#rim"/>
    <path pointer-events="none" fill="none" stroke="white" stroke-width="1.5" d="M0,-3.0v7 M-2.5,-0.5L0,-3.0L2.5,-0.5"/>
  </g>
  <g id="arrowRight" transform="rotate(90) translate(36 -43)">
    <use xlink:href="#rim"/>
    <path pointer-events="none" fill="none" stroke="white" stroke-width="1.5" d="M0,-3.0v7 M-2.5,-0.5L0,-3.0L2.5,-0.5"/>
  </g>
  <g id="arrowDown" transform="rotate(180) translate(-30 -48)">
    <use xlink:href="#rim"/>
    <path pointer-events="none" fill="none" stroke="white" stroke-width="1.5" d="M0,-3.0v7 M-2.5,-0.5L0,-3.0L2.5,-0.5"/>
  </g>
  <g id="arrowLeft" transform="rotate(270) translate(-36 17)">
    <use xlink:href="#rim"/>
    <path pointer-events="none" fill="none" stroke="white" stroke-width="1.5" d="M0,-3.0v7 M-2.5,-0.5L0,-3.0L2.5,-0.5"/>
  </g>
  <g id="resetDef">
    <use xlink:href="#rim2" fill="#404040"><set attributeName="fill" to="#808080" begin="reset.mouseover" end="reset.mouseout"/></use>
  </g>
</defs>
<script type="application/ecmascript">
var viewWidth = 1672;
var viewHeight = 248;
var sectionId = 'dynsection-1';
</script>
<script type="application/ecmascript" xlink:href="svg.min.js"/>
<svg id="graph" class="graph">
<g id="viewport">
<title>src/Systems.hpp</title>
<!-- Node1 -->
<g id="Node000001" class="node">
<title>Node1</title>
<g id="a_Node000001"><a xlink:title=" ">
<polygon fill="#999999" stroke="#666666" points="865.38,-240.25 775.12,-240.25 775.12,-221 865.38,-221 865.38,-240.25"/>
<text text-anchor="middle" x="820.25" y="-226.75" font-family="Helvetica,sans-Serif" font-size="10.00">src/Systems.hpp</text>
</a>
</g>
</g>
<!-- Node2 -->
<g id="Node000002" class="node">
<title>Node2</title>
<g id="a_Node000002"><a xlink:href="_systems_8cpp.html" target="_top" xlink:title=" ">
<polygon fill="white" stroke="#666666" points="544.38,-185 454.12,-185 454.12,-165.75 544.38,-165.75 544.38,-185"/>
<text text-anchor="middle" x="499.25" y="-171.5" font-family="Helvetica,sans-Serif" font-size="10.00">src/Systems.cpp</text>
</a>
</g>
</g>
<!-- Node1&#45;&gt;Node2 -->
<g id="edge1_Node000001_Node000002" class="edge">
<title>Node1&#45;&gt;Node2</title>
<g id="a_edge1_Node000001_Node000002"><a xlink:title=" ">
<path fill="none" stroke="#63b8ff" d="M763.75,-220.25C701.45,-209.92 602.42,-193.49 544.85,-183.94"/>
<polygon fill="#63b8ff" stroke="#63b8ff" points="763.01,-223.68 773.45,-221.86 764.15,-216.77 763.01,-223.68"/>
</a>
</g>
</g>
<!-- Node3 -->
<g id="Node000003" class="node">
<title>Node3</title>
<g id="a_Node000003"><a xlink:href="_core_8hpp.html" target="_top" xlink:title=" ">
<polygon fill="white" stroke="#666666" points="812.5,-74.5 714,-74.5 714,-55.25 812.5,-55.25 812.5,-74.5"/>
<text text-anchor="middle" x="763.25" y="-61" font-family="Helvetica,sans-Serif" font-size="10.00">src/client/Core.hpp</text>
</a>
</g>
</g>
<!-- Node1&#45;&gt;Node3 -->
<g id="edge2_Node000001_Node000003" class="edge">
<title>Node1&#45;&gt;Node3</title>
<g id="a_edge2_Node000001_Node000003"><a xlink:title=" ">
<path fill="none" stroke="#63b8ff" d="M813.56,-210.41C801.2,-174.9 775.24,-100.32 766.33,-74.72"/>
<polygon fill="#63b8ff" stroke="#63b8ff" points="810.09,-211.1 816.69,-219.39 816.71,-208.8 810.09,-211.1"/>
</a>
</g>
</g>
<!-- Node5 -->
<g id="Node000005" class="node">
<title>Node5</title>
<g id="a_Node000005"><a xlink:href="_gui_game_8cpp.html" target="_top" xlink:title=" ">
<polygon fill="white" stroke="#666666" points="295.62,-19.25 176.88,-19.25 176.88,0 295.62,0 295.62,-19.25"/>
<text text-anchor="middle" x="236.25" y="-5.75" font-family="Helvetica,sans-Serif" font-size="10.00">src/client/GuiGame.cpp</text>
</a>
</g>
</g>
<!-- Node1&#45;&gt;Node5 -->
<g id="edge13_Node000001_Node000005" class="edge">
<title>Node1&#45;&gt;Node5</title>
<g id="a_edge13_Node000001_Node000005"><a xlink:title=" ">
<path fill="none" stroke="#63b8ff" d="M804.09,-212.72C768.56,-176.75 679.37,-92.83 586.25,-55.25 584.58,-54.57 395.61,-30.7 296.07,-18.16"/>
<polygon fill="#63b8ff" stroke="#63b8ff" points="801.4,-214.97 810.88,-219.69 806.41,-210.09 801.4,-214.97"/>
</a>
</g>
</g>
<!-- Node10 -->
<g id="Node000010" class="node">
<title>Node10</title>
<g id="a_Node000010"><a xlink:href="_handle_animation_8cpp.html" target="_top" xlink:title=" ">
<polygon fill="white" stroke="#666666" points="1108.12,-19.25 956.38,-19.25 956.38,0 1108.12,0 1108.12,-19.25"/>
<text text-anchor="middle" x="1032.25" y="-5.75" font-family="Helvetica,sans-Serif" font-size="10.00">src/client/HandleAnimation.cpp</text>
</a>
</g>
</g>
<!-- Node1&#45;&gt;Node10 -->
<g id="edge14_Node000001_Node000010" class="edge">
<title>Node1&#45;&gt;Node10</title>
<g id="a_edge14_Node000001_Node000010"><a xlink:title=" ">
<path fill="none" stroke="#63b8ff" d="M822.42,-209.31C826.08,-183.76 835.55,-139.7 859.25,-110.5 897.93,-62.84 965.83,-33.34 1004.05,-19.67"/>
<polygon fill="#63b8ff" stroke="#63b8ff" points="818.98,-208.66 821.21,-219.01 825.92,-209.52 818.98,-208.66"/>
</a>
</g>
</g>
<!-- Node11 -->
<g id="Node000011" class="node">
<title>Node11</title>
<g id="a_Node000011"><a xlink:href="_handle_commands_8cpp.html" target="_top" xlink:title=" ">
<polygon fill="white" stroke="#666666" points="158.5,-19.25 0,-19.25 0,0 158.5,0 158.5,-19.25"/>
<text text-anchor="middle" x="79.25" y="-5.75" font-family="Helvetica,sans-Serif" font-size="10.00">src/client/HandleCommands.cpp</text>
</a>
</g>
</g>
<!-- Node1&#45;&gt;Node11 -->
<g id="edge15_Node000001_Node000011" class="edge">
<title>Node1&#45;&gt;Node11</title>
<g id="a_edge15_Node000001_Node000011"><a xlink:title=" ">
<path fill="none" stroke="#63b8ff" d="M778.87,-217.4C645.22,-177.89 226.94,-54.27 109.93,-19.69"/>
<polygon fill="#63b8ff" stroke="#63b8ff" points="777.79,-220.72 788.37,-220.2 779.77,-214.01 777.79,-220.72"/>
</a>
</g>
</g>
<!-- Node12 -->
<g id="Node000012" class="node">
<title>Node12</title>
<g id="a_Node000012"><a xlink:href="_handle_input_8cpp.html" target="_top" xlink:title=" ">
<polygon fill="white" stroke="#666666" points="1390.25,-19.25 1260.25,-19.25 1260.25,0 1390.25,0 1390.25,-19.25"/>
<text text-anchor="middle" x="1325.25" y="-5.75" font-family="Helvetica,sans-Serif" font-size="10.00">src/client/HandleInput.cpp</text>
</a>
</g>
</g>
<!-- Node1&#45;&gt;Node12 -->
<g id="edge16_Node000001_Node000012" class="edge">
<title>Node1&#45;&gt;Node12</title>
<g id="a_edge16_Node000001_Node000012"><a xlink:title=" ">
<path fill="none" stroke="#63b8ff" d="M877.29,-224.9C972.97,-214.18 1167.1,-180.05 1287.25,-74.5 1304.89,-59 1316.66,-33.25 1321.98,-19.67"/>
<polygon fill="#63b8ff" stroke="#63b8ff" points="876.92,-221.42 867.35,-225.97 877.66,-228.38 876.92,-221.42"/>
</a>
</g>
</g>
<!-- Node14 -->
<g id="Node000014" class="node">
<title>Node14</title>
<g id="a_Node000014"><a xlink:href="_mediator_8hpp.html" target="_top" xlink:title=" ">
<polygon fill="white" stroke="#666666" points="986.25,-185 868.25,-185 868.25,-165.75 986.25,-165.75 986.25,-185"/>
<text text-anchor="middle" x="927.25" y="-171.5" font-family="Helvetica,sans-Serif" font-size="10.00">src/server/Mediator.hpp</text>
</a>
</g>
</g>
<!-- Node1&#45;&gt;Node14 -->
<g id="edge17_Node000001_Node000014" class="edge">
<title>Node1&#45;&gt;Node14</title>
<g id="a_edge17_Node000001_Node000014"><a xlink:title=" ">
<path fill="none" stroke="#63b8ff" d="M843.11,-215.23C861.04,-205.74 885.69,-193.61 903.78,-185.45"/>
<polygon fill="#63b8ff" stroke="#63b8ff" points="841.65,-212.04 834.52,-219.87 844.98,-218.2 841.65,-212.04"/>
</a>
</g>
</g>
<!-- Node4 -->
<g id="Node000004" class="node">
<title>Node4</title>
<g id="a_Node000004"><a xlink:href="_core_8cpp.html" target="_top" xlink:title=" ">
<polygon fill="white" stroke="#666666" points="529.5,-19.25 431,-19.25 431,0 529.5,0 529.5,-19.25"/>
<text text-anchor="middle" x="480.25" y="-5.75" font-family="Helvetica,sans-Serif" font-size="10.00">src/client/Core.cpp</text>
</a>
</g>
</g>
<!-- Node3&#45;&gt;Node4 -->
<g id="edge3_Node000003_Node000004" class="edge">
<title>Node3&#45;&gt;Node4</title>
<g id="a_edge3_Node000003_Node000004"><a xlink:title=" ">
<path fill="none" stroke="#63b8ff" d="M703.83,-52.69C651.7,-42.89 576.84,-28.8 528.38,-19.68"/>
<polygon fill="#63b8ff" stroke="#63b8ff" points="702.96,-56.09 713.43,-54.5 704.25,-49.21 702.96,-56.09"/>
</a>
</g>
</g>
<!-- Node3&#45;&gt;Node5 -->
<g id="edge4_Node000003_Node000005" class="edge">
<title>Node3&#45;&gt;Node5</title>
<g id="a_edge4_Node000003_Node000005"><a xlink:title=" ">
<path fill="none" stroke="#63b8ff" d="M702.73,-55.54C701.9,-55.44 701.07,-55.34 700.25,-55.25 525.1,-35.29 480.51,-38.19 305.25,-19.25 302.25,-18.93 299.18,-18.58 296.07,-18.23"/>
<polygon fill="#63b8ff" stroke="#63b8ff" points="701.9,-58.96 712.25,-56.7 702.75,-52.01 701.9,-58.96"/>
</a>
</g>
</g>
<!-- Node6 -->
<g id="Node000006" class="node">
<title>Node6</title>
<g id="a_Node000006"><a xlink:href="_gui_lobby_8cpp.html" target="_top" xlink:title=" ">
<polygon fill="white" stroke="#666666" points="664.88,-19.25 547.62,-19.25 547.62,0 664.88,0 664.88,-19.25"/>
<text text-anchor="middle" x="606.25" y="-5.75" font-family="Helvetica,sans-Serif" font-size="10.00">src/client/GuiLobby.cpp</text>
</a>
</g>
</g>
<!-- Node3&#45;&gt;Node6 -->
<g id="edge5_Node000003_Node000006" class="edge">
<title>Node3&#45;&gt;Node6</title>
<g id="a_edge5_Node000003_Node000006"><a xlink:title=" ">
<path fill="none" stroke="#63b8ff" d="M725.82,-51.18C697.24,-41.49 658.55,-28.36 633.01,-19.7"/>
<polygon fill="#63b8ff" stroke="#63b8ff" points="724.59,-54.46 735.18,-54.36 726.84,-47.83 724.59,-54.46"/>
</a>
</g>
</g>
<!-- Node7 -->
<g id="Node000007" class="node">
<title>Node7</title>
<g id="a_Node000007"><a xlink:href="_gui_login_8cpp.html" target="_top" xlink:title=" ">
<polygon fill="white" stroke="#666666" points="1242.12,-19.25 1126.38,-19.25 1126.38,0 1242.12,0 1242.12,-19.25"/>
<text text-anchor="middle" x="1184.25" y="-5.75" font-family="Helvetica,sans-Serif" font-size="10.00">src/client/GuiLogin.cpp</text>
</a>
</g>
</g>
<!-- Node3&#45;&gt;Node7 -->
<g id="edge6_Node000003_Node000007" class="edge">
<title>Node3&#45;&gt;Node7</title>
<g id="a_edge6_Node000003_Node000007"><a xlink:title=" ">
<path fill="none" stroke="#63b8ff" d="M824.11,-56.25C894.64,-47.41 1014.37,-32.36 1117.25,-19.25 1120.16,-18.88 1123.14,-18.5 1126.15,-18.11"/>
<polygon fill="#63b8ff" stroke="#63b8ff" points="823.78,-52.77 814.3,-57.48 824.66,-59.71 823.78,-52.77"/>
</a>
</g>
</g>
<!-- Node8 -->
<g id="Node000008" class="node">
<title>Node8</title>
<g id="a_Node000008"><a xlink:href="_gui_menu_8cpp.html" target="_top" xlink:title=" ">
<polygon fill="white" stroke="#666666" points="799.5,-19.25 683,-19.25 683,0 799.5,0 799.5,-19.25"/>
<text text-anchor="middle" x="741.25" y="-5.75" font-family="Helvetica,sans-Serif" font-size="10.00">src/client/GuiMenu.cpp</text>
</a>
</g>
</g>
<!-- Node3&#45;&gt;Node8 -->
<g id="edge7_Node000003_Node000008" class="edge">
<title>Node3&#45;&gt;Node8</title>
<g id="a_edge7_Node000003_Node000008"><a xlink:title=" ">
<path fill="none" stroke="#63b8ff" d="M755.25,-44.5C751.73,-35.99 747.77,-26.4 744.96,-19.61"/>
<polygon fill="#63b8ff" stroke="#63b8ff" points="751.99,-45.78 759.04,-53.68 758.46,-43.1 751.99,-45.78"/>
</a>
</g>
</g>
<!-- Node9 -->
<g id="Node000009" class="node">
<title>Node9</title>
<g id="a_Node000009"><a xlink:href="_gui_option_8cpp.html" target="_top" xlink:title=" ">
<polygon fill="white" stroke="#666666" points="938.75,-19.25 817.75,-19.25 817.75,0 938.75,0 938.75,-19.25"/>
<text text-anchor="middle" x="878.25" y="-5.75" font-family="Helvetica,sans-Serif" font-size="10.00">src/client/GuiOption.cpp</text>
</a>
</g>
</g>
<!-- Node3&#45;&gt;Node9 -->
<g id="edge8_Node000003_Node000009" class="edge">
<title>Node3&#45;&gt;Node9</title>
<g id="a_edge8_Node000003_Node000009"><a xlink:title=" ">
<path fill="none" stroke="#63b8ff" d="M793.2,-50.01C813.84,-40.45 840.69,-28.02 858.65,-19.7"/>
<polygon fill="#63b8ff" stroke="#63b8ff" points="791.74,-46.83 784.13,-54.21 794.68,-53.18 791.74,-46.83"/>
</a>
</g>
</g>
<!-- Node3&#45;&gt;Node10 -->
<g id="edge9_Node000003_Node000010" class="edge">
<title>Node3&#45;&gt;Node10</title>
<g id="a_edge9_Node000003_Node000010"><a xlink:title=" ">
<path fill="none" stroke="#63b8ff" d="M820.35,-52.57C869.88,-42.77 940.63,-28.76 986.5,-19.68"/>
<polygon fill="#63b8ff" stroke="#63b8ff" points="819.8,-49.11 810.67,-54.49 821.16,-55.98 819.8,-49.11"/>
</a>
</g>
</g>
<!-- Node3&#45;&gt;Node11 -->
<g id="edge10_Node000003_Node000011" class="edge">
<title>Node3&#45;&gt;Node11</title>
<g id="a_edge10_Node000003_Node000011"><a xlink:title=" ">
<path fill="none" stroke="#63b8ff" d="M702.59,-59.76C594.93,-52.37 363.43,-36.02 168.25,-19.25 165.16,-18.98 162,-18.71 158.82,-18.42"/>
<polygon fill="#63b8ff" stroke="#63b8ff" points="702.13,-63.24 712.34,-60.43 702.61,-56.26 702.13,-63.24"/>
</a>
</g>
</g>
<!-- Node3&#45;&gt;Node12 -->
<g id="edge11_Node000003_Node000012" class="edge">
<title>Node3&#45;&gt;Node12</title>
<g id="a_edge11_Node000003_Node000012"><a xlink:title=" ">
<path fill="none" stroke="#63b8ff" d="M824.18,-58.79C916.59,-50.97 1097.68,-35.22 1251.25,-19.25 1254.08,-18.96 1256.97,-18.65 1259.89,-18.33"/>
<polygon fill="#63b8ff" stroke="#63b8ff" points="824,-55.3 814.33,-59.62 824.59,-62.27 824,-55.3"/>
</a>
</g>
</g>
<!-- Node13 -->
<g id="Node000013" class="node">
<title>Node13</title>
<g id="a_Node000013"><a xlink:href="client_2main_8cpp.html" target="_top" xlink:title=" ">
<polygon fill="white" stroke="#666666" points="412.5,-19.25 314,-19.25 314,0 412.5,0 412.5,-19.25"/>
<text text-anchor="middle" x="363.25" y="-5.75" font-family="Helvetica,sans-Serif" font-size="10.00">src/client/Main.cpp</text>
</a>
</g>
</g>
<!-- Node3&#45;&gt;Node13 -->
<g id="edge12_Node000003_Node000013" class="edge">
<title>Node3&#45;&gt;Node13</title>
<g id="a_edge12_Node000003_Node000013"><a xlink:title=" ">
<path fill="none" stroke="#63b8ff" d="M702.73,-55.58C701.9,-55.47 701.07,-55.36 700.25,-55.25 576.75,-38.8 545.67,-36.26 422.25,-19.25 419.17,-18.83 416.01,-18.38 412.82,-17.93"/>
<polygon fill="#63b8ff" stroke="#63b8ff" points="701.85,-58.99 712.23,-56.86 702.79,-52.06 701.85,-58.99"/>
</a>
</g>
</g>
<!-- Node14&#45;&gt;Node1 -->
<g id="edge18_Node000014_Node000001" class="edge">
<title>Node14&#45;&gt;Node1</title>
<g id="a_edge18_Node000014_Node000001"><a xlink:title=" ">
<path fill="none" stroke="#63b8ff" d="M904.29,-190.83C886.34,-200.32 861.69,-212.44 843.62,-220.59"/>
<polygon fill="#63b8ff" stroke="#63b8ff" points="905.77,-194.01 912.9,-186.17 902.44,-187.85 905.77,-194.01"/>
</a>
</g>
</g>
<!-- Node15 -->
<g id="Node000015" class="node">
<title>Node15</title>
<g id="a_Node000015"><a xlink:href="_mediator_8cpp.html" target="_top" xlink:title=" ">
<polygon fill="white" stroke="#666666" points="986.25,-129.75 868.25,-129.75 868.25,-110.5 986.25,-110.5 986.25,-129.75"/>
<text text-anchor="middle" x="927.25" y="-116.25" font-family="Helvetica,sans-Serif" font-size="10.00">src/server/Mediator.cpp</text>
</a>
</g>
</g>
<!-- Node14&#45;&gt;Node15 -->
<g id="edge19_Node000014_Node000015" class="edge">
<title>Node14&#45;&gt;Node15</title>
<g id="a_edge19_Node000014_Node000015"><a xlink:title=" ">
<path fill="none" stroke="#63b8ff" d="M927.25,-154.13C927.25,-145.84 927.25,-136.67 927.25,-130.11"/>
<polygon fill="#63b8ff" stroke="#63b8ff" points="923.75,-154.07 927.25,-164.07 930.75,-154.07 923.75,-154.07"/>
</a>
</g>
</g>
<!-- Node16 -->
<g id="Node000016" class="node">
<title>Node16</title>
<g id="a_Node000016"><a xlink:href="_server_game_8hpp.html" target="_top" xlink:title=" ">
<polygon fill="white" stroke="#666666" points="1526.25,-74.5 1390.25,-74.5 1390.25,-55.25 1526.25,-55.25 1526.25,-74.5"/>
<text text-anchor="middle" x="1458.25" y="-61" font-family="Helvetica,sans-Serif" font-size="10.00">src/server/ServerGame.hpp</text>
</a>
</g>
</g>
<!-- Node14&#45;&gt;Node16 -->
<g id="edge20_Node000014_Node000016" class="edge">
<title>Node14&#45;&gt;Node16</title>
<g id="a_edge20_Node000014_Node000016"><a xlink:title=" ">
<path fill="none" stroke="#63b8ff" d="M987.36,-163.16C1034.24,-154.33 1100.95,-141.58 1159.25,-129.75 1251.59,-111.01 1359.62,-87.55 1417.2,-74.92"/>
<polygon fill="#63b8ff" stroke="#63b8ff" points="986.86,-159.69 977.68,-164.98 988.15,-166.57 986.86,-159.69"/>
</a>
</g>
</g>
<!-- Node19 -->
<g id="Node000019" class="node">
<title>Node19</title>
<g id="a_Node000019"><a xlink:href="_server_network_8hpp.html" target="_top" xlink:title=" ">
<polygon fill="white" stroke="#666666" points="1150.5,-129.75 1004,-129.75 1004,-110.5 1150.5,-110.5 1150.5,-129.75"/>
<text text-anchor="middle" x="1077.25" y="-116.25" font-family="Helvetica,sans-Serif" font-size="10.00">src/server/ServerNetwork.hpp</text>
</a>
</g>
</g>
<!-- Node14&#45;&gt;Node19 -->
<g id="edge23_Node000014_Node000019" class="edge">
<title>Node14&#45;&gt;Node19</title>
<g id="a_edge23_Node000014_Node000019"><a xlink:title=" ">
<path fill="none" stroke="#63b8ff" d="M963.37,-161.55C990.64,-151.87 1027.39,-138.82 1051.68,-130.2"/>
<polygon fill="#63b8ff" stroke="#63b8ff" points="962.37,-158.19 954.12,-164.84 964.72,-164.79 962.37,-158.19"/>
</a>
</g>
</g>
<!-- Node17 -->
<g id="Node000017" class="node">
<title>Node17</title>
<g id="a_Node000017"><a xlink:href="_server_game_8cpp.html" target="_top" xlink:title=" ">
<polygon fill="white" stroke="#666666" points="1664.25,-19.25 1528.25,-19.25 1528.25,0 1664.25,0 1664.25,-19.25"/>
<text text-anchor="middle" x="1596.25" y="-5.75" font-family="Helvetica,sans-Serif" font-size="10.00">src/server/ServerGame.cpp</text>
</a>
</g>
</g>
<!-- Node16&#45;&gt;Node17 -->
<g id="edge21_Node000016_Node000017" class="edge">
<title>Node16&#45;&gt;Node17</title>
<g id="a_edge21_Node000016_Node000017"><a xlink:title=" ">
<path fill="none" stroke="#63b8ff" d="M1492.15,-50.79C1517.17,-41.14 1550.58,-28.25 1572.73,-19.7"/>
<polygon fill="#63b8ff" stroke="#63b8ff" points="1491.14,-47.43 1483.07,-54.3 1493.66,-53.96 1491.14,-47.43"/>
</a>
</g>
</g>
<!-- Node18 -->
<g id="Node000018" class="node">
<title>Node18</title>
<g id="a_Node000018"><a xlink:href="server_2main_8cpp.html" target="_top" xlink:title=" ">
<polygon fill="white" stroke="#666666" points="1510.38,-19.25 1408.12,-19.25 1408.12,0 1510.38,0 1510.38,-19.25"/>
<text text-anchor="middle" x="1459.25" y="-5.75" font-family="Helvetica,sans-Serif" font-size="10.00">src/server/main.cpp</text>
</a>
</g>
</g>
<!-- Node16&#45;&gt;Node18 -->
<g id="edge22_Node000016_Node000018" class="edge">
<title>Node16&#45;&gt;Node18</title>
<g id="a_edge22_Node000016_Node000018"><a xlink:title=" ">
<path fill="none" stroke="#63b8ff" d="M1458.63,-43.63C1458.79,-35.34 1458.96,-26.17 1459.08,-19.61"/>
<polygon fill="#63b8ff" stroke="#63b8ff" points="1455.13,-43.5 1458.44,-53.57 1462.13,-43.64 1455.13,-43.5"/>
</a>
</g>
</g>
<!-- Node19&#45;&gt;Node3 -->
<g id="edge24_Node000019_Node000003" class="edge">
<title>Node19&#45;&gt;Node3</title>
<g id="a_edge24_Node000019_Node000003"><a xlink:title=" ">
<path fill="none" stroke="#63b8ff" d="M1012.52,-108.15C953.23,-98.09 866.72,-83.42 812.77,-74.27"/>
<polygon fill="#63b8ff" stroke="#63b8ff" points="1011.69,-111.56 1022.14,-109.78 1012.86,-104.66 1011.69,-111.56"/>
</a>
</g>
</g>
<!-- Node19&#45;&gt;Node5 -->
<g id="edge25_Node000019_Node000005" class="edge">
<title>Node19&#45;&gt;Node5</title>
<g id="a_edge25_Node000019_Node000005"><a xlink:title=" ">
<path fill="none" stroke="#63b8ff" d="M992.55,-109.62C887.06,-97.68 718.93,-78.29 705.25,-74.5 685.07,-68.91 682.48,-60.65 662.25,-55.25 508.17,-14.14 463.71,-37.14 305.25,-19.25 302.25,-18.91 299.18,-18.56 296.08,-18.19"/>
<polygon fill="#63b8ff" stroke="#63b8ff" points="991.99,-113.07 1002.32,-110.72 992.78,-106.12 991.99,-113.07"/>
</a>
</g>
</g>
<!-- Node19&#45;&gt;Node7 -->
<g id="edge26_Node000019_Node000007" class="edge">
<title>Node19&#45;&gt;Node7</title>
<g id="a_edge26_Node000019_Node000007"><a xlink:title=" ">
<path fill="none" stroke="#63b8ff" d="M1079.06,-99.13C1081.21,-85.46 1085.92,-67.63 1096.25,-55.25 1110.74,-37.89 1133.68,-26.57 1152.51,-19.67"/>
<polygon fill="#63b8ff" stroke="#63b8ff" points="1075.62,-98.4 1077.9,-108.75 1082.57,-99.24 1075.62,-98.4"/>
</a>
</g>
</g>
<!-- Node19&#45;&gt;Node10 -->
<g id="edge27_Node000019_Node000010" class="edge">
<title>Node19&#45;&gt;Node10</title>
<g id="a_edge27_Node000019_Node000010"><a xlink:title=" ">
<path fill="none" stroke="#63b8ff" d="M1069.22,-99.76C1059.41,-76.12 1043.24,-37.13 1035.98,-19.63"/>
<polygon fill="#63b8ff" stroke="#63b8ff" points="1065.92,-100.95 1072.99,-108.85 1072.39,-98.27 1065.92,-100.95"/>
</a>
</g>
</g>
<!-- Node19&#45;&gt;Node11 -->
<g id="edge28_Node000019_Node000011" class="edge">
<title>Node19&#45;&gt;Node11</title>
<g id="a_edge28_Node000019_Node000011"><a xlink:title=" ">
<path fill="none" stroke="#63b8ff" d="M992.65,-110.2C871.43,-97.39 662.33,-75.26 658.25,-74.5 625.68,-68.45 618.88,-60.97 586.25,-55.25 402.59,-23.05 353.94,-36.24 168.25,-19.25 165.16,-18.97 162.01,-18.68 158.82,-18.38"/>
<polygon fill="#63b8ff" stroke="#63b8ff" points="991.92,-113.64 1002.23,-111.21 992.65,-106.68 991.92,-113.64"/>
</a>
</g>
</g>
<!-- Node19&#45;&gt;Node12 -->
<g id="edge29_Node000019_Node000012" class="edge">
<title>Node19&#45;&gt;Node12</title>
<g id="a_edge29_Node000019_Node000012"><a xlink:title=" ">
<path fill="none" stroke="#63b8ff" d="M1162.15,-108.23C1194.31,-101.64 1230.35,-91.15 1260.25,-74.5 1285.69,-60.34 1308.14,-33.54 1318.75,-19.58"/>
<polygon fill="#63b8ff" stroke="#63b8ff" points="1161.58,-104.77 1152.43,-110.11 1162.92,-111.65 1161.58,-104.77"/>
</a>
</g>
</g>
<!-- Node19&#45;&gt;Node16 -->
<g id="edge30_Node000019_Node000016" class="edge">
<title>Node19&#45;&gt;Node16</title>
<g id="a_edge30_Node000019_Node000016"><a xlink:title=" ">
<path fill="none" stroke="#63b8ff" d="M1153.29,-108.5C1223.49,-98.69 1326.64,-84.27 1393.14,-74.98"/>
<polygon fill="#63b8ff" stroke="#63b8ff" points="1153.23,-104.97 1143.81,-109.82 1154.2,-111.9 1153.23,-104.97"/>
</a>
</g>
</g>
<!-- Node19&#45;&gt;Node18 -->
<g id="edge32_Node000019_Node000018" class="edge">
<title>Node19&#45;&gt;Node18</title>
<g id="a_edge32_Node000019_Node000018"><a xlink:title=" ">
<path fill="none" stroke="#63b8ff" d="M1141.58,-107.98C1183.46,-100.11 1239.05,-88.49 1287.25,-74.5 1342.62,-58.43 1405.68,-33.15 1437.87,-19.72"/>
<polygon fill="#63b8ff" stroke="#63b8ff" points="1141.11,-104.51 1131.91,-109.77 1142.38,-111.39 1141.11,-104.51"/>
</a>
</g>
</g>
<!-- Node20 -->
<g id="Node000020" class="node">
<title>Node20</title>
<g id="a_Node000020"><a xlink:href="_server_network_8cpp.html" target="_top" xlink:title=" ">
<polygon fill="white" stroke="#666666" points="1251.5,-74.5 1105,-74.5 1105,-55.25 1251.5,-55.25 1251.5,-74.5"/>
<text text-anchor="middle" x="1178.25" y="-61" font-family="Helvetica,sans-Serif" font-size="10.00">src/server/ServerNetwork.cpp</text>
</a>
</g>
</g>
<!-- Node19&#45;&gt;Node20 -->
<g id="edge31_Node000019_Node000020" class="edge">
<title>Node19&#45;&gt;Node20</title>
<g id="a_edge31_Node000019_Node000020"><a xlink:title=" ">
<path fill="none" stroke="#63b8ff" d="M1104.56,-104.73C1122.55,-95.24 1145.55,-83.11 1161.03,-74.95"/>
<polygon fill="#63b8ff" stroke="#63b8ff" points="1102.94,-101.63 1095.72,-109.39 1106.2,-107.82 1102.94,-101.63"/>
</a>
</g>
</g>
</g>
</svg>

<g id="navigator" transform="translate(0 0)" fill="#404254">
  <rect fill="#f2f5e9" fill-opacity="0.5" stroke="#606060" stroke-width=".5" x="0" y="0" width="60" height="60"/>
  <use id="zoomplus" xlink:href="#zoomPlus" x="17" y="9" onmousedown="handleZoom(evt,'in')"/>
  <use id="zoomminus" xlink:href="#zoomMin" x="42" y="9" onmousedown="handleZoom(evt,'out')"/>
  <use id="reset" xlink:href="#resetDef" x="30" y="36" onmousedown="handleReset()"/>
   <use id="arrowup" xlink:href="#arrowUp" x="0" y="0" onmousedown="handlePan(0,-1)"/>
  <use id="arrowright" xlink:href="#arrowRight" x="0" y="0" onmousedown="handlePan(1,0)"/>
  <use id="arrowdown" xlink:href="#arrowDown" x="0" y="0" onmousedown="handlePan(0,1)"/>
  <use id="arrowleft" xlink:href="#arrowLeft" x="0" y="0" onmousedown="handlePan(-1,0)"/>
</g>
<svg viewBox="0 0 15 15" width="100%" height="30px" preserveAspectRatio="xMaxYMin meet">
 <g id="arrow_out" transform="scale(0.3 0.3)">
  <a xlink:href="_systems_8hpp__dep__incl_org.svg" target="_base">
   <rect id="button" ry="5" rx="5" y="6" x="6" height="38" width="38"
        fill="#f2f5e9" fill-opacity="0.5" stroke="#606060" stroke-width="1.0"/>
   <path id="arrow"
     d="M 11.500037,31.436501 C 11.940474,20.09759 22.043105,11.32322 32.158766,21.979434 L 37.068811,17.246167 C 37.068811,17.246167 37.088388,32 37.088388,32 L 22.160133,31.978069 C 22.160133,31.978069 26.997745,27.140456 26.997745,27.140456 C 18.528582,18.264221 13.291696,25.230495 11.500037,31.436501 z"
     style="fill:#404040;"/>
  </a>
 </g>
</svg>

<style type='text/css'>
<![CDATA[
[data-mouse-over-selected='false'] { opacity: 0.7; }
[data-mouse-over-selected='true']  { opacity: 1.0; }
]]>
</style>
<script type="application/ecmascript"><![CDATA[
document.addEventListener('DOMContentLoaded', (event) => {
  highlightEdges();
  highlightAdjacentNodes();
});
]]></script>
</svg>
