<?xml version="1.0" encoding="UTF-8" standalone="no"?>
<!DOCTYPE svg PUBLIC "-//W3C//DTD SVG 1.1//EN"
 "http://www.w3.org/Graphics/SVG/1.1/DTD/svg11.dtd">
<!-- Generated by graphviz version 12.2.1 (20241206.2353)
 -->
<!-- Title: src/client/UDPNetworkClient.hpp Pages: 1 -->
<svg width="787pt" height="138pt"
 viewBox="0.00 0.00 787.25 137.75" xmlns="http://www.w3.org/2000/svg" xmlns:xlink="http://www.w3.org/1999/xlink">
<g id="graph0" class="graph" transform="scale(1 1) rotate(0) translate(4 133.75)">
<title>src/client/UDPNetworkClient.hpp</title>
<!-- Node1 -->
<g id="Node000001" class="node">
<title>Node1</title>
<g id="a_Node000001"><a xlink:title=" ">
<polygon fill="#999999" stroke="#666666" points="391.62,-129.75 230.12,-129.75 230.12,-110.5 391.62,-110.5 391.62,-129.75"/>
<text text-anchor="middle" x="310.88" y="-116.25" font-family="Helvetica,sans-Serif" font-size="10.00">src/client/UDPNetworkClient.hpp</text>
</a>
</g>
</g>
<!-- Node2 -->
<g id="Node000002" class="node">
<title>Node2</title>
<g id="a_Node000002"><a xlink:title=" ">
<polygon fill="#e0e0e0" stroke="#999999" points="79.75,-74.5 0,-74.5 0,-55.25 79.75,-55.25 79.75,-74.5"/>
<text text-anchor="middle" x="39.88" y="-61" font-family="Helvetica,sans-Serif" font-size="10.00">boost/asio.hpp</text>
</a>
</g>
</g>
<!-- Node1&#45;&gt;Node2 -->
<g id="edge1_Node000001_Node000002" class="edge">
<title>Node1&#45;&gt;Node2</title>
<g id="a_edge1_Node000001_Node000002"><a xlink:title=" ">
<path fill="none" stroke="#63b8ff" d="M264.6,-110.03C216.49,-100.58 141.38,-85.82 91.41,-76"/>
<polygon fill="#63b8ff" stroke="#63b8ff" points="92.19,-72.59 81.7,-74.09 90.84,-79.46 92.19,-72.59"/>
</a>
</g>
</g>
<!-- Node3 -->
<g id="Node000003" class="node">
<title>Node3</title>
<g id="a_Node000003"><a xlink:title=" ">
<polygon fill="#e0e0e0" stroke="#999999" points="149.5,-74.5 98.25,-74.5 98.25,-55.25 149.5,-55.25 149.5,-74.5"/>
<text text-anchor="middle" x="123.88" y="-61" font-family="Helvetica,sans-Serif" font-size="10.00">memory</text>
</a>
</g>
</g>
<!-- Node1&#45;&gt;Node3 -->
<g id="edge2_Node000001_Node000003" class="edge">
<title>Node1&#45;&gt;Node3</title>
<g id="a_edge2_Node000001_Node000003"><a xlink:title=" ">
<path fill="none" stroke="#63b8ff" d="M279.15,-110.09C246.39,-100.76 195.3,-86.21 160.75,-76.38"/>
<polygon fill="#63b8ff" stroke="#63b8ff" points="161.75,-73.02 151.18,-73.65 159.83,-79.75 161.75,-73.02"/>
</a>
</g>
</g>
<!-- Node4 -->
<g id="Node000004" class="node">
<title>Node4</title>
<g id="a_Node000004"><a xlink:title=" ">
<polygon fill="#e0e0e0" stroke="#999999" points="210.38,-74.5 167.38,-74.5 167.38,-55.25 210.38,-55.25 210.38,-74.5"/>
<text text-anchor="middle" x="188.88" y="-61" font-family="Helvetica,sans-Serif" font-size="10.00">thread</text>
</a>
</g>
</g>
<!-- Node1&#45;&gt;Node4 -->
<g id="edge3_Node000001_Node000004" class="edge">
<title>Node1&#45;&gt;Node4</title>
<g id="a_edge3_Node000001_Node000004"><a xlink:title=" ">
<path fill="none" stroke="#63b8ff" d="M290.18,-110.09C270.99,-101.72 242.16,-89.13 220.16,-79.53"/>
<polygon fill="#63b8ff" stroke="#63b8ff" points="221.62,-76.35 211.06,-75.56 218.82,-82.77 221.62,-76.35"/>
</a>
</g>
</g>
<!-- Node5 -->
<g id="Node000005" class="node">
<title>Node5</title>
<g id="a_Node000005"><a xlink:title=" ">
<polygon fill="#e0e0e0" stroke="#999999" points="271.38,-74.5 228.38,-74.5 228.38,-55.25 271.38,-55.25 271.38,-74.5"/>
<text text-anchor="middle" x="249.88" y="-61" font-family="Helvetica,sans-Serif" font-size="10.00">mutex</text>
</a>
</g>
</g>
<!-- Node1&#45;&gt;Node5 -->
<g id="edge4_Node000001_Node000005" class="edge">
<title>Node1&#45;&gt;Node5</title>
<g id="a_edge4_Node000001_Node000005"><a xlink:title=" ">
<path fill="none" stroke="#63b8ff" d="M300.53,-110.09C291.8,-102.47 279.09,-91.37 268.58,-82.2"/>
<polygon fill="#63b8ff" stroke="#63b8ff" points="271.05,-79.71 261.21,-75.77 266.44,-84.98 271.05,-79.71"/>
</a>
</g>
</g>
<!-- Node6 -->
<g id="Node000006" class="node">
<title>Node6</title>
<g id="a_Node000006"><a xlink:title=" ">
<polygon fill="#e0e0e0" stroke="#999999" points="332,-74.5 289.75,-74.5 289.75,-55.25 332,-55.25 332,-74.5"/>
<text text-anchor="middle" x="310.88" y="-61" font-family="Helvetica,sans-Serif" font-size="10.00">queue</text>
</a>
</g>
</g>
<!-- Node1&#45;&gt;Node6 -->
<g id="edge5_Node000001_Node000006" class="edge">
<title>Node1&#45;&gt;Node6</title>
<g id="a_edge5_Node000001_Node000006"><a xlink:title=" ">
<path fill="none" stroke="#63b8ff" d="M310.88,-110.33C310.88,-103.82 310.88,-94.67 310.88,-86.37"/>
<polygon fill="#63b8ff" stroke="#63b8ff" points="314.38,-86.37 310.88,-76.37 307.38,-86.37 314.38,-86.37"/>
</a>
</g>
</g>
<!-- Node7 -->
<g id="Node000007" class="node">
<title>Node7</title>
<g id="a_Node000007"><a xlink:title=" ">
<polygon fill="#e0e0e0" stroke="#999999" points="395.5,-74.5 350.25,-74.5 350.25,-55.25 395.5,-55.25 395.5,-74.5"/>
<text text-anchor="middle" x="372.88" y="-61" font-family="Helvetica,sans-Serif" font-size="10.00">atomic</text>
</a>
</g>
</g>
<!-- Node1&#45;&gt;Node7 -->
<g id="edge6_Node000001_Node000007" class="edge">
<title>Node1&#45;&gt;Node7</title>
<g id="a_edge6_Node000001_Node000007"><a xlink:title=" ">
<path fill="none" stroke="#63b8ff" d="M321.39,-110.09C330.26,-102.47 343.19,-91.37 353.86,-82.2"/>
<polygon fill="#63b8ff" stroke="#63b8ff" points="356.06,-84.93 361.36,-75.76 351.5,-79.62 356.06,-84.93"/>
</a>
</g>
</g>
<!-- Node8 -->
<g id="Node000008" class="node">
<title>Node8</title>
<g id="a_Node000008"><a xlink:title=" ">
<polygon fill="#e0e0e0" stroke="#999999" points="471.88,-74.5 413.88,-74.5 413.88,-55.25 471.88,-55.25 471.88,-74.5"/>
<text text-anchor="middle" x="442.88" y="-61" font-family="Helvetica,sans-Serif" font-size="10.00">functional</text>
</a>
</g>
</g>
<!-- Node1&#45;&gt;Node8 -->
<g id="edge7_Node000001_Node000008" class="edge">
<title>Node1&#45;&gt;Node8</title>
<g id="a_edge7_Node000001_Node000008"><a xlink:title=" ">
<path fill="none" stroke="#63b8ff" d="M333.27,-110.09C354.32,-101.6 386.08,-88.79 410,-79.14"/>
<polygon fill="#63b8ff" stroke="#63b8ff" points="411.01,-82.51 418.97,-75.52 408.39,-76.01 411.01,-82.51"/>
</a>
</g>
</g>
<!-- Node9 -->
<g id="Node000009" class="node">
<title>Node9</title>
<g id="a_Node000009"><a xlink:title=" ">
<polygon fill="#e0e0e0" stroke="#999999" points="539.75,-74.5 490,-74.5 490,-55.25 539.75,-55.25 539.75,-74.5"/>
<text text-anchor="middle" x="514.88" y="-61" font-family="Helvetica,sans-Serif" font-size="10.00">optional</text>
</a>
</g>
</g>
<!-- Node1&#45;&gt;Node9 -->
<g id="edge8_Node000001_Node000009" class="edge">
<title>Node1&#45;&gt;Node9</title>
<g id="a_edge8_Node000001_Node000009"><a xlink:title=" ">
<path fill="none" stroke="#63b8ff" d="M345.48,-110.09C382.57,-100.41 441.17,-85.11 478.81,-75.29"/>
<polygon fill="#63b8ff" stroke="#63b8ff" points="479.51,-78.72 488.31,-72.81 477.75,-71.95 479.51,-78.72"/>
</a>
</g>
</g>
<!-- Node10 -->
<g id="Node000010" class="node">
<title>Node10</title>
<g id="a_Node000010"><a xlink:href="_utils_8hpp.html" target="_top" xlink:title=" ">
<polygon fill="white" stroke="#666666" points="612.38,-74.5 557.38,-74.5 557.38,-55.25 612.38,-55.25 612.38,-74.5"/>
<text text-anchor="middle" x="584.88" y="-61" font-family="Helvetica,sans-Serif" font-size="10.00">Utils.hpp</text>
</a>
</g>
</g>
<!-- Node1&#45;&gt;Node10 -->
<g id="edge9_Node000001_Node000010" class="edge">
<title>Node1&#45;&gt;Node10</title>
<g id="a_edge9_Node000001_Node000010"><a xlink:title=" ">
<path fill="none" stroke="#63b8ff" d="M363.49,-110.04C409.36,-101.94 477.95,-89.41 546.07,-75.02"/>
<polygon fill="#63b8ff" stroke="#63b8ff" points="546.46,-78.52 555.52,-73.01 545.01,-71.67 546.46,-78.52"/>
</a>
</g>
</g>
<!-- Node11 -->
<g id="Node000011" class="node">
<title>Node11</title>
<g id="a_Node000011"><a xlink:title=" ">
<polygon fill="#e0e0e0" stroke="#999999" points="424.38,-19.25 321.38,-19.25 321.38,0 424.38,0 424.38,-19.25"/>
<text text-anchor="middle" x="372.88" y="-5.75" font-family="Helvetica,sans-Serif" font-size="10.00">SFML/Graphics.hpp</text>
</a>
</g>
</g>
<!-- Node10&#45;&gt;Node11 -->
<g id="edge10_Node000010_Node000011" class="edge">
<title>Node10&#45;&gt;Node11</title>
<g id="a_edge10_Node000010_Node000011"><a xlink:title=" ">
<path fill="none" stroke="#63b8ff" d="M557.16,-56.91C522.41,-48.19 462.3,-33.09 420.21,-22.51"/>
<polygon fill="#63b8ff" stroke="#63b8ff" points="421.14,-19.14 410.58,-20.1 419.43,-25.93 421.14,-19.14"/>
</a>
</g>
</g>
<!-- Node12 -->
<g id="Node000012" class="node">
<title>Node12</title>
<g id="a_Node000012"><a xlink:title=" ">
<polygon fill="#e0e0e0" stroke="#999999" points="539.75,-19.25 442,-19.25 442,0 539.75,0 539.75,-19.25"/>
<text text-anchor="middle" x="490.88" y="-5.75" font-family="Helvetica,sans-Serif" font-size="10.00">SFML/Window.hpp</text>
</a>
</g>
</g>
<!-- Node10&#45;&gt;Node12 -->
<g id="edge11_Node000010_Node000012" class="edge">
<title>Node10&#45;&gt;Node12</title>
<g id="a_edge11_Node000010_Node000012"><a xlink:title=" ">
<path fill="none" stroke="#63b8ff" d="M568.93,-54.84C554.61,-46.73 533.34,-34.68 516.62,-25.21"/>
<polygon fill="#63b8ff" stroke="#63b8ff" points="518.64,-22.33 508.22,-20.45 515.19,-28.42 518.64,-22.33"/>
</a>
</g>
</g>
<!-- Node13 -->
<g id="Node000013" class="node">
<title>Node13</title>
<g id="a_Node000013"><a xlink:title=" ">
<polygon fill="#e0e0e0" stroke="#999999" points="611.62,-19.25 558.12,-19.25 558.12,0 611.62,0 611.62,-19.25"/>
<text text-anchor="middle" x="584.88" y="-5.75" font-family="Helvetica,sans-Serif" font-size="10.00">iostream</text>
</a>
</g>
</g>
<!-- Node10&#45;&gt;Node13 -->
<g id="edge12_Node000010_Node000013" class="edge">
<title>Node10&#45;&gt;Node13</title>
<g id="a_edge12_Node000010_Node000013"><a xlink:title=" ">
<path fill="none" stroke="#63b8ff" d="M584.88,-55.08C584.88,-48.57 584.88,-39.42 584.88,-31.12"/>
<polygon fill="#63b8ff" stroke="#63b8ff" points="588.38,-31.12 584.88,-21.12 581.38,-31.12 588.38,-31.12"/>
</a>
</g>
</g>
<!-- Node14 -->
<g id="Node000014" class="node">
<title>Node14</title>
<g id="a_Node000014"><a xlink:title=" ">
<polygon fill="#e0e0e0" stroke="#999999" points="678.38,-19.25 629.38,-19.25 629.38,0 678.38,0 678.38,-19.25"/>
<text text-anchor="middle" x="653.88" y="-5.75" font-family="Helvetica,sans-Serif" font-size="10.00">fstream</text>
</a>
</g>
</g>
<!-- Node10&#45;&gt;Node14 -->
<g id="edge13_Node000010_Node000014" class="edge">
<title>Node10&#45;&gt;Node14</title>
<g id="a_edge13_Node000010_Node000014"><a xlink:title=" ">
<path fill="none" stroke="#63b8ff" d="M596.58,-54.84C606.65,-47.07 621.42,-35.67 633.44,-26.4"/>
<polygon fill="#63b8ff" stroke="#63b8ff" points="635.37,-29.33 641.14,-20.45 631.09,-23.79 635.37,-29.33"/>
</a>
</g>
</g>
<!-- Node15 -->
<g id="Node000015" class="node">
<title>Node15</title>
<g id="a_Node000015"><a xlink:title=" ">
<polygon fill="#e0e0e0" stroke="#999999" points="779.25,-19.25 696.5,-19.25 696.5,0 779.25,0 779.25,-19.25"/>
<text text-anchor="middle" x="737.88" y="-5.75" font-family="Helvetica,sans-Serif" font-size="10.00">unordered_map</text>
</a>
</g>
</g>
<!-- Node10&#45;&gt;Node15 -->
<g id="edge14_Node000010_Node000015" class="edge">
<title>Node10&#45;&gt;Node15</title>
<g id="a_edge14_Node000010_Node000015"><a xlink:title=" ">
<path fill="none" stroke="#63b8ff" d="M610.83,-54.84C635.67,-46.2 673.37,-33.07 701.26,-23.37"/>
<polygon fill="#63b8ff" stroke="#63b8ff" points="702.07,-26.79 710.36,-20.2 699.77,-20.18 702.07,-26.79"/>
</a>
</g>
</g>
</g>
</svg>
