<?xml version="1.0" encoding="UTF-8" standalone="no"?>
<!DOCTYPE svg PUBLIC "-//W3C//DTD SVG 1.1//EN"
 "http://www.w3.org/Graphics/SVG/1.1/DTD/svg11.dtd">
<!-- Generated by graphviz version 12.2.1 (20241206.2353)
 -->
<!-- Title: src/client/Utils.hpp Pages: 1 -->
<svg width="1397pt" height="193pt"
 viewBox="0.00 0.00 1396.50 193.00" xmlns="http://www.w3.org/2000/svg" xmlns:xlink="http://www.w3.org/1999/xlink">
<g id="graph0" class="graph" transform="scale(1 1) rotate(0) translate(4 189)">
<title>src/client/Utils.hpp</title>
<!-- Node1 -->
<g id="Node000001" class="node">
<title>Node1</title>
<g id="a_Node000001"><a xlink:title=" ">
<polygon fill="#999999" stroke="#666666" points="571.12,-185 473.38,-185 473.38,-165.75 571.12,-165.75 571.12,-185"/>
<text text-anchor="middle" x="522.25" y="-171.5" font-family="Helvetica,sans-Serif" font-size="10.00">src/client/Utils.hpp</text>
</a>
</g>
</g>
<!-- Node2 -->
<g id="Node000002" class="node">
<title>Node2</title>
<g id="a_Node000002"><a xlink:href="_core_8cpp.html" target="_top" xlink:title=" ">
<polygon fill="white" stroke="#666666" points="98.5,-19.25 0,-19.25 0,0 98.5,0 98.5,-19.25"/>
<text text-anchor="middle" x="49.25" y="-5.75" font-family="Helvetica,sans-Serif" font-size="10.00">src/client/Core.cpp</text>
</a>
</g>
</g>
<!-- Node1&#45;&gt;Node2 -->
<g id="edge1_Node000001_Node000002" class="edge">
<title>Node1&#45;&gt;Node2</title>
<g id="a_edge1_Node000001_Node000002"><a xlink:title=" ">
<path fill="none" stroke="#63b8ff" d="M483.34,-161.74C456.33,-152.91 419.55,-140.78 387.25,-129.75 269.78,-89.64 130.13,-39.7 74.21,-19.61"/>
<polygon fill="#63b8ff" stroke="#63b8ff" points="482.24,-165.06 492.83,-164.83 484.41,-158.41 482.24,-165.06"/>
</a>
</g>
</g>
<!-- Node3 -->
<g id="Node000003" class="node">
<title>Node3</title>
<g id="a_Node000003"><a xlink:href="_sprite_8hpp.html" target="_top" xlink:title=" ">
<polygon fill="white" stroke="#666666" points="498.75,-129.75 395.75,-129.75 395.75,-110.5 498.75,-110.5 498.75,-129.75"/>
<text text-anchor="middle" x="447.25" y="-116.25" font-family="Helvetica,sans-Serif" font-size="10.00">src/client/Sprite.hpp</text>
</a>
</g>
</g>
<!-- Node1&#45;&gt;Node3 -->
<g id="edge2_Node000001_Node000003" class="edge">
<title>Node1&#45;&gt;Node3</title>
<g id="a_edge2_Node000001_Node000003"><a xlink:title=" ">
<path fill="none" stroke="#63b8ff" d="M500.26,-158.76C487.18,-149.47 471.04,-138.02 460.04,-130.2"/>
<polygon fill="#63b8ff" stroke="#63b8ff" points="498.11,-161.53 508.29,-164.47 502.17,-155.82 498.11,-161.53"/>
</a>
</g>
</g>
<!-- Node15 -->
<g id="Node000015" class="node">
<title>Node15</title>
<g id="a_Node000015"><a xlink:href="_u_d_p_network_client_8hpp.html" target="_top" xlink:title=" ">
<polygon fill="white" stroke="#666666" points="678,-129.75 516.5,-129.75 516.5,-110.5 678,-110.5 678,-129.75"/>
<text text-anchor="middle" x="597.25" y="-116.25" font-family="Helvetica,sans-Serif" font-size="10.00">src/client/UDPNetworkClient.hpp</text>
</a>
</g>
</g>
<!-- Node1&#45;&gt;Node15 -->
<g id="edge15_Node000001_Node000015" class="edge">
<title>Node1&#45;&gt;Node15</title>
<g id="a_edge15_Node000001_Node000015"><a xlink:title=" ">
<path fill="none" stroke="#63b8ff" d="M544.24,-158.76C557.32,-149.47 573.46,-138.02 584.46,-130.2"/>
<polygon fill="#63b8ff" stroke="#63b8ff" points="542.33,-155.82 536.21,-164.47 546.39,-161.53 542.33,-155.82"/>
</a>
</g>
</g>
<!-- Node17 -->
<g id="Node000017" class="node">
<title>Node17</title>
<g id="a_Node000017"><a xlink:href="_utils_8cpp.html" target="_top" xlink:title=" ">
<polygon fill="white" stroke="#666666" points="794.12,-129.75 696.38,-129.75 696.38,-110.5 794.12,-110.5 794.12,-129.75"/>
<text text-anchor="middle" x="745.25" y="-116.25" font-family="Helvetica,sans-Serif" font-size="10.00">src/client/Utils.cpp</text>
</a>
</g>
</g>
<!-- Node1&#45;&gt;Node17 -->
<g id="edge18_Node000001_Node000017" class="edge">
<title>Node1&#45;&gt;Node17</title>
<g id="a_edge18_Node000001_Node000017"><a xlink:title=" ">
<path fill="none" stroke="#63b8ff" d="M571.41,-162.64C612.37,-152.86 669.86,-139.13 707.33,-130.18"/>
<polygon fill="#63b8ff" stroke="#63b8ff" points="570.72,-159.2 561.8,-164.93 572.34,-166.01 570.72,-159.2"/>
</a>
</g>
</g>
<!-- Node4 -->
<g id="Node000004" class="node">
<title>Node4</title>
<g id="a_Node000004"><a xlink:href="_core_8hpp.html" target="_top" xlink:title=" ">
<polygon fill="white" stroke="#666666" points="630.5,-74.5 532,-74.5 532,-55.25 630.5,-55.25 630.5,-74.5"/>
<text text-anchor="middle" x="581.25" y="-61" font-family="Helvetica,sans-Serif" font-size="10.00">src/client/Core.hpp</text>
</a>
</g>
</g>
<!-- Node3&#45;&gt;Node4 -->
<g id="edge3_Node000003_Node000004" class="edge">
<title>Node3&#45;&gt;Node4</title>
<g id="a_edge3_Node000003_Node000004"><a xlink:title=" ">
<path fill="none" stroke="#63b8ff" d="M480.5,-105.91C504.75,-96.27 537,-83.46 558.41,-74.95"/>
<polygon fill="#63b8ff" stroke="#63b8ff" points="479.39,-102.59 471.39,-109.53 481.97,-109.09 479.39,-102.59"/>
</a>
</g>
</g>
<!-- Node14 -->
<g id="Node000014" class="node">
<title>Node14</title>
<g id="a_Node000014"><a xlink:href="_sprite_8cpp.html" target="_top" xlink:title=" ">
<polygon fill="white" stroke="#666666" points="498.75,-74.5 395.75,-74.5 395.75,-55.25 498.75,-55.25 498.75,-74.5"/>
<text text-anchor="middle" x="447.25" y="-61" font-family="Helvetica,sans-Serif" font-size="10.00">src/client/Sprite.cpp</text>
</a>
</g>
</g>
<!-- Node3&#45;&gt;Node14 -->
<g id="edge14_Node000003_Node000014" class="edge">
<title>Node3&#45;&gt;Node14</title>
<g id="a_edge14_Node000003_Node000014"><a xlink:title=" ">
<path fill="none" stroke="#63b8ff" d="M447.25,-98.88C447.25,-90.59 447.25,-81.42 447.25,-74.86"/>
<polygon fill="#63b8ff" stroke="#63b8ff" points="443.75,-98.82 447.25,-108.82 450.75,-98.82 443.75,-98.82"/>
</a>
</g>
</g>
<!-- Node4&#45;&gt;Node2 -->
<g id="edge4_Node000004_Node000002" class="edge">
<title>Node4&#45;&gt;Node2</title>
<g id="a_edge4_Node000004_Node000002"><a xlink:title=" ">
<path fill="none" stroke="#63b8ff" d="M520.67,-56.59C516.47,-56.12 512.3,-55.67 508.25,-55.25 330.71,-36.78 285.52,-40.17 108.25,-19.25 105.17,-18.89 101.99,-18.49 98.8,-18.07"/>
<polygon fill="#63b8ff" stroke="#63b8ff" points="519.96,-60.03 530.29,-57.67 520.75,-53.07 519.96,-60.03"/>
</a>
</g>
</g>
<!-- Node5 -->
<g id="Node000005" class="node">
<title>Node5</title>
<g id="a_Node000005"><a xlink:href="_gui_game_8cpp.html" target="_top" xlink:title=" ">
<polygon fill="white" stroke="#666666" points="235.62,-19.25 116.88,-19.25 116.88,0 235.62,0 235.62,-19.25"/>
<text text-anchor="middle" x="176.25" y="-5.75" font-family="Helvetica,sans-Serif" font-size="10.00">src/client/GuiGame.cpp</text>
</a>
</g>
</g>
<!-- Node4&#45;&gt;Node5 -->
<g id="edge5_Node000004_Node000005" class="edge">
<title>Node4&#45;&gt;Node5</title>
<g id="a_edge5_Node000004_Node000005"><a xlink:title=" ">
<path fill="none" stroke="#63b8ff" d="M520.19,-55.85C443.3,-45.74 312.06,-28.48 235.86,-18.46"/>
<polygon fill="#63b8ff" stroke="#63b8ff" points="519.72,-59.31 530.09,-57.15 520.63,-52.37 519.72,-59.31"/>
</a>
</g>
</g>
<!-- Node6 -->
<g id="Node000006" class="node">
<title>Node6</title>
<g id="a_Node000006"><a xlink:href="_gui_lobby_8cpp.html" target="_top" xlink:title=" ">
<polygon fill="white" stroke="#666666" points="370.88,-19.25 253.62,-19.25 253.62,0 370.88,0 370.88,-19.25"/>
<text text-anchor="middle" x="312.25" y="-5.75" font-family="Helvetica,sans-Serif" font-size="10.00">src/client/GuiLobby.cpp</text>
</a>
</g>
</g>
<!-- Node4&#45;&gt;Node6 -->
<g id="edge6_Node000004_Node000006" class="edge">
<title>Node4&#45;&gt;Node6</title>
<g id="a_edge6_Node000004_Node000006"><a xlink:title=" ">
<path fill="none" stroke="#63b8ff" d="M524.15,-52.57C474.62,-42.77 403.87,-28.76 358,-19.68"/>
<polygon fill="#63b8ff" stroke="#63b8ff" points="523.34,-55.98 533.83,-54.49 524.7,-49.11 523.34,-55.98"/>
</a>
</g>
</g>
<!-- Node7 -->
<g id="Node000007" class="node">
<title>Node7</title>
<g id="a_Node000007"><a xlink:href="_gui_login_8cpp.html" target="_top" xlink:title=" ">
<polygon fill="white" stroke="#666666" points="505.12,-19.25 389.38,-19.25 389.38,0 505.12,0 505.12,-19.25"/>
<text text-anchor="middle" x="447.25" y="-5.75" font-family="Helvetica,sans-Serif" font-size="10.00">src/client/GuiLogin.cpp</text>
</a>
</g>
</g>
<!-- Node4&#45;&gt;Node7 -->
<g id="edge7_Node000004_Node000007" class="edge">
<title>Node4&#45;&gt;Node7</title>
<g id="a_edge7_Node000004_Node000007"><a xlink:title=" ">
<path fill="none" stroke="#63b8ff" d="M548,-50.66C523.75,-41.02 491.5,-28.21 470.09,-19.7"/>
<polygon fill="#63b8ff" stroke="#63b8ff" points="546.53,-53.84 557.11,-54.28 549.11,-47.34 546.53,-53.84"/>
</a>
</g>
</g>
<!-- Node8 -->
<g id="Node000008" class="node">
<title>Node8</title>
<g id="a_Node000008"><a xlink:href="_gui_menu_8cpp.html" target="_top" xlink:title=" ">
<polygon fill="white" stroke="#666666" points="639.5,-19.25 523,-19.25 523,0 639.5,0 639.5,-19.25"/>
<text text-anchor="middle" x="581.25" y="-5.75" font-family="Helvetica,sans-Serif" font-size="10.00">src/client/GuiMenu.cpp</text>
</a>
</g>
</g>
<!-- Node4&#45;&gt;Node8 -->
<g id="edge8_Node000004_Node000008" class="edge">
<title>Node4&#45;&gt;Node8</title>
<g id="a_edge8_Node000004_Node000008"><a xlink:title=" ">
<path fill="none" stroke="#63b8ff" d="M581.25,-43.63C581.25,-35.34 581.25,-26.17 581.25,-19.61"/>
<polygon fill="#63b8ff" stroke="#63b8ff" points="577.75,-43.57 581.25,-53.57 584.75,-43.57 577.75,-43.57"/>
</a>
</g>
</g>
<!-- Node9 -->
<g id="Node000009" class="node">
<title>Node9</title>
<g id="a_Node000009"><a xlink:href="_gui_option_8cpp.html" target="_top" xlink:title=" ">
<polygon fill="white" stroke="#666666" points="778.75,-19.25 657.75,-19.25 657.75,0 778.75,0 778.75,-19.25"/>
<text text-anchor="middle" x="718.25" y="-5.75" font-family="Helvetica,sans-Serif" font-size="10.00">src/client/GuiOption.cpp</text>
</a>
</g>
</g>
<!-- Node4&#45;&gt;Node9 -->
<g id="edge9_Node000004_Node000009" class="edge">
<title>Node4&#45;&gt;Node9</title>
<g id="a_edge9_Node000004_Node000009"><a xlink:title=" ">
<path fill="none" stroke="#63b8ff" d="M614.91,-50.79C639.74,-41.14 672.91,-28.25 694.9,-19.7"/>
<polygon fill="#63b8ff" stroke="#63b8ff" points="613.95,-47.41 605.9,-54.29 616.49,-53.93 613.95,-47.41"/>
</a>
</g>
</g>
<!-- Node10 -->
<g id="Node000010" class="node">
<title>Node10</title>
<g id="a_Node000010"><a xlink:href="_handle_animation_8cpp.html" target="_top" xlink:title=" ">
<polygon fill="white" stroke="#666666" points="948.12,-19.25 796.38,-19.25 796.38,0 948.12,0 948.12,-19.25"/>
<text text-anchor="middle" x="872.25" y="-5.75" font-family="Helvetica,sans-Serif" font-size="10.00">src/client/HandleAnimation.cpp</text>
</a>
</g>
</g>
<!-- Node4&#45;&gt;Node10 -->
<g id="edge10_Node000004_Node000010" class="edge">
<title>Node4&#45;&gt;Node10</title>
<g id="a_edge10_Node000004_Node000010"><a xlink:title=" ">
<path fill="none" stroke="#63b8ff" d="M642.01,-52.76C695.63,-42.94 772.82,-28.82 822.76,-19.68"/>
<polygon fill="#63b8ff" stroke="#63b8ff" points="641.64,-49.27 632.43,-54.51 642.9,-56.15 641.64,-49.27"/>
</a>
</g>
</g>
<!-- Node11 -->
<g id="Node000011" class="node">
<title>Node11</title>
<g id="a_Node000011"><a xlink:href="_handle_commands_8cpp.html" target="_top" xlink:title=" ">
<polygon fill="white" stroke="#666666" points="1124.5,-19.25 966,-19.25 966,0 1124.5,0 1124.5,-19.25"/>
<text text-anchor="middle" x="1045.25" y="-5.75" font-family="Helvetica,sans-Serif" font-size="10.00">src/client/HandleCommands.cpp</text>
</a>
</g>
</g>
<!-- Node4&#45;&gt;Node11 -->
<g id="edge11_Node000004_Node000011" class="edge">
<title>Node4&#45;&gt;Node11</title>
<g id="a_edge11_Node000004_Node000011"><a xlink:title=" ">
<path fill="none" stroke="#63b8ff" d="M641.97,-54.94C760.38,-39.78 886.35,-26.49 965.79,-18.45"/>
<polygon fill="#63b8ff" stroke="#63b8ff" points="641.88,-51.42 632.41,-56.17 642.77,-58.36 641.88,-51.42"/>
</a>
</g>
</g>
<!-- Node12 -->
<g id="Node000012" class="node">
<title>Node12</title>
<g id="a_Node000012"><a xlink:href="_handle_input_8cpp.html" target="_top" xlink:title=" ">
<polygon fill="white" stroke="#666666" points="1272.25,-19.25 1142.25,-19.25 1142.25,0 1272.25,0 1272.25,-19.25"/>
<text text-anchor="middle" x="1207.25" y="-5.75" font-family="Helvetica,sans-Serif" font-size="10.00">src/client/HandleInput.cpp</text>
</a>
</g>
</g>
<!-- Node4&#45;&gt;Node12 -->
<g id="edge12_Node000004_Node000012" class="edge">
<title>Node4&#45;&gt;Node12</title>
<g id="a_edge12_Node000004_Node000012"><a xlink:title=" ">
<path fill="none" stroke="#63b8ff" d="M642.07,-55.02C859.96,-31.33 917.73,-39.65 1133.25,-19.25 1136.08,-18.98 1138.98,-18.7 1141.9,-18.4"/>
<polygon fill="#63b8ff" stroke="#63b8ff" points="641.95,-51.51 632.4,-56.08 642.72,-58.47 641.95,-51.51"/>
</a>
</g>
</g>
<!-- Node13 -->
<g id="Node000013" class="node">
<title>Node13</title>
<g id="a_Node000013"><a xlink:href="client_2main_8cpp.html" target="_top" xlink:title=" ">
<polygon fill="white" stroke="#666666" points="1388.5,-19.25 1290,-19.25 1290,0 1388.5,0 1388.5,-19.25"/>
<text text-anchor="middle" x="1339.25" y="-5.75" font-family="Helvetica,sans-Serif" font-size="10.00">src/client/Main.cpp</text>
</a>
</g>
</g>
<!-- Node4&#45;&gt;Node13 -->
<g id="edge13_Node000004_Node000013" class="edge">
<title>Node4&#45;&gt;Node13</title>
<g id="a_edge13_Node000004_Node000013"><a xlink:title=" ">
<path fill="none" stroke="#63b8ff" d="M641.93,-55.07C925.45,-26.75 1000.56,-47.93 1281.25,-19.25 1283.98,-18.97 1286.79,-18.65 1289.61,-18.31"/>
<polygon fill="#63b8ff" stroke="#63b8ff" points="641.99,-51.55 632.39,-56.04 642.69,-58.51 641.99,-51.55"/>
</a>
</g>
</g>
<!-- Node15&#45;&gt;Node4 -->
<g id="edge16_Node000015_Node000004" class="edge">
<title>Node15&#45;&gt;Node4</title>
<g id="a_edge16_Node000015_Node000004"><a xlink:title=" ">
<path fill="none" stroke="#63b8ff" d="M591.34,-99.46C588.81,-91.02 585.97,-81.58 583.95,-74.86"/>
<polygon fill="#63b8ff" stroke="#63b8ff" points="587.94,-100.31 594.17,-108.88 594.65,-98.3 587.94,-100.31"/>
</a>
</g>
</g>
<!-- Node16 -->
<g id="Node000016" class="node">
<title>Node16</title>
<g id="a_Node000016"><a xlink:href="_u_d_p_network_client_8cpp.html" target="_top" xlink:title=" ">
<polygon fill="white" stroke="#666666" points="810,-74.5 648.5,-74.5 648.5,-55.25 810,-55.25 810,-74.5"/>
<text text-anchor="middle" x="729.25" y="-61" font-family="Helvetica,sans-Serif" font-size="10.00">src/client/UDPNetworkClient.cpp</text>
</a>
</g>
</g>
<!-- Node15&#45;&gt;Node16 -->
<g id="edge17_Node000015_Node000016" class="edge">
<title>Node15&#45;&gt;Node16</title>
<g id="a_edge17_Node000015_Node000016"><a xlink:title=" ">
<path fill="none" stroke="#63b8ff" d="M630,-105.91C653.9,-96.27 685.66,-83.46 706.75,-74.95"/>
<polygon fill="#63b8ff" stroke="#63b8ff" points="629.01,-102.54 621.05,-109.53 631.63,-109.03 629.01,-102.54"/>
</a>
</g>
</g>
</g>
</svg>
