<?xml version="1.0" encoding="UTF-8" standalone="no"?>
<!DOCTYPE svg PUBLIC "-//W3C//DTD SVG 1.1//EN"
 "http://www.w3.org/Graphics/SVG/1.1/DTD/svg11.dtd">
<!-- Generated by graphviz version 12.2.1 (20241206.2353)
 -->
<!-- Title: ServerGame::handleDeath Pages: 1 -->
<svg width="846pt" height="124pt"
 viewBox="0.00 0.00 845.50 123.50" xmlns="http://www.w3.org/2000/svg" xmlns:xlink="http://www.w3.org/1999/xlink">
<g id="graph0" class="graph" transform="scale(1 1) rotate(0) translate(4 119.5)">
<title>ServerGame::handleDeath</title>
<!-- Node1 -->
<g id="Node000001" class="node">
<title>Node1</title>
<g id="a_Node000001"><a xlink:title=" ">
<polygon fill="#999999" stroke="#666666" points="837.5,-57.88 706,-57.88 706,-38.62 837.5,-38.62 837.5,-57.88"/>
<text text-anchor="middle" x="771.75" y="-44.38" font-family="Helvetica,sans-Serif" font-size="10.00">ServerGame::handleDeath</text>
</a>
</g>
</g>
<!-- Node2 -->
<g id="Node000002" class="node">
<title>Node2</title>
<g id="a_Node000002"><a xlink:href="class_server_game.html#aa99390eeaadd29af06da639d8a9ef353" target="_top" xlink:title=" ">
<polygon fill="white" stroke="#666666" points="667.75,-83.88 510.75,-83.88 510.75,-64.62 667.75,-64.62 667.75,-83.88"/>
<text text-anchor="middle" x="589.25" y="-70.38" font-family="Helvetica,sans-Serif" font-size="10.00">ServerGame::checkAllCollisions</text>
</a>
</g>
</g>
<!-- Node1&#45;&gt;Node2 -->
<g id="edge1_Node000001_Node000002" class="edge">
<title>Node1&#45;&gt;Node2</title>
<g id="a_edge1_Node000001_Node000002"><a xlink:title=" ">
<path fill="none" stroke="#63b8ff" d="M694.45,-59.24C683.19,-60.86 671.63,-62.53 660.5,-64.13"/>
<polygon fill="#63b8ff" stroke="#63b8ff" points="694.69,-62.74 704.09,-57.85 693.69,-55.81 694.69,-62.74"/>
</a>
</g>
</g>
<!-- Node6 -->
<g id="Node000006" class="node">
<title>Node6</title>
<g id="a_Node000006"><a xlink:href="class_server_game.html#ae364e3e373cb38cf5bfcbc5b5697c61a" target="_top" xlink:title=" ">
<polygon fill="white" stroke="#666666" points="670,-39.88 508.5,-39.88 508.5,-20.62 670,-20.62 670,-39.88"/>
<text text-anchor="middle" x="589.25" y="-26.38" font-family="Helvetica,sans-Serif" font-size="10.00">ServerGame::positionConciliation</text>
</a>
</g>
</g>
<!-- Node1&#45;&gt;Node6 -->
<g id="edge7_Node000001_Node000006" class="edge">
<title>Node1&#45;&gt;Node6</title>
<g id="a_edge7_Node000001_Node000006"><a xlink:title=" ">
<path fill="none" stroke="#63b8ff" d="M694.19,-40.62C686.33,-39.83 678.32,-39.03 670.42,-38.24"/>
<polygon fill="#63b8ff" stroke="#63b8ff" points="693.78,-44.09 704.08,-41.6 694.48,-37.13 693.78,-44.09"/>
</a>
</g>
</g>
<!-- Node2&#45;&gt;Node2 -->
<g id="edge2_Node000002_Node000002" class="edge">
<title>Node2&#45;&gt;Node2</title>
<g id="a_edge2_Node000002_Node000002"><a xlink:title=" ">
<path fill="none" stroke="#63b8ff" d="M622.27,-94.6C618.8,-98.83 607.8,-101.88 589.25,-101.88 557.17,-101.88 547.65,-92.77 560.68,-84.16"/>
<polygon fill="#63b8ff" stroke="#63b8ff" points="625.56,-93.38 618.41,-85.56 619.12,-96.13 625.56,-93.38"/>
</a>
</g>
</g>
<!-- Node3 -->
<g id="Node000003" class="node">
<title>Node3</title>
<g id="a_Node000003"><a xlink:href="class_server_game.html#acd85147947f8c366cccf07b8d6674026" target="_top" xlink:title=" ">
<polygon fill="white" stroke="#666666" points="465.75,-97.5 324.5,-97.5 324.5,-67 465.75,-67 465.75,-97.5"/>
<text text-anchor="start" x="332.5" y="-84" font-family="Helvetica,sans-Serif" font-size="10.00">ServerGame::setup_collision</text>
<text text-anchor="middle" x="395.12" y="-72.75" font-family="Helvetica,sans-Serif" font-size="10.00">_timer</text>
</a>
</g>
</g>
<!-- Node2&#45;&gt;Node3 -->
<g id="edge3_Node000002_Node000003" class="edge">
<title>Node2&#45;&gt;Node3</title>
<g id="a_edge3_Node000002_Node000003"><a xlink:title=" ">
<path fill="none" stroke="#63b8ff" d="M498.95,-77.97C487.91,-78.43 476.75,-78.89 466.06,-79.34"/>
<polygon fill="#63b8ff" stroke="#63b8ff" points="499.02,-81.47 508.87,-77.56 498.73,-74.47 499.02,-81.47"/>
</a>
</g>
</g>
<!-- Node3&#45;&gt;Node3 -->
<g id="edge6_Node000003_Node000003" class="edge">
<title>Node3&#45;&gt;Node3</title>
<g id="a_edge6_Node000003_Node000003"><a xlink:title=" ">
<path fill="none" stroke="#63b8ff" d="M424.16,-109.2C419.41,-112.97 409.73,-115.5 395.12,-115.5 368.41,-115.5 358.19,-107.06 364.45,-97.99"/>
<polygon fill="#63b8ff" stroke="#63b8ff" points="427.6,-109.89 425.58,-99.48 420.67,-108.87 427.6,-109.89"/>
</a>
</g>
</g>
<!-- Node4 -->
<g id="Node000004" class="node">
<title>Node4</title>
<g id="a_Node000004"><a xlink:href="class_server_game.html#a0157100c7f7204cb8d870947d0b81e6f" target="_top" xlink:title=" ">
<polygon fill="white" stroke="#666666" points="281.75,-57.88 162.25,-57.88 162.25,-38.62 281.75,-38.62 281.75,-57.88"/>
<text text-anchor="middle" x="222" y="-44.38" font-family="Helvetica,sans-Serif" font-size="10.00">ServerGame::initTimers</text>
</a>
</g>
</g>
<!-- Node3&#45;&gt;Node4 -->
<g id="edge4_Node000003_Node000004" class="edge">
<title>Node3&#45;&gt;Node4</title>
<g id="a_edge4_Node000003_Node000004"><a xlink:title=" ">
<path fill="none" stroke="#63b8ff" d="M312.91,-66.11C299.61,-63.47 286.17,-60.8 273.87,-58.36"/>
<polygon fill="#63b8ff" stroke="#63b8ff" points="312.05,-69.51 322.54,-68.03 313.42,-62.65 312.05,-69.51"/>
</a>
</g>
</g>
<!-- Node5 -->
<g id="Node000005" class="node">
<title>Node5</title>
<g id="a_Node000005"><a xlink:href="class_server_game.html#a0dcb65cf6ca824c15b425d6e731ac7cb" target="_top" xlink:title=" ">
<polygon fill="white" stroke="#666666" points="126.25,-57.88 0,-57.88 0,-38.62 126.25,-38.62 126.25,-57.88"/>
<text text-anchor="middle" x="63.12" y="-44.38" font-family="Helvetica,sans-Serif" font-size="10.00">ServerGame::handleStart</text>
</a>
</g>
</g>
<!-- Node4&#45;&gt;Node5 -->
<g id="edge5_Node000004_Node000005" class="edge">
<title>Node4&#45;&gt;Node5</title>
<g id="a_edge5_Node000004_Node000005"><a xlink:title=" ">
<path fill="none" stroke="#63b8ff" d="M150.88,-48.25C142.83,-48.25 134.66,-48.25 126.73,-48.25"/>
<polygon fill="#63b8ff" stroke="#63b8ff" points="150.63,-51.75 160.63,-48.25 150.63,-44.75 150.63,-51.75"/>
</a>
</g>
</g>
<!-- Node7 -->
<g id="Node000007" class="node">
<title>Node7</title>
<g id="a_Node000007"><a xlink:href="class_server_game.html#ae04b9882336139be7cc8649e27dba330" target="_top" xlink:title=" ">
<polygon fill="white" stroke="#666666" points="472.5,-30.5 317.75,-30.5 317.75,0 472.5,0 472.5,-30.5"/>
<text text-anchor="start" x="325.75" y="-17" font-family="Helvetica,sans-Serif" font-size="10.00">ServerGame::setup_conciliation</text>
<text text-anchor="middle" x="395.12" y="-5.75" font-family="Helvetica,sans-Serif" font-size="10.00">_timer</text>
</a>
</g>
</g>
<!-- Node6&#45;&gt;Node7 -->
<g id="edge8_Node000006_Node000007" class="edge">
<title>Node6&#45;&gt;Node7</title>
<g id="a_edge8_Node000006_Node000007"><a xlink:title=" ">
<path fill="none" stroke="#63b8ff" d="M496.81,-23.11C488.74,-22.48 480.62,-21.85 472.7,-21.23"/>
<polygon fill="#63b8ff" stroke="#63b8ff" points="496.41,-26.59 506.65,-23.88 496.96,-19.61 496.41,-26.59"/>
</a>
</g>
</g>
<!-- Node7&#45;&gt;Node4 -->
<g id="edge9_Node000007_Node000004" class="edge">
<title>Node7&#45;&gt;Node4</title>
<g id="a_edge9_Node000007_Node000004"><a xlink:title=" ">
<path fill="none" stroke="#63b8ff" d="M306.52,-32.14C295.9,-34.19 285.33,-36.23 275.45,-38.14"/>
<polygon fill="#63b8ff" stroke="#63b8ff" points="306.93,-35.63 316.09,-30.3 305.6,-28.76 306.93,-35.63"/>
</a>
</g>
</g>
<!-- Node7&#45;&gt;Node7 -->
<g id="edge10_Node000007_Node000007" class="edge">
<title>Node7&#45;&gt;Node7</title>
<g id="a_edge10_Node000007_Node000007"><a xlink:title=" ">
<path fill="none" stroke="#63b8ff" d="M424.16,-42.2C419.41,-45.97 409.73,-48.5 395.12,-48.5 368.41,-48.5 358.19,-40.06 364.45,-30.99"/>
<polygon fill="#63b8ff" stroke="#63b8ff" points="427.6,-42.89 425.58,-32.48 420.67,-41.87 427.6,-42.89"/>
</a>
</g>
</g>
</g>
</svg>
