<?xml version="1.0" encoding="UTF-8" standalone="no"?>
<!DOCTYPE svg PUBLIC "-//W3C//DTD SVG 1.1//EN"
 "http://www.w3.org/Graphics/SVG/1.1/DTD/svg11.dtd">
<!-- Generated by graphviz version 12.2.1 (20241206.2353)
 -->
<!-- Title: ServerNetwork::handleStart Pages: 1 -->
<svg width="311pt" height="88pt"
 viewBox="0.00 0.00 310.75 87.50" xmlns="http://www.w3.org/2000/svg" xmlns:xlink="http://www.w3.org/1999/xlink">
<g id="graph0" class="graph" transform="scale(1 1) rotate(0) translate(4 83.5)">
<title>ServerNetwork::handleStart</title>
<!-- Node1 -->
<g id="Node000001" class="node">
<title>Node1</title>
<g id="a_Node000001"><a xlink:title=" ">
<polygon fill="#999999" stroke="#666666" points="136.75,-48.88 0,-48.88 0,-29.62 136.75,-29.62 136.75,-48.88"/>
<text text-anchor="middle" x="68.38" y="-35.38" font-family="Helvetica,sans-Serif" font-size="10.00">ServerNetwork::handleStart</text>
</a>
</g>
</g>
<!-- Node2 -->
<g id="Node000002" class="node">
<title>Node2</title>
<g id="a_Node000002"><a xlink:href="class_server_network.html#a9fd1b21ff45df9e1576a0a50a79bacd7" target="_top" xlink:title=" ">
<polygon fill="white" stroke="#666666" points="302.75,-79.5 172.75,-79.5 172.75,-49 302.75,-49 302.75,-79.5"/>
<text text-anchor="start" x="180.75" y="-66" font-family="Helvetica,sans-Serif" font-size="10.00">ServerNetwork::broadcast</text>
<text text-anchor="middle" x="237.75" y="-54.75" font-family="Helvetica,sans-Serif" font-size="10.00">_message</text>
</a>
</g>
</g>
<!-- Node1&#45;&gt;Node2 -->
<g id="edge1_Node000001_Node000002" class="edge">
<title>Node1&#45;&gt;Node2</title>
<g id="a_edge1_Node000001_Node000002"><a xlink:title=" ">
<path fill="none" stroke="#63b8ff" d="M136.97,-49.35C144.93,-50.53 153.08,-51.75 161.14,-52.96"/>
<polygon fill="#63b8ff" stroke="#63b8ff" points="160.52,-56.4 170.93,-54.42 161.56,-49.48 160.52,-56.4"/>
</a>
</g>
</g>
<!-- Node3 -->
<g id="Node000003" class="node">
<title>Node3</title>
<g id="a_Node000003"><a xlink:href="class_server_network.html#a3cdc99eb8ed134a23329bf2d8f9c74d2" target="_top" xlink:title=" ">
<polygon fill="white" stroke="#666666" points="297.12,-30.5 178.38,-30.5 178.38,0 297.12,0 297.12,-30.5"/>
<text text-anchor="start" x="186.38" y="-17" font-family="Helvetica,sans-Serif" font-size="10.00">ServerNetwork::encode</text>
<text text-anchor="middle" x="237.75" y="-5.75" font-family="Helvetica,sans-Serif" font-size="10.00">_action</text>
</a>
</g>
</g>
<!-- Node1&#45;&gt;Node3 -->
<g id="edge2_Node000001_Node000003" class="edge">
<title>Node1&#45;&gt;Node3</title>
<g id="a_edge2_Node000001_Node000003"><a xlink:title=" ">
<path fill="none" stroke="#63b8ff" d="M136.97,-29.56C146.75,-28.15 156.84,-26.71 166.67,-25.3"/>
<polygon fill="#63b8ff" stroke="#63b8ff" points="167.15,-28.77 176.56,-23.88 166.16,-21.84 167.15,-28.77"/>
</a>
</g>
</g>
</g>
</svg>
