<?xml version="1.0" encoding="UTF-8" standalone="no"?>
<!DOCTYPE svg PUBLIC "-//W3C//DTD SVG 1.1//EN"
 "http://www.w3.org/Graphics/SVG/1.1/DTD/svg11.dtd">
<!-- Generated by graphviz version 12.2.1 (20241206.2353)
 -->
<!-- Title: ServerGame::setup_conciliation_timer Pages: 1 -->
<svg width="530pt" height="78pt"
 viewBox="0.00 0.00 530.00 77.50" xmlns="http://www.w3.org/2000/svg" xmlns:xlink="http://www.w3.org/1999/xlink">
<g id="graph0" class="graph" transform="scale(1 1) rotate(0) translate(4 73.5)">
<title>ServerGame::setup_conciliation_timer</title>
<!-- Node1 -->
<g id="Node000001" class="node">
<title>Node1</title>
<g id="a_Node000001"><a xlink:title=" ">
<polygon fill="#999999" stroke="#666666" points="154.75,-51.5 0,-51.5 0,-21 154.75,-21 154.75,-51.5"/>
<text text-anchor="start" x="8" y="-38" font-family="Helvetica,sans-Serif" font-size="10.00">ServerGame::setup_conciliation</text>
<text text-anchor="middle" x="77.38" y="-26.75" font-family="Helvetica,sans-Serif" font-size="10.00">_timer</text>
</a>
</g>
</g>
<!-- Node1&#45;&gt;Node1 -->
<g id="edge4_Node000001_Node000001" class="edge">
<title>Node1&#45;&gt;Node1</title>
<g id="a_edge4_Node000001_Node000001"><a xlink:title=" ">
<path fill="none" stroke="#63b8ff" d="M42.98,-51.99C35.96,-61.06 47.42,-69.5 77.38,-69.5 93.76,-69.5 104.61,-66.97 109.93,-63.2"/>
<polygon fill="#63b8ff" stroke="#63b8ff" points="113.36,-63.91 111.53,-53.48 106.45,-62.78 113.36,-63.91"/>
</a>
</g>
</g>
<!-- Node2 -->
<g id="Node000002" class="node">
<title>Node2</title>
<g id="a_Node000002"><a xlink:href="class_server_game.html#ae364e3e373cb38cf5bfcbc5b5697c61a" target="_top" xlink:title=" ">
<polygon fill="white" stroke="#666666" points="352.25,-45.88 190.75,-45.88 190.75,-26.62 352.25,-26.62 352.25,-45.88"/>
<text text-anchor="middle" x="271.5" y="-32.38" font-family="Helvetica,sans-Serif" font-size="10.00">ServerGame::positionConciliation</text>
</a>
</g>
</g>
<!-- Node1&#45;&gt;Node2 -->
<g id="edge1_Node000001_Node000002" class="edge">
<title>Node1&#45;&gt;Node2</title>
<g id="a_edge1_Node000001_Node000002"><a xlink:title=" ">
<path fill="none" stroke="#63b8ff" d="M155.14,-36.25C163.02,-36.25 171.09,-36.25 179.11,-36.25"/>
<polygon fill="#63b8ff" stroke="#63b8ff" points="178.89,-39.75 188.89,-36.25 178.89,-32.75 178.89,-39.75"/>
</a>
</g>
</g>
<!-- Node3 -->
<g id="Node000003" class="node">
<title>Node3</title>
<g id="a_Node000003"><a xlink:href="class_server_game.html#adf9d28b0bb99cd31ec005e81fa4128f4" target="_top" xlink:title=" ">
<polygon fill="white" stroke="#666666" points="520.88,-67.88 389.38,-67.88 389.38,-48.62 520.88,-48.62 520.88,-67.88"/>
<text text-anchor="middle" x="455.12" y="-54.38" font-family="Helvetica,sans-Serif" font-size="10.00">ServerGame::handleDeath</text>
</a>
</g>
</g>
<!-- Node2&#45;&gt;Node3 -->
<g id="edge2_Node000002_Node000003" class="edge">
<title>Node2&#45;&gt;Node3</title>
<g id="a_edge2_Node000002_Node000003"><a xlink:title=" ">
<path fill="none" stroke="#63b8ff" d="M352.69,-45.96C361.05,-46.98 369.54,-48 377.86,-49.01"/>
<polygon fill="#63b8ff" stroke="#63b8ff" points="377.22,-52.46 387.56,-50.19 378.06,-45.51 377.22,-52.46"/>
</a>
</g>
</g>
<!-- Node4 -->
<g id="Node000004" class="node">
<title>Node4</title>
<g id="a_Node000004"><a xlink:href="class_server_game.html#aca51614bfef206efa6799e569ea0ddc1" target="_top" xlink:title=" ">
<polygon fill="white" stroke="#666666" points="522,-30.5 388.25,-30.5 388.25,0 522,0 522,-30.5"/>
<text text-anchor="start" x="396.25" y="-17" font-family="Helvetica,sans-Serif" font-size="10.00">ServerGame::showAllEnity</text>
<text text-anchor="middle" x="455.12" y="-5.75" font-family="Helvetica,sans-Serif" font-size="10.00">Alive</text>
</a>
</g>
</g>
<!-- Node2&#45;&gt;Node4 -->
<g id="edge3_Node000002_Node000004" class="edge">
<title>Node2&#45;&gt;Node4</title>
<g id="a_edge3_Node000002_Node000004"><a xlink:title=" ">
<path fill="none" stroke="#63b8ff" d="M352.69,-26.98C360.61,-26.06 368.64,-25.13 376.53,-24.22"/>
<polygon fill="#63b8ff" stroke="#63b8ff" points="376.92,-27.7 386.46,-23.07 376.12,-20.75 376.92,-27.7"/>
</a>
</g>
</g>
</g>
</svg>
