<?xml version="1.0" encoding="UTF-8" standalone="no"?>
<!DOCTYPE svg PUBLIC "-//W3C//DTD SVG 1.1//EN"
 "http://www.w3.org/Graphics/SVG/1.1/DTD/svg11.dtd">
<!-- Generated by graphviz version 12.2.1 (20241206.2353)
 -->
<!-- Title: Core::handle_shoot Pages: 1 -->
<svg width="388pt" height="39pt"
 viewBox="0.00 0.00 387.50 38.50" xmlns="http://www.w3.org/2000/svg" xmlns:xlink="http://www.w3.org/1999/xlink">
<g id="graph0" class="graph" transform="scale(1 1) rotate(0) translate(4 34.5)">
<title>Core::handle_shoot</title>
<!-- Node1 -->
<g id="Node000001" class="node">
<title>Node1</title>
<g id="a_Node000001"><a xlink:title=" ">
<polygon fill="#999999" stroke="#666666" points="100.75,-24.88 0,-24.88 0,-5.63 100.75,-5.63 100.75,-24.88"/>
<text text-anchor="middle" x="50.38" y="-11.38" font-family="Helvetica,sans-Serif" font-size="10.00">Core::handle_shoot</text>
</a>
</g>
</g>
<!-- Node2 -->
<g id="Node000002" class="node">
<title>Node2</title>
<g id="a_Node000002"><a xlink:href="class_core.html#a76ad333a648e0e20b1b12fb5a416774c" target="_top" xlink:title=" ">
<polygon fill="white" stroke="#666666" points="237.5,-30.5 136.75,-30.5 136.75,0 237.5,0 237.5,-30.5"/>
<text text-anchor="start" x="144.75" y="-17" font-family="Helvetica,sans-Serif" font-size="10.00">Core::send_input_if</text>
<text text-anchor="middle" x="187.12" y="-5.75" font-family="Helvetica,sans-Serif" font-size="10.00">_needed</text>
</a>
</g>
</g>
<!-- Node1&#45;&gt;Node2 -->
<g id="edge1_Node000001_Node000002" class="edge">
<title>Node1&#45;&gt;Node2</title>
<g id="a_edge1_Node000001_Node000002"><a xlink:title=" ">
<path fill="none" stroke="#63b8ff" d="M101.17,-15.25C109.02,-15.25 117.2,-15.25 125.27,-15.25"/>
<polygon fill="#63b8ff" stroke="#63b8ff" points="125.02,-18.75 135.02,-15.25 125.02,-11.75 125.02,-18.75"/>
</a>
</g>
</g>
<!-- Node3 -->
<g id="Node000003" class="node">
<title>Node3</title>
<g id="a_Node000003"><a xlink:href="class_core.html#aad563284176b829fa64177092388ef31" target="_top" xlink:title=" ">
<polygon fill="white" stroke="#666666" points="379.5,-24.88 273.5,-24.88 273.5,-5.63 379.5,-5.63 379.5,-24.88"/>
<text text-anchor="middle" x="326.5" y="-11.38" font-family="Helvetica,sans-Serif" font-size="10.00">Core::encode_action</text>
</a>
</g>
</g>
<!-- Node2&#45;&gt;Node3 -->
<g id="edge2_Node000002_Node000003" class="edge">
<title>Node2&#45;&gt;Node3</title>
<g id="a_edge2_Node000002_Node000003"><a xlink:title=" ">
<path fill="none" stroke="#63b8ff" d="M237.72,-15.25C245.56,-15.25 253.75,-15.25 261.85,-15.25"/>
<polygon fill="#63b8ff" stroke="#63b8ff" points="261.68,-18.75 271.68,-15.25 261.68,-11.75 261.68,-18.75"/>
</a>
</g>
</g>
</g>
</svg>
