<?xml version="1.0" encoding="UTF-8" standalone="no"?>
<!DOCTYPE svg PUBLIC "-//W3C//DTD SVG 1.1//EN"
 "http://www.w3.org/Graphics/SVG/1.1/DTD/svg11.dtd">
<!-- Generated by graphviz version 12.2.1 (20241206.2353)
 -->
<!-- Title: UDPNetworkClient Pages: 1 -->
<svg width="1308pt" height="410pt"
 viewBox="0.00 0.00 1308.25 410.00" xmlns="http://www.w3.org/2000/svg" xmlns:xlink="http://www.w3.org/1999/xlink">
<g id="graph0" class="graph" transform="scale(1 1) rotate(0) translate(4 406)">
<title>UDPNetworkClient</title>
<!-- Node1 -->
<g id="Node000001" class="node">
<title>Node1</title>
<g id="a_Node000001"><a xlink:title="Client réseau UDP pour la communication avec le serveur.">
<polygon fill="#999999" stroke="none" points="709.62,-217.5 590.38,-217.5 590.38,0 709.62,0 709.62,-217.5"/>
<text text-anchor="start" x="608" y="-204" font-family="Helvetica,sans-Serif" font-size="10.00">UDPNetworkClient</text>
<text text-anchor="start" x="648.5" y="-188.75" font-family="Helvetica,sans-Serif" font-size="10.00"> </text>
<text text-anchor="start" x="594.38" y="-173.5" font-family="Helvetica,sans-Serif" font-size="10.00">+</text>
<text text-anchor="start" x="604.38" y="-173.5" font-family="Helvetica,sans-Serif" font-size="10.00">UDPNetworkClient()</text>
<text text-anchor="start" x="594.38" y="-158.25" font-family="Helvetica,sans-Serif" font-size="10.00">+</text>
<text text-anchor="start" x="604.38" y="-158.25" font-family="Helvetica,sans-Serif" font-size="10.00">~UDPNetworkClient()</text>
<text text-anchor="start" x="594.38" y="-143" font-family="Helvetica,sans-Serif" font-size="10.00">+</text>
<text text-anchor="start" x="604.38" y="-143" font-family="Helvetica,sans-Serif" font-size="10.00">check_connection()</text>
<text text-anchor="start" x="594.38" y="-127.75" font-family="Helvetica,sans-Serif" font-size="10.00">+</text>
<text text-anchor="start" x="604.38" y="-127.75" font-family="Helvetica,sans-Serif" font-size="10.00">send()</text>
<text text-anchor="start" x="594.38" y="-112.5" font-family="Helvetica,sans-Serif" font-size="10.00">+</text>
<text text-anchor="start" x="604.38" y="-112.5" font-family="Helvetica,sans-Serif" font-size="10.00">receive()</text>
<text text-anchor="start" x="594.38" y="-97.25" font-family="Helvetica,sans-Serif" font-size="10.00">+</text>
<text text-anchor="start" x="604.38" y="-97.25" font-family="Helvetica,sans-Serif" font-size="10.00">receive_all()</text>
<text text-anchor="start" x="594.38" y="-82" font-family="Helvetica,sans-Serif" font-size="10.00">+</text>
<text text-anchor="start" x="604.38" y="-82" font-family="Helvetica,sans-Serif" font-size="10.00">print_message_queue()</text>
<text text-anchor="start" x="594.38" y="-66.75" font-family="Helvetica,sans-Serif" font-size="10.00">+</text>
<text text-anchor="start" x="604.38" y="-66.75" font-family="Helvetica,sans-Serif" font-size="10.00">stop()</text>
<text text-anchor="start" x="594.38" y="-51.5" font-family="Helvetica,sans-Serif" font-size="10.00">+</text>
<text text-anchor="start" x="604.38" y="-51.5" font-family="Helvetica,sans-Serif" font-size="10.00">setId()</text>
<text text-anchor="start" x="594.38" y="-36.25" font-family="Helvetica,sans-Serif" font-size="10.00">+</text>
<text text-anchor="start" x="604.38" y="-36.25" font-family="Helvetica,sans-Serif" font-size="10.00">getId()</text>
<text text-anchor="start" x="595.88" y="-21" font-family="Helvetica,sans-Serif" font-size="10.00">&#45;</text>
<text text-anchor="start" x="604.38" y="-21" font-family="Helvetica,sans-Serif" font-size="10.00">start_receive()</text>
<text text-anchor="start" x="595.88" y="-5.75" font-family="Helvetica,sans-Serif" font-size="10.00">&#45;</text>
<text text-anchor="start" x="604.38" y="-5.75" font-family="Helvetica,sans-Serif" font-size="10.00">process_send_queue()</text>
<polygon fill="#666666" stroke="#666666" points="590.38,-200.25 590.38,-200.25 709.62,-200.25 709.62,-200.25 590.38,-200.25"/>
<polygon fill="#666666" stroke="#666666" points="590.38,-185 590.38,-185 709.62,-185 709.62,-185 590.38,-185"/>
<polygon fill="none" stroke="#666666" points="590.38,0 590.38,-217.5 709.62,-217.5 709.62,0 590.38,0"/>
</a>
</g>
</g>
<!-- Node2 -->
<g id="Node000002" class="node">
<title>Node2</title>
<g id="a_Node000002"><a xlink:href="class_utils.html" target="_top" xlink:title="Classe utilitaire fournissant des fonctions communes.">
<polygon fill="white" stroke="none" points="102,-402 0,-402 0,-276 102,-276 102,-402"/>
<text text-anchor="start" x="40.88" y="-388.5" font-family="Helvetica,sans-Serif" font-size="10.00">Utils</text>
<text text-anchor="start" x="49.5" y="-373.25" font-family="Helvetica,sans-Serif" font-size="10.00"> </text>
<text text-anchor="start" x="4" y="-358" font-family="Helvetica,sans-Serif" font-size="10.00">+</text>
<text text-anchor="start" x="14" y="-358" font-family="Helvetica,sans-Serif" font-size="10.00">Utils()</text>
<text text-anchor="start" x="4" y="-342.75" font-family="Helvetica,sans-Serif" font-size="10.00">+</text>
<text text-anchor="start" x="14" y="-342.75" font-family="Helvetica,sans-Serif" font-size="10.00">~Utils()</text>
<text text-anchor="start" x="4" y="-327.5" font-family="Helvetica,sans-Serif" font-size="10.00">+</text>
<text text-anchor="start" x="14" y="-327.5" font-family="Helvetica,sans-Serif" font-size="10.00">cat()</text>
<text text-anchor="start" x="4" y="-312.25" font-family="Helvetica,sans-Serif" font-size="10.00">+</text>
<text text-anchor="start" x="14" y="-312.25" font-family="Helvetica,sans-Serif" font-size="10.00">setOriginToMiddle()</text>
<text text-anchor="start" x="4" y="-297" font-family="Helvetica,sans-Serif" font-size="10.00">+</text>
<text text-anchor="start" x="14" y="-297" font-family="Helvetica,sans-Serif" font-size="10.00">printTerminal()</text>
<text text-anchor="start" x="4" y="-281.75" font-family="Helvetica,sans-Serif" font-size="10.00">+</text>
<text text-anchor="start" x="14" y="-281.75" font-family="Helvetica,sans-Serif" font-size="10.00">printLog()</text>
<polygon fill="#666666" stroke="#666666" points="0,-384.75 0,-384.75 102,-384.75 102,-384.75 0,-384.75"/>
<polygon fill="#666666" stroke="#666666" points="0,-369.5 0,-369.5 102,-369.5 102,-369.5 0,-369.5"/>
<polygon fill="none" stroke="#666666" points="0,-276 0,-402 102,-402 102,-276 0,-276"/>
</a>
</g>
</g>
<!-- Node2&#45;&gt;Node1 -->
<g id="edge1_Node000001_Node000002" class="edge">
<title>Node2&#45;&gt;Node1</title>
<g id="a_edge1_Node000001_Node000002"><a xlink:title=" ">
<path fill="none" stroke="#63b8ff" d="M101.73,-280.7C119.75,-263.64 141.25,-246.57 164,-235.5 302,-168.35 480.11,-134.08 577.85,-119.23"/>
<polygon fill="none" stroke="#63b8ff" points="577.75,-119.24 583.1,-114.4 589.62,-117.48 584.28,-122.32 577.75,-119.24"/>
</a>
</g>
<text text-anchor="middle" x="176" y="-242.88" font-family="Helvetica,sans-Serif" font-size="10.00" fill="grey"> &#45;utils</text>
</g>
<!-- Node3 -->
<g id="Node000003" class="node">
<title>Node3</title>
<g id="a_Node000003"><a xlink:title=" ">
<polygon fill="white" stroke="none" points="212.38,-369.5 119.62,-369.5 119.62,-308.5 212.38,-308.5 212.38,-369.5"/>
<text text-anchor="start" x="123.62" y="-356" font-family="Helvetica,sans-Serif" font-size="10.00">shared_ptr&lt; boost::</text>
<text text-anchor="start" x="127" y="-344.75" font-family="Helvetica,sans-Serif" font-size="10.00">asio::io_context &gt;</text>
<text text-anchor="start" x="164.5" y="-329.5" font-family="Helvetica,sans-Serif" font-size="10.00"> </text>
<text text-anchor="start" x="164.5" y="-314.25" font-family="Helvetica,sans-Serif" font-size="10.00"> </text>
<polygon fill="#666666" stroke="#666666" points="119.62,-341 119.62,-341 212.38,-341 212.38,-341 119.62,-341"/>
<polygon fill="#666666" stroke="#666666" points="119.62,-325.75 119.62,-325.75 212.38,-325.75 212.38,-325.75 119.62,-325.75"/>
<polygon fill="none" stroke="#666666" points="119.62,-308.5 119.62,-369.5 212.38,-369.5 212.38,-308.5 119.62,-308.5"/>
</a>
</g>
</g>
<!-- Node3&#45;&gt;Node1 -->
<g id="edge2_Node000001_Node000003" class="edge">
<title>Node3&#45;&gt;Node1</title>
<g id="a_edge2_Node000001_Node000003"><a xlink:title=" ">
<path fill="none" stroke="#63b8ff" d="M171.25,-308.78C176.87,-285.74 188.06,-254.45 209.5,-235.5 314.09,-143.07 482.29,-118.27 577.74,-111.82"/>
<polygon fill="none" stroke="#63b8ff" points="577.83,-111.81 583.58,-107.45 589.81,-111.08 584.07,-115.44 577.83,-111.81"/>
</a>
</g>
<text text-anchor="middle" x="241.75" y="-242.88" font-family="Helvetica,sans-Serif" font-size="10.00" fill="grey"> &#45;m_io_context</text>
</g>
<!-- Node4 -->
<g id="Node000004" class="node">
<title>Node4</title>
<g id="a_Node000004"><a xlink:title=" ">
<polygon fill="white" stroke="none" points="271.5,-363.88 236.5,-363.88 236.5,-314.12 271.5,-314.12 271.5,-363.88"/>
<text text-anchor="start" x="240.5" y="-350.38" font-family="Helvetica,sans-Serif" font-size="10.00">thread</text>
<text text-anchor="start" x="252.5" y="-335.12" font-family="Helvetica,sans-Serif" font-size="10.00"> </text>
<text text-anchor="start" x="252.5" y="-319.88" font-family="Helvetica,sans-Serif" font-size="10.00"> </text>
<polygon fill="#666666" stroke="#666666" points="236.5,-346.62 236.5,-346.62 271.5,-346.62 271.5,-346.62 236.5,-346.62"/>
<polygon fill="#666666" stroke="#666666" points="236.5,-331.38 236.5,-331.38 271.5,-331.38 271.5,-331.38 236.5,-331.38"/>
<polygon fill="none" stroke="#666666" points="236.5,-314.12 236.5,-363.88 271.5,-363.88 271.5,-314.12 236.5,-314.12"/>
</a>
</g>
</g>
<!-- Node4&#45;&gt;Node1 -->
<g id="edge3_Node000001_Node000004" class="edge">
<title>Node4&#45;&gt;Node1</title>
<g id="a_edge3_Node000001_Node000004"><a xlink:title=" ">
<path fill="none" stroke="#63b8ff" d="M257.33,-314.54C261.78,-291.48 271.83,-256.76 293.75,-235.5 371.91,-159.7 498.51,-129.33 577.86,-117.34"/>
<polygon fill="none" stroke="#63b8ff" points="577.88,-117.34 583.25,-112.53 589.76,-115.63 584.39,-120.44 577.88,-117.34"/>
</a>
</g>
<text text-anchor="middle" x="323.38" y="-242.88" font-family="Helvetica,sans-Serif" font-size="10.00" fill="grey"> &#45;m_io_thread</text>
</g>
<!-- Node5 -->
<g id="Node000005" class="node">
<title>Node5</title>
<g id="a_Node000005"><a xlink:title=" ">
<polygon fill="white" stroke="none" points="354.62,-363.88 317.38,-363.88 317.38,-314.12 354.62,-314.12 354.62,-363.88"/>
<text text-anchor="start" x="321.38" y="-350.38" font-family="Helvetica,sans-Serif" font-size="10.00">socket</text>
<text text-anchor="start" x="334.5" y="-335.12" font-family="Helvetica,sans-Serif" font-size="10.00"> </text>
<text text-anchor="start" x="334.5" y="-319.88" font-family="Helvetica,sans-Serif" font-size="10.00"> </text>
<polygon fill="#666666" stroke="#666666" points="317.38,-346.62 317.38,-346.62 354.62,-346.62 354.62,-346.62 317.38,-346.62"/>
<polygon fill="#666666" stroke="#666666" points="317.38,-331.38 317.38,-331.38 354.62,-331.38 354.62,-331.38 317.38,-331.38"/>
<polygon fill="none" stroke="#666666" points="317.38,-314.12 317.38,-363.88 354.62,-363.88 354.62,-314.12 317.38,-314.12"/>
</a>
</g>
</g>
<!-- Node5&#45;&gt;Node1 -->
<g id="edge4_Node000001_Node000005" class="edge">
<title>Node5&#45;&gt;Node1</title>
<g id="a_edge4_Node000001_Node000005"><a xlink:title=" ">
<path fill="none" stroke="#63b8ff" d="M338.93,-314.53C342.88,-291.79 351.95,-257.61 372.25,-235.5 427.1,-175.77 515.76,-142.5 578.13,-125.4"/>
<polygon fill="none" stroke="#63b8ff" points="578.16,-125.4 582.94,-120 589.76,-122.33 584.98,-127.73 578.16,-125.4"/>
</a>
</g>
<text text-anchor="middle" x="396.62" y="-242.88" font-family="Helvetica,sans-Serif" font-size="10.00" fill="grey"> &#45;m_socket</text>
</g>
<!-- Node6 -->
<g id="Node000006" class="node">
<title>Node6</title>
<g id="a_Node000006"><a xlink:title=" ">
<polygon fill="white" stroke="none" points="430.38,-363.88 385.62,-363.88 385.62,-314.12 430.38,-314.12 430.38,-363.88"/>
<text text-anchor="start" x="389.62" y="-350.38" font-family="Helvetica,sans-Serif" font-size="10.00">endpoint</text>
<text text-anchor="start" x="406.5" y="-335.12" font-family="Helvetica,sans-Serif" font-size="10.00"> </text>
<text text-anchor="start" x="406.5" y="-319.88" font-family="Helvetica,sans-Serif" font-size="10.00"> </text>
<polygon fill="#666666" stroke="#666666" points="385.62,-346.62 385.62,-346.62 430.38,-346.62 430.38,-346.62 385.62,-346.62"/>
<polygon fill="#666666" stroke="#666666" points="385.62,-331.38 385.62,-331.38 430.38,-331.38 430.38,-331.38 385.62,-331.38"/>
<polygon fill="none" stroke="#666666" points="385.62,-314.12 385.62,-363.88 430.38,-363.88 430.38,-314.12 385.62,-314.12"/>
</a>
</g>
</g>
<!-- Node6&#45;&gt;Node1 -->
<g id="edge5_Node000001_Node000006" class="edge">
<title>Node6&#45;&gt;Node1</title>
<g id="a_edge5_Node000001_Node000006"><a xlink:title=" ">
<path fill="none" stroke="#63b8ff" d="M410.12,-314.19C413.17,-291.84 420.59,-258.5 438.5,-235.5 474.48,-189.31 532.57,-156.53 578.77,-136.05"/>
<polygon fill="none" stroke="#63b8ff" points="578.69,-136.08 582.62,-130.03 589.71,-131.33 585.79,-137.38 578.69,-136.08"/>
</a>
</g>
<text text-anchor="middle" x="484.25" y="-248.5" font-family="Helvetica,sans-Serif" font-size="10.00" fill="grey"> &#45;m_remote_endpoint</text>
<text text-anchor="middle" x="484.25" y="-237.25" font-family="Helvetica,sans-Serif" font-size="10.00" fill="grey">&#45;m_server_endpoint</text>
</g>
<!-- Node7 -->
<g id="Node000007" class="node">
<title>Node7</title>
<g id="a_Node000007"><a xlink:title=" ">
<polygon fill="white" stroke="none" points="563.75,-363.88 482.25,-363.88 482.25,-314.12 563.75,-314.12 563.75,-363.88"/>
<text text-anchor="start" x="486.25" y="-350.38" font-family="Helvetica,sans-Serif" font-size="10.00">function&lt; void()&gt;</text>
<text text-anchor="start" x="521.5" y="-335.12" font-family="Helvetica,sans-Serif" font-size="10.00"> </text>
<text text-anchor="start" x="521.5" y="-319.88" font-family="Helvetica,sans-Serif" font-size="10.00"> </text>
<polygon fill="#666666" stroke="#666666" points="482.25,-346.62 482.25,-346.62 563.75,-346.62 563.75,-346.62 482.25,-346.62"/>
<polygon fill="#666666" stroke="#666666" points="482.25,-331.38 482.25,-331.38 563.75,-331.38 563.75,-331.38 482.25,-331.38"/>
<polygon fill="none" stroke="#666666" points="482.25,-314.12 482.25,-363.88 563.75,-363.88 563.75,-314.12 482.25,-314.12"/>
</a>
</g>
</g>
<!-- Node7&#45;&gt;Node1 -->
<g id="edge6_Node000001_Node000007" class="edge">
<title>Node7&#45;&gt;Node1</title>
<g id="a_edge6_Node000001_Node000007"><a xlink:title=" ">
<path fill="none" stroke="#63b8ff" d="M524.07,-314.13C525.82,-292.63 530.43,-260.65 542.5,-235.5 552.57,-214.53 567.03,-194.24 582.09,-176.3"/>
<polygon fill="none" stroke="#63b8ff" points="582.06,-176.34 582.96,-169.18 589.91,-167.27 589.01,-174.42 582.06,-176.34"/>
</a>
</g>
<text text-anchor="middle" x="594.25" y="-242.88" font-family="Helvetica,sans-Serif" font-size="10.00" fill="grey"> &#45;m_disconnect_handler</text>
</g>
<!-- Node8 -->
<g id="Node000008" class="node">
<title>Node8</title>
<g id="a_Node000008"><a xlink:title=" ">
<polygon fill="white" stroke="none" points="697.88,-363.88 602.12,-363.88 602.12,-314.12 697.88,-314.12 697.88,-363.88"/>
<text text-anchor="start" x="606.12" y="-350.38" font-family="Helvetica,sans-Serif" font-size="10.00">queue&lt; std::string &gt;</text>
<text text-anchor="start" x="648.5" y="-335.12" font-family="Helvetica,sans-Serif" font-size="10.00"> </text>
<text text-anchor="start" x="648.5" y="-319.88" font-family="Helvetica,sans-Serif" font-size="10.00"> </text>
<polygon fill="#666666" stroke="#666666" points="602.12,-346.62 602.12,-346.62 697.88,-346.62 697.88,-346.62 602.12,-346.62"/>
<polygon fill="#666666" stroke="#666666" points="602.12,-331.38 602.12,-331.38 697.88,-331.38 697.88,-331.38 602.12,-331.38"/>
<polygon fill="none" stroke="#666666" points="602.12,-314.12 602.12,-363.88 697.88,-363.88 697.88,-314.12 602.12,-314.12"/>
</a>
</g>
</g>
<!-- Node8&#45;&gt;Node1 -->
<g id="edge7_Node000001_Node000008" class="edge">
<title>Node8&#45;&gt;Node1</title>
<g id="a_edge7_Node000001_Node000008"><a xlink:title=" ">
<path fill="none" stroke="#63b8ff" d="M650,-314.43C650,-293.87 650,-262.36 650,-230.18"/>
<polygon fill="none" stroke="#63b8ff" points="650,-230.25 646,-224.25 650,-218.25 654,-224.25 650,-230.25"/>
</a>
</g>
<text text-anchor="middle" x="686" y="-242.88" font-family="Helvetica,sans-Serif" font-size="10.00" fill="grey"> &#45;m_send_queue</text>
</g>
<!-- Node9 -->
<g id="Node000009" class="node">
<title>Node9</title>
<g id="a_Node000009"><a xlink:title=" ">
<polygon fill="white" stroke="none" points="762.5,-363.88 727.5,-363.88 727.5,-314.12 762.5,-314.12 762.5,-363.88"/>
<text text-anchor="start" x="731.5" y="-350.38" font-family="Helvetica,sans-Serif" font-size="10.00">mutex</text>
<text text-anchor="start" x="743.5" y="-335.12" font-family="Helvetica,sans-Serif" font-size="10.00"> </text>
<text text-anchor="start" x="743.5" y="-319.88" font-family="Helvetica,sans-Serif" font-size="10.00"> </text>
<polygon fill="#666666" stroke="#666666" points="727.5,-346.62 727.5,-346.62 762.5,-346.62 762.5,-346.62 727.5,-346.62"/>
<polygon fill="#666666" stroke="#666666" points="727.5,-331.38 727.5,-331.38 762.5,-331.38 762.5,-331.38 727.5,-331.38"/>
<polygon fill="none" stroke="#666666" points="727.5,-314.12 727.5,-363.88 762.5,-363.88 762.5,-314.12 727.5,-314.12"/>
</a>
</g>
</g>
<!-- Node9&#45;&gt;Node1 -->
<g id="edge8_Node000001_Node000009" class="edge">
<title>Node9&#45;&gt;Node1</title>
<g id="a_edge8_Node000001_Node000009"><a xlink:title=" ">
<path fill="none" stroke="#63b8ff" d="M742.06,-314.19C738.93,-293.01 733.04,-261.48 723,-235.5 720.64,-229.4 718.02,-223.25 715.2,-217.12"/>
<polygon fill="none" stroke="#63b8ff" points="715.14,-217 708.94,-213.32 709.95,-206.18 716.16,-209.86 715.14,-217"/>
</a>
</g>
<text text-anchor="middle" x="771.82" y="-248.5" font-family="Helvetica,sans-Serif" font-size="10.00" fill="grey"> &#45;m_receive_mutex</text>
<text text-anchor="middle" x="771.82" y="-237.25" font-family="Helvetica,sans-Serif" font-size="10.00" fill="grey">&#45;m_send_mutex</text>
</g>
<!-- Node10 -->
<g id="Node000010" class="node">
<title>Node10</title>
<g id="a_Node000010"><a xlink:title=" ">
<polygon fill="white" stroke="none" points="898.88,-363.88 803.12,-363.88 803.12,-314.12 898.88,-314.12 898.88,-363.88"/>
<text text-anchor="start" x="807.12" y="-350.38" font-family="Helvetica,sans-Serif" font-size="10.00">deque&lt; std::string &gt;</text>
<text text-anchor="start" x="849.5" y="-335.12" font-family="Helvetica,sans-Serif" font-size="10.00"> </text>
<text text-anchor="start" x="849.5" y="-319.88" font-family="Helvetica,sans-Serif" font-size="10.00"> </text>
<polygon fill="#666666" stroke="#666666" points="803.12,-346.62 803.12,-346.62 898.88,-346.62 898.88,-346.62 803.12,-346.62"/>
<polygon fill="#666666" stroke="#666666" points="803.12,-331.38 803.12,-331.38 898.88,-331.38 898.88,-331.38 803.12,-331.38"/>
<polygon fill="none" stroke="#666666" points="803.12,-314.12 803.12,-363.88 898.88,-363.88 898.88,-314.12 803.12,-314.12"/>
</a>
</g>
</g>
<!-- Node10&#45;&gt;Node1 -->
<g id="edge9_Node000001_Node000010" class="edge">
<title>Node10&#45;&gt;Node1</title>
<g id="a_edge9_Node000001_Node000010"><a xlink:title=" ">
<path fill="none" stroke="#63b8ff" d="M847.3,-314.17C842.95,-292.12 834.06,-259.26 817,-235.5 791.69,-200.26 753.59,-170.5 720.18,-148.8"/>
<polygon fill="none" stroke="#63b8ff" points="720.41,-148.95 713.2,-149.11 710.27,-142.52 717.48,-142.36 720.41,-148.95"/>
</a>
</g>
<text text-anchor="middle" x="882.07" y="-242.88" font-family="Helvetica,sans-Serif" font-size="10.00" fill="grey"> &#45;m_received_messages</text>
</g>
<!-- Node11 -->
<g id="Node000011" class="node">
<title>Node11</title>
<g id="a_Node000011"><a xlink:title=" ">
<polygon fill="white" stroke="none" points="1004.62,-363.88 931.38,-363.88 931.38,-314.12 1004.62,-314.12 1004.62,-363.88"/>
<text text-anchor="start" x="935.38" y="-350.38" font-family="Helvetica,sans-Serif" font-size="10.00">atomic&lt; bool &gt;</text>
<text text-anchor="start" x="966.5" y="-335.12" font-family="Helvetica,sans-Serif" font-size="10.00"> </text>
<text text-anchor="start" x="966.5" y="-319.88" font-family="Helvetica,sans-Serif" font-size="10.00"> </text>
<polygon fill="#666666" stroke="#666666" points="931.38,-346.62 931.38,-346.62 1004.62,-346.62 1004.62,-346.62 931.38,-346.62"/>
<polygon fill="#666666" stroke="#666666" points="931.38,-331.38 931.38,-331.38 1004.62,-331.38 1004.62,-331.38 931.38,-331.38"/>
<polygon fill="none" stroke="#666666" points="931.38,-314.12 931.38,-363.88 1004.62,-363.88 1004.62,-314.12 931.38,-314.12"/>
</a>
</g>
</g>
<!-- Node11&#45;&gt;Node1 -->
<g id="edge10_Node000001_Node000011" class="edge">
<title>Node11&#45;&gt;Node1</title>
<g id="a_edge10_Node000001_Node000011"><a xlink:title=" ">
<path fill="none" stroke="#63b8ff" d="M967,-314.54C964.85,-291.82 958.35,-257.64 939,-235.5 882.77,-171.14 787.58,-138.51 721.9,-122.84"/>
<polygon fill="none" stroke="#63b8ff" points="722.16,-122.9 715.42,-125.46 710.47,-120.22 717.21,-117.66 722.16,-122.9"/>
</a>
</g>
<text text-anchor="middle" x="984.67" y="-242.88" font-family="Helvetica,sans-Serif" font-size="10.00" fill="grey"> &#45;m_is_running</text>
</g>
<!-- Node12 -->
<g id="Node000012" class="node">
<title>Node12</title>
<g id="a_Node000012"><a xlink:title=" ">
<polygon fill="white" stroke="none" points="1119.25,-369.5 1022.75,-369.5 1022.75,-308.5 1119.25,-308.5 1119.25,-369.5"/>
<text text-anchor="start" x="1026.75" y="-356" font-family="Helvetica,sans-Serif" font-size="10.00">function&lt; void(const</text>
<text text-anchor="start" x="1038.38" y="-344.75" font-family="Helvetica,sans-Serif" font-size="10.00"> std::string &amp;)&gt;</text>
<text text-anchor="start" x="1069.5" y="-329.5" font-family="Helvetica,sans-Serif" font-size="10.00"> </text>
<text text-anchor="start" x="1069.5" y="-314.25" font-family="Helvetica,sans-Serif" font-size="10.00"> </text>
<polygon fill="#666666" stroke="#666666" points="1022.75,-341 1022.75,-341 1119.25,-341 1119.25,-341 1022.75,-341"/>
<polygon fill="#666666" stroke="#666666" points="1022.75,-325.75 1022.75,-325.75 1119.25,-325.75 1119.25,-325.75 1022.75,-325.75"/>
<polygon fill="none" stroke="#666666" points="1022.75,-308.5 1022.75,-369.5 1119.25,-369.5 1119.25,-308.5 1022.75,-308.5"/>
</a>
</g>
</g>
<!-- Node12&#45;&gt;Node1 -->
<g id="edge11_Node000001_Node000012" class="edge">
<title>Node12&#45;&gt;Node1</title>
<g id="a_edge11_Node000001_Node000012"><a xlink:title=" ">
<path fill="none" stroke="#63b8ff" d="M1063.41,-308.54C1056.09,-285.67 1042.85,-254.73 1021,-235.5 935.69,-160.39 803.65,-129.76 722.25,-117.54"/>
<polygon fill="none" stroke="#63b8ff" points="722.16,-117.53 715.65,-120.63 710.28,-115.82 716.79,-112.72 722.16,-117.53"/>
</a>
</g>
<text text-anchor="middle" x="1087.09" y="-242.88" font-family="Helvetica,sans-Serif" font-size="10.00" fill="grey"> &#45;m_message_handler</text>
</g>
<!-- Node13 -->
<g id="Node000013" class="node">
<title>Node13</title>
<g id="a_Node000013"><a xlink:title=" ">
<polygon fill="white" stroke="none" points="1233.38,-363.88 1140.62,-363.88 1140.62,-314.12 1233.38,-314.12 1233.38,-363.88"/>
<text text-anchor="start" x="1144.62" y="-350.38" font-family="Helvetica,sans-Serif" font-size="10.00">array&lt; char, 1024 &gt;</text>
<text text-anchor="start" x="1185.5" y="-335.12" font-family="Helvetica,sans-Serif" font-size="10.00"> </text>
<text text-anchor="start" x="1185.5" y="-319.88" font-family="Helvetica,sans-Serif" font-size="10.00"> </text>
<polygon fill="#666666" stroke="#666666" points="1140.62,-346.62 1140.62,-346.62 1233.38,-346.62 1233.38,-346.62 1140.62,-346.62"/>
<polygon fill="#666666" stroke="#666666" points="1140.62,-331.38 1140.62,-331.38 1233.38,-331.38 1233.38,-331.38 1140.62,-331.38"/>
<polygon fill="none" stroke="#666666" points="1140.62,-314.12 1140.62,-363.88 1233.38,-363.88 1233.38,-314.12 1140.62,-314.12"/>
</a>
</g>
</g>
<!-- Node13&#45;&gt;Node1 -->
<g id="edge12_Node000001_Node000013" class="edge">
<title>Node13&#45;&gt;Node1</title>
<g id="a_edge12_Node000001_Node000013"><a xlink:title=" ">
<path fill="none" stroke="#63b8ff" d="M1182.14,-314.47C1176.06,-291.03 1163.35,-255.69 1139,-235.5 1017.83,-135.03 826.05,-113.64 722.33,-109.82"/>
<polygon fill="none" stroke="#63b8ff" points="722.42,-109.82 716.29,-113.63 710.42,-109.45 716.54,-105.64 722.42,-109.82"/>
</a>
</g>
<text text-anchor="middle" x="1197.67" y="-242.88" font-family="Helvetica,sans-Serif" font-size="10.00" fill="grey"> &#45;m_receive_buffer</text>
</g>
<!-- Node14 -->
<g id="Node000014" class="node">
<title>Node14</title>
<g id="a_Node000014"><a xlink:title=" ">
<polygon fill="white" stroke="none" points="1300.25,-363.88 1281.75,-363.88 1281.75,-314.12 1300.25,-314.12 1300.25,-363.88"/>
<text text-anchor="start" x="1285.75" y="-350.38" font-family="Helvetica,sans-Serif" font-size="10.00">int</text>
<text text-anchor="start" x="1289.5" y="-335.12" font-family="Helvetica,sans-Serif" font-size="10.00"> </text>
<text text-anchor="start" x="1289.5" y="-319.88" font-family="Helvetica,sans-Serif" font-size="10.00"> </text>
<polygon fill="#666666" stroke="#666666" points="1281.75,-346.62 1281.75,-346.62 1300.25,-346.62 1300.25,-346.62 1281.75,-346.62"/>
<polygon fill="#666666" stroke="#666666" points="1281.75,-331.38 1281.75,-331.38 1300.25,-331.38 1300.25,-331.38 1281.75,-331.38"/>
<polygon fill="none" stroke="#666666" points="1281.75,-314.12 1281.75,-363.88 1300.25,-363.88 1300.25,-314.12 1281.75,-314.12"/>
</a>
</g>
</g>
<!-- Node14&#45;&gt;Node1 -->
<g id="edge13_Node000001_Node000014" class="edge">
<title>Node14&#45;&gt;Node1</title>
<g id="a_edge13_Node000001_Node000014"><a xlink:title=" ">
<path fill="none" stroke="#63b8ff" d="M1286.07,-314.25C1279.9,-290.62 1266.95,-255.15 1242,-235.5 1161.65,-172.22 861.17,-132.47 721.81,-117.05"/>
<polygon fill="none" stroke="#63b8ff" points="722.07,-117.08 715.67,-120.4 710.14,-115.77 716.54,-112.45 722.07,-117.08"/>
</a>
</g>
<text text-anchor="middle" x="1269.97" y="-242.88" font-family="Helvetica,sans-Serif" font-size="10.00" fill="grey"> &#45;_id</text>
</g>
</g>
</svg>
