<?xml version="1.0" encoding="UTF-8" standalone="no"?>
<!DOCTYPE svg PUBLIC "-//W3C//DTD SVG 1.1//EN"
 "http://www.w3.org/Graphics/SVG/1.1/DTD/svg11.dtd">
<!-- Generated by graphviz version 12.2.1 (20241206.2353)
 -->
<!-- Title: ServerNetwork::handleColision Pages: 1 -->
<svg width="325pt" height="88pt"
 viewBox="0.00 0.00 325.00 87.50" xmlns="http://www.w3.org/2000/svg" xmlns:xlink="http://www.w3.org/1999/xlink">
<g id="graph0" class="graph" transform="scale(1 1) rotate(0) translate(4 83.5)">
<title>ServerNetwork::handleColision</title>
<!-- Node1 -->
<g id="Node000001" class="node">
<title>Node1</title>
<g id="a_Node000001"><a xlink:title=" ">
<polygon fill="#999999" stroke="#666666" points="151,-48.88 0,-48.88 0,-29.62 151,-29.62 151,-48.88"/>
<text text-anchor="middle" x="75.5" y="-35.38" font-family="Helvetica,sans-Serif" font-size="10.00">ServerNetwork::handleColision</text>
</a>
</g>
</g>
<!-- Node2 -->
<g id="Node000002" class="node">
<title>Node2</title>
<g id="a_Node000002"><a xlink:href="class_server_network.html#a9fd1b21ff45df9e1576a0a50a79bacd7" target="_top" xlink:title=" ">
<polygon fill="white" stroke="#666666" points="317,-79.5 187,-79.5 187,-49 317,-49 317,-79.5"/>
<text text-anchor="start" x="195" y="-66" font-family="Helvetica,sans-Serif" font-size="10.00">ServerNetwork::broadcast</text>
<text text-anchor="middle" x="252" y="-54.75" font-family="Helvetica,sans-Serif" font-size="10.00">_message</text>
</a>
</g>
</g>
<!-- Node1&#45;&gt;Node2 -->
<g id="edge1_Node000001_Node000002" class="edge">
<title>Node1&#45;&gt;Node2</title>
<g id="a_edge1_Node000001_Node000002"><a xlink:title=" ">
<path fill="none" stroke="#63b8ff" d="M146.97,-49.35C156.32,-50.69 165.93,-52.06 175.36,-53.41"/>
<polygon fill="#63b8ff" stroke="#63b8ff" points="174.85,-56.88 185.25,-54.83 175.84,-49.95 174.85,-56.88"/>
</a>
</g>
</g>
<!-- Node3 -->
<g id="Node000003" class="node">
<title>Node3</title>
<g id="a_Node000003"><a xlink:href="class_server_network.html#a3cdc99eb8ed134a23329bf2d8f9c74d2" target="_top" xlink:title=" ">
<polygon fill="white" stroke="#666666" points="311.38,-30.5 192.62,-30.5 192.62,0 311.38,0 311.38,-30.5"/>
<text text-anchor="start" x="200.62" y="-17" font-family="Helvetica,sans-Serif" font-size="10.00">ServerNetwork::encode</text>
<text text-anchor="middle" x="252" y="-5.75" font-family="Helvetica,sans-Serif" font-size="10.00">_action</text>
</a>
</g>
</g>
<!-- Node1&#45;&gt;Node3 -->
<g id="edge2_Node000001_Node000003" class="edge">
<title>Node1&#45;&gt;Node3</title>
<g id="a_edge2_Node000001_Node000003"><a xlink:title=" ">
<path fill="none" stroke="#63b8ff" d="M150,-29.14C160.22,-27.74 170.69,-26.29 180.85,-24.9"/>
<polygon fill="#63b8ff" stroke="#63b8ff" points="181.22,-28.38 190.65,-23.55 180.26,-21.45 181.22,-28.38"/>
</a>
</g>
</g>
</g>
</svg>
