<?xml version="1.0" encoding="UTF-8" standalone="no"?>
<!DOCTYPE svg PUBLIC "-//W3C//DTD SVG 1.1//EN"
 "http://www.w3.org/Graphics/SVG/1.1/DTD/svg11.dtd">
<!-- Generated by graphviz version 12.2.1 (20241206.2353)
 -->
<!-- Title: Core::setup_position_timer Pages: 1 -->
<svg width="445pt" height="57pt"
 viewBox="0.00 0.00 444.50 56.50" xmlns="http://www.w3.org/2000/svg" xmlns:xlink="http://www.w3.org/1999/xlink">

<svg id="main" version="1.1" xmlns="http://www.w3.org/2000/svg" xmlns:xlink="http://www.w3.org/1999/xlink" xml:space="preserve">

<style type="text/css"><![CDATA[
.node, .edge {opacity: 0.7;}
.node.selected, .edge.selected {opacity: 1;}
.edge:hover path { stroke: red; }
.edge:hover polygon { stroke: red; fill: red; }
]]></style>
<script type="application/ecmascript" xlink:href="svg.min.js"/>
<svg id="graph" class="graph">
<g id="graph0" class="graph" transform="scale(1 1) rotate(0) translate(4 52.5)">
<title>Core::setup_position_timer</title>
<!-- Node1 -->
<g id="Node000001" class="node">
<title>Node1</title>
<g id="a_Node000001"><a xlink:title=" ">
<polygon fill="#999999" stroke="#666666" points="106,-30.5 0,-30.5 0,0 106,0 106,-30.5"/>
<text text-anchor="start" x="8" y="-17" font-family="Helvetica,sans-Serif" font-size="10.00">Core::setup_position</text>
<text text-anchor="middle" x="53" y="-5.75" font-family="Helvetica,sans-Serif" font-size="10.00">_timer</text>
</a>
</g>
</g>
<!-- Node1&#45;&gt;Node1 -->
<g id="edge3_Node000001_Node000001" class="edge">
<title>Node1&#45;&gt;Node1</title>
<g id="a_edge3_Node000001_Node000001"><a xlink:title=" ">
<path fill="none" stroke="#63b8ff" d="M25.51,-30.99C19.9,-40.06 29.06,-48.5 53,-48.5 66.09,-48.5 74.76,-45.97 79.01,-42.2"/>
<polygon fill="#63b8ff" stroke="#63b8ff" points="82.46,-42.86 80.29,-32.49 75.52,-41.95 82.46,-42.86"/>
</a>
</g>
</g>
<!-- Node2 -->
<g id="Node000002" class="node">
<title>Node2</title>
<g id="a_Node000002"><a xlink:href="class_systems.html#a310d4de4ff4f8212b2ded614e411d102" target="_top" xlink:title=" ">
<polygon fill="white" stroke="#666666" points="274.25,-24.88 142,-24.88 142,-5.63 274.25,-5.63 274.25,-24.88"/>
<text text-anchor="middle" x="208.12" y="-11.38" font-family="Helvetica,sans-Serif" font-size="10.00">Systems::position_system</text>
</a>
</g>
</g>
<!-- Node1&#45;&gt;Node2 -->
<g id="edge1_Node000001_Node000002" class="edge">
<title>Node1&#45;&gt;Node2</title>
<g id="a_edge1_Node000001_Node000002"><a xlink:title=" ">
<path fill="none" stroke="#63b8ff" d="M106.27,-15.25C113.98,-15.25 122.06,-15.25 130.15,-15.25"/>
<polygon fill="#63b8ff" stroke="#63b8ff" points="130.04,-18.75 140.04,-15.25 130.04,-11.75 130.04,-18.75"/>
</a>
</g>
</g>
<!-- Node3 -->
<g id="Node000003" class="node">
<title>Node3</title>
<g id="a_Node000003"><a xlink:href="classregistry.html#a3866ee276a5a1d78d00cd403e8e8c7d9" target="_top" xlink:title=" ">
<polygon fill="white" stroke="#666666" points="436.5,-24.88 310.25,-24.88 310.25,-5.63 436.5,-5.63 436.5,-24.88"/>
<text text-anchor="middle" x="373.38" y="-11.38" font-family="Helvetica,sans-Serif" font-size="10.00">registry::get_components</text>
</a>
</g>
</g>
<!-- Node2&#45;&gt;Node3 -->
<g id="edge2_Node000002_Node000003" class="edge">
<title>Node2&#45;&gt;Node3</title>
<g id="a_edge2_Node000002_Node000003"><a xlink:title=" ">
<path fill="none" stroke="#63b8ff" d="M274.58,-15.25C282.39,-15.25 290.4,-15.25 298.32,-15.25"/>
<polygon fill="#63b8ff" stroke="#63b8ff" points="298.3,-18.75 308.3,-15.25 298.3,-11.75 298.3,-18.75"/>
</a>
</g>
</g>
</g>
</svg>
</svg>

<style type='text/css'>
<![CDATA[
[data-mouse-over-selected='false'] { opacity: 0.7; }
[data-mouse-over-selected='true']  { opacity: 1.0; }
]]>
</style>
<script type="application/ecmascript"><![CDATA[
document.addEventListener('DOMContentLoaded', (event) => {
  highlightEdges();
  highlightAdjacentNodes();
});
]]></script>
</svg>
