<?xml version="1.0" encoding="UTF-8" standalone="no"?>
<!DOCTYPE svg PUBLIC "-//W3C//DTD SVG 1.1//EN"
 "http://www.w3.org/Graphics/SVG/1.1/DTD/svg11.dtd">
<!-- Generated by graphviz version 12.2.1 (20241206.2353)
 -->
<!-- Title: Core::gui_game Pages: 1 -->
<svg width="828pt" height="1036pt"
 viewBox="0.00 0.00 828.25 1036.25" xmlns="http://www.w3.org/2000/svg" xmlns:xlink="http://www.w3.org/1999/xlink">
<g id="graph0" class="graph" transform="scale(1 1) rotate(0) translate(4 1032.25)">
<title>Core::gui_game</title>
<!-- Node1 -->
<g id="Node000001" class="node">
<title>Node1</title>
<g id="a_Node000001"><a xlink:title=" ">
<polygon fill="#999999" stroke="#666666" points="85,-253.25 0,-253.25 0,-234 85,-234 85,-253.25"/>
<text text-anchor="middle" x="42.5" y="-239.75" font-family="Helvetica,sans-Serif" font-size="10.00">Core::gui_game</text>
</a>
</g>
</g>
<!-- Node2 -->
<g id="Node000002" class="node">
<title>Node2</title>
<g id="a_Node000002"><a xlink:href="class_core.html#a554a2d7af7f9aefe0a66e89773e681b2" target="_top" xlink:title=" ">
<polygon fill="white" stroke="#666666" points="259.62,-873.25 141.62,-873.25 141.62,-854 259.62,-854 259.62,-873.25"/>
<text text-anchor="middle" x="200.62" y="-859.75" font-family="Helvetica,sans-Serif" font-size="10.00">Core::checkInvincibility</text>
</a>
</g>
</g>
<!-- Node1&#45;&gt;Node2 -->
<g id="edge1_Node000001_Node000002" class="edge">
<title>Node1&#45;&gt;Node2</title>
<g id="a_edge1_Node000001_Node000002"><a xlink:title=" ">
<path fill="none" stroke="#63b8ff" d="M43.29,-253.71C42.03,-325.13 37.97,-754.13 121,-845.62 124.04,-848.97 127.56,-851.76 131.39,-854.08"/>
<polygon fill="#63b8ff" stroke="#63b8ff" points="129.57,-857.09 140.1,-858.27 132.61,-850.78 129.57,-857.09"/>
</a>
</g>
</g>
<!-- Node3 -->
<g id="Node000003" class="node">
<title>Node3</title>
<g id="a_Node000003"><a xlink:href="class_core.html#a9493dc851e77126a1bc9c005ec499159" target="_top" xlink:title=" ">
<polygon fill="white" stroke="#666666" points="255.5,-836.25 145.75,-836.25 145.75,-817 255.5,-817 255.5,-836.25"/>
<text text-anchor="middle" x="200.62" y="-822.75" font-family="Helvetica,sans-Serif" font-size="10.00">Core::control_system</text>
</a>
</g>
</g>
<!-- Node1&#45;&gt;Node3 -->
<g id="edge2_Node000001_Node000003" class="edge">
<title>Node1&#45;&gt;Node3</title>
<g id="a_edge2_Node000001_Node000003"><a xlink:title=" ">
<path fill="none" stroke="#63b8ff" d="M45.73,-253.56C54.6,-292.83 88.41,-440.93 121,-561.62 145.7,-653.1 179.07,-761.1 193.04,-805.73"/>
<polygon fill="#63b8ff" stroke="#63b8ff" points="189.66,-806.63 195.99,-815.12 196.34,-804.53 189.66,-806.63"/>
</a>
</g>
</g>
<!-- Node6 -->
<g id="Node000006" class="node">
<title>Node6</title>
<g id="a_Node000006"><a xlink:href="class_core.html#aad563284176b829fa64177092388ef31" target="_top" xlink:title=" ">
<polygon fill="white" stroke="#666666" points="820.25,-793.25 714.25,-793.25 714.25,-774 820.25,-774 820.25,-793.25"/>
<text text-anchor="middle" x="767.25" y="-779.75" font-family="Helvetica,sans-Serif" font-size="10.00">Core::encode_action</text>
</a>
</g>
</g>
<!-- Node1&#45;&gt;Node6 -->
<g id="edge22_Node000001_Node000006" class="edge">
<title>Node1&#45;&gt;Node6</title>
<g id="a_edge22_Node000001_Node000006"><a xlink:title=" ">
<path fill="none" stroke="#63b8ff" d="M85.07,-243.61C212.69,-244.47 595.27,-254.18 678.25,-338.62 738.77,-400.21 760.18,-682.76 765.07,-762.57"/>
<polygon fill="#63b8ff" stroke="#63b8ff" points="761.55,-762.29 765.63,-772.07 768.54,-761.88 761.55,-762.29"/>
</a>
</g>
</g>
<!-- Node15 -->
<g id="Node000015" class="node">
<title>Node15</title>
<g id="a_Node000015"><a xlink:href="class_core.html#aa6b37e20d4a33fc29c07a9cd61f8a993" target="_top" xlink:title=" ">
<polygon fill="white" stroke="#666666" points="245,-234.25 156.25,-234.25 156.25,-215 245,-215 245,-234.25"/>
<text text-anchor="middle" x="200.62" y="-220.75" font-family="Helvetica,sans-Serif" font-size="10.00">Core::display_all</text>
</a>
</g>
</g>
<!-- Node1&#45;&gt;Node15 -->
<g id="edge20_Node000001_Node000015" class="edge">
<title>Node1&#45;&gt;Node15</title>
<g id="a_edge20_Node000001_Node000015"><a xlink:title=" ">
<path fill="none" stroke="#63b8ff" d="M85.34,-238.53C103.54,-236.32 125.11,-233.69 144.58,-231.32"/>
<polygon fill="#63b8ff" stroke="#63b8ff" points="144.75,-234.83 154.26,-230.15 143.91,-227.88 144.75,-234.83"/>
</a>
</g>
</g>
<!-- Node17 -->
<g id="Node000017" class="node">
<title>Node17</title>
<g id="a_Node000017"><a xlink:href="class_core.html#a39ca9509fdb72319509d1ec5a35e648b" target="_top" xlink:title=" ">
<polygon fill="white" stroke="#666666" points="649,-367.25 549,-367.25 549,-348 649,-348 649,-367.25"/>
<text text-anchor="middle" x="599" y="-353.75" font-family="Helvetica,sans-Serif" font-size="10.00">Core::gui_gamewin</text>
</a>
</g>
</g>
<!-- Node1&#45;&gt;Node17 -->
<g id="edge23_Node000001_Node000017" class="edge">
<title>Node1&#45;&gt;Node17</title>
<g id="a_edge23_Node000001_Node000017"><a xlink:title=" ">
<path fill="none" stroke="#63b8ff" d="M62.7,-253.62C78.06,-261.17 100.37,-271.13 121,-276.62 277.88,-318.4 325.3,-284.27 483.75,-319.62 510.45,-325.58 539.72,-335.38 561.94,-343.54"/>
<polygon fill="#63b8ff" stroke="#63b8ff" points="560.55,-346.75 571.14,-346.97 563,-340.2 560.55,-346.75"/>
</a>
</g>
</g>
<!-- Node18 -->
<g id="Node000018" class="node">
<title>Node18</title>
<g id="a_Node000018"><a xlink:href="class_core.html#aae2b137a9885ae1ac3d740786cfdcb34" target="_top" xlink:title=" ">
<polygon fill="white" stroke="#666666" points="275.75,-552.25 125.5,-552.25 125.5,-533 275.75,-533 275.75,-552.25"/>
<text text-anchor="middle" x="200.62" y="-538.75" font-family="Helvetica,sans-Serif" font-size="10.00">Core::handleServerCommands</text>
</a>
</g>
</g>
<!-- Node1&#45;&gt;Node18 -->
<g id="edge25_Node000001_Node000018" class="edge">
<title>Node1&#45;&gt;Node18</title>
<g id="a_edge25_Node000001_Node000018"><a xlink:title=" ">
<path fill="none" stroke="#63b8ff" d="M48.69,-253.57C70.97,-296.23 158.63,-464.12 189.11,-522.49"/>
<polygon fill="#63b8ff" stroke="#63b8ff" points="185.98,-524.05 193.71,-531.3 192.18,-520.81 185.98,-524.05"/>
</a>
</g>
</g>
<!-- Node36 -->
<g id="Node000036" class="node">
<title>Node36</title>
<g id="a_Node000036"><a xlink:href="class_core.html#a7598cae8d7f080449adeb642bec57f82" target="_top" xlink:title=" ">
<polygon fill="white" stroke="#666666" points="259.62,-197.25 141.62,-197.25 141.62,-178 259.62,-178 259.62,-197.25"/>
<text text-anchor="middle" x="200.62" y="-183.75" font-family="Helvetica,sans-Serif" font-size="10.00">Core::loadAssetsGame</text>
</a>
</g>
</g>
<!-- Node1&#45;&gt;Node36 -->
<g id="edge49_Node000001_Node000036" class="edge">
<title>Node1&#45;&gt;Node36</title>
<g id="a_edge49_Node000001_Node000036"><a xlink:title=" ">
<path fill="none" stroke="#63b8ff" d="M61.15,-233.5C76.54,-225.04 99.67,-213.18 121,-205.62 126.09,-203.82 131.44,-202.15 136.84,-200.62"/>
<polygon fill="#63b8ff" stroke="#63b8ff" points="137.73,-204 146.5,-198.05 135.93,-197.24 137.73,-204"/>
</a>
</g>
</g>
<!-- Node37 -->
<g id="Node000037" class="node">
<title>Node37</title>
<g id="a_Node000037"><a xlink:href="class_core.html#a60c2e3c959b9936a76fc4ece0c15c824" target="_top" xlink:title=" ">
<polygon fill="white" stroke="#666666" points="280.25,-160.25 121,-160.25 121,-141 280.25,-141 280.25,-160.25"/>
<text text-anchor="middle" x="200.62" y="-146.75" font-family="Helvetica,sans-Serif" font-size="10.00">Core::loadBlackAndWhiteShader</text>
</a>
</g>
</g>
<!-- Node1&#45;&gt;Node37 -->
<g id="edge50_Node000001_Node000037" class="edge">
<title>Node1&#45;&gt;Node37</title>
<g id="a_edge50_Node000001_Node000037"><a xlink:title=" ">
<path fill="none" stroke="#63b8ff" d="M50.85,-233.59C63.35,-217.3 90.39,-185.23 121,-168.62 123.68,-167.17 126.47,-165.84 129.33,-164.61"/>
<polygon fill="#63b8ff" stroke="#63b8ff" points="130.41,-167.94 138.54,-161.15 127.95,-161.39 130.41,-167.94"/>
</a>
</g>
</g>
<!-- Node38 -->
<g id="Node000038" class="node">
<title>Node38</title>
<g id="a_Node000038"><a xlink:href="class_core.html#a87bcabef342dd958994c72d7a6f90893" target="_top" xlink:title=" ">
<polygon fill="white" stroke="#666666" points="268.62,-123.25 132.62,-123.25 132.62,-104 268.62,-104 268.62,-123.25"/>
<text text-anchor="middle" x="200.62" y="-109.75" font-family="Helvetica,sans-Serif" font-size="10.00">Core::loadDaltonismShader</text>
</a>
</g>
</g>
<!-- Node1&#45;&gt;Node38 -->
<g id="edge51_Node000001_Node000038" class="edge">
<title>Node1&#45;&gt;Node38</title>
<g id="a_edge51_Node000001_Node000038"><a xlink:title=" ">
<path fill="none" stroke="#63b8ff" d="M47.38,-233.7C56.57,-211.59 81.84,-158.14 121,-131.62 122.59,-130.55 124.24,-129.53 125.94,-128.57"/>
<polygon fill="#63b8ff" stroke="#63b8ff" points="127.18,-131.86 134.7,-124.39 124.17,-125.54 127.18,-131.86"/>
</a>
</g>
</g>
<!-- Node39 -->
<g id="Node000039" class="node">
<title>Node39</title>
<g id="a_Node000039"><a xlink:href="class_core.html#a29ffabe78710e79a74cdcb1bebe48c72" target="_top" xlink:title=" ">
<polygon fill="white" stroke="#666666" points="253.62,-67.88 147.62,-67.88 147.62,-37.38 253.62,-37.38 253.62,-67.88"/>
<text text-anchor="start" x="155.62" y="-54.38" font-family="Helvetica,sans-Serif" font-size="10.00">Core::setup_position</text>
<text text-anchor="middle" x="200.62" y="-43.12" font-family="Helvetica,sans-Serif" font-size="10.00">_timer</text>
</a>
</g>
</g>
<!-- Node1&#45;&gt;Node39 -->
<g id="edge52_Node000001_Node000039" class="edge">
<title>Node1&#45;&gt;Node39</title>
<g id="a_edge52_Node000001_Node000039"><a xlink:title=" ">
<path fill="none" stroke="#63b8ff" d="M46.38,-233.68C54.32,-207.79 78.76,-137.33 121,-94.62 129.08,-86.46 139.09,-79.49 149.22,-73.72"/>
<polygon fill="#63b8ff" stroke="#63b8ff" points="150.81,-76.84 158,-69.06 147.53,-70.66 150.81,-76.84"/>
</a>
</g>
</g>
<!-- Node42 -->
<g id="Node000042" class="node">
<title>Node42</title>
<g id="a_Node000042"><a xlink:href="class_core.html#add546b58affbab300bbc14b34b7f091e" target="_top" xlink:title=" ">
<polygon fill="white" stroke="#666666" points="247.25,-19.25 154,-19.25 154,0 247.25,0 247.25,-19.25"/>
<text text-anchor="middle" x="200.62" y="-5.75" font-family="Helvetica,sans-Serif" font-size="10.00">Core::update_hud</text>
</a>
</g>
</g>
<!-- Node1&#45;&gt;Node42 -->
<g id="edge56_Node000001_Node000042" class="edge">
<title>Node1&#45;&gt;Node42</title>
<g id="a_edge56_Node000001_Node000042"><a xlink:title=" ">
<path fill="none" stroke="#63b8ff" d="M43.91,-233.71C45.89,-199.57 57.19,-85.84 121,-28.62 127.18,-23.08 134.7,-19.09 142.61,-16.22"/>
<polygon fill="#63b8ff" stroke="#63b8ff" points="143.51,-19.6 152.1,-13.4 141.52,-12.89 143.51,-19.6"/>
</a>
</g>
</g>
<!-- Node4 -->
<g id="Node000004" class="node">
<title>Node4</title>
<g id="a_Node000004"><a xlink:href="class_core.html#a63200a1cc9505da6942f9bd7642df237" target="_top" xlink:title=" ">
<polygon fill="white" stroke="#666666" points="459.38,-841.88 340.62,-841.88 340.62,-811.38 459.38,-811.38 459.38,-841.88"/>
<text text-anchor="start" x="348.62" y="-828.38" font-family="Helvetica,sans-Serif" font-size="10.00">Core::handle_horizontal</text>
<text text-anchor="middle" x="400" y="-817.12" font-family="Helvetica,sans-Serif" font-size="10.00">_movement</text>
</a>
</g>
</g>
<!-- Node3&#45;&gt;Node4 -->
<g id="edge3_Node000003_Node000004" class="edge">
<title>Node3&#45;&gt;Node4</title>
<g id="a_edge3_Node000003_Node000004"><a xlink:title=" ">
<path fill="none" stroke="#63b8ff" d="M255.82,-826.62C278.48,-826.62 305.1,-826.62 329.19,-826.62"/>
<polygon fill="#63b8ff" stroke="#63b8ff" points="328.92,-830.13 338.92,-826.63 328.92,-823.13 328.92,-830.13"/>
</a>
</g>
</g>
<!-- Node8 -->
<g id="Node000008" class="node">
<title>Node8</title>
<g id="a_Node000008"><a xlink:href="class_core.html#ac8463d54a65aacc36654e1dcd96166b9" target="_top" xlink:title=" ">
<polygon fill="white" stroke="#666666" points="450.38,-879.25 349.62,-879.25 349.62,-860 450.38,-860 450.38,-879.25"/>
<text text-anchor="middle" x="400" y="-865.75" font-family="Helvetica,sans-Serif" font-size="10.00">Core::handle_shoot</text>
</a>
</g>
</g>
<!-- Node3&#45;&gt;Node8 -->
<g id="edge8_Node000003_Node000008" class="edge">
<title>Node3&#45;&gt;Node8</title>
<g id="a_edge8_Node000003_Node000008"><a xlink:title=" ">
<path fill="none" stroke="#63b8ff" d="M247.9,-836.71C275.89,-842.8 311.8,-850.63 341.58,-857.12"/>
<polygon fill="#63b8ff" stroke="#63b8ff" points="340.68,-860.5 351.19,-859.21 342.17,-853.66 340.68,-860.5"/>
</a>
</g>
</g>
<!-- Node9 -->
<g id="Node000009" class="node">
<title>Node9</title>
<g id="a_Node000009"><a xlink:href="class_core.html#a7a1438f7b147b90acbe4130458a3048c" target="_top" xlink:title=" ">
<polygon fill="white" stroke="#666666" points="454.12,-943.88 345.88,-943.88 345.88,-913.38 454.12,-913.38 454.12,-943.88"/>
<text text-anchor="start" x="353.88" y="-930.38" font-family="Helvetica,sans-Serif" font-size="10.00">Core::handle_vertical</text>
<text text-anchor="middle" x="400" y="-919.12" font-family="Helvetica,sans-Serif" font-size="10.00">_movement</text>
</a>
</g>
</g>
<!-- Node3&#45;&gt;Node9 -->
<g id="edge10_Node000003_Node000009" class="edge">
<title>Node3&#45;&gt;Node9</title>
<g id="a_edge10_Node000003_Node000009"><a xlink:title=" ">
<path fill="none" stroke="#63b8ff" d="M255.94,-834.09C264.46,-836.63 272.87,-840.05 280.25,-844.62 301.72,-857.94 296.41,-872.98 316.25,-888.62 325.65,-896.04 336.65,-902.54 347.5,-908.03"/>
<polygon fill="#63b8ff" stroke="#63b8ff" points="345.91,-911.15 356.44,-912.33 348.94,-904.84 345.91,-911.15"/>
</a>
</g>
</g>
<!-- Node5 -->
<g id="Node000005" class="node">
<title>Node5</title>
<g id="a_Node000005"><a xlink:href="class_core.html#a5bf4669d69fe8e52f0c41dff71c2c592" target="_top" xlink:title=" ">
<polygon fill="white" stroke="#666666" points="670.38,-831.25 527.62,-831.25 527.62,-812 670.38,-812 670.38,-831.25"/>
<text text-anchor="middle" x="599" y="-817.75" font-family="Helvetica,sans-Serif" font-size="10.00">Core::handle_horizontal_stop</text>
</a>
</g>
</g>
<!-- Node4&#45;&gt;Node5 -->
<g id="edge4_Node000004_Node000005" class="edge">
<title>Node4&#45;&gt;Node5</title>
<g id="a_edge4_Node000004_Node000005"><a xlink:title=" ">
<path fill="none" stroke="#63b8ff" d="M459.84,-825.13C477.48,-824.68 497.16,-824.18 516.01,-823.71"/>
<polygon fill="#63b8ff" stroke="#63b8ff" points="515.87,-827.21 525.78,-823.46 515.7,-820.21 515.87,-827.21"/>
</a>
</g>
</g>
<!-- Node7 -->
<g id="Node000007" class="node">
<title>Node7</title>
<g id="a_Node000007"><a xlink:href="class_core.html#a76ad333a648e0e20b1b12fb5a416774c" target="_top" xlink:title=" ">
<polygon fill="white" stroke="#666666" points="649.38,-879.88 548.62,-879.88 548.62,-849.38 649.38,-849.38 649.38,-879.88"/>
<text text-anchor="start" x="556.62" y="-866.38" font-family="Helvetica,sans-Serif" font-size="10.00">Core::send_input_if</text>
<text text-anchor="middle" x="599" y="-855.12" font-family="Helvetica,sans-Serif" font-size="10.00">_needed</text>
</a>
</g>
</g>
<!-- Node4&#45;&gt;Node7 -->
<g id="edge6_Node000004_Node000007" class="edge">
<title>Node4&#45;&gt;Node7</title>
<g id="a_edge6_Node000004_Node000007"><a xlink:title=" ">
<path fill="none" stroke="#63b8ff" d="M459.84,-837.97C484.32,-842.7 512.73,-848.18 537.39,-852.93"/>
<polygon fill="#63b8ff" stroke="#63b8ff" points="536.47,-856.32 546.95,-854.78 537.79,-849.45 536.47,-856.32"/>
</a>
</g>
</g>
<!-- Node5&#45;&gt;Node6 -->
<g id="edge5_Node000005_Node000006" class="edge">
<title>Node5&#45;&gt;Node6</title>
<g id="a_edge5_Node000005_Node000006"><a xlink:title=" ">
<path fill="none" stroke="#63b8ff" d="M644.12,-811.54C664.68,-806.84 689.36,-801.2 711.13,-796.22"/>
<polygon fill="#63b8ff" stroke="#63b8ff" points="711.77,-799.67 720.74,-794.03 710.21,-792.84 711.77,-799.67"/>
</a>
</g>
</g>
<!-- Node7&#45;&gt;Node6 -->
<g id="edge7_Node000007_Node000006" class="edge">
<title>Node7&#45;&gt;Node6</title>
<g id="a_edge7_Node000007_Node000006"><a xlink:title=" ">
<path fill="none" stroke="#63b8ff" d="M649.62,-851.68C659.3,-848.53 669.23,-844.83 678.25,-840.62 701.97,-829.57 726.81,-812.95 744.02,-800.51"/>
<polygon fill="#63b8ff" stroke="#63b8ff" points="746.02,-803.38 751.99,-794.63 741.86,-797.75 746.02,-803.38"/>
</a>
</g>
</g>
<!-- Node8&#45;&gt;Node7 -->
<g id="edge9_Node000008_Node000007" class="edge">
<title>Node8&#45;&gt;Node7</title>
<g id="a_edge9_Node000008_Node000007"><a xlink:title=" ">
<path fill="none" stroke="#63b8ff" d="M450.71,-868.36C476.96,-867.7 509.39,-866.87 537.13,-866.17"/>
<polygon fill="#63b8ff" stroke="#63b8ff" points="536.88,-869.68 546.79,-865.92 536.71,-862.68 536.88,-869.68"/>
</a>
</g>
</g>
<!-- Node9&#45;&gt;Node7 -->
<g id="edge19_Node000009_Node000007" class="edge">
<title>Node9&#45;&gt;Node7</title>
<g id="a_edge19_Node000009_Node000007"><a xlink:title=" ">
<path fill="none" stroke="#63b8ff" d="M446.58,-912.95C468.63,-905.44 495.52,-896.42 519.75,-888.62 525.5,-886.78 531.5,-884.88 537.5,-883"/>
<polygon fill="#63b8ff" stroke="#63b8ff" points="538.31,-886.42 546.82,-880.11 536.23,-879.73 538.31,-886.42"/>
</a>
</g>
</g>
<!-- Node10 -->
<g id="Node000010" class="node">
<title>Node10</title>
<g id="a_Node000010"><a xlink:href="class_core.html#a1ae796fe1ad262de4484a8838fa53c48" target="_top" xlink:title=" ">
<polygon fill="white" stroke="#666666" points="652,-1028.25 546,-1028.25 546,-1009 652,-1009 652,-1028.25"/>
<text text-anchor="middle" x="599" y="-1014.75" font-family="Helvetica,sans-Serif" font-size="10.00">Core::animate_down</text>
</a>
</g>
</g>
<!-- Node9&#45;&gt;Node10 -->
<g id="edge11_Node000009_Node000010" class="edge">
<title>Node9&#45;&gt;Node10</title>
<g id="a_edge11_Node000009_Node000010"><a xlink:title=" ">
<path fill="none" stroke="#63b8ff" d="M421.79,-944.08C444.68,-960.39 483.11,-985.75 519.75,-1000.62 524.58,-1002.59 529.67,-1004.36 534.84,-1005.96"/>
<polygon fill="#63b8ff" stroke="#63b8ff" points="533.48,-1009.21 544.05,-1008.58 535.39,-1002.47 533.48,-1009.21"/>
</a>
</g>
</g>
<!-- Node12 -->
<g id="Node000012" class="node">
<title>Node12</title>
<g id="a_Node000012"><a xlink:href="class_core.html#a5c24c3d1aa2061ee09283ffe7943e256" target="_top" xlink:title=" ">
<polygon fill="white" stroke="#666666" points="661.75,-991.25 536.25,-991.25 536.25,-972 661.75,-972 661.75,-991.25"/>
<text text-anchor="middle" x="599" y="-977.75" font-family="Helvetica,sans-Serif" font-size="10.00">Core::animate_to_neutral</text>
</a>
</g>
</g>
<!-- Node9&#45;&gt;Node12 -->
<g id="edge13_Node000009_Node000012" class="edge">
<title>Node9&#45;&gt;Node12</title>
<g id="a_edge13_Node000009_Node000012"><a xlink:title=" ">
<path fill="none" stroke="#63b8ff" d="M451.66,-944.29C472.65,-950.59 497.3,-957.74 519.75,-963.62 526.56,-965.41 533.74,-967.19 540.86,-968.9"/>
<polygon fill="#63b8ff" stroke="#63b8ff" points="539.95,-972.28 550.48,-971.17 541.56,-965.47 539.95,-972.28"/>
</a>
</g>
</g>
<!-- Node13 -->
<g id="Node000013" class="node">
<title>Node13</title>
<g id="a_Node000013"><a xlink:href="class_core.html#a32360bca0d21983d2d9b920229144fab" target="_top" xlink:title=" ">
<polygon fill="white" stroke="#666666" points="645.62,-954.25 552.38,-954.25 552.38,-935 645.62,-935 645.62,-954.25"/>
<text text-anchor="middle" x="599" y="-940.75" font-family="Helvetica,sans-Serif" font-size="10.00">Core::animate_up</text>
</a>
</g>
</g>
<!-- Node9&#45;&gt;Node13 -->
<g id="edge15_Node000009_Node000013" class="edge">
<title>Node9&#45;&gt;Node13</title>
<g id="a_edge15_Node000009_Node000013"><a xlink:title=" ">
<path fill="none" stroke="#63b8ff" d="M454.57,-932.98C481.29,-935.15 513.62,-937.77 540.82,-939.98"/>
<polygon fill="#63b8ff" stroke="#63b8ff" points="540.37,-943.46 550.62,-940.78 540.94,-936.48 540.37,-943.46"/>
</a>
</g>
</g>
<!-- Node14 -->
<g id="Node000014" class="node">
<title>Node14</title>
<g id="a_Node000014"><a xlink:href="class_core.html#a358f46d664d8eaa3680ec8de58a0fa1e" target="_top" xlink:title=" ">
<polygon fill="white" stroke="#666666" points="665.12,-917.25 532.88,-917.25 532.88,-898 665.12,-898 665.12,-917.25"/>
<text text-anchor="middle" x="599" y="-903.75" font-family="Helvetica,sans-Serif" font-size="10.00">Core::handle_vertical_stop</text>
</a>
</g>
</g>
<!-- Node9&#45;&gt;Node14 -->
<g id="edge17_Node000009_Node000014" class="edge">
<title>Node9&#45;&gt;Node14</title>
<g id="a_edge17_Node000009_Node000014"><a xlink:title=" ">
<path fill="none" stroke="#63b8ff" d="M454.57,-922.91C475.14,-920.72 499.03,-918.18 521.35,-915.8"/>
<polygon fill="#63b8ff" stroke="#63b8ff" points="521.42,-919.31 530.99,-914.77 520.68,-912.35 521.42,-919.31"/>
</a>
</g>
</g>
<!-- Node11 -->
<g id="Node000011" class="node">
<title>Node11</title>
<g id="a_Node000011"><a xlink:href="class_core.html#ae37ec3409102a80e9958b8c2910f16ef" target="_top" xlink:title=" ">
<polygon fill="white" stroke="#666666" points="818,-996.88 716.5,-996.88 716.5,-966.38 818,-966.38 818,-996.88"/>
<text text-anchor="start" x="724.5" y="-983.38" font-family="Helvetica,sans-Serif" font-size="10.00">Core::update_sprite</text>
<text text-anchor="middle" x="767.25" y="-972.12" font-family="Helvetica,sans-Serif" font-size="10.00">_frame</text>
</a>
</g>
</g>
<!-- Node10&#45;&gt;Node11 -->
<g id="edge12_Node000010_Node000011" class="edge">
<title>Node10&#45;&gt;Node11</title>
<g id="a_edge12_Node000010_Node000011"><a xlink:title=" ">
<path fill="none" stroke="#63b8ff" d="M645.43,-1008.51C663.84,-1004.42 685.38,-999.62 705.13,-995.23"/>
<polygon fill="#63b8ff" stroke="#63b8ff" points="705.72,-998.68 714.72,-993.09 704.2,-991.85 705.72,-998.68"/>
</a>
</g>
</g>
<!-- Node12&#45;&gt;Node11 -->
<g id="edge14_Node000012_Node000011" class="edge">
<title>Node12&#45;&gt;Node11</title>
<g id="a_edge14_Node000012_Node000011"><a xlink:title=" ">
<path fill="none" stroke="#63b8ff" d="M661.91,-981.62C675.9,-981.62 690.75,-981.62 704.73,-981.62"/>
<polygon fill="#63b8ff" stroke="#63b8ff" points="704.71,-985.13 714.71,-981.63 704.71,-978.13 704.71,-985.13"/>
</a>
</g>
</g>
<!-- Node13&#45;&gt;Node11 -->
<g id="edge16_Node000013_Node000011" class="edge">
<title>Node13&#45;&gt;Node11</title>
<g id="a_edge16_Node000013_Node000011"><a xlink:title=" ">
<path fill="none" stroke="#63b8ff" d="M645.43,-954.74C663.84,-958.83 685.38,-963.63 705.13,-968.02"/>
<polygon fill="#63b8ff" stroke="#63b8ff" points="704.2,-971.4 714.72,-970.16 705.72,-964.57 704.2,-971.4"/>
</a>
</g>
</g>
<!-- Node14&#45;&gt;Node6 -->
<g id="edge18_Node000014_Node000006" class="edge">
<title>Node14&#45;&gt;Node6</title>
<g id="a_edge18_Node000014_Node000006"><a xlink:title=" ">
<path fill="none" stroke="#63b8ff" d="M659.33,-897.54C665.97,-895.17 672.43,-892.24 678.25,-888.62 712.94,-867.08 740.69,-827.2 755.19,-803.27"/>
<polygon fill="#63b8ff" stroke="#63b8ff" points="758.1,-805.23 760.14,-794.83 752.07,-801.69 758.1,-805.23"/>
</a>
</g>
</g>
<!-- Node16 -->
<g id="Node000016" class="node">
<title>Node16</title>
<g id="a_Node000016"><a xlink:href="class_core.html#ae4b485ff1d26a87dbfb1f94051e1f902" target="_top" xlink:title=" ">
<polygon fill="white" stroke="#666666" points="463.5,-234.25 336.5,-234.25 336.5,-215 463.5,-215 463.5,-234.25"/>
<text text-anchor="middle" x="400" y="-220.75" font-family="Helvetica,sans-Serif" font-size="10.00">Core::displayRegistryInfo</text>
</a>
</g>
</g>
<!-- Node15&#45;&gt;Node16 -->
<g id="edge21_Node000015_Node000016" class="edge">
<title>Node15&#45;&gt;Node16</title>
<g id="a_edge21_Node000015_Node000016"><a xlink:title=" ">
<path fill="none" stroke="#63b8ff" d="M245.43,-224.62C268.78,-224.62 298.15,-224.62 324.93,-224.62"/>
<polygon fill="#63b8ff" stroke="#63b8ff" points="324.71,-228.13 334.71,-224.63 324.71,-221.13 324.71,-228.13"/>
</a>
</g>
</g>
<!-- Node17&#45;&gt;Node6 -->
<g id="edge24_Node000017_Node000006" class="edge">
<title>Node17&#45;&gt;Node6</title>
<g id="a_edge24_Node000017_Node000006"><a xlink:title=" ">
<path fill="none" stroke="#63b8ff" d="M649.4,-360.3C660.1,-363.07 670.52,-367.78 678.25,-375.62 733.57,-431.71 758.4,-686.82 764.63,-762.44"/>
<polygon fill="#63b8ff" stroke="#63b8ff" points="761.12,-762.49 765.4,-772.18 768.1,-761.93 761.12,-762.49"/>
</a>
</g>
</g>
<!-- Node18&#45;&gt;Node6 -->
<g id="edge26_Node000018_Node000006" class="edge">
<title>Node18&#45;&gt;Node6</title>
<g id="a_edge26_Node000018_Node000006"><a xlink:title=" ">
<path fill="none" stroke="#63b8ff" d="M203.23,-552.73C209.59,-589.11 236.73,-713.86 316.25,-764.62 378.49,-804.36 593.83,-795.81 702.48,-788.59"/>
<polygon fill="#63b8ff" stroke="#63b8ff" points="702.68,-792.08 712.41,-787.91 702.2,-785.1 702.68,-792.08"/>
</a>
</g>
</g>
<!-- Node19 -->
<g id="Node000019" class="node">
<title>Node19</title>
<g id="a_Node000019"><a xlink:href="class_core.html#a402d54bcd5820fda94013f08a54fe394" target="_top" xlink:title=" ">
<polygon fill="white" stroke="#666666" points="477,-422.25 323,-422.25 323,-403 477,-403 477,-422.25"/>
<text text-anchor="middle" x="400" y="-408.75" font-family="Helvetica,sans-Serif" font-size="10.00">Core::handleCollisionCommand</text>
</a>
</g>
</g>
<!-- Node18&#45;&gt;Node19 -->
<g id="edge27_Node000018_Node000019" class="edge">
<title>Node18&#45;&gt;Node19</title>
<g id="a_edge27_Node000018_Node000019"><a xlink:title=" ">
<path fill="none" stroke="#63b8ff" d="M208.65,-532.68C224.85,-510.53 267.26,-457.01 316.25,-430.62 318.95,-429.17 321.76,-427.84 324.64,-426.61"/>
<polygon fill="#63b8ff" stroke="#63b8ff" points="325.76,-429.92 333.91,-423.15 323.32,-423.37 325.76,-429.92"/>
</a>
</g>
</g>
<!-- Node24 -->
<g id="Node000024" class="node">
<title>Node24</title>
<g id="a_Node000024"><a xlink:href="class_core.html#a38f36a0900fda03c200f0b900d25af9f" target="_top" xlink:title=" ">
<polygon fill="white" stroke="#666666" points="476.62,-681.25 323.38,-681.25 323.38,-662 476.62,-662 476.62,-681.25"/>
<text text-anchor="middle" x="400" y="-667.75" font-family="Helvetica,sans-Serif" font-size="10.00">Core::handleConnectCommand</text>
</a>
</g>
</g>
<!-- Node18&#45;&gt;Node24 -->
<g id="edge33_Node000018_Node000024" class="edge">
<title>Node18&#45;&gt;Node24</title>
<g id="a_edge33_Node000018_Node000024"><a xlink:title=" ">
<path fill="none" stroke="#63b8ff" d="M208.67,-552.48C224.92,-574.43 267.41,-627.46 316.25,-653.62 318.95,-655.07 321.76,-656.4 324.64,-657.63"/>
<polygon fill="#63b8ff" stroke="#63b8ff" points="323.33,-660.87 333.92,-661.08 325.77,-654.31 323.33,-660.87"/>
</a>
</g>
</g>
<!-- Node25 -->
<g id="Node000025" class="node">
<title>Node25</title>
<g id="a_Node000025"><a xlink:href="class_core.html#a6336489bf72426dc2c618a61832238ce" target="_top" xlink:title=" ">
<polygon fill="white" stroke="#666666" points="471.38,-718.25 328.62,-718.25 328.62,-699 471.38,-699 471.38,-718.25"/>
<text text-anchor="middle" x="400" y="-704.75" font-family="Helvetica,sans-Serif" font-size="10.00">Core::handleDeathCommand</text>
</a>
</g>
</g>
<!-- Node18&#45;&gt;Node25 -->
<g id="edge34_Node000018_Node000025" class="edge">
<title>Node18&#45;&gt;Node25</title>
<g id="a_edge34_Node000018_Node000025"><a xlink:title=" ">
<path fill="none" stroke="#63b8ff" d="M206.17,-552.48C219.14,-579.39 259.08,-654.55 316.25,-690.62 318.11,-691.8 320.05,-692.9 322.03,-693.93"/>
<polygon fill="#63b8ff" stroke="#63b8ff" points="320.36,-697.02 330.92,-697.89 323.21,-690.63 320.36,-697.02"/>
</a>
</g>
</g>
<!-- Node27 -->
<g id="Node000027" class="node">
<title>Node27</title>
<g id="a_Node000027"><a xlink:href="class_core.html#a7c67115737d781142c2e45bee998daac" target="_top" xlink:title=" ">
<polygon fill="white" stroke="#666666" points="483,-755.25 317,-755.25 317,-736 483,-736 483,-755.25"/>
<text text-anchor="middle" x="400" y="-741.75" font-family="Helvetica,sans-Serif" font-size="10.00">Core::handleDisconnectCommand</text>
</a>
</g>
</g>
<!-- Node18&#45;&gt;Node27 -->
<g id="edge37_Node000018_Node000027" class="edge">
<title>Node18&#45;&gt;Node27</title>
<g id="a_edge37_Node000018_Node000027"><a xlink:title=" ">
<path fill="none" stroke="#63b8ff" d="M204.68,-552.6C214.82,-583.95 250.52,-681.18 316.25,-727.62 317.64,-728.61 319.07,-729.54 320.54,-730.41"/>
<polygon fill="#63b8ff" stroke="#63b8ff" points="318.83,-733.48 329.34,-734.85 321.99,-727.23 318.83,-733.48"/>
</a>
</g>
</g>
<!-- Node28 -->
<g id="Node000028" class="node">
<title>Node28</title>
<g id="a_Node000028"><a xlink:href="class_core.html#a5db2bb533195df4af29c23d833e5a061" target="_top" xlink:title=" ">
<polygon fill="white" stroke="#666666" points="480.38,-644.25 319.62,-644.25 319.62,-625 480.38,-625 480.38,-644.25"/>
<text text-anchor="middle" x="400" y="-630.75" font-family="Helvetica,sans-Serif" font-size="10.00">Core::handleMobShootCommand</text>
</a>
</g>
</g>
<!-- Node18&#45;&gt;Node28 -->
<g id="edge39_Node000018_Node000028" class="edge">
<title>Node18&#45;&gt;Node28</title>
<g id="a_edge39_Node000018_Node000028"><a xlink:title=" ">
<path fill="none" stroke="#63b8ff" d="M213.85,-552.66C233.94,-568.65 275.78,-599.81 316.25,-616.62 320.53,-618.4 325,-620.01 329.57,-621.47"/>
<polygon fill="#63b8ff" stroke="#63b8ff" points="328.29,-624.75 338.87,-624.19 330.25,-618.03 328.29,-624.75"/>
</a>
</g>
</g>
<!-- Node29 -->
<g id="Node000029" class="node">
<title>Node29</title>
<g id="a_Node000029"><a xlink:href="class_core.html#a886c451a25e2e20ec3b5917250601f3d" target="_top" xlink:title=" ">
<polygon fill="white" stroke="#666666" points="482.62,-607.25 317.38,-607.25 317.38,-588 482.62,-588 482.62,-607.25"/>
<text text-anchor="middle" x="400" y="-593.75" font-family="Helvetica,sans-Serif" font-size="10.00">Core::handleMobSpawnCommand</text>
</a>
</g>
</g>
<!-- Node18&#45;&gt;Node29 -->
<g id="edge40_Node000018_Node000029" class="edge">
<title>Node18&#45;&gt;Node29</title>
<g id="a_edge40_Node000018_Node000029"><a xlink:title=" ">
<path fill="none" stroke="#63b8ff" d="M230.13,-552.69C253.18,-560.61 286.57,-571.63 316.25,-579.62 323.23,-581.5 330.57,-583.33 337.89,-585.04"/>
<polygon fill="#63b8ff" stroke="#63b8ff" points="336.92,-588.41 347.45,-587.22 338.48,-581.59 336.92,-588.41"/>
</a>
</g>
</g>
<!-- Node30 -->
<g id="Node000030" class="node">
<title>Node30</title>
<g id="a_Node000030"><a xlink:href="class_core.html#a18c325c19760f36a20ba7372ab9c69cd" target="_top" xlink:title=" ">
<polygon fill="white" stroke="#666666" points="470.25,-570.25 329.75,-570.25 329.75,-551 470.25,-551 470.25,-570.25"/>
<text text-anchor="middle" x="400" y="-556.75" font-family="Helvetica,sans-Serif" font-size="10.00">Core::handleMoveCommand</text>
</a>
</g>
</g>
<!-- Node18&#45;&gt;Node30 -->
<g id="edge41_Node000018_Node000030" class="edge">
<title>Node18&#45;&gt;Node30</title>
<g id="a_edge41_Node000018_Node000030"><a xlink:title=" ">
<path fill="none" stroke="#63b8ff" d="M276.24,-549.43C290.03,-550.69 304.48,-552 318.42,-553.28"/>
<polygon fill="#63b8ff" stroke="#63b8ff" points="317.7,-556.72 327.98,-554.15 318.33,-549.75 317.7,-556.72"/>
</a>
</g>
</g>
<!-- Node31 -->
<g id="Node000031" class="node">
<title>Node31</title>
<g id="a_Node000031"><a xlink:href="class_core.html#a54f1d074e15b44725e628aa9367ef985" target="_top" xlink:title=" ">
<polygon fill="white" stroke="#666666" points="483.75,-533.25 316.25,-533.25 316.25,-514 483.75,-514 483.75,-533.25"/>
<text text-anchor="middle" x="400" y="-519.75" font-family="Helvetica,sans-Serif" font-size="10.00">Core::handleMovementCommands</text>
</a>
</g>
</g>
<!-- Node18&#45;&gt;Node31 -->
<g id="edge42_Node000018_Node000031" class="edge">
<title>Node18&#45;&gt;Node31</title>
<g id="a_edge42_Node000018_Node000031"><a xlink:title=" ">
<path fill="none" stroke="#63b8ff" d="M276.24,-535.44C285.58,-534.54 295.22,-533.61 304.81,-532.69"/>
<polygon fill="#63b8ff" stroke="#63b8ff" points="304.89,-536.2 314.51,-531.76 304.22,-529.23 304.89,-536.2"/>
</a>
</g>
</g>
<!-- Node32 -->
<g id="Node000032" class="node">
<title>Node32</title>
<g id="a_Node000032"><a xlink:href="class_core.html#ab225cc2ef8539bcf400e02e46d16f7a1" target="_top" xlink:title=" ">
<polygon fill="white" stroke="#666666" points="478.5,-496.25 321.5,-496.25 321.5,-477 478.5,-477 478.5,-496.25"/>
<text text-anchor="middle" x="400" y="-482.75" font-family="Helvetica,sans-Serif" font-size="10.00">Core::handlePowerUpCommand</text>
</a>
</g>
</g>
<!-- Node18&#45;&gt;Node32 -->
<g id="edge43_Node000018_Node000032" class="edge">
<title>Node18&#45;&gt;Node32</title>
<g id="a_edge43_Node000018_Node000032"><a xlink:title=" ">
<path fill="none" stroke="#63b8ff" d="M229.17,-532.58C252.23,-524.39 286.12,-512.87 316.25,-504.62 323.04,-502.77 330.19,-500.97 337.33,-499.28"/>
<polygon fill="#63b8ff" stroke="#63b8ff" points="338.03,-502.71 346.99,-497.06 336.46,-495.89 338.03,-502.71"/>
</a>
</g>
</g>
<!-- Node33 -->
<g id="Node000033" class="node">
<title>Node33</title>
<g id="a_Node000033"><a xlink:href="class_core.html#aa792853f5ed5d5c6248e20fad821f6ca" target="_top" xlink:title=" ">
<polygon fill="white" stroke="#666666" points="473.62,-459.25 326.38,-459.25 326.38,-440 473.62,-440 473.62,-459.25"/>
<text text-anchor="middle" x="400" y="-445.75" font-family="Helvetica,sans-Serif" font-size="10.00">Core::handleShootCommands</text>
</a>
</g>
</g>
<!-- Node18&#45;&gt;Node33 -->
<g id="edge44_Node000018_Node000033" class="edge">
<title>Node18&#45;&gt;Node33</title>
<g id="a_edge44_Node000018_Node000033"><a xlink:title=" ">
<path fill="none" stroke="#63b8ff" d="M213.5,-532.7C233.43,-516.57 275.45,-484.72 316.25,-467.62 320.33,-465.92 324.59,-464.36 328.94,-462.94"/>
<polygon fill="#63b8ff" stroke="#63b8ff" points="329.81,-466.34 338.41,-460.14 327.83,-459.62 329.81,-466.34"/>
</a>
</g>
</g>
<!-- Node34 -->
<g id="Node000034" class="node">
<title>Node34</title>
<g id="a_Node000034"><a xlink:href="class_core.html#a3b2840725a18b5e49614dd429f449289" target="_top" xlink:title=" ">
<polygon fill="white" stroke="#666666" points="468.75,-348.25 331.25,-348.25 331.25,-329 468.75,-329 468.75,-348.25"/>
<text text-anchor="middle" x="400" y="-334.75" font-family="Helvetica,sans-Serif" font-size="10.00">Core::handleStartCommand</text>
</a>
</g>
</g>
<!-- Node18&#45;&gt;Node34 -->
<g id="edge45_Node000018_Node000034" class="edge">
<title>Node18&#45;&gt;Node34</title>
<g id="a_edge45_Node000018_Node000034"><a xlink:title=" ">
<path fill="none" stroke="#63b8ff" d="M204.66,-532.6C214.75,-501.08 250.32,-403.33 316.25,-356.62 317.82,-355.51 319.44,-354.47 321.11,-353.49"/>
<polygon fill="#63b8ff" stroke="#63b8ff" points="322.34,-356.78 329.74,-349.2 319.23,-350.52 322.34,-356.78"/>
</a>
</g>
</g>
<!-- Node35 -->
<g id="Node000035" class="node">
<title>Node35</title>
<g id="a_Node000035"><a xlink:href="class_core.html#a99550195181899dc74f311dec7d3df4e" target="_top" xlink:title=" ">
<polygon fill="white" stroke="#666666" points="466.88,-385.25 333.12,-385.25 333.12,-366 466.88,-366 466.88,-385.25"/>
<text text-anchor="middle" x="400" y="-371.75" font-family="Helvetica,sans-Serif" font-size="10.00">Core::handleWinCommand</text>
</a>
</g>
</g>
<!-- Node18&#45;&gt;Node35 -->
<g id="edge47_Node000018_Node000035" class="edge">
<title>Node18&#45;&gt;Node35</title>
<g id="a_edge47_Node000018_Node000035"><a xlink:title=" ">
<path fill="none" stroke="#63b8ff" d="M206.15,-532.71C219.07,-505.61 258.9,-429.95 316.25,-393.62 318.24,-392.37 320.3,-391.19 322.43,-390.1"/>
<polygon fill="#63b8ff" stroke="#63b8ff" points="323.59,-393.41 331.33,-386.17 320.77,-387.01 323.59,-393.41"/>
</a>
</g>
</g>
<!-- Node20 -->
<g id="Node000020" class="node">
<title>Node20</title>
<g id="a_Node000020"><a xlink:href="class_core.html#a18d897088678ca2d82d41413bd62c824" target="_top" xlink:title=" ">
<polygon fill="white" stroke="#666666" points="662.88,-404.25 535.12,-404.25 535.12,-385 662.88,-385 662.88,-404.25"/>
<text text-anchor="middle" x="599" y="-390.75" font-family="Helvetica,sans-Serif" font-size="10.00">Core::handleMobCollision</text>
</a>
</g>
</g>
<!-- Node19&#45;&gt;Node20 -->
<g id="edge28_Node000019_Node000020" class="edge">
<title>Node19&#45;&gt;Node20</title>
<g id="a_edge28_Node000019_Node000020"><a xlink:title=" ">
<path fill="none" stroke="#63b8ff" d="M477.45,-405.64C492.53,-404.26 508.34,-402.82 523.36,-401.44"/>
<polygon fill="#63b8ff" stroke="#63b8ff" points="523.52,-404.94 533.16,-400.55 522.89,-397.97 523.52,-404.94"/>
</a>
</g>
</g>
<!-- Node21 -->
<g id="Node000021" class="node">
<title>Node21</title>
<g id="a_Node000021"><a xlink:href="class_core.html#a517f4f0a345db4205dd553669bd72852" target="_top" xlink:title=" ">
<polygon fill="white" stroke="#666666" points="678.25,-478.25 519.75,-478.25 519.75,-459 678.25,-459 678.25,-478.25"/>
<text text-anchor="middle" x="599" y="-464.75" font-family="Helvetica,sans-Serif" font-size="10.00">Core::handleMobMissileCollision</text>
</a>
</g>
</g>
<!-- Node19&#45;&gt;Node21 -->
<g id="edge29_Node000019_Node000021" class="edge">
<title>Node19&#45;&gt;Node21</title>
<g id="a_edge29_Node000019_Node000021"><a xlink:title=" ">
<path fill="none" stroke="#63b8ff" d="M457.73,-422.65C466.57,-424.87 475.5,-427.51 483.75,-430.62 500.88,-437.08 502.66,-444.06 519.75,-450.62 524.34,-452.39 529.15,-454.01 534.03,-455.49"/>
<polygon fill="#63b8ff" stroke="#63b8ff" points="532.75,-458.76 543.32,-458.1 534.64,-452.02 532.75,-458.76"/>
</a>
</g>
</g>
<!-- Node22 -->
<g id="Node000022" class="node">
<title>Node22</title>
<g id="a_Node000022"><a xlink:href="class_core.html#a22e0fed60eb09cc09408650d66c38617" target="_top" xlink:title=" ">
<polygon fill="white" stroke="#666666" points="673.75,-441.25 524.25,-441.25 524.25,-422 673.75,-422 673.75,-441.25"/>
<text text-anchor="middle" x="599" y="-427.75" font-family="Helvetica,sans-Serif" font-size="10.00">Core::handlePowerUpCollision</text>
</a>
</g>
</g>
<!-- Node19&#45;&gt;Node22 -->
<g id="edge30_Node000019_Node000022" class="edge">
<title>Node19&#45;&gt;Node22</title>
<g id="a_edge30_Node000019_Node000022"><a xlink:title=" ">
<path fill="none" stroke="#63b8ff" d="M477.45,-420C489,-421.11 500.99,-422.27 512.72,-423.4"/>
<polygon fill="#63b8ff" stroke="#63b8ff" points="512.06,-426.85 522.35,-424.33 512.74,-419.89 512.06,-426.85"/>
</a>
</g>
</g>
<!-- Node23 -->
<g id="Node000023" class="node">
<title>Node23</title>
<g id="a_Node000023"><a xlink:href="class_core.html#a398cf70a8dafff61d11f9d0928ed6111" target="_top" xlink:title=" ">
<polygon fill="white" stroke="#666666" points="663.25,-718.25 534.75,-718.25 534.75,-699 663.25,-699 663.25,-718.25"/>
<text text-anchor="middle" x="599" y="-704.75" font-family="Helvetica,sans-Serif" font-size="10.00">Core::updatePlayerHealth</text>
</a>
</g>
</g>
<!-- Node19&#45;&gt;Node23 -->
<g id="edge31_Node000019_Node000023" class="edge">
<title>Node19&#45;&gt;Node23</title>
<g id="a_edge31_Node000019_Node000023"><a xlink:title=" ">
<path fill="none" stroke="#63b8ff" d="M471.51,-422.71C475.9,-424.9 480.03,-427.51 483.75,-430.62 504.89,-448.34 569.03,-626.38 590.73,-687.87"/>
<polygon fill="#63b8ff" stroke="#63b8ff" points="587.36,-688.83 593.98,-697.1 593.96,-686.51 587.36,-688.83"/>
</a>
</g>
</g>
<!-- Node23&#45;&gt;Node6 -->
<g id="edge32_Node000023_Node000006" class="edge">
<title>Node23&#45;&gt;Node6</title>
<g id="a_edge32_Node000023_Node000006"><a xlink:title=" ">
<path fill="none" stroke="#63b8ff" d="M655.08,-718.73C662.99,-720.92 670.93,-723.53 678.25,-726.62 702.63,-736.95 727.72,-753.94 744.83,-766.69"/>
<polygon fill="#63b8ff" stroke="#63b8ff" points="742.65,-769.43 752.72,-772.71 746.89,-763.86 742.65,-769.43"/>
</a>
</g>
</g>
<!-- Node25&#45;&gt;Node23 -->
<g id="edge35_Node000025_Node000023" class="edge">
<title>Node25&#45;&gt;Node23</title>
<g id="a_edge35_Node000025_Node000023"><a xlink:title=" ">
<path fill="none" stroke="#63b8ff" d="M471.84,-708.62C488.42,-708.62 506.14,-708.62 522.9,-708.62"/>
<polygon fill="#63b8ff" stroke="#63b8ff" points="522.81,-712.13 532.81,-708.63 522.81,-705.13 522.81,-712.13"/>
</a>
</g>
</g>
<!-- Node26 -->
<g id="Node000026" class="node">
<title>Node26</title>
<g id="a_Node000026"><a xlink:href="class_core.html#ad9e2c3752fe957de05a7aa7a6675d502" target="_top" xlink:title=" ">
<polygon fill="white" stroke="#666666" points="653.12,-755.25 544.88,-755.25 544.88,-736 653.12,-736 653.12,-755.25"/>
<text text-anchor="middle" x="599" y="-741.75" font-family="Helvetica,sans-Serif" font-size="10.00">Core::updatePlayerId</text>
</a>
</g>
</g>
<!-- Node25&#45;&gt;Node26 -->
<g id="edge36_Node000025_Node000026" class="edge">
<title>Node25&#45;&gt;Node26</title>
<g id="a_edge36_Node000025_Node000026"><a xlink:title=" ">
<path fill="none" stroke="#63b8ff" d="M454.83,-718.74C479.14,-723.3 508.06,-728.73 533.53,-733.52"/>
<polygon fill="#63b8ff" stroke="#63b8ff" points="532.61,-736.91 543.09,-735.31 533.91,-730.03 532.61,-736.91"/>
</a>
</g>
</g>
<!-- Node27&#45;&gt;Node26 -->
<g id="edge38_Node000027_Node000026" class="edge">
<title>Node27&#45;&gt;Node26</title>
<g id="a_edge38_Node000027_Node000026"><a xlink:title=" ">
<path fill="none" stroke="#63b8ff" d="M483.4,-745.62C500.03,-745.62 517.29,-745.62 533.21,-745.62"/>
<polygon fill="#63b8ff" stroke="#63b8ff" points="533.03,-749.13 543.03,-745.63 533.03,-742.13 533.03,-749.13"/>
</a>
</g>
</g>
<!-- Node34&#45;&gt;Node1 -->
<g id="edge46_Node000034_Node000001" class="edge">
<title>Node34&#45;&gt;Node1</title>
<g id="a_edge46_Node000034_Node000001"><a xlink:title=" ">
<path fill="none" stroke="#63b8ff" d="M330.86,-344.67C272.66,-347.11 187.97,-344.04 121,-314.62 94.78,-303.11 71.58,-279.03 57.56,-262.12"/>
<polygon fill="#63b8ff" stroke="#63b8ff" points="60.66,-260.4 51.69,-254.77 55.19,-264.77 60.66,-260.4"/>
</a>
</g>
</g>
<!-- Node35&#45;&gt;Node17 -->
<g id="edge48_Node000035_Node000017" class="edge">
<title>Node35&#45;&gt;Node17</title>
<g id="a_edge48_Node000035_Node000017"><a xlink:title=" ">
<path fill="none" stroke="#63b8ff" d="M467.15,-369.58C489.8,-367.51 515.02,-365.21 537.23,-363.18"/>
<polygon fill="#63b8ff" stroke="#63b8ff" points="537.39,-366.68 547.03,-362.28 536.76,-359.71 537.39,-366.68"/>
</a>
</g>
</g>
<!-- Node39&#45;&gt;Node39 -->
<g id="edge55_Node000039_Node000039" class="edge">
<title>Node39&#45;&gt;Node39</title>
<g id="a_edge55_Node000039_Node000039"><a xlink:title=" ">
<path fill="none" stroke="#63b8ff" d="M172.61,-68.36C166.89,-77.43 176.23,-85.88 200.62,-85.88 213.97,-85.88 222.81,-83.35 227.14,-79.58"/>
<polygon fill="#63b8ff" stroke="#63b8ff" points="230.59,-80.24 228.44,-69.86 223.65,-79.31 230.59,-80.24"/>
</a>
</g>
</g>
<!-- Node40 -->
<g id="Node000040" class="node">
<title>Node40</title>
<g id="a_Node000040"><a xlink:href="class_systems.html#a310d4de4ff4f8212b2ded614e411d102" target="_top" xlink:title=" ">
<polygon fill="white" stroke="#666666" points="466.12,-62.25 333.88,-62.25 333.88,-43 466.12,-43 466.12,-62.25"/>
<text text-anchor="middle" x="400" y="-48.75" font-family="Helvetica,sans-Serif" font-size="10.00">Systems::position_system</text>
</a>
</g>
</g>
<!-- Node39&#45;&gt;Node40 -->
<g id="edge53_Node000039_Node000040" class="edge">
<title>Node39&#45;&gt;Node40</title>
<g id="a_edge53_Node000039_Node000040"><a xlink:title=" ">
<path fill="none" stroke="#63b8ff" d="M254,-52.62C274.91,-52.62 299.4,-52.62 322.24,-52.62"/>
<polygon fill="#63b8ff" stroke="#63b8ff" points="322.14,-56.13 332.14,-52.63 322.14,-49.13 322.14,-56.13"/>
</a>
</g>
</g>
<!-- Node41 -->
<g id="Node000041" class="node">
<title>Node41</title>
<g id="a_Node000041"><a xlink:href="classregistry.html#a3866ee276a5a1d78d00cd403e8e8c7d9" target="_top" xlink:title=" ">
<polygon fill="white" stroke="#666666" points="662.12,-62.25 535.88,-62.25 535.88,-43 662.12,-43 662.12,-62.25"/>
<text text-anchor="middle" x="599" y="-48.75" font-family="Helvetica,sans-Serif" font-size="10.00">registry::get_components</text>
</a>
</g>
</g>
<!-- Node40&#45;&gt;Node41 -->
<g id="edge54_Node000040_Node000041" class="edge">
<title>Node40&#45;&gt;Node41</title>
<g id="a_edge54_Node000040_Node000041"><a xlink:title=" ">
<path fill="none" stroke="#63b8ff" d="M466.6,-52.62C485.13,-52.62 505.42,-52.62 524.39,-52.62"/>
<polygon fill="#63b8ff" stroke="#63b8ff" points="524.18,-56.13 534.18,-52.63 524.18,-49.13 524.18,-56.13"/>
</a>
</g>
</g>
</g>
</svg>
