<?xml version="1.0" encoding="UTF-8" standalone="no"?>
<!DOCTYPE svg PUBLIC "-//W3C//DTD SVG 1.1//EN"
 "http://www.w3.org/Graphics/SVG/1.1/DTD/svg11.dtd">
<!-- Generated by graphviz version 12.2.1 (20241206.2353)
 -->
<!-- Title: ServerGame::setup_powerup_timer Pages: 1 -->
<svg width="333pt" height="57pt"
 viewBox="0.00 0.00 332.50 56.50" xmlns="http://www.w3.org/2000/svg" xmlns:xlink="http://www.w3.org/1999/xlink">
<g id="graph0" class="graph" transform="scale(1 1) rotate(0) translate(4 52.5)">
<title>ServerGame::setup_powerup_timer</title>
<!-- Node1 -->
<g id="Node000001" class="node">
<title>Node1</title>
<g id="a_Node000001"><a xlink:title=" ">
<polygon fill="#999999" stroke="#666666" points="142.75,-30.5 0,-30.5 0,0 142.75,0 142.75,-30.5"/>
<text text-anchor="start" x="8" y="-17" font-family="Helvetica,sans-Serif" font-size="10.00">ServerGame::setup_powerup</text>
<text text-anchor="middle" x="71.38" y="-5.75" font-family="Helvetica,sans-Serif" font-size="10.00">_timer</text>
</a>
</g>
</g>
<!-- Node1&#45;&gt;Node1 -->
<g id="edge1_Node000001_Node000001" class="edge">
<title>Node1&#45;&gt;Node1</title>
<g id="a_edge1_Node000001_Node000001"><a xlink:title=" ">
<path fill="none" stroke="#63b8ff" d="M39.43,-30.99C32.92,-40.06 43.56,-48.5 71.38,-48.5 86.58,-48.5 96.66,-45.97 101.6,-42.2"/>
<polygon fill="#63b8ff" stroke="#63b8ff" points="105.04,-42.9 103.09,-32.48 98.12,-41.84 105.04,-42.9"/>
</a>
</g>
</g>
<!-- Node2 -->
<g id="Node000002" class="node">
<title>Node2</title>
<g id="a_Node000002"><a xlink:href="class_server_game.html#a690321c8aa58ea064479f8205d28df73" target="_top" xlink:title=" ">
<polygon fill="white" stroke="#666666" points="324.5,-24.88 178.75,-24.88 178.75,-5.63 324.5,-5.63 324.5,-24.88"/>
<text text-anchor="middle" x="251.62" y="-11.38" font-family="Helvetica,sans-Serif" font-size="10.00">ServerGame::spawnPowerUp</text>
</a>
</g>
</g>
<!-- Node1&#45;&gt;Node2 -->
<g id="edge2_Node000001_Node000002" class="edge">
<title>Node1&#45;&gt;Node2</title>
<g id="a_edge2_Node000001_Node000002"><a xlink:title=" ">
<path fill="none" stroke="#63b8ff" d="M143.08,-15.25C150.94,-15.25 159,-15.25 167.01,-15.25"/>
<polygon fill="#63b8ff" stroke="#63b8ff" points="166.74,-18.75 176.74,-15.25 166.74,-11.75 166.74,-18.75"/>
</a>
</g>
</g>
</g>
</svg>
