<?xml version="1.0" encoding="UTF-8" standalone="no"?>
<!DOCTYPE svg PUBLIC "-//W3C//DTD SVG 1.1//EN"
 "http://www.w3.org/Graphics/SVG/1.1/DTD/svg11.dtd">
<!-- Generated by graphviz version 12.2.1 (20241206.2353)
 -->
<!-- Title: ServerNetwork::encode_action Pages: 1 -->
<!--zoomable 605 -->

<svg id="main" version="1.1" xmlns="http://www.w3.org/2000/svg" xmlns:xlink="http://www.w3.org/1999/xlink" xml:space="preserve" onload="init(evt)">

<style type="text/css"><![CDATA[
.node, .edge {opacity: 0.7;}
.node.selected, .edge.selected {opacity: 1;}
.edge:hover path { stroke: red; }
.edge:hover polygon { stroke: red; fill: red; }
]]></style>

<defs>
  <circle id="rim" cx="0" cy="0" r="7"/>
  <circle id="rim2" cx="0" cy="0" r="3.5"/>
  <g id="zoomPlus">
    <use xlink:href="#rim" fill="#404040"><set attributeName="fill" to="#808080" begin="zoomplus.mouseover" end="zoomplus.mouseout"/></use>
    <path d="M-4,0h8M0,-4v8" fill="none" stroke="white" stroke-width="1.5" pointer-events="none"/>
  </g>
  <g id="zoomMin">
    <use xlink:href="#rim" fill="#404040"><set attributeName="fill" to="#808080" begin="zoomminus.mouseover" end="zoomminus.mouseout"/></use>
    <path d="M-4,0h8" fill="none" stroke="white" stroke-width="1.5" pointer-events="none"/>
  </g>
  <g id="arrowUp" transform="translate(30 24)">
    <use xlink:href="#rim"/>
    <path pointer-events="none" fill="none" stroke="white" stroke-width="1.5" d="M0,-3.0v7 M-2.5,-0.5L0,-3.0L2.5,-0.5"/>
  </g>
  <g id="arrowRight" transform="rotate(90) translate(36 -43)">
    <use xlink:href="#rim"/>
    <path pointer-events="none" fill="none" stroke="white" stroke-width="1.5" d="M0,-3.0v7 M-2.5,-0.5L0,-3.0L2.5,-0.5"/>
  </g>
  <g id="arrowDown" transform="rotate(180) translate(-30 -48)">
    <use xlink:href="#rim"/>
    <path pointer-events="none" fill="none" stroke="white" stroke-width="1.5" d="M0,-3.0v7 M-2.5,-0.5L0,-3.0L2.5,-0.5"/>
  </g>
  <g id="arrowLeft" transform="rotate(270) translate(-36 17)">
    <use xlink:href="#rim"/>
    <path pointer-events="none" fill="none" stroke="white" stroke-width="1.5" d="M0,-3.0v7 M-2.5,-0.5L0,-3.0L2.5,-0.5"/>
  </g>
  <g id="resetDef">
    <use xlink:href="#rim2" fill="#404040"><set attributeName="fill" to="#808080" begin="reset.mouseover" end="reset.mouseout"/></use>
  </g>
</defs>
<script type="application/ecmascript">
var viewWidth = 700;
var viewHeight = 605;
var sectionId = 'dynsection-4';
</script>
<script type="application/ecmascript" xlink:href="svg.min.js"/>
<svg id="graph" class="graph">
<g id="viewport">
<title>ServerNetwork::encode_action</title>
<!-- Node1 -->
<g id="Node000001" class="node">
<title>Node1</title>
<g id="a_Node000001"><a xlink:title=" ">
<polygon fill="#999999" stroke="#666666" points="692,-325.88 573.25,-325.88 573.25,-295.38 692,-295.38 692,-325.88"/>
<text text-anchor="start" x="581.25" y="-312.38" font-family="Helvetica,sans-Serif" font-size="10.00">ServerNetwork::encode</text>
<text text-anchor="middle" x="632.62" y="-301.12" font-family="Helvetica,sans-Serif" font-size="10.00">_action</text>
</a>
</g>
</g>
<!-- Node2 -->
<g id="Node000002" class="node">
<title>Node2</title>
<g id="a_Node000002"><a xlink:href="class_server_network.html#afab7785be9c68eb1c569a36b64b358b6" target="_top" xlink:title=" ">
<polygon fill="white" stroke="#666666" points="511.75,-596.88 396,-596.88 396,-566.38 511.75,-566.38 511.75,-596.88"/>
<text text-anchor="start" x="404" y="-583.38" font-family="Helvetica,sans-Serif" font-size="10.00">ServerNetwork::handle</text>
<text text-anchor="middle" x="453.88" y="-572.12" font-family="Helvetica,sans-Serif" font-size="10.00">_game_message</text>
</a>
</g>
</g>
<!-- Node1&#45;&gt;Node2 -->
<g id="edge1_Node000001_Node000002" class="edge">
<title>Node1&#45;&gt;Node2</title>
<g id="a_edge1_Node000001_Node000002"><a xlink:title=" ">
<path fill="none" stroke="#63b8ff" d="M629.09,-337.53C622.87,-388.12 602.27,-497.7 537.25,-557.62 530.13,-564.19 521.32,-568.96 512.13,-572.44"/>
<polygon fill="#63b8ff" stroke="#63b8ff" points="632.55,-338.11 630.18,-327.78 625.59,-337.33 632.55,-338.11"/>
</a>
</g>
</g>
<!-- Node6 -->
<g id="Node000006" class="node">
<title>Node6</title>
<g id="a_Node000006"><a xlink:href="class_server_network.html#a1c91e08801ba76aa20efc6888abb7a48" target="_top" xlink:title=" ">
<polygon fill="white" stroke="#666666" points="529.38,-548.25 378.38,-548.25 378.38,-529 529.38,-529 529.38,-548.25"/>
<text text-anchor="middle" x="453.88" y="-534.75" font-family="Helvetica,sans-Serif" font-size="10.00">ServerNetwork::handleColision</text>
</a>
</g>
</g>
<!-- Node1&#45;&gt;Node6 -->
<g id="edge5_Node000001_Node000006" class="edge">
<title>Node1&#45;&gt;Node6</title>
<g id="a_edge5_Node000001_Node000006"><a xlink:title=" ">
<path fill="none" stroke="#63b8ff" d="M627.51,-337.34C619.09,-382.42 595.53,-473.32 537.25,-520.62 533.39,-523.76 529.09,-526.38 524.56,-528.57"/>
<polygon fill="#63b8ff" stroke="#63b8ff" points="630.93,-338.1 629.2,-327.65 624.03,-336.9 630.93,-338.1"/>
</a>
</g>
</g>
<!-- Node7 -->
<g id="Node000007" class="node">
<title>Node7</title>
<g id="a_Node000007"><a xlink:href="class_server_network.html#ad5e6277766251d35ad164eaa67bcb1a1" target="_top" xlink:title=" ">
<polygon fill="white" stroke="#666666" points="537.25,-511.25 370.5,-511.25 370.5,-492 537.25,-492 537.25,-511.25"/>
<text text-anchor="middle" x="453.88" y="-497.75" font-family="Helvetica,sans-Serif" font-size="10.00">ServerNetwork::handleConciliation</text>
</a>
</g>
</g>
<!-- Node1&#45;&gt;Node7 -->
<g id="edge6_Node000001_Node000007" class="edge">
<title>Node1&#45;&gt;Node7</title>
<g id="a_edge6_Node000001_Node000007"><a xlink:title=" ">
<path fill="none" stroke="#63b8ff" d="M624.79,-337.04C613.4,-375.54 586.74,-446.52 537.25,-483.62 533.03,-486.79 528.37,-489.41 523.48,-491.6"/>
<polygon fill="#63b8ff" stroke="#63b8ff" points="628.09,-338.23 627.43,-327.66 621.35,-336.34 628.09,-338.23"/>
</a>
</g>
</g>
<!-- Node8 -->
<g id="Node000008" class="node">
<title>Node8</title>
<g id="a_Node000008"><a xlink:href="class_server_network.html#ae4666ab9a21539961cd8e785870a3ede" target="_top" xlink:title=" ">
<polygon fill="white" stroke="#666666" points="530.12,-474.25 377.62,-474.25 377.62,-455 530.12,-455 530.12,-474.25"/>
<text text-anchor="middle" x="453.88" y="-460.75" font-family="Helvetica,sans-Serif" font-size="10.00">ServerNetwork::handleConnect</text>
</a>
</g>
</g>
<!-- Node1&#45;&gt;Node8 -->
<g id="edge7_Node000001_Node000008" class="edge">
<title>Node1&#45;&gt;Node8</title>
<g id="a_edge7_Node000001_Node000008"><a xlink:title=" ">
<path fill="none" stroke="#63b8ff" d="M620.83,-336.61C606.48,-367.8 578.1,-419.3 537.25,-446.62 532.5,-449.8 527.29,-452.42 521.87,-454.59"/>
<polygon fill="#63b8ff" stroke="#63b8ff" points="624.01,-338.07 624.86,-327.51 617.61,-335.23 624.01,-338.07"/>
</a>
</g>
</g>
<!-- Node9 -->
<g id="Node000009" class="node">
<title>Node9</title>
<g id="a_Node000009"><a xlink:href="class_server_network.html#aa42240c25e134fd7e2565e14e798b905" target="_top" xlink:title=" ">
<polygon fill="white" stroke="#666666" points="524.88,-437.25 382.88,-437.25 382.88,-418 524.88,-418 524.88,-437.25"/>
<text text-anchor="middle" x="453.88" y="-423.75" font-family="Helvetica,sans-Serif" font-size="10.00">ServerNetwork::handleDeath</text>
</a>
</g>
</g>
<!-- Node1&#45;&gt;Node9 -->
<g id="edge8_Node000001_Node000009" class="edge">
<title>Node1&#45;&gt;Node9</title>
<g id="a_edge8_Node000001_Node000009"><a xlink:title=" ">
<path fill="none" stroke="#63b8ff" d="M614.94,-335.17C598.06,-358.05 569.85,-391.29 537.25,-409.62 531.64,-412.78 525.52,-415.39 519.24,-417.53"/>
<polygon fill="#63b8ff" stroke="#63b8ff" points="617.6,-337.48 620.58,-327.31 611.91,-333.4 617.6,-337.48"/>
</a>
</g>
</g>
<!-- Node10 -->
<g id="Node000010" class="node">
<title>Node10</title>
<g id="a_Node000010"><a xlink:href="class_server_network.html#a0b8c7bfca891518237407c9920452311" target="_top" xlink:title=" ">
<polygon fill="white" stroke="#666666" points="536.5,-400.25 371.25,-400.25 371.25,-381 536.5,-381 536.5,-400.25"/>
<text text-anchor="middle" x="453.88" y="-386.75" font-family="Helvetica,sans-Serif" font-size="10.00">ServerNetwork::handleDisconnect</text>
</a>
</g>
</g>
<!-- Node1&#45;&gt;Node10 -->
<g id="edge9_Node000001_Node000010" class="edge">
<title>Node1&#45;&gt;Node10</title>
<g id="a_edge9_Node000001_Node000010"><a xlink:title=" ">
<path fill="none" stroke="#63b8ff" d="M603.78,-332.86C585.76,-346.21 561.26,-362.53 537.25,-372.62 529.83,-375.75 521.79,-378.36 513.75,-380.53"/>
<polygon fill="#63b8ff" stroke="#63b8ff" points="605.52,-335.93 611.37,-327.1 601.29,-330.35 605.52,-335.93"/>
</a>
</g>
</g>
<!-- Node11 -->
<g id="Node000011" class="node">
<title>Node11</title>
<g id="a_Node000011"><a xlink:href="class_server_network.html#a12678206eaf4316b7b68ce668508ed3c" target="_top" xlink:title=" ">
<polygon fill="white" stroke="#666666" points="524.88,-363.25 382.88,-363.25 382.88,-344 524.88,-344 524.88,-363.25"/>
<text text-anchor="middle" x="453.88" y="-349.75" font-family="Helvetica,sans-Serif" font-size="10.00">ServerNetwork::handleLoose</text>
</a>
</g>
</g>
<!-- Node1&#45;&gt;Node11 -->
<g id="edge10_Node000001_Node000011" class="edge">
<title>Node1&#45;&gt;Node11</title>
<g id="a_edge10_Node000001_Node000011"><a xlink:title=" ">
<path fill="none" stroke="#63b8ff" d="M561.64,-328.61C553.43,-330.66 545.16,-332.71 537.25,-334.62 524.98,-337.6 511.66,-340.72 499.38,-343.55"/>
<polygon fill="#63b8ff" stroke="#63b8ff" points="562.46,-332.01 571.31,-326.18 560.75,-325.22 562.46,-332.01"/>
</a>
</g>
</g>
<!-- Node12 -->
<g id="Node000012" class="node">
<title>Node12</title>
<g id="a_Node000012"><a xlink:href="class_server_network.html#a5ab5a9bed79b65874f76aa6c5ed40743" target="_top" xlink:title=" ">
<polygon fill="white" stroke="#666666" points="521.12,-325.88 386.62,-325.88 386.62,-295.38 521.12,-295.38 521.12,-325.88"/>
<text text-anchor="start" x="394.62" y="-312.38" font-family="Helvetica,sans-Serif" font-size="10.00">ServerNetwork::handleMob</text>
<text text-anchor="middle" x="453.88" y="-301.12" font-family="Helvetica,sans-Serif" font-size="10.00">Shoot</text>
</a>
</g>
</g>
<!-- Node1&#45;&gt;Node12 -->
<g id="edge11_Node000001_Node000012" class="edge">
<title>Node1&#45;&gt;Node12</title>
<g id="a_edge11_Node000001_Node000012"><a xlink:title=" ">
<path fill="none" stroke="#63b8ff" d="M561.37,-310.62C548.2,-310.62 534.46,-310.62 521.41,-310.62"/>
<polygon fill="#63b8ff" stroke="#63b8ff" points="561.26,-314.13 571.26,-310.63 561.26,-307.13 561.26,-314.13"/>
</a>
</g>
</g>
<!-- Node13 -->
<g id="Node000013" class="node">
<title>Node13</title>
<g id="a_Node000013"><a xlink:href="class_server_network.html#aa1ed44b7d06675729cb35f9a74ae740d" target="_top" xlink:title=" ">
<polygon fill="white" stroke="#666666" points="521.12,-276.88 386.62,-276.88 386.62,-246.38 521.12,-246.38 521.12,-276.88"/>
<text text-anchor="start" x="394.62" y="-263.38" font-family="Helvetica,sans-Serif" font-size="10.00">ServerNetwork::handleMob</text>
<text text-anchor="middle" x="453.88" y="-252.12" font-family="Helvetica,sans-Serif" font-size="10.00">Spawn</text>
</a>
</g>
</g>
<!-- Node1&#45;&gt;Node13 -->
<g id="edge12_Node000001_Node000013" class="edge">
<title>Node1&#45;&gt;Node13</title>
<g id="a_edge12_Node000001_Node000013"><a xlink:title=" ">
<path fill="none" stroke="#63b8ff" d="M564.54,-292.03C547.11,-287.19 528.5,-282.04 511.66,-277.37"/>
<polygon fill="#63b8ff" stroke="#63b8ff" points="563.18,-295.28 573.76,-294.58 565.05,-288.54 563.18,-295.28"/>
</a>
</g>
</g>
<!-- Node14 -->
<g id="Node000014" class="node">
<title>Node14</title>
<g id="a_Node000014"><a xlink:href="class_server_network.html#a654fad8fc2f8e89626e85962190310ca" target="_top" xlink:title=" ">
<polygon fill="white" stroke="#666666" points="526.38,-228.25 381.38,-228.25 381.38,-209 526.38,-209 526.38,-228.25"/>
<text text-anchor="middle" x="453.88" y="-214.75" font-family="Helvetica,sans-Serif" font-size="10.00">ServerNetwork::handleMoves</text>
</a>
</g>
</g>
<!-- Node1&#45;&gt;Node14 -->
<g id="edge13_Node000001_Node000014" class="edge">
<title>Node1&#45;&gt;Node14</title>
<g id="a_edge13_Node000001_Node000014"><a xlink:title=" ">
<path fill="none" stroke="#63b8ff" d="M607.88,-287.51C589.89,-271.24 563.79,-250.2 537.25,-237.62 529.69,-234.04 521.41,-231.11 513.11,-228.72"/>
<polygon fill="#63b8ff" stroke="#63b8ff" points="605.21,-289.81 614.93,-294.03 609.96,-284.67 605.21,-289.81"/>
</a>
</g>
</g>
<!-- Node15 -->
<g id="Node000015" class="node">
<title>Node15</title>
<g id="a_Node000015"><a xlink:href="class_server_network.html#aaaff2bc828499bcded8401145ee061de" target="_top" xlink:title=" ">
<polygon fill="white" stroke="#666666" points="525.62,-190.88 382.12,-190.88 382.12,-160.38 525.62,-160.38 525.62,-190.88"/>
<text text-anchor="start" x="390.12" y="-177.38" font-family="Helvetica,sans-Serif" font-size="10.00">ServerNetwork::handlePower</text>
<text text-anchor="middle" x="453.88" y="-166.12" font-family="Helvetica,sans-Serif" font-size="10.00">UpSpawn</text>
</a>
</g>
</g>
<!-- Node1&#45;&gt;Node15 -->
<g id="edge14_Node000001_Node000015" class="edge">
<title>Node1&#45;&gt;Node15</title>
<g id="a_edge14_Node000001_Node000015"><a xlink:title=" ">
<path fill="none" stroke="#63b8ff" d="M616.62,-285.6C600.2,-260.3 571.58,-221.87 537.25,-199.62 532.37,-196.47 527.07,-193.71 521.59,-191.32"/>
<polygon fill="#63b8ff" stroke="#63b8ff" points="613.59,-287.36 621.89,-293.95 619.51,-283.62 613.59,-287.36"/>
</a>
</g>
</g>
<!-- Node16 -->
<g id="Node000016" class="node">
<title>Node16</title>
<g id="a_Node000016"><a xlink:href="class_server_network.html#ae97dff6741dbd38aaa2c4121d735851b" target="_top" xlink:title=" ">
<polygon fill="white" stroke="#666666" points="524.5,-141.88 383.25,-141.88 383.25,-111.38 524.5,-111.38 524.5,-141.88"/>
<text text-anchor="start" x="391.25" y="-128.38" font-family="Helvetica,sans-Serif" font-size="10.00">ServerNetwork::handleScore</text>
<text text-anchor="middle" x="453.88" y="-117.12" font-family="Helvetica,sans-Serif" font-size="10.00">Update</text>
</a>
</g>
</g>
<!-- Node1&#45;&gt;Node16 -->
<g id="edge15_Node000001_Node000016" class="edge">
<title>Node1&#45;&gt;Node16</title>
<g id="a_edge15_Node000001_Node000016"><a xlink:title=" ">
<path fill="none" stroke="#63b8ff" d="M622.95,-284.48C609.92,-249.17 581.93,-186.65 537.25,-151.62 532.66,-148.03 527.56,-144.95 522.21,-142.31"/>
<polygon fill="#63b8ff" stroke="#63b8ff" points="619.51,-285.24 626.16,-293.49 626.11,-282.89 619.51,-285.24"/>
</a>
</g>
</g>
<!-- Node17 -->
<g id="Node000017" class="node">
<title>Node17</title>
<g id="a_Node000017"><a xlink:href="class_server_network.html#ad4961c3bdde91a071204fe6322423495" target="_top" xlink:title=" ">
<polygon fill="white" stroke="#666666" points="524.5,-93.25 383.25,-93.25 383.25,-74 524.5,-74 524.5,-93.25"/>
<text text-anchor="middle" x="453.88" y="-79.75" font-family="Helvetica,sans-Serif" font-size="10.00">ServerNetwork::handleShoot</text>
</a>
</g>
</g>
<!-- Node1&#45;&gt;Node17 -->
<g id="edge16_Node000001_Node000017" class="edge">
<title>Node1&#45;&gt;Node17</title>
<g id="a_edge16_Node000001_Node000017"><a xlink:title=" ">
<path fill="none" stroke="#63b8ff" d="M627.31,-283.91C618.63,-239.24 594.74,-149.67 537.25,-102.62 532.82,-99 527.83,-96.04 522.55,-93.62"/>
<polygon fill="#63b8ff" stroke="#63b8ff" points="623.82,-284.29 629.05,-293.5 630.71,-283.04 623.82,-284.29"/>
</a>
</g>
</g>
<!-- Node18 -->
<g id="Node000018" class="node">
<title>Node18</title>
<g id="a_Node000018"><a xlink:href="class_server_network.html#ae13fd484142e74f41f74f76464269393" target="_top" xlink:title=" ">
<polygon fill="white" stroke="#666666" points="522.25,-56.25 385.5,-56.25 385.5,-37 522.25,-37 522.25,-56.25"/>
<text text-anchor="middle" x="453.88" y="-42.75" font-family="Helvetica,sans-Serif" font-size="10.00">ServerNetwork::handleStart</text>
</a>
</g>
</g>
<!-- Node1&#45;&gt;Node18 -->
<g id="edge17_Node000001_Node000018" class="edge">
<title>Node1&#45;&gt;Node18</title>
<g id="a_edge17_Node000001_Node000018"><a xlink:title=" ">
<path fill="none" stroke="#63b8ff" d="M629.46,-283.78C623.87,-232.85 604.24,-122.18 537.25,-64.62 532.81,-60.81 527.74,-57.75 522.36,-55.29"/>
<polygon fill="#63b8ff" stroke="#63b8ff" points="625.97,-283.98 630.43,-293.59 632.93,-283.29 625.97,-283.98"/>
</a>
</g>
</g>
<!-- Node19 -->
<g id="Node000019" class="node">
<title>Node19</title>
<g id="a_Node000019"><a xlink:href="class_server_network.html#a2b8be4f6e157f07e21e6f16a7a08b23a" target="_top" xlink:title=" ">
<polygon fill="white" stroke="#666666" points="520.38,-19.25 387.38,-19.25 387.38,0 520.38,0 520.38,-19.25"/>
<text text-anchor="middle" x="453.88" y="-5.75" font-family="Helvetica,sans-Serif" font-size="10.00">ServerNetwork::handleWin</text>
</a>
</g>
</g>
<!-- Node1&#45;&gt;Node19 -->
<g id="edge18_Node000001_Node000019" class="edge">
<title>Node1&#45;&gt;Node19</title>
<g id="a_edge18_Node000001_Node000019"><a xlink:title=" ">
<path fill="none" stroke="#63b8ff" d="M631.01,-283.76C628.2,-227.32 613.34,-96 537.25,-27.62 532.35,-23.22 526.63,-19.81 520.52,-17.18"/>
<polygon fill="#63b8ff" stroke="#63b8ff" points="627.5,-283.56 631.4,-293.41 634.5,-283.28 627.5,-283.56"/>
</a>
</g>
</g>
<!-- Node3 -->
<g id="Node000003" class="node">
<title>Node3</title>
<g id="a_Node000003"><a xlink:href="class_server_network.html#a231bfb41bda1137994952ec41e01c5d0" target="_top" xlink:title=" ">
<polygon fill="white" stroke="#666666" points="334.5,-596.88 215.75,-596.88 215.75,-566.38 334.5,-566.38 334.5,-596.88"/>
<text text-anchor="start" x="223.75" y="-583.38" font-family="Helvetica,sans-Serif" font-size="10.00">ServerNetwork::receive</text>
<text text-anchor="middle" x="275.12" y="-572.12" font-family="Helvetica,sans-Serif" font-size="10.00">_messages</text>
</a>
</g>
</g>
<!-- Node2&#45;&gt;Node3 -->
<g id="edge2_Node000002_Node000003" class="edge">
<title>Node2&#45;&gt;Node3</title>
<g id="a_edge2_Node000002_Node000003"><a xlink:title=" ">
<path fill="none" stroke="#63b8ff" d="M384.75,-581.62C368.25,-581.62 350.75,-581.62 334.74,-581.62"/>
<polygon fill="#63b8ff" stroke="#63b8ff" points="384.46,-585.13 394.46,-581.63 384.46,-578.13 384.46,-585.13"/>
</a>
</g>
</g>
<!-- Node4 -->
<g id="Node000004" class="node">
<title>Node4</title>
<g id="a_Node000004"><a xlink:href="class_server_network.html#ae99b7e63fdf7ee47520e3b0891a70c6b" target="_top" xlink:title=" ">
<polygon fill="white" stroke="#666666" points="179.75,-591.25 73,-591.25 73,-572 179.75,-572 179.75,-591.25"/>
<text text-anchor="middle" x="126.38" y="-577.75" font-family="Helvetica,sans-Serif" font-size="10.00">ServerNetwork::start</text>
</a>
</g>
</g>
<!-- Node3&#45;&gt;Node4 -->
<g id="edge3_Node000003_Node000004" class="edge">
<title>Node3&#45;&gt;Node4</title>
<g id="a_edge3_Node000003_Node000004"><a xlink:title=" ">
<path fill="none" stroke="#63b8ff" d="M203.98,-581.62C195.93,-581.62 187.83,-581.62 180.07,-581.62"/>
<polygon fill="#63b8ff" stroke="#63b8ff" points="203.77,-585.13 213.77,-581.63 203.77,-578.13 203.77,-585.13"/>
</a>
</g>
</g>
<!-- Node5 -->
<g id="Node000005" class="node">
<title>Node5</title>
<g id="a_Node000005"><a xlink:href="server_2main_8cpp.html#a0ddf1224851353fc92bfbff6f499fa97" target="_top" xlink:title=" ">
<polygon fill="white" stroke="#666666" points="37,-591.25 0,-591.25 0,-572 37,-572 37,-591.25"/>
<text text-anchor="middle" x="18.5" y="-577.75" font-family="Helvetica,sans-Serif" font-size="10.00">main</text>
</a>
</g>
</g>
<!-- Node4&#45;&gt;Node5 -->
<g id="edge4_Node000004_Node000005" class="edge">
<title>Node4&#45;&gt;Node5</title>
<g id="a_edge4_Node000004_Node000005"><a xlink:title=" ">
<path fill="none" stroke="#63b8ff" d="M61.36,-581.62C52.49,-581.62 44.05,-581.62 37.11,-581.62"/>
<polygon fill="#63b8ff" stroke="#63b8ff" points="61.23,-585.13 71.23,-581.63 61.23,-578.13 61.23,-585.13"/>
</a>
</g>
</g>
</g>
</svg>

<g id="navigator" transform="translate(0 0)" fill="#404254">
  <rect fill="#f2f5e9" fill-opacity="0.5" stroke="#606060" stroke-width=".5" x="0" y="0" width="60" height="60"/>
  <use id="zoomplus" xlink:href="#zoomPlus" x="17" y="9" onmousedown="handleZoom(evt,'in')"/>
  <use id="zoomminus" xlink:href="#zoomMin" x="42" y="9" onmousedown="handleZoom(evt,'out')"/>
  <use id="reset" xlink:href="#resetDef" x="30" y="36" onmousedown="handleReset()"/>
   <use id="arrowup" xlink:href="#arrowUp" x="0" y="0" onmousedown="handlePan(0,-1)"/>
  <use id="arrowright" xlink:href="#arrowRight" x="0" y="0" onmousedown="handlePan(1,0)"/>
  <use id="arrowdown" xlink:href="#arrowDown" x="0" y="0" onmousedown="handlePan(0,1)"/>
  <use id="arrowleft" xlink:href="#arrowLeft" x="0" y="0" onmousedown="handlePan(-1,0)"/>
</g>
<svg viewBox="0 0 15 15" width="100%" height="30px" preserveAspectRatio="xMaxYMin meet">
 <g id="arrow_out" transform="scale(0.3 0.3)">
  <a xlink:href="class_server_network_a3cdc99eb8ed134a23329bf2d8f9c74d2_icgraph_org.svg" target="_base">
   <rect id="button" ry="5" rx="5" y="6" x="6" height="38" width="38"
        fill="#f2f5e9" fill-opacity="0.5" stroke="#606060" stroke-width="1.0"/>
   <path id="arrow"
     d="M 11.500037,31.436501 C 11.940474,20.09759 22.043105,11.32322 32.158766,21.979434 L 37.068811,17.246167 C 37.068811,17.246167 37.088388,32 37.088388,32 L 22.160133,31.978069 C 22.160133,31.978069 26.997745,27.140456 26.997745,27.140456 C 18.528582,18.264221 13.291696,25.230495 11.500037,31.436501 z"
     style="fill:#404040;"/>
  </a>
 </g>
</svg>

<style type='text/css'>
<![CDATA[
[data-mouse-over-selected='false'] { opacity: 0.7; }
[data-mouse-over-selected='true']  { opacity: 1.0; }
]]>
</style>
<script type="application/ecmascript"><![CDATA[
document.addEventListener('DOMContentLoaded', (event) => {
  highlightEdges();
  highlightAdjacentNodes();
});
]]></script>
</svg>
