<?xml version="1.0" encoding="UTF-8" standalone="no"?>
<!DOCTYPE svg PUBLIC "-//W3C//DTD SVG 1.1//EN"
 "http://www.w3.org/Graphics/SVG/1.1/DTD/svg11.dtd">
<!-- Generated by graphviz version 12.2.1 (20241206.2353)
 -->
<!-- Title: ServerNetwork::broadcast_message Pages: 1 -->
<svg width="341pt" height="556pt"
 viewBox="0.00 0.00 340.75 556.25" xmlns="http://www.w3.org/2000/svg" xmlns:xlink="http://www.w3.org/1999/xlink">
<g id="graph0" class="graph" transform="scale(1 1) rotate(0) translate(4 552.25)">
<title>ServerNetwork::broadcast_message</title>
<!-- Node1 -->
<g id="Node000001" class="node">
<title>Node1</title>
<g id="a_Node000001"><a xlink:title=" ">
<polygon fill="#999999" stroke="#666666" points="332.75,-300.88 202.75,-300.88 202.75,-270.38 332.75,-270.38 332.75,-300.88"/>
<text text-anchor="start" x="210.75" y="-287.38" font-family="Helvetica,sans-Serif" font-size="10.00">ServerNetwork::broadcast</text>
<text text-anchor="middle" x="267.75" y="-276.12" font-family="Helvetica,sans-Serif" font-size="10.00">_message</text>
</a>
</g>
</g>
<!-- Node2 -->
<g id="Node000002" class="node">
<title>Node2</title>
<g id="a_Node000002"><a xlink:href="class_server_network.html#a1c91e08801ba76aa20efc6888abb7a48" target="_top" xlink:title=" ">
<polygon fill="white" stroke="#666666" points="158.88,-548.25 7.88,-548.25 7.88,-529 158.88,-529 158.88,-548.25"/>
<text text-anchor="middle" x="83.38" y="-534.75" font-family="Helvetica,sans-Serif" font-size="10.00">ServerNetwork::handleColision</text>
</a>
</g>
</g>
<!-- Node1&#45;&gt;Node2 -->
<g id="edge1_Node000001_Node000002" class="edge">
<title>Node1&#45;&gt;Node2</title>
<g id="a_edge1_Node000001_Node000002"><a xlink:title=" ">
<path fill="none" stroke="#63b8ff" d="M263.39,-312.35C255.72,-361.56 232.22,-466.39 166.75,-520.62 162.92,-523.8 158.65,-526.45 154.13,-528.66"/>
<polygon fill="#63b8ff" stroke="#63b8ff" points="266.83,-313 264.8,-302.6 259.9,-312 266.83,-313"/>
</a>
</g>
</g>
<!-- Node3 -->
<g id="Node000003" class="node">
<title>Node3</title>
<g id="a_Node000003"><a xlink:href="class_server_network.html#ad5e6277766251d35ad164eaa67bcb1a1" target="_top" xlink:title=" ">
<polygon fill="white" stroke="#666666" points="166.75,-511.25 0,-511.25 0,-492 166.75,-492 166.75,-511.25"/>
<text text-anchor="middle" x="83.38" y="-497.75" font-family="Helvetica,sans-Serif" font-size="10.00">ServerNetwork::handleConciliation</text>
</a>
</g>
</g>
<!-- Node1&#45;&gt;Node3 -->
<g id="edge2_Node000001_Node000003" class="edge">
<title>Node1&#45;&gt;Node3</title>
<g id="a_edge2_Node000001_Node000003"><a xlink:title=" ">
<path fill="none" stroke="#63b8ff" d="M261.11,-312.09C250.51,-355.1 223.38,-439.75 166.75,-483.62 162.7,-486.76 158.22,-489.38 153.5,-491.56"/>
<polygon fill="#63b8ff" stroke="#63b8ff" points="264.46,-313.14 263.33,-302.61 257.64,-311.55 264.46,-313.14"/>
</a>
</g>
</g>
<!-- Node4 -->
<g id="Node000004" class="node">
<title>Node4</title>
<g id="a_Node000004"><a xlink:href="class_server_network.html#ae4666ab9a21539961cd8e785870a3ede" target="_top" xlink:title=" ">
<polygon fill="white" stroke="#666666" points="159.62,-474.25 7.12,-474.25 7.12,-455 159.62,-455 159.62,-474.25"/>
<text text-anchor="middle" x="83.38" y="-460.75" font-family="Helvetica,sans-Serif" font-size="10.00">ServerNetwork::handleConnect</text>
</a>
</g>
</g>
<!-- Node1&#45;&gt;Node4 -->
<g id="edge3_Node000001_Node000004" class="edge">
<title>Node1&#45;&gt;Node4</title>
<g id="a_edge3_Node000001_Node000004"><a xlink:title=" ">
<path fill="none" stroke="#63b8ff" d="M258.03,-311.54C244.47,-347.71 214.76,-412.7 166.75,-446.62 162.33,-449.75 157.46,-452.35 152.37,-454.51"/>
<polygon fill="#63b8ff" stroke="#63b8ff" points="261.26,-312.9 261.36,-302.31 254.67,-310.53 261.26,-312.9"/>
</a>
</g>
</g>
<!-- Node5 -->
<g id="Node000005" class="node">
<title>Node5</title>
<g id="a_Node000005"><a xlink:href="class_server_network.html#aa42240c25e134fd7e2565e14e798b905" target="_top" xlink:title=" ">
<polygon fill="white" stroke="#666666" points="154.38,-437.25 12.38,-437.25 12.38,-418 154.38,-418 154.38,-437.25"/>
<text text-anchor="middle" x="83.38" y="-423.75" font-family="Helvetica,sans-Serif" font-size="10.00">ServerNetwork::handleDeath</text>
</a>
</g>
</g>
<!-- Node1&#45;&gt;Node5 -->
<g id="edge4_Node000001_Node000005" class="edge">
<title>Node1&#45;&gt;Node5</title>
<g id="a_edge4_Node000001_Node000005"><a xlink:title=" ">
<path fill="none" stroke="#63b8ff" d="M253.31,-311.06C236.84,-339.65 206.18,-385.26 166.75,-409.62 161.64,-412.78 156.06,-415.39 150.29,-417.54"/>
<polygon fill="#63b8ff" stroke="#63b8ff" points="256.37,-312.77 258.18,-302.33 250.25,-309.36 256.37,-312.77"/>
</a>
</g>
</g>
<!-- Node6 -->
<g id="Node000006" class="node">
<title>Node6</title>
<g id="a_Node000006"><a xlink:href="class_server_network.html#a0b8c7bfca891518237407c9920452311" target="_top" xlink:title=" ">
<polygon fill="white" stroke="#666666" points="166,-400.25 0.75,-400.25 0.75,-381 166,-381 166,-400.25"/>
<text text-anchor="middle" x="83.38" y="-386.75" font-family="Helvetica,sans-Serif" font-size="10.00">ServerNetwork::handleDisconnect</text>
</a>
</g>
</g>
<!-- Node1&#45;&gt;Node6 -->
<g id="edge5_Node000001_Node000006" class="edge">
<title>Node1&#45;&gt;Node6</title>
<g id="a_edge5_Node000001_Node000006"><a xlink:title=" ">
<path fill="none" stroke="#63b8ff" d="M245.96,-309.43C227.23,-329.35 197.92,-356.97 166.75,-372.62 160.47,-375.78 153.65,-378.38 146.71,-380.53"/>
<polygon fill="#63b8ff" stroke="#63b8ff" points="248.35,-312 252.53,-302.27 243.19,-307.27 248.35,-312"/>
</a>
</g>
</g>
<!-- Node7 -->
<g id="Node000007" class="node">
<title>Node7</title>
<g id="a_Node000007"><a xlink:href="class_server_network.html#a12678206eaf4316b7b68ce668508ed3c" target="_top" xlink:title=" ">
<polygon fill="white" stroke="#666666" points="154.38,-363.25 12.38,-363.25 12.38,-344 154.38,-344 154.38,-363.25"/>
<text text-anchor="middle" x="83.38" y="-349.75" font-family="Helvetica,sans-Serif" font-size="10.00">ServerNetwork::handleLoose</text>
</a>
</g>
</g>
<!-- Node1&#45;&gt;Node7 -->
<g id="edge6_Node000001_Node000007" class="edge">
<title>Node1&#45;&gt;Node7</title>
<g id="a_edge6_Node000001_Node000007"><a xlink:title=" ">
<path fill="none" stroke="#63b8ff" d="M229.05,-306.65C210.68,-316.22 188.02,-327.07 166.75,-334.62 157.07,-338.06 146.52,-341.04 136.31,-343.55"/>
<polygon fill="#63b8ff" stroke="#63b8ff" points="230.52,-309.83 237.71,-302.05 227.24,-303.65 230.52,-309.83"/>
</a>
</g>
</g>
<!-- Node8 -->
<g id="Node000008" class="node">
<title>Node8</title>
<g id="a_Node000008"><a xlink:href="class_server_network.html#a5ab5a9bed79b65874f76aa6c5ed40743" target="_top" xlink:title=" ">
<polygon fill="white" stroke="#666666" points="150.62,-325.88 16.12,-325.88 16.12,-295.38 150.62,-295.38 150.62,-325.88"/>
<text text-anchor="start" x="24.12" y="-312.38" font-family="Helvetica,sans-Serif" font-size="10.00">ServerNetwork::handleMob</text>
<text text-anchor="middle" x="83.38" y="-301.12" font-family="Helvetica,sans-Serif" font-size="10.00">Shoot</text>
</a>
</g>
</g>
<!-- Node1&#45;&gt;Node8 -->
<g id="edge7_Node000001_Node000008" class="edge">
<title>Node1&#45;&gt;Node8</title>
<g id="a_edge7_Node000001_Node000008"><a xlink:title=" ">
<path fill="none" stroke="#63b8ff" d="M191.32,-295.97C177.9,-297.8 164.01,-299.71 150.87,-301.51"/>
<polygon fill="#63b8ff" stroke="#63b8ff" points="191.52,-299.47 200.95,-294.64 190.57,-292.54 191.52,-299.47"/>
</a>
</g>
</g>
<!-- Node9 -->
<g id="Node000009" class="node">
<title>Node9</title>
<g id="a_Node000009"><a xlink:href="class_server_network.html#aa1ed44b7d06675729cb35f9a74ae740d" target="_top" xlink:title=" ">
<polygon fill="white" stroke="#666666" points="150.62,-276.88 16.12,-276.88 16.12,-246.38 150.62,-246.38 150.62,-276.88"/>
<text text-anchor="start" x="24.12" y="-263.38" font-family="Helvetica,sans-Serif" font-size="10.00">ServerNetwork::handleMob</text>
<text text-anchor="middle" x="83.38" y="-252.12" font-family="Helvetica,sans-Serif" font-size="10.00">Spawn</text>
</a>
</g>
</g>
<!-- Node1&#45;&gt;Node9 -->
<g id="edge8_Node000001_Node000009" class="edge">
<title>Node1&#45;&gt;Node9</title>
<g id="a_edge8_Node000001_Node000009"><a xlink:title=" ">
<path fill="none" stroke="#63b8ff" d="M191.32,-275.7C177.9,-273.93 164.01,-272.11 150.87,-270.38"/>
<polygon fill="#63b8ff" stroke="#63b8ff" points="190.58,-279.13 200.95,-276.97 191.49,-272.19 190.58,-279.13"/>
</a>
</g>
</g>
<!-- Node10 -->
<g id="Node000010" class="node">
<title>Node10</title>
<g id="a_Node000010"><a xlink:href="class_server_network.html#a654fad8fc2f8e89626e85962190310ca" target="_top" xlink:title=" ">
<polygon fill="white" stroke="#666666" points="155.88,-228.25 10.88,-228.25 10.88,-209 155.88,-209 155.88,-228.25"/>
<text text-anchor="middle" x="83.38" y="-214.75" font-family="Helvetica,sans-Serif" font-size="10.00">ServerNetwork::handleMoves</text>
</a>
</g>
</g>
<!-- Node1&#45;&gt;Node10 -->
<g id="edge9_Node000001_Node000010" class="edge">
<title>Node1&#45;&gt;Node10</title>
<g id="a_edge9_Node000001_Node000010"><a xlink:title=" ">
<path fill="none" stroke="#63b8ff" d="M228.61,-264.86C210.3,-255.54 187.81,-245.01 166.75,-237.62 156.92,-234.18 146.2,-231.18 135.85,-228.65"/>
<polygon fill="#63b8ff" stroke="#63b8ff" points="226.75,-267.84 237.24,-269.34 229.97,-261.63 226.75,-267.84"/>
</a>
</g>
</g>
<!-- Node11 -->
<g id="Node000011" class="node">
<title>Node11</title>
<g id="a_Node000011"><a xlink:href="class_server_network.html#aaaff2bc828499bcded8401145ee061de" target="_top" xlink:title=" ">
<polygon fill="white" stroke="#666666" points="155.12,-190.88 11.62,-190.88 11.62,-160.38 155.12,-160.38 155.12,-190.88"/>
<text text-anchor="start" x="19.62" y="-177.38" font-family="Helvetica,sans-Serif" font-size="10.00">ServerNetwork::handlePower</text>
<text text-anchor="middle" x="83.38" y="-166.12" font-family="Helvetica,sans-Serif" font-size="10.00">UpSpawn</text>
</a>
</g>
</g>
<!-- Node1&#45;&gt;Node11 -->
<g id="edge10_Node000001_Node000011" class="edge">
<title>Node1&#45;&gt;Node11</title>
<g id="a_edge10_Node000001_Node000011"><a xlink:title=" ">
<path fill="none" stroke="#63b8ff" d="M244.72,-261.7C225.76,-242.41 196.77,-215.91 166.75,-199.62 160.99,-196.5 154.77,-193.74 148.43,-191.31"/>
<polygon fill="#63b8ff" stroke="#63b8ff" points="242.19,-264.12 251.65,-268.9 247.24,-259.26 242.19,-264.12"/>
</a>
</g>
</g>
<!-- Node12 -->
<g id="Node000012" class="node">
<title>Node12</title>
<g id="a_Node000012"><a xlink:href="class_server_network.html#ae97dff6741dbd38aaa2c4121d735851b" target="_top" xlink:title=" ">
<polygon fill="white" stroke="#666666" points="154,-141.88 12.75,-141.88 12.75,-111.38 154,-111.38 154,-141.88"/>
<text text-anchor="start" x="20.75" y="-128.38" font-family="Helvetica,sans-Serif" font-size="10.00">ServerNetwork::handleScore</text>
<text text-anchor="middle" x="83.38" y="-117.12" font-family="Helvetica,sans-Serif" font-size="10.00">Update</text>
</a>
</g>
</g>
<!-- Node1&#45;&gt;Node12 -->
<g id="edge11_Node000001_Node000012" class="edge">
<title>Node1&#45;&gt;Node12</title>
<g id="a_edge11_Node000001_Node000012"><a xlink:title=" ">
<path fill="none" stroke="#63b8ff" d="M254.18,-260.08C238.02,-229.83 207.16,-180 166.75,-151.62 161.61,-148.02 155.94,-144.92 150.06,-142.27"/>
<polygon fill="#63b8ff" stroke="#63b8ff" points="251.05,-261.65 258.76,-268.91 257.27,-258.43 251.05,-261.65"/>
</a>
</g>
</g>
<!-- Node13 -->
<g id="Node000013" class="node">
<title>Node13</title>
<g id="a_Node000013"><a xlink:href="class_server_network.html#ad4961c3bdde91a071204fe6322423495" target="_top" xlink:title=" ">
<polygon fill="white" stroke="#666666" points="154,-93.25 12.75,-93.25 12.75,-74 154,-74 154,-93.25"/>
<text text-anchor="middle" x="83.38" y="-79.75" font-family="Helvetica,sans-Serif" font-size="10.00">ServerNetwork::handleShoot</text>
</a>
</g>
</g>
<!-- Node1&#45;&gt;Node13 -->
<g id="edge12_Node000001_Node000013" class="edge">
<title>Node1&#45;&gt;Node13</title>
<g id="a_edge12_Node000001_Node000013"><a xlink:title=" ">
<path fill="none" stroke="#63b8ff" d="M259.78,-258.94C247.82,-218.59 219.42,-142.55 166.75,-102.62 161.95,-98.99 156.58,-96.03 150.94,-93.63"/>
<polygon fill="#63b8ff" stroke="#63b8ff" points="256.41,-259.88 262.5,-268.55 263.15,-257.97 256.41,-259.88"/>
</a>
</g>
</g>
<!-- Node14 -->
<g id="Node000014" class="node">
<title>Node14</title>
<g id="a_Node000014"><a xlink:href="class_server_network.html#ae13fd484142e74f41f74f76464269393" target="_top" xlink:title=" ">
<polygon fill="white" stroke="#666666" points="151.75,-56.25 15,-56.25 15,-37 151.75,-37 151.75,-56.25"/>
<text text-anchor="middle" x="83.38" y="-42.75" font-family="Helvetica,sans-Serif" font-size="10.00">ServerNetwork::handleStart</text>
</a>
</g>
</g>
<!-- Node1&#45;&gt;Node14 -->
<g id="edge13_Node000001_Node000014" class="edge">
<title>Node1&#45;&gt;Node14</title>
<g id="a_edge13_Node000001_Node000014"><a xlink:title=" ">
<path fill="none" stroke="#63b8ff" d="M262.58,-258.84C253.79,-211.87 228.8,-114.85 166.75,-64.62 162.31,-61.03 157.32,-58.12 152.03,-55.76"/>
<polygon fill="#63b8ff" stroke="#63b8ff" points="259.13,-259.43 264.3,-268.68 266.02,-258.22 259.13,-259.43"/>
</a>
</g>
</g>
<!-- Node15 -->
<g id="Node000015" class="node">
<title>Node15</title>
<g id="a_Node000015"><a xlink:href="class_server_network.html#a2b8be4f6e157f07e21e6f16a7a08b23a" target="_top" xlink:title=" ">
<polygon fill="white" stroke="#666666" points="149.88,-19.25 16.88,-19.25 16.88,0 149.88,0 149.88,-19.25"/>
<text text-anchor="middle" x="83.38" y="-5.75" font-family="Helvetica,sans-Serif" font-size="10.00">ServerNetwork::handleWin</text>
</a>
</g>
</g>
<!-- Node1&#45;&gt;Node15 -->
<g id="edge14_Node000001_Node000015" class="edge">
<title>Node1&#45;&gt;Node15</title>
<g id="a_edge14_Node000001_Node000015"><a xlink:title=" ">
<path fill="none" stroke="#63b8ff" d="M264.49,-258.56C258.56,-205.65 237.69,-88.37 166.75,-27.62 161.86,-23.44 156.21,-20.16 150.22,-17.59"/>
<polygon fill="#63b8ff" stroke="#63b8ff" points="261,-258.88 265.49,-268.48 267.97,-258.18 261,-258.88"/>
</a>
</g>
</g>
</g>
</svg>
