<?xml version="1.0" encoding="UTF-8" standalone="no"?>
<!DOCTYPE svg PUBLIC "-//W3C//DTD SVG 1.1//EN"
 "http://www.w3.org/Graphics/SVG/1.1/DTD/svg11.dtd">
<!-- Generated by graphviz version 12.2.1 (20241206.2353)
 -->
<!-- Title: Core::handleKeyboard Pages: 1 -->
<svg width="524pt" height="27pt"
 viewBox="0.00 0.00 523.75 27.25" xmlns="http://www.w3.org/2000/svg" xmlns:xlink="http://www.w3.org/1999/xlink">
<g id="graph0" class="graph" transform="scale(1 1) rotate(0) translate(4 23.25)">
<title>Core::handleKeyboard</title>
<!-- Node1 -->
<g id="Node000001" class="node">
<title>Node1</title>
<g id="a_Node000001"><a xlink:title=" ">
<polygon fill="#999999" stroke="#666666" points="515.75,-19.25 403,-19.25 403,0 515.75,0 515.75,-19.25"/>
<text text-anchor="middle" x="459.38" y="-5.75" font-family="Helvetica,sans-Serif" font-size="10.00">Core::handleKeyboard</text>
</a>
</g>
</g>
<!-- Node2 -->
<g id="Node000002" class="node">
<title>Node2</title>
<g id="a_Node000002"><a xlink:href="class_core.html#a1460b7116a24aa8c866c33c4f16bd5a4" target="_top" xlink:title=" ">
<polygon fill="white" stroke="#666666" points="367,-19.25 285.75,-19.25 285.75,0 367,0 367,-19.25"/>
<text text-anchor="middle" x="326.38" y="-5.75" font-family="Helvetica,sans-Serif" font-size="10.00">Core::gui_login</text>
</a>
</g>
</g>
<!-- Node1&#45;&gt;Node2 -->
<g id="edge1_Node000001_Node000002" class="edge">
<title>Node1&#45;&gt;Node2</title>
<g id="a_edge1_Node000001_Node000002"><a xlink:title=" ">
<path fill="none" stroke="#63b8ff" d="M391.49,-9.62C383.16,-9.62 374.86,-9.62 367.13,-9.62"/>
<polygon fill="#63b8ff" stroke="#63b8ff" points="391.31,-13.13 401.31,-9.63 391.31,-6.13 391.31,-13.13"/>
</a>
</g>
</g>
<!-- Node3 -->
<g id="Node000003" class="node">
<title>Node3</title>
<g id="a_Node000003"><a xlink:href="class_core.html#a78dfa9b9ed54a7ba8cfe1be701b79feb" target="_top" xlink:title=" ">
<polygon fill="white" stroke="#666666" points="249.75,-19.25 164.75,-19.25 164.75,0 249.75,0 249.75,-19.25"/>
<text text-anchor="middle" x="207.25" y="-5.75" font-family="Helvetica,sans-Serif" font-size="10.00">Core::gui_menu</text>
</a>
</g>
</g>
<!-- Node2&#45;&gt;Node3 -->
<g id="edge2_Node000002_Node000003" class="edge">
<title>Node2&#45;&gt;Node3</title>
<g id="a_edge2_Node000002_Node000003"><a xlink:title=" ">
<path fill="none" stroke="#63b8ff" d="M273.91,-9.62C265.93,-9.62 257.78,-9.62 250.05,-9.62"/>
<polygon fill="#63b8ff" stroke="#63b8ff" points="273.88,-13.13 283.88,-9.63 273.88,-6.13 273.88,-13.13"/>
</a>
</g>
</g>
<!-- Node4 -->
<g id="Node000004" class="node">
<title>Node4</title>
<g id="a_Node000004"><a xlink:href="class_core.html#aa6045a2323610bfa0ee712b028eb43e4" target="_top" xlink:title=" ">
<polygon fill="white" stroke="#666666" points="128.75,-19.25 73,-19.25 73,0 128.75,0 128.75,-19.25"/>
<text text-anchor="middle" x="100.88" y="-5.75" font-family="Helvetica,sans-Serif" font-size="10.00">Core::gui</text>
</a>
</g>
</g>
<!-- Node3&#45;&gt;Node4 -->
<g id="edge3_Node000003_Node000004" class="edge">
<title>Node3&#45;&gt;Node4</title>
<g id="a_edge3_Node000003_Node000004"><a xlink:title=" ">
<path fill="none" stroke="#63b8ff" d="M153.09,-9.62C144.76,-9.62 136.46,-9.62 129.04,-9.62"/>
<polygon fill="#63b8ff" stroke="#63b8ff" points="152.88,-13.13 162.88,-9.63 152.88,-6.13 152.88,-13.13"/>
</a>
</g>
</g>
<!-- Node5 -->
<g id="Node000005" class="node">
<title>Node5</title>
<g id="a_Node000005"><a xlink:href="client_2main_8cpp.html#a0ddf1224851353fc92bfbff6f499fa97" target="_top" xlink:title=" ">
<polygon fill="white" stroke="#666666" points="37,-19.25 0,-19.25 0,0 37,0 37,-19.25"/>
<text text-anchor="middle" x="18.5" y="-5.75" font-family="Helvetica,sans-Serif" font-size="10.00">main</text>
</a>
</g>
</g>
<!-- Node4&#45;&gt;Node5 -->
<g id="edge4_Node000004_Node000005" class="edge">
<title>Node4&#45;&gt;Node5</title>
<g id="a_edge4_Node000004_Node000005"><a xlink:title=" ">
<path fill="none" stroke="#63b8ff" d="M61.39,-9.62C52.98,-9.62 44.47,-9.62 37.34,-9.62"/>
<polygon fill="#63b8ff" stroke="#63b8ff" points="61.15,-13.13 71.15,-9.63 61.15,-6.13 61.15,-13.13"/>
</a>
</g>
</g>
</g>
</svg>
