<?xml version="1.0" encoding="UTF-8" standalone="no"?>
<!DOCTYPE svg PUBLIC "-//W3C//DTD SVG 1.1//EN"
 "http://www.w3.org/Graphics/SVG/1.1/DTD/svg11.dtd">
<!-- Generated by graphviz version 12.2.1 (20241206.2353)
 -->
<!-- Title: ServerNetwork::handleLoose Pages: 1 -->
<svg width="316pt" height="88pt"
 viewBox="0.00 0.00 316.00 87.50" xmlns="http://www.w3.org/2000/svg" xmlns:xlink="http://www.w3.org/1999/xlink">
<g id="graph0" class="graph" transform="scale(1 1) rotate(0) translate(4 83.5)">
<title>ServerNetwork::handleLoose</title>
<!-- Node1 -->
<g id="Node000001" class="node">
<title>Node1</title>
<g id="a_Node000001"><a xlink:title=" ">
<polygon fill="#999999" stroke="#666666" points="142,-48.88 0,-48.88 0,-29.62 142,-29.62 142,-48.88"/>
<text text-anchor="middle" x="71" y="-35.38" font-family="Helvetica,sans-Serif" font-size="10.00">ServerNetwork::handleLoose</text>
</a>
</g>
</g>
<!-- Node2 -->
<g id="Node000002" class="node">
<title>Node2</title>
<g id="a_Node000002"><a xlink:href="class_server_network.html#a9fd1b21ff45df9e1576a0a50a79bacd7" target="_top" xlink:title=" ">
<polygon fill="white" stroke="#666666" points="308,-79.5 178,-79.5 178,-49 308,-49 308,-79.5"/>
<text text-anchor="start" x="186" y="-66" font-family="Helvetica,sans-Serif" font-size="10.00">ServerNetwork::broadcast</text>
<text text-anchor="middle" x="243" y="-54.75" font-family="Helvetica,sans-Serif" font-size="10.00">_message</text>
</a>
</g>
</g>
<!-- Node1&#45;&gt;Node2 -->
<g id="edge1_Node000001_Node000002" class="edge">
<title>Node1&#45;&gt;Node2</title>
<g id="a_edge1_Node000001_Node000002"><a xlink:title=" ">
<path fill="none" stroke="#63b8ff" d="M140.66,-49.35C149.18,-50.6 157.93,-51.89 166.54,-53.15"/>
<polygon fill="#63b8ff" stroke="#63b8ff" points="165.87,-56.59 176.27,-54.58 166.88,-49.67 165.87,-56.59"/>
</a>
</g>
</g>
<!-- Node3 -->
<g id="Node000003" class="node">
<title>Node3</title>
<g id="a_Node000003"><a xlink:href="class_server_network.html#a3cdc99eb8ed134a23329bf2d8f9c74d2" target="_top" xlink:title=" ">
<polygon fill="white" stroke="#666666" points="302.38,-30.5 183.62,-30.5 183.62,0 302.38,0 302.38,-30.5"/>
<text text-anchor="start" x="191.62" y="-17" font-family="Helvetica,sans-Serif" font-size="10.00">ServerNetwork::encode</text>
<text text-anchor="middle" x="243" y="-5.75" font-family="Helvetica,sans-Serif" font-size="10.00">_action</text>
</a>
</g>
</g>
<!-- Node1&#45;&gt;Node3 -->
<g id="edge2_Node000001_Node000003" class="edge">
<title>Node1&#45;&gt;Node3</title>
<g id="a_edge2_Node000001_Node000003"><a xlink:title=" ">
<path fill="none" stroke="#63b8ff" d="M142.13,-29.35C151.92,-27.97 161.99,-26.55 171.79,-25.16"/>
<polygon fill="#63b8ff" stroke="#63b8ff" points="172.22,-28.64 181.63,-23.77 171.24,-21.71 172.22,-28.64"/>
</a>
</g>
</g>
</g>
</svg>
