<?xml version="1.0" encoding="UTF-8" standalone="no"?>
<!DOCTYPE svg PUBLIC "-//W3C//DTD SVG 1.1//EN"
 "http://www.w3.org/Graphics/SVG/1.1/DTD/svg11.dtd">
<!-- Generated by graphviz version 12.2.1 (20241206.2353)
 -->
<!-- Title: Core::displayRegistryInfo Pages: 1 -->
<svg width="1546pt" height="126pt"
 viewBox="0.00 0.00 1546.25 126.48" xmlns="http://www.w3.org/2000/svg" xmlns:xlink="http://www.w3.org/1999/xlink">
<g id="graph0" class="graph" transform="scale(1 1) rotate(0) translate(4 122.48)">
<title>Core::displayRegistryInfo</title>
<!-- Node1 -->
<g id="Node000001" class="node">
<title>Node1</title>
<g id="a_Node000001"><a xlink:title=" ">
<polygon fill="#999999" stroke="#666666" points="1538.25,-28.62 1411.25,-28.62 1411.25,-9.38 1538.25,-9.38 1538.25,-28.62"/>
<text text-anchor="middle" x="1474.75" y="-15.12" font-family="Helvetica,sans-Serif" font-size="10.00">Core::displayRegistryInfo</text>
</a>
</g>
</g>
<!-- Node2 -->
<g id="Node000002" class="node">
<title>Node2</title>
<g id="a_Node000002"><a xlink:href="class_core.html#aa6b37e20d4a33fc29c07a9cd61f8a993" target="_top" xlink:title=" ">
<polygon fill="white" stroke="#666666" points="1375.25,-47.62 1286.5,-47.62 1286.5,-28.38 1375.25,-28.38 1375.25,-47.62"/>
<text text-anchor="middle" x="1330.88" y="-34.12" font-family="Helvetica,sans-Serif" font-size="10.00">Core::display_all</text>
</a>
</g>
</g>
<!-- Node1&#45;&gt;Node2 -->
<g id="edge1_Node000001_Node000002" class="edge">
<title>Node1&#45;&gt;Node2</title>
<g id="a_edge1_Node000001_Node000002"><a xlink:title=" ">
<path fill="none" stroke="#63b8ff" d="M1399.78,-28.91C1391.47,-30.02 1383.22,-31.12 1375.47,-32.16"/>
<polygon fill="#63b8ff" stroke="#63b8ff" points="1400.16,-32.39 1409.61,-27.59 1399.23,-25.45 1400.16,-32.39"/>
</a>
</g>
</g>
<!-- Node6 -->
<g id="Node000006" class="node">
<title>Node6</title>
<g id="a_Node000006"><a xlink:href="class_core.html#ab5c7da5be504f0f34380b1ca5b97924b" target="_top" xlink:title=" ">
<polygon fill="white" stroke="#666666" points="769.75,-66.62 685.5,-66.62 685.5,-47.38 769.75,-47.38 769.75,-66.62"/>
<text text-anchor="middle" x="727.62" y="-53.12" font-family="Helvetica,sans-Serif" font-size="10.00">Core::gui_lobby</text>
</a>
</g>
</g>
<!-- Node1&#45;&gt;Node6 -->
<g id="edge16_Node000001_Node000006" class="edge">
<title>Node1&#45;&gt;Node6</title>
<g id="a_edge16_Node000001_Node000006"><a xlink:title=" ">
<path fill="none" stroke="#63b8ff" d="M1399.65,-10.83C1346.62,-5.68 1273.5,0 1209,0 1209,0 1209,0 1059.75,0 950.38,0 823.59,-30.58 763.57,-46.94"/>
<polygon fill="#63b8ff" stroke="#63b8ff" points="1399.18,-14.3 1409.48,-11.8 1399.87,-7.33 1399.18,-14.3"/>
</a>
</g>
</g>
<!-- Node3 -->
<g id="Node000003" class="node">
<title>Node3</title>
<g id="a_Node000003"><a xlink:href="class_core.html#a42623cce6be1bf30af3a1bca1ed73ed6" target="_top" xlink:title=" ">
<polygon fill="white" stroke="#666666" points="1250.5,-66.62 1165.5,-66.62 1165.5,-47.38 1250.5,-47.38 1250.5,-66.62"/>
<text text-anchor="middle" x="1208" y="-53.12" font-family="Helvetica,sans-Serif" font-size="10.00">Core::gui_game</text>
</a>
</g>
</g>
<!-- Node2&#45;&gt;Node3 -->
<g id="edge2_Node000002_Node000003" class="edge">
<title>Node2&#45;&gt;Node3</title>
<g id="a_edge2_Node000002_Node000003"><a xlink:title=" ">
<path fill="none" stroke="#63b8ff" d="M1274.98,-46.63C1266.91,-47.9 1258.71,-49.19 1250.96,-50.4"/>
<polygon fill="#63b8ff" stroke="#63b8ff" points="1275.41,-50.1 1284.74,-45.09 1274.32,-43.19 1275.41,-50.1"/>
</a>
</g>
</g>
<!-- Node4 -->
<g id="Node000004" class="node">
<title>Node4</title>
<g id="a_Node000004"><a xlink:href="class_core.html#a3b2840725a18b5e49614dd429f449289" target="_top" xlink:title=" ">
<polygon fill="white" stroke="#666666" points="1129.5,-85.62 992,-85.62 992,-66.38 1129.5,-66.38 1129.5,-85.62"/>
<text text-anchor="middle" x="1060.75" y="-72.12" font-family="Helvetica,sans-Serif" font-size="10.00">Core::handleStartCommand</text>
</a>
</g>
</g>
<!-- Node3&#45;&gt;Node4 -->
<g id="edge3_Node000003_Node000004" class="edge">
<title>Node3&#45;&gt;Node4</title>
<g id="a_edge3_Node000003_Node000004"><a xlink:title=" ">
<path fill="none" stroke="#63b8ff" d="M1154.15,-63.91C1146.29,-64.94 1138.1,-66.01 1129.98,-67.08"/>
<polygon fill="#63b8ff" stroke="#63b8ff" points="1154.41,-67.41 1163.88,-62.64 1153.51,-60.47 1154.41,-67.41"/>
</a>
</g>
</g>
<!-- Node13 -->
<g id="Node000013" class="node">
<title>Node13</title>
<g id="a_Node000013"><a xlink:href="class_core.html#afe1c190b0d03ded99b7408538b16998c" target="_top" xlink:title=" ">
<polygon fill="white" stroke="#666666" points="649.5,-104.62 562.25,-104.62 562.25,-85.38 649.5,-85.38 649.5,-104.62"/>
<text text-anchor="middle" x="605.88" y="-91.12" font-family="Helvetica,sans-Serif" font-size="10.00">Core::login_auto</text>
</a>
</g>
</g>
<!-- Node3&#45;&gt;Node13 -->
<g id="edge15_Node000003_Node000013" class="edge">
<title>Node3&#45;&gt;Node13</title>
<g id="a_edge15_Node000003_Node000013"><a xlink:title=" ">
<path fill="none" stroke="#63b8ff" d="M1181.97,-72.92C1167.3,-81.29 1148.06,-90.69 1129.5,-95 955.6,-135.34 740.3,-113.67 649.96,-101.48"/>
<polygon fill="#63b8ff" stroke="#63b8ff" points="1183.66,-75.99 1190.46,-67.86 1180.08,-69.97 1183.66,-75.99"/>
</a>
</g>
</g>
<!-- Node5 -->
<g id="Node000005" class="node">
<title>Node5</title>
<g id="a_Node000005"><a xlink:href="class_core.html#aae2b137a9885ae1ac3d740786cfdcb34" target="_top" xlink:title=" ">
<polygon fill="white" stroke="#666666" points="956,-66.62 805.75,-66.62 805.75,-47.38 956,-47.38 956,-66.62"/>
<text text-anchor="middle" x="880.88" y="-53.12" font-family="Helvetica,sans-Serif" font-size="10.00">Core::handleServerCommands</text>
</a>
</g>
</g>
<!-- Node4&#45;&gt;Node5 -->
<g id="edge4_Node000004_Node000005" class="edge">
<title>Node4&#45;&gt;Node5</title>
<g id="a_edge4_Node000004_Node000005"><a xlink:title=" ">
<path fill="none" stroke="#63b8ff" d="M980.49,-67.53C972.47,-66.68 964.34,-65.81 956.36,-64.96"/>
<polygon fill="#63b8ff" stroke="#63b8ff" points="979.92,-70.99 990.24,-68.57 980.67,-64.03 979.92,-70.99"/>
</a>
</g>
</g>
<!-- Node5&#45;&gt;Node3 -->
<g id="edge5_Node000005_Node000003" class="edge">
<title>Node5&#45;&gt;Node3</title>
<g id="a_edge5_Node000005_Node000003"><a xlink:title=" ">
<path fill="none" stroke="#63b8ff" d="M967.67,-57C1031.37,-57 1115.49,-57 1165.16,-57"/>
<polygon fill="#63b8ff" stroke="#63b8ff" points="967.94,-53.5 957.94,-57 967.94,-60.5 967.94,-53.5"/>
</a>
</g>
</g>
<!-- Node5&#45;&gt;Node6 -->
<g id="edge6_Node000005_Node000006" class="edge">
<title>Node5&#45;&gt;Node6</title>
<g id="a_edge6_Node000005_Node000006"><a xlink:title=" ">
<path fill="none" stroke="#63b8ff" d="M794.12,-57C785.76,-57 777.57,-57 769.97,-57"/>
<polygon fill="#63b8ff" stroke="#63b8ff" points="794.07,-60.5 804.07,-57 794.07,-53.5 794.07,-60.5"/>
</a>
</g>
</g>
<!-- Node7 -->
<g id="Node000007" class="node">
<title>Node7</title>
<g id="a_Node000007"><a xlink:href="class_core.html#ae373e5e53d26163bfc20d236fd116f89" target="_top" xlink:title=" ">
<polygon fill="white" stroke="#666666" points="637.5,-66.62 574.25,-66.62 574.25,-47.38 637.5,-47.38 637.5,-66.62"/>
<text text-anchor="middle" x="605.88" y="-53.12" font-family="Helvetica,sans-Serif" font-size="10.00">Core::login</text>
</a>
</g>
</g>
<!-- Node6&#45;&gt;Node7 -->
<g id="edge7_Node000006_Node000007" class="edge">
<title>Node6&#45;&gt;Node7</title>
<g id="a_edge7_Node000006_Node000007"><a xlink:title=" ">
<path fill="none" stroke="#63b8ff" d="M673.92,-57C661.57,-57 648.81,-57 637.77,-57"/>
<polygon fill="#63b8ff" stroke="#63b8ff" points="673.56,-60.5 683.56,-57 673.56,-53.5 673.56,-60.5"/>
</a>
</g>
</g>
<!-- Node6&#45;&gt;Node13 -->
<g id="edge13_Node000006_Node000013" class="edge">
<title>Node6&#45;&gt;Node13</title>
<g id="a_edge13_Node000006_Node000013"><a xlink:title=" ">
<path fill="none" stroke="#63b8ff" d="M684.21,-70.46C669.12,-75.25 652.4,-80.55 638.38,-85"/>
<polygon fill="#63b8ff" stroke="#63b8ff" points="684.93,-73.9 693.41,-67.54 682.82,-67.23 684.93,-73.9"/>
</a>
</g>
</g>
<!-- Node8 -->
<g id="Node000008" class="node">
<title>Node8</title>
<g id="a_Node000008"><a xlink:href="class_core.html#a245f461d8f0f1feaa8b126f329c7db22" target="_top" xlink:title=" ">
<polygon fill="white" stroke="#666666" points="526.25,-66.62 403,-66.62 403,-47.38 526.25,-47.38 526.25,-66.62"/>
<text text-anchor="middle" x="464.62" y="-53.12" font-family="Helvetica,sans-Serif" font-size="10.00">Core::handleMouseClick</text>
</a>
</g>
</g>
<!-- Node7&#45;&gt;Node8 -->
<g id="edge8_Node000007_Node000008" class="edge">
<title>Node7&#45;&gt;Node8</title>
<g id="a_edge8_Node000007_Node000008"><a xlink:title=" ">
<path fill="none" stroke="#63b8ff" d="M562.65,-57C551.32,-57 538.84,-57 526.71,-57"/>
<polygon fill="#63b8ff" stroke="#63b8ff" points="562.46,-60.5 572.46,-57 562.46,-53.5 562.46,-60.5"/>
</a>
</g>
</g>
<!-- Node9 -->
<g id="Node000009" class="node">
<title>Node9</title>
<g id="a_Node000009"><a xlink:href="class_core.html#a1460b7116a24aa8c866c33c4f16bd5a4" target="_top" xlink:title=" ">
<polygon fill="white" stroke="#666666" points="367,-66.62 285.75,-66.62 285.75,-47.38 367,-47.38 367,-66.62"/>
<text text-anchor="middle" x="326.38" y="-53.12" font-family="Helvetica,sans-Serif" font-size="10.00">Core::gui_login</text>
</a>
</g>
</g>
<!-- Node8&#45;&gt;Node9 -->
<g id="edge9_Node000008_Node000009" class="edge">
<title>Node8&#45;&gt;Node9</title>
<g id="a_edge9_Node000008_Node000009"><a xlink:title=" ">
<path fill="none" stroke="#63b8ff" d="M391.34,-57C383.03,-57 374.8,-57 367.16,-57"/>
<polygon fill="#63b8ff" stroke="#63b8ff" points="391.16,-60.5 401.16,-57 391.16,-53.5 391.16,-60.5"/>
</a>
</g>
</g>
<!-- Node10 -->
<g id="Node000010" class="node">
<title>Node10</title>
<g id="a_Node000010"><a xlink:href="class_core.html#a78dfa9b9ed54a7ba8cfe1be701b79feb" target="_top" xlink:title=" ">
<polygon fill="white" stroke="#666666" points="249.75,-66.62 164.75,-66.62 164.75,-47.38 249.75,-47.38 249.75,-66.62"/>
<text text-anchor="middle" x="207.25" y="-53.12" font-family="Helvetica,sans-Serif" font-size="10.00">Core::gui_menu</text>
</a>
</g>
</g>
<!-- Node9&#45;&gt;Node10 -->
<g id="edge10_Node000009_Node000010" class="edge">
<title>Node9&#45;&gt;Node10</title>
<g id="a_edge10_Node000009_Node000010"><a xlink:title=" ">
<path fill="none" stroke="#63b8ff" d="M273.91,-57C265.93,-57 257.78,-57 250.05,-57"/>
<polygon fill="#63b8ff" stroke="#63b8ff" points="273.88,-60.5 283.88,-57 273.88,-53.5 273.88,-60.5"/>
</a>
</g>
</g>
<!-- Node11 -->
<g id="Node000011" class="node">
<title>Node11</title>
<g id="a_Node000011"><a xlink:href="class_core.html#aa6045a2323610bfa0ee712b028eb43e4" target="_top" xlink:title=" ">
<polygon fill="white" stroke="#666666" points="128.75,-66.62 73,-66.62 73,-47.38 128.75,-47.38 128.75,-66.62"/>
<text text-anchor="middle" x="100.88" y="-53.12" font-family="Helvetica,sans-Serif" font-size="10.00">Core::gui</text>
</a>
</g>
</g>
<!-- Node10&#45;&gt;Node11 -->
<g id="edge11_Node000010_Node000011" class="edge">
<title>Node10&#45;&gt;Node11</title>
<g id="a_edge11_Node000010_Node000011"><a xlink:title=" ">
<path fill="none" stroke="#63b8ff" d="M153.09,-57C144.76,-57 136.46,-57 129.04,-57"/>
<polygon fill="#63b8ff" stroke="#63b8ff" points="152.88,-60.5 162.88,-57 152.88,-53.5 152.88,-60.5"/>
</a>
</g>
</g>
<!-- Node12 -->
<g id="Node000012" class="node">
<title>Node12</title>
<g id="a_Node000012"><a xlink:href="client_2main_8cpp.html#a0ddf1224851353fc92bfbff6f499fa97" target="_top" xlink:title=" ">
<polygon fill="white" stroke="#666666" points="37,-85.62 0,-85.62 0,-66.38 37,-66.38 37,-85.62"/>
<text text-anchor="middle" x="18.5" y="-72.12" font-family="Helvetica,sans-Serif" font-size="10.00">main</text>
</a>
</g>
</g>
<!-- Node11&#45;&gt;Node12 -->
<g id="edge12_Node000011_Node000012" class="edge">
<title>Node11&#45;&gt;Node12</title>
<g id="a_edge12_Node000011_Node000012"><a xlink:title=" ">
<path fill="none" stroke="#63b8ff" d="M61.68,-66.03C53.18,-68.04 44.55,-70.08 37.34,-71.78"/>
<polygon fill="#63b8ff" stroke="#63b8ff" points="62.26,-69.49 71.19,-63.78 60.65,-62.68 62.26,-69.49"/>
</a>
</g>
</g>
<!-- Node13&#45;&gt;Node12 -->
<g id="edge14_Node000013_Node000012" class="edge">
<title>Node13&#45;&gt;Node12</title>
<g id="a_edge14_Node000013_Node000012"><a xlink:title=" ">
<path fill="none" stroke="#63b8ff" d="M550.68,-95C494.75,-95 404.96,-95 327.38,-95 327.38,-95 327.38,-95 206.25,-95 144,-95 70.69,-84.42 37.47,-79.05"/>
<polygon fill="#63b8ff" stroke="#63b8ff" points="550.58,-98.5 560.58,-95 550.58,-91.5 550.58,-98.5"/>
</a>
</g>
</g>
</g>
</svg>
