<?xml version="1.0" encoding="UTF-8" standalone="no"?>
<!DOCTYPE svg PUBLIC "-//W3C//DTD SVG 1.1//EN"
 "http://www.w3.org/Graphics/SVG/1.1/DTD/svg11.dtd">
<!-- Generated by graphviz version 12.2.1 (20241206.2353)
 -->
<!-- Title: ServerGame::setup_collision_timer Pages: 1 -->
<svg width="519pt" height="101pt"
 viewBox="0.00 0.00 518.75 101.25" xmlns="http://www.w3.org/2000/svg" xmlns:xlink="http://www.w3.org/1999/xlink">
<g id="graph0" class="graph" transform="scale(1 1) rotate(0) translate(4 97.25)">
<title>ServerGame::setup_collision_timer</title>
<!-- Node1 -->
<g id="Node000001" class="node">
<title>Node1</title>
<g id="a_Node000001"><a xlink:title=" ">
<polygon fill="#999999" stroke="#666666" points="141.25,-61.88 0,-61.88 0,-31.38 141.25,-31.38 141.25,-61.88"/>
<text text-anchor="start" x="8" y="-48.38" font-family="Helvetica,sans-Serif" font-size="10.00">ServerGame::setup_collision</text>
<text text-anchor="middle" x="70.62" y="-37.12" font-family="Helvetica,sans-Serif" font-size="10.00">_timer</text>
</a>
</g>
</g>
<!-- Node1&#45;&gt;Node1 -->
<g id="edge6_Node000001_Node000001" class="edge">
<title>Node1&#45;&gt;Node1</title>
<g id="a_edge6_Node000001_Node000001"><a xlink:title=" ">
<path fill="none" stroke="#63b8ff" d="M37.82,-62.36C31.13,-71.43 42.06,-79.88 70.62,-79.88 86.25,-79.88 96.59,-77.35 101.67,-73.58"/>
<polygon fill="#63b8ff" stroke="#63b8ff" points="105.1,-74.28 103.19,-63.86 98.19,-73.19 105.1,-74.28"/>
</a>
</g>
</g>
<!-- Node2 -->
<g id="Node000002" class="node">
<title>Node2</title>
<g id="a_Node000002"><a xlink:href="class_server_game.html#aa99390eeaadd29af06da639d8a9ef353" target="_top" xlink:title=" ">
<polygon fill="white" stroke="#666666" points="334.25,-56.25 177.25,-56.25 177.25,-37 334.25,-37 334.25,-56.25"/>
<text text-anchor="middle" x="255.75" y="-42.75" font-family="Helvetica,sans-Serif" font-size="10.00">ServerGame::checkAllCollisions</text>
</a>
</g>
</g>
<!-- Node1&#45;&gt;Node2 -->
<g id="edge1_Node000001_Node000002" class="edge">
<title>Node1&#45;&gt;Node2</title>
<g id="a_edge1_Node000001_Node000002"><a xlink:title=" ">
<path fill="none" stroke="#63b8ff" d="M141.64,-46.62C149.46,-46.62 157.51,-46.62 165.53,-46.62"/>
<polygon fill="#63b8ff" stroke="#63b8ff" points="165.32,-50.13 175.32,-46.63 165.32,-43.13 165.32,-50.13"/>
</a>
</g>
</g>
<!-- Node2&#45;&gt;Node2 -->
<g id="edge2_Node000002_Node000002" class="edge">
<title>Node2&#45;&gt;Node2</title>
<g id="a_edge2_Node000002_Node000002"><a xlink:title=" ">
<path fill="none" stroke="#63b8ff" d="M226.83,-56.54C213.63,-65.15 223.27,-74.25 255.75,-74.25 274.52,-74.25 285.67,-71.21 289.18,-66.98"/>
<polygon fill="#63b8ff" stroke="#63b8ff" points="292.45,-65.72 285.27,-57.93 286.02,-68.5 292.45,-65.72"/>
</a>
</g>
</g>
<!-- Node3 -->
<g id="Node000003" class="node">
<title>Node3</title>
<g id="a_Node000003"><a xlink:href="class_server_game.html#a9a2b4bb7a61cf272fae0d6ed1f13e59f" target="_top" xlink:title=" ">
<polygon fill="white" stroke="#666666" points="510.75,-93.25 370.25,-93.25 370.25,-74 510.75,-74 510.75,-93.25"/>
<text text-anchor="middle" x="440.5" y="-79.75" font-family="Helvetica,sans-Serif" font-size="10.00">ServerGame::handleColision</text>
</a>
</g>
</g>
<!-- Node2&#45;&gt;Node3 -->
<g id="edge3_Node000002_Node000003" class="edge">
<title>Node2&#45;&gt;Node3</title>
<g id="a_edge3_Node000002_Node000003"><a xlink:title=" ">
<path fill="none" stroke="#63b8ff" d="M306.69,-56.74C328.85,-61.22 355.13,-66.54 378.45,-71.26"/>
<polygon fill="#63b8ff" stroke="#63b8ff" points="377.64,-74.67 388.14,-73.23 379.03,-67.81 377.64,-74.67"/>
</a>
</g>
</g>
<!-- Node4 -->
<g id="Node000004" class="node">
<title>Node4</title>
<g id="a_Node000004"><a xlink:href="class_server_game.html#adf9d28b0bb99cd31ec005e81fa4128f4" target="_top" xlink:title=" ">
<polygon fill="white" stroke="#666666" points="506.25,-56.25 374.75,-56.25 374.75,-37 506.25,-37 506.25,-56.25"/>
<text text-anchor="middle" x="440.5" y="-42.75" font-family="Helvetica,sans-Serif" font-size="10.00">ServerGame::handleDeath</text>
</a>
</g>
</g>
<!-- Node2&#45;&gt;Node4 -->
<g id="edge4_Node000002_Node000004" class="edge">
<title>Node2&#45;&gt;Node4</title>
<g id="a_edge4_Node000002_Node000004"><a xlink:title=" ">
<path fill="none" stroke="#63b8ff" d="M334.52,-46.62C343.98,-46.62 353.64,-46.62 363.08,-46.62"/>
<polygon fill="#63b8ff" stroke="#63b8ff" points="362.95,-50.13 372.95,-46.63 362.95,-43.13 362.95,-50.13"/>
</a>
</g>
</g>
<!-- Node5 -->
<g id="Node000005" class="node">
<title>Node5</title>
<g id="a_Node000005"><a xlink:href="class_server_game.html#a0d2136187aa368d02f5bc66c2b1f85cf" target="_top" xlink:title=" ">
<polygon fill="white" stroke="#666666" points="501.38,-19.25 379.62,-19.25 379.62,0 501.38,0 501.38,-19.25"/>
<text text-anchor="middle" x="440.5" y="-5.75" font-family="Helvetica,sans-Serif" font-size="10.00">ServerGame::isColliding</text>
</a>
</g>
</g>
<!-- Node2&#45;&gt;Node5 -->
<g id="edge5_Node000002_Node000005" class="edge">
<title>Node2&#45;&gt;Node5</title>
<g id="a_edge5_Node000002_Node000005"><a xlink:title=" ">
<path fill="none" stroke="#63b8ff" d="M306.69,-36.51C328.85,-32.03 355.13,-26.71 378.45,-21.99"/>
<polygon fill="#63b8ff" stroke="#63b8ff" points="379.03,-25.44 388.14,-20.02 377.64,-18.58 379.03,-25.44"/>
</a>
</g>
</g>
</g>
</svg>
