<?xml version="1.0" encoding="UTF-8" standalone="no"?>
<!DOCTYPE svg PUBLIC "-//W3C//DTD SVG 1.1//EN"
 "http://www.w3.org/Graphics/SVG/1.1/DTD/svg11.dtd">
<!-- Generated by graphviz version 12.2.1 (20241206.2353)
 -->
<!-- Title: registry Pages: 1 -->
<svg width="355pt" height="311pt"
 viewBox="0.00 0.00 355.00 310.50" xmlns="http://www.w3.org/2000/svg" xmlns:xlink="http://www.w3.org/1999/xlink">

<svg id="main" version="1.1" xmlns="http://www.w3.org/2000/svg" xmlns:xlink="http://www.w3.org/1999/xlink" xml:space="preserve">

<style type="text/css"><![CDATA[
.node, .edge {opacity: 0.7;}
.node.selected, .edge.selected {opacity: 1;}
.edge:hover path { stroke: red; }
.edge:hover polygon { stroke: red; fill: red; }
]]></style>
<script type="application/ecmascript" xlink:href="svg.min.js"/>
<svg id="graph" class="graph">
<g id="graph0" class="graph" transform="scale(1 1) rotate(0) translate(4 306.5)">
<title>registry</title>
<!-- Node1 -->
<g id="Node000001" class="node">
<title>Node1</title>
<g id="a_Node000001"><a xlink:title="Registre central du système ECS.">
<polygon fill="#999999" stroke="none" points="246.75,-171.75 132.75,-171.75 132.75,0 246.75,0 246.75,-171.75"/>
<text text-anchor="start" x="173.62" y="-158.25" font-family="Helvetica,sans-Serif" font-size="10.00">registry</text>
<text text-anchor="start" x="188.25" y="-143" font-family="Helvetica,sans-Serif" font-size="10.00"> </text>
<text text-anchor="start" x="136.75" y="-127.75" font-family="Helvetica,sans-Serif" font-size="10.00">+</text>
<text text-anchor="start" x="146.75" y="-127.75" font-family="Helvetica,sans-Serif" font-size="10.00">register_component()</text>
<text text-anchor="start" x="136.75" y="-112.5" font-family="Helvetica,sans-Serif" font-size="10.00">+</text>
<text text-anchor="start" x="146.75" y="-112.5" font-family="Helvetica,sans-Serif" font-size="10.00">get_components()</text>
<text text-anchor="start" x="136.75" y="-97.25" font-family="Helvetica,sans-Serif" font-size="10.00">+</text>
<text text-anchor="start" x="146.75" y="-97.25" font-family="Helvetica,sans-Serif" font-size="10.00">get_components()</text>
<text text-anchor="start" x="136.75" y="-82" font-family="Helvetica,sans-Serif" font-size="10.00">+</text>
<text text-anchor="start" x="146.75" y="-82" font-family="Helvetica,sans-Serif" font-size="10.00">spawn_entity()</text>
<text text-anchor="start" x="136.75" y="-66.75" font-family="Helvetica,sans-Serif" font-size="10.00">+</text>
<text text-anchor="start" x="146.75" y="-66.75" font-family="Helvetica,sans-Serif" font-size="10.00">entity_from_index()</text>
<text text-anchor="start" x="136.75" y="-51.5" font-family="Helvetica,sans-Serif" font-size="10.00">+</text>
<text text-anchor="start" x="146.75" y="-51.5" font-family="Helvetica,sans-Serif" font-size="10.00">kill_entity()</text>
<text text-anchor="start" x="136.75" y="-36.25" font-family="Helvetica,sans-Serif" font-size="10.00">+</text>
<text text-anchor="start" x="146.75" y="-36.25" font-family="Helvetica,sans-Serif" font-size="10.00">add_component()</text>
<text text-anchor="start" x="136.75" y="-21" font-family="Helvetica,sans-Serif" font-size="10.00">+</text>
<text text-anchor="start" x="146.75" y="-21" font-family="Helvetica,sans-Serif" font-size="10.00">emplace_component()</text>
<text text-anchor="start" x="136.75" y="-5.75" font-family="Helvetica,sans-Serif" font-size="10.00">+</text>
<text text-anchor="start" x="146.75" y="-5.75" font-family="Helvetica,sans-Serif" font-size="10.00">remove_component()</text>
<polygon fill="#666666" stroke="#666666" points="132.75,-154.5 132.75,-154.5 246.75,-154.5 246.75,-154.5 132.75,-154.5"/>
<polygon fill="#666666" stroke="#666666" points="132.75,-139.25 132.75,-139.25 246.75,-139.25 246.75,-139.25 132.75,-139.25"/>
<polygon fill="none" stroke="#666666" points="132.75,0 132.75,-171.75 246.75,-171.75 246.75,0 132.75,0"/>
</a>
</g>
</g>
<!-- Node2 -->
<g id="Node000002" class="node">
<title>Node2</title>
<g id="a_Node000002"><a xlink:title=" ">
<polygon fill="white" stroke="none" points="111.5,-291.25 0,-291.25 0,-230.25 111.5,-230.25 111.5,-291.25"/>
<text text-anchor="start" x="4" y="-277.75" font-family="Helvetica,sans-Serif" font-size="10.00">unordered_map&lt; std</text>
<text text-anchor="start" x="4" y="-266.5" font-family="Helvetica,sans-Serif" font-size="10.00">::type_index, std::any &gt;</text>
<text text-anchor="start" x="54.25" y="-251.25" font-family="Helvetica,sans-Serif" font-size="10.00"> </text>
<text text-anchor="start" x="54.25" y="-236" font-family="Helvetica,sans-Serif" font-size="10.00"> </text>
<polygon fill="#666666" stroke="#666666" points="0,-262.75 0,-262.75 111.5,-262.75 111.5,-262.75 0,-262.75"/>
<polygon fill="#666666" stroke="#666666" points="0,-247.5 0,-247.5 111.5,-247.5 111.5,-247.5 0,-247.5"/>
<polygon fill="none" stroke="#666666" points="0,-230.25 0,-291.25 111.5,-291.25 111.5,-230.25 0,-230.25"/>
</a>
</g>
</g>
<!-- Node2&#45;&gt;Node1 -->
<g id="edge1_Node000001_Node000002" class="edge">
<title>Node2&#45;&gt;Node1</title>
<g id="a_edge1_Node000001_Node000002"><a xlink:title=" ">
<path fill="none" stroke="#63b8ff" d="M67.14,-230.3C72.8,-217.32 80.3,-202.22 89,-189.75 99.13,-175.23 111.36,-160.87 123.76,-147.7"/>
<polygon fill="none" stroke="#63b8ff" points="123.84,-147.62 125.12,-140.52 132.17,-138.98 130.89,-146.07 123.84,-147.62"/>
</a>
</g>
<text text-anchor="middle" x="137.38" y="-191.5" font-family="Helvetica,sans-Serif" font-size="10.00" fill="grey"> &#45;_components_arrays</text>
</g>
<!-- Node3 -->
<g id="Node000003" class="node">
<title>Node3</title>
<g id="a_Node000003"><a xlink:title=" ">
<polygon fill="white" stroke="none" points="250.38,-302.5 129.12,-302.5 129.12,-219 250.38,-219 250.38,-302.5"/>
<text text-anchor="start" x="133.12" y="-289" font-family="Helvetica,sans-Serif" font-size="10.00">unordered_map&lt; std</text>
<text text-anchor="start" x="133.12" y="-277.75" font-family="Helvetica,sans-Serif" font-size="10.00">::type_index, std::function</text>
<text text-anchor="start" x="133.12" y="-266.5" font-family="Helvetica,sans-Serif" font-size="10.00">&lt; void(registry &amp;, Entity</text>
<text text-anchor="start" x="162.38" y="-255.25" font-family="Helvetica,sans-Serif" font-size="10.00"> const &amp;)&gt; &gt;</text>
<text text-anchor="start" x="188.25" y="-240" font-family="Helvetica,sans-Serif" font-size="10.00"> </text>
<text text-anchor="start" x="188.25" y="-224.75" font-family="Helvetica,sans-Serif" font-size="10.00"> </text>
<polygon fill="#666666" stroke="#666666" points="129.12,-251.5 129.12,-251.5 250.38,-251.5 250.38,-251.5 129.12,-251.5"/>
<polygon fill="#666666" stroke="#666666" points="129.12,-236.25 129.12,-236.25 250.38,-236.25 250.38,-236.25 129.12,-236.25"/>
<polygon fill="none" stroke="#666666" points="129.12,-219 129.12,-302.5 250.38,-302.5 250.38,-219 129.12,-219"/>
</a>
</g>
</g>
<!-- Node3&#45;&gt;Node1 -->
<g id="edge2_Node000001_Node000003" class="edge">
<title>Node3&#45;&gt;Node1</title>
<g id="a_edge2_Node000001_Node000003"><a xlink:title=" ">
<path fill="none" stroke="#63b8ff" d="M189.75,-219.22C189.75,-208.55 189.75,-196.57 189.75,-184.29"/>
<polygon fill="none" stroke="#63b8ff" points="189.75,-184.33 185.75,-178.33 189.75,-172.33 193.75,-178.33 189.75,-184.33"/>
</a>
</g>
<text text-anchor="middle" x="229.88" y="-191.5" font-family="Helvetica,sans-Serif" font-size="10.00" fill="grey"> &#45;_erase_functions</text>
</g>
<!-- Node4 -->
<g id="Node000004" class="node">
<title>Node4</title>
<g id="a_Node000004"><a xlink:title=" ">
<polygon fill="white" stroke="none" points="347,-285.62 268.5,-285.62 268.5,-235.88 347,-235.88 347,-285.62"/>
<text text-anchor="start" x="272.5" y="-272.12" font-family="Helvetica,sans-Serif" font-size="10.00">vector&lt; Entity &gt;</text>
<text text-anchor="start" x="306.25" y="-256.88" font-family="Helvetica,sans-Serif" font-size="10.00"> </text>
<text text-anchor="start" x="306.25" y="-241.62" font-family="Helvetica,sans-Serif" font-size="10.00"> </text>
<polygon fill="#666666" stroke="#666666" points="268.5,-268.38 268.5,-268.38 347,-268.38 347,-268.38 268.5,-268.38"/>
<polygon fill="#666666" stroke="#666666" points="268.5,-253.12 268.5,-253.12 347,-253.12 347,-253.12 268.5,-253.12"/>
<polygon fill="none" stroke="#666666" points="268.5,-235.88 268.5,-285.62 347,-285.62 347,-235.88 268.5,-235.88"/>
</a>
</g>
</g>
<!-- Node4&#45;&gt;Node1 -->
<g id="edge3_Node000001_Node000004" class="edge">
<title>Node4&#45;&gt;Node1</title>
<g id="a_edge3_Node000001_Node000004"><a xlink:title=" ">
<path fill="none" stroke="#63b8ff" d="M297.88,-236C291.69,-222.1 283.13,-204.44 273.75,-189.75 267.84,-180.5 261.23,-171.14 254.38,-162.02"/>
<polygon fill="none" stroke="#63b8ff" points="254.42,-162.08 247.59,-159.76 247.11,-152.56 253.94,-154.88 254.42,-162.08"/>
</a>
</g>
<text text-anchor="middle" x="301.67" y="-191.5" font-family="Helvetica,sans-Serif" font-size="10.00" fill="grey"> &#45;_entities</text>
</g>
</g>
</svg>
</svg>

<style type='text/css'>
<![CDATA[
[data-mouse-over-selected='false'] { opacity: 0.7; }
[data-mouse-over-selected='true']  { opacity: 1.0; }
]]>
</style>
<script type="application/ecmascript"><![CDATA[
document.addEventListener('DOMContentLoaded', (event) => {
  highlightEdges();
  highlightAdjacentNodes();
});
]]></script>
</svg>
