<?xml version="1.0" encoding="UTF-8" standalone="no"?>
<!DOCTYPE svg PUBLIC "-//W3C//DTD SVG 1.1//EN"
 "http://www.w3.org/Graphics/SVG/1.1/DTD/svg11.dtd">
<!-- Generated by graphviz version 12.2.1 (20241206.2353)
 -->
<!-- Title: Core::load_spaceship Pages: 1 -->
<svg width="900pt" height="65pt"
 viewBox="0.00 0.00 900.25 65.25" xmlns="http://www.w3.org/2000/svg" xmlns:xlink="http://www.w3.org/1999/xlink">
<g id="graph0" class="graph" transform="scale(1 1) rotate(0) translate(4 61.25)">
<title>Core::load_spaceship</title>
<!-- Node1 -->
<g id="Node000001" class="node">
<title>Node1</title>
<g id="a_Node000001"><a xlink:title=" ">
<polygon fill="#999999" stroke="#666666" points="892.25,-38.25 781.75,-38.25 781.75,-19 892.25,-19 892.25,-38.25"/>
<text text-anchor="middle" x="837" y="-24.75" font-family="Helvetica,sans-Serif" font-size="10.00">Core::load_spaceship</text>
</a>
</g>
</g>
<!-- Node2 -->
<g id="Node000002" class="node">
<title>Node2</title>
<g id="a_Node000002"><a xlink:href="class_core.html#ab5c7da5be504f0f34380b1ca5b97924b" target="_top" xlink:title=" ">
<polygon fill="white" stroke="#666666" points="745.75,-38.25 661.5,-38.25 661.5,-19 745.75,-19 745.75,-38.25"/>
<text text-anchor="middle" x="703.62" y="-24.75" font-family="Helvetica,sans-Serif" font-size="10.00">Core::gui_lobby</text>
</a>
</g>
</g>
<!-- Node1&#45;&gt;Node2 -->
<g id="edge1_Node000001_Node000002" class="edge">
<title>Node1&#45;&gt;Node2</title>
<g id="a_edge1_Node000001_Node000002"><a xlink:title=" ">
<path fill="none" stroke="#63b8ff" d="M769.95,-28.62C761.79,-28.62 753.64,-28.62 746.01,-28.62"/>
<polygon fill="#63b8ff" stroke="#63b8ff" points="769.91,-32.13 779.91,-28.63 769.91,-25.13 769.91,-32.13"/>
</a>
</g>
</g>
<!-- Node3 -->
<g id="Node000003" class="node">
<title>Node3</title>
<g id="a_Node000003"><a xlink:href="class_core.html#ae373e5e53d26163bfc20d236fd116f89" target="_top" xlink:title=" ">
<polygon fill="white" stroke="#666666" points="625.5,-57.25 562.25,-57.25 562.25,-38 625.5,-38 625.5,-57.25"/>
<text text-anchor="middle" x="593.88" y="-43.75" font-family="Helvetica,sans-Serif" font-size="10.00">Core::login</text>
</a>
</g>
</g>
<!-- Node2&#45;&gt;Node3 -->
<g id="edge2_Node000002_Node000003" class="edge">
<title>Node2&#45;&gt;Node3</title>
<g id="a_edge2_Node000002_Node000003"><a xlink:title=" ">
<path fill="none" stroke="#63b8ff" d="M650.08,-37.89C641.81,-39.35 633.49,-40.82 625.91,-42.15"/>
<polygon fill="#63b8ff" stroke="#63b8ff" points="650.54,-41.36 659.78,-36.18 649.33,-34.47 650.54,-41.36"/>
</a>
</g>
</g>
<!-- Node9 -->
<g id="Node000009" class="node">
<title>Node9</title>
<g id="a_Node000009"><a xlink:href="class_core.html#afe1c190b0d03ded99b7408538b16998c" target="_top" xlink:title=" ">
<polygon fill="white" stroke="#666666" points="508.25,-19.25 421,-19.25 421,0 508.25,0 508.25,-19.25"/>
<text text-anchor="middle" x="464.62" y="-5.75" font-family="Helvetica,sans-Serif" font-size="10.00">Core::login_auto</text>
</a>
</g>
</g>
<!-- Node2&#45;&gt;Node9 -->
<g id="edge8_Node000002_Node000009" class="edge">
<title>Node2&#45;&gt;Node9</title>
<g id="a_edge8_Node000002_Node000009"><a xlink:title=" ">
<path fill="none" stroke="#63b8ff" d="M649.83,-24.39C607.35,-20.99 548.4,-16.26 508.73,-13.08"/>
<polygon fill="#63b8ff" stroke="#63b8ff" points="649.32,-27.86 659.56,-25.17 649.87,-20.88 649.32,-27.86"/>
</a>
</g>
</g>
<!-- Node4 -->
<g id="Node000004" class="node">
<title>Node4</title>
<g id="a_Node000004"><a xlink:href="class_core.html#a245f461d8f0f1feaa8b126f329c7db22" target="_top" xlink:title=" ">
<polygon fill="white" stroke="#666666" points="526.25,-57.25 403,-57.25 403,-38 526.25,-38 526.25,-57.25"/>
<text text-anchor="middle" x="464.62" y="-43.75" font-family="Helvetica,sans-Serif" font-size="10.00">Core::handleMouseClick</text>
</a>
</g>
</g>
<!-- Node3&#45;&gt;Node4 -->
<g id="edge3_Node000003_Node000004" class="edge">
<title>Node3&#45;&gt;Node4</title>
<g id="a_edge3_Node000003_Node000004"><a xlink:title=" ">
<path fill="none" stroke="#63b8ff" d="M550.74,-47.62C542.98,-47.62 534.74,-47.62 526.55,-47.62"/>
<polygon fill="#63b8ff" stroke="#63b8ff" points="550.56,-51.13 560.56,-47.63 550.56,-44.13 550.56,-51.13"/>
</a>
</g>
</g>
<!-- Node5 -->
<g id="Node000005" class="node">
<title>Node5</title>
<g id="a_Node000005"><a xlink:href="class_core.html#a1460b7116a24aa8c866c33c4f16bd5a4" target="_top" xlink:title=" ">
<polygon fill="white" stroke="#666666" points="367,-57.25 285.75,-57.25 285.75,-38 367,-38 367,-57.25"/>
<text text-anchor="middle" x="326.38" y="-43.75" font-family="Helvetica,sans-Serif" font-size="10.00">Core::gui_login</text>
</a>
</g>
</g>
<!-- Node4&#45;&gt;Node5 -->
<g id="edge4_Node000004_Node000005" class="edge">
<title>Node4&#45;&gt;Node5</title>
<g id="a_edge4_Node000004_Node000005"><a xlink:title=" ">
<path fill="none" stroke="#63b8ff" d="M391.34,-47.62C383.03,-47.62 374.8,-47.62 367.16,-47.62"/>
<polygon fill="#63b8ff" stroke="#63b8ff" points="391.16,-51.13 401.16,-47.63 391.16,-44.13 391.16,-51.13"/>
</a>
</g>
</g>
<!-- Node6 -->
<g id="Node000006" class="node">
<title>Node6</title>
<g id="a_Node000006"><a xlink:href="class_core.html#a78dfa9b9ed54a7ba8cfe1be701b79feb" target="_top" xlink:title=" ">
<polygon fill="white" stroke="#666666" points="249.75,-57.25 164.75,-57.25 164.75,-38 249.75,-38 249.75,-57.25"/>
<text text-anchor="middle" x="207.25" y="-43.75" font-family="Helvetica,sans-Serif" font-size="10.00">Core::gui_menu</text>
</a>
</g>
</g>
<!-- Node5&#45;&gt;Node6 -->
<g id="edge5_Node000005_Node000006" class="edge">
<title>Node5&#45;&gt;Node6</title>
<g id="a_edge5_Node000005_Node000006"><a xlink:title=" ">
<path fill="none" stroke="#63b8ff" d="M273.91,-47.62C265.93,-47.62 257.78,-47.62 250.05,-47.62"/>
<polygon fill="#63b8ff" stroke="#63b8ff" points="273.88,-51.13 283.88,-47.63 273.88,-44.13 273.88,-51.13"/>
</a>
</g>
</g>
<!-- Node7 -->
<g id="Node000007" class="node">
<title>Node7</title>
<g id="a_Node000007"><a xlink:href="class_core.html#aa6045a2323610bfa0ee712b028eb43e4" target="_top" xlink:title=" ">
<polygon fill="white" stroke="#666666" points="128.75,-57.25 73,-57.25 73,-38 128.75,-38 128.75,-57.25"/>
<text text-anchor="middle" x="100.88" y="-43.75" font-family="Helvetica,sans-Serif" font-size="10.00">Core::gui</text>
</a>
</g>
</g>
<!-- Node6&#45;&gt;Node7 -->
<g id="edge6_Node000006_Node000007" class="edge">
<title>Node6&#45;&gt;Node7</title>
<g id="a_edge6_Node000006_Node000007"><a xlink:title=" ">
<path fill="none" stroke="#63b8ff" d="M153.09,-47.62C144.76,-47.62 136.46,-47.62 129.04,-47.62"/>
<polygon fill="#63b8ff" stroke="#63b8ff" points="152.88,-51.13 162.88,-47.63 152.88,-44.13 152.88,-51.13"/>
</a>
</g>
</g>
<!-- Node8 -->
<g id="Node000008" class="node">
<title>Node8</title>
<g id="a_Node000008"><a xlink:href="client_2main_8cpp.html#a0ddf1224851353fc92bfbff6f499fa97" target="_top" xlink:title=" ">
<polygon fill="white" stroke="#666666" points="37,-38.25 0,-38.25 0,-19 37,-19 37,-38.25"/>
<text text-anchor="middle" x="18.5" y="-24.75" font-family="Helvetica,sans-Serif" font-size="10.00">main</text>
</a>
</g>
</g>
<!-- Node7&#45;&gt;Node8 -->
<g id="edge7_Node000007_Node000008" class="edge">
<title>Node7&#45;&gt;Node8</title>
<g id="a_edge7_Node000007_Node000008"><a xlink:title=" ">
<path fill="none" stroke="#63b8ff" d="M61.68,-38.6C53.18,-36.59 44.55,-34.55 37.34,-32.84"/>
<polygon fill="#63b8ff" stroke="#63b8ff" points="60.65,-41.95 71.19,-40.84 62.26,-35.14 60.65,-41.95"/>
</a>
</g>
</g>
<!-- Node9&#45;&gt;Node8 -->
<g id="edge9_Node000009_Node000008" class="edge">
<title>Node9&#45;&gt;Node8</title>
<g id="a_edge9_Node000009_Node000008"><a xlink:title=" ">
<path fill="none" stroke="#63b8ff" d="M409.25,-11.95C308.88,-16.25 99.12,-25.22 37.12,-27.87"/>
<polygon fill="#63b8ff" stroke="#63b8ff" points="409.28,-15.45 419.12,-11.53 408.98,-8.46 409.28,-15.45"/>
</a>
</g>
</g>
</g>
</svg>
