<?xml version="1.0" encoding="UTF-8" standalone="no"?>
<!DOCTYPE svg PUBLIC "-//W3C//DTD SVG 1.1//EN"
 "http://www.w3.org/Graphics/SVG/1.1/DTD/svg11.dtd">
<!-- Generated by graphviz version 12.2.1 (20241206.2353)
 -->
<!-- Title: ServerGame::handleStart Pages: 1 -->
<svg width="877pt" height="698pt"
 viewBox="0.00 0.00 877.00 697.88" xmlns="http://www.w3.org/2000/svg" xmlns:xlink="http://www.w3.org/1999/xlink">
<g id="graph0" class="graph" transform="scale(1 1) rotate(0) translate(4 693.88)">
<title>ServerGame::handleStart</title>
<!-- Node1 -->
<g id="Node000001" class="node">
<title>Node1</title>
<g id="a_Node000001"><a xlink:title=" ">
<polygon fill="#999999" stroke="#666666" points="126.25,-353.88 0,-353.88 0,-334.62 126.25,-334.62 126.25,-353.88"/>
<text text-anchor="middle" x="63.12" y="-340.38" font-family="Helvetica,sans-Serif" font-size="10.00">ServerGame::handleStart</text>
</a>
</g>
</g>
<!-- Node2 -->
<g id="Node000002" class="node">
<title>Node2</title>
<g id="a_Node000002"><a xlink:href="class_server_game.html#af88752f99cb9c667a53595012ce39a01" target="_top" xlink:title=" ">
<polygon fill="white" stroke="#666666" points="304.25,-390.88 162.25,-390.88 162.25,-371.62 304.25,-371.62 304.25,-390.88"/>
<text text-anchor="middle" x="233.25" y="-377.38" font-family="Helvetica,sans-Serif" font-size="10.00">ServerGame::handleConnect</text>
</a>
</g>
</g>
<!-- Node1&#45;&gt;Node2 -->
<g id="edge1_Node000001_Node000002" class="edge">
<title>Node1&#45;&gt;Node2</title>
<g id="a_edge1_Node000001_Node000002"><a xlink:title=" ">
<path fill="none" stroke="#63b8ff" d="M110.07,-354.36C130.17,-358.79 153.98,-364.02 175.2,-368.7"/>
<polygon fill="#63b8ff" stroke="#63b8ff" points="174.37,-372.1 184.89,-370.83 175.87,-365.26 174.37,-372.1"/>
</a>
</g>
</g>
<!-- Node3 -->
<g id="Node000003" class="node">
<title>Node3</title>
<g id="a_Node000003"><a xlink:href="class_server_game.html#a0157100c7f7204cb8d870947d0b81e6f" target="_top" xlink:title=" ">
<polygon fill="white" stroke="#666666" points="293,-353.88 173.5,-353.88 173.5,-334.62 293,-334.62 293,-353.88"/>
<text text-anchor="middle" x="233.25" y="-340.38" font-family="Helvetica,sans-Serif" font-size="10.00">ServerGame::initTimers</text>
</a>
</g>
</g>
<!-- Node1&#45;&gt;Node3 -->
<g id="edge2_Node000001_Node000003" class="edge">
<title>Node1&#45;&gt;Node3</title>
<g id="a_edge2_Node000001_Node000003"><a xlink:title=" ">
<path fill="none" stroke="#63b8ff" d="M126.73,-344.25C138.14,-344.25 150.12,-344.25 161.74,-344.25"/>
<polygon fill="#63b8ff" stroke="#63b8ff" points="161.7,-347.75 171.7,-344.25 161.7,-340.75 161.7,-347.75"/>
</a>
</g>
</g>
<!-- Node27 -->
<g id="Node000027" class="node">
<title>Node27</title>
<g id="a_Node000027"><a xlink:href="class_server_game.html#a7c9354c0ff3baa76239cd837eeeb33d7" target="_top" xlink:title=" ">
<polygon fill="white" stroke="#666666" points="301.25,-316.88 165.25,-316.88 165.25,-297.62 301.25,-297.62 301.25,-316.88"/>
<text text-anchor="middle" x="233.25" y="-303.38" font-family="Helvetica,sans-Serif" font-size="10.00">ServerGame::loadLuaScript</text>
</a>
</g>
</g>
<!-- Node1&#45;&gt;Node27 -->
<g id="edge39_Node000001_Node000027" class="edge">
<title>Node1&#45;&gt;Node27</title>
<g id="a_edge39_Node000001_Node000027"><a xlink:title=" ">
<path fill="none" stroke="#63b8ff" d="M110.07,-334.14C130.17,-329.71 153.98,-324.48 175.2,-319.8"/>
<polygon fill="#63b8ff" stroke="#63b8ff" points="175.87,-323.24 184.89,-317.67 174.37,-316.4 175.87,-323.24"/>
</a>
</g>
</g>
<!-- Node4 -->
<g id="Node000004" class="node">
<title>Node4</title>
<g id="a_Node000004"><a xlink:href="class_server_game.html#acd85147947f8c366cccf07b8d6674026" target="_top" xlink:title=" ">
<polygon fill="white" stroke="#666666" points="488.25,-658.5 347,-658.5 347,-628 488.25,-628 488.25,-658.5"/>
<text text-anchor="start" x="355" y="-645" font-family="Helvetica,sans-Serif" font-size="10.00">ServerGame::setup_collision</text>
<text text-anchor="middle" x="417.62" y="-633.75" font-family="Helvetica,sans-Serif" font-size="10.00">_timer</text>
</a>
</g>
</g>
<!-- Node3&#45;&gt;Node4 -->
<g id="edge3_Node000003_Node000004" class="edge">
<title>Node3&#45;&gt;Node4</title>
<g id="a_edge3_Node000003_Node000004"><a xlink:title=" ">
<path fill="none" stroke="#63b8ff" d="M293.49,-353.63C297.49,-355.95 301.16,-358.79 304.25,-362.25 380.82,-447.91 266.49,-530.16 340.25,-618.25 340.82,-618.93 341.41,-619.6 342.02,-620.24"/>
<polygon fill="#63b8ff" stroke="#63b8ff" points="339.75,-622.91 349.65,-626.68 344.27,-617.56 339.75,-622.91"/>
</a>
</g>
</g>
<!-- Node9 -->
<g id="Node000009" class="node">
<title>Node9</title>
<g id="a_Node000009"><a xlink:href="class_server_game.html#ae04b9882336139be7cc8649e27dba330" target="_top" xlink:title=" ">
<polygon fill="white" stroke="#666666" points="495,-591.5 340.25,-591.5 340.25,-561 495,-561 495,-591.5"/>
<text text-anchor="start" x="348.25" y="-578" font-family="Helvetica,sans-Serif" font-size="10.00">ServerGame::setup_conciliation</text>
<text text-anchor="middle" x="417.62" y="-566.75" font-family="Helvetica,sans-Serif" font-size="10.00">_timer</text>
</a>
</g>
</g>
<!-- Node3&#45;&gt;Node9 -->
<g id="edge10_Node000003_Node000009" class="edge">
<title>Node3&#45;&gt;Node9</title>
<g id="a_edge10_Node000003_Node000009"><a xlink:title=" ">
<path fill="none" stroke="#63b8ff" d="M293.31,-353.8C297.35,-356.08 301.07,-358.86 304.25,-362.25 362.77,-424.6 283.78,-487.04 340.25,-551.25 340.96,-552.05 341.69,-552.83 342.44,-553.58"/>
<polygon fill="#63b8ff" stroke="#63b8ff" points="340.18,-556.25 350.17,-559.78 344.56,-550.79 340.18,-556.25"/>
</a>
</g>
</g>
<!-- Node12 -->
<g id="Node000012" class="node">
<title>Node12</title>
<g id="a_Node000012"><a xlink:href="class_server_game.html#ac11805bef3774422a1b0235d47a7efed" target="_top" xlink:title=" ">
<polygon fill="white" stroke="#666666" points="482.62,-524.5 352.62,-524.5 352.62,-494 482.62,-494 482.62,-524.5"/>
<text text-anchor="start" x="360.62" y="-511" font-family="Helvetica,sans-Serif" font-size="10.00">ServerGame::setup_game</text>
<text text-anchor="middle" x="417.62" y="-499.75" font-family="Helvetica,sans-Serif" font-size="10.00">_over_timer</text>
</a>
</g>
</g>
<!-- Node3&#45;&gt;Node12 -->
<g id="edge15_Node000003_Node000012" class="edge">
<title>Node3&#45;&gt;Node12</title>
<g id="a_edge15_Node000003_Node000012"><a xlink:title=" ">
<path fill="none" stroke="#63b8ff" d="M293.25,-354.36C297.26,-356.53 300.99,-359.13 304.25,-362.25 343.87,-400.15 302.79,-440.21 340.25,-480.25 342.77,-482.94 345.56,-485.39 348.55,-487.61"/>
<polygon fill="#63b8ff" stroke="#63b8ff" points="346.42,-490.4 356.74,-492.8 350.17,-484.49 346.42,-490.4"/>
</a>
</g>
</g>
<!-- Node14 -->
<g id="Node000014" class="node">
<title>Node14</title>
<g id="a_Node000014"><a xlink:href="class_server_game.html#a429c582fc2fce1fdd802208b51f77c68" target="_top" xlink:title=" ">
<polygon fill="white" stroke="#666666" points="680.88,-478.88 542.62,-478.88 542.62,-459.62 680.88,-459.62 680.88,-478.88"/>
<text text-anchor="middle" x="611.75" y="-465.38" font-family="Helvetica,sans-Serif" font-size="10.00">ServerGame::StopAllTimers</text>
</a>
</g>
</g>
<!-- Node3&#45;&gt;Node14 -->
<g id="edge38_Node000003_Node000014" class="edge">
<title>Node3&#45;&gt;Node14</title>
<g id="a_edge38_Node000003_Node000014"><a xlink:title=" ">
<path fill="none" stroke="#63b8ff" d="M291.88,-354.24C296.34,-356.42 300.54,-359.06 304.25,-362.25 335.34,-389.02 307,-423.22 340.25,-447.25 369.78,-468.59 462.34,-472.17 531,-471.67"/>
<polygon fill="#63b8ff" stroke="#63b8ff" points="530.76,-475.17 540.72,-471.56 530.68,-468.17 530.76,-475.17"/>
</a>
</g>
</g>
<!-- Node15 -->
<g id="Node000015" class="node">
<title>Node15</title>
<g id="a_Node000015"><a xlink:href="class_server_game.html#a7932470ed83cb42d82debb8829a0956a" target="_top" xlink:title=" ">
<polygon fill="white" stroke="#666666" points="474.38,-420.5 360.88,-420.5 360.88,-390 474.38,-390 474.38,-420.5"/>
<text text-anchor="start" x="368.88" y="-407" font-family="Helvetica,sans-Serif" font-size="10.00">ServerGame::setup_ia</text>
<text text-anchor="middle" x="417.62" y="-395.75" font-family="Helvetica,sans-Serif" font-size="10.00">_player</text>
</a>
</g>
</g>
<!-- Node3&#45;&gt;Node15 -->
<g id="edge19_Node000003_Node000015" class="edge">
<title>Node3&#45;&gt;Node15</title>
<g id="a_edge19_Node000003_Node000015"><a xlink:title=" ">
<path fill="none" stroke="#63b8ff" d="M279.92,-354.35C288.13,-356.62 296.52,-359.27 304.25,-362.25 321.13,-368.77 323.55,-374.29 340.25,-381.25 344,-382.81 347.89,-384.33 351.83,-385.8"/>
<polygon fill="#63b8ff" stroke="#63b8ff" points="350.34,-388.98 360.93,-389.03 352.68,-382.38 350.34,-388.98"/>
</a>
</g>
</g>
<!-- Node16 -->
<g id="Node000016" class="node">
<title>Node16</title>
<g id="a_Node000016"><a xlink:href="class_server_game.html#aa1aaafb4f5bd2691231d0bdedb079588" target="_top" xlink:title=" ">
<polygon fill="white" stroke="#666666" points="486.38,-353.88 348.88,-353.88 348.88,-334.62 486.38,-334.62 486.38,-353.88"/>
<text text-anchor="middle" x="417.62" y="-340.38" font-family="Helvetica,sans-Serif" font-size="10.00">ServerGame::setup_iaMobs</text>
</a>
</g>
</g>
<!-- Node3&#45;&gt;Node16 -->
<g id="edge21_Node000003_Node000016" class="edge">
<title>Node3&#45;&gt;Node16</title>
<g id="a_edge21_Node000003_Node000016"><a xlink:title=" ">
<path fill="none" stroke="#63b8ff" d="M293.46,-344.25C307.47,-344.25 322.63,-344.25 337.37,-344.25"/>
<polygon fill="#63b8ff" stroke="#63b8ff" points="337.01,-347.75 347.01,-344.25 337.01,-340.75 337.01,-347.75"/>
</a>
</g>
</g>
<!-- Node17 -->
<g id="Node000017" class="node">
<title>Node17</title>
<g id="a_Node000017"><a xlink:href="class_server_game.html#a6da0ae753b4a7e2d6f5231949d22331d" target="_top" xlink:title=" ">
<polygon fill="white" stroke="#666666" points="490.88,-298.5 344.38,-298.5 344.38,-268 490.88,-268 490.88,-298.5"/>
<text text-anchor="start" x="352.38" y="-285" font-family="Helvetica,sans-Serif" font-size="10.00">ServerGame::setup_invincible</text>
<text text-anchor="middle" x="417.62" y="-273.75" font-family="Helvetica,sans-Serif" font-size="10.00">_timer</text>
</a>
</g>
</g>
<!-- Node3&#45;&gt;Node17 -->
<g id="edge23_Node000003_Node000017" class="edge">
<title>Node3&#45;&gt;Node17</title>
<g id="a_edge23_Node000003_Node000017"><a xlink:title=" ">
<path fill="none" stroke="#63b8ff" d="M276.67,-334.17C285.82,-331.76 295.4,-329.07 304.25,-326.25 325.49,-319.48 348.56,-310.88 368.23,-303.15"/>
<polygon fill="#63b8ff" stroke="#63b8ff" points="369.37,-306.47 377.37,-299.53 366.78,-299.96 369.37,-306.47"/>
</a>
</g>
</g>
<!-- Node18 -->
<g id="Node000018" class="node">
<title>Node18</title>
<g id="a_Node000018"><a xlink:href="class_server_game.html#a89e6dc23de2213b7cfa7d8a894f509a3" target="_top" xlink:title=" ">
<polygon fill="white" stroke="#666666" points="487.5,-231.5 347.75,-231.5 347.75,-201 487.5,-201 487.5,-231.5"/>
<text text-anchor="start" x="355.75" y="-218" font-family="Helvetica,sans-Serif" font-size="10.00">ServerGame::setup_position</text>
<text text-anchor="middle" x="417.62" y="-206.75" font-family="Helvetica,sans-Serif" font-size="10.00">_timer</text>
</a>
</g>
</g>
<!-- Node3&#45;&gt;Node18 -->
<g id="edge25_Node000003_Node000018" class="edge">
<title>Node3&#45;&gt;Node18</title>
<g id="a_edge25_Node000003_Node000018"><a xlink:title=" ">
<path fill="none" stroke="#63b8ff" d="M290.87,-334.2C295.65,-332.04 300.2,-329.42 304.25,-326.25 330.86,-305.4 316.58,-283.39 340.25,-259.25 348.57,-250.77 358.91,-243.46 369.27,-237.4"/>
<polygon fill="#63b8ff" stroke="#63b8ff" points="370.74,-240.59 377.82,-232.71 367.37,-234.45 370.74,-240.59"/>
</a>
</g>
</g>
<!-- Node21 -->
<g id="Node000021" class="node">
<title>Node21</title>
<g id="a_Node000021"><a xlink:href="class_server_game.html#a52fe9325dc4644b455f6dfe03fa0a7e2" target="_top" xlink:title=" ">
<polygon fill="white" stroke="#666666" points="489,-164.5 346.25,-164.5 346.25,-134 489,-134 489,-164.5"/>
<text text-anchor="start" x="354.25" y="-151" font-family="Helvetica,sans-Serif" font-size="10.00">ServerGame::setup_powerup</text>
<text text-anchor="middle" x="417.62" y="-139.75" font-family="Helvetica,sans-Serif" font-size="10.00">_timer</text>
</a>
</g>
</g>
<!-- Node3&#45;&gt;Node21 -->
<g id="edge29_Node000003_Node000021" class="edge">
<title>Node3&#45;&gt;Node21</title>
<g id="a_edge29_Node000003_Node000021"><a xlink:title=" ">
<path fill="none" stroke="#63b8ff" d="M293.37,-334.26C297.35,-332.07 301.04,-329.43 304.25,-326.25 348.09,-282.88 302.43,-240.96 340.25,-192.25 346.97,-183.6 355.95,-176.41 365.39,-170.55"/>
<polygon fill="#63b8ff" stroke="#63b8ff" points="367.03,-173.64 374,-165.66 363.57,-167.56 367.03,-173.64"/>
</a>
</g>
</g>
<!-- Node23 -->
<g id="Node000023" class="node">
<title>Node23</title>
<g id="a_Node000023"><a xlink:href="class_server_game.html#aa301bdf3d57c0e3652d1e5fd1a338e17" target="_top" xlink:title=" ">
<polygon fill="white" stroke="#666666" points="484.88,-97.5 350.38,-97.5 350.38,-67 484.88,-67 484.88,-97.5"/>
<text text-anchor="start" x="358.38" y="-84" font-family="Helvetica,sans-Serif" font-size="10.00">ServerGame::setup_spawn</text>
<text text-anchor="middle" x="417.62" y="-72.75" font-family="Helvetica,sans-Serif" font-size="10.00">_timer</text>
</a>
</g>
</g>
<!-- Node3&#45;&gt;Node23 -->
<g id="edge32_Node000003_Node000023" class="edge">
<title>Node3&#45;&gt;Node23</title>
<g id="a_edge32_Node000003_Node000023"><a xlink:title=" ">
<path fill="none" stroke="#63b8ff" d="M293.35,-334.74C297.38,-332.45 301.09,-329.65 304.25,-326.25 365.99,-259.73 287.69,-199.24 340.25,-125.25 346.46,-116.5 355.05,-109.31 364.23,-103.48"/>
<polygon fill="#63b8ff" stroke="#63b8ff" points="365.7,-106.67 372.62,-98.65 362.21,-100.61 365.7,-106.67"/>
</a>
</g>
</g>
<!-- Node25 -->
<g id="Node000025" class="node">
<title>Node25</title>
<g id="a_Node000025"><a xlink:href="class_server_game.html#aaad24ffb6e289d83b1bb7ab4a0cd4b10" target="_top" xlink:title=" ">
<polygon fill="white" stroke="#666666" points="481.12,-30.5 354.12,-30.5 354.12,0 481.12,0 481.12,-30.5"/>
<text text-anchor="start" x="362.12" y="-17" font-family="Helvetica,sans-Serif" font-size="10.00">ServerGame::setup_triple</text>
<text text-anchor="middle" x="417.62" y="-5.75" font-family="Helvetica,sans-Serif" font-size="10.00">_shot_expiration_timer</text>
</a>
</g>
</g>
<!-- Node3&#45;&gt;Node25 -->
<g id="edge35_Node000003_Node000025" class="edge">
<title>Node3&#45;&gt;Node25</title>
<g id="a_edge35_Node000003_Node000025"><a xlink:title=" ">
<path fill="none" stroke="#63b8ff" d="M293.19,-335.08C297.31,-332.72 301.08,-329.81 304.25,-326.25 384.06,-236.4 272.81,-157.73 340.25,-58.25 346.14,-49.56 354.41,-42.42 363.35,-36.64"/>
<polygon fill="#63b8ff" stroke="#63b8ff" points="365.04,-39.71 371.91,-31.65 361.51,-33.66 365.04,-39.71"/>
</a>
</g>
</g>
<!-- Node4&#45;&gt;Node4 -->
<g id="edge9_Node000004_Node000004" class="edge">
<title>Node4&#45;&gt;Node4</title>
<g id="a_edge9_Node000004_Node000004"><a xlink:title=" ">
<path fill="none" stroke="#63b8ff" d="M384.95,-658.99C378.29,-668.06 389.18,-676.5 417.62,-676.5 433.18,-676.5 443.49,-673.97 448.54,-670.2"/>
<polygon fill="#63b8ff" stroke="#63b8ff" points="451.98,-670.9 450.06,-660.48 445.06,-669.82 451.98,-670.9"/>
</a>
</g>
</g>
<!-- Node5 -->
<g id="Node000005" class="node">
<title>Node5</title>
<g id="a_Node000005"><a xlink:href="class_server_game.html#aa99390eeaadd29af06da639d8a9ef353" target="_top" xlink:title=" ">
<polygon fill="white" stroke="#666666" points="690.25,-652.88 533.25,-652.88 533.25,-633.62 690.25,-633.62 690.25,-652.88"/>
<text text-anchor="middle" x="611.75" y="-639.38" font-family="Helvetica,sans-Serif" font-size="10.00">ServerGame::checkAllCollisions</text>
</a>
</g>
</g>
<!-- Node4&#45;&gt;Node5 -->
<g id="edge4_Node000004_Node000005" class="edge">
<title>Node4&#45;&gt;Node5</title>
<g id="a_edge4_Node000004_Node000005"><a xlink:title=" ">
<path fill="none" stroke="#63b8ff" d="M488.53,-643.25C499.2,-643.25 510.34,-643.25 521.36,-643.25"/>
<polygon fill="#63b8ff" stroke="#63b8ff" points="521.26,-646.75 531.26,-643.25 521.26,-639.75 521.26,-646.75"/>
</a>
</g>
</g>
<!-- Node5&#45;&gt;Node5 -->
<g id="edge5_Node000005_Node000005" class="edge">
<title>Node5&#45;&gt;Node5</title>
<g id="a_edge5_Node000005_Node000005"><a xlink:title=" ">
<path fill="none" stroke="#63b8ff" d="M582.47,-653.16C569.12,-661.77 578.88,-670.88 611.75,-670.88 630.75,-670.88 642.03,-667.83 645.59,-663.6"/>
<polygon fill="#63b8ff" stroke="#63b8ff" points="648.84,-662.31 641.63,-654.55 642.43,-665.11 648.84,-662.31"/>
</a>
</g>
</g>
<!-- Node6 -->
<g id="Node000006" class="node">
<title>Node6</title>
<g id="a_Node000006"><a xlink:href="class_server_game.html#a9a2b4bb7a61cf272fae0d6ed1f13e59f" target="_top" xlink:title=" ">
<polygon fill="white" stroke="#666666" points="869,-689.88 728.5,-689.88 728.5,-670.62 869,-670.62 869,-689.88"/>
<text text-anchor="middle" x="798.75" y="-676.38" font-family="Helvetica,sans-Serif" font-size="10.00">ServerGame::handleColision</text>
</a>
</g>
</g>
<!-- Node5&#45;&gt;Node6 -->
<g id="edge6_Node000005_Node000006" class="edge">
<title>Node5&#45;&gt;Node6</title>
<g id="a_edge6_Node000005_Node000006"><a xlink:title=" ">
<path fill="none" stroke="#63b8ff" d="M663.3,-653.36C685.84,-657.87 712.59,-663.22 736.27,-667.95"/>
<polygon fill="#63b8ff" stroke="#63b8ff" points="735.28,-671.33 745.77,-669.85 736.66,-664.46 735.28,-671.33"/>
</a>
</g>
</g>
<!-- Node7 -->
<g id="Node000007" class="node">
<title>Node7</title>
<g id="a_Node000007"><a xlink:href="class_server_game.html#adf9d28b0bb99cd31ec005e81fa4128f4" target="_top" xlink:title=" ">
<polygon fill="white" stroke="#666666" points="864.5,-615.88 733,-615.88 733,-596.62 864.5,-596.62 864.5,-615.88"/>
<text text-anchor="middle" x="798.75" y="-602.38" font-family="Helvetica,sans-Serif" font-size="10.00">ServerGame::handleDeath</text>
</a>
</g>
</g>
<!-- Node5&#45;&gt;Node7 -->
<g id="edge7_Node000005_Node000007" class="edge">
<title>Node5&#45;&gt;Node7</title>
<g id="a_edge7_Node000005_Node000007"><a xlink:title=" ">
<path fill="none" stroke="#63b8ff" d="M663.3,-633.14C685.84,-628.63 712.59,-623.28 736.27,-618.55"/>
<polygon fill="#63b8ff" stroke="#63b8ff" points="736.66,-622.04 745.77,-616.65 735.28,-615.17 736.66,-622.04"/>
</a>
</g>
</g>
<!-- Node8 -->
<g id="Node000008" class="node">
<title>Node8</title>
<g id="a_Node000008"><a xlink:href="class_server_game.html#a0d2136187aa368d02f5bc66c2b1f85cf" target="_top" xlink:title=" ">
<polygon fill="white" stroke="#666666" points="859.62,-652.88 737.88,-652.88 737.88,-633.62 859.62,-633.62 859.62,-652.88"/>
<text text-anchor="middle" x="798.75" y="-639.38" font-family="Helvetica,sans-Serif" font-size="10.00">ServerGame::isColliding</text>
</a>
</g>
</g>
<!-- Node5&#45;&gt;Node8 -->
<g id="edge8_Node000005_Node000008" class="edge">
<title>Node5&#45;&gt;Node8</title>
<g id="a_edge8_Node000005_Node000008"><a xlink:title=" ">
<path fill="none" stroke="#63b8ff" d="M690.67,-643.25C702.45,-643.25 714.55,-643.25 726.18,-643.25"/>
<polygon fill="#63b8ff" stroke="#63b8ff" points="726.11,-646.75 736.11,-643.25 726.11,-639.75 726.11,-646.75"/>
</a>
</g>
</g>
<!-- Node9&#45;&gt;Node9 -->
<g id="edge14_Node000009_Node000009" class="edge">
<title>Node9&#45;&gt;Node9</title>
<g id="a_edge14_Node000009_Node000009"><a xlink:title=" ">
<path fill="none" stroke="#63b8ff" d="M384.95,-591.99C378.29,-601.06 389.18,-609.5 417.62,-609.5 433.18,-609.5 443.49,-606.97 448.54,-603.2"/>
<polygon fill="#63b8ff" stroke="#63b8ff" points="451.98,-603.9 450.06,-593.48 445.06,-602.82 451.98,-603.9"/>
</a>
</g>
</g>
<!-- Node10 -->
<g id="Node000010" class="node">
<title>Node10</title>
<g id="a_Node000010"><a xlink:href="class_server_game.html#ae364e3e373cb38cf5bfcbc5b5697c61a" target="_top" xlink:title=" ">
<polygon fill="white" stroke="#666666" points="692.5,-585.88 531,-585.88 531,-566.62 692.5,-566.62 692.5,-585.88"/>
<text text-anchor="middle" x="611.75" y="-572.38" font-family="Helvetica,sans-Serif" font-size="10.00">ServerGame::positionConciliation</text>
</a>
</g>
</g>
<!-- Node9&#45;&gt;Node10 -->
<g id="edge11_Node000009_Node000010" class="edge">
<title>Node9&#45;&gt;Node10</title>
<g id="a_edge11_Node000009_Node000010"><a xlink:title=" ">
<path fill="none" stroke="#63b8ff" d="M495.39,-576.25C503.27,-576.25 511.34,-576.25 519.36,-576.25"/>
<polygon fill="#63b8ff" stroke="#63b8ff" points="519.14,-579.75 529.14,-576.25 519.14,-572.75 519.14,-579.75"/>
</a>
</g>
</g>
<!-- Node10&#45;&gt;Node7 -->
<g id="edge12_Node000010_Node000007" class="edge">
<title>Node10&#45;&gt;Node7</title>
<g id="a_edge12_Node000010_Node000007"><a xlink:title=" ">
<path fill="none" stroke="#63b8ff" d="M675.12,-586.36C690.89,-588.92 707.97,-591.69 724.23,-594.33"/>
<polygon fill="#63b8ff" stroke="#63b8ff" points="723.41,-597.74 733.84,-595.89 724.53,-590.83 723.41,-597.74"/>
</a>
</g>
</g>
<!-- Node11 -->
<g id="Node000011" class="node">
<title>Node11</title>
<g id="a_Node000011"><a xlink:href="class_server_game.html#aca51614bfef206efa6799e569ea0ddc1" target="_top" xlink:title=" ">
<polygon fill="white" stroke="#666666" points="865.62,-578.5 731.88,-578.5 731.88,-548 865.62,-548 865.62,-578.5"/>
<text text-anchor="start" x="739.88" y="-565" font-family="Helvetica,sans-Serif" font-size="10.00">ServerGame::showAllEnity</text>
<text text-anchor="middle" x="798.75" y="-553.75" font-family="Helvetica,sans-Serif" font-size="10.00">Alive</text>
</a>
</g>
</g>
<!-- Node10&#45;&gt;Node11 -->
<g id="edge13_Node000010_Node000011" class="edge">
<title>Node10&#45;&gt;Node11</title>
<g id="a_edge13_Node000010_Node000011"><a xlink:title=" ">
<path fill="none" stroke="#63b8ff" d="M692.82,-570.62C701.88,-569.99 711.11,-569.34 720.14,-568.7"/>
<polygon fill="#63b8ff" stroke="#63b8ff" points="720.21,-572.21 729.94,-568.02 719.72,-565.22 720.21,-572.21"/>
</a>
</g>
</g>
<!-- Node12&#45;&gt;Node12 -->
<g id="edge17_Node000012_Node000012" class="edge">
<title>Node12&#45;&gt;Node12</title>
<g id="a_edge17_Node000012_Node000012"><a xlink:title=" ">
<path fill="none" stroke="#63b8ff" d="M384.95,-524.99C378.29,-534.06 389.18,-542.5 417.62,-542.5 433.18,-542.5 443.49,-539.97 448.54,-536.2"/>
<polygon fill="#63b8ff" stroke="#63b8ff" points="451.98,-536.9 450.06,-526.48 445.06,-535.82 451.98,-536.9"/>
</a>
</g>
</g>
<!-- Node13 -->
<g id="Node000013" class="node">
<title>Node13</title>
<g id="a_Node000013"><a xlink:href="class_server_game.html#ae618b046011fbfa5373127e48496b885" target="_top" xlink:title=" ">
<polygon fill="white" stroke="#666666" points="690.62,-518.88 532.88,-518.88 532.88,-499.62 690.62,-499.62 690.62,-518.88"/>
<text text-anchor="middle" x="611.75" y="-505.38" font-family="Helvetica,sans-Serif" font-size="10.00">ServerGame::areAllPlayersDead</text>
</a>
</g>
</g>
<!-- Node12&#45;&gt;Node13 -->
<g id="edge16_Node000012_Node000013" class="edge">
<title>Node12&#45;&gt;Node13</title>
<g id="a_edge16_Node000012_Node000013"><a xlink:title=" ">
<path fill="none" stroke="#63b8ff" d="M482.87,-509.25C495.19,-509.25 508.29,-509.25 521.24,-509.25"/>
<polygon fill="#63b8ff" stroke="#63b8ff" points="521.03,-512.75 531.03,-509.25 521.03,-505.75 521.03,-512.75"/>
</a>
</g>
</g>
<!-- Node12&#45;&gt;Node14 -->
<g id="edge18_Node000012_Node000014" class="edge">
<title>Node12&#45;&gt;Node14</title>
<g id="a_edge18_Node000012_Node000014"><a xlink:title=" ">
<path fill="none" stroke="#63b8ff" d="M482.87,-495.87C504.98,-491.27 529.62,-486.14 551.33,-481.62"/>
<polygon fill="#63b8ff" stroke="#63b8ff" points="551.82,-485.09 560.9,-479.63 550.4,-478.24 551.82,-485.09"/>
</a>
</g>
</g>
<!-- Node15&#45;&gt;Node15 -->
<g id="edge20_Node000015_Node000015" class="edge">
<title>Node15&#45;&gt;Node15</title>
<g id="a_edge20_Node000015_Node000015"><a xlink:title=" ">
<path fill="none" stroke="#63b8ff" d="M384.95,-420.99C378.29,-430.06 389.18,-438.5 417.62,-438.5 433.18,-438.5 443.49,-435.97 448.54,-432.2"/>
<polygon fill="#63b8ff" stroke="#63b8ff" points="451.98,-432.9 450.06,-422.48 445.06,-431.82 451.98,-432.9"/>
</a>
</g>
</g>
<!-- Node16&#45;&gt;Node16 -->
<g id="edge22_Node000016_Node000016" class="edge">
<title>Node16&#45;&gt;Node16</title>
<g id="a_edge22_Node000016_Node000016"><a xlink:title=" ">
<path fill="none" stroke="#63b8ff" d="M388.76,-354.16C375.59,-362.77 385.22,-371.88 417.62,-371.88 436.36,-371.88 447.48,-368.83 450.99,-364.6"/>
<polygon fill="#63b8ff" stroke="#63b8ff" points="454.26,-363.35 447.09,-355.55 447.83,-366.12 454.26,-363.35"/>
</a>
</g>
</g>
<!-- Node17&#45;&gt;Node17 -->
<g id="edge24_Node000017_Node000017" class="edge">
<title>Node17&#45;&gt;Node17</title>
<g id="a_edge24_Node000017_Node000017"><a xlink:title=" ">
<path fill="none" stroke="#63b8ff" d="M384.95,-298.99C378.29,-308.06 389.18,-316.5 417.62,-316.5 433.18,-316.5 443.49,-313.97 448.54,-310.2"/>
<polygon fill="#63b8ff" stroke="#63b8ff" points="451.98,-310.9 450.06,-300.48 445.06,-309.82 451.98,-310.9"/>
</a>
</g>
</g>
<!-- Node18&#45;&gt;Node18 -->
<g id="edge28_Node000018_Node000018" class="edge">
<title>Node18&#45;&gt;Node18</title>
<g id="a_edge28_Node000018_Node000018"><a xlink:title=" ">
<path fill="none" stroke="#63b8ff" d="M384.95,-231.99C378.29,-241.06 389.18,-249.5 417.62,-249.5 433.18,-249.5 443.49,-246.97 448.54,-243.2"/>
<polygon fill="#63b8ff" stroke="#63b8ff" points="451.98,-243.9 450.06,-233.48 445.06,-242.82 451.98,-243.9"/>
</a>
</g>
</g>
<!-- Node19 -->
<g id="Node000019" class="node">
<title>Node19</title>
<g id="a_Node000019"><a xlink:href="class_systems.html#a310d4de4ff4f8212b2ded614e411d102" target="_top" xlink:title=" ">
<polygon fill="white" stroke="#666666" points="677.88,-225.88 545.62,-225.88 545.62,-206.62 677.88,-206.62 677.88,-225.88"/>
<text text-anchor="middle" x="611.75" y="-212.38" font-family="Helvetica,sans-Serif" font-size="10.00">Systems::position_system</text>
</a>
</g>
</g>
<!-- Node18&#45;&gt;Node19 -->
<g id="edge26_Node000018_Node000019" class="edge">
<title>Node18&#45;&gt;Node19</title>
<g id="a_edge26_Node000018_Node000019"><a xlink:title=" ">
<path fill="none" stroke="#63b8ff" d="M487.99,-216.25C502.89,-216.25 518.72,-216.25 533.89,-216.25"/>
<polygon fill="#63b8ff" stroke="#63b8ff" points="533.82,-219.75 543.82,-216.25 533.82,-212.75 533.82,-219.75"/>
</a>
</g>
</g>
<!-- Node20 -->
<g id="Node000020" class="node">
<title>Node20</title>
<g id="a_Node000020"><a xlink:href="classregistry.html#a3866ee276a5a1d78d00cd403e8e8c7d9" target="_top" xlink:title=" ">
<polygon fill="white" stroke="#666666" points="861.88,-225.88 735.62,-225.88 735.62,-206.62 861.88,-206.62 861.88,-225.88"/>
<text text-anchor="middle" x="798.75" y="-212.38" font-family="Helvetica,sans-Serif" font-size="10.00">registry::get_components</text>
</a>
</g>
</g>
<!-- Node19&#45;&gt;Node20 -->
<g id="edge27_Node000019_Node000020" class="edge">
<title>Node19&#45;&gt;Node20</title>
<g id="a_edge27_Node000019_Node000020"><a xlink:title=" ">
<path fill="none" stroke="#63b8ff" d="M678.23,-216.25C692.98,-216.25 708.73,-216.25 723.79,-216.25"/>
<polygon fill="#63b8ff" stroke="#63b8ff" points="723.63,-219.75 733.63,-216.25 723.63,-212.75 723.63,-219.75"/>
</a>
</g>
</g>
<!-- Node21&#45;&gt;Node21 -->
<g id="edge30_Node000021_Node000021" class="edge">
<title>Node21&#45;&gt;Node21</title>
<g id="a_edge30_Node000021_Node000021"><a xlink:title=" ">
<path fill="none" stroke="#63b8ff" d="M384.95,-164.99C378.29,-174.06 389.18,-182.5 417.62,-182.5 433.18,-182.5 443.49,-179.97 448.54,-176.2"/>
<polygon fill="#63b8ff" stroke="#63b8ff" points="451.98,-176.9 450.06,-166.48 445.06,-175.82 451.98,-176.9"/>
</a>
</g>
</g>
<!-- Node22 -->
<g id="Node000022" class="node">
<title>Node22</title>
<g id="a_Node000022"><a xlink:href="class_server_game.html#a690321c8aa58ea064479f8205d28df73" target="_top" xlink:title=" ">
<polygon fill="white" stroke="#666666" points="684.62,-158.88 538.88,-158.88 538.88,-139.62 684.62,-139.62 684.62,-158.88"/>
<text text-anchor="middle" x="611.75" y="-145.38" font-family="Helvetica,sans-Serif" font-size="10.00">ServerGame::spawnPowerUp</text>
</a>
</g>
</g>
<!-- Node21&#45;&gt;Node22 -->
<g id="edge31_Node000021_Node000022" class="edge">
<title>Node21&#45;&gt;Node22</title>
<g id="a_edge31_Node000021_Node000022"><a xlink:title=" ">
<path fill="none" stroke="#63b8ff" d="M489.35,-149.25C501.63,-149.25 514.52,-149.25 527.11,-149.25"/>
<polygon fill="#63b8ff" stroke="#63b8ff" points="527.06,-152.75 537.06,-149.25 527.06,-145.75 527.06,-152.75"/>
</a>
</g>
</g>
<!-- Node23&#45;&gt;Node23 -->
<g id="edge33_Node000023_Node000023" class="edge">
<title>Node23&#45;&gt;Node23</title>
<g id="a_edge33_Node000023_Node000023"><a xlink:title=" ">
<path fill="none" stroke="#63b8ff" d="M384.95,-97.99C378.29,-107.06 389.18,-115.5 417.62,-115.5 433.18,-115.5 443.49,-112.97 448.54,-109.2"/>
<polygon fill="#63b8ff" stroke="#63b8ff" points="451.98,-109.9 450.06,-99.48 445.06,-108.82 451.98,-109.9"/>
</a>
</g>
</g>
<!-- Node24 -->
<g id="Node000024" class="node">
<title>Node24</title>
<g id="a_Node000024"><a xlink:href="class_server_game.html#aee4c62e6f6d9427eb126ce1c372b0446" target="_top" xlink:title=" ">
<polygon fill="white" stroke="#666666" points="673.75,-91.88 549.75,-91.88 549.75,-72.62 673.75,-72.62 673.75,-91.88"/>
<text text-anchor="middle" x="611.75" y="-78.38" font-family="Helvetica,sans-Serif" font-size="10.00">ServerGame::spawnMob</text>
</a>
</g>
</g>
<!-- Node23&#45;&gt;Node24 -->
<g id="edge34_Node000023_Node000024" class="edge">
<title>Node23&#45;&gt;Node24</title>
<g id="a_edge34_Node000023_Node000024"><a xlink:title=" ">
<path fill="none" stroke="#63b8ff" d="M485.28,-82.25C502.35,-82.25 520.79,-82.25 538.15,-82.25"/>
<polygon fill="#63b8ff" stroke="#63b8ff" points="537.85,-85.75 547.85,-82.25 537.85,-78.75 537.85,-85.75"/>
</a>
</g>
</g>
<!-- Node25&#45;&gt;Node25 -->
<g id="edge37_Node000025_Node000025" class="edge">
<title>Node25&#45;&gt;Node25</title>
<g id="a_edge37_Node000025_Node000025"><a xlink:title=" ">
<path fill="none" stroke="#63b8ff" d="M384.95,-30.99C378.29,-40.06 389.18,-48.5 417.62,-48.5 433.18,-48.5 443.49,-45.97 448.54,-42.2"/>
<polygon fill="#63b8ff" stroke="#63b8ff" points="451.98,-42.9 450.06,-32.48 445.06,-41.82 451.98,-42.9"/>
</a>
</g>
</g>
<!-- Node26 -->
<g id="Node000026" class="node">
<title>Node26</title>
<g id="a_Node000026"><a xlink:href="class_server_game.html#ac4bd21cf219e6eca5d8a63e0e5d799d9" target="_top" xlink:title=" ">
<polygon fill="white" stroke="#666666" points="685.38,-30.5 538.12,-30.5 538.12,0 685.38,0 685.38,-30.5"/>
<text text-anchor="start" x="546.12" y="-17" font-family="Helvetica,sans-Serif" font-size="10.00">ServerGame::checkTripleShot</text>
<text text-anchor="middle" x="611.75" y="-5.75" font-family="Helvetica,sans-Serif" font-size="10.00">Expiration</text>
</a>
</g>
</g>
<!-- Node25&#45;&gt;Node26 -->
<g id="edge36_Node000025_Node000026" class="edge">
<title>Node25&#45;&gt;Node26</title>
<g id="a_edge36_Node000025_Node000026"><a xlink:title=" ">
<path fill="none" stroke="#63b8ff" d="M481.53,-15.25C495.84,-15.25 511.26,-15.25 526.29,-15.25"/>
<polygon fill="#63b8ff" stroke="#63b8ff" points="526.17,-18.75 536.17,-15.25 526.17,-11.75 526.17,-18.75"/>
</a>
</g>
</g>
</g>
</svg>
