<?xml version="1.0" encoding="UTF-8" standalone="no"?>
<!DOCTYPE svg PUBLIC "-//W3C//DTD SVG 1.1//EN"
 "http://www.w3.org/Graphics/SVG/1.1/DTD/svg11.dtd">
<!-- Generated by graphviz version 12.2.1 (20241206.2353)
 -->
<!-- Title: sparse_array&lt; Component &gt; Pages: 1 -->
<svg width="141pt" height="445pt"
 viewBox="0.00 0.00 140.50 444.50" xmlns="http://www.w3.org/2000/svg" xmlns:xlink="http://www.w3.org/1999/xlink">
<g id="graph0" class="graph" transform="scale(1 1) rotate(0) translate(4 440.5)">
<title>sparse_array&lt; Component &gt;</title>
<!-- Node1 -->
<g id="Node000001" class="node">
<title>Node1</title>
<g id="a_Node000001"><a xlink:title="Tableau clairsemé générique pour stocker des composants.">
<polygon fill="#999999" stroke="none" points="132.5,-339.5 0,-339.5 0,0 132.5,0 132.5,-339.5"/>
<text text-anchor="start" x="4" y="-326" font-family="Helvetica,sans-Serif" font-size="10.00">sparse_array&lt; Component &gt;</text>
<text text-anchor="start" x="64.75" y="-310.75" font-family="Helvetica,sans-Serif" font-size="10.00"> </text>
<text text-anchor="start" x="15.56" y="-295.5" font-family="Helvetica,sans-Serif" font-size="10.00">+</text>
<text text-anchor="start" x="37.12" y="-295.5" font-family="Helvetica,sans-Serif" font-size="10.00">sparse_array()</text>
<text text-anchor="start" x="15.56" y="-280.25" font-family="Helvetica,sans-Serif" font-size="10.00">+</text>
<text text-anchor="start" x="37.12" y="-280.25" font-family="Helvetica,sans-Serif" font-size="10.00">sparse_array()</text>
<text text-anchor="start" x="15.56" y="-265" font-family="Helvetica,sans-Serif" font-size="10.00">+</text>
<text text-anchor="start" x="37.12" y="-265" font-family="Helvetica,sans-Serif" font-size="10.00">sparse_array()</text>
<text text-anchor="start" x="15.56" y="-249.75" font-family="Helvetica,sans-Serif" font-size="10.00">+</text>
<text text-anchor="start" x="37.12" y="-249.75" font-family="Helvetica,sans-Serif" font-size="10.00">~sparse_array()</text>
<text text-anchor="start" x="15.56" y="-234.5" font-family="Helvetica,sans-Serif" font-size="10.00">+</text>
<text text-anchor="start" x="37.12" y="-234.5" font-family="Helvetica,sans-Serif" font-size="10.00">operator=()</text>
<text text-anchor="start" x="15.56" y="-219.25" font-family="Helvetica,sans-Serif" font-size="10.00">+</text>
<text text-anchor="start" x="37.12" y="-219.25" font-family="Helvetica,sans-Serif" font-size="10.00">operator=()</text>
<text text-anchor="start" x="15.56" y="-204" font-family="Helvetica,sans-Serif" font-size="10.00">+</text>
<text text-anchor="start" x="37.12" y="-204" font-family="Helvetica,sans-Serif" font-size="10.00">operator[]()</text>
<text text-anchor="start" x="15.56" y="-188.75" font-family="Helvetica,sans-Serif" font-size="10.00">+</text>
<text text-anchor="start" x="37.12" y="-188.75" font-family="Helvetica,sans-Serif" font-size="10.00">operator[]()</text>
<text text-anchor="start" x="15.56" y="-173.5" font-family="Helvetica,sans-Serif" font-size="10.00">+</text>
<text text-anchor="start" x="37.12" y="-173.5" font-family="Helvetica,sans-Serif" font-size="10.00">begin()</text>
<text text-anchor="start" x="15.56" y="-158.25" font-family="Helvetica,sans-Serif" font-size="10.00">+</text>
<text text-anchor="start" x="37.12" y="-158.25" font-family="Helvetica,sans-Serif" font-size="10.00">begin()</text>
<text text-anchor="start" x="15.56" y="-143" font-family="Helvetica,sans-Serif" font-size="10.00">+</text>
<text text-anchor="start" x="37.12" y="-143" font-family="Helvetica,sans-Serif" font-size="10.00">cbegin()</text>
<text text-anchor="start" x="15.56" y="-127.75" font-family="Helvetica,sans-Serif" font-size="10.00">+</text>
<text text-anchor="start" x="37.12" y="-127.75" font-family="Helvetica,sans-Serif" font-size="10.00">end()</text>
<text text-anchor="start" x="15.56" y="-112.5" font-family="Helvetica,sans-Serif" font-size="10.00">+</text>
<text text-anchor="start" x="37.12" y="-112.5" font-family="Helvetica,sans-Serif" font-size="10.00">end()</text>
<text text-anchor="start" x="15.56" y="-97.25" font-family="Helvetica,sans-Serif" font-size="10.00">+</text>
<text text-anchor="start" x="37.12" y="-97.25" font-family="Helvetica,sans-Serif" font-size="10.00">cend()</text>
<text text-anchor="start" x="15.56" y="-82" font-family="Helvetica,sans-Serif" font-size="10.00">+</text>
<text text-anchor="start" x="37.12" y="-82" font-family="Helvetica,sans-Serif" font-size="10.00">size()</text>
<text text-anchor="start" x="15.56" y="-66.75" font-family="Helvetica,sans-Serif" font-size="10.00">+</text>
<text text-anchor="start" x="37.12" y="-66.75" font-family="Helvetica,sans-Serif" font-size="10.00">insert_at()</text>
<text text-anchor="start" x="15.56" y="-51.5" font-family="Helvetica,sans-Serif" font-size="10.00">+</text>
<text text-anchor="start" x="37.12" y="-51.5" font-family="Helvetica,sans-Serif" font-size="10.00">insert_at()</text>
<text text-anchor="start" x="15.56" y="-36.25" font-family="Helvetica,sans-Serif" font-size="10.00">+</text>
<text text-anchor="start" x="37.12" y="-36.25" font-family="Helvetica,sans-Serif" font-size="10.00">emplace_at()</text>
<text text-anchor="start" x="15.56" y="-21" font-family="Helvetica,sans-Serif" font-size="10.00">+</text>
<text text-anchor="start" x="37.12" y="-21" font-family="Helvetica,sans-Serif" font-size="10.00">erase()</text>
<text text-anchor="start" x="15.56" y="-5.75" font-family="Helvetica,sans-Serif" font-size="10.00">+</text>
<text text-anchor="start" x="37.12" y="-5.75" font-family="Helvetica,sans-Serif" font-size="10.00">get_index()</text>
<polygon fill="#666666" stroke="#666666" points="0,-322.25 0,-322.25 132.5,-322.25 132.5,-322.25 0,-322.25"/>
<polygon fill="#666666" stroke="#666666" points="0,-307 0,-307 132.5,-307 132.5,-307 0,-307"/>
<polygon fill="none" stroke="#666666" points="0,0 0,-339.5 132.5,-339.5 132.5,0 0,0"/>
</a>
</g>
</g>
<!-- Node2 -->
<g id="Node000002" class="node">
<title>Node2</title>
<g id="a_Node000002"><a xlink:title=" ">
<polygon fill="white" stroke="none" points="116.38,-436.5 16.12,-436.5 16.12,-386.75 116.38,-386.75 116.38,-436.5"/>
<text text-anchor="start" x="20.12" y="-423" font-family="Helvetica,sans-Serif" font-size="10.00">vector&lt; value_type &gt;</text>
<text text-anchor="start" x="64.75" y="-407.75" font-family="Helvetica,sans-Serif" font-size="10.00"> </text>
<text text-anchor="start" x="64.75" y="-392.5" font-family="Helvetica,sans-Serif" font-size="10.00"> </text>
<polygon fill="#666666" stroke="#666666" points="16.12,-419.25 16.12,-419.25 116.38,-419.25 116.38,-419.25 16.12,-419.25"/>
<polygon fill="#666666" stroke="#666666" points="16.12,-404 16.12,-404 116.38,-404 116.38,-404 16.12,-404"/>
<polygon fill="none" stroke="#666666" points="16.12,-386.75 16.12,-436.5 116.38,-436.5 116.38,-386.75 16.12,-386.75"/>
</a>
</g>
</g>
<!-- Node2&#45;&gt;Node1 -->
<g id="edge1_Node000001_Node000002" class="edge">
<title>Node2&#45;&gt;Node1</title>
<g id="a_edge1_Node000001_Node000002"><a xlink:title=" ">
<path fill="none" stroke="#63b8ff" d="M66.25,-387.19C66.25,-377.58 66.25,-365.54 66.25,-352.08"/>
<polygon fill="none" stroke="#63b8ff" points="66.25,-352.27 62.25,-346.27 66.25,-340.27 70.25,-346.27 66.25,-352.27"/>
</a>
</g>
<text text-anchor="middle" x="81.25" y="-359.25" font-family="Helvetica,sans-Serif" font-size="10.00" fill="grey"> &#45;_data</text>
</g>
</g>
</svg>
