<?xml version="1.0" encoding="UTF-8" standalone="no"?>
<!DOCTYPE svg PUBLIC "-//W3C//DTD SVG 1.1//EN"
 "http://www.w3.org/Graphics/SVG/1.1/DTD/svg11.dtd">
<!-- Generated by graphviz version 12.2.1 (20241206.2353)
 -->
<!-- Title: ServerGame::checkAllCollisions Pages: 1 -->
<svg width="342pt" height="101pt"
 viewBox="0.00 0.00 341.50 101.25" xmlns="http://www.w3.org/2000/svg" xmlns:xlink="http://www.w3.org/1999/xlink">
<g id="graph0" class="graph" transform="scale(1 1) rotate(0) translate(4 97.25)">
<title>ServerGame::checkAllCollisions</title>
<!-- Node1 -->
<g id="Node000001" class="node">
<title>Node1</title>
<g id="a_Node000001"><a xlink:title=" ">
<polygon fill="#999999" stroke="#666666" points="157,-56.25 0,-56.25 0,-37 157,-37 157,-56.25"/>
<text text-anchor="middle" x="78.5" y="-42.75" font-family="Helvetica,sans-Serif" font-size="10.00">ServerGame::checkAllCollisions</text>
</a>
</g>
</g>
<!-- Node1&#45;&gt;Node1 -->
<g id="edge1_Node000001_Node000001" class="edge">
<title>Node1&#45;&gt;Node1</title>
<g id="a_edge1_Node000001_Node000001"><a xlink:title=" ">
<path fill="none" stroke="#63b8ff" d="M49.58,-56.54C36.38,-65.15 46.02,-74.25 78.5,-74.25 97.27,-74.25 108.42,-71.21 111.93,-66.98"/>
<polygon fill="#63b8ff" stroke="#63b8ff" points="115.2,-65.72 108.02,-57.93 108.77,-68.5 115.2,-65.72"/>
</a>
</g>
</g>
<!-- Node2 -->
<g id="Node000002" class="node">
<title>Node2</title>
<g id="a_Node000002"><a xlink:href="class_server_game.html#a9a2b4bb7a61cf272fae0d6ed1f13e59f" target="_top" xlink:title=" ">
<polygon fill="white" stroke="#666666" points="333.5,-93.25 193,-93.25 193,-74 333.5,-74 333.5,-93.25"/>
<text text-anchor="middle" x="263.25" y="-79.75" font-family="Helvetica,sans-Serif" font-size="10.00">ServerGame::handleColision</text>
</a>
</g>
</g>
<!-- Node1&#45;&gt;Node2 -->
<g id="edge2_Node000001_Node000002" class="edge">
<title>Node1&#45;&gt;Node2</title>
<g id="a_edge2_Node000001_Node000002"><a xlink:title=" ">
<path fill="none" stroke="#63b8ff" d="M129.44,-56.74C151.6,-61.22 177.88,-66.54 201.2,-71.26"/>
<polygon fill="#63b8ff" stroke="#63b8ff" points="200.39,-74.67 210.89,-73.23 201.78,-67.81 200.39,-74.67"/>
</a>
</g>
</g>
<!-- Node3 -->
<g id="Node000003" class="node">
<title>Node3</title>
<g id="a_Node000003"><a xlink:href="class_server_game.html#adf9d28b0bb99cd31ec005e81fa4128f4" target="_top" xlink:title=" ">
<polygon fill="white" stroke="#666666" points="329,-56.25 197.5,-56.25 197.5,-37 329,-37 329,-56.25"/>
<text text-anchor="middle" x="263.25" y="-42.75" font-family="Helvetica,sans-Serif" font-size="10.00">ServerGame::handleDeath</text>
</a>
</g>
</g>
<!-- Node1&#45;&gt;Node3 -->
<g id="edge3_Node000001_Node000003" class="edge">
<title>Node1&#45;&gt;Node3</title>
<g id="a_edge3_Node000001_Node000003"><a xlink:title=" ">
<path fill="none" stroke="#63b8ff" d="M157.27,-46.62C166.73,-46.62 176.39,-46.62 185.83,-46.62"/>
<polygon fill="#63b8ff" stroke="#63b8ff" points="185.7,-50.13 195.7,-46.63 185.7,-43.13 185.7,-50.13"/>
</a>
</g>
</g>
<!-- Node4 -->
<g id="Node000004" class="node">
<title>Node4</title>
<g id="a_Node000004"><a xlink:href="class_server_game.html#a0d2136187aa368d02f5bc66c2b1f85cf" target="_top" xlink:title=" ">
<polygon fill="white" stroke="#666666" points="324.12,-19.25 202.38,-19.25 202.38,0 324.12,0 324.12,-19.25"/>
<text text-anchor="middle" x="263.25" y="-5.75" font-family="Helvetica,sans-Serif" font-size="10.00">ServerGame::isColliding</text>
</a>
</g>
</g>
<!-- Node1&#45;&gt;Node4 -->
<g id="edge4_Node000001_Node000004" class="edge">
<title>Node1&#45;&gt;Node4</title>
<g id="a_edge4_Node000001_Node000004"><a xlink:title=" ">
<path fill="none" stroke="#63b8ff" d="M129.44,-36.51C151.6,-32.03 177.88,-26.71 201.2,-21.99"/>
<polygon fill="#63b8ff" stroke="#63b8ff" points="201.78,-25.44 210.89,-20.02 200.39,-18.58 201.78,-25.44"/>
</a>
</g>
</g>
</g>
</svg>
