<?xml version="1.0" encoding="UTF-8" standalone="no"?>
<!DOCTYPE svg PUBLIC "-//W3C//DTD SVG 1.1//EN"
 "http://www.w3.org/Graphics/SVG/1.1/DTD/svg11.dtd">
<!-- Generated by graphviz version 12.2.1 (20241206.2353)
 -->
<!-- Title: ServerNetwork::get_action_name Pages: 1 -->
<svg width="631pt" height="39pt"
 viewBox="0.00 0.00 631.00 38.50" xmlns="http://www.w3.org/2000/svg" xmlns:xlink="http://www.w3.org/1999/xlink">
<g id="graph0" class="graph" transform="scale(1 1) rotate(0) translate(4 34.5)">
<title>ServerNetwork::get_action_name</title>
<!-- Node1 -->
<g id="Node000001" class="node">
<title>Node1</title>
<g id="a_Node000001"><a xlink:title=" ">
<polygon fill="#999999" stroke="#666666" points="623,-30.5 522.25,-30.5 522.25,0 623,0 623,-30.5"/>
<text text-anchor="start" x="530.25" y="-17" font-family="Helvetica,sans-Serif" font-size="10.00">ServerNetwork::get</text>
<text text-anchor="middle" x="572.62" y="-5.75" font-family="Helvetica,sans-Serif" font-size="10.00">_action_name</text>
</a>
</g>
</g>
<!-- Node2 -->
<g id="Node000002" class="node">
<title>Node2</title>
<g id="a_Node000002"><a xlink:href="class_server_network.html#afab7785be9c68eb1c569a36b64b358b6" target="_top" xlink:title=" ">
<polygon fill="white" stroke="#666666" points="486.25,-30.5 370.5,-30.5 370.5,0 486.25,0 486.25,-30.5"/>
<text text-anchor="start" x="378.5" y="-17" font-family="Helvetica,sans-Serif" font-size="10.00">ServerNetwork::handle</text>
<text text-anchor="middle" x="428.38" y="-5.75" font-family="Helvetica,sans-Serif" font-size="10.00">_game_message</text>
</a>
</g>
</g>
<!-- Node1&#45;&gt;Node2 -->
<g id="edge1_Node000001_Node000002" class="edge">
<title>Node1&#45;&gt;Node2</title>
<g id="a_edge1_Node000001_Node000002"><a xlink:title=" ">
<path fill="none" stroke="#63b8ff" d="M510.46,-15.25C502.56,-15.25 494.49,-15.25 486.65,-15.25"/>
<polygon fill="#63b8ff" stroke="#63b8ff" points="510.36,-18.75 520.36,-15.25 510.36,-11.75 510.36,-18.75"/>
</a>
</g>
</g>
<!-- Node3 -->
<g id="Node000003" class="node">
<title>Node3</title>
<g id="a_Node000003"><a xlink:href="class_server_network.html#a231bfb41bda1137994952ec41e01c5d0" target="_top" xlink:title=" ">
<polygon fill="white" stroke="#666666" points="334.5,-30.5 215.75,-30.5 215.75,0 334.5,0 334.5,-30.5"/>
<text text-anchor="start" x="223.75" y="-17" font-family="Helvetica,sans-Serif" font-size="10.00">ServerNetwork::receive</text>
<text text-anchor="middle" x="275.12" y="-5.75" font-family="Helvetica,sans-Serif" font-size="10.00">_messages</text>
</a>
</g>
</g>
<!-- Node2&#45;&gt;Node3 -->
<g id="edge2_Node000002_Node000003" class="edge">
<title>Node2&#45;&gt;Node3</title>
<g id="a_edge2_Node000002_Node000003"><a xlink:title=" ">
<path fill="none" stroke="#63b8ff" d="M358.95,-15.25C350.92,-15.25 342.78,-15.25 334.9,-15.25"/>
<polygon fill="#63b8ff" stroke="#63b8ff" points="358.68,-18.75 368.68,-15.25 358.68,-11.75 358.68,-18.75"/>
</a>
</g>
</g>
<!-- Node4 -->
<g id="Node000004" class="node">
<title>Node4</title>
<g id="a_Node000004"><a xlink:href="class_server_network.html#ae99b7e63fdf7ee47520e3b0891a70c6b" target="_top" xlink:title=" ">
<polygon fill="white" stroke="#666666" points="179.75,-24.88 73,-24.88 73,-5.63 179.75,-5.63 179.75,-24.88"/>
<text text-anchor="middle" x="126.38" y="-11.38" font-family="Helvetica,sans-Serif" font-size="10.00">ServerNetwork::start</text>
</a>
</g>
</g>
<!-- Node3&#45;&gt;Node4 -->
<g id="edge3_Node000003_Node000004" class="edge">
<title>Node3&#45;&gt;Node4</title>
<g id="a_edge3_Node000003_Node000004"><a xlink:title=" ">
<path fill="none" stroke="#63b8ff" d="M203.98,-15.25C195.93,-15.25 187.83,-15.25 180.07,-15.25"/>
<polygon fill="#63b8ff" stroke="#63b8ff" points="203.77,-18.75 213.77,-15.25 203.77,-11.75 203.77,-18.75"/>
</a>
</g>
</g>
<!-- Node5 -->
<g id="Node000005" class="node">
<title>Node5</title>
<g id="a_Node000005"><a xlink:href="server_2main_8cpp.html#a0ddf1224851353fc92bfbff6f499fa97" target="_top" xlink:title=" ">
<polygon fill="white" stroke="#666666" points="37,-24.88 0,-24.88 0,-5.63 37,-5.63 37,-24.88"/>
<text text-anchor="middle" x="18.5" y="-11.38" font-family="Helvetica,sans-Serif" font-size="10.00">main</text>
</a>
</g>
</g>
<!-- Node4&#45;&gt;Node5 -->
<g id="edge4_Node000004_Node000005" class="edge">
<title>Node4&#45;&gt;Node5</title>
<g id="a_edge4_Node000004_Node000005"><a xlink:title=" ">
<path fill="none" stroke="#63b8ff" d="M61.36,-15.25C52.49,-15.25 44.05,-15.25 37.11,-15.25"/>
<polygon fill="#63b8ff" stroke="#63b8ff" points="61.23,-18.75 71.23,-15.25 61.23,-11.75 61.23,-18.75"/>
</a>
</g>
</g>
</g>
</svg>
