<?xml version="1.0" encoding="UTF-8" standalone="no"?>
<!DOCTYPE svg PUBLIC "-//W3C//DTD SVG 1.1//EN"
 "http://www.w3.org/Graphics/SVG/1.1/DTD/svg11.dtd">
<!-- Generated by graphviz version 12.2.1 (20241206.2353)
 -->
<!-- Title: UDPNetworkClient::send Pages: 1 -->
<svg width="312pt" height="57pt"
 viewBox="0.00 0.00 311.50 56.50" xmlns="http://www.w3.org/2000/svg" xmlns:xlink="http://www.w3.org/1999/xlink">
<g id="graph0" class="graph" transform="scale(1 1) rotate(0) translate(4 52.5)">
<title>UDPNetworkClient::send</title>
<!-- Node1 -->
<g id="Node000001" class="node">
<title>Node1</title>
<g id="a_Node000001"><a xlink:title=" ">
<polygon fill="#999999" stroke="#666666" points="127,-24.88 0,-24.88 0,-5.63 127,-5.63 127,-24.88"/>
<text text-anchor="middle" x="63.5" y="-11.38" font-family="Helvetica,sans-Serif" font-size="10.00">UDPNetworkClient::send</text>
</a>
</g>
</g>
<!-- Node2 -->
<g id="Node000002" class="node">
<title>Node2</title>
<g id="a_Node000002"><a xlink:href="class_u_d_p_network_client.html#aa1d5a4bd444e21bfb102f93fbe0025cd" target="_top" xlink:title=" ">
<polygon fill="white" stroke="#666666" points="303.5,-30.5 163,-30.5 163,0 303.5,0 303.5,-30.5"/>
<text text-anchor="start" x="171" y="-17" font-family="Helvetica,sans-Serif" font-size="10.00">UDPNetworkClient::process</text>
<text text-anchor="middle" x="233.25" y="-5.75" font-family="Helvetica,sans-Serif" font-size="10.00">_send_queue</text>
</a>
</g>
</g>
<!-- Node1&#45;&gt;Node2 -->
<g id="edge1_Node000001_Node000002" class="edge">
<title>Node1&#45;&gt;Node2</title>
<g id="a_edge1_Node000001_Node000002"><a xlink:title=" ">
<path fill="none" stroke="#63b8ff" d="M127.44,-15.25C135.28,-15.25 143.37,-15.25 151.43,-15.25"/>
<polygon fill="#63b8ff" stroke="#63b8ff" points="151.25,-18.75 161.25,-15.25 151.25,-11.75 151.25,-18.75"/>
</a>
</g>
</g>
<!-- Node2&#45;&gt;Node2 -->
<g id="edge2_Node000002_Node000002" class="edge">
<title>Node2&#45;&gt;Node2</title>
<g id="a_edge2_Node000002_Node000002"><a xlink:title=" ">
<path fill="none" stroke="#63b8ff" d="M203.17,-30.99C197.03,-40.06 207.06,-48.5 233.25,-48.5 247.57,-48.5 257.06,-45.97 261.72,-42.2"/>
<polygon fill="#63b8ff" stroke="#63b8ff" points="265.16,-42.88 263.11,-32.48 258.23,-41.88 265.16,-42.88"/>
</a>
</g>
</g>
</g>
</svg>
