<?xml version="1.0" encoding="UTF-8" standalone="no"?>
<!DOCTYPE svg PUBLIC "-//W3C//DTD SVG 1.1//EN"
 "http://www.w3.org/Graphics/SVG/1.1/DTD/svg11.dtd">
<!-- Generated by graphviz version 12.2.1 (20241206.2353)
 -->
<!-- Title: ServerGame::handleColision Pages: 1 -->
<svg width="837pt" height="57pt"
 viewBox="0.00 0.00 836.50 56.50" xmlns="http://www.w3.org/2000/svg" xmlns:xlink="http://www.w3.org/1999/xlink">
<g id="graph0" class="graph" transform="scale(1 1) rotate(0) translate(4 52.5)">
<title>ServerGame::handleColision</title>
<!-- Node1 -->
<g id="Node000001" class="node">
<title>Node1</title>
<g id="a_Node000001"><a xlink:title=" ">
<polygon fill="#999999" stroke="#666666" points="828.5,-24.88 688,-24.88 688,-5.63 828.5,-5.63 828.5,-24.88"/>
<text text-anchor="middle" x="758.25" y="-11.38" font-family="Helvetica,sans-Serif" font-size="10.00">ServerGame::handleColision</text>
</a>
</g>
</g>
<!-- Node2 -->
<g id="Node000002" class="node">
<title>Node2</title>
<g id="a_Node000002"><a xlink:href="class_server_game.html#aa99390eeaadd29af06da639d8a9ef353" target="_top" xlink:title=" ">
<polygon fill="white" stroke="#666666" points="652,-24.88 495,-24.88 495,-5.63 652,-5.63 652,-24.88"/>
<text text-anchor="middle" x="573.5" y="-11.38" font-family="Helvetica,sans-Serif" font-size="10.00">ServerGame::checkAllCollisions</text>
</a>
</g>
</g>
<!-- Node1&#45;&gt;Node2 -->
<g id="edge1_Node000001_Node000002" class="edge">
<title>Node1&#45;&gt;Node2</title>
<g id="a_edge1_Node000001_Node000002"><a xlink:title=" ">
<path fill="none" stroke="#63b8ff" d="M676.19,-15.25C668.31,-15.25 660.32,-15.25 652.46,-15.25"/>
<polygon fill="#63b8ff" stroke="#63b8ff" points="676.13,-18.75 686.13,-15.25 676.13,-11.75 676.13,-18.75"/>
</a>
</g>
</g>
<!-- Node2&#45;&gt;Node2 -->
<g id="edge2_Node000002_Node000002" class="edge">
<title>Node2&#45;&gt;Node2</title>
<g id="a_edge2_Node000002_Node000002"><a xlink:title=" ">
<path fill="none" stroke="#63b8ff" d="M606.93,-35.6C603.42,-39.83 592.27,-42.88 573.5,-42.88 541.02,-42.88 531.38,-33.77 544.58,-25.16"/>
<polygon fill="#63b8ff" stroke="#63b8ff" points="610.2,-34.35 603.02,-26.55 603.77,-37.12 610.2,-34.35"/>
</a>
</g>
</g>
<!-- Node3 -->
<g id="Node000003" class="node">
<title>Node3</title>
<g id="a_Node000003"><a xlink:href="class_server_game.html#acd85147947f8c366cccf07b8d6674026" target="_top" xlink:title=" ">
<polygon fill="white" stroke="#666666" points="459,-30.5 317.75,-30.5 317.75,0 459,0 459,-30.5"/>
<text text-anchor="start" x="325.75" y="-17" font-family="Helvetica,sans-Serif" font-size="10.00">ServerGame::setup_collision</text>
<text text-anchor="middle" x="388.38" y="-5.75" font-family="Helvetica,sans-Serif" font-size="10.00">_timer</text>
</a>
</g>
</g>
<!-- Node2&#45;&gt;Node3 -->
<g id="edge3_Node000002_Node000003" class="edge">
<title>Node2&#45;&gt;Node3</title>
<g id="a_edge3_Node000002_Node000003"><a xlink:title=" ">
<path fill="none" stroke="#63b8ff" d="M483.28,-15.25C475.26,-15.25 467.22,-15.25 459.4,-15.25"/>
<polygon fill="#63b8ff" stroke="#63b8ff" points="483.06,-18.75 493.06,-15.25 483.06,-11.75 483.06,-18.75"/>
</a>
</g>
</g>
<!-- Node3&#45;&gt;Node3 -->
<g id="edge6_Node000003_Node000003" class="edge">
<title>Node3&#45;&gt;Node3</title>
<g id="a_edge6_Node000003_Node000003"><a xlink:title=" ">
<path fill="none" stroke="#63b8ff" d="M416.28,-42.2C411.71,-45.97 402.41,-48.5 388.38,-48.5 362.7,-48.5 352.88,-40.06 358.89,-30.99"/>
<polygon fill="#63b8ff" stroke="#63b8ff" points="419.72,-42.88 417.65,-32.48 412.78,-41.9 419.72,-42.88"/>
</a>
</g>
</g>
<!-- Node4 -->
<g id="Node000004" class="node">
<title>Node4</title>
<g id="a_Node000004"><a xlink:href="class_server_game.html#a0157100c7f7204cb8d870947d0b81e6f" target="_top" xlink:title=" ">
<polygon fill="white" stroke="#666666" points="281.75,-24.88 162.25,-24.88 162.25,-5.63 281.75,-5.63 281.75,-24.88"/>
<text text-anchor="middle" x="222" y="-11.38" font-family="Helvetica,sans-Serif" font-size="10.00">ServerGame::initTimers</text>
</a>
</g>
</g>
<!-- Node3&#45;&gt;Node4 -->
<g id="edge4_Node000003_Node000004" class="edge">
<title>Node3&#45;&gt;Node4</title>
<g id="a_edge4_Node000003_Node000004"><a xlink:title=" ">
<path fill="none" stroke="#63b8ff" d="M306.24,-15.25C298.13,-15.25 290,-15.25 282.18,-15.25"/>
<polygon fill="#63b8ff" stroke="#63b8ff" points="306.15,-18.75 316.15,-15.25 306.15,-11.75 306.15,-18.75"/>
</a>
</g>
</g>
<!-- Node5 -->
<g id="Node000005" class="node">
<title>Node5</title>
<g id="a_Node000005"><a xlink:href="class_server_game.html#a0dcb65cf6ca824c15b425d6e731ac7cb" target="_top" xlink:title=" ">
<polygon fill="white" stroke="#666666" points="126.25,-24.88 0,-24.88 0,-5.63 126.25,-5.63 126.25,-24.88"/>
<text text-anchor="middle" x="63.12" y="-11.38" font-family="Helvetica,sans-Serif" font-size="10.00">ServerGame::handleStart</text>
</a>
</g>
</g>
<!-- Node4&#45;&gt;Node5 -->
<g id="edge5_Node000004_Node000005" class="edge">
<title>Node4&#45;&gt;Node5</title>
<g id="a_edge5_Node000004_Node000005"><a xlink:title=" ">
<path fill="none" stroke="#63b8ff" d="M150.88,-15.25C142.83,-15.25 134.66,-15.25 126.73,-15.25"/>
<polygon fill="#63b8ff" stroke="#63b8ff" points="150.63,-18.75 160.63,-15.25 150.63,-11.75 150.63,-18.75"/>
</a>
</g>
</g>
</g>
</svg>
