<?xml version="1.0" encoding="UTF-8" standalone="no"?>
<!DOCTYPE svg PUBLIC "-//W3C//DTD SVG 1.1//EN"
 "http://www.w3.org/Graphics/SVG/1.1/DTD/svg11.dtd">
<!-- Generated by graphviz version 12.2.1 (20241206.2353)
 -->
<!-- Title: Core::handleStartCommand Pages: 1 -->
<svg width="1138pt" height="64pt"
 viewBox="0.00 0.00 1138.25 64.25" xmlns="http://www.w3.org/2000/svg" xmlns:xlink="http://www.w3.org/1999/xlink">
<g id="graph0" class="graph" transform="scale(1 1) rotate(0) translate(4 60.25)">
<title>Core::handleStartCommand</title>
<!-- Node1 -->
<g id="Node000001" class="node">
<title>Node1</title>
<g id="a_Node000001"><a xlink:title=" ">
<polygon fill="#999999" stroke="#666666" points="1130.25,-38.25 992.75,-38.25 992.75,-19 1130.25,-19 1130.25,-38.25"/>
<text text-anchor="middle" x="1061.5" y="-24.75" font-family="Helvetica,sans-Serif" font-size="10.00">Core::handleStartCommand</text>
</a>
</g>
</g>
<!-- Node2 -->
<g id="Node000002" class="node">
<title>Node2</title>
<g id="a_Node000002"><a xlink:href="class_core.html#aae2b137a9885ae1ac3d740786cfdcb34" target="_top" xlink:title=" ">
<polygon fill="white" stroke="#666666" points="956.75,-19.25 806.5,-19.25 806.5,0 956.75,0 956.75,-19.25"/>
<text text-anchor="middle" x="881.62" y="-5.75" font-family="Helvetica,sans-Serif" font-size="10.00">Core::handleServerCommands</text>
</a>
</g>
</g>
<!-- Node1&#45;&gt;Node2 -->
<g id="edge1_Node000001_Node000002" class="edge">
<title>Node1&#45;&gt;Node2</title>
<g id="a_edge1_Node000001_Node000002"><a xlink:title=" ">
<path fill="none" stroke="#63b8ff" d="M981.24,-20.16C973.22,-19.3 965.09,-18.43 957.11,-17.58"/>
<polygon fill="#63b8ff" stroke="#63b8ff" points="980.67,-23.62 990.99,-21.2 981.42,-16.66 980.67,-23.62"/>
</a>
</g>
</g>
<!-- Node3 -->
<g id="Node000003" class="node">
<title>Node3</title>
<g id="a_Node000003"><a xlink:href="class_core.html#a42623cce6be1bf30af3a1bca1ed73ed6" target="_top" xlink:title=" ">
<polygon fill="white" stroke="#666666" points="770.5,-56.25 685.5,-56.25 685.5,-37 770.5,-37 770.5,-56.25"/>
<text text-anchor="middle" x="728" y="-42.75" font-family="Helvetica,sans-Serif" font-size="10.00">Core::gui_game</text>
</a>
</g>
</g>
<!-- Node2&#45;&gt;Node3 -->
<g id="edge2_Node000002_Node000003" class="edge">
<title>Node2&#45;&gt;Node3</title>
<g id="a_edge2_Node000002_Node000003"><a xlink:title=" ">
<path fill="none" stroke="#63b8ff" d="M828.06,-22.45C809.19,-27.06 788.18,-32.18 770.38,-36.53"/>
<polygon fill="#63b8ff" stroke="#63b8ff" points="828.84,-25.87 837.72,-20.09 827.18,-19.06 828.84,-25.87"/>
</a>
</g>
</g>
<!-- Node6 -->
<g id="Node000006" class="node">
<title>Node6</title>
<g id="a_Node000006"><a xlink:href="class_core.html#ab5c7da5be504f0f34380b1ca5b97924b" target="_top" xlink:title=" ">
<polygon fill="white" stroke="#666666" points="770.12,-19.25 685.88,-19.25 685.88,0 770.12,0 770.12,-19.25"/>
<text text-anchor="middle" x="728" y="-5.75" font-family="Helvetica,sans-Serif" font-size="10.00">Core::gui_lobby</text>
</a>
</g>
</g>
<!-- Node2&#45;&gt;Node6 -->
<g id="edge6_Node000002_Node000006" class="edge">
<title>Node2&#45;&gt;Node6</title>
<g id="a_edge6_Node000002_Node000006"><a xlink:title=" ">
<path fill="none" stroke="#63b8ff" d="M794.66,-9.62C786.28,-9.62 778.07,-9.62 770.45,-9.62"/>
<polygon fill="#63b8ff" stroke="#63b8ff" points="794.63,-13.13 804.63,-9.63 794.63,-6.13 794.63,-13.13"/>
</a>
</g>
</g>
<!-- Node3&#45;&gt;Node1 -->
<g id="edge3_Node000003_Node000001" class="edge">
<title>Node3&#45;&gt;Node1</title>
<g id="a_edge3_Node000003_Node000001"><a xlink:title=" ">
<path fill="none" stroke="#63b8ff" d="M781.91,-43.75C839.04,-40.65 930.24,-35.7 992.62,-32.31"/>
<polygon fill="#63b8ff" stroke="#63b8ff" points="781.91,-40.25 772.12,-44.28 782.29,-47.24 781.91,-40.25"/>
</a>
</g>
</g>
<!-- Node4 -->
<g id="Node000004" class="node">
<title>Node4</title>
<g id="a_Node000004"><a xlink:href="class_core.html#afe1c190b0d03ded99b7408538b16998c" target="_top" xlink:title=" ">
<polygon fill="white" stroke="#666666" points="649.5,-56.25 562.25,-56.25 562.25,-37 649.5,-37 649.5,-56.25"/>
<text text-anchor="middle" x="605.88" y="-42.75" font-family="Helvetica,sans-Serif" font-size="10.00">Core::login_auto</text>
</a>
</g>
</g>
<!-- Node3&#45;&gt;Node4 -->
<g id="edge4_Node000003_Node000004" class="edge">
<title>Node3&#45;&gt;Node4</title>
<g id="a_edge4_Node000003_Node000004"><a xlink:title=" ">
<path fill="none" stroke="#63b8ff" d="M674.01,-46.62C665.88,-46.62 657.57,-46.62 649.7,-46.62"/>
<polygon fill="#63b8ff" stroke="#63b8ff" points="673.81,-50.13 683.81,-46.63 673.81,-43.13 673.81,-50.13"/>
</a>
</g>
</g>
<!-- Node5 -->
<g id="Node000005" class="node">
<title>Node5</title>
<g id="a_Node000005"><a xlink:href="client_2main_8cpp.html#a0ddf1224851353fc92bfbff6f499fa97" target="_top" xlink:title=" ">
<polygon fill="white" stroke="#666666" points="37,-38.25 0,-38.25 0,-19 37,-19 37,-38.25"/>
<text text-anchor="middle" x="18.5" y="-24.75" font-family="Helvetica,sans-Serif" font-size="10.00">main</text>
</a>
</g>
</g>
<!-- Node4&#45;&gt;Node5 -->
<g id="edge5_Node000004_Node000005" class="edge">
<title>Node4&#45;&gt;Node5</title>
<g id="a_edge5_Node000004_Node000005"><a xlink:title=" ">
<path fill="none" stroke="#63b8ff" d="M550.69,-46.94C494.75,-47.23 404.96,-47.63 327.38,-47.62 327.38,-47.62 327.38,-47.62 206.25,-47.62 144,-47.63 70.69,-37.05 37.47,-31.68"/>
<polygon fill="#63b8ff" stroke="#63b8ff" points="550.6,-50.44 560.58,-46.88 550.56,-43.44 550.6,-50.44"/>
</a>
</g>
</g>
<!-- Node6&#45;&gt;Node4 -->
<g id="edge13_Node000006_Node000004" class="edge">
<title>Node6&#45;&gt;Node4</title>
<g id="a_edge13_Node000006_Node000004"><a xlink:title=" ">
<path fill="none" stroke="#63b8ff" d="M683.45,-23.04C669,-27.49 653.16,-32.37 639.66,-36.53"/>
<polygon fill="#63b8ff" stroke="#63b8ff" points="684.2,-26.47 692.73,-20.18 682.14,-19.78 684.2,-26.47"/>
</a>
</g>
</g>
<!-- Node7 -->
<g id="Node000007" class="node">
<title>Node7</title>
<g id="a_Node000007"><a xlink:href="class_core.html#ae373e5e53d26163bfc20d236fd116f89" target="_top" xlink:title=" ">
<polygon fill="white" stroke="#666666" points="637.5,-19.25 574.25,-19.25 574.25,0 637.5,0 637.5,-19.25"/>
<text text-anchor="middle" x="605.88" y="-5.75" font-family="Helvetica,sans-Serif" font-size="10.00">Core::login</text>
</a>
</g>
</g>
<!-- Node6&#45;&gt;Node7 -->
<g id="edge7_Node000006_Node000007" class="edge">
<title>Node6&#45;&gt;Node7</title>
<g id="a_edge7_Node000006_Node000007"><a xlink:title=" ">
<path fill="none" stroke="#63b8ff" d="M674.34,-9.62C661.81,-9.62 648.84,-9.62 637.66,-9.62"/>
<polygon fill="#63b8ff" stroke="#63b8ff" points="674.15,-13.13 684.15,-9.63 674.15,-6.13 674.15,-13.13"/>
</a>
</g>
</g>
<!-- Node8 -->
<g id="Node000008" class="node">
<title>Node8</title>
<g id="a_Node000008"><a xlink:href="class_core.html#a245f461d8f0f1feaa8b126f329c7db22" target="_top" xlink:title=" ">
<polygon fill="white" stroke="#666666" points="526.25,-19.25 403,-19.25 403,0 526.25,0 526.25,-19.25"/>
<text text-anchor="middle" x="464.62" y="-5.75" font-family="Helvetica,sans-Serif" font-size="10.00">Core::handleMouseClick</text>
</a>
</g>
</g>
<!-- Node7&#45;&gt;Node8 -->
<g id="edge8_Node000007_Node000008" class="edge">
<title>Node7&#45;&gt;Node8</title>
<g id="a_edge8_Node000007_Node000008"><a xlink:title=" ">
<path fill="none" stroke="#63b8ff" d="M562.65,-9.62C551.32,-9.62 538.84,-9.62 526.71,-9.62"/>
<polygon fill="#63b8ff" stroke="#63b8ff" points="562.46,-13.13 572.46,-9.63 562.46,-6.13 562.46,-13.13"/>
</a>
</g>
</g>
<!-- Node9 -->
<g id="Node000009" class="node">
<title>Node9</title>
<g id="a_Node000009"><a xlink:href="class_core.html#a1460b7116a24aa8c866c33c4f16bd5a4" target="_top" xlink:title=" ">
<polygon fill="white" stroke="#666666" points="367,-19.25 285.75,-19.25 285.75,0 367,0 367,-19.25"/>
<text text-anchor="middle" x="326.38" y="-5.75" font-family="Helvetica,sans-Serif" font-size="10.00">Core::gui_login</text>
</a>
</g>
</g>
<!-- Node8&#45;&gt;Node9 -->
<g id="edge9_Node000008_Node000009" class="edge">
<title>Node8&#45;&gt;Node9</title>
<g id="a_edge9_Node000008_Node000009"><a xlink:title=" ">
<path fill="none" stroke="#63b8ff" d="M391.34,-9.62C383.03,-9.62 374.8,-9.62 367.16,-9.62"/>
<polygon fill="#63b8ff" stroke="#63b8ff" points="391.16,-13.13 401.16,-9.63 391.16,-6.13 391.16,-13.13"/>
</a>
</g>
</g>
<!-- Node10 -->
<g id="Node000010" class="node">
<title>Node10</title>
<g id="a_Node000010"><a xlink:href="class_core.html#a78dfa9b9ed54a7ba8cfe1be701b79feb" target="_top" xlink:title=" ">
<polygon fill="white" stroke="#666666" points="249.75,-19.25 164.75,-19.25 164.75,0 249.75,0 249.75,-19.25"/>
<text text-anchor="middle" x="207.25" y="-5.75" font-family="Helvetica,sans-Serif" font-size="10.00">Core::gui_menu</text>
</a>
</g>
</g>
<!-- Node9&#45;&gt;Node10 -->
<g id="edge10_Node000009_Node000010" class="edge">
<title>Node9&#45;&gt;Node10</title>
<g id="a_edge10_Node000009_Node000010"><a xlink:title=" ">
<path fill="none" stroke="#63b8ff" d="M273.91,-9.62C265.93,-9.62 257.78,-9.62 250.05,-9.62"/>
<polygon fill="#63b8ff" stroke="#63b8ff" points="273.88,-13.13 283.88,-9.63 273.88,-6.13 273.88,-13.13"/>
</a>
</g>
</g>
<!-- Node11 -->
<g id="Node000011" class="node">
<title>Node11</title>
<g id="a_Node000011"><a xlink:href="class_core.html#aa6045a2323610bfa0ee712b028eb43e4" target="_top" xlink:title=" ">
<polygon fill="white" stroke="#666666" points="128.75,-19.25 73,-19.25 73,0 128.75,0 128.75,-19.25"/>
<text text-anchor="middle" x="100.88" y="-5.75" font-family="Helvetica,sans-Serif" font-size="10.00">Core::gui</text>
</a>
</g>
</g>
<!-- Node10&#45;&gt;Node11 -->
<g id="edge11_Node000010_Node000011" class="edge">
<title>Node10&#45;&gt;Node11</title>
<g id="a_edge11_Node000010_Node000011"><a xlink:title=" ">
<path fill="none" stroke="#63b8ff" d="M153.09,-9.62C144.76,-9.62 136.46,-9.62 129.04,-9.62"/>
<polygon fill="#63b8ff" stroke="#63b8ff" points="152.88,-13.13 162.88,-9.63 152.88,-6.13 152.88,-13.13"/>
</a>
</g>
</g>
<!-- Node11&#45;&gt;Node5 -->
<g id="edge12_Node000011_Node000005" class="edge">
<title>Node11&#45;&gt;Node5</title>
<g id="a_edge12_Node000011_Node000005"><a xlink:title=" ">
<path fill="none" stroke="#63b8ff" d="M61.68,-18.65C53.18,-20.66 44.55,-22.7 37.34,-24.41"/>
<polygon fill="#63b8ff" stroke="#63b8ff" points="62.26,-22.11 71.19,-16.41 60.65,-15.3 62.26,-22.11"/>
</a>
</g>
</g>
</g>
</svg>
