<?xml version="1.0" encoding="UTF-8" standalone="no"?>
<!DOCTYPE svg PUBLIC "-//W3C//DTD SVG 1.1//EN"
 "http://www.w3.org/Graphics/SVG/1.1/DTD/svg11.dtd">
<!-- Generated by graphviz version 12.2.1 (20241206.2353)
 -->
<!-- Title: ServerNetwork::handleWin Pages: 1 -->
<svg width="307pt" height="88pt"
 viewBox="0.00 0.00 307.00 87.50" xmlns="http://www.w3.org/2000/svg" xmlns:xlink="http://www.w3.org/1999/xlink">
<g id="graph0" class="graph" transform="scale(1 1) rotate(0) translate(4 83.5)">
<title>ServerNetwork::handleWin</title>
<!-- Node1 -->
<g id="Node000001" class="node">
<title>Node1</title>
<g id="a_Node000001"><a xlink:title=" ">
<polygon fill="#999999" stroke="#666666" points="133,-48.88 0,-48.88 0,-29.62 133,-29.62 133,-48.88"/>
<text text-anchor="middle" x="66.5" y="-35.38" font-family="Helvetica,sans-Serif" font-size="10.00">ServerNetwork::handleWin</text>
</a>
</g>
</g>
<!-- Node2 -->
<g id="Node000002" class="node">
<title>Node2</title>
<g id="a_Node000002"><a xlink:href="class_server_network.html#a9fd1b21ff45df9e1576a0a50a79bacd7" target="_top" xlink:title=" ">
<polygon fill="white" stroke="#666666" points="299,-79.5 169,-79.5 169,-49 299,-49 299,-79.5"/>
<text text-anchor="start" x="177" y="-66" font-family="Helvetica,sans-Serif" font-size="10.00">ServerNetwork::broadcast</text>
<text text-anchor="middle" x="234" y="-54.75" font-family="Helvetica,sans-Serif" font-size="10.00">_message</text>
</a>
</g>
</g>
<!-- Node1&#45;&gt;Node2 -->
<g id="edge1_Node000001_Node000002" class="edge">
<title>Node1&#45;&gt;Node2</title>
<g id="a_edge1_Node000001_Node000002"><a xlink:title=" ">
<path fill="none" stroke="#63b8ff" d="M133.39,-49.2C141.29,-50.4 149.41,-51.62 157.43,-52.84"/>
<polygon fill="#63b8ff" stroke="#63b8ff" points="156.78,-56.28 167.19,-54.31 157.83,-49.36 156.78,-56.28"/>
</a>
</g>
</g>
<!-- Node3 -->
<g id="Node000003" class="node">
<title>Node3</title>
<g id="a_Node000003"><a xlink:href="class_server_network.html#a3cdc99eb8ed134a23329bf2d8f9c74d2" target="_top" xlink:title=" ">
<polygon fill="white" stroke="#666666" points="293.38,-30.5 174.62,-30.5 174.62,0 293.38,0 293.38,-30.5"/>
<text text-anchor="start" x="182.62" y="-17" font-family="Helvetica,sans-Serif" font-size="10.00">ServerNetwork::encode</text>
<text text-anchor="middle" x="234" y="-5.75" font-family="Helvetica,sans-Serif" font-size="10.00">_action</text>
</a>
</g>
</g>
<!-- Node1&#45;&gt;Node3 -->
<g id="edge2_Node000001_Node000003" class="edge">
<title>Node1&#45;&gt;Node3</title>
<g id="a_edge2_Node000001_Node000003"><a xlink:title=" ">
<path fill="none" stroke="#63b8ff" d="M133.39,-29.7C143.1,-28.29 153.15,-26.83 162.95,-25.41"/>
<polygon fill="#63b8ff" stroke="#63b8ff" points="163.41,-28.88 172.81,-23.98 162.41,-21.95 163.41,-28.88"/>
</a>
</g>
</g>
</g>
</svg>
