<?xml version="1.0" encoding="UTF-8" standalone="no"?>
<!DOCTYPE svg PUBLIC "-//W3C//DTD SVG 1.1//EN"
 "http://www.w3.org/Graphics/SVG/1.1/DTD/svg11.dtd">
<!-- Generated by graphviz version 12.2.1 (20241206.2353)
 -->
<!-- Title: Mediator Pages: 1 -->
<svg width="131pt" height="441pt"
 viewBox="0.00 0.00 131.00 440.50" xmlns="http://www.w3.org/2000/svg" xmlns:xlink="http://www.w3.org/1999/xlink">
<g id="graph0" class="graph" transform="scale(1 1) rotate(0) translate(4 436.5)">
<title>Mediator</title>
<!-- Node1 -->
<g id="Node000001" class="node">
<title>Node1</title>
<g id="a_Node000001"><a xlink:title="Médiateur pour la communication entre le réseau et la logique de jeu.">
<polygon fill="#999999" stroke="none" points="109.5,-110.75 13.5,-110.75 13.5,0 109.5,0 109.5,-110.75"/>
<text text-anchor="start" x="42.75" y="-97.25" font-family="Helvetica,sans-Serif" font-size="10.00">Mediator</text>
<text text-anchor="start" x="60" y="-82" font-family="Helvetica,sans-Serif" font-size="10.00"> </text>
<text text-anchor="start" x="17.5" y="-66.75" font-family="Helvetica,sans-Serif" font-size="10.00">+</text>
<text text-anchor="start" x="27.5" y="-66.75" font-family="Helvetica,sans-Serif" font-size="10.00">Mediator()</text>
<text text-anchor="start" x="17.5" y="-51.5" font-family="Helvetica,sans-Serif" font-size="10.00">+</text>
<text text-anchor="start" x="27.5" y="-51.5" font-family="Helvetica,sans-Serif" font-size="10.00">Mediator()</text>
<text text-anchor="start" x="17.5" y="-36.25" font-family="Helvetica,sans-Serif" font-size="10.00">+</text>
<text text-anchor="start" x="27.5" y="-36.25" font-family="Helvetica,sans-Serif" font-size="10.00">notify()</text>
<text text-anchor="start" x="17.5" y="-21" font-family="Helvetica,sans-Serif" font-size="10.00">+</text>
<text text-anchor="start" x="27.5" y="-21" font-family="Helvetica,sans-Serif" font-size="10.00">register_network()</text>
<text text-anchor="start" x="17.5" y="-5.75" font-family="Helvetica,sans-Serif" font-size="10.00">+</text>
<text text-anchor="start" x="27.5" y="-5.75" font-family="Helvetica,sans-Serif" font-size="10.00">register_game()</text>
<polygon fill="#666666" stroke="#666666" points="13.5,-93.5 13.5,-93.5 109.5,-93.5 109.5,-93.5 13.5,-93.5"/>
<polygon fill="#666666" stroke="#666666" points="13.5,-78.25 13.5,-78.25 109.5,-78.25 109.5,-78.25 13.5,-78.25"/>
<polygon fill="none" stroke="#666666" points="13.5,0 13.5,-110.75 109.5,-110.75 109.5,0 13.5,0"/>
</a>
</g>
</g>
<!-- Node2 -->
<g id="Node000002" class="node">
<title>Node2</title>
<g id="a_Node000002"><a xlink:href="class_i_sender.html" target="_top" xlink:title="Interface pour la gestion des communications réseau.">
<polygon fill="white" stroke="none" points="123,-432.5 0,-432.5 0,-169.25 123,-169.25 123,-432.5"/>
<text text-anchor="start" x="44.62" y="-419" font-family="Helvetica,sans-Serif" font-size="10.00">ISender</text>
<text text-anchor="start" x="60" y="-403.75" font-family="Helvetica,sans-Serif" font-size="10.00"> </text>
<text text-anchor="start" x="4" y="-388.5" font-family="Helvetica,sans-Serif" font-size="10.00">+</text>
<text text-anchor="start" x="14" y="-388.5" font-family="Helvetica,sans-Serif" font-size="10.00">handleConnect()</text>
<text text-anchor="start" x="4" y="-373.25" font-family="Helvetica,sans-Serif" font-size="10.00">+</text>
<text text-anchor="start" x="14" y="-373.25" font-family="Helvetica,sans-Serif" font-size="10.00">handleDisconnect()</text>
<text text-anchor="start" x="4" y="-358" font-family="Helvetica,sans-Serif" font-size="10.00">+</text>
<text text-anchor="start" x="14" y="-358" font-family="Helvetica,sans-Serif" font-size="10.00">handleMoves()</text>
<text text-anchor="start" x="4" y="-342.75" font-family="Helvetica,sans-Serif" font-size="10.00">+</text>
<text text-anchor="start" x="14" y="-342.75" font-family="Helvetica,sans-Serif" font-size="10.00">handleShoot()</text>
<text text-anchor="start" x="4" y="-327.5" font-family="Helvetica,sans-Serif" font-size="10.00">+</text>
<text text-anchor="start" x="14" y="-327.5" font-family="Helvetica,sans-Serif" font-size="10.00">handleMobSpawn()</text>
<text text-anchor="start" x="4" y="-312.25" font-family="Helvetica,sans-Serif" font-size="10.00">+</text>
<text text-anchor="start" x="14" y="-312.25" font-family="Helvetica,sans-Serif" font-size="10.00">handleConciliation()</text>
<text text-anchor="start" x="4" y="-297" font-family="Helvetica,sans-Serif" font-size="10.00">+</text>
<text text-anchor="start" x="14" y="-297" font-family="Helvetica,sans-Serif" font-size="10.00">handlePowerUpSpawn()</text>
<text text-anchor="start" x="4" y="-281.75" font-family="Helvetica,sans-Serif" font-size="10.00">+</text>
<text text-anchor="start" x="14" y="-281.75" font-family="Helvetica,sans-Serif" font-size="10.00">handleColision()</text>
<text text-anchor="start" x="4" y="-266.5" font-family="Helvetica,sans-Serif" font-size="10.00">+</text>
<text text-anchor="start" x="14" y="-266.5" font-family="Helvetica,sans-Serif" font-size="10.00">handleDeath()</text>
<text text-anchor="start" x="4" y="-251.25" font-family="Helvetica,sans-Serif" font-size="10.00">+</text>
<text text-anchor="start" x="14" y="-251.25" font-family="Helvetica,sans-Serif" font-size="10.00">handleMobShoot()</text>
<text text-anchor="start" x="4" y="-236" font-family="Helvetica,sans-Serif" font-size="10.00">+</text>
<text text-anchor="start" x="14" y="-236" font-family="Helvetica,sans-Serif" font-size="10.00">handleWin()</text>
<text text-anchor="start" x="4" y="-220.75" font-family="Helvetica,sans-Serif" font-size="10.00">+</text>
<text text-anchor="start" x="14" y="-220.75" font-family="Helvetica,sans-Serif" font-size="10.00">handleLoose()</text>
<text text-anchor="start" x="4" y="-205.5" font-family="Helvetica,sans-Serif" font-size="10.00">+</text>
<text text-anchor="start" x="14" y="-205.5" font-family="Helvetica,sans-Serif" font-size="10.00">handleStart()</text>
<text text-anchor="start" x="4" y="-190.25" font-family="Helvetica,sans-Serif" font-size="10.00">+</text>
<text text-anchor="start" x="14" y="-190.25" font-family="Helvetica,sans-Serif" font-size="10.00">handleScoreUpdate()</text>
<text text-anchor="start" x="4" y="-175" font-family="Helvetica,sans-Serif" font-size="10.00">+</text>
<text text-anchor="start" x="14" y="-175" font-family="Helvetica,sans-Serif" font-size="10.00">~ISender()</text>
<polygon fill="#666666" stroke="#666666" points="0,-415.25 0,-415.25 123,-415.25 123,-415.25 0,-415.25"/>
<polygon fill="#666666" stroke="#666666" points="0,-400 0,-400 123,-400 123,-400 0,-400"/>
<polygon fill="none" stroke="#666666" points="0,-169.25 0,-432.5 123,-432.5 123,-169.25 0,-169.25"/>
</a>
</g>
</g>
<!-- Node2&#45;&gt;Node1 -->
<g id="edge1_Node000001_Node000002" class="edge">
<title>Node2&#45;&gt;Node1</title>
<g id="a_edge1_Node000001_Node000002"><a xlink:title=" ">
<path fill="none" stroke="#63b8ff" d="M61.5,-169.57C61.5,-153.64 61.5,-137.91 61.5,-123.47"/>
<polygon fill="none" stroke="#63b8ff" points="61.5,-123.51 57.5,-117.51 61.5,-111.51 65.5,-117.51 61.5,-123.51"/>
</a>
</g>
<text text-anchor="middle" x="81.75" y="-141.75" font-family="Helvetica,sans-Serif" font-size="10.00" fill="grey"> +game</text>
<text text-anchor="middle" x="81.75" y="-130.5" font-family="Helvetica,sans-Serif" font-size="10.00" fill="grey">+network</text>
</g>
</g>
</svg>
