<?xml version="1.0" encoding="UTF-8" standalone="no"?>
<!DOCTYPE svg PUBLIC "-//W3C//DTD SVG 1.1//EN"
 "http://www.w3.org/Graphics/SVG/1.1/DTD/svg11.dtd">
<!-- Generated by graphviz version 12.2.1 (20241206.2353)
 -->
<!-- Title: Core::gui_lobby Pages: 1 -->
<svg width="1361pt" height="801pt"
 viewBox="0.00 0.00 1360.75 801.09" xmlns="http://www.w3.org/2000/svg" xmlns:xlink="http://www.w3.org/1999/xlink">
<g id="graph0" class="graph" transform="scale(1 1) rotate(0) translate(4 797.09)">
<title>Core::gui_lobby</title>
<!-- Node1 -->
<g id="Node000001" class="node">
<title>Node1</title>
<g id="a_Node000001"><a xlink:title=" ">
<polygon fill="#999999" stroke="#666666" points="84.25,-693.25 0,-693.25 0,-674 84.25,-674 84.25,-693.25"/>
<text text-anchor="middle" x="42.12" y="-679.75" font-family="Helvetica,sans-Serif" font-size="10.00">Core::gui_lobby</text>
</a>
</g>
</g>
<!-- Node2 -->
<g id="Node000002" class="node">
<title>Node2</title>
<g id="a_Node000002"><a xlink:href="class_core.html#ae4b485ff1d26a87dbfb1f94051e1f902" target="_top" xlink:title=" ">
<polygon fill="white" stroke="#666666" points="1029.38,-387.25 902.38,-387.25 902.38,-368 1029.38,-368 1029.38,-387.25"/>
<text text-anchor="middle" x="965.88" y="-373.75" font-family="Helvetica,sans-Serif" font-size="10.00">Core::displayRegistryInfo</text>
</a>
</g>
</g>
<!-- Node1&#45;&gt;Node2 -->
<g id="edge1_Node000001_Node000002" class="edge">
<title>Node1&#45;&gt;Node2</title>
<g id="a_edge1_Node000001_Node000002"><a xlink:title=" ">
<path fill="none" stroke="#63b8ff" d="M84.64,-679.87C149.57,-674.33 279.12,-664.62 389.25,-664.62 389.25,-664.62 389.25,-664.62 590.25,-664.62 766.81,-664.62 911.59,-461.24 952.97,-396.9"/>
<polygon fill="#63b8ff" stroke="#63b8ff" points="955.72,-399.11 958.1,-388.78 949.8,-395.37 955.72,-399.11"/>
</a>
</g>
</g>
<!-- Node3 -->
<g id="Node000003" class="node">
<title>Node3</title>
<g id="a_Node000003"><a xlink:href="class_core.html#aad563284176b829fa64177092388ef31" target="_top" xlink:title=" ">
<polygon fill="white" stroke="#666666" points="1352.75,-486.25 1246.75,-486.25 1246.75,-467 1352.75,-467 1352.75,-486.25"/>
<text text-anchor="middle" x="1299.75" y="-472.75" font-family="Helvetica,sans-Serif" font-size="10.00">Core::encode_action</text>
</a>
</g>
</g>
<!-- Node1&#45;&gt;Node3 -->
<g id="edge2_Node000001_Node000003" class="edge">
<title>Node1&#45;&gt;Node3</title>
<g id="a_edge2_Node000001_Node000003"><a xlink:title=" ">
<path fill="none" stroke="#63b8ff" d="M69.9,-693.73C84.57,-698.9 103.2,-704.89 120.25,-708.62 237.85,-734.42 268.85,-740.62 389.25,-740.62 389.25,-740.62 389.25,-740.62 966.88,-740.62 1123.84,-740.62 1249.54,-557.52 1287.18,-496.3"/>
<polygon fill="#63b8ff" stroke="#63b8ff" points="1290.05,-498.32 1292.22,-487.95 1284.06,-494.7 1290.05,-498.32"/>
</a>
</g>
</g>
<!-- Node4 -->
<g id="Node000004" class="node">
<title>Node4</title>
<g id="a_Node000004"><a xlink:href="class_core.html#aae2b137a9885ae1ac3d740786cfdcb34" target="_top" xlink:title=" ">
<polygon fill="white" stroke="#666666" points="270.5,-411.25 120.25,-411.25 120.25,-392 270.5,-392 270.5,-411.25"/>
<text text-anchor="middle" x="195.38" y="-397.75" font-family="Helvetica,sans-Serif" font-size="10.00">Core::handleServerCommands</text>
</a>
</g>
</g>
<!-- Node1&#45;&gt;Node4 -->
<g id="edge3_Node000001_Node000004" class="edge">
<title>Node1&#45;&gt;Node4</title>
<g id="a_edge3_Node000001_Node000004"><a xlink:title=" ">
<path fill="none" stroke="#63b8ff" d="M48.51,-673.59C70.51,-632.56 153.88,-477.12 183.7,-421.54"/>
<polygon fill="#63b8ff" stroke="#63b8ff" points="186.7,-423.34 188.34,-412.88 180.53,-420.03 186.7,-423.34"/>
</a>
</g>
</g>
<!-- Node26 -->
<g id="Node000026" class="node">
<title>Node26</title>
<g id="a_Node000026"><a xlink:href="class_core.html#a76ad333a648e0e20b1b12fb5a416774c" target="_top" xlink:title=" ">
<polygon fill="white" stroke="#666666" points="1189.75,-178.88 1089,-178.88 1089,-148.38 1189.75,-148.38 1189.75,-178.88"/>
<text text-anchor="start" x="1097" y="-165.38" font-family="Helvetica,sans-Serif" font-size="10.00">Core::send_input_if</text>
<text text-anchor="middle" x="1139.38" y="-154.12" font-family="Helvetica,sans-Serif" font-size="10.00">_needed</text>
</a>
</g>
</g>
<!-- Node1&#45;&gt;Node26 -->
<g id="edge62_Node000001_Node000026" class="edge">
<title>Node1&#45;&gt;Node26</title>
<g id="a_edge62_Node000001_Node000026"><a xlink:title=" ">
<path fill="none" stroke="#63b8ff" d="M84.64,-687.38C149.57,-692.92 279.12,-702.62 389.25,-702.62 389.25,-702.62 389.25,-702.62 785.12,-702.62 959.87,-702.62 959.99,-555.84 1032,-396.62 1070.84,-310.74 1006.82,-259.33 1068,-187.62 1071.11,-183.98 1074.8,-180.89 1078.83,-178.26"/>
<polygon fill="#63b8ff" stroke="#63b8ff" points="1080.26,-181.47 1087.42,-173.67 1076.96,-175.3 1080.26,-181.47"/>
</a>
</g>
</g>
<!-- Node42 -->
<g id="Node000042" class="node">
<title>Node42</title>
<g id="a_Node000042"><a xlink:href="class_core.html#add546b58affbab300bbc14b34b7f091e" target="_top" xlink:title=" ">
<polygon fill="white" stroke="#666666" points="830.75,-117.25 737.5,-117.25 737.5,-98 830.75,-98 830.75,-117.25"/>
<text text-anchor="middle" x="784.12" y="-103.75" font-family="Helvetica,sans-Serif" font-size="10.00">Core::update_hud</text>
</a>
</g>
</g>
<!-- Node1&#45;&gt;Node42 -->
<g id="edge63_Node000001_Node000042" class="edge">
<title>Node1&#45;&gt;Node42</title>
<g id="a_edge63_Node000001_Node000042"><a xlink:title=" ">
<path fill="none" stroke="#63b8ff" d="M43.76,-673.69C48.52,-608.42 85,-239.82 306.5,-121.62 445.18,-47.62 640.35,-75.7 731.92,-95.13"/>
<polygon fill="#63b8ff" stroke="#63b8ff" points="731.09,-98.54 741.6,-97.25 732.58,-91.7 731.09,-98.54"/>
</a>
</g>
</g>
<!-- Node44 -->
<g id="Node000044" class="node">
<title>Node44</title>
<g id="a_Node000044"><a xlink:href="class_core.html#af3c5d8f82146c2112fe37135b574120a" target="_top" xlink:title=" ">
<polygon fill="white" stroke="#666666" points="250.62,-788.25 140.12,-788.25 140.12,-769 250.62,-769 250.62,-788.25"/>
<text text-anchor="middle" x="195.38" y="-774.75" font-family="Helvetica,sans-Serif" font-size="10.00">Core::load_spaceship</text>
</a>
</g>
</g>
<!-- Node1&#45;&gt;Node44 -->
<g id="edge60_Node000001_Node000044" class="edge">
<title>Node1&#45;&gt;Node44</title>
<g id="a_edge60_Node000001_Node000044"><a xlink:title=" ">
<path fill="none" stroke="#63b8ff" d="M51.35,-693.55C64.44,-708.76 91.49,-737.83 120.25,-754.62 127,-758.57 134.48,-761.95 142.01,-764.83"/>
<polygon fill="#63b8ff" stroke="#63b8ff" points="140.61,-768.05 151.2,-768.06 142.93,-761.44 140.61,-768.05"/>
</a>
</g>
</g>
<!-- Node4&#45;&gt;Node3 -->
<g id="edge4_Node000004_Node000003" class="edge">
<title>Node4&#45;&gt;Node3</title>
<g id="a_edge4_Node000004_Node000003"><a xlink:title=" ">
<path fill="none" stroke="#63b8ff" d="M198.21,-411.66C205.11,-446.12 232.92,-560.09 306.5,-607.62 411.92,-675.73 462.74,-626.62 588.25,-626.62 588.25,-626.62 588.25,-626.62 966.88,-626.62 1094.62,-626.62 1227.43,-533.2 1277.75,-493.81"/>
<polygon fill="#63b8ff" stroke="#63b8ff" points="1279.86,-496.61 1285.51,-487.64 1275.5,-491.13 1279.86,-496.61"/>
</a>
</g>
</g>
<!-- Node5 -->
<g id="Node000005" class="node">
<title>Node5</title>
<g id="a_Node000005"><a xlink:href="class_core.html#a402d54bcd5820fda94013f08a54fe394" target="_top" xlink:title=" ">
<polygon fill="white" stroke="#666666" points="467.25,-337.25 313.25,-337.25 313.25,-318 467.25,-318 467.25,-337.25"/>
<text text-anchor="middle" x="390.25" y="-323.75" font-family="Helvetica,sans-Serif" font-size="10.00">Core::handleCollisionCommand</text>
</a>
</g>
</g>
<!-- Node4&#45;&gt;Node5 -->
<g id="edge5_Node000004_Node000005" class="edge">
<title>Node4&#45;&gt;Node5</title>
<g id="a_edge5_Node000004_Node000005"><a xlink:title=" ">
<path fill="none" stroke="#63b8ff" d="M212.57,-391.71C233.54,-379.28 271.55,-358.08 306.5,-345.62 311.73,-343.76 317.22,-342.05 322.78,-340.5"/>
<polygon fill="#63b8ff" stroke="#63b8ff" points="323.25,-344 332.04,-338.08 321.48,-337.22 323.25,-344"/>
</a>
</g>
</g>
<!-- Node10 -->
<g id="Node000010" class="node">
<title>Node10</title>
<g id="a_Node000010"><a xlink:href="class_core.html#a38f36a0900fda03c200f0b900d25af9f" target="_top" xlink:title=" ">
<polygon fill="white" stroke="#666666" points="466.88,-187.25 313.62,-187.25 313.62,-168 466.88,-168 466.88,-187.25"/>
<text text-anchor="middle" x="390.25" y="-173.75" font-family="Helvetica,sans-Serif" font-size="10.00">Core::handleConnectCommand</text>
</a>
</g>
</g>
<!-- Node4&#45;&gt;Node10 -->
<g id="edge11_Node000004_Node000010" class="edge">
<title>Node4&#45;&gt;Node10</title>
<g id="a_edge11_Node000004_Node000010"><a xlink:title=" ">
<path fill="none" stroke="#63b8ff" d="M198.59,-391.51C206.54,-357.76 236.93,-248.18 306.5,-195.62 307.82,-194.63 309.18,-193.68 310.58,-192.79"/>
<polygon fill="#63b8ff" stroke="#63b8ff" points="311.8,-196.11 318.97,-188.3 308.5,-189.93 311.8,-196.11"/>
</a>
</g>
</g>
<!-- Node11 -->
<g id="Node000011" class="node">
<title>Node11</title>
<g id="a_Node000011"><a xlink:href="class_core.html#a6336489bf72426dc2c618a61832238ce" target="_top" xlink:title=" ">
<polygon fill="white" stroke="#666666" points="461.62,-411.25 318.88,-411.25 318.88,-392 461.62,-392 461.62,-411.25"/>
<text text-anchor="middle" x="390.25" y="-397.75" font-family="Helvetica,sans-Serif" font-size="10.00">Core::handleDeathCommand</text>
</a>
</g>
</g>
<!-- Node4&#45;&gt;Node11 -->
<g id="edge12_Node000004_Node000011" class="edge">
<title>Node4&#45;&gt;Node11</title>
<g id="a_edge12_Node000004_Node000011"><a xlink:title=" ">
<path fill="none" stroke="#63b8ff" d="M270.95,-401.62C282.83,-401.62 295.19,-401.62 307.24,-401.62"/>
<polygon fill="#63b8ff" stroke="#63b8ff" points="307.16,-405.13 317.16,-401.63 307.16,-398.13 307.16,-405.13"/>
</a>
</g>
</g>
<!-- Node13 -->
<g id="Node000013" class="node">
<title>Node13</title>
<g id="a_Node000013"><a xlink:href="class_core.html#a7c67115737d781142c2e45bee998daac" target="_top" xlink:title=" ">
<polygon fill="white" stroke="#666666" points="473.25,-448.25 307.25,-448.25 307.25,-429 473.25,-429 473.25,-448.25"/>
<text text-anchor="middle" x="390.25" y="-434.75" font-family="Helvetica,sans-Serif" font-size="10.00">Core::handleDisconnectCommand</text>
</a>
</g>
</g>
<!-- Node4&#45;&gt;Node13 -->
<g id="edge15_Node000004_Node000013" class="edge">
<title>Node4&#45;&gt;Node13</title>
<g id="a_edge15_Node000004_Node000013"><a xlink:title=" ">
<path fill="none" stroke="#63b8ff" d="M249.08,-411.74C272.68,-416.26 300.71,-421.64 325.49,-426.39"/>
<polygon fill="#63b8ff" stroke="#63b8ff" points="324.64,-429.79 335.12,-428.24 325.96,-422.92 324.64,-429.79"/>
</a>
</g>
</g>
<!-- Node14 -->
<g id="Node000014" class="node">
<title>Node14</title>
<g id="a_Node000014"><a xlink:href="class_core.html#a5db2bb533195df4af29c23d833e5a061" target="_top" xlink:title=" ">
<polygon fill="white" stroke="#666666" points="470.62,-150.25 309.88,-150.25 309.88,-131 470.62,-131 470.62,-150.25"/>
<text text-anchor="middle" x="390.25" y="-136.75" font-family="Helvetica,sans-Serif" font-size="10.00">Core::handleMobShootCommand</text>
</a>
</g>
</g>
<!-- Node4&#45;&gt;Node14 -->
<g id="edge17_Node000004_Node000014" class="edge">
<title>Node4&#45;&gt;Node14</title>
<g id="a_edge17_Node000004_Node000014"><a xlink:title=" ">
<path fill="none" stroke="#63b8ff" d="M197.7,-391.61C203.22,-354.29 227.79,-222.24 306.5,-158.62 307.47,-157.84 308.47,-157.09 309.49,-156.36"/>
<polygon fill="#63b8ff" stroke="#63b8ff" points="311.08,-159.49 317.95,-151.43 307.55,-153.44 311.08,-159.49"/>
</a>
</g>
</g>
<!-- Node15 -->
<g id="Node000015" class="node">
<title>Node15</title>
<g id="a_Node000015"><a xlink:href="class_core.html#a886c451a25e2e20ec3b5917250601f3d" target="_top" xlink:title=" ">
<polygon fill="white" stroke="#666666" points="472.88,-598.25 307.62,-598.25 307.62,-579 472.88,-579 472.88,-598.25"/>
<text text-anchor="middle" x="390.25" y="-584.75" font-family="Helvetica,sans-Serif" font-size="10.00">Core::handleMobSpawnCommand</text>
</a>
</g>
</g>
<!-- Node4&#45;&gt;Node15 -->
<g id="edge18_Node000004_Node000015" class="edge">
<title>Node4&#45;&gt;Node15</title>
<g id="a_edge18_Node000004_Node000015"><a xlink:title=" ">
<path fill="none" stroke="#63b8ff" d="M199.75,-411.57C210.3,-441.07 245.67,-528.68 306.5,-570.62 308.08,-571.72 309.72,-572.74 311.4,-573.71"/>
<polygon fill="#63b8ff" stroke="#63b8ff" points="309.55,-576.7 320.07,-577.93 312.62,-570.41 309.55,-576.7"/>
</a>
</g>
</g>
<!-- Node16 -->
<g id="Node000016" class="node">
<title>Node16</title>
<g id="a_Node000016"><a xlink:href="class_core.html#a18c325c19760f36a20ba7372ab9c69cd" target="_top" xlink:title=" ">
<polygon fill="white" stroke="#666666" points="460.5,-561.25 320,-561.25 320,-542 460.5,-542 460.5,-561.25"/>
<text text-anchor="middle" x="390.25" y="-547.75" font-family="Helvetica,sans-Serif" font-size="10.00">Core::handleMoveCommand</text>
</a>
</g>
</g>
<!-- Node4&#45;&gt;Node16 -->
<g id="edge19_Node000004_Node000016" class="edge">
<title>Node4&#45;&gt;Node16</title>
<g id="a_edge19_Node000004_Node000016"><a xlink:title=" ">
<path fill="none" stroke="#63b8ff" d="M201.52,-411.48C215.03,-436.35 254.18,-501.92 306.5,-533.62 308.65,-534.93 310.87,-536.13 313.16,-537.25"/>
<polygon fill="#63b8ff" stroke="#63b8ff" points="311.55,-540.37 322.13,-541.04 314.28,-533.92 311.55,-540.37"/>
</a>
</g>
</g>
<!-- Node17 -->
<g id="Node000017" class="node">
<title>Node17</title>
<g id="a_Node000017"><a xlink:href="class_core.html#a54f1d074e15b44725e628aa9367ef985" target="_top" xlink:title=" ">
<polygon fill="white" stroke="#666666" points="474,-524.25 306.5,-524.25 306.5,-505 474,-505 474,-524.25"/>
<text text-anchor="middle" x="390.25" y="-510.75" font-family="Helvetica,sans-Serif" font-size="10.00">Core::handleMovementCommands</text>
</a>
</g>
</g>
<!-- Node4&#45;&gt;Node17 -->
<g id="edge20_Node000004_Node000017" class="edge">
<title>Node4&#45;&gt;Node17</title>
<g id="a_edge20_Node000004_Node000017"><a xlink:title=" ">
<path fill="none" stroke="#63b8ff" d="M206.02,-411.72C224.06,-430.05 264.88,-468.9 306.5,-490.62 314.33,-494.71 322.96,-498.19 331.59,-501.12"/>
<polygon fill="#63b8ff" stroke="#63b8ff" points="330.43,-504.43 341.02,-504.1 332.54,-497.75 330.43,-504.43"/>
</a>
</g>
</g>
<!-- Node18 -->
<g id="Node000018" class="node">
<title>Node18</title>
<g id="a_Node000018"><a xlink:href="class_core.html#ab225cc2ef8539bcf400e02e46d16f7a1" target="_top" xlink:title=" ">
<polygon fill="white" stroke="#666666" points="468.75,-374.25 311.75,-374.25 311.75,-355 468.75,-355 468.75,-374.25"/>
<text text-anchor="middle" x="390.25" y="-360.75" font-family="Helvetica,sans-Serif" font-size="10.00">Core::handlePowerUpCommand</text>
</a>
</g>
</g>
<!-- Node4&#45;&gt;Node18 -->
<g id="edge21_Node000004_Node000018" class="edge">
<title>Node4&#45;&gt;Node18</title>
<g id="a_edge21_Node000004_Node000018"><a xlink:title=" ">
<path fill="none" stroke="#63b8ff" d="M249.08,-391.51C272.68,-386.99 300.71,-381.61 325.49,-376.86"/>
<polygon fill="#63b8ff" stroke="#63b8ff" points="325.96,-380.33 335.12,-375.01 324.64,-373.46 325.96,-380.33"/>
</a>
</g>
</g>
<!-- Node19 -->
<g id="Node000019" class="node">
<title>Node19</title>
<g id="a_Node000019"><a xlink:href="class_core.html#aa792853f5ed5d5c6248e20fad821f6ca" target="_top" xlink:title=" ">
<polygon fill="white" stroke="#666666" points="463.88,-224.25 316.62,-224.25 316.62,-205 463.88,-205 463.88,-224.25"/>
<text text-anchor="middle" x="390.25" y="-210.75" font-family="Helvetica,sans-Serif" font-size="10.00">Core::handleShootCommands</text>
</a>
</g>
</g>
<!-- Node4&#45;&gt;Node19 -->
<g id="edge22_Node000004_Node000019" class="edge">
<title>Node4&#45;&gt;Node19</title>
<g id="a_edge22_Node000004_Node000019"><a xlink:title=" ">
<path fill="none" stroke="#63b8ff" d="M199.75,-391.68C210.3,-362.18 245.67,-274.57 306.5,-232.62 308.08,-231.53 309.72,-230.51 311.4,-229.54"/>
<polygon fill="#63b8ff" stroke="#63b8ff" points="312.62,-232.84 320.07,-225.32 309.55,-226.55 312.62,-232.84"/>
</a>
</g>
</g>
<!-- Node20 -->
<g id="Node000020" class="node">
<title>Node20</title>
<g id="a_Node000020"><a xlink:href="class_core.html#a3b2840725a18b5e49614dd429f449289" target="_top" xlink:title=" ">
<polygon fill="white" stroke="#666666" points="459,-261.25 321.5,-261.25 321.5,-242 459,-242 459,-261.25"/>
<text text-anchor="middle" x="390.25" y="-247.75" font-family="Helvetica,sans-Serif" font-size="10.00">Core::handleStartCommand</text>
</a>
</g>
</g>
<!-- Node4&#45;&gt;Node20 -->
<g id="edge23_Node000004_Node000020" class="edge">
<title>Node4&#45;&gt;Node20</title>
<g id="a_edge23_Node000004_Node000020"><a xlink:title=" ">
<path fill="none" stroke="#63b8ff" d="M202.19,-391.74C216.66,-367.98 256.77,-307.32 306.5,-275.62 312.77,-271.63 319.73,-268.28 326.87,-265.48"/>
<polygon fill="#63b8ff" stroke="#63b8ff" points="327.71,-268.89 335.97,-262.25 325.38,-262.29 327.71,-268.89"/>
</a>
</g>
</g>
<!-- Node43 -->
<g id="Node000043" class="node">
<title>Node43</title>
<g id="a_Node000043"><a xlink:href="class_core.html#a99550195181899dc74f311dec7d3df4e" target="_top" xlink:title=" ">
<polygon fill="white" stroke="#666666" points="656.12,-486.25 522.38,-486.25 522.38,-467 656.12,-467 656.12,-486.25"/>
<text text-anchor="middle" x="589.25" y="-472.75" font-family="Helvetica,sans-Serif" font-size="10.00">Core::handleWinCommand</text>
</a>
</g>
</g>
<!-- Node4&#45;&gt;Node43 -->
<g id="edge58_Node000004_Node000043" class="edge">
<title>Node4&#45;&gt;Node43</title>
<g id="a_edge58_Node000004_Node000043"><a xlink:title=" ">
<path fill="none" stroke="#63b8ff" d="M211.25,-411.68C231.7,-424.89 270.11,-447.6 306.5,-457.62 373.85,-476.18 453.52,-479.97 510.93,-479.68"/>
<polygon fill="#63b8ff" stroke="#63b8ff" points="510.62,-483.18 520.59,-479.58 510.55,-476.18 510.62,-483.18"/>
</a>
</g>
</g>
<!-- Node6 -->
<g id="Node000006" class="node">
<title>Node6</title>
<g id="a_Node000006"><a xlink:href="class_core.html#a18d897088678ca2d82d41413bd62c824" target="_top" xlink:title=" ">
<polygon fill="white" stroke="#666666" points="653.12,-300.25 525.38,-300.25 525.38,-281 653.12,-281 653.12,-300.25"/>
<text text-anchor="middle" x="589.25" y="-286.75" font-family="Helvetica,sans-Serif" font-size="10.00">Core::handleMobCollision</text>
</a>
</g>
</g>
<!-- Node5&#45;&gt;Node6 -->
<g id="edge6_Node000005_Node000006" class="edge">
<title>Node5&#45;&gt;Node6</title>
<g id="a_edge6_Node000005_Node000006"><a xlink:title=" ">
<path fill="none" stroke="#63b8ff" d="M445.08,-317.51C469.29,-312.97 498.08,-307.56 523.46,-302.79"/>
<polygon fill="#63b8ff" stroke="#63b8ff" points="523.81,-306.29 533,-301 522.52,-299.41 523.81,-306.29"/>
</a>
</g>
</g>
<!-- Node7 -->
<g id="Node000007" class="node">
<title>Node7</title>
<g id="a_Node000007"><a xlink:href="class_core.html#a517f4f0a345db4205dd553669bd72852" target="_top" xlink:title=" ">
<polygon fill="white" stroke="#666666" points="668.5,-374.25 510,-374.25 510,-355 668.5,-355 668.5,-374.25"/>
<text text-anchor="middle" x="589.25" y="-360.75" font-family="Helvetica,sans-Serif" font-size="10.00">Core::handleMobMissileCollision</text>
</a>
</g>
</g>
<!-- Node5&#45;&gt;Node7 -->
<g id="edge7_Node000005_Node000007" class="edge">
<title>Node5&#45;&gt;Node7</title>
<g id="a_edge7_Node000005_Node000007"><a xlink:title=" ">
<path fill="none" stroke="#63b8ff" d="M445.08,-337.74C469.29,-342.28 498.08,-347.69 523.46,-352.46"/>
<polygon fill="#63b8ff" stroke="#63b8ff" points="522.52,-355.84 533,-354.25 523.81,-348.96 522.52,-355.84"/>
</a>
</g>
</g>
<!-- Node8 -->
<g id="Node000008" class="node">
<title>Node8</title>
<g id="a_Node000008"><a xlink:href="class_core.html#a22e0fed60eb09cc09408650d66c38617" target="_top" xlink:title=" ">
<polygon fill="white" stroke="#666666" points="664,-337.25 514.5,-337.25 514.5,-318 664,-318 664,-337.25"/>
<text text-anchor="middle" x="589.25" y="-323.75" font-family="Helvetica,sans-Serif" font-size="10.00">Core::handlePowerUpCollision</text>
</a>
</g>
</g>
<!-- Node5&#45;&gt;Node8 -->
<g id="edge8_Node000005_Node000008" class="edge">
<title>Node5&#45;&gt;Node8</title>
<g id="a_edge8_Node000005_Node000008"><a xlink:title=" ">
<path fill="none" stroke="#63b8ff" d="M467.7,-327.62C479.13,-327.62 490.99,-327.62 502.6,-327.62"/>
<polygon fill="#63b8ff" stroke="#63b8ff" points="502.6,-331.13 512.6,-327.63 502.6,-324.13 502.6,-331.13"/>
</a>
</g>
</g>
<!-- Node9 -->
<g id="Node000009" class="node">
<title>Node9</title>
<g id="a_Node000009"><a xlink:href="class_core.html#a398cf70a8dafff61d11f9d0928ed6111" target="_top" xlink:title=" ">
<polygon fill="white" stroke="#666666" points="653.5,-411.25 525,-411.25 525,-392 653.5,-392 653.5,-411.25"/>
<text text-anchor="middle" x="589.25" y="-397.75" font-family="Helvetica,sans-Serif" font-size="10.00">Core::updatePlayerHealth</text>
</a>
</g>
</g>
<!-- Node5&#45;&gt;Node9 -->
<g id="edge9_Node000005_Node000009" class="edge">
<title>Node5&#45;&gt;Node9</title>
<g id="a_edge9_Node000005_Node000009"><a xlink:title=" ">
<path fill="none" stroke="#63b8ff" d="M455.91,-337.68C462.22,-339.83 468.36,-342.45 474,-345.62 494.27,-357.05 489.8,-372.08 510,-383.62 512.35,-384.97 514.79,-386.21 517.3,-387.36"/>
<polygon fill="#63b8ff" stroke="#63b8ff" points="515.92,-390.58 526.5,-391.02 518.51,-384.07 515.92,-390.58"/>
</a>
</g>
</g>
<!-- Node9&#45;&gt;Node3 -->
<g id="edge10_Node000009_Node000003" class="edge">
<title>Node9&#45;&gt;Node3</title>
<g id="a_edge10_Node000009_Node000003"><a xlink:title=" ">
<path fill="none" stroke="#63b8ff" d="M653.7,-410.81C659.01,-413.15 664.05,-416.04 668.5,-419.62 697.63,-443.05 672.92,-475.64 704.5,-495.62 885.7,-610.29 1164.14,-526.34 1262.68,-490.62"/>
<polygon fill="#63b8ff" stroke="#63b8ff" points="1263.66,-493.99 1271.84,-487.24 1261.24,-487.42 1263.66,-493.99"/>
</a>
</g>
</g>
<!-- Node11&#45;&gt;Node9 -->
<g id="edge13_Node000011_Node000009" class="edge">
<title>Node11&#45;&gt;Node9</title>
<g id="a_edge13_Node000011_Node000009"><a xlink:title=" ">
<path fill="none" stroke="#63b8ff" d="M462.09,-401.62C478.67,-401.62 496.39,-401.62 513.15,-401.62"/>
<polygon fill="#63b8ff" stroke="#63b8ff" points="513.06,-405.13 523.06,-401.63 513.06,-398.13 513.06,-405.13"/>
</a>
</g>
</g>
<!-- Node12 -->
<g id="Node000012" class="node">
<title>Node12</title>
<g id="a_Node000012"><a xlink:href="class_core.html#ad9e2c3752fe957de05a7aa7a6675d502" target="_top" xlink:title=" ">
<polygon fill="white" stroke="#666666" points="643.38,-448.25 535.12,-448.25 535.12,-429 643.38,-429 643.38,-448.25"/>
<text text-anchor="middle" x="589.25" y="-434.75" font-family="Helvetica,sans-Serif" font-size="10.00">Core::updatePlayerId</text>
</a>
</g>
</g>
<!-- Node11&#45;&gt;Node12 -->
<g id="edge14_Node000011_Node000012" class="edge">
<title>Node11&#45;&gt;Node12</title>
<g id="a_edge14_Node000011_Node000012"><a xlink:title=" ">
<path fill="none" stroke="#63b8ff" d="M445.08,-411.74C469.39,-416.3 498.31,-421.73 523.78,-426.52"/>
<polygon fill="#63b8ff" stroke="#63b8ff" points="522.86,-429.91 533.34,-428.31 524.16,-423.03 522.86,-429.91"/>
</a>
</g>
</g>
<!-- Node13&#45;&gt;Node12 -->
<g id="edge16_Node000013_Node000012" class="edge">
<title>Node13&#45;&gt;Node12</title>
<g id="a_edge16_Node000013_Node000012"><a xlink:title=" ">
<path fill="none" stroke="#63b8ff" d="M473.65,-438.62C490.28,-438.62 507.54,-438.62 523.46,-438.62"/>
<polygon fill="#63b8ff" stroke="#63b8ff" points="523.28,-442.13 533.28,-438.63 523.28,-435.13 523.28,-442.13"/>
</a>
</g>
</g>
<!-- Node21 -->
<g id="Node000021" class="node">
<title>Node21</title>
<g id="a_Node000021"><a xlink:href="class_core.html#a42623cce6be1bf30af3a1bca1ed73ed6" target="_top" xlink:title=" ">
<polygon fill="white" stroke="#666666" points="631.75,-263.25 546.75,-263.25 546.75,-244 631.75,-244 631.75,-263.25"/>
<text text-anchor="middle" x="589.25" y="-249.75" font-family="Helvetica,sans-Serif" font-size="10.00">Core::gui_game</text>
</a>
</g>
</g>
<!-- Node20&#45;&gt;Node21 -->
<g id="edge24_Node000020_Node000021" class="edge">
<title>Node20&#45;&gt;Node21</title>
<g id="a_edge24_Node000020_Node000021"><a xlink:title=" ">
<path fill="none" stroke="#63b8ff" d="M459.32,-252.32C484.06,-252.57 511.63,-252.85 534.91,-253.08"/>
<polygon fill="#63b8ff" stroke="#63b8ff" points="534.76,-256.58 544.8,-253.18 534.83,-249.58 534.76,-256.58"/>
</a>
</g>
</g>
<!-- Node21&#45;&gt;Node3 -->
<g id="edge46_Node000021_Node000003" class="edge">
<title>Node21&#45;&gt;Node3</title>
<g id="a_edge46_Node000021_Node000003"><a xlink:title=" ">
<path fill="none" stroke="#63b8ff" d="M631.78,-251.82C686.05,-250.52 783.59,-251.82 863.75,-272.62 1029.29,-315.59 1208.7,-420.59 1273.57,-460.69"/>
<polygon fill="#63b8ff" stroke="#63b8ff" points="1271.36,-463.44 1281.7,-465.75 1275.06,-457.5 1271.36,-463.44"/>
</a>
</g>
</g>
<!-- Node21&#45;&gt;Node4 -->
<g id="edge49_Node000021_Node000004" class="edge">
<title>Node21&#45;&gt;Node4</title>
<g id="a_edge49_Node000021_Node000004"><a xlink:title=" ">
<path fill="none" stroke="#63b8ff" d="M546.27,-260.62C473.09,-272.99 327.87,-298.38 306.5,-308.62 268.2,-326.99 232.27,-361.89 212.41,-383.32"/>
<polygon fill="#63b8ff" stroke="#63b8ff" points="210.05,-380.71 205.94,-390.47 215.24,-385.41 210.05,-380.71"/>
</a>
</g>
</g>
<!-- Node22 -->
<g id="Node000022" class="node">
<title>Node22</title>
<g id="a_Node000022"><a xlink:href="class_core.html#a554a2d7af7f9aefe0a66e89773e681b2" target="_top" xlink:title=" ">
<polygon fill="white" stroke="#666666" points="843.12,-449.25 725.12,-449.25 725.12,-430 843.12,-430 843.12,-449.25"/>
<text text-anchor="middle" x="784.12" y="-435.75" font-family="Helvetica,sans-Serif" font-size="10.00">Core::checkInvincibility</text>
</a>
</g>
</g>
<!-- Node21&#45;&gt;Node22 -->
<g id="edge25_Node000021_Node000022" class="edge">
<title>Node21&#45;&gt;Node22</title>
<g id="a_edge25_Node000021_Node000022"><a xlink:title=" ">
<path fill="none" stroke="#63b8ff" d="M632.19,-254.82C645.33,-257.22 658.89,-262.11 668.5,-271.62 717.21,-319.87 655.77,-373.4 704.5,-421.62 707.51,-424.61 710.92,-427.14 714.57,-429.28"/>
<polygon fill="#63b8ff" stroke="#63b8ff" points="712.84,-432.33 723.37,-433.44 715.83,-426 712.84,-432.33"/>
</a>
</g>
</g>
<!-- Node23 -->
<g id="Node000023" class="node">
<title>Node23</title>
<g id="a_Node000023"><a xlink:href="class_core.html#a9493dc851e77126a1bc9c005ec499159" target="_top" xlink:title=" ">
<polygon fill="white" stroke="#666666" points="839,-159.25 729.25,-159.25 729.25,-140 839,-140 839,-159.25"/>
<text text-anchor="middle" x="784.12" y="-145.75" font-family="Helvetica,sans-Serif" font-size="10.00">Core::control_system</text>
</a>
</g>
</g>
<!-- Node21&#45;&gt;Node23 -->
<g id="edge26_Node000021_Node000023" class="edge">
<title>Node21&#45;&gt;Node23</title>
<g id="a_edge26_Node000021_Node000023"><a xlink:title=" ">
<path fill="none" stroke="#63b8ff" d="M600.64,-243.56C619.64,-225.73 661.97,-188.56 704.5,-168.62 708.79,-166.61 713.32,-164.8 717.94,-163.17"/>
<polygon fill="#63b8ff" stroke="#63b8ff" points="718.94,-166.53 727.41,-160.15 716.82,-159.86 718.94,-166.53"/>
</a>
</g>
</g>
<!-- Node34 -->
<g id="Node000034" class="node">
<title>Node34</title>
<g id="a_Node000034"><a xlink:href="class_core.html#aa6b37e20d4a33fc29c07a9cd61f8a993" target="_top" xlink:title=" ">
<polygon fill="white" stroke="#666666" points="828.5,-301.25 739.75,-301.25 739.75,-282 828.5,-282 828.5,-301.25"/>
<text text-anchor="middle" x="784.12" y="-287.75" font-family="Helvetica,sans-Serif" font-size="10.00">Core::display_all</text>
</a>
</g>
</g>
<!-- Node21&#45;&gt;Node34 -->
<g id="edge44_Node000021_Node000034" class="edge">
<title>Node21&#45;&gt;Node34</title>
<g id="a_edge44_Node000021_Node000034"><a xlink:title=" ">
<path fill="none" stroke="#63b8ff" d="M632.1,-261.87C660.32,-267.43 697.84,-274.82 728.42,-280.85"/>
<polygon fill="#63b8ff" stroke="#63b8ff" points="727.37,-284.21 737.86,-282.71 728.73,-277.34 727.37,-284.21"/>
</a>
</g>
</g>
<!-- Node35 -->
<g id="Node000035" class="node">
<title>Node35</title>
<g id="a_Node000035"><a xlink:href="class_core.html#a39ca9509fdb72319509d1ec5a35e648b" target="_top" xlink:title=" ">
<polygon fill="white" stroke="#666666" points="834.12,-486.25 734.12,-486.25 734.12,-467 834.12,-467 834.12,-486.25"/>
<text text-anchor="middle" x="784.12" y="-472.75" font-family="Helvetica,sans-Serif" font-size="10.00">Core::gui_gamewin</text>
</a>
</g>
</g>
<!-- Node21&#45;&gt;Node35 -->
<g id="edge47_Node000021_Node000035" class="edge">
<title>Node21&#45;&gt;Node35</title>
<g id="a_edge47_Node000021_Node000035"><a xlink:title=" ">
<path fill="none" stroke="#63b8ff" d="M632.04,-254.5C645.32,-256.85 659.02,-261.79 668.5,-271.62 727.26,-332.54 645.7,-397.74 704.5,-458.62 709.73,-464.04 716.23,-467.97 723.23,-470.81"/>
<polygon fill="#63b8ff" stroke="#63b8ff" points="721.74,-474.01 732.33,-473.76 723.9,-467.35 721.74,-474.01"/>
</a>
</g>
</g>
<!-- Node36 -->
<g id="Node000036" class="node">
<title>Node36</title>
<g id="a_Node000036"><a xlink:href="class_core.html#a7598cae8d7f080449adeb642bec57f82" target="_top" xlink:title=" ">
<polygon fill="white" stroke="#666666" points="843.12,-412.25 725.12,-412.25 725.12,-393 843.12,-393 843.12,-412.25"/>
<text text-anchor="middle" x="784.12" y="-398.75" font-family="Helvetica,sans-Serif" font-size="10.00">Core::loadAssetsGame</text>
</a>
</g>
</g>
<!-- Node21&#45;&gt;Node36 -->
<g id="edge50_Node000021_Node000036" class="edge">
<title>Node21&#45;&gt;Node36</title>
<g id="a_edge50_Node000021_Node000036"><a xlink:title=" ">
<path fill="none" stroke="#63b8ff" d="M632.21,-255.31C645.19,-257.76 658.66,-262.56 668.5,-271.62 707.27,-307.33 665.71,-348.94 704.5,-384.62 707.48,-387.36 710.78,-389.71 714.3,-391.72"/>
<polygon fill="#63b8ff" stroke="#63b8ff" points="712.79,-394.88 723.34,-395.92 715.74,-388.53 712.79,-394.88"/>
</a>
</g>
</g>
<!-- Node37 -->
<g id="Node000037" class="node">
<title>Node37</title>
<g id="a_Node000037"><a xlink:href="class_core.html#a60c2e3c959b9936a76fc4ece0c15c824" target="_top" xlink:title=" ">
<polygon fill="white" stroke="#666666" points="863.75,-375.25 704.5,-375.25 704.5,-356 863.75,-356 863.75,-375.25"/>
<text text-anchor="middle" x="784.12" y="-361.75" font-family="Helvetica,sans-Serif" font-size="10.00">Core::loadBlackAndWhiteShader</text>
</a>
</g>
</g>
<!-- Node21&#45;&gt;Node37 -->
<g id="edge51_Node000021_Node000037" class="edge">
<title>Node21&#45;&gt;Node37</title>
<g id="a_edge51_Node000021_Node000037"><a xlink:title=" ">
<path fill="none" stroke="#63b8ff" d="M631.92,-256.18C644.74,-258.71 658.18,-263.33 668.5,-271.62 697.63,-295.05 675.36,-324.22 704.5,-347.62 705.48,-348.41 706.49,-349.17 707.53,-349.89"/>
<polygon fill="#63b8ff" stroke="#63b8ff" points="705.71,-352.89 716.12,-354.83 709.2,-346.82 705.71,-352.89"/>
</a>
</g>
</g>
<!-- Node38 -->
<g id="Node000038" class="node">
<title>Node38</title>
<g id="a_Node000038"><a xlink:href="class_core.html#a87bcabef342dd958994c72d7a6f90893" target="_top" xlink:title=" ">
<polygon fill="white" stroke="#666666" points="852.12,-338.25 716.12,-338.25 716.12,-319 852.12,-319 852.12,-338.25"/>
<text text-anchor="middle" x="784.12" y="-324.75" font-family="Helvetica,sans-Serif" font-size="10.00">Core::loadDaltonismShader</text>
</a>
</g>
</g>
<!-- Node21&#45;&gt;Node38 -->
<g id="edge52_Node000021_Node000038" class="edge">
<title>Node21&#45;&gt;Node38</title>
<g id="a_edge52_Node000021_Node000038"><a xlink:title=" ">
<path fill="none" stroke="#63b8ff" d="M632.19,-258.48C644.47,-261.14 657.53,-265.26 668.5,-271.62 688.9,-283.46 684.09,-298.8 704.5,-310.62 706.8,-311.96 709.19,-313.19 711.65,-314.34"/>
<polygon fill="#63b8ff" stroke="#63b8ff" points="710.06,-317.47 720.64,-317.97 712.68,-310.98 710.06,-317.47"/>
</a>
</g>
</g>
<!-- Node39 -->
<g id="Node000039" class="node">
<title>Node39</title>
<g id="a_Node000039"><a xlink:href="class_core.html#a29ffabe78710e79a74cdcb1bebe48c72" target="_top" xlink:title=" ">
<polygon fill="white" stroke="#666666" points="837.12,-207.88 731.12,-207.88 731.12,-177.38 837.12,-177.38 837.12,-207.88"/>
<text text-anchor="start" x="739.12" y="-194.38" font-family="Helvetica,sans-Serif" font-size="10.00">Core::setup_position</text>
<text text-anchor="middle" x="784.12" y="-183.12" font-family="Helvetica,sans-Serif" font-size="10.00">_timer</text>
</a>
</g>
</g>
<!-- Node21&#45;&gt;Node39 -->
<g id="edge53_Node000021_Node000039" class="edge">
<title>Node21&#45;&gt;Node39</title>
<g id="a_edge53_Node000021_Node000039"><a xlink:title=" ">
<path fill="none" stroke="#63b8ff" d="M622.1,-243.55C649.42,-234.91 689.55,-222.22 722.91,-211.67"/>
<polygon fill="#63b8ff" stroke="#63b8ff" points="723.55,-215.14 732.03,-208.78 721.44,-208.46 723.55,-215.14"/>
</a>
</g>
</g>
<!-- Node21&#45;&gt;Node42 -->
<g id="edge57_Node000021_Node000042" class="edge">
<title>Node21&#45;&gt;Node42</title>
<g id="a_edge57_Node000021_Node000042"><a xlink:title=" ">
<path fill="none" stroke="#63b8ff" d="M596.67,-243.65C612.24,-220.26 654.42,-161.57 704.5,-130.62 711.24,-126.46 718.78,-123.02 726.44,-120.18"/>
<polygon fill="#63b8ff" stroke="#63b8ff" points="727.47,-123.53 735.85,-117.04 725.25,-116.89 727.47,-123.53"/>
</a>
</g>
</g>
<!-- Node24 -->
<g id="Node000024" class="node">
<title>Node24</title>
<g id="a_Node000024"><a xlink:href="class_core.html#a63200a1cc9505da6942f9bd7642df237" target="_top" xlink:title=" ">
<polygon fill="white" stroke="#666666" points="1025.25,-207.88 906.5,-207.88 906.5,-177.38 1025.25,-177.38 1025.25,-207.88"/>
<text text-anchor="start" x="914.5" y="-194.38" font-family="Helvetica,sans-Serif" font-size="10.00">Core::handle_horizontal</text>
<text text-anchor="middle" x="965.88" y="-183.12" font-family="Helvetica,sans-Serif" font-size="10.00">_movement</text>
</a>
</g>
</g>
<!-- Node23&#45;&gt;Node24 -->
<g id="edge27_Node000023_Node000024" class="edge">
<title>Node23&#45;&gt;Node24</title>
<g id="a_edge27_Node000023_Node000024"><a xlink:title=" ">
<path fill="none" stroke="#63b8ff" d="M827.27,-159.71C847.51,-164.55 872.3,-170.48 895.24,-175.97"/>
<polygon fill="#63b8ff" stroke="#63b8ff" points="894.31,-179.34 904.85,-178.27 895.94,-172.54 894.31,-179.34"/>
</a>
</g>
</g>
<!-- Node27 -->
<g id="Node000027" class="node">
<title>Node27</title>
<g id="a_Node000027"><a xlink:href="class_core.html#ac8463d54a65aacc36654e1dcd96166b9" target="_top" xlink:title=" ">
<polygon fill="white" stroke="#666666" points="1016.25,-159.25 915.5,-159.25 915.5,-140 1016.25,-140 1016.25,-159.25"/>
<text text-anchor="middle" x="965.88" y="-145.75" font-family="Helvetica,sans-Serif" font-size="10.00">Core::handle_shoot</text>
</a>
</g>
</g>
<!-- Node23&#45;&gt;Node27 -->
<g id="edge32_Node000023_Node000027" class="edge">
<title>Node23&#45;&gt;Node27</title>
<g id="a_edge32_Node000023_Node000027"><a xlink:title=" ">
<path fill="none" stroke="#63b8ff" d="M839.06,-149.62C859.47,-149.62 882.85,-149.62 903.88,-149.62"/>
<polygon fill="#63b8ff" stroke="#63b8ff" points="903.76,-153.13 913.76,-149.63 903.76,-146.13 903.76,-153.13"/>
</a>
</g>
</g>
<!-- Node28 -->
<g id="Node000028" class="node">
<title>Node28</title>
<g id="a_Node000028"><a xlink:href="class_core.html#a7a1438f7b147b90acbe4130458a3048c" target="_top" xlink:title=" ">
<polygon fill="white" stroke="#666666" points="1020,-113.88 911.75,-113.88 911.75,-83.38 1020,-83.38 1020,-113.88"/>
<text text-anchor="start" x="919.75" y="-100.38" font-family="Helvetica,sans-Serif" font-size="10.00">Core::handle_vertical</text>
<text text-anchor="middle" x="965.88" y="-89.12" font-family="Helvetica,sans-Serif" font-size="10.00">_movement</text>
</a>
</g>
</g>
<!-- Node23&#45;&gt;Node28 -->
<g id="edge34_Node000023_Node000028" class="edge">
<title>Node23&#45;&gt;Node28</title>
<g id="a_edge34_Node000023_Node000028"><a xlink:title=" ">
<path fill="none" stroke="#63b8ff" d="M820.64,-139.55C843.39,-133.09 873.58,-124.53 900.47,-116.9"/>
<polygon fill="#63b8ff" stroke="#63b8ff" points="901.24,-120.32 909.9,-114.22 899.33,-113.58 901.24,-120.32"/>
</a>
</g>
</g>
<!-- Node25 -->
<g id="Node000025" class="node">
<title>Node25</title>
<g id="a_Node000025"><a xlink:href="class_core.html#a5bf4669d69fe8e52f0c41dff71c2c592" target="_top" xlink:title=" ">
<polygon fill="white" stroke="#666666" points="1210.75,-216.25 1068,-216.25 1068,-197 1210.75,-197 1210.75,-216.25"/>
<text text-anchor="middle" x="1139.38" y="-202.75" font-family="Helvetica,sans-Serif" font-size="10.00">Core::handle_horizontal_stop</text>
</a>
</g>
</g>
<!-- Node24&#45;&gt;Node25 -->
<g id="edge28_Node000024_Node000025" class="edge">
<title>Node24&#45;&gt;Node25</title>
<g id="a_edge28_Node000024_Node000025"><a xlink:title=" ">
<path fill="none" stroke="#63b8ff" d="M1025.42,-197.4C1035.39,-198.22 1045.92,-199.08 1056.37,-199.93"/>
<polygon fill="#63b8ff" stroke="#63b8ff" points="1055.89,-203.4 1066.14,-200.73 1056.46,-196.43 1055.89,-203.4"/>
</a>
</g>
</g>
<!-- Node24&#45;&gt;Node26 -->
<g id="edge30_Node000024_Node000026" class="edge">
<title>Node24&#45;&gt;Node26</title>
<g id="a_edge30_Node000024_Node000026"><a xlink:title=" ">
<path fill="none" stroke="#63b8ff" d="M1025.42,-182.73C1042.29,-179.87 1060.73,-176.75 1077.73,-173.88"/>
<polygon fill="#63b8ff" stroke="#63b8ff" points="1077.9,-177.4 1087.17,-172.28 1076.73,-170.5 1077.9,-177.4"/>
</a>
</g>
</g>
<!-- Node25&#45;&gt;Node3 -->
<g id="edge29_Node000025_Node000003" class="edge">
<title>Node25&#45;&gt;Node3</title>
<g id="a_edge29_Node000025_Node000003"><a xlink:title=" ">
<path fill="none" stroke="#63b8ff" d="M1199.22,-216.68C1203.4,-218.85 1207.31,-221.47 1210.75,-224.62 1279.24,-287.49 1294.43,-406.57 1297.79,-455.17"/>
<polygon fill="#63b8ff" stroke="#63b8ff" points="1294.3,-455.36 1298.37,-465.14 1301.29,-454.96 1294.3,-455.36"/>
</a>
</g>
</g>
<!-- Node26&#45;&gt;Node3 -->
<g id="edge31_Node000026_Node000003" class="edge">
<title>Node26&#45;&gt;Node3</title>
<g id="a_edge31_Node000026_Node000003"><a xlink:title=" ">
<path fill="none" stroke="#63b8ff" d="M1190.06,-173.86C1197.73,-177.22 1205.01,-181.69 1210.75,-187.62 1285.21,-264.58 1296.87,-402.61 1298.55,-455.34"/>
<polygon fill="#63b8ff" stroke="#63b8ff" points="1295.04,-455.13 1298.75,-465.05 1302.04,-454.98 1295.04,-455.13"/>
</a>
</g>
</g>
<!-- Node27&#45;&gt;Node26 -->
<g id="edge33_Node000027_Node000026" class="edge">
<title>Node27&#45;&gt;Node26</title>
<g id="a_edge33_Node000027_Node000026"><a xlink:title=" ">
<path fill="none" stroke="#63b8ff" d="M1016.48,-153.67C1035.42,-155.22 1057.23,-157 1077.13,-158.63"/>
<polygon fill="#63b8ff" stroke="#63b8ff" points="1076.82,-162.11 1087.08,-159.44 1077.39,-155.14 1076.82,-162.11"/>
</a>
</g>
</g>
<!-- Node28&#45;&gt;Node26 -->
<g id="edge43_Node000028_Node000026" class="edge">
<title>Node28&#45;&gt;Node26</title>
<g id="a_edge43_Node000028_Node000026"><a xlink:title=" ">
<path fill="none" stroke="#63b8ff" d="M1004.14,-114.32C1023.15,-122.18 1046.7,-131.68 1068,-139.62 1072.1,-141.15 1076.35,-142.7 1080.64,-144.23"/>
<polygon fill="#63b8ff" stroke="#63b8ff" points="1079.28,-147.46 1089.88,-147.48 1081.61,-140.86 1079.28,-147.46"/>
</a>
</g>
</g>
<!-- Node29 -->
<g id="Node000029" class="node">
<title>Node29</title>
<g id="a_Node000029"><a xlink:href="class_core.html#a1ae796fe1ad262de4484a8838fa53c48" target="_top" xlink:title=" ">
<polygon fill="white" stroke="#666666" points="1192.38,-56.25 1086.38,-56.25 1086.38,-37 1192.38,-37 1192.38,-56.25"/>
<text text-anchor="middle" x="1139.38" y="-42.75" font-family="Helvetica,sans-Serif" font-size="10.00">Core::animate_down</text>
</a>
</g>
</g>
<!-- Node28&#45;&gt;Node29 -->
<g id="edge35_Node000028_Node000029" class="edge">
<title>Node28&#45;&gt;Node29</title>
<g id="a_edge35_Node000028_Node000029"><a xlink:title=" ">
<path fill="none" stroke="#63b8ff" d="M1011.2,-82.93C1028.79,-76.91 1049.26,-70.16 1068,-64.62 1073.82,-62.9 1079.94,-61.2 1086.04,-59.55"/>
<polygon fill="#63b8ff" stroke="#63b8ff" points="1086.69,-63 1095.47,-57.07 1084.9,-56.23 1086.69,-63"/>
</a>
</g>
</g>
<!-- Node31 -->
<g id="Node000031" class="node">
<title>Node31</title>
<g id="a_Node000031"><a xlink:href="class_core.html#a5c24c3d1aa2061ee09283ffe7943e256" target="_top" xlink:title=" ">
<polygon fill="white" stroke="#666666" points="1202.12,-19.25 1076.62,-19.25 1076.62,0 1202.12,0 1202.12,-19.25"/>
<text text-anchor="middle" x="1139.38" y="-5.75" font-family="Helvetica,sans-Serif" font-size="10.00">Core::animate_to_neutral</text>
</a>
</g>
</g>
<!-- Node28&#45;&gt;Node31 -->
<g id="edge37_Node000028_Node000031" class="edge">
<title>Node28&#45;&gt;Node31</title>
<g id="a_edge37_Node000028_Node000031"><a xlink:title=" ">
<path fill="none" stroke="#63b8ff" d="M984.64,-83.11C1003.92,-67.03 1036.24,-42.24 1068,-27.62 1071.49,-26.02 1075.14,-24.54 1078.86,-23.19"/>
<polygon fill="#63b8ff" stroke="#63b8ff" points="1079.67,-26.61 1088.06,-20.15 1077.47,-19.96 1079.67,-26.61"/>
</a>
</g>
</g>
<!-- Node32 -->
<g id="Node000032" class="node">
<title>Node32</title>
<g id="a_Node000032"><a xlink:href="class_core.html#a32360bca0d21983d2d9b920229144fab" target="_top" xlink:title=" ">
<polygon fill="white" stroke="#666666" points="1186,-93.25 1092.75,-93.25 1092.75,-74 1186,-74 1186,-93.25"/>
<text text-anchor="middle" x="1139.38" y="-79.75" font-family="Helvetica,sans-Serif" font-size="10.00">Core::animate_up</text>
</a>
</g>
</g>
<!-- Node28&#45;&gt;Node32 -->
<g id="edge39_Node000028_Node000032" class="edge">
<title>Node28&#45;&gt;Node32</title>
<g id="a_edge39_Node000028_Node000032"><a xlink:title=" ">
<path fill="none" stroke="#63b8ff" d="M1020.2,-93.96C1039.51,-92.27 1061.41,-90.36 1081.05,-88.64"/>
<polygon fill="#63b8ff" stroke="#63b8ff" points="1081.16,-92.14 1090.81,-87.78 1080.55,-85.17 1081.16,-92.14"/>
</a>
</g>
</g>
<!-- Node33 -->
<g id="Node000033" class="node">
<title>Node33</title>
<g id="a_Node000033"><a xlink:href="class_core.html#a358f46d664d8eaa3680ec8de58a0fa1e" target="_top" xlink:title=" ">
<polygon fill="white" stroke="#666666" points="1205.5,-130.25 1073.25,-130.25 1073.25,-111 1205.5,-111 1205.5,-130.25"/>
<text text-anchor="middle" x="1139.38" y="-116.75" font-family="Helvetica,sans-Serif" font-size="10.00">Core::handle_vertical_stop</text>
</a>
</g>
</g>
<!-- Node28&#45;&gt;Node33 -->
<g id="edge41_Node000028_Node000033" class="edge">
<title>Node28&#45;&gt;Node33</title>
<g id="a_edge41_Node000028_Node000033"><a xlink:title=" ">
<path fill="none" stroke="#63b8ff" d="M1020.2,-105.47C1033.39,-107.16 1047.78,-109 1061.83,-110.81"/>
<polygon fill="#63b8ff" stroke="#63b8ff" points="1061.14,-114.25 1071.51,-112.05 1062.03,-107.3 1061.14,-114.25"/>
</a>
</g>
</g>
<!-- Node30 -->
<g id="Node000030" class="node">
<title>Node30</title>
<g id="a_Node000030"><a xlink:href="class_core.html#ae37ec3409102a80e9958b8c2910f16ef" target="_top" xlink:title=" ">
<polygon fill="white" stroke="#666666" points="1350.5,-61.88 1249,-61.88 1249,-31.38 1350.5,-31.38 1350.5,-61.88"/>
<text text-anchor="start" x="1257" y="-48.38" font-family="Helvetica,sans-Serif" font-size="10.00">Core::update_sprite</text>
<text text-anchor="middle" x="1299.75" y="-37.12" font-family="Helvetica,sans-Serif" font-size="10.00">_frame</text>
</a>
</g>
</g>
<!-- Node29&#45;&gt;Node30 -->
<g id="edge36_Node000029_Node000030" class="edge">
<title>Node29&#45;&gt;Node30</title>
<g id="a_edge36_Node000029_Node000030"><a xlink:title=" ">
<path fill="none" stroke="#63b8ff" d="M1192.67,-46.62C1207.03,-46.62 1222.73,-46.62 1237.54,-46.62"/>
<polygon fill="#63b8ff" stroke="#63b8ff" points="1237.15,-50.13 1247.15,-46.63 1237.15,-43.13 1237.15,-50.13"/>
</a>
</g>
</g>
<!-- Node31&#45;&gt;Node30 -->
<g id="edge38_Node000031_Node000030" class="edge">
<title>Node31&#45;&gt;Node30</title>
<g id="a_edge38_Node000031_Node000030"><a xlink:title=" ">
<path fill="none" stroke="#63b8ff" d="M1183.65,-19.74C1200.26,-23.62 1219.55,-28.12 1237.53,-32.32"/>
<polygon fill="#63b8ff" stroke="#63b8ff" points="1236.51,-35.68 1247.04,-34.55 1238.1,-28.86 1236.51,-35.68"/>
</a>
</g>
</g>
<!-- Node32&#45;&gt;Node30 -->
<g id="edge40_Node000032_Node000030" class="edge">
<title>Node32&#45;&gt;Node30</title>
<g id="a_edge40_Node000032_Node000030"><a xlink:title=" ">
<path fill="none" stroke="#63b8ff" d="M1183.65,-73.51C1200.26,-69.63 1219.55,-65.13 1237.53,-60.93"/>
<polygon fill="#63b8ff" stroke="#63b8ff" points="1238.1,-64.39 1247.04,-58.7 1236.51,-57.57 1238.1,-64.39"/>
</a>
</g>
</g>
<!-- Node33&#45;&gt;Node3 -->
<g id="edge42_Node000033_Node000003" class="edge">
<title>Node33&#45;&gt;Node3</title>
<g id="a_edge42_Node000033_Node000003"><a xlink:title=" ">
<path fill="none" stroke="#63b8ff" d="M1198.52,-130.7C1203.02,-133.1 1207.19,-136.03 1210.75,-139.62 1256.15,-185.41 1286.98,-388.77 1296.01,-455.41"/>
<polygon fill="#63b8ff" stroke="#63b8ff" points="1292.5,-455.55 1297.28,-465.01 1299.43,-454.63 1292.5,-455.55"/>
</a>
</g>
</g>
<!-- Node34&#45;&gt;Node2 -->
<g id="edge45_Node000034_Node000002" class="edge">
<title>Node34&#45;&gt;Node2</title>
<g id="a_edge45_Node000034_Node000002"><a xlink:title=" ">
<path fill="none" stroke="#63b8ff" d="M828.88,-298.66C840.49,-301.32 852.83,-304.9 863.75,-309.62 893.98,-322.71 924.84,-345.03 944.39,-360.51"/>
<polygon fill="#63b8ff" stroke="#63b8ff" points="942.12,-363.18 952.09,-366.75 946.52,-357.74 942.12,-363.18"/>
</a>
</g>
</g>
<!-- Node35&#45;&gt;Node3 -->
<g id="edge48_Node000035_Node000003" class="edge">
<title>Node35&#45;&gt;Node3</title>
<g id="a_edge48_Node000035_Node000003"><a xlink:title=" ">
<path fill="none" stroke="#63b8ff" d="M834.37,-476.62C928.03,-476.62 1131.7,-476.62 1235.38,-476.62"/>
<polygon fill="#63b8ff" stroke="#63b8ff" points="1235.09,-480.13 1245.09,-476.63 1235.09,-473.13 1235.09,-480.13"/>
</a>
</g>
</g>
<!-- Node39&#45;&gt;Node39 -->
<g id="edge56_Node000039_Node000039" class="edge">
<title>Node39&#45;&gt;Node39</title>
<g id="a_edge56_Node000039_Node000039"><a xlink:title=" ">
<path fill="none" stroke="#63b8ff" d="M751.92,-208.36C745.35,-217.43 756.08,-225.88 784.12,-225.88 799.46,-225.88 809.62,-223.35 814.6,-219.58"/>
<polygon fill="#63b8ff" stroke="#63b8ff" points="818.04,-220.27 816.1,-209.86 811.12,-219.21 818.04,-220.27"/>
</a>
</g>
</g>
<!-- Node40 -->
<g id="Node000040" class="node">
<title>Node40</title>
<g id="a_Node000040"><a xlink:href="class_systems.html#a310d4de4ff4f8212b2ded614e411d102" target="_top" xlink:title=" ">
<polygon fill="white" stroke="#666666" points="1032,-247.25 899.75,-247.25 899.75,-228 1032,-228 1032,-247.25"/>
<text text-anchor="middle" x="965.88" y="-233.75" font-family="Helvetica,sans-Serif" font-size="10.00">Systems::position_system</text>
</a>
</g>
</g>
<!-- Node39&#45;&gt;Node40 -->
<g id="edge54_Node000039_Node000040" class="edge">
<title>Node39&#45;&gt;Node40</title>
<g id="a_edge54_Node000039_Node000040"><a xlink:title=" ">
<path fill="none" stroke="#63b8ff" d="M837.6,-205.76C861.57,-211.76 889.87,-218.85 913.69,-224.81"/>
<polygon fill="#63b8ff" stroke="#63b8ff" points="912.61,-228.15 923.16,-227.18 914.31,-221.36 912.61,-228.15"/>
</a>
</g>
</g>
<!-- Node41 -->
<g id="Node000041" class="node">
<title>Node41</title>
<g id="a_Node000041"><a xlink:href="classregistry.html#a3866ee276a5a1d78d00cd403e8e8c7d9" target="_top" xlink:title=" ">
<polygon fill="white" stroke="#666666" points="1202.5,-253.25 1076.25,-253.25 1076.25,-234 1202.5,-234 1202.5,-253.25"/>
<text text-anchor="middle" x="1139.38" y="-239.75" font-family="Helvetica,sans-Serif" font-size="10.00">registry::get_components</text>
</a>
</g>
</g>
<!-- Node40&#45;&gt;Node41 -->
<g id="edge55_Node000040_Node000041" class="edge">
<title>Node40&#45;&gt;Node41</title>
<g id="a_edge55_Node000040_Node000041"><a xlink:title=" ">
<path fill="none" stroke="#63b8ff" d="M1032.2,-239.91C1042.7,-240.28 1053.63,-240.66 1064.31,-241.03"/>
<polygon fill="#63b8ff" stroke="#63b8ff" points="1064.15,-244.53 1074.26,-241.38 1064.39,-237.53 1064.15,-244.53"/>
</a>
</g>
</g>
<!-- Node43&#45;&gt;Node35 -->
<g id="edge59_Node000043_Node000035" class="edge">
<title>Node43&#45;&gt;Node35</title>
<g id="a_edge59_Node000043_Node000035"><a xlink:title=" ">
<path fill="none" stroke="#63b8ff" d="M656.36,-476.62C677.8,-476.62 701.46,-476.62 722.48,-476.62"/>
<polygon fill="#63b8ff" stroke="#63b8ff" points="722.34,-480.13 732.34,-476.63 722.34,-473.13 722.34,-480.13"/>
</a>
</g>
</g>
<!-- Node44&#45;&gt;Node3 -->
<g id="edge61_Node000044_Node000003" class="edge">
<title>Node44&#45;&gt;Node3</title>
<g id="a_edge61_Node000044_Node000003"><a xlink:title=" ">
<path fill="none" stroke="#63b8ff" d="M250.89,-778.62C326.6,-778.62 467.83,-778.62 588.25,-778.62 588.25,-778.62 588.25,-778.62 966.88,-778.62 1075.79,-778.62 1126.14,-823.21 1210.75,-754.62 1291.22,-689.39 1299.27,-550.82 1299.26,-497.84"/>
<polygon fill="#63b8ff" stroke="#63b8ff" points="1302.77,-498.04 1299.15,-488.08 1295.77,-498.12 1302.77,-498.04"/>
</a>
</g>
</g>
</g>
</svg>
