<?xml version="1.0" encoding="UTF-8" standalone="no"?>
<!DOCTYPE svg PUBLIC "-//W3C//DTD SVG 1.1//EN"
 "http://www.w3.org/Graphics/SVG/1.1/DTD/svg11.dtd">
<!-- Generated by graphviz version 12.2.1 (20241206.2353)
 -->
<!-- Title: Core::handleCollisionCommand Pages: 1 -->
<svg width="499pt" height="138pt"
 viewBox="0.00 0.00 498.50 138.25" xmlns="http://www.w3.org/2000/svg" xmlns:xlink="http://www.w3.org/1999/xlink">

<svg id="main" version="1.1" xmlns="http://www.w3.org/2000/svg" xmlns:xlink="http://www.w3.org/1999/xlink" xml:space="preserve">

<style type="text/css"><![CDATA[
.node, .edge {opacity: 0.7;}
.node.selected, .edge.selected {opacity: 1;}
.edge:hover path { stroke: red; }
.edge:hover polygon { stroke: red; fill: red; }
]]></style>
<script type="application/ecmascript" xlink:href="svg.min.js"/>
<svg id="graph" class="graph">
<g id="graph0" class="graph" transform="scale(1 1) rotate(0) translate(4 134.25)">
<title>Core::handleCollisionCommand</title>
<!-- Node1 -->
<g id="Node000001" class="node">
<title>Node1</title>
<g id="a_Node000001"><a xlink:title=" ">
<polygon fill="#999999" stroke="#666666" points="154,-74.25 0,-74.25 0,-55 154,-55 154,-74.25"/>
<text text-anchor="middle" x="77" y="-60.75" font-family="Helvetica,sans-Serif" font-size="10.00">Core::handleCollisionCommand</text>
</a>
</g>
</g>
<!-- Node2 -->
<g id="Node000002" class="node">
<title>Node2</title>
<g id="a_Node000002"><a xlink:href="class_core.html#a18d897088678ca2d82d41413bd62c824" target="_top" xlink:title=" ">
<polygon fill="white" stroke="#666666" points="333.12,-130.25 205.38,-130.25 205.38,-111 333.12,-111 333.12,-130.25"/>
<text text-anchor="middle" x="269.25" y="-116.75" font-family="Helvetica,sans-Serif" font-size="10.00">Core::handleMobCollision</text>
</a>
</g>
</g>
<!-- Node1&#45;&gt;Node2 -->
<g id="edge1_Node000001_Node000002" class="edge">
<title>Node1&#45;&gt;Node2</title>
<g id="a_edge1_Node000001_Node000002"><a xlink:title=" ">
<path fill="none" stroke="#63b8ff" d="M104.92,-74.61C127.46,-82.77 160.57,-94.27 190,-102.62 196.36,-104.43 203.04,-106.18 209.72,-107.84"/>
<polygon fill="#63b8ff" stroke="#63b8ff" points="208.87,-111.24 219.41,-110.18 210.51,-104.43 208.87,-111.24"/>
</a>
</g>
</g>
<!-- Node3 -->
<g id="Node000003" class="node">
<title>Node3</title>
<g id="a_Node000003"><a xlink:href="class_core.html#a517f4f0a345db4205dd553669bd72852" target="_top" xlink:title=" ">
<polygon fill="white" stroke="#666666" points="348.5,-93.25 190,-93.25 190,-74 348.5,-74 348.5,-93.25"/>
<text text-anchor="middle" x="269.25" y="-79.75" font-family="Helvetica,sans-Serif" font-size="10.00">Core::handleMobMissileCollision</text>
</a>
</g>
</g>
<!-- Node1&#45;&gt;Node3 -->
<g id="edge2_Node000001_Node000003" class="edge">
<title>Node1&#45;&gt;Node3</title>
<g id="a_edge2_Node000001_Node000003"><a xlink:title=" ">
<path fill="none" stroke="#63b8ff" d="M154.29,-72.24C162.23,-73.04 170.35,-73.85 178.42,-74.65"/>
<polygon fill="#63b8ff" stroke="#63b8ff" points="177.97,-78.13 188.27,-75.64 178.66,-71.16 177.97,-78.13"/>
</a>
</g>
</g>
<!-- Node4 -->
<g id="Node000004" class="node">
<title>Node4</title>
<g id="a_Node000004"><a xlink:href="class_core.html#a22e0fed60eb09cc09408650d66c38617" target="_top" xlink:title=" ">
<polygon fill="white" stroke="#666666" points="344,-56.25 194.5,-56.25 194.5,-37 344,-37 344,-56.25"/>
<text text-anchor="middle" x="269.25" y="-42.75" font-family="Helvetica,sans-Serif" font-size="10.00">Core::handlePowerUpCollision</text>
</a>
</g>
</g>
<!-- Node1&#45;&gt;Node4 -->
<g id="edge3_Node000001_Node000004" class="edge">
<title>Node1&#45;&gt;Node4</title>
<g id="a_edge3_Node000001_Node000004"><a xlink:title=" ">
<path fill="none" stroke="#63b8ff" d="M154.29,-57.41C163.62,-56.52 173.21,-55.62 182.66,-54.72"/>
<polygon fill="#63b8ff" stroke="#63b8ff" points="182.98,-58.21 192.61,-53.78 182.32,-51.24 182.98,-58.21"/>
</a>
</g>
</g>
<!-- Node5 -->
<g id="Node000005" class="node">
<title>Node5</title>
<g id="a_Node000005"><a xlink:href="class_core.html#a398cf70a8dafff61d11f9d0928ed6111" target="_top" xlink:title=" ">
<polygon fill="white" stroke="#666666" points="333.5,-19.25 205,-19.25 205,0 333.5,0 333.5,-19.25"/>
<text text-anchor="middle" x="269.25" y="-5.75" font-family="Helvetica,sans-Serif" font-size="10.00">Core::updatePlayerHealth</text>
</a>
</g>
</g>
<!-- Node1&#45;&gt;Node5 -->
<g id="edge4_Node000001_Node000005" class="edge">
<title>Node1&#45;&gt;Node5</title>
<g id="a_edge4_Node000001_Node000005"><a xlink:title=" ">
<path fill="none" stroke="#63b8ff" d="M105.86,-54.62C128.38,-46.73 161.01,-35.73 190,-27.62 196.61,-25.78 203.57,-23.98 210.5,-22.27"/>
<polygon fill="#63b8ff" stroke="#63b8ff" points="210.93,-25.76 219.84,-20.03 209.3,-18.96 210.93,-25.76"/>
</a>
</g>
</g>
<!-- Node6 -->
<g id="Node000006" class="node">
<title>Node6</title>
<g id="a_Node000006"><a xlink:href="class_core.html#aad563284176b829fa64177092388ef31" target="_top" xlink:title=" ">
<polygon fill="white" stroke="#666666" points="490.5,-19.25 384.5,-19.25 384.5,0 490.5,0 490.5,-19.25"/>
<text text-anchor="middle" x="437.5" y="-5.75" font-family="Helvetica,sans-Serif" font-size="10.00">Core::encode_action</text>
</a>
</g>
</g>
<!-- Node5&#45;&gt;Node6 -->
<g id="edge5_Node000005_Node000006" class="edge">
<title>Node5&#45;&gt;Node6</title>
<g id="a_edge5_Node000005_Node000006"><a xlink:title=" ">
<path fill="none" stroke="#63b8ff" d="M333.58,-9.62C346.49,-9.62 360.09,-9.62 373.01,-9.62"/>
<polygon fill="#63b8ff" stroke="#63b8ff" points="372.65,-13.13 382.65,-9.63 372.65,-6.13 372.65,-13.13"/>
</a>
</g>
</g>
</g>
</svg>
</svg>

<style type='text/css'>
<![CDATA[
[data-mouse-over-selected='false'] { opacity: 0.7; }
[data-mouse-over-selected='true']  { opacity: 1.0; }
]]>
</style>
<script type="application/ecmascript"><![CDATA[
document.addEventListener('DOMContentLoaded', (event) => {
  highlightEdges();
  highlightAdjacentNodes();
});
]]></script>
</svg>
