<?xml version="1.0" encoding="UTF-8" standalone="no"?>
<!DOCTYPE svg PUBLIC "-//W3C//DTD SVG 1.1//EN"
 "http://www.w3.org/Graphics/SVG/1.1/DTD/svg11.dtd">
<!-- Generated by graphviz version 12.2.1 (20241206.2353)
 -->
<!-- Title: Core::handleServerCommands Pages: 1 -->
<svg width="1241pt" height="578pt"
 viewBox="0.00 0.00 1240.50 577.62" xmlns="http://www.w3.org/2000/svg" xmlns:xlink="http://www.w3.org/1999/xlink">
<g id="graph0" class="graph" transform="scale(1 1) rotate(0) translate(4 573.62)">
<title>Core::handleServerCommands</title>
<!-- Node1 -->
<g id="Node000001" class="node">
<title>Node1</title>
<g id="a_Node000001"><a xlink:title=" ">
<polygon fill="#999999" stroke="#666666" points="150.25,-260.25 0,-260.25 0,-241 150.25,-241 150.25,-260.25"/>
<text text-anchor="middle" x="75.12" y="-246.75" font-family="Helvetica,sans-Serif" font-size="10.00">Core::handleServerCommands</text>
</a>
</g>
</g>
<!-- Node2 -->
<g id="Node000002" class="node">
<title>Node2</title>
<g id="a_Node000002"><a xlink:href="class_core.html#aad563284176b829fa64177092388ef31" target="_top" xlink:title=" ">
<polygon fill="white" stroke="#666666" points="1232.5,-396.25 1126.5,-396.25 1126.5,-377 1232.5,-377 1232.5,-396.25"/>
<text text-anchor="middle" x="1179.5" y="-382.75" font-family="Helvetica,sans-Serif" font-size="10.00">Core::encode_action</text>
</a>
</g>
</g>
<!-- Node1&#45;&gt;Node2 -->
<g id="edge1_Node000001_Node000002" class="edge">
<title>Node1&#45;&gt;Node2</title>
<g id="a_edge1_Node000001_Node000002"><a xlink:title=" ">
<path fill="none" stroke="#63b8ff" d="M78.11,-260.35C85.68,-294.93 115.87,-413.25 186.25,-476.62 284.24,-564.87 336.13,-569.62 468,-569.62 468,-569.62 468,-569.62 846.62,-569.62 982.3,-569.62 1114.74,-450.89 1161.12,-404.7"/>
<polygon fill="#63b8ff" stroke="#63b8ff" points="1163.39,-407.38 1167.93,-397.8 1158.41,-402.46 1163.39,-407.38"/>
</a>
</g>
</g>
<!-- Node3 -->
<g id="Node000003" class="node">
<title>Node3</title>
<g id="a_Node000003"><a xlink:href="class_core.html#a402d54bcd5820fda94013f08a54fe394" target="_top" xlink:title=" ">
<polygon fill="white" stroke="#666666" points="347,-467.25 193,-467.25 193,-448 347,-448 347,-467.25"/>
<text text-anchor="middle" x="270" y="-453.75" font-family="Helvetica,sans-Serif" font-size="10.00">Core::handleCollisionCommand</text>
</a>
</g>
</g>
<!-- Node1&#45;&gt;Node3 -->
<g id="edge2_Node000001_Node000003" class="edge">
<title>Node1&#45;&gt;Node3</title>
<g id="a_edge2_Node000001_Node000003"><a xlink:title=" ">
<path fill="none" stroke="#63b8ff" d="M78.74,-260.36C87.73,-291.87 120.52,-391.83 186.25,-439.62 187.62,-440.62 189.04,-441.57 190.5,-442.47"/>
<polygon fill="#63b8ff" stroke="#63b8ff" points="188.76,-445.5 199.25,-446.97 191.96,-439.28 188.76,-445.5"/>
</a>
</g>
</g>
<!-- Node8 -->
<g id="Node000008" class="node">
<title>Node8</title>
<g id="a_Node000008"><a xlink:href="class_core.html#a38f36a0900fda03c200f0b900d25af9f" target="_top" xlink:title=" ">
<polygon fill="white" stroke="#666666" points="346.62,-241.25 193.38,-241.25 193.38,-222 346.62,-222 346.62,-241.25"/>
<text text-anchor="middle" x="270" y="-227.75" font-family="Helvetica,sans-Serif" font-size="10.00">Core::handleConnectCommand</text>
</a>
</g>
</g>
<!-- Node1&#45;&gt;Node8 -->
<g id="edge8_Node000001_Node000008" class="edge">
<title>Node1&#45;&gt;Node8</title>
<g id="a_edge8_Node000001_Node000008"><a xlink:title=" ">
<path fill="none" stroke="#63b8ff" d="M150.7,-243.28C160.89,-242.27 171.44,-241.24 181.83,-240.21"/>
<polygon fill="#63b8ff" stroke="#63b8ff" points="181.92,-243.72 191.53,-239.26 181.23,-236.75 181.92,-243.72"/>
</a>
</g>
</g>
<!-- Node9 -->
<g id="Node000009" class="node">
<title>Node9</title>
<g id="a_Node000009"><a xlink:href="class_core.html#a6336489bf72426dc2c618a61832238ce" target="_top" xlink:title=" ">
<polygon fill="white" stroke="#666666" points="341.38,-430.25 198.62,-430.25 198.62,-411 341.38,-411 341.38,-430.25"/>
<text text-anchor="middle" x="270" y="-416.75" font-family="Helvetica,sans-Serif" font-size="10.00">Core::handleDeathCommand</text>
</a>
</g>
</g>
<!-- Node1&#45;&gt;Node9 -->
<g id="edge9_Node000001_Node000009" class="edge">
<title>Node1&#45;&gt;Node9</title>
<g id="a_edge9_Node000001_Node000009"><a xlink:title=" ">
<path fill="none" stroke="#63b8ff" d="M80.3,-260.74C92.28,-288.37 129.52,-365.54 186.25,-402.62 187.9,-403.7 189.6,-404.72 191.35,-405.67"/>
<polygon fill="#63b8ff" stroke="#63b8ff" points="189.86,-408.84 200.4,-409.88 192.8,-402.49 189.86,-408.84"/>
</a>
</g>
</g>
<!-- Node11 -->
<g id="Node000011" class="node">
<title>Node11</title>
<g id="a_Node000011"><a xlink:href="class_core.html#a7c67115737d781142c2e45bee998daac" target="_top" xlink:title=" ">
<polygon fill="white" stroke="#666666" points="353,-393.25 187,-393.25 187,-374 353,-374 353,-393.25"/>
<text text-anchor="middle" x="270" y="-379.75" font-family="Helvetica,sans-Serif" font-size="10.00">Core::handleDisconnectCommand</text>
</a>
</g>
</g>
<!-- Node1&#45;&gt;Node11 -->
<g id="edge12_Node000001_Node000011" class="edge">
<title>Node1&#45;&gt;Node11</title>
<g id="a_edge12_Node000001_Node000011"><a xlink:title=" ">
<path fill="none" stroke="#63b8ff" d="M83.45,-260.72C99.56,-282.19 140.33,-332.64 186.25,-359.62 193.09,-363.64 200.64,-367.03 208.32,-369.86"/>
<polygon fill="#63b8ff" stroke="#63b8ff" points="207.18,-373.17 217.77,-373.04 209.41,-366.54 207.18,-373.17"/>
</a>
</g>
</g>
<!-- Node12 -->
<g id="Node000012" class="node">
<title>Node12</title>
<g id="a_Node000012"><a xlink:href="class_core.html#a5db2bb533195df4af29c23d833e5a061" target="_top" xlink:title=" ">
<polygon fill="white" stroke="#666666" points="350.38,-204.25 189.62,-204.25 189.62,-185 350.38,-185 350.38,-204.25"/>
<text text-anchor="middle" x="270" y="-190.75" font-family="Helvetica,sans-Serif" font-size="10.00">Core::handleMobShootCommand</text>
</a>
</g>
</g>
<!-- Node1&#45;&gt;Node12 -->
<g id="edge14_Node000001_Node000012" class="edge">
<title>Node1&#45;&gt;Node12</title>
<g id="a_edge14_Node000001_Node000012"><a xlink:title=" ">
<path fill="none" stroke="#63b8ff" d="M102.55,-240.52C124.69,-232.3 157.23,-220.76 186.25,-212.62 192.94,-210.75 199.98,-208.95 207.01,-207.27"/>
<polygon fill="#63b8ff" stroke="#63b8ff" points="207.57,-210.73 216.53,-205.07 206,-203.91 207.57,-210.73"/>
</a>
</g>
</g>
<!-- Node13 -->
<g id="Node000013" class="node">
<title>Node13</title>
<g id="a_Node000013"><a xlink:href="class_core.html#a886c451a25e2e20ec3b5917250601f3d" target="_top" xlink:title=" ">
<polygon fill="white" stroke="#666666" points="352.62,-167.25 187.38,-167.25 187.38,-148 352.62,-148 352.62,-167.25"/>
<text text-anchor="middle" x="270" y="-153.75" font-family="Helvetica,sans-Serif" font-size="10.00">Core::handleMobSpawnCommand</text>
</a>
</g>
</g>
<!-- Node1&#45;&gt;Node13 -->
<g id="edge15_Node000001_Node000013" class="edge">
<title>Node1&#45;&gt;Node13</title>
<g id="a_edge15_Node000001_Node000013"><a xlink:title=" ">
<path fill="none" stroke="#63b8ff" d="M87.46,-240.68C106.5,-224.51 146.72,-192.62 186.25,-175.62 190.24,-173.91 194.41,-172.35 198.66,-170.94"/>
<polygon fill="#63b8ff" stroke="#63b8ff" points="199.36,-174.38 207.92,-168.14 197.33,-167.68 199.36,-174.38"/>
</a>
</g>
</g>
<!-- Node14 -->
<g id="Node000014" class="node">
<title>Node14</title>
<g id="a_Node000014"><a xlink:href="class_core.html#a18c325c19760f36a20ba7372ab9c69cd" target="_top" xlink:title=" ">
<polygon fill="white" stroke="#666666" points="340.25,-130.25 199.75,-130.25 199.75,-111 340.25,-111 340.25,-130.25"/>
<text text-anchor="middle" x="270" y="-116.75" font-family="Helvetica,sans-Serif" font-size="10.00">Core::handleMoveCommand</text>
</a>
</g>
</g>
<!-- Node1&#45;&gt;Node14 -->
<g id="edge16_Node000001_Node000014" class="edge">
<title>Node1&#45;&gt;Node14</title>
<g id="a_edge16_Node000001_Node000014"><a xlink:title=" ">
<path fill="none" stroke="#63b8ff" d="M82.77,-240.67C98.14,-218.51 138.49,-164.96 186.25,-138.62 188.78,-137.23 191.42,-135.94 194.12,-134.75"/>
<polygon fill="#63b8ff" stroke="#63b8ff" points="195.33,-138.03 203.42,-131.18 192.83,-131.5 195.33,-138.03"/>
</a>
</g>
</g>
<!-- Node15 -->
<g id="Node000015" class="node">
<title>Node15</title>
<g id="a_Node000015"><a xlink:href="class_core.html#a54f1d074e15b44725e628aa9367ef985" target="_top" xlink:title=" ">
<polygon fill="white" stroke="#666666" points="353.75,-93.25 186.25,-93.25 186.25,-74 353.75,-74 353.75,-93.25"/>
<text text-anchor="middle" x="270" y="-79.75" font-family="Helvetica,sans-Serif" font-size="10.00">Core::handleMovementCommands</text>
</a>
</g>
</g>
<!-- Node1&#45;&gt;Node15 -->
<g id="edge17_Node000001_Node000015" class="edge">
<title>Node1&#45;&gt;Node15</title>
<g id="a_edge17_Node000001_Node000015"><a xlink:title=" ">
<path fill="none" stroke="#63b8ff" d="M80.36,-240.71C92.48,-213.62 130.08,-137.97 186.25,-101.62 188.1,-100.43 190.02,-99.31 191.99,-98.26"/>
<polygon fill="#63b8ff" stroke="#63b8ff" points="193.18,-101.56 200.85,-94.25 190.29,-95.19 193.18,-101.56"/>
</a>
</g>
</g>
<!-- Node16 -->
<g id="Node000016" class="node">
<title>Node16</title>
<g id="a_Node000016"><a xlink:href="class_core.html#ab225cc2ef8539bcf400e02e46d16f7a1" target="_top" xlink:title=" ">
<polygon fill="white" stroke="#666666" points="348.5,-56.25 191.5,-56.25 191.5,-37 348.5,-37 348.5,-56.25"/>
<text text-anchor="middle" x="270" y="-42.75" font-family="Helvetica,sans-Serif" font-size="10.00">Core::handlePowerUpCommand</text>
</a>
</g>
</g>
<!-- Node1&#45;&gt;Node16 -->
<g id="edge18_Node000001_Node000016" class="edge">
<title>Node1&#45;&gt;Node16</title>
<g id="a_edge18_Node000001_Node000016"><a xlink:title=" ">
<path fill="none" stroke="#63b8ff" d="M78.92,-240.6C88.24,-209.1 121.44,-111.41 186.25,-64.62 187.63,-63.63 189.05,-62.69 190.51,-61.8"/>
<polygon fill="#63b8ff" stroke="#63b8ff" points="191.97,-64.98 199.27,-57.31 188.78,-58.75 191.97,-64.98"/>
</a>
</g>
</g>
<!-- Node17 -->
<g id="Node000017" class="node">
<title>Node17</title>
<g id="a_Node000017"><a xlink:href="class_core.html#aa792853f5ed5d5c6248e20fad821f6ca" target="_top" xlink:title=" ">
<polygon fill="white" stroke="#666666" points="343.62,-19.25 196.38,-19.25 196.38,0 343.62,0 343.62,-19.25"/>
<text text-anchor="middle" x="270" y="-5.75" font-family="Helvetica,sans-Serif" font-size="10.00">Core::handleShootCommands</text>
</a>
</g>
</g>
<!-- Node1&#45;&gt;Node17 -->
<g id="edge19_Node000001_Node000017" class="edge">
<title>Node1&#45;&gt;Node17</title>
<g id="a_edge19_Node000001_Node000017"><a xlink:title=" ">
<path fill="none" stroke="#63b8ff" d="M77.87,-240.69C84.62,-205.43 112.41,-85.3 186.25,-27.62 187.39,-26.73 188.57,-25.89 189.77,-25.08"/>
<polygon fill="#63b8ff" stroke="#63b8ff" points="191.19,-28.29 198.21,-20.36 187.77,-22.18 191.19,-28.29"/>
</a>
</g>
</g>
<!-- Node18 -->
<g id="Node000018" class="node">
<title>Node18</title>
<g id="a_Node000018"><a xlink:href="class_core.html#a3b2840725a18b5e49614dd429f449289" target="_top" xlink:title=" ">
<polygon fill="white" stroke="#666666" points="338.75,-317.25 201.25,-317.25 201.25,-298 338.75,-298 338.75,-317.25"/>
<text text-anchor="middle" x="270" y="-303.75" font-family="Helvetica,sans-Serif" font-size="10.00">Core::handleStartCommand</text>
</a>
</g>
</g>
<!-- Node1&#45;&gt;Node18 -->
<g id="edge20_Node000001_Node000018" class="edge">
<title>Node1&#45;&gt;Node18</title>
<g id="a_edge20_Node000001_Node000018"><a xlink:title=" ">
<path fill="none" stroke="#63b8ff" d="M109.35,-260.67C131.19,-267.24 160.41,-276.01 186.25,-283.62 198.22,-287.16 211.18,-290.93 223.22,-294.42"/>
<polygon fill="#63b8ff" stroke="#63b8ff" points="221.92,-297.69 232.5,-297.11 223.86,-290.97 221.92,-297.69"/>
</a>
</g>
</g>
<!-- Node42 -->
<g id="Node000042" class="node">
<title>Node42</title>
<g id="a_Node000042"><a xlink:href="class_core.html#a99550195181899dc74f311dec7d3df4e" target="_top" xlink:title=" ">
<polygon fill="white" stroke="#666666" points="535.88,-355.25 402.12,-355.25 402.12,-336 535.88,-336 535.88,-355.25"/>
<text text-anchor="middle" x="469" y="-341.75" font-family="Helvetica,sans-Serif" font-size="10.00">Core::handleWinCommand</text>
</a>
</g>
</g>
<!-- Node1&#45;&gt;Node42 -->
<g id="edge55_Node000001_Node000042" class="edge">
<title>Node1&#45;&gt;Node42</title>
<g id="a_edge55_Node000001_Node000042"><a xlink:title=" ">
<path fill="none" stroke="#63b8ff" d="M86.29,-260.55C104.53,-277.63 144.8,-312.16 186.25,-326.62 252.43,-349.72 332.57,-352.94 390.43,-351.29"/>
<polygon fill="#63b8ff" stroke="#63b8ff" points="390.31,-354.79 400.18,-350.95 390.07,-347.8 390.31,-354.79"/>
</a>
</g>
</g>
<!-- Node4 -->
<g id="Node000004" class="node">
<title>Node4</title>
<g id="a_Node000004"><a xlink:href="class_core.html#a18d897088678ca2d82d41413bd62c824" target="_top" xlink:title=" ">
<polygon fill="white" stroke="#666666" points="532.88,-504.25 405.12,-504.25 405.12,-485 532.88,-485 532.88,-504.25"/>
<text text-anchor="middle" x="469" y="-490.75" font-family="Helvetica,sans-Serif" font-size="10.00">Core::handleMobCollision</text>
</a>
</g>
</g>
<!-- Node3&#45;&gt;Node4 -->
<g id="edge3_Node000003_Node000004" class="edge">
<title>Node3&#45;&gt;Node4</title>
<g id="a_edge3_Node000003_Node000004"><a xlink:title=" ">
<path fill="none" stroke="#63b8ff" d="M324.83,-467.74C349.04,-472.28 377.83,-477.69 403.21,-482.46"/>
<polygon fill="#63b8ff" stroke="#63b8ff" points="402.27,-485.84 412.75,-484.25 403.56,-478.96 402.27,-485.84"/>
</a>
</g>
</g>
<!-- Node5 -->
<g id="Node000005" class="node">
<title>Node5</title>
<g id="a_Node000005"><a xlink:href="class_core.html#a517f4f0a345db4205dd553669bd72852" target="_top" xlink:title=" ">
<polygon fill="white" stroke="#666666" points="548.25,-467.25 389.75,-467.25 389.75,-448 548.25,-448 548.25,-467.25"/>
<text text-anchor="middle" x="469" y="-453.75" font-family="Helvetica,sans-Serif" font-size="10.00">Core::handleMobMissileCollision</text>
</a>
</g>
</g>
<!-- Node3&#45;&gt;Node5 -->
<g id="edge4_Node000003_Node000005" class="edge">
<title>Node3&#45;&gt;Node5</title>
<g id="a_edge4_Node000003_Node000005"><a xlink:title=" ">
<path fill="none" stroke="#63b8ff" d="M347.45,-457.62C357.43,-457.62 367.73,-457.62 377.9,-457.62"/>
<polygon fill="#63b8ff" stroke="#63b8ff" points="377.81,-461.13 387.81,-457.63 377.81,-454.13 377.81,-461.13"/>
</a>
</g>
</g>
<!-- Node6 -->
<g id="Node000006" class="node">
<title>Node6</title>
<g id="a_Node000006"><a xlink:href="class_core.html#a22e0fed60eb09cc09408650d66c38617" target="_top" xlink:title=" ">
<polygon fill="white" stroke="#666666" points="543.75,-541.25 394.25,-541.25 394.25,-522 543.75,-522 543.75,-541.25"/>
<text text-anchor="middle" x="469" y="-527.75" font-family="Helvetica,sans-Serif" font-size="10.00">Core::handlePowerUpCollision</text>
</a>
</g>
</g>
<!-- Node3&#45;&gt;Node6 -->
<g id="edge5_Node000003_Node000006" class="edge">
<title>Node3&#45;&gt;Node6</title>
<g id="a_edge5_Node000003_Node000006"><a xlink:title=" ">
<path fill="none" stroke="#63b8ff" d="M289,-467.61C311.83,-479.93 352.7,-500.8 389.75,-513.62 395.05,-515.46 400.61,-517.16 406.23,-518.73"/>
<polygon fill="#63b8ff" stroke="#63b8ff" points="405.01,-522.03 415.57,-521.19 406.79,-515.26 405.01,-522.03"/>
</a>
</g>
</g>
<!-- Node7 -->
<g id="Node000007" class="node">
<title>Node7</title>
<g id="a_Node000007"><a xlink:href="class_core.html#a398cf70a8dafff61d11f9d0928ed6111" target="_top" xlink:title=" ">
<polygon fill="white" stroke="#666666" points="533.25,-430.25 404.75,-430.25 404.75,-411 533.25,-411 533.25,-430.25"/>
<text text-anchor="middle" x="469" y="-416.75" font-family="Helvetica,sans-Serif" font-size="10.00">Core::updatePlayerHealth</text>
</a>
</g>
</g>
<!-- Node3&#45;&gt;Node7 -->
<g id="edge6_Node000003_Node000007" class="edge">
<title>Node3&#45;&gt;Node7</title>
<g id="a_edge6_Node000003_Node000007"><a xlink:title=" ">
<path fill="none" stroke="#63b8ff" d="M324.83,-447.51C349.04,-442.97 377.83,-437.56 403.21,-432.79"/>
<polygon fill="#63b8ff" stroke="#63b8ff" points="403.56,-436.29 412.75,-431 402.27,-429.41 403.56,-436.29"/>
</a>
</g>
</g>
<!-- Node7&#45;&gt;Node2 -->
<g id="edge7_Node000007_Node000002" class="edge">
<title>Node7&#45;&gt;Node2</title>
<g id="a_edge7_Node000007_Node000002"><a xlink:title=" ">
<path fill="none" stroke="#63b8ff" d="M510.15,-430.74C531.92,-435.71 559.39,-441.15 584.25,-443.62 808.37,-465.96 870.59,-469.31 1090.5,-420.62 1110.05,-416.3 1130.99,-408.35 1147.54,-401.23"/>
<polygon fill="#63b8ff" stroke="#63b8ff" points="1148.61,-404.58 1156.33,-397.33 1145.77,-398.18 1148.61,-404.58"/>
</a>
</g>
</g>
<!-- Node9&#45;&gt;Node7 -->
<g id="edge10_Node000009_Node000007" class="edge">
<title>Node9&#45;&gt;Node7</title>
<g id="a_edge10_Node000009_Node000007"><a xlink:title=" ">
<path fill="none" stroke="#63b8ff" d="M341.84,-420.62C358.42,-420.62 376.14,-420.62 392.9,-420.62"/>
<polygon fill="#63b8ff" stroke="#63b8ff" points="392.81,-424.13 402.81,-420.63 392.81,-417.13 392.81,-424.13"/>
</a>
</g>
</g>
<!-- Node10 -->
<g id="Node000010" class="node">
<title>Node10</title>
<g id="a_Node000010"><a xlink:href="class_core.html#ad9e2c3752fe957de05a7aa7a6675d502" target="_top" xlink:title=" ">
<polygon fill="white" stroke="#666666" points="523.12,-393.25 414.88,-393.25 414.88,-374 523.12,-374 523.12,-393.25"/>
<text text-anchor="middle" x="469" y="-379.75" font-family="Helvetica,sans-Serif" font-size="10.00">Core::updatePlayerId</text>
</a>
</g>
</g>
<!-- Node9&#45;&gt;Node10 -->
<g id="edge11_Node000009_Node000010" class="edge">
<title>Node9&#45;&gt;Node10</title>
<g id="a_edge11_Node000009_Node000010"><a xlink:title=" ">
<path fill="none" stroke="#63b8ff" d="M324.83,-410.51C349.14,-405.95 378.06,-400.52 403.53,-395.73"/>
<polygon fill="#63b8ff" stroke="#63b8ff" points="403.91,-399.22 413.09,-393.94 402.61,-392.34 403.91,-399.22"/>
</a>
</g>
</g>
<!-- Node11&#45;&gt;Node10 -->
<g id="edge13_Node000011_Node000010" class="edge">
<title>Node11&#45;&gt;Node10</title>
<g id="a_edge13_Node000011_Node000010"><a xlink:title=" ">
<path fill="none" stroke="#63b8ff" d="M353.4,-383.62C370.03,-383.62 387.29,-383.62 403.21,-383.62"/>
<polygon fill="#63b8ff" stroke="#63b8ff" points="403.03,-387.13 413.03,-383.63 403.03,-380.13 403.03,-387.13"/>
</a>
</g>
</g>
<!-- Node19 -->
<g id="Node000019" class="node">
<title>Node19</title>
<g id="a_Node000019"><a xlink:href="class_core.html#a42623cce6be1bf30af3a1bca1ed73ed6" target="_top" xlink:title=" ">
<polygon fill="white" stroke="#666666" points="511.5,-279.25 426.5,-279.25 426.5,-260 511.5,-260 511.5,-279.25"/>
<text text-anchor="middle" x="469" y="-265.75" font-family="Helvetica,sans-Serif" font-size="10.00">Core::gui_game</text>
</a>
</g>
</g>
<!-- Node18&#45;&gt;Node19 -->
<g id="edge21_Node000018_Node000019" class="edge">
<title>Node18&#45;&gt;Node19</title>
<g id="a_edge21_Node000018_Node000019"><a xlink:title=" ">
<path fill="none" stroke="#63b8ff" d="M323.28,-297.54C351.65,-292.07 386.65,-285.32 415.12,-279.82"/>
<polygon fill="#63b8ff" stroke="#63b8ff" points="415.44,-283.33 424.6,-278 414.12,-276.45 415.44,-283.33"/>
</a>
</g>
</g>
<!-- Node19&#45;&gt;Node1 -->
<g id="edge46_Node000019_Node000001" class="edge">
<title>Node19&#45;&gt;Node1</title>
<g id="a_edge46_Node000019_Node000001"><a xlink:title=" ">
<path fill="none" stroke="#63b8ff" d="M426.12,-267.59C363.31,-264.55 243.36,-258.73 161.57,-254.77"/>
<polygon fill="#63b8ff" stroke="#63b8ff" points="161.96,-251.28 151.81,-254.29 161.62,-258.27 161.96,-251.28"/>
</a>
</g>
</g>
<!-- Node19&#45;&gt;Node2 -->
<g id="edge43_Node000019_Node000002" class="edge">
<title>Node19&#45;&gt;Node2</title>
<g id="a_edge43_Node000019_Node000002"><a xlink:title=" ">
<path fill="none" stroke="#63b8ff" d="M485.23,-279.68C501.4,-290.58 527.43,-308.82 548.25,-326.62 565.45,-341.33 563.52,-353.55 584.25,-362.62 677.87,-403.64 982.1,-395.57 1115.19,-389.81"/>
<polygon fill="#63b8ff" stroke="#63b8ff" points="1115.03,-393.32 1124.87,-389.38 1114.72,-386.32 1115.03,-393.32"/>
</a>
</g>
</g>
<!-- Node20 -->
<g id="Node000020" class="node">
<title>Node20</title>
<g id="a_Node000020"><a xlink:href="class_core.html#a554a2d7af7f9aefe0a66e89773e681b2" target="_top" xlink:title=" ">
<polygon fill="white" stroke="#666666" points="722.88,-131.25 604.88,-131.25 604.88,-112 722.88,-112 722.88,-131.25"/>
<text text-anchor="middle" x="663.88" y="-117.75" font-family="Helvetica,sans-Serif" font-size="10.00">Core::checkInvincibility</text>
</a>
</g>
</g>
<!-- Node19&#45;&gt;Node20 -->
<g id="edge22_Node000019_Node000020" class="edge">
<title>Node19&#45;&gt;Node20</title>
<g id="a_edge22_Node000019_Node000020"><a xlink:title=" ">
<path fill="none" stroke="#63b8ff" d="M475.71,-259.6C490.31,-234.92 531.6,-171 584.25,-139.62 587.38,-137.76 590.68,-136.09 594.09,-134.59"/>
<polygon fill="#63b8ff" stroke="#63b8ff" points="595.07,-137.97 603.17,-131.14 592.58,-131.42 595.07,-137.97"/>
</a>
</g>
</g>
<!-- Node21 -->
<g id="Node000021" class="node">
<title>Node21</title>
<g id="a_Node000021"><a xlink:href="class_core.html#a9493dc851e77126a1bc9c005ec499159" target="_top" xlink:title=" ">
<polygon fill="white" stroke="#666666" points="718.75,-353.25 609,-353.25 609,-334 718.75,-334 718.75,-353.25"/>
<text text-anchor="middle" x="663.88" y="-339.75" font-family="Helvetica,sans-Serif" font-size="10.00">Core::control_system</text>
</a>
</g>
</g>
<!-- Node19&#45;&gt;Node21 -->
<g id="edge23_Node000019_Node000021" class="edge">
<title>Node19&#45;&gt;Node21</title>
<g id="a_edge23_Node000019_Node000021"><a xlink:title=" ">
<path fill="none" stroke="#63b8ff" d="M487.26,-279.66C509.17,-292.02 548.44,-312.94 584.25,-325.62 589.34,-327.43 594.69,-329.1 600.09,-330.63"/>
<polygon fill="#63b8ff" stroke="#63b8ff" points="599.18,-334.01 609.75,-333.2 600.98,-327.25 599.18,-334.01"/>
</a>
</g>
</g>
<!-- Node32 -->
<g id="Node000032" class="node">
<title>Node32</title>
<g id="a_Node000032"><a xlink:href="class_core.html#aa6b37e20d4a33fc29c07a9cd61f8a993" target="_top" xlink:title=" ">
<polygon fill="white" stroke="#666666" points="708.25,-242.25 619.5,-242.25 619.5,-223 708.25,-223 708.25,-242.25"/>
<text text-anchor="middle" x="663.88" y="-228.75" font-family="Helvetica,sans-Serif" font-size="10.00">Core::display_all</text>
</a>
</g>
</g>
<!-- Node19&#45;&gt;Node32 -->
<g id="edge41_Node000019_Node000032" class="edge">
<title>Node19&#45;&gt;Node32</title>
<g id="a_edge41_Node000019_Node000032"><a xlink:title=" ">
<path fill="none" stroke="#63b8ff" d="M511.85,-261.6C540.07,-256.18 577.59,-248.99 608.17,-243.12"/>
<polygon fill="#63b8ff" stroke="#63b8ff" points="608.45,-246.63 617.61,-241.31 607.13,-239.75 608.45,-246.63"/>
</a>
</g>
</g>
<!-- Node34 -->
<g id="Node000034" class="node">
<title>Node34</title>
<g id="a_Node000034"><a xlink:href="class_core.html#a39ca9509fdb72319509d1ec5a35e648b" target="_top" xlink:title=" ">
<polygon fill="white" stroke="#666666" points="713.88,-434.25 613.88,-434.25 613.88,-415 713.88,-415 713.88,-434.25"/>
<text text-anchor="middle" x="663.88" y="-420.75" font-family="Helvetica,sans-Serif" font-size="10.00">Core::gui_gamewin</text>
</a>
</g>
</g>
<!-- Node19&#45;&gt;Node34 -->
<g id="edge44_Node000019_Node000034" class="edge">
<title>Node19&#45;&gt;Node34</title>
<g id="a_edge44_Node000019_Node000034"><a xlink:title=" ">
<path fill="none" stroke="#63b8ff" d="M488.79,-279.72C506.04,-289.75 531.42,-306.52 548.25,-326.62 571.73,-354.67 556.45,-376.86 584.25,-400.62 589.86,-405.42 596.42,-409.26 603.31,-412.33"/>
<polygon fill="#63b8ff" stroke="#63b8ff" points="601.56,-415.41 612.15,-415.76 604.09,-408.88 601.56,-415.41"/>
</a>
</g>
</g>
<!-- Node35 -->
<g id="Node000035" class="node">
<title>Node35</title>
<g id="a_Node000035"><a xlink:href="class_core.html#a7598cae8d7f080449adeb642bec57f82" target="_top" xlink:title=" ">
<polygon fill="white" stroke="#666666" points="722.88,-316.25 604.88,-316.25 604.88,-297 722.88,-297 722.88,-316.25"/>
<text text-anchor="middle" x="663.88" y="-302.75" font-family="Helvetica,sans-Serif" font-size="10.00">Core::loadAssetsGame</text>
</a>
</g>
</g>
<!-- Node19&#45;&gt;Node35 -->
<g id="edge47_Node000019_Node000035" class="edge">
<title>Node19&#45;&gt;Node35</title>
<g id="a_edge47_Node000019_Node000035"><a xlink:title=" ">
<path fill="none" stroke="#63b8ff" d="M511.85,-277.65C537.38,-282.55 570.52,-288.91 599.24,-294.42"/>
<polygon fill="#63b8ff" stroke="#63b8ff" points="598.46,-297.83 608.94,-296.28 599.78,-290.96 598.46,-297.83"/>
</a>
</g>
</g>
<!-- Node36 -->
<g id="Node000036" class="node">
<title>Node36</title>
<g id="a_Node000036"><a xlink:href="class_core.html#a60c2e3c959b9936a76fc4ece0c15c824" target="_top" xlink:title=" ">
<polygon fill="white" stroke="#666666" points="743.5,-279.25 584.25,-279.25 584.25,-260 743.5,-260 743.5,-279.25"/>
<text text-anchor="middle" x="663.88" y="-265.75" font-family="Helvetica,sans-Serif" font-size="10.00">Core::loadBlackAndWhiteShader</text>
</a>
</g>
</g>
<!-- Node19&#45;&gt;Node36 -->
<g id="edge48_Node000019_Node000036" class="edge">
<title>Node19&#45;&gt;Node36</title>
<g id="a_edge48_Node000019_Node000036"><a xlink:title=" ">
<path fill="none" stroke="#63b8ff" d="M511.85,-269.62C529.69,-269.62 551.26,-269.62 572.43,-269.62"/>
<polygon fill="#63b8ff" stroke="#63b8ff" points="572.27,-273.13 582.27,-269.63 572.27,-266.13 572.27,-273.13"/>
</a>
</g>
</g>
<!-- Node37 -->
<g id="Node000037" class="node">
<title>Node37</title>
<g id="a_Node000037"><a xlink:href="class_core.html#a87bcabef342dd958994c72d7a6f90893" target="_top" xlink:title=" ">
<polygon fill="white" stroke="#666666" points="731.88,-205.25 595.88,-205.25 595.88,-186 731.88,-186 731.88,-205.25"/>
<text text-anchor="middle" x="663.88" y="-191.75" font-family="Helvetica,sans-Serif" font-size="10.00">Core::loadDaltonismShader</text>
</a>
</g>
</g>
<!-- Node19&#45;&gt;Node37 -->
<g id="edge49_Node000019_Node000037" class="edge">
<title>Node19&#45;&gt;Node37</title>
<g id="a_edge49_Node000019_Node000037"><a xlink:title=" ">
<path fill="none" stroke="#63b8ff" d="M487.26,-259.59C509.17,-247.23 548.44,-226.31 584.25,-213.62 589.34,-211.82 594.69,-210.15 600.09,-208.62"/>
<polygon fill="#63b8ff" stroke="#63b8ff" points="600.98,-212 609.75,-206.05 599.18,-205.24 600.98,-212"/>
</a>
</g>
</g>
<!-- Node38 -->
<g id="Node000038" class="node">
<title>Node38</title>
<g id="a_Node000038"><a xlink:href="class_core.html#a29ffabe78710e79a74cdcb1bebe48c72" target="_top" xlink:title=" ">
<polygon fill="white" stroke="#666666" points="716.88,-75.88 610.88,-75.88 610.88,-45.38 716.88,-45.38 716.88,-75.88"/>
<text text-anchor="start" x="618.88" y="-62.38" font-family="Helvetica,sans-Serif" font-size="10.00">Core::setup_position</text>
<text text-anchor="middle" x="663.88" y="-51.12" font-family="Helvetica,sans-Serif" font-size="10.00">_timer</text>
</a>
</g>
</g>
<!-- Node19&#45;&gt;Node38 -->
<g id="edge50_Node000019_Node000038" class="edge">
<title>Node19&#45;&gt;Node38</title>
<g id="a_edge50_Node000019_Node000038"><a xlink:title=" ">
<path fill="none" stroke="#63b8ff" d="M474.61,-259.76C488.02,-231.93 529.57,-151.62 584.25,-102.62 593.25,-94.56 604.07,-87.51 614.76,-81.61"/>
<polygon fill="#63b8ff" stroke="#63b8ff" points="616.33,-84.74 623.57,-77 613.09,-78.53 616.33,-84.74"/>
</a>
</g>
</g>
<!-- Node41 -->
<g id="Node000041" class="node">
<title>Node41</title>
<g id="a_Node000041"><a xlink:href="class_core.html#add546b58affbab300bbc14b34b7f091e" target="_top" xlink:title=" ">
<polygon fill="white" stroke="#666666" points="710.5,-168.25 617.25,-168.25 617.25,-149 710.5,-149 710.5,-168.25"/>
<text text-anchor="middle" x="663.88" y="-154.75" font-family="Helvetica,sans-Serif" font-size="10.00">Core::update_hud</text>
</a>
</g>
</g>
<!-- Node19&#45;&gt;Node41 -->
<g id="edge54_Node000019_Node000041" class="edge">
<title>Node19&#45;&gt;Node41</title>
<g id="a_edge54_Node000019_Node000041"><a xlink:title=" ">
<path fill="none" stroke="#63b8ff" d="M479.01,-259.73C497.04,-240.58 539.66,-198.39 584.25,-176.62 591.01,-173.32 598.4,-170.61 605.86,-168.39"/>
<polygon fill="#63b8ff" stroke="#63b8ff" points="606.54,-171.84 615.3,-165.87 604.73,-165.07 606.54,-171.84"/>
</a>
</g>
</g>
<!-- Node22 -->
<g id="Node000022" class="node">
<title>Node22</title>
<g id="a_Node000022"><a xlink:href="class_core.html#a63200a1cc9505da6942f9bd7642df237" target="_top" xlink:title=" ">
<polygon fill="white" stroke="#666666" points="905,-358.88 786.25,-358.88 786.25,-328.38 905,-328.38 905,-358.88"/>
<text text-anchor="start" x="794.25" y="-345.38" font-family="Helvetica,sans-Serif" font-size="10.00">Core::handle_horizontal</text>
<text text-anchor="middle" x="845.62" y="-334.12" font-family="Helvetica,sans-Serif" font-size="10.00">_movement</text>
</a>
</g>
</g>
<!-- Node21&#45;&gt;Node22 -->
<g id="edge24_Node000021_Node000022" class="edge">
<title>Node21&#45;&gt;Node22</title>
<g id="a_edge24_Node000021_Node000022"><a xlink:title=" ">
<path fill="none" stroke="#63b8ff" d="M718.81,-343.62C736.36,-343.62 756.11,-343.62 774.66,-343.62"/>
<polygon fill="#63b8ff" stroke="#63b8ff" points="774.52,-347.13 784.52,-343.63 774.52,-340.13 774.52,-347.13"/>
</a>
</g>
</g>
<!-- Node25 -->
<g id="Node000025" class="node">
<title>Node25</title>
<g id="a_Node000025"><a xlink:href="class_core.html#ac8463d54a65aacc36654e1dcd96166b9" target="_top" xlink:title=" ">
<polygon fill="white" stroke="#666666" points="896,-310.25 795.25,-310.25 795.25,-291 896,-291 896,-310.25"/>
<text text-anchor="middle" x="845.62" y="-296.75" font-family="Helvetica,sans-Serif" font-size="10.00">Core::handle_shoot</text>
</a>
</g>
</g>
<!-- Node21&#45;&gt;Node25 -->
<g id="edge29_Node000021_Node000025" class="edge">
<title>Node21&#45;&gt;Node25</title>
<g id="a_edge29_Node000021_Node000025"><a xlink:title=" ">
<path fill="none" stroke="#63b8ff" d="M709.4,-333.57C720.54,-331.02 732.47,-328.25 743.5,-325.62 759.94,-321.71 777.85,-317.32 793.97,-313.33"/>
<polygon fill="#63b8ff" stroke="#63b8ff" points="794.47,-316.81 803.33,-311 792.78,-310.02 794.47,-316.81"/>
</a>
</g>
</g>
<!-- Node26 -->
<g id="Node000026" class="node">
<title>Node26</title>
<g id="a_Node000026"><a xlink:href="class_core.html#a7a1438f7b147b90acbe4130458a3048c" target="_top" xlink:title=" ">
<polygon fill="white" stroke="#666666" points="899.75,-272.88 791.5,-272.88 791.5,-242.38 899.75,-242.38 899.75,-272.88"/>
<text text-anchor="start" x="799.5" y="-259.38" font-family="Helvetica,sans-Serif" font-size="10.00">Core::handle_vertical</text>
<text text-anchor="middle" x="845.62" y="-248.12" font-family="Helvetica,sans-Serif" font-size="10.00">_movement</text>
</a>
</g>
</g>
<!-- Node21&#45;&gt;Node26 -->
<g id="edge31_Node000021_Node000026" class="edge">
<title>Node21&#45;&gt;Node26</title>
<g id="a_edge31_Node000021_Node000026"><a xlink:title=" ">
<path fill="none" stroke="#63b8ff" d="M719.19,-336.16C727.71,-333.62 736.12,-330.2 743.5,-325.62 764.97,-312.31 758.92,-296.29 779.5,-281.62 780.88,-280.64 782.3,-279.69 783.77,-278.78"/>
<polygon fill="#63b8ff" stroke="#63b8ff" points="785.43,-281.86 792.5,-273.98 782.05,-275.73 785.43,-281.86"/>
</a>
</g>
</g>
<!-- Node23 -->
<g id="Node000023" class="node">
<title>Node23</title>
<g id="a_Node000023"><a xlink:href="class_core.html#a5bf4669d69fe8e52f0c41dff71c2c592" target="_top" xlink:title=" ">
<polygon fill="white" stroke="#666666" points="1090.5,-358.25 947.75,-358.25 947.75,-339 1090.5,-339 1090.5,-358.25"/>
<text text-anchor="middle" x="1019.12" y="-344.75" font-family="Helvetica,sans-Serif" font-size="10.00">Core::handle_horizontal_stop</text>
</a>
</g>
</g>
<!-- Node22&#45;&gt;Node23 -->
<g id="edge25_Node000022_Node000023" class="edge">
<title>Node22&#45;&gt;Node23</title>
<g id="a_edge25_Node000022_Node000023"><a xlink:title=" ">
<path fill="none" stroke="#63b8ff" d="M905.17,-345.33C915.14,-345.62 925.67,-345.93 936.12,-346.23"/>
<polygon fill="#63b8ff" stroke="#63b8ff" points="935.79,-349.73 945.89,-346.52 935.99,-342.73 935.79,-349.73"/>
</a>
</g>
</g>
<!-- Node24 -->
<g id="Node000024" class="node">
<title>Node24</title>
<g id="a_Node000024"><a xlink:href="class_core.html#a76ad333a648e0e20b1b12fb5a416774c" target="_top" xlink:title=" ">
<polygon fill="white" stroke="#666666" points="1069.5,-320.88 968.75,-320.88 968.75,-290.38 1069.5,-290.38 1069.5,-320.88"/>
<text text-anchor="start" x="976.75" y="-307.38" font-family="Helvetica,sans-Serif" font-size="10.00">Core::send_input_if</text>
<text text-anchor="middle" x="1019.12" y="-296.12" font-family="Helvetica,sans-Serif" font-size="10.00">_needed</text>
</a>
</g>
</g>
<!-- Node22&#45;&gt;Node24 -->
<g id="edge27_Node000022_Node000024" class="edge">
<title>Node22&#45;&gt;Node24</title>
<g id="a_edge27_Node000022_Node000024"><a xlink:title=" ">
<path fill="none" stroke="#63b8ff" d="M905.17,-330.65C922.04,-326.91 940.48,-322.83 957.48,-319.06"/>
<polygon fill="#63b8ff" stroke="#63b8ff" points="957.93,-322.55 966.94,-316.97 956.42,-315.71 957.93,-322.55"/>
</a>
</g>
</g>
<!-- Node23&#45;&gt;Node2 -->
<g id="edge26_Node000023_Node000002" class="edge">
<title>Node23&#45;&gt;Node2</title>
<g id="a_edge26_Node000023_Node000002"><a xlink:title=" ">
<path fill="none" stroke="#63b8ff" d="M1062.15,-358.71C1081.56,-363.37 1104.82,-368.95 1125.42,-373.89"/>
<polygon fill="#63b8ff" stroke="#63b8ff" points="1124.54,-377.28 1135.08,-376.21 1126.17,-370.47 1124.54,-377.28"/>
</a>
</g>
</g>
<!-- Node24&#45;&gt;Node2 -->
<g id="edge28_Node000024_Node000002" class="edge">
<title>Node24&#45;&gt;Node2</title>
<g id="a_edge28_Node000024_Node000002"><a xlink:title=" ">
<path fill="none" stroke="#63b8ff" d="M1069.96,-320.9C1076.97,-323.55 1084,-326.47 1090.5,-329.62 1114.05,-341.05 1138.9,-357.62 1156.17,-369.95"/>
<polygon fill="#63b8ff" stroke="#63b8ff" points="1154.02,-372.72 1164.17,-375.77 1158.14,-367.06 1154.02,-372.72"/>
</a>
</g>
</g>
<!-- Node25&#45;&gt;Node24 -->
<g id="edge30_Node000025_Node000024" class="edge">
<title>Node25&#45;&gt;Node24</title>
<g id="a_edge30_Node000025_Node000024"><a xlink:title=" ">
<path fill="none" stroke="#63b8ff" d="M896.23,-302.07C915.17,-302.62 936.98,-303.26 956.88,-303.84"/>
<polygon fill="#63b8ff" stroke="#63b8ff" points="956.72,-307.34 966.82,-304.13 956.93,-300.34 956.72,-307.34"/>
</a>
</g>
</g>
<!-- Node26&#45;&gt;Node24 -->
<g id="edge40_Node000026_Node000024" class="edge">
<title>Node26&#45;&gt;Node24</title>
<g id="a_edge40_Node000026_Node000024"><a xlink:title=" ">
<path fill="none" stroke="#63b8ff" d="M899.95,-272.55C918.11,-277.63 938.55,-283.35 957.26,-288.59"/>
<polygon fill="#63b8ff" stroke="#63b8ff" points="956.31,-291.96 966.89,-291.28 958.2,-285.22 956.31,-291.96"/>
</a>
</g>
</g>
<!-- Node27 -->
<g id="Node000027" class="node">
<title>Node27</title>
<g id="a_Node000027"><a xlink:href="class_core.html#a1ae796fe1ad262de4484a8838fa53c48" target="_top" xlink:title=" ">
<polygon fill="white" stroke="#666666" points="1072.12,-198.25 966.12,-198.25 966.12,-179 1072.12,-179 1072.12,-198.25"/>
<text text-anchor="middle" x="1019.12" y="-184.75" font-family="Helvetica,sans-Serif" font-size="10.00">Core::animate_down</text>
</a>
</g>
</g>
<!-- Node26&#45;&gt;Node27 -->
<g id="edge32_Node000026_Node000027" class="edge">
<title>Node26&#45;&gt;Node27</title>
<g id="a_edge32_Node000026_Node000027"><a xlink:title=" ">
<path fill="none" stroke="#63b8ff" d="M894.3,-241.9C900.29,-239.39 906.25,-236.62 911.75,-233.62 929.32,-224.07 929.71,-215.27 947.75,-206.62 950.89,-205.12 954.17,-203.73 957.53,-202.45"/>
<polygon fill="#63b8ff" stroke="#63b8ff" points="958.66,-205.76 966.98,-199.2 956.39,-199.14 958.66,-205.76"/>
</a>
</g>
</g>
<!-- Node29 -->
<g id="Node000029" class="node">
<title>Node29</title>
<g id="a_Node000029"><a xlink:href="class_core.html#a5c24c3d1aa2061ee09283ffe7943e256" target="_top" xlink:title=" ">
<polygon fill="white" stroke="#666666" points="1081.88,-161.25 956.38,-161.25 956.38,-142 1081.88,-142 1081.88,-161.25"/>
<text text-anchor="middle" x="1019.12" y="-147.75" font-family="Helvetica,sans-Serif" font-size="10.00">Core::animate_to_neutral</text>
</a>
</g>
</g>
<!-- Node26&#45;&gt;Node29 -->
<g id="edge34_Node000026_Node000029" class="edge">
<title>Node26&#45;&gt;Node29</title>
<g id="a_edge34_Node000026_Node000029"><a xlink:title=" ">
<path fill="none" stroke="#63b8ff" d="M899.64,-241.88C903.97,-239.49 908.08,-236.75 911.75,-233.62 936.59,-212.46 921.86,-189.49 947.75,-169.62 948.9,-168.74 950.1,-167.9 951.32,-167.1"/>
<polygon fill="#63b8ff" stroke="#63b8ff" points="952.8,-170.28 959.94,-162.45 949.47,-164.12 952.8,-170.28"/>
</a>
</g>
</g>
<!-- Node30 -->
<g id="Node000030" class="node">
<title>Node30</title>
<g id="a_Node000030"><a xlink:href="class_core.html#a32360bca0d21983d2d9b920229144fab" target="_top" xlink:title=" ">
<polygon fill="white" stroke="#666666" points="1065.75,-235.25 972.5,-235.25 972.5,-216 1065.75,-216 1065.75,-235.25"/>
<text text-anchor="middle" x="1019.12" y="-221.75" font-family="Helvetica,sans-Serif" font-size="10.00">Core::animate_up</text>
</a>
</g>
</g>
<!-- Node26&#45;&gt;Node30 -->
<g id="edge36_Node000026_Node000030" class="edge">
<title>Node26&#45;&gt;Node30</title>
<g id="a_edge36_Node000026_Node000030"><a xlink:title=" ">
<path fill="none" stroke="#63b8ff" d="M899.95,-247.68C919.26,-244.07 941.16,-239.99 960.8,-236.32"/>
<polygon fill="#63b8ff" stroke="#63b8ff" points="961.4,-239.77 970.58,-234.5 960.11,-232.89 961.4,-239.77"/>
</a>
</g>
</g>
<!-- Node31 -->
<g id="Node000031" class="node">
<title>Node31</title>
<g id="a_Node000031"><a xlink:href="class_core.html#a358f46d664d8eaa3680ec8de58a0fa1e" target="_top" xlink:title=" ">
<polygon fill="white" stroke="#666666" points="1085.25,-272.25 953,-272.25 953,-253 1085.25,-253 1085.25,-272.25"/>
<text text-anchor="middle" x="1019.12" y="-258.75" font-family="Helvetica,sans-Serif" font-size="10.00">Core::handle_vertical_stop</text>
</a>
</g>
</g>
<!-- Node26&#45;&gt;Node31 -->
<g id="edge38_Node000026_Node000031" class="edge">
<title>Node26&#45;&gt;Node31</title>
<g id="a_edge38_Node000026_Node000031"><a xlink:title=" ">
<path fill="none" stroke="#63b8ff" d="M899.95,-259.18C913.14,-259.56 927.53,-259.98 941.58,-260.39"/>
<polygon fill="#63b8ff" stroke="#63b8ff" points="941.15,-263.88 951.24,-260.68 941.35,-256.89 941.15,-263.88"/>
</a>
</g>
</g>
<!-- Node28 -->
<g id="Node000028" class="node">
<title>Node28</title>
<g id="a_Node000028"><a xlink:href="class_core.html#ae37ec3409102a80e9958b8c2910f16ef" target="_top" xlink:title=" ">
<polygon fill="white" stroke="#666666" points="1230.25,-203.88 1128.75,-203.88 1128.75,-173.38 1230.25,-173.38 1230.25,-203.88"/>
<text text-anchor="start" x="1136.75" y="-190.38" font-family="Helvetica,sans-Serif" font-size="10.00">Core::update_sprite</text>
<text text-anchor="middle" x="1179.5" y="-179.12" font-family="Helvetica,sans-Serif" font-size="10.00">_frame</text>
</a>
</g>
</g>
<!-- Node27&#45;&gt;Node28 -->
<g id="edge33_Node000027_Node000028" class="edge">
<title>Node27&#45;&gt;Node28</title>
<g id="a_edge33_Node000027_Node000028"><a xlink:title=" ">
<path fill="none" stroke="#63b8ff" d="M1072.42,-188.62C1086.78,-188.62 1102.48,-188.62 1117.29,-188.62"/>
<polygon fill="#63b8ff" stroke="#63b8ff" points="1116.9,-192.13 1126.9,-188.63 1116.9,-185.13 1116.9,-192.13"/>
</a>
</g>
</g>
<!-- Node29&#45;&gt;Node28 -->
<g id="edge35_Node000029_Node000028" class="edge">
<title>Node29&#45;&gt;Node28</title>
<g id="a_edge35_Node000029_Node000028"><a xlink:title=" ">
<path fill="none" stroke="#63b8ff" d="M1063.4,-161.74C1080.01,-165.62 1099.3,-170.12 1117.28,-174.32"/>
<polygon fill="#63b8ff" stroke="#63b8ff" points="1116.26,-177.68 1126.79,-176.55 1117.85,-170.86 1116.26,-177.68"/>
</a>
</g>
</g>
<!-- Node30&#45;&gt;Node28 -->
<g id="edge37_Node000030_Node000028" class="edge">
<title>Node30&#45;&gt;Node28</title>
<g id="a_edge37_Node000030_Node000028"><a xlink:title=" ">
<path fill="none" stroke="#63b8ff" d="M1063.4,-215.51C1080.01,-211.63 1099.3,-207.13 1117.28,-202.93"/>
<polygon fill="#63b8ff" stroke="#63b8ff" points="1117.85,-206.39 1126.79,-200.7 1116.26,-199.57 1117.85,-206.39"/>
</a>
</g>
</g>
<!-- Node31&#45;&gt;Node2 -->
<g id="edge39_Node000031_Node000002" class="edge">
<title>Node31&#45;&gt;Node2</title>
<g id="a_edge39_Node000031_Node000002"><a xlink:title=" ">
<path fill="none" stroke="#63b8ff" d="M1072.04,-272.71C1078.52,-275.08 1084.85,-278.01 1090.5,-281.62 1124.92,-303.61 1152.75,-343.34 1167.35,-367.12"/>
<polygon fill="#63b8ff" stroke="#63b8ff" points="1164.22,-368.69 1172.33,-375.5 1170.23,-365.12 1164.22,-368.69"/>
</a>
</g>
</g>
<!-- Node33 -->
<g id="Node000033" class="node">
<title>Node33</title>
<g id="a_Node000033"><a xlink:href="class_core.html#ae4b485ff1d26a87dbfb1f94051e1f902" target="_top" xlink:title=" ">
<polygon fill="white" stroke="#666666" points="909.12,-224.25 782.12,-224.25 782.12,-205 909.12,-205 909.12,-224.25"/>
<text text-anchor="middle" x="845.62" y="-210.75" font-family="Helvetica,sans-Serif" font-size="10.00">Core::displayRegistryInfo</text>
</a>
</g>
</g>
<!-- Node32&#45;&gt;Node33 -->
<g id="edge42_Node000032_Node000033" class="edge">
<title>Node32&#45;&gt;Node33</title>
<g id="a_edge42_Node000032_Node000033"><a xlink:title=" ">
<path fill="none" stroke="#63b8ff" d="M708.39,-228.27C727.06,-226.4 749.41,-224.16 770.55,-222.04"/>
<polygon fill="#63b8ff" stroke="#63b8ff" points="770.7,-225.55 780.3,-221.07 770,-218.58 770.7,-225.55"/>
</a>
</g>
</g>
<!-- Node34&#45;&gt;Node2 -->
<g id="edge45_Node000034_Node000002" class="edge">
<title>Node34&#45;&gt;Node2</title>
<g id="a_edge45_Node000034_Node000002"><a xlink:title=" ">
<path fill="none" stroke="#63b8ff" d="M714.16,-423.47C793.59,-421.24 954.73,-415.21 1090.5,-400.62 1098.34,-399.78 1106.55,-398.72 1114.67,-397.56"/>
<polygon fill="#63b8ff" stroke="#63b8ff" points="1115.16,-401.02 1124.54,-396.09 1114.13,-394.1 1115.16,-401.02"/>
</a>
</g>
</g>
<!-- Node38&#45;&gt;Node38 -->
<g id="edge53_Node000038_Node000038" class="edge">
<title>Node38&#45;&gt;Node38</title>
<g id="a_edge53_Node000038_Node000038"><a xlink:title=" ">
<path fill="none" stroke="#63b8ff" d="M631.67,-76.36C625.1,-85.43 635.83,-93.88 663.88,-93.88 679.21,-93.88 689.37,-91.35 694.35,-87.58"/>
<polygon fill="#63b8ff" stroke="#63b8ff" points="697.79,-88.27 695.85,-77.86 690.87,-87.21 697.79,-88.27"/>
</a>
</g>
</g>
<!-- Node39 -->
<g id="Node000039" class="node">
<title>Node39</title>
<g id="a_Node000039"><a xlink:href="class_systems.html#a310d4de4ff4f8212b2ded614e411d102" target="_top" xlink:title=" ">
<polygon fill="white" stroke="#666666" points="911.75,-70.25 779.5,-70.25 779.5,-51 911.75,-51 911.75,-70.25"/>
<text text-anchor="middle" x="845.62" y="-56.75" font-family="Helvetica,sans-Serif" font-size="10.00">Systems::position_system</text>
</a>
</g>
</g>
<!-- Node38&#45;&gt;Node39 -->
<g id="edge51_Node000038_Node000039" class="edge">
<title>Node38&#45;&gt;Node39</title>
<g id="a_edge51_Node000038_Node000039"><a xlink:title=" ">
<path fill="none" stroke="#63b8ff" d="M717.35,-60.62C733.25,-60.62 751.04,-60.62 768.17,-60.62"/>
<polygon fill="#63b8ff" stroke="#63b8ff" points="767.79,-64.13 777.79,-60.63 767.79,-57.13 767.79,-64.13"/>
</a>
</g>
</g>
<!-- Node40 -->
<g id="Node000040" class="node">
<title>Node40</title>
<g id="a_Node000040"><a xlink:href="classregistry.html#a3866ee276a5a1d78d00cd403e8e8c7d9" target="_top" xlink:title=" ">
<polygon fill="white" stroke="#666666" points="1082.25,-70.25 956,-70.25 956,-51 1082.25,-51 1082.25,-70.25"/>
<text text-anchor="middle" x="1019.12" y="-56.75" font-family="Helvetica,sans-Serif" font-size="10.00">registry::get_components</text>
</a>
</g>
</g>
<!-- Node39&#45;&gt;Node40 -->
<g id="edge52_Node000039_Node000040" class="edge">
<title>Node39&#45;&gt;Node40</title>
<g id="a_edge52_Node000039_Node000040"><a xlink:title=" ">
<path fill="none" stroke="#63b8ff" d="M911.95,-60.62C922.45,-60.62 933.38,-60.62 944.06,-60.62"/>
<polygon fill="#63b8ff" stroke="#63b8ff" points="944.01,-64.13 954.01,-60.63 944.01,-57.13 944.01,-64.13"/>
</a>
</g>
</g>
<!-- Node42&#45;&gt;Node34 -->
<g id="edge56_Node000042_Node000034" class="edge">
<title>Node42&#45;&gt;Node34</title>
<g id="a_edge56_Node000042_Node000034"><a xlink:title=" ">
<path fill="none" stroke="#63b8ff" d="M527.39,-355.67C534.65,-358.06 541.79,-361 548.25,-364.62 567.98,-375.71 564.85,-388.98 584.25,-400.62 590.83,-404.57 598.11,-407.92 605.51,-410.75"/>
<polygon fill="#63b8ff" stroke="#63b8ff" points="604.34,-414.05 614.94,-414.03 606.64,-407.44 604.34,-414.05"/>
</a>
</g>
</g>
</g>
</svg>
