<?xml version="1.0" encoding="UTF-8" standalone="no"?>
<!DOCTYPE svg PUBLIC "-//W3C//DTD SVG 1.1//EN"
 "http://www.w3.org/Graphics/SVG/1.1/DTD/svg11.dtd">
<!-- Generated by graphviz version 12.2.1 (20241206.2353)
 -->
<!-- Title: Core::encode_action Pages: 1 -->
<svg width="1945pt" height="538pt"
 viewBox="0.00 0.00 1945.00 538.35" xmlns="http://www.w3.org/2000/svg" xmlns:xlink="http://www.w3.org/1999/xlink">
<g id="graph0" class="graph" transform="scale(1 1) rotate(0) translate(4 534.35)">
<title>Core::encode_action</title>
<!-- Node1 -->
<g id="Node000001" class="node">
<title>Node1</title>
<g id="a_Node000001"><a xlink:title=" ">
<polygon fill="#999999" stroke="#666666" points="1937,-322.25 1831,-322.25 1831,-303 1937,-303 1937,-322.25"/>
<text text-anchor="middle" x="1884" y="-308.75" font-family="Helvetica,sans-Serif" font-size="10.00">Core::encode_action</text>
</a>
</g>
</g>
<!-- Node2 -->
<g id="Node000002" class="node">
<title>Node2</title>
<g id="a_Node000002"><a xlink:href="class_core.html#a42623cce6be1bf30af3a1bca1ed73ed6" target="_top" xlink:title=" ">
<polygon fill="white" stroke="#666666" points="1291.38,-236.25 1206.38,-236.25 1206.38,-217 1291.38,-217 1291.38,-236.25"/>
<text text-anchor="middle" x="1248.88" y="-222.75" font-family="Helvetica,sans-Serif" font-size="10.00">Core::gui_game</text>
</a>
</g>
</g>
<!-- Node1&#45;&gt;Node2 -->
<g id="edge1_Node000001_Node000002" class="edge">
<title>Node1&#45;&gt;Node2</title>
<g id="a_edge1_Node000001_Node000002"><a xlink:title=" ">
<path fill="none" stroke="#63b8ff" d="M1878.08,-292.02C1868.61,-257.35 1844.25,-188.03 1795,-156.62 1617.2,-43.24 1340.13,-177.79 1267.69,-216.7"/>
<polygon fill="#63b8ff" stroke="#63b8ff" points="1874.58,-292.44 1880.45,-301.26 1881.36,-290.7 1874.58,-292.44"/>
</a>
</g>
</g>
<!-- Node4 -->
<g id="Node000004" class="node">
<title>Node4</title>
<g id="a_Node000004"><a xlink:href="class_core.html#aae2b137a9885ae1ac3d740786cfdcb34" target="_top" xlink:title=" ">
<polygon fill="white" stroke="#666666" points="956,-324.25 805.75,-324.25 805.75,-305 956,-305 956,-324.25"/>
<text text-anchor="middle" x="880.88" y="-310.75" font-family="Helvetica,sans-Serif" font-size="10.00">Core::handleServerCommands</text>
</a>
</g>
</g>
<!-- Node1&#45;&gt;Node4 -->
<g id="edge28_Node000001_Node000004" class="edge">
<title>Node1&#45;&gt;Node4</title>
<g id="a_edge28_Node000001_Node000004"><a xlink:title=" ">
<path fill="none" stroke="#63b8ff" d="M1837.97,-325.51C1824.29,-328.84 1809.14,-331.96 1795,-333.62 1731.99,-341.04 1715.69,-334.24 1652.25,-333.62 1497.01,-332.12 1150.16,-323.37 992,-318.62 980.43,-318.28 968.18,-317.87 956.21,-317.45"/>
<polygon fill="#63b8ff" stroke="#63b8ff" points="1838.77,-328.92 1847.6,-323.06 1837.04,-322.14 1838.77,-328.92"/>
</a>
</g>
</g>
<!-- Node5 -->
<g id="Node000005" class="node">
<title>Node5</title>
<g id="a_Node000005"><a xlink:href="class_core.html#ab5c7da5be504f0f34380b1ca5b97924b" target="_top" xlink:title=" ">
<polygon fill="white" stroke="#666666" points="769.75,-324.25 685.5,-324.25 685.5,-305 769.75,-305 769.75,-324.25"/>
<text text-anchor="middle" x="727.62" y="-310.75" font-family="Helvetica,sans-Serif" font-size="10.00">Core::gui_lobby</text>
</a>
</g>
</g>
<!-- Node1&#45;&gt;Node5 -->
<g id="edge20_Node000001_Node000005" class="edge">
<title>Node1&#45;&gt;Node5</title>
<g id="a_edge20_Node000001_Node000005"><a xlink:title=" ">
<path fill="none" stroke="#63b8ff" d="M1872.21,-332.51C1857.97,-356.61 1830.5,-396.37 1795,-415.62 1701.57,-466.29 1664.16,-446.62 1557.88,-446.62 1557.88,-446.62 1557.88,-446.62 1068,-446.62 933.34,-446.62 787.82,-355.24 742.74,-324.55"/>
<polygon fill="#63b8ff" stroke="#63b8ff" points="1875.15,-334.41 1877.05,-323.99 1869.07,-330.95 1875.15,-334.41"/>
</a>
</g>
</g>
<!-- Node6 -->
<g id="Node000006" class="node">
<title>Node6</title>
<g id="a_Node000006"><a xlink:href="class_core.html#ae373e5e53d26163bfc20d236fd116f89" target="_top" xlink:title=" ">
<polygon fill="white" stroke="#666666" points="637.5,-324.25 574.25,-324.25 574.25,-305 637.5,-305 637.5,-324.25"/>
<text text-anchor="middle" x="605.88" y="-310.75" font-family="Helvetica,sans-Serif" font-size="10.00">Core::login</text>
</a>
</g>
</g>
<!-- Node1&#45;&gt;Node6 -->
<g id="edge31_Node000001_Node000006" class="edge">
<title>Node1&#45;&gt;Node6</title>
<g id="a_edge31_Node000001_Node000006"><a xlink:title=" ">
<path fill="none" stroke="#63b8ff" d="M1879.3,-333.71C1871.37,-372.11 1848.86,-453.02 1795,-491.62 1708.62,-553.55 1664.16,-522.62 1557.88,-522.62 1557.88,-522.62 1557.88,-522.62 879.88,-522.62 747.6,-522.62 639.44,-366.21 613.04,-324.66"/>
<polygon fill="#63b8ff" stroke="#63b8ff" points="1882.73,-334.41 1881.18,-323.93 1875.86,-333.09 1882.73,-334.41"/>
</a>
</g>
</g>
<!-- Node12 -->
<g id="Node000012" class="node">
<title>Node12</title>
<g id="a_Node000012"><a xlink:href="class_core.html#afe1c190b0d03ded99b7408538b16998c" target="_top" xlink:title=" ">
<polygon fill="white" stroke="#666666" points="649.5,-219.25 562.25,-219.25 562.25,-200 649.5,-200 649.5,-219.25"/>
<text text-anchor="middle" x="605.88" y="-205.75" font-family="Helvetica,sans-Serif" font-size="10.00">Core::login_auto</text>
</a>
</g>
</g>
<!-- Node1&#45;&gt;Node12 -->
<g id="edge32_Node000001_Node000012" class="edge">
<title>Node1&#45;&gt;Node12</title>
<g id="a_edge32_Node000001_Node000012"><a xlink:title=" ">
<path fill="none" stroke="#63b8ff" d="M1880.02,-291.48C1873.03,-250.1 1851.7,-158.23 1795,-109.62 1712.3,-38.72 1666.81,-47.63 1557.88,-47.62 1557.88,-47.62 1557.88,-47.62 879.88,-47.62 759.73,-47.62 646.24,-165.1 615.19,-199.98"/>
<polygon fill="#63b8ff" stroke="#63b8ff" points="1876.55,-291.97 1881.54,-301.31 1883.47,-290.89 1876.55,-291.97"/>
</a>
</g>
</g>
<!-- Node13 -->
<g id="Node000013" class="node">
<title>Node13</title>
<g id="a_Node000013"><a xlink:href="class_core.html#aab6ce4588ad3f88438d30f12b7e9f8e7" target="_top" xlink:title=" ">
<polygon fill="white" stroke="#666666" points="1775.5,-19.25 1671.75,-19.25 1671.75,0 1775.5,0 1775.5,-19.25"/>
<text text-anchor="middle" x="1723.62" y="-5.75" font-family="Helvetica,sans-Serif" font-size="10.00">Core::gui_gameover</text>
</a>
</g>
</g>
<!-- Node1&#45;&gt;Node13 -->
<g id="edge15_Node000001_Node000013" class="edge">
<title>Node1&#45;&gt;Node13</title>
<g id="a_edge15_Node000001_Node000013"><a xlink:title=" ">
<path fill="none" stroke="#63b8ff" d="M1882.52,-291.39C1880.21,-239.95 1867.15,-107.47 1795,-33.62 1789.14,-27.62 1781.71,-23.12 1773.9,-19.75"/>
<polygon fill="#63b8ff" stroke="#63b8ff" points="1879.01,-291.25 1882.86,-301.13 1886.01,-291.01 1879.01,-291.25"/>
</a>
</g>
</g>
<!-- Node14 -->
<g id="Node000014" class="node">
<title>Node14</title>
<g id="a_Node000014"><a xlink:href="class_core.html#a39ca9509fdb72319509d1ec5a35e648b" target="_top" xlink:title=" ">
<polygon fill="white" stroke="#666666" points="1456.62,-305.25 1356.62,-305.25 1356.62,-286 1456.62,-286 1456.62,-305.25"/>
<text text-anchor="middle" x="1406.62" y="-291.75" font-family="Helvetica,sans-Serif" font-size="10.00">Core::gui_gamewin</text>
</a>
</g>
</g>
<!-- Node1&#45;&gt;Node14 -->
<g id="edge16_Node000001_Node000014" class="edge">
<title>Node1&#45;&gt;Node14</title>
<g id="a_edge16_Node000001_Node000014"><a xlink:title=" ">
<path fill="none" stroke="#63b8ff" d="M1819.43,-316.72C1742.86,-320.75 1610.42,-324.82 1497.5,-313.62 1481.51,-312.04 1464.14,-308.9 1448.98,-305.69"/>
<polygon fill="#63b8ff" stroke="#63b8ff" points="1819.47,-320.22 1829.26,-316.19 1819.09,-313.23 1819.47,-320.22"/>
</a>
</g>
</g>
<!-- Node16 -->
<g id="Node000016" class="node">
<title>Node16</title>
<g id="a_Node000016"><a xlink:href="class_core.html#a5bf4669d69fe8e52f0c41dff71c2c592" target="_top" xlink:title=" ">
<polygon fill="white" stroke="#666666" points="1795,-301.25 1652.25,-301.25 1652.25,-282 1795,-282 1795,-301.25"/>
<text text-anchor="middle" x="1723.62" y="-287.75" font-family="Helvetica,sans-Serif" font-size="10.00">Core::handle_horizontal_stop</text>
</a>
</g>
</g>
<!-- Node1&#45;&gt;Node16 -->
<g id="edge21_Node000001_Node000016" class="edge">
<title>Node1&#45;&gt;Node16</title>
<g id="a_edge21_Node000001_Node000016"><a xlink:title=" ">
<path fill="none" stroke="#63b8ff" d="M1819.3,-304.18C1811.38,-303.13 1803.25,-302.05 1795.23,-300.99"/>
<polygon fill="#63b8ff" stroke="#63b8ff" points="1818.83,-307.65 1829.2,-305.49 1819.75,-300.71 1818.83,-307.65"/>
</a>
</g>
</g>
<!-- Node19 -->
<g id="Node000019" class="node">
<title>Node19</title>
<g id="a_Node000019"><a xlink:href="class_core.html#a358f46d664d8eaa3680ec8de58a0fa1e" target="_top" xlink:title=" ">
<polygon fill="white" stroke="#666666" points="1789.75,-185.25 1657.5,-185.25 1657.5,-166 1789.75,-166 1789.75,-185.25"/>
<text text-anchor="middle" x="1723.62" y="-171.75" font-family="Helvetica,sans-Serif" font-size="10.00">Core::handle_vertical_stop</text>
</a>
</g>
</g>
<!-- Node1&#45;&gt;Node19 -->
<g id="edge25_Node000001_Node000019" class="edge">
<title>Node1&#45;&gt;Node19</title>
<g id="a_edge25_Node000001_Node000019"><a xlink:title=" ">
<path fill="none" stroke="#63b8ff" d="M1870.86,-293.05C1855.6,-269.81 1827.45,-231.11 1795,-206.62 1783.28,-197.78 1768.64,-190.81 1755.75,-185.74"/>
<polygon fill="#63b8ff" stroke="#63b8ff" points="1867.78,-294.73 1876.11,-301.26 1873.67,-290.96 1867.78,-294.73"/>
</a>
</g>
</g>
<!-- Node21 -->
<g id="Node000021" class="node">
<title>Node21</title>
<g id="a_Node000021"><a xlink:href="class_core.html#af3c5d8f82146c2112fe37135b574120a" target="_top" xlink:title=" ">
<polygon fill="white" stroke="#666666" points="936.12,-494.25 825.62,-494.25 825.62,-475 936.12,-475 936.12,-494.25"/>
<text text-anchor="middle" x="880.88" y="-480.75" font-family="Helvetica,sans-Serif" font-size="10.00">Core::load_spaceship</text>
</a>
</g>
</g>
<!-- Node1&#45;&gt;Node21 -->
<g id="edge29_Node000001_Node000021" class="edge">
<title>Node1&#45;&gt;Node21</title>
<g id="a_edge29_Node000001_Node000021"><a xlink:title=" ">
<path fill="none" stroke="#63b8ff" d="M1877.4,-332.99C1867.13,-366.05 1841.92,-430.71 1795,-460.62 1705.68,-517.57 1663.8,-484.62 1557.88,-484.62 1557.88,-484.62 1557.88,-484.62 1247.88,-484.62 1137.31,-484.62 1007.96,-484.62 936.44,-484.62"/>
<polygon fill="#63b8ff" stroke="#63b8ff" points="1880.63,-334.4 1880.09,-323.81 1873.92,-332.42 1880.63,-334.4"/>
</a>
</g>
</g>
<!-- Node22 -->
<g id="Node000022" class="node">
<title>Node22</title>
<g id="a_Node000022"><a xlink:href="class_core.html#a76ad333a648e0e20b1b12fb5a416774c" target="_top" xlink:title=" ">
<polygon fill="white" stroke="#666666" points="1774,-245.88 1673.25,-245.88 1673.25,-215.38 1774,-215.38 1774,-245.88"/>
<text text-anchor="start" x="1681.25" y="-232.38" font-family="Helvetica,sans-Serif" font-size="10.00">Core::send_input_if</text>
<text text-anchor="middle" x="1723.62" y="-221.12" font-family="Helvetica,sans-Serif" font-size="10.00">_needed</text>
</a>
</g>
</g>
<!-- Node1&#45;&gt;Node22 -->
<g id="edge33_Node000001_Node000022" class="edge">
<title>Node1&#45;&gt;Node22</title>
<g id="a_edge33_Node000001_Node000022"><a xlink:title=" ">
<path fill="none" stroke="#63b8ff" d="M1853.54,-297.37C1825.39,-282.8 1783.15,-260.93 1754.78,-246.24"/>
<polygon fill="#63b8ff" stroke="#63b8ff" points="1851.75,-300.38 1862.24,-301.87 1854.96,-294.17 1851.75,-300.38"/>
</a>
</g>
</g>
<!-- Node25 -->
<g id="Node000025" class="node">
<title>Node25</title>
<g id="a_Node000025"><a xlink:href="class_core.html#a398cf70a8dafff61d11f9d0928ed6111" target="_top" xlink:title=" ">
<polygon fill="white" stroke="#666666" points="1313.12,-418.25 1184.62,-418.25 1184.62,-399 1313.12,-399 1313.12,-418.25"/>
<text text-anchor="middle" x="1248.88" y="-404.75" font-family="Helvetica,sans-Serif" font-size="10.00">Core::updatePlayerHealth</text>
</a>
</g>
</g>
<!-- Node1&#45;&gt;Node25 -->
<g id="edge40_Node000001_Node000025" class="edge">
<title>Node1&#45;&gt;Node25</title>
<g id="a_edge40_Node000001_Node000025"><a xlink:title=" ">
<path fill="none" stroke="#63b8ff" d="M1867.37,-330.9C1851.25,-348.29 1824.36,-373.41 1795,-384.62 1630.62,-447.41 1417.79,-431.72 1313.36,-418.38"/>
<polygon fill="#63b8ff" stroke="#63b8ff" points="1869.71,-333.54 1873.77,-323.75 1864.49,-328.87 1869.71,-333.54"/>
</a>
</g>
</g>
<!-- Node3 -->
<g id="Node000003" class="node">
<title>Node3</title>
<g id="a_Node000003"><a xlink:href="class_core.html#a3b2840725a18b5e49614dd429f449289" target="_top" xlink:title=" ">
<polygon fill="white" stroke="#666666" points="1137.75,-267.25 1000.25,-267.25 1000.25,-248 1137.75,-248 1137.75,-267.25"/>
<text text-anchor="middle" x="1069" y="-253.75" font-family="Helvetica,sans-Serif" font-size="10.00">Core::handleStartCommand</text>
</a>
</g>
</g>
<!-- Node2&#45;&gt;Node3 -->
<g id="edge2_Node000002_Node000003" class="edge">
<title>Node2&#45;&gt;Node3</title>
<g id="a_edge2_Node000002_Node000003"><a xlink:title=" ">
<path fill="none" stroke="#63b8ff" d="M1194.84,-235.87C1173.77,-239.54 1149.47,-243.78 1127.94,-247.53"/>
<polygon fill="#63b8ff" stroke="#63b8ff" points="1195.43,-239.32 1204.68,-234.15 1194.23,-232.42 1195.43,-239.32"/>
</a>
</g>
</g>
<!-- Node2&#45;&gt;Node12 -->
<g id="edge14_Node000002_Node000012" class="edge">
<title>Node2&#45;&gt;Node12</title>
<g id="a_edge14_Node000002_Node000012"><a xlink:title=" ">
<path fill="none" stroke="#63b8ff" d="M1195.16,-219.32C1179.38,-217.43 1162.02,-215.64 1146,-214.62 961.74,-202.95 741.36,-206.3 649.91,-208.45"/>
<polygon fill="#63b8ff" stroke="#63b8ff" points="1194.47,-222.76 1204.83,-220.52 1195.34,-215.81 1194.47,-222.76"/>
</a>
</g>
</g>
<!-- Node3&#45;&gt;Node4 -->
<g id="edge3_Node000003_Node000004" class="edge">
<title>Node3&#45;&gt;Node4</title>
<g id="a_edge3_Node000003_Node000004"><a xlink:title=" ">
<path fill="none" stroke="#63b8ff" d="M1024.28,-271.01C990.74,-281.29 945.17,-295.24 914.71,-304.57"/>
<polygon fill="#63b8ff" stroke="#63b8ff" points="1025.17,-274.4 1033.71,-268.13 1023.12,-267.71 1025.17,-274.4"/>
</a>
</g>
</g>
<!-- Node4&#45;&gt;Node2 -->
<g id="edge4_Node000004_Node000002" class="edge">
<title>Node4&#45;&gt;Node2</title>
<g id="a_edge4_Node000004_Node000002"><a xlink:title=" ">
<path fill="none" stroke="#63b8ff" d="M900.37,-296.92C920.9,-278.54 955.93,-250.8 992,-238.62 1064.26,-214.24 1154.54,-217.14 1206.26,-221.71"/>
<polygon fill="#63b8ff" stroke="#63b8ff" points="898.11,-294.25 893.12,-303.59 902.85,-299.4 898.11,-294.25"/>
</a>
</g>
</g>
<!-- Node4&#45;&gt;Node5 -->
<g id="edge5_Node000004_Node000005" class="edge">
<title>Node4&#45;&gt;Node5</title>
<g id="a_edge5_Node000004_Node000005"><a xlink:title=" ">
<path fill="none" stroke="#63b8ff" d="M794.12,-314.62C785.76,-314.62 777.57,-314.62 769.97,-314.62"/>
<polygon fill="#63b8ff" stroke="#63b8ff" points="794.07,-318.13 804.07,-314.63 794.07,-311.13 794.07,-318.13"/>
</a>
</g>
</g>
<!-- Node5&#45;&gt;Node6 -->
<g id="edge6_Node000005_Node000006" class="edge">
<title>Node5&#45;&gt;Node6</title>
<g id="a_edge6_Node000005_Node000006"><a xlink:title=" ">
<path fill="none" stroke="#63b8ff" d="M673.92,-314.62C661.57,-314.62 648.81,-314.62 637.77,-314.62"/>
<polygon fill="#63b8ff" stroke="#63b8ff" points="673.56,-318.13 683.56,-314.63 673.56,-311.13 673.56,-318.13"/>
</a>
</g>
</g>
<!-- Node5&#45;&gt;Node12 -->
<g id="edge12_Node000005_Node000012" class="edge">
<title>Node5&#45;&gt;Node12</title>
<g id="a_edge12_Node000005_Node000012"><a xlink:title=" ">
<path fill="none" stroke="#63b8ff" d="M706.67,-297.13C681.32,-274.9 638.43,-237.29 618.15,-219.51"/>
<polygon fill="#63b8ff" stroke="#63b8ff" points="704.18,-299.6 714,-303.56 708.79,-294.33 704.18,-299.6"/>
</a>
</g>
</g>
<!-- Node7 -->
<g id="Node000007" class="node">
<title>Node7</title>
<g id="a_Node000007"><a xlink:href="class_core.html#a245f461d8f0f1feaa8b126f329c7db22" target="_top" xlink:title=" ">
<polygon fill="white" stroke="#666666" points="526.25,-303.25 403,-303.25 403,-284 526.25,-284 526.25,-303.25"/>
<text text-anchor="middle" x="464.62" y="-289.75" font-family="Helvetica,sans-Serif" font-size="10.00">Core::handleMouseClick</text>
</a>
</g>
</g>
<!-- Node6&#45;&gt;Node7 -->
<g id="edge7_Node000006_Node000007" class="edge">
<title>Node6&#45;&gt;Node7</title>
<g id="a_edge7_Node000006_Node000007"><a xlink:title=" ">
<path fill="none" stroke="#63b8ff" d="M562.65,-308.26C551.32,-306.55 538.84,-304.67 526.71,-302.84"/>
<polygon fill="#63b8ff" stroke="#63b8ff" points="562.06,-311.71 572.47,-309.74 563.11,-304.79 562.06,-311.71"/>
</a>
</g>
</g>
<!-- Node8 -->
<g id="Node000008" class="node">
<title>Node8</title>
<g id="a_Node000008"><a xlink:href="class_core.html#a1460b7116a24aa8c866c33c4f16bd5a4" target="_top" xlink:title=" ">
<polygon fill="white" stroke="#666666" points="367,-297.25 285.75,-297.25 285.75,-278 367,-278 367,-297.25"/>
<text text-anchor="middle" x="326.38" y="-283.75" font-family="Helvetica,sans-Serif" font-size="10.00">Core::gui_login</text>
</a>
</g>
</g>
<!-- Node7&#45;&gt;Node8 -->
<g id="edge8_Node000007_Node000008" class="edge">
<title>Node7&#45;&gt;Node8</title>
<g id="a_edge8_Node000007_Node000008"><a xlink:title=" ">
<path fill="none" stroke="#63b8ff" d="M391.34,-290.44C383.03,-290.08 374.8,-289.71 367.16,-289.38"/>
<polygon fill="#63b8ff" stroke="#63b8ff" points="391.02,-293.93 401.16,-290.87 391.32,-286.94 391.02,-293.93"/>
</a>
</g>
</g>
<!-- Node9 -->
<g id="Node000009" class="node">
<title>Node9</title>
<g id="a_Node000009"><a xlink:href="class_core.html#a78dfa9b9ed54a7ba8cfe1be701b79feb" target="_top" xlink:title=" ">
<polygon fill="white" stroke="#666666" points="249.75,-294.25 164.75,-294.25 164.75,-275 249.75,-275 249.75,-294.25"/>
<text text-anchor="middle" x="207.25" y="-280.75" font-family="Helvetica,sans-Serif" font-size="10.00">Core::gui_menu</text>
</a>
</g>
</g>
<!-- Node8&#45;&gt;Node9 -->
<g id="edge9_Node000008_Node000009" class="edge">
<title>Node8&#45;&gt;Node9</title>
<g id="a_edge9_Node000008_Node000009"><a xlink:title=" ">
<path fill="none" stroke="#63b8ff" d="M273.91,-286.31C265.93,-286.1 257.78,-285.89 250.05,-285.7"/>
<polygon fill="#63b8ff" stroke="#63b8ff" points="273.8,-289.8 283.88,-286.56 273.97,-282.81 273.8,-289.8"/>
</a>
</g>
</g>
<!-- Node10 -->
<g id="Node000010" class="node">
<title>Node10</title>
<g id="a_Node000010"><a xlink:href="class_core.html#aa6045a2323610bfa0ee712b028eb43e4" target="_top" xlink:title=" ">
<polygon fill="white" stroke="#666666" points="128.75,-293.25 73,-293.25 73,-274 128.75,-274 128.75,-293.25"/>
<text text-anchor="middle" x="100.88" y="-279.75" font-family="Helvetica,sans-Serif" font-size="10.00">Core::gui</text>
</a>
</g>
</g>
<!-- Node9&#45;&gt;Node10 -->
<g id="edge10_Node000009_Node000010" class="edge">
<title>Node9&#45;&gt;Node10</title>
<g id="a_edge10_Node000009_Node000010"><a xlink:title=" ">
<path fill="none" stroke="#63b8ff" d="M153.09,-284.12C144.76,-284.04 136.46,-283.96 129.04,-283.89"/>
<polygon fill="#63b8ff" stroke="#63b8ff" points="152.85,-287.61 162.88,-284.21 152.92,-280.61 152.85,-287.61"/>
</a>
</g>
</g>
<!-- Node11 -->
<g id="Node000011" class="node">
<title>Node11</title>
<g id="a_Node000011"><a xlink:href="client_2main_8cpp.html#a0ddf1224851353fc92bfbff6f499fa97" target="_top" xlink:title=" ">
<polygon fill="white" stroke="#666666" points="37,-262.25 0,-262.25 0,-243 37,-243 37,-262.25"/>
<text text-anchor="middle" x="18.5" y="-248.75" font-family="Helvetica,sans-Serif" font-size="10.00">main</text>
</a>
</g>
</g>
<!-- Node10&#45;&gt;Node11 -->
<g id="edge11_Node000010_Node000011" class="edge">
<title>Node10&#45;&gt;Node11</title>
<g id="a_edge11_Node000010_Node000011"><a xlink:title=" ">
<path fill="none" stroke="#63b8ff" d="M63.29,-269.51C54.31,-266.05 45.09,-262.5 37.44,-259.54"/>
<polygon fill="#63b8ff" stroke="#63b8ff" points="62,-272.77 72.59,-273.1 64.52,-266.24 62,-272.77"/>
</a>
</g>
</g>
<!-- Node12&#45;&gt;Node11 -->
<g id="edge13_Node000012_Node000011" class="edge">
<title>Node12&#45;&gt;Node11</title>
<g id="a_edge13_Node000012_Node000011"><a xlink:title=" ">
<path fill="none" stroke="#63b8ff" d="M550.8,-217.08C494.97,-224.13 405.25,-233.62 327.38,-233.62 327.38,-233.62 327.38,-233.62 206.25,-233.62 144,-233.62 70.69,-244.2 37.47,-249.57"/>
<polygon fill="#63b8ff" stroke="#63b8ff" points="551.22,-220.56 560.69,-215.81 550.32,-213.61 551.22,-220.56"/>
</a>
</g>
</g>
<!-- Node14&#45;&gt;Node2 -->
<g id="edge17_Node000014_Node000002" class="edge">
<title>Node14&#45;&gt;Node2</title>
<g id="a_edge17_Node000014_Node000002"><a xlink:title=" ">
<path fill="none" stroke="#63b8ff" d="M1372.56,-280.98C1342.48,-267.65 1298.86,-248.33 1272.55,-236.67"/>
<polygon fill="#63b8ff" stroke="#63b8ff" points="1371.03,-284.13 1381.59,-284.98 1373.87,-277.73 1371.03,-284.13"/>
</a>
</g>
</g>
<!-- Node15 -->
<g id="Node000015" class="node">
<title>Node15</title>
<g id="a_Node000015"><a xlink:href="class_core.html#a99550195181899dc74f311dec7d3df4e" target="_top" xlink:title=" ">
<polygon fill="white" stroke="#666666" points="1315.75,-305.25 1182,-305.25 1182,-286 1315.75,-286 1315.75,-305.25"/>
<text text-anchor="middle" x="1248.88" y="-291.75" font-family="Helvetica,sans-Serif" font-size="10.00">Core::handleWinCommand</text>
</a>
</g>
</g>
<!-- Node14&#45;&gt;Node15 -->
<g id="edge18_Node000014_Node000015" class="edge">
<title>Node14&#45;&gt;Node15</title>
<g id="a_edge18_Node000014_Node000015"><a xlink:title=" ">
<path fill="none" stroke="#63b8ff" d="M1345.04,-295.62C1335.59,-295.62 1325.78,-295.62 1316.21,-295.62"/>
<polygon fill="#63b8ff" stroke="#63b8ff" points="1344.83,-299.13 1354.83,-295.63 1344.83,-292.13 1344.83,-299.13"/>
</a>
</g>
</g>
<!-- Node15&#45;&gt;Node4 -->
<g id="edge19_Node000015_Node000004" class="edge">
<title>Node15&#45;&gt;Node4</title>
<g id="a_edge19_Node000015_Node000004"><a xlink:title=" ">
<path fill="none" stroke="#63b8ff" d="M1170.12,-299.66C1107.05,-302.94 1018.7,-307.52 956.49,-310.75"/>
<polygon fill="#63b8ff" stroke="#63b8ff" points="1170.28,-303.16 1180.08,-299.14 1169.92,-296.17 1170.28,-303.16"/>
</a>
</g>
</g>
<!-- Node17 -->
<g id="Node000017" class="node">
<title>Node17</title>
<g id="a_Node000017"><a xlink:href="class_core.html#a63200a1cc9505da6942f9bd7642df237" target="_top" xlink:title=" ">
<polygon fill="white" stroke="#666666" points="1616.25,-304.88 1497.5,-304.88 1497.5,-274.38 1616.25,-274.38 1616.25,-304.88"/>
<text text-anchor="start" x="1505.5" y="-291.38" font-family="Helvetica,sans-Serif" font-size="10.00">Core::handle_horizontal</text>
<text text-anchor="middle" x="1556.88" y="-280.12" font-family="Helvetica,sans-Serif" font-size="10.00">_movement</text>
</a>
</g>
</g>
<!-- Node16&#45;&gt;Node17 -->
<g id="edge22_Node000016_Node000017" class="edge">
<title>Node16&#45;&gt;Node17</title>
<g id="a_edge22_Node000016_Node000017"><a xlink:title=" ">
<path fill="none" stroke="#63b8ff" d="M1640.42,-290.63C1632.35,-290.53 1624.27,-290.43 1616.5,-290.34"/>
<polygon fill="#63b8ff" stroke="#63b8ff" points="1640.24,-294.13 1650.29,-290.75 1640.33,-287.13 1640.24,-294.13"/>
</a>
</g>
</g>
<!-- Node18 -->
<g id="Node000018" class="node">
<title>Node18</title>
<g id="a_Node000018"><a xlink:href="class_core.html#a9493dc851e77126a1bc9c005ec499159" target="_top" xlink:title=" ">
<polygon fill="white" stroke="#666666" points="1461.5,-243.25 1351.75,-243.25 1351.75,-224 1461.5,-224 1461.5,-243.25"/>
<text text-anchor="middle" x="1406.62" y="-229.75" font-family="Helvetica,sans-Serif" font-size="10.00">Core::control_system</text>
</a>
</g>
</g>
<!-- Node17&#45;&gt;Node18 -->
<g id="edge23_Node000017_Node000018" class="edge">
<title>Node17&#45;&gt;Node18</title>
<g id="a_edge23_Node000017_Node000018"><a xlink:title=" ">
<path fill="none" stroke="#63b8ff" d="M1503.64,-269.9C1480.12,-261.01 1453.37,-250.9 1434.09,-243.62"/>
<polygon fill="#63b8ff" stroke="#63b8ff" points="1502.18,-273.08 1512.77,-273.34 1504.65,-266.53 1502.18,-273.08"/>
</a>
</g>
</g>
<!-- Node18&#45;&gt;Node2 -->
<g id="edge24_Node000018_Node000002" class="edge">
<title>Node18&#45;&gt;Node2</title>
<g id="a_edge24_Node000018_Node000002"><a xlink:title=" ">
<path fill="none" stroke="#63b8ff" d="M1340.32,-230.69C1323.81,-229.95 1306.52,-229.17 1291.54,-228.5"/>
<polygon fill="#63b8ff" stroke="#63b8ff" points="1339.93,-234.18 1350.08,-231.13 1340.24,-227.18 1339.93,-234.18"/>
</a>
</g>
</g>
<!-- Node20 -->
<g id="Node000020" class="node">
<title>Node20</title>
<g id="a_Node000020"><a xlink:href="class_core.html#a7a1438f7b147b90acbe4130458a3048c" target="_top" xlink:title=" ">
<polygon fill="white" stroke="#666666" points="1611,-181.88 1502.75,-181.88 1502.75,-151.38 1611,-151.38 1611,-181.88"/>
<text text-anchor="start" x="1510.75" y="-168.38" font-family="Helvetica,sans-Serif" font-size="10.00">Core::handle_vertical</text>
<text text-anchor="middle" x="1556.88" y="-157.12" font-family="Helvetica,sans-Serif" font-size="10.00">_movement</text>
</a>
</g>
</g>
<!-- Node19&#45;&gt;Node20 -->
<g id="edge26_Node000019_Node000020" class="edge">
<title>Node19&#45;&gt;Node20</title>
<g id="a_edge26_Node000019_Node000020"><a xlink:title=" ">
<path fill="none" stroke="#63b8ff" d="M1645.55,-171.41C1633.98,-170.78 1622.27,-170.14 1611.34,-169.55"/>
<polygon fill="#63b8ff" stroke="#63b8ff" points="1645.35,-174.91 1655.53,-171.96 1645.73,-167.92 1645.35,-174.91"/>
</a>
</g>
</g>
<!-- Node20&#45;&gt;Node18 -->
<g id="edge27_Node000020_Node000018" class="edge">
<title>Node20&#45;&gt;Node18</title>
<g id="a_edge27_Node000020_Node000018"><a xlink:title=" ">
<path fill="none" stroke="#63b8ff" d="M1506.45,-186.72C1503.41,-188.02 1500.41,-189.33 1497.5,-190.62 1473.32,-201.37 1445.94,-214.63 1427.82,-223.56"/>
<polygon fill="#63b8ff" stroke="#63b8ff" points="1507.57,-190.04 1515.42,-182.92 1504.84,-183.6 1507.57,-190.04"/>
</a>
</g>
</g>
<!-- Node21&#45;&gt;Node5 -->
<g id="edge30_Node000021_Node000005" class="edge">
<title>Node21&#45;&gt;Node5</title>
<g id="a_edge30_Node000021_Node000005"><a xlink:title=" ">
<path fill="none" stroke="#63b8ff" d="M820.22,-470.02C815.03,-467.39 810.1,-464.28 805.75,-460.62 760.32,-422.44 737.93,-350.55 731.03,-324.43"/>
<polygon fill="#63b8ff" stroke="#63b8ff" points="818.49,-473.09 829.05,-473.92 821.31,-466.68 818.49,-473.09"/>
</a>
</g>
</g>
<!-- Node22&#45;&gt;Node5 -->
<g id="edge34_Node000022_Node000005" class="edge">
<title>Node22&#45;&gt;Node5</title>
<g id="a_edge34_Node000022_Node000005"><a xlink:title=" ">
<path fill="none" stroke="#63b8ff" d="M1673.62,-209.57C1666.05,-205.21 1658.64,-200.22 1652.25,-194.62 1631.1,-176.11 1640.53,-156.79 1616.25,-142.62 1535.83,-95.71 1500.73,-123.62 1407.62,-123.62 1407.62,-123.62 1407.62,-123.62 1247.88,-123.62 1036.08,-123.62 803.91,-265.33 743.59,-304.62"/>
<polygon fill="#63b8ff" stroke="#63b8ff" points="1671.79,-212.56 1682.25,-214.21 1675.1,-206.39 1671.79,-212.56"/>
</a>
</g>
</g>
<!-- Node22&#45;&gt;Node17 -->
<g id="edge35_Node000022_Node000017" class="edge">
<title>Node22&#45;&gt;Node17</title>
<g id="a_edge35_Node000022_Node000017"><a xlink:title=" ">
<path fill="none" stroke="#63b8ff" d="M1668.26,-250.09C1646.69,-257.82 1622.21,-266.58 1601.8,-273.9"/>
<polygon fill="#63b8ff" stroke="#63b8ff" points="1669.25,-253.46 1677.48,-246.79 1666.89,-246.87 1669.25,-253.46"/>
</a>
</g>
</g>
<!-- Node22&#45;&gt;Node20 -->
<g id="edge39_Node000022_Node000020" class="edge">
<title>Node22&#45;&gt;Node20</title>
<g id="a_edge39_Node000022_Node000020"><a xlink:title=" ">
<path fill="none" stroke="#63b8ff" d="M1671.79,-210.88C1648.18,-201.71 1620.5,-190.95 1598.33,-182.34"/>
<polygon fill="#63b8ff" stroke="#63b8ff" points="1670.32,-214.06 1680.91,-214.42 1672.86,-207.54 1670.32,-214.06"/>
</a>
</g>
</g>
<!-- Node23 -->
<g id="Node000023" class="node">
<title>Node23</title>
<g id="a_Node000023"><a xlink:href="class_core.html#ac8463d54a65aacc36654e1dcd96166b9" target="_top" xlink:title=" ">
<polygon fill="white" stroke="#666666" points="1607.25,-256.25 1506.5,-256.25 1506.5,-237 1607.25,-237 1607.25,-256.25"/>
<text text-anchor="middle" x="1556.88" y="-242.75" font-family="Helvetica,sans-Serif" font-size="10.00">Core::handle_shoot</text>
</a>
</g>
</g>
<!-- Node22&#45;&gt;Node23 -->
<g id="edge36_Node000022_Node000023" class="edge">
<title>Node22&#45;&gt;Node23</title>
<g id="a_edge36_Node000022_Node000023"><a xlink:title=" ">
<path fill="none" stroke="#63b8ff" d="M1661.97,-236.52C1644.07,-238.25 1624.69,-240.14 1607.56,-241.8"/>
<polygon fill="#63b8ff" stroke="#63b8ff" points="1662.07,-240.02 1671.69,-235.57 1661.4,-233.05 1662.07,-240.02"/>
</a>
</g>
</g>
<!-- Node24 -->
<g id="Node000024" class="node">
<title>Node24</title>
<g id="a_Node000024"><a xlink:href="class_core.html#a3735bea8b545e7ff9e5ae56299818352" target="_top" xlink:title=" ">
<polygon fill="white" stroke="#666666" points="1605,-219.25 1508.75,-219.25 1508.75,-200 1605,-200 1605,-219.25"/>
<text text-anchor="middle" x="1556.88" y="-205.75" font-family="Helvetica,sans-Serif" font-size="10.00">Core::handle_start</text>
</a>
</g>
</g>
<!-- Node22&#45;&gt;Node24 -->
<g id="edge38_Node000022_Node000024" class="edge">
<title>Node22&#45;&gt;Node24</title>
<g id="a_edge38_Node000022_Node000024"><a xlink:title=" ">
<path fill="none" stroke="#63b8ff" d="M1661.82,-222.87C1643.16,-220.5 1622.92,-217.92 1605.29,-215.67"/>
<polygon fill="#63b8ff" stroke="#63b8ff" points="1661.33,-226.34 1671.69,-224.13 1662.22,-219.4 1661.33,-226.34"/>
</a>
</g>
</g>
<!-- Node23&#45;&gt;Node18 -->
<g id="edge37_Node000023_Node000018" class="edge">
<title>Node23&#45;&gt;Node18</title>
<g id="a_edge37_Node000023_Node000018"><a xlink:title=" ">
<path fill="none" stroke="#63b8ff" d="M1494.88,-241.28C1483.93,-240.32 1472.59,-239.32 1461.85,-238.38"/>
<polygon fill="#63b8ff" stroke="#63b8ff" points="1494.32,-244.74 1504.59,-242.13 1494.93,-237.77 1494.32,-244.74"/>
</a>
</g>
</g>
<!-- Node26 -->
<g id="Node000026" class="node">
<title>Node26</title>
<g id="a_Node000026"><a xlink:href="class_core.html#a402d54bcd5820fda94013f08a54fe394" target="_top" xlink:title=" ">
<polygon fill="white" stroke="#666666" points="1146,-381.25 992,-381.25 992,-362 1146,-362 1146,-381.25"/>
<text text-anchor="middle" x="1069" y="-367.75" font-family="Helvetica,sans-Serif" font-size="10.00">Core::handleCollisionCommand</text>
</a>
</g>
</g>
<!-- Node25&#45;&gt;Node26 -->
<g id="edge41_Node000025_Node000026" class="edge">
<title>Node25&#45;&gt;Node26</title>
<g id="a_edge41_Node000025_Node000026"><a xlink:title=" ">
<path fill="none" stroke="#63b8ff" d="M1188.08,-396.19C1165.46,-391.48 1140.01,-386.19 1118.55,-381.72"/>
<polygon fill="#63b8ff" stroke="#63b8ff" points="1187.28,-399.6 1197.79,-398.21 1188.71,-392.74 1187.28,-399.6"/>
</a>
</g>
</g>
<!-- Node27 -->
<g id="Node000027" class="node">
<title>Node27</title>
<g id="a_Node000027"><a xlink:href="class_core.html#a6336489bf72426dc2c618a61832238ce" target="_top" xlink:title=" ">
<polygon fill="white" stroke="#666666" points="1140.38,-418.25 997.62,-418.25 997.62,-399 1140.38,-399 1140.38,-418.25"/>
<text text-anchor="middle" x="1069" y="-404.75" font-family="Helvetica,sans-Serif" font-size="10.00">Core::handleDeathCommand</text>
</a>
</g>
</g>
<!-- Node25&#45;&gt;Node27 -->
<g id="edge43_Node000025_Node000027" class="edge">
<title>Node25&#45;&gt;Node27</title>
<g id="a_edge43_Node000025_Node000027"><a xlink:title=" ">
<path fill="none" stroke="#63b8ff" d="M1172.8,-408.62C1162.2,-408.62 1151.33,-408.62 1140.82,-408.62"/>
<polygon fill="#63b8ff" stroke="#63b8ff" points="1172.65,-412.13 1182.65,-408.63 1172.65,-405.13 1172.65,-412.13"/>
</a>
</g>
</g>
<!-- Node26&#45;&gt;Node4 -->
<g id="edge42_Node000026_Node000004" class="edge">
<title>Node26&#45;&gt;Node4</title>
<g id="a_edge42_Node000026_Node000004"><a xlink:title=" ">
<path fill="none" stroke="#63b8ff" d="M1024.28,-358.24C990.74,-347.96 945.17,-334.01 914.71,-324.68"/>
<polygon fill="#63b8ff" stroke="#63b8ff" points="1023.12,-361.54 1033.71,-361.12 1025.17,-354.85 1023.12,-361.54"/>
</a>
</g>
</g>
<!-- Node27&#45;&gt;Node4 -->
<g id="edge44_Node000027_Node000004" class="edge">
<title>Node27&#45;&gt;Node4</title>
<g id="a_edge44_Node000027_Node000004"><a xlink:title=" ">
<path fill="none" stroke="#63b8ff" d="M1003.69,-395.21C999.68,-393.82 995.75,-392.29 992,-390.62 952.52,-373.07 912.27,-340.91 893.22,-324.63"/>
<polygon fill="#63b8ff" stroke="#63b8ff" points="1002.4,-398.47 1012.98,-398.14 1004.5,-391.8 1002.4,-398.47"/>
</a>
</g>
</g>
</g>
</svg>
