<?xml version="1.0" encoding="UTF-8" standalone="no"?>
<!DOCTYPE svg PUBLIC "-//W3C//DTD SVG 1.1//EN"
 "http://www.w3.org/Graphics/SVG/1.1/DTD/svg11.dtd">
<!-- Generated by graphviz version 12.2.1 (20241206.2353)
 -->
<!-- Title: ServerNetwork::receive_messages Pages: 1 -->
<svg width="436pt" height="112pt"
 viewBox="0.00 0.00 436.25 111.50" xmlns="http://www.w3.org/2000/svg" xmlns:xlink="http://www.w3.org/1999/xlink">
<g id="graph0" class="graph" transform="scale(1 1) rotate(0) translate(4 107.5)">
<title>ServerNetwork::receive_messages</title>
<!-- Node1 -->
<g id="Node000001" class="node">
<title>Node1</title>
<g id="a_Node000001"><a xlink:title=" ">
<polygon fill="#999999" stroke="#666666" points="118.75,-78.5 0,-78.5 0,-48 118.75,-48 118.75,-78.5"/>
<text text-anchor="start" x="8" y="-65" font-family="Helvetica,sans-Serif" font-size="10.00">ServerNetwork::receive</text>
<text text-anchor="middle" x="59.38" y="-53.75" font-family="Helvetica,sans-Serif" font-size="10.00">_messages</text>
</a>
</g>
</g>
<!-- Node2 -->
<g id="Node000002" class="node">
<title>Node2</title>
<g id="a_Node000002"><a xlink:href="class_server_network.html#ae7ffb8d734525e9bf4f6bac4fa10dbfe" target="_top" xlink:title=" ">
<polygon fill="white" stroke="#666666" points="273.5,-103.5 154.75,-103.5 154.75,-73 273.5,-73 273.5,-103.5"/>
<text text-anchor="start" x="162.75" y="-90" font-family="Helvetica,sans-Serif" font-size="10.00">ServerNetwork::decode</text>
<text text-anchor="middle" x="214.12" y="-78.75" font-family="Helvetica,sans-Serif" font-size="10.00">_message</text>
</a>
</g>
</g>
<!-- Node1&#45;&gt;Node2 -->
<g id="edge1_Node000001_Node000002" class="edge">
<title>Node1&#45;&gt;Node2</title>
<g id="a_edge1_Node000001_Node000002"><a xlink:title=" ">
<path fill="none" stroke="#63b8ff" d="M119,-72.84C126.89,-74.14 135.05,-75.47 143.11,-76.79"/>
<polygon fill="#63b8ff" stroke="#63b8ff" points="142.48,-80.23 152.92,-78.4 143.61,-73.33 142.48,-80.23"/>
</a>
</g>
</g>
<!-- Node3 -->
<g id="Node000003" class="node">
<title>Node3</title>
<g id="a_Node000003"><a xlink:href="class_server_network.html#afab7785be9c68eb1c569a36b64b358b6" target="_top" xlink:title=" ">
<polygon fill="white" stroke="#666666" points="272,-54.5 156.25,-54.5 156.25,-24 272,-24 272,-54.5"/>
<text text-anchor="start" x="164.25" y="-41" font-family="Helvetica,sans-Serif" font-size="10.00">ServerNetwork::handle</text>
<text text-anchor="middle" x="214.12" y="-29.75" font-family="Helvetica,sans-Serif" font-size="10.00">_game_message</text>
</a>
</g>
</g>
<!-- Node1&#45;&gt;Node3 -->
<g id="edge2_Node000001_Node000003" class="edge">
<title>Node1&#45;&gt;Node3</title>
<g id="a_edge2_Node000001_Node000003"><a xlink:title=" ">
<path fill="none" stroke="#63b8ff" d="M119,-54.04C127.42,-52.72 136.15,-51.34 144.74,-49.99"/>
<polygon fill="#63b8ff" stroke="#63b8ff" points="145.09,-53.48 154.43,-48.47 144,-46.57 145.09,-53.48"/>
</a>
</g>
</g>
<!-- Node4 -->
<g id="Node000004" class="node">
<title>Node4</title>
<g id="a_Node000004"><a xlink:href="class_server_network.html#a3cdc99eb8ed134a23329bf2d8f9c74d2" target="_top" xlink:title=" ">
<polygon fill="white" stroke="#666666" points="428.25,-79.5 309.5,-79.5 309.5,-49 428.25,-49 428.25,-79.5"/>
<text text-anchor="start" x="317.5" y="-66" font-family="Helvetica,sans-Serif" font-size="10.00">ServerNetwork::encode</text>
<text text-anchor="middle" x="368.88" y="-54.75" font-family="Helvetica,sans-Serif" font-size="10.00">_action</text>
</a>
</g>
</g>
<!-- Node3&#45;&gt;Node4 -->
<g id="edge3_Node000003_Node000004" class="edge">
<title>Node3&#45;&gt;Node4</title>
<g id="a_edge3_Node000003_Node000004"><a xlink:title=" ">
<path fill="none" stroke="#63b8ff" d="M272.44,-48.63C280.8,-50 289.48,-51.42 298.05,-52.82"/>
<polygon fill="#63b8ff" stroke="#63b8ff" points="297.29,-56.24 307.73,-54.41 298.43,-49.34 297.29,-56.24"/>
</a>
</g>
</g>
<!-- Node5 -->
<g id="Node000005" class="node">
<title>Node5</title>
<g id="a_Node000005"><a xlink:href="class_server_network.html#a0db1c8289d4b7ebb1274dab1d4dc9798" target="_top" xlink:title=" ">
<polygon fill="white" stroke="#666666" points="419.25,-30.5 318.5,-30.5 318.5,0 419.25,0 419.25,-30.5"/>
<text text-anchor="start" x="326.5" y="-17" font-family="Helvetica,sans-Serif" font-size="10.00">ServerNetwork::get</text>
<text text-anchor="middle" x="368.88" y="-5.75" font-family="Helvetica,sans-Serif" font-size="10.00">_action_name</text>
</a>
</g>
</g>
<!-- Node3&#45;&gt;Node5 -->
<g id="edge4_Node000003_Node000005" class="edge">
<title>Node3&#45;&gt;Node5</title>
<g id="a_edge4_Node000003_Node000005"><a xlink:title=" ">
<path fill="none" stroke="#63b8ff" d="M272.44,-30.25C283.74,-28.47 295.64,-26.6 307.05,-24.81"/>
<polygon fill="#63b8ff" stroke="#63b8ff" points="307.43,-28.29 316.76,-23.28 306.34,-21.38 307.43,-28.29"/>
</a>
</g>
</g>
</g>
</svg>
