<?xml version="1.0" encoding="UTF-8" standalone="no"?>
<!DOCTYPE svg PUBLIC "-//W3C//DTD SVG 1.1//EN"
 "http://www.w3.org/Graphics/SVG/1.1/DTD/svg11.dtd">
<!-- Generated by graphviz version 12.2.1 (20241206.2353)
 -->
<!-- Title: Core::handle_horizontal_movement Pages: 1 -->
<svg width="448pt" height="76pt"
 viewBox="0.00 0.00 447.50 75.88" xmlns="http://www.w3.org/2000/svg" xmlns:xlink="http://www.w3.org/1999/xlink">
<g id="graph0" class="graph" transform="scale(1 1) rotate(0) translate(4 71.88)">
<title>Core::handle_horizontal_movement</title>
<!-- Node1 -->
<g id="Node000001" class="node">
<title>Node1</title>
<g id="a_Node000001"><a xlink:title=" ">
<polygon fill="#999999" stroke="#666666" points="118.75,-51.5 0,-51.5 0,-21 118.75,-21 118.75,-51.5"/>
<text text-anchor="start" x="8" y="-38" font-family="Helvetica,sans-Serif" font-size="10.00">Core::handle_horizontal</text>
<text text-anchor="middle" x="59.38" y="-26.75" font-family="Helvetica,sans-Serif" font-size="10.00">_movement</text>
</a>
</g>
</g>
<!-- Node2 -->
<g id="Node000002" class="node">
<title>Node2</title>
<g id="a_Node000002"><a xlink:href="class_core.html#a5bf4669d69fe8e52f0c41dff71c2c592" target="_top" xlink:title=" ">
<polygon fill="white" stroke="#666666" points="297.5,-67.88 154.75,-67.88 154.75,-48.62 297.5,-48.62 297.5,-67.88"/>
<text text-anchor="middle" x="226.12" y="-54.38" font-family="Helvetica,sans-Serif" font-size="10.00">Core::handle_horizontal_stop</text>
</a>
</g>
</g>
<!-- Node1&#45;&gt;Node2 -->
<g id="edge1_Node000001_Node000002" class="edge">
<title>Node1&#45;&gt;Node2</title>
<g id="a_edge1_Node000001_Node000002"><a xlink:title=" ">
<path fill="none" stroke="#63b8ff" d="M118.92,-44.07C126.81,-45.12 135.01,-46.22 143.21,-47.31"/>
<polygon fill="#63b8ff" stroke="#63b8ff" points="142.48,-50.74 152.85,-48.6 143.4,-43.81 142.48,-50.74"/>
</a>
</g>
</g>
<!-- Node4 -->
<g id="Node000004" class="node">
<title>Node4</title>
<g id="a_Node000004"><a xlink:href="class_core.html#a76ad333a648e0e20b1b12fb5a416774c" target="_top" xlink:title=" ">
<polygon fill="white" stroke="#666666" points="276.5,-30.5 175.75,-30.5 175.75,0 276.5,0 276.5,-30.5"/>
<text text-anchor="start" x="183.75" y="-17" font-family="Helvetica,sans-Serif" font-size="10.00">Core::send_input_if</text>
<text text-anchor="middle" x="226.12" y="-5.75" font-family="Helvetica,sans-Serif" font-size="10.00">_needed</text>
</a>
</g>
</g>
<!-- Node1&#45;&gt;Node4 -->
<g id="edge3_Node000001_Node000004" class="edge">
<title>Node1&#45;&gt;Node4</title>
<g id="a_edge3_Node000001_Node000004"><a xlink:title=" ">
<path fill="none" stroke="#63b8ff" d="M118.92,-28.79C133.66,-26.91 149.52,-24.89 164.36,-22.99"/>
<polygon fill="#63b8ff" stroke="#63b8ff" points="164.51,-26.51 173.98,-21.77 163.62,-19.56 164.51,-26.51"/>
</a>
</g>
</g>
<!-- Node3 -->
<g id="Node000003" class="node">
<title>Node3</title>
<g id="a_Node000003"><a xlink:href="class_core.html#aad563284176b829fa64177092388ef31" target="_top" xlink:title=" ">
<polygon fill="white" stroke="#666666" points="439.5,-45.88 333.5,-45.88 333.5,-26.62 439.5,-26.62 439.5,-45.88"/>
<text text-anchor="middle" x="386.5" y="-32.38" font-family="Helvetica,sans-Serif" font-size="10.00">Core::encode_action</text>
</a>
</g>
</g>
<!-- Node2&#45;&gt;Node3 -->
<g id="edge2_Node000002_Node000003" class="edge">
<title>Node2&#45;&gt;Node3</title>
<g id="a_edge2_Node000002_Node000003"><a xlink:title=" ">
<path fill="none" stroke="#63b8ff" d="M297.97,-48.41C305.94,-47.3 314.02,-46.18 321.89,-45.09"/>
<polygon fill="#63b8ff" stroke="#63b8ff" points="322.31,-48.56 331.73,-43.72 321.35,-41.63 322.31,-48.56"/>
</a>
</g>
</g>
<!-- Node4&#45;&gt;Node3 -->
<g id="edge4_Node000004_Node000003" class="edge">
<title>Node4&#45;&gt;Node3</title>
<g id="a_edge4_Node000004_Node000003"><a xlink:title=" ">
<path fill="none" stroke="#63b8ff" d="M276.8,-21.84C291.11,-23.73 306.93,-25.83 321.96,-27.82"/>
<polygon fill="#63b8ff" stroke="#63b8ff" points="321.39,-31.28 331.76,-29.12 322.31,-24.34 321.39,-31.28"/>
</a>
</g>
</g>
</g>
</svg>
