<?xml version="1.0" encoding="UTF-8" standalone="no"?>
<!DOCTYPE svg PUBLIC "-//W3C//DTD SVG 1.1//EN"
 "http://www.w3.org/Graphics/SVG/1.1/DTD/svg11.dtd">
<!-- Generated by graphviz version 12.2.1 (20241206.2353)
 -->
<!-- Title: ServerNetwork::handleConciliation Pages: 1 -->
<svg width="341pt" height="88pt"
 viewBox="0.00 0.00 340.75 87.50" xmlns="http://www.w3.org/2000/svg" xmlns:xlink="http://www.w3.org/1999/xlink">
<g id="graph0" class="graph" transform="scale(1 1) rotate(0) translate(4 83.5)">
<title>ServerNetwork::handleConciliation</title>
<!-- Node1 -->
<g id="Node000001" class="node">
<title>Node1</title>
<g id="a_Node000001"><a xlink:title=" ">
<polygon fill="#999999" stroke="#666666" points="166.75,-48.88 0,-48.88 0,-29.62 166.75,-29.62 166.75,-48.88"/>
<text text-anchor="middle" x="83.38" y="-35.38" font-family="Helvetica,sans-Serif" font-size="10.00">ServerNetwork::handleConciliation</text>
</a>
</g>
</g>
<!-- Node2 -->
<g id="Node000002" class="node">
<title>Node2</title>
<g id="a_Node000002"><a xlink:href="class_server_network.html#a9fd1b21ff45df9e1576a0a50a79bacd7" target="_top" xlink:title=" ">
<polygon fill="white" stroke="#666666" points="332.75,-79.5 202.75,-79.5 202.75,-49 332.75,-49 332.75,-79.5"/>
<text text-anchor="start" x="210.75" y="-66" font-family="Helvetica,sans-Serif" font-size="10.00">ServerNetwork::broadcast</text>
<text text-anchor="middle" x="267.75" y="-54.75" font-family="Helvetica,sans-Serif" font-size="10.00">_message</text>
</a>
</g>
</g>
<!-- Node1&#45;&gt;Node2 -->
<g id="edge1_Node000001_Node000002" class="edge">
<title>Node1&#45;&gt;Node2</title>
<g id="a_edge1_Node000001_Node000002"><a xlink:title=" ">
<path fill="none" stroke="#63b8ff" d="M158.03,-49.35C168.96,-50.85 180.24,-52.39 191.21,-53.9"/>
<polygon fill="#63b8ff" stroke="#63b8ff" points="190.62,-57.35 201,-55.24 191.57,-50.41 190.62,-57.35"/>
</a>
</g>
</g>
<!-- Node3 -->
<g id="Node000003" class="node">
<title>Node3</title>
<g id="a_Node000003"><a xlink:href="class_server_network.html#a3cdc99eb8ed134a23329bf2d8f9c74d2" target="_top" xlink:title=" ">
<polygon fill="white" stroke="#666666" points="327.12,-30.5 208.38,-30.5 208.38,0 327.12,0 327.12,-30.5"/>
<text text-anchor="start" x="216.38" y="-17" font-family="Helvetica,sans-Serif" font-size="10.00">ServerNetwork::encode</text>
<text text-anchor="middle" x="267.75" y="-5.75" font-family="Helvetica,sans-Serif" font-size="10.00">_action</text>
</a>
</g>
</g>
<!-- Node1&#45;&gt;Node3 -->
<g id="edge2_Node000001_Node000003" class="edge">
<title>Node1&#45;&gt;Node3</title>
<g id="a_edge2_Node000001_Node000003"><a xlink:title=" ">
<path fill="none" stroke="#63b8ff" d="M161.19,-29.14C172.94,-27.59 185.03,-26 196.63,-24.48"/>
<polygon fill="#63b8ff" stroke="#63b8ff" points="197.08,-27.95 206.54,-23.17 196.16,-21.01 197.08,-27.95"/>
</a>
</g>
</g>
</g>
</svg>
