<?xml version="1.0" encoding="UTF-8" standalone="no"?>
<!DOCTYPE svg PUBLIC "-//W3C//DTD SVG 1.1//EN"
 "http://www.w3.org/Graphics/SVG/1.1/DTD/svg11.dtd">
<!-- Generated by graphviz version 12.2.1 (20241206.2353)
 -->
<!-- Title: ServerNetwork::start Pages: 1 -->
<svg width="579pt" height="112pt"
 viewBox="0.00 0.00 579.00 111.50" xmlns="http://www.w3.org/2000/svg" xmlns:xlink="http://www.w3.org/1999/xlink">
<g id="graph0" class="graph" transform="scale(1 1) rotate(0) translate(4 107.5)">
<title>ServerNetwork::start</title>
<!-- Node1 -->
<g id="Node000001" class="node">
<title>Node1</title>
<g id="a_Node000001"><a xlink:title=" ">
<polygon fill="#999999" stroke="#666666" points="106.75,-72.88 0,-72.88 0,-53.62 106.75,-53.62 106.75,-72.88"/>
<text text-anchor="middle" x="53.38" y="-59.38" font-family="Helvetica,sans-Serif" font-size="10.00">ServerNetwork::start</text>
</a>
</g>
</g>
<!-- Node2 -->
<g id="Node000002" class="node">
<title>Node2</title>
<g id="a_Node000002"><a xlink:href="class_server_network.html#a231bfb41bda1137994952ec41e01c5d0" target="_top" xlink:title=" ">
<polygon fill="white" stroke="#666666" points="261.5,-78.5 142.75,-78.5 142.75,-48 261.5,-48 261.5,-78.5"/>
<text text-anchor="start" x="150.75" y="-65" font-family="Helvetica,sans-Serif" font-size="10.00">ServerNetwork::receive</text>
<text text-anchor="middle" x="202.12" y="-53.75" font-family="Helvetica,sans-Serif" font-size="10.00">_messages</text>
</a>
</g>
</g>
<!-- Node1&#45;&gt;Node2 -->
<g id="edge1_Node000001_Node000002" class="edge">
<title>Node1&#45;&gt;Node2</title>
<g id="a_edge1_Node000001_Node000002"><a xlink:title=" ">
<path fill="none" stroke="#63b8ff" d="M106.94,-63.25C114.77,-63.25 122.94,-63.25 131.05,-63.25"/>
<polygon fill="#63b8ff" stroke="#63b8ff" points="130.94,-66.75 140.94,-63.25 130.94,-59.75 130.94,-66.75"/>
</a>
</g>
</g>
<!-- Node3 -->
<g id="Node000003" class="node">
<title>Node3</title>
<g id="a_Node000003"><a xlink:href="class_server_network.html#ae7ffb8d734525e9bf4f6bac4fa10dbfe" target="_top" xlink:title=" ">
<polygon fill="white" stroke="#666666" points="416.25,-103.5 297.5,-103.5 297.5,-73 416.25,-73 416.25,-103.5"/>
<text text-anchor="start" x="305.5" y="-90" font-family="Helvetica,sans-Serif" font-size="10.00">ServerNetwork::decode</text>
<text text-anchor="middle" x="356.88" y="-78.75" font-family="Helvetica,sans-Serif" font-size="10.00">_message</text>
</a>
</g>
</g>
<!-- Node2&#45;&gt;Node3 -->
<g id="edge2_Node000002_Node000003" class="edge">
<title>Node2&#45;&gt;Node3</title>
<g id="a_edge2_Node000002_Node000003"><a xlink:title=" ">
<path fill="none" stroke="#63b8ff" d="M261.75,-72.84C269.64,-74.14 277.8,-75.47 285.86,-76.79"/>
<polygon fill="#63b8ff" stroke="#63b8ff" points="285.23,-80.23 295.67,-78.4 286.36,-73.33 285.23,-80.23"/>
</a>
</g>
</g>
<!-- Node4 -->
<g id="Node000004" class="node">
<title>Node4</title>
<g id="a_Node000004"><a xlink:href="class_server_network.html#afab7785be9c68eb1c569a36b64b358b6" target="_top" xlink:title=" ">
<polygon fill="white" stroke="#666666" points="414.75,-54.5 299,-54.5 299,-24 414.75,-24 414.75,-54.5"/>
<text text-anchor="start" x="307" y="-41" font-family="Helvetica,sans-Serif" font-size="10.00">ServerNetwork::handle</text>
<text text-anchor="middle" x="356.88" y="-29.75" font-family="Helvetica,sans-Serif" font-size="10.00">_game_message</text>
</a>
</g>
</g>
<!-- Node2&#45;&gt;Node4 -->
<g id="edge3_Node000002_Node000004" class="edge">
<title>Node2&#45;&gt;Node4</title>
<g id="a_edge3_Node000002_Node000004"><a xlink:title=" ">
<path fill="none" stroke="#63b8ff" d="M261.75,-54.04C270.17,-52.72 278.9,-51.34 287.49,-49.99"/>
<polygon fill="#63b8ff" stroke="#63b8ff" points="287.84,-53.48 297.18,-48.47 286.75,-46.57 287.84,-53.48"/>
</a>
</g>
</g>
<!-- Node5 -->
<g id="Node000005" class="node">
<title>Node5</title>
<g id="a_Node000005"><a xlink:href="class_server_network.html#a3cdc99eb8ed134a23329bf2d8f9c74d2" target="_top" xlink:title=" ">
<polygon fill="white" stroke="#666666" points="571,-79.5 452.25,-79.5 452.25,-49 571,-49 571,-79.5"/>
<text text-anchor="start" x="460.25" y="-66" font-family="Helvetica,sans-Serif" font-size="10.00">ServerNetwork::encode</text>
<text text-anchor="middle" x="511.62" y="-54.75" font-family="Helvetica,sans-Serif" font-size="10.00">_action</text>
</a>
</g>
</g>
<!-- Node4&#45;&gt;Node5 -->
<g id="edge4_Node000004_Node000005" class="edge">
<title>Node4&#45;&gt;Node5</title>
<g id="a_edge4_Node000004_Node000005"><a xlink:title=" ">
<path fill="none" stroke="#63b8ff" d="M415.19,-48.63C423.55,-50 432.23,-51.42 440.8,-52.82"/>
<polygon fill="#63b8ff" stroke="#63b8ff" points="440.04,-56.24 450.48,-54.41 441.18,-49.34 440.04,-56.24"/>
</a>
</g>
</g>
<!-- Node6 -->
<g id="Node000006" class="node">
<title>Node6</title>
<g id="a_Node000006"><a xlink:href="class_server_network.html#a0db1c8289d4b7ebb1274dab1d4dc9798" target="_top" xlink:title=" ">
<polygon fill="white" stroke="#666666" points="562,-30.5 461.25,-30.5 461.25,0 562,0 562,-30.5"/>
<text text-anchor="start" x="469.25" y="-17" font-family="Helvetica,sans-Serif" font-size="10.00">ServerNetwork::get</text>
<text text-anchor="middle" x="511.62" y="-5.75" font-family="Helvetica,sans-Serif" font-size="10.00">_action_name</text>
</a>
</g>
</g>
<!-- Node4&#45;&gt;Node6 -->
<g id="edge5_Node000004_Node000006" class="edge">
<title>Node4&#45;&gt;Node6</title>
<g id="a_edge5_Node000004_Node000006"><a xlink:title=" ">
<path fill="none" stroke="#63b8ff" d="M415.19,-30.25C426.49,-28.47 438.39,-26.6 449.8,-24.81"/>
<polygon fill="#63b8ff" stroke="#63b8ff" points="450.18,-28.29 459.51,-23.28 449.09,-21.38 450.18,-28.29"/>
</a>
</g>
</g>
</g>
</svg>
