<?xml version="1.0" encoding="UTF-8" standalone="no"?>
<!DOCTYPE svg PUBLIC "-//W3C//DTD SVG 1.1//EN"
 "http://www.w3.org/Graphics/SVG/1.1/DTD/svg11.dtd">
<!-- Generated by graphviz version 12.2.1 (20241206.2353)
 -->
<!-- Title: sparse_array::sparse_array Pages: 1 -->
<svg width="271pt" height="211pt"
 viewBox="0.00 0.00 271.00 210.88" xmlns="http://www.w3.org/2000/svg" xmlns:xlink="http://www.w3.org/1999/xlink">
<g id="graph0" class="graph" transform="scale(1 1) rotate(0) translate(4 206.88)">
<title>sparse_array::sparse_array</title>
<!-- Node1 -->
<g id="Node000001" class="node">
<title>Node1</title>
<g id="a_Node000001"><a xlink:title=" ">
<polygon fill="#999999" stroke="#666666" points="263,-128.5 155.5,-128.5 155.5,-98 263,-98 263,-128.5"/>
<text text-anchor="start" x="163.5" y="-115" font-family="Helvetica,sans-Serif" font-size="10.00">sparse_array::sparse</text>
<text text-anchor="middle" x="209.25" y="-103.75" font-family="Helvetica,sans-Serif" font-size="10.00">_array</text>
</a>
</g>
</g>
<!-- Node2 -->
<g id="Node000002" class="node">
<title>Node2</title>
<g id="a_Node000002"><a xlink:href="classsparse__array.html#a7d08dd3b7bf4dd2247ab7596936ba5be" target="_top" xlink:title=" ">
<polygon fill="white" stroke="#666666" points="119.5,-202.88 0,-202.88 0,-183.62 119.5,-183.62 119.5,-202.88"/>
<text text-anchor="middle" x="59.75" y="-189.38" font-family="Helvetica,sans-Serif" font-size="10.00">sparse_array::operator=</text>
</a>
</g>
</g>
<!-- Node1&#45;&gt;Node2 -->
<g id="edge1_Node000001_Node000002" class="edge">
<title>Node1&#45;&gt;Node2</title>
<g id="a_edge1_Node000001_Node000002"><a xlink:title=" ">
<path fill="none" stroke="#63b8ff" d="M180.85,-135.76C163.99,-148.74 141.45,-164.55 119.5,-175.25 113.27,-178.29 106.41,-180.94 99.65,-183.22"/>
<polygon fill="#63b8ff" stroke="#63b8ff" points="182.71,-138.76 188.41,-129.83 178.38,-133.25 182.71,-138.76"/>
</a>
</g>
</g>
<!-- Node3 -->
<g id="Node000003" class="node">
<title>Node3</title>
<g id="a_Node000003"><a xlink:href="classsparse__array.html#a1f8c213f7e998b54425fda09f2453077" target="_top" xlink:title=" ">
<polygon fill="white" stroke="#666666" points="119.5,-165.88 0,-165.88 0,-146.62 119.5,-146.62 119.5,-165.88"/>
<text text-anchor="middle" x="59.75" y="-152.38" font-family="Helvetica,sans-Serif" font-size="10.00">sparse_array::operator=</text>
</a>
</g>
</g>
<!-- Node1&#45;&gt;Node3 -->
<g id="edge2_Node000001_Node000003" class="edge">
<title>Node1&#45;&gt;Node3</title>
<g id="a_edge2_Node000001_Node000003"><a xlink:title=" ">
<path fill="none" stroke="#63b8ff" d="M144.45,-131.85C127.56,-136.77 109.95,-141.91 95.27,-146.19"/>
<polygon fill="#63b8ff" stroke="#63b8ff" points="145.34,-135.24 153.96,-129.08 143.38,-128.51 145.34,-135.24"/>
</a>
</g>
</g>
<!-- Node4 -->
<g id="Node000004" class="node">
<title>Node4</title>
<g id="a_Node000004"><a xlink:href="classsparse__array.html#ae3d7b6071f4910c92d3e83dd61c2c60c" target="_top" xlink:title=" ">
<polygon fill="white" stroke="#666666" points="113.5,-128.5 6,-128.5 6,-98 113.5,-98 113.5,-128.5"/>
<text text-anchor="start" x="14" y="-115" font-family="Helvetica,sans-Serif" font-size="10.00">sparse_array::sparse</text>
<text text-anchor="middle" x="59.75" y="-103.75" font-family="Helvetica,sans-Serif" font-size="10.00">_array</text>
</a>
</g>
</g>
<!-- Node1&#45;&gt;Node4 -->
<g id="edge3_Node000001_Node000004" class="edge">
<title>Node1&#45;&gt;Node4</title>
<g id="a_edge3_Node000001_Node000004"><a xlink:title=" ">
<path fill="none" stroke="#63b8ff" d="M144.11,-113.25C133.96,-113.25 123.57,-113.25 113.71,-113.25"/>
<polygon fill="#63b8ff" stroke="#63b8ff" points="143.9,-116.75 153.9,-113.25 143.9,-109.75 143.9,-116.75"/>
</a>
</g>
</g>
<!-- Node5 -->
<g id="Node000005" class="node">
<title>Node5</title>
<g id="a_Node000005"><a xlink:href="classsparse__array.html#ad93b07fae9a6a1e0029768fd8aa22703" target="_top" xlink:title=" ">
<polygon fill="white" stroke="#666666" points="113.5,-79.5 6,-79.5 6,-49 113.5,-49 113.5,-79.5"/>
<text text-anchor="start" x="14" y="-66" font-family="Helvetica,sans-Serif" font-size="10.00">sparse_array::sparse</text>
<text text-anchor="middle" x="59.75" y="-54.75" font-family="Helvetica,sans-Serif" font-size="10.00">_array</text>
</a>
</g>
</g>
<!-- Node1&#45;&gt;Node5 -->
<g id="edge4_Node000001_Node000005" class="edge">
<title>Node1&#45;&gt;Node5</title>
<g id="a_edge4_Node000001_Node000005"><a xlink:title=" ">
<path fill="none" stroke="#63b8ff" d="M150.62,-94.1C136.55,-89.43 121.66,-84.49 108.14,-79.99"/>
<polygon fill="#63b8ff" stroke="#63b8ff" points="149.14,-97.3 159.74,-97.13 151.35,-90.66 149.14,-97.3"/>
</a>
</g>
</g>
<!-- Node6 -->
<g id="Node000006" class="node">
<title>Node6</title>
<g id="a_Node000006"><a xlink:href="classsparse__array.html#a462f64cc46c81b54e7c7d1181f7b889f" target="_top" xlink:title=" ">
<polygon fill="white" stroke="#666666" points="116.5,-30.5 3,-30.5 3,0 116.5,0 116.5,-30.5"/>
<text text-anchor="start" x="11" y="-17" font-family="Helvetica,sans-Serif" font-size="10.00">sparse_array::~sparse</text>
<text text-anchor="middle" x="59.75" y="-5.75" font-family="Helvetica,sans-Serif" font-size="10.00">_array</text>
</a>
</g>
</g>
<!-- Node1&#45;&gt;Node6 -->
<g id="edge5_Node000001_Node000006" class="edge">
<title>Node1&#45;&gt;Node6</title>
<g id="a_edge5_Node000001_Node000006"><a xlink:title=" ">
<path fill="none" stroke="#63b8ff" d="M184.05,-90.11C166.97,-74.61 143.03,-54.53 119.5,-40.25 114,-36.92 107.98,-33.81 101.96,-31"/>
<polygon fill="#63b8ff" stroke="#63b8ff" points="181.48,-92.5 191.2,-96.71 186.23,-87.35 181.48,-92.5"/>
</a>
</g>
</g>
</g>
</svg>
