<?xml version="1.0" encoding="UTF-8" standalone="no"?>
<!DOCTYPE svg PUBLIC "-//W3C//DTD SVG 1.1//EN"
 "http://www.w3.org/Graphics/SVG/1.1/DTD/svg11.dtd">
<!-- Generated by graphviz version 12.2.1 (20241206.2353)
 -->
<!-- Title: ServerGame::setup_position_timer Pages: 1 -->
<svg width="478pt" height="57pt"
 viewBox="0.00 0.00 478.25 56.50" xmlns="http://www.w3.org/2000/svg" xmlns:xlink="http://www.w3.org/1999/xlink">

<svg id="main" version="1.1" xmlns="http://www.w3.org/2000/svg" xmlns:xlink="http://www.w3.org/1999/xlink" xml:space="preserve">

<style type="text/css"><![CDATA[
.node, .edge {opacity: 0.7;}
.node.selected, .edge.selected {opacity: 1;}
.edge:hover path { stroke: red; }
.edge:hover polygon { stroke: red; fill: red; }
]]></style>
<script type="application/ecmascript" xlink:href="svg.min.js"/>
<svg id="graph" class="graph">
<g id="graph0" class="graph" transform="scale(1 1) rotate(0) translate(4 52.5)">
<title>ServerGame::setup_position_timer</title>
<!-- Node1 -->
<g id="Node000001" class="node">
<title>Node1</title>
<g id="a_Node000001"><a xlink:title=" ">
<polygon fill="#999999" stroke="#666666" points="139.75,-30.5 0,-30.5 0,0 139.75,0 139.75,-30.5"/>
<text text-anchor="start" x="8" y="-17" font-family="Helvetica,sans-Serif" font-size="10.00">ServerGame::setup_position</text>
<text text-anchor="middle" x="69.88" y="-5.75" font-family="Helvetica,sans-Serif" font-size="10.00">_timer</text>
</a>
</g>
</g>
<!-- Node1&#45;&gt;Node1 -->
<g id="edge3_Node000001_Node000001" class="edge">
<title>Node1&#45;&gt;Node1</title>
<g id="a_edge3_Node000001_Node000001"><a xlink:title=" ">
<path fill="none" stroke="#63b8ff" d="M39.4,-30.99C33.18,-40.06 43.34,-48.5 69.88,-48.5 84.39,-48.5 94,-45.97 98.72,-42.2"/>
<polygon fill="#63b8ff" stroke="#63b8ff" points="102.16,-42.88 100.14,-32.48 95.23,-41.87 102.16,-42.88"/>
</a>
</g>
</g>
<!-- Node2 -->
<g id="Node000002" class="node">
<title>Node2</title>
<g id="a_Node000002"><a xlink:href="class_systems.html#a310d4de4ff4f8212b2ded614e411d102" target="_top" xlink:title=" ">
<polygon fill="white" stroke="#666666" points="308,-24.88 175.75,-24.88 175.75,-5.63 308,-5.63 308,-24.88"/>
<text text-anchor="middle" x="241.88" y="-11.38" font-family="Helvetica,sans-Serif" font-size="10.00">Systems::position_system</text>
</a>
</g>
</g>
<!-- Node1&#45;&gt;Node2 -->
<g id="edge1_Node000001_Node000002" class="edge">
<title>Node1&#45;&gt;Node2</title>
<g id="a_edge1_Node000001_Node000002"><a xlink:title=" ">
<path fill="none" stroke="#63b8ff" d="M140.02,-15.25C147.96,-15.25 156.08,-15.25 164.11,-15.25"/>
<polygon fill="#63b8ff" stroke="#63b8ff" points="163.85,-18.75 173.85,-15.25 163.85,-11.75 163.85,-18.75"/>
</a>
</g>
</g>
<!-- Node3 -->
<g id="Node000003" class="node">
<title>Node3</title>
<g id="a_Node000003"><a xlink:href="classregistry.html#a3866ee276a5a1d78d00cd403e8e8c7d9" target="_top" xlink:title=" ">
<polygon fill="white" stroke="#666666" points="470.25,-24.88 344,-24.88 344,-5.63 470.25,-5.63 470.25,-24.88"/>
<text text-anchor="middle" x="407.12" y="-11.38" font-family="Helvetica,sans-Serif" font-size="10.00">registry::get_components</text>
</a>
</g>
</g>
<!-- Node2&#45;&gt;Node3 -->
<g id="edge2_Node000002_Node000003" class="edge">
<title>Node2&#45;&gt;Node3</title>
<g id="a_edge2_Node000002_Node000003"><a xlink:title=" ">
<path fill="none" stroke="#63b8ff" d="M308.33,-15.25C316.14,-15.25 324.15,-15.25 332.07,-15.25"/>
<polygon fill="#63b8ff" stroke="#63b8ff" points="332.05,-18.75 342.05,-15.25 332.05,-11.75 332.05,-18.75"/>
</a>
</g>
</g>
</g>
</svg>
</svg>

<style type='text/css'>
<![CDATA[
[data-mouse-over-selected='false'] { opacity: 0.7; }
[data-mouse-over-selected='true']  { opacity: 1.0; }
]]>
</style>
<script type="application/ecmascript"><![CDATA[
document.addEventListener('DOMContentLoaded', (event) => {
  highlightEdges();
  highlightAdjacentNodes();
});
]]></script>
</svg>
