<?xml version="1.0" encoding="UTF-8" standalone="no"?>
<!DOCTYPE svg PUBLIC "-//W3C//DTD SVG 1.1//EN"
 "http://www.w3.org/Graphics/SVG/1.1/DTD/svg11.dtd">
<!-- Generated by graphviz version 12.2.1 (20241206.2353)
 -->
<!-- Title: registry::get_components Pages: 1 -->
<!--zoomable 310 -->

<svg id="main" version="1.1" xmlns="http://www.w3.org/2000/svg" xmlns:xlink="http://www.w3.org/1999/xlink" xml:space="preserve" onload="init(evt)">

<style type="text/css"><![CDATA[
.node, .edge {opacity: 0.7;}
.node.selected, .edge.selected {opacity: 1;}
.edge:hover path { stroke: red; }
.edge:hover polygon { stroke: red; fill: red; }
]]></style>

<defs>
  <circle id="rim" cx="0" cy="0" r="7"/>
  <circle id="rim2" cx="0" cy="0" r="3.5"/>
  <g id="zoomPlus">
    <use xlink:href="#rim" fill="#404040"><set attributeName="fill" to="#808080" begin="zoomplus.mouseover" end="zoomplus.mouseout"/></use>
    <path d="M-4,0h8M0,-4v8" fill="none" stroke="white" stroke-width="1.5" pointer-events="none"/>
  </g>
  <g id="zoomMin">
    <use xlink:href="#rim" fill="#404040"><set attributeName="fill" to="#808080" begin="zoomminus.mouseover" end="zoomminus.mouseout"/></use>
    <path d="M-4,0h8" fill="none" stroke="white" stroke-width="1.5" pointer-events="none"/>
  </g>
  <g id="arrowUp" transform="translate(30 24)">
    <use xlink:href="#rim"/>
    <path pointer-events="none" fill="none" stroke="white" stroke-width="1.5" d="M0,-3.0v7 M-2.5,-0.5L0,-3.0L2.5,-0.5"/>
  </g>
  <g id="arrowRight" transform="rotate(90) translate(36 -43)">
    <use xlink:href="#rim"/>
    <path pointer-events="none" fill="none" stroke="white" stroke-width="1.5" d="M0,-3.0v7 M-2.5,-0.5L0,-3.0L2.5,-0.5"/>
  </g>
  <g id="arrowDown" transform="rotate(180) translate(-30 -48)">
    <use xlink:href="#rim"/>
    <path pointer-events="none" fill="none" stroke="white" stroke-width="1.5" d="M0,-3.0v7 M-2.5,-0.5L0,-3.0L2.5,-0.5"/>
  </g>
  <g id="arrowLeft" transform="rotate(270) translate(-36 17)">
    <use xlink:href="#rim"/>
    <path pointer-events="none" fill="none" stroke="white" stroke-width="1.5" d="M0,-3.0v7 M-2.5,-0.5L0,-3.0L2.5,-0.5"/>
  </g>
  <g id="resetDef">
    <use xlink:href="#rim2" fill="#404040"><set attributeName="fill" to="#808080" begin="reset.mouseover" end="reset.mouseout"/></use>
  </g>
</defs>
<script type="application/ecmascript">
var viewWidth = 1811;
var viewHeight = 310;
var sectionId = 'dynsection-3';
</script>
<script type="application/ecmascript" xlink:href="svg.min.js"/>
<svg id="graph" class="graph">
<g id="viewport">
<title>registry::get_components</title>
<!-- Node1 -->
<g id="Node000001" class="node">
<title>Node1</title>
<g id="a_Node000001"><a xlink:title=" ">
<polygon fill="#999999" stroke="#666666" points="1803.25,-169.25 1677,-169.25 1677,-150 1803.25,-150 1803.25,-169.25"/>
<text text-anchor="middle" x="1740.12" y="-155.75" font-family="Helvetica,sans-Serif" font-size="10.00">registry::get_components</text>
</a>
</g>
</g>
<!-- Node2 -->
<g id="Node000002" class="node">
<title>Node2</title>
<g id="a_Node000002"><a xlink:href="classregistry.html#aeb8ca8e46c5cde9eb3d774196df3d1be" target="_top" xlink:title=" ">
<polygon fill="white" stroke="#666666" points="1630.5,-302.25 1507.25,-302.25 1507.25,-283 1630.5,-283 1630.5,-302.25"/>
<text text-anchor="middle" x="1568.88" y="-288.75" font-family="Helvetica,sans-Serif" font-size="10.00">registry::add_component</text>
</a>
</g>
</g>
<!-- Node1&#45;&gt;Node2 -->
<g id="edge1_Node000001_Node000002" class="edge">
<title>Node1&#45;&gt;Node2</title>
<g id="a_edge1_Node000001_Node000002"><a xlink:title=" ">
<path fill="none" stroke="#63b8ff" d="M1727.59,-179.6C1711.54,-205.54 1680.01,-250.38 1641,-274.62 1635.92,-277.79 1630.3,-280.39 1624.52,-282.54"/>
<polygon fill="#63b8ff" stroke="#63b8ff" points="1730.57,-181.42 1732.71,-171.05 1724.57,-177.82 1730.57,-181.42"/>
</a>
</g>
</g>
<!-- Node3 -->
<g id="Node000003" class="node">
<title>Node3</title>
<g id="a_Node000003"><a xlink:href="class_systems.html#aec6a05cb4d34cdb17fd843e90b6088ff" target="_top" xlink:title=" ">
<polygon fill="white" stroke="#666666" points="1628.62,-265.25 1509.12,-265.25 1509.12,-246 1628.62,-246 1628.62,-265.25"/>
<text text-anchor="middle" x="1568.88" y="-251.75" font-family="Helvetica,sans-Serif" font-size="10.00">Systems::draw_system</text>
</a>
</g>
</g>
<!-- Node1&#45;&gt;Node3 -->
<g id="edge2_Node000001_Node000003" class="edge">
<title>Node1&#45;&gt;Node3</title>
<g id="a_edge2_Node000001_Node000003"><a xlink:title=" ">
<path fill="none" stroke="#63b8ff" d="M1721.49,-177.55C1703,-195.33 1672.34,-222.11 1641,-237.62 1634.72,-240.73 1627.86,-243.34 1620.95,-245.51"/>
<polygon fill="#63b8ff" stroke="#63b8ff" points="1723.78,-180.21 1728.45,-170.7 1718.87,-175.22 1723.78,-180.21"/>
</a>
</g>
</g>
<!-- Node4 -->
<g id="Node000004" class="node">
<title>Node4</title>
<g id="a_Node000004"><a xlink:href="classregistry.html#ad15790467947d557d21a208ba6cefa60" target="_top" xlink:title=" ">
<polygon fill="white" stroke="#666666" points="1641,-228.25 1496.75,-228.25 1496.75,-209 1641,-209 1641,-228.25"/>
<text text-anchor="middle" x="1568.88" y="-214.75" font-family="Helvetica,sans-Serif" font-size="10.00">registry::emplace_component</text>
</a>
</g>
</g>
<!-- Node1&#45;&gt;Node4 -->
<g id="edge3_Node000001_Node000004" class="edge">
<title>Node1&#45;&gt;Node4</title>
<g id="a_edge3_Node000001_Node000004"><a xlink:title=" ">
<path fill="none" stroke="#63b8ff" d="M1707.2,-174.37C1688.23,-182.78 1663.55,-193.11 1641,-200.62 1632.3,-203.53 1622.87,-206.22 1613.8,-208.59"/>
<polygon fill="#63b8ff" stroke="#63b8ff" points="1708.58,-177.59 1716.27,-170.3 1705.71,-171.21 1708.58,-177.59"/>
</a>
</g>
</g>
<!-- Node5 -->
<g id="Node000005" class="node">
<title>Node5</title>
<g id="a_Node000005"><a xlink:href="class_systems.html#a6ef5b7aad8d239dc8217fbd152dabaa5" target="_top" xlink:title=" ">
<polygon fill="white" stroke="#666666" points="1633.5,-191.25 1504.25,-191.25 1504.25,-172 1633.5,-172 1633.5,-191.25"/>
<text text-anchor="middle" x="1568.88" y="-177.75" font-family="Helvetica,sans-Serif" font-size="10.00">Systems::logging_system</text>
</a>
</g>
</g>
<!-- Node1&#45;&gt;Node5 -->
<g id="edge4_Node000001_Node000005" class="edge">
<title>Node1&#45;&gt;Node5</title>
<g id="a_edge4_Node000001_Node000005"><a xlink:title=" ">
<path fill="none" stroke="#63b8ff" d="M1665.33,-169.22C1654.84,-170.58 1644.13,-171.97 1633.86,-173.31"/>
<polygon fill="#63b8ff" stroke="#63b8ff" points="1665.62,-172.71 1675.08,-167.95 1664.71,-165.77 1665.62,-172.71"/>
</a>
</g>
</g>
<!-- Node6 -->
<g id="Node000006" class="node">
<title>Node6</title>
<g id="a_Node000006"><a xlink:href="class_systems.html#a7f9dedfab382e6da16a86d41eaba215a" target="_top" xlink:title=" ">
<polygon fill="white" stroke="#666666" points="1629.75,-153.88 1508,-153.88 1508,-123.38 1629.75,-123.38 1629.75,-153.88"/>
<text text-anchor="start" x="1516" y="-140.38" font-family="Helvetica,sans-Serif" font-size="10.00">Systems::player_control</text>
<text text-anchor="middle" x="1568.88" y="-129.12" font-family="Helvetica,sans-Serif" font-size="10.00">_system</text>
</a>
</g>
</g>
<!-- Node1&#45;&gt;Node6 -->
<g id="edge5_Node000001_Node000006" class="edge">
<title>Node1&#45;&gt;Node6</title>
<g id="a_edge5_Node000001_Node000006"><a xlink:title=" ">
<path fill="none" stroke="#63b8ff" d="M1665.42,-150.48C1653.65,-149.02 1641.6,-147.52 1630.19,-146.11"/>
<polygon fill="#63b8ff" stroke="#63b8ff" points="1664.73,-153.92 1675.08,-151.68 1665.59,-146.97 1664.73,-153.92"/>
</a>
</g>
</g>
<!-- Node7 -->
<g id="Node000007" class="node">
<title>Node7</title>
<g id="a_Node000007"><a xlink:href="class_systems.html#a310d4de4ff4f8212b2ded614e411d102" target="_top" xlink:title=" ">
<polygon fill="white" stroke="#666666" points="1635,-105.25 1502.75,-105.25 1502.75,-86 1635,-86 1635,-105.25"/>
<text text-anchor="middle" x="1568.88" y="-91.75" font-family="Helvetica,sans-Serif" font-size="10.00">Systems::position_system</text>
</a>
</g>
</g>
<!-- Node1&#45;&gt;Node7 -->
<g id="edge6_Node000001_Node000007" class="edge">
<title>Node1&#45;&gt;Node7</title>
<g id="a_edge6_Node000001_Node000007"><a xlink:title=" ">
<path fill="none" stroke="#63b8ff" d="M1709.77,-144.58C1690.55,-135.13 1664.7,-123.15 1641,-114.62 1631.86,-111.34 1621.88,-108.32 1612.36,-105.72"/>
<polygon fill="#63b8ff" stroke="#63b8ff" points="1708.12,-147.67 1718.63,-149 1711.24,-141.4 1708.12,-147.67"/>
</a>
</g>
</g>
<!-- Node23 -->
<g id="Node000023" class="node">
<title>Node23</title>
<g id="a_Node000023"><a xlink:href="classregistry.html#ac77008529bb6e296916633cc41ba5be5" target="_top" xlink:title=" ">
<polygon fill="white" stroke="#666666" points="1612.12,-67.88 1525.62,-67.88 1525.62,-37.38 1612.12,-37.38 1612.12,-67.88"/>
<text text-anchor="start" x="1533.62" y="-54.38" font-family="Helvetica,sans-Serif" font-size="10.00">registry::register</text>
<text text-anchor="middle" x="1568.88" y="-43.12" font-family="Helvetica,sans-Serif" font-size="10.00">_component</text>
</a>
</g>
</g>
<!-- Node1&#45;&gt;Node23 -->
<g id="edge27_Node000001_Node000023" class="edge">
<title>Node1&#45;&gt;Node23</title>
<g id="a_edge27_Node000001_Node000023"><a xlink:title=" ">
<path fill="none" stroke="#63b8ff" d="M1721.73,-141.31C1703.25,-122.75 1672.39,-94.34 1641,-76.62 1632.15,-71.63 1622.09,-67.45 1612.38,-64.05"/>
<polygon fill="#63b8ff" stroke="#63b8ff" points="1719.22,-143.74 1728.71,-148.45 1724.23,-138.85 1719.22,-143.74"/>
</a>
</g>
</g>
<!-- Node24 -->
<g id="Node000024" class="node">
<title>Node24</title>
<g id="a_Node000024"><a xlink:href="classregistry.html#a4f652db0b0a87d502b7f18f0d3470cc2" target="_top" xlink:title=" ">
<polygon fill="white" stroke="#666666" points="1638.75,-19.25 1499,-19.25 1499,0 1638.75,0 1638.75,-19.25"/>
<text text-anchor="middle" x="1568.88" y="-5.75" font-family="Helvetica,sans-Serif" font-size="10.00">registry::remove_component</text>
</a>
</g>
</g>
<!-- Node1&#45;&gt;Node24 -->
<g id="edge28_Node000001_Node000024" class="edge">
<title>Node1&#45;&gt;Node24</title>
<g id="a_edge28_Node000001_Node000024"><a xlink:title=" ">
<path fill="none" stroke="#63b8ff" d="M1729.54,-139.46C1714.7,-110.45 1683.4,-57.29 1641,-28.62 1635.6,-24.97 1629.53,-22.02 1623.27,-19.64"/>
<polygon fill="#63b8ff" stroke="#63b8ff" points="1726.33,-140.86 1733.9,-148.27 1732.6,-137.75 1726.33,-140.86"/>
</a>
</g>
</g>
<!-- Node8 -->
<g id="Node000008" class="node">
<title>Node8</title>
<g id="a_Node000008"><a xlink:href="class_core.html#a29ffabe78710e79a74cdcb1bebe48c72" target="_top" xlink:title=" ">
<polygon fill="white" stroke="#666666" points="1443.88,-144.88 1337.88,-144.88 1337.88,-114.38 1443.88,-114.38 1443.88,-144.88"/>
<text text-anchor="start" x="1345.88" y="-131.38" font-family="Helvetica,sans-Serif" font-size="10.00">Core::setup_position</text>
<text text-anchor="middle" x="1390.88" y="-120.12" font-family="Helvetica,sans-Serif" font-size="10.00">_timer</text>
</a>
</g>
</g>
<!-- Node7&#45;&gt;Node8 -->
<g id="edge7_Node000007_Node000008" class="edge">
<title>Node7&#45;&gt;Node8</title>
<g id="a_edge7_Node000007_Node000008"><a xlink:title=" ">
<path fill="none" stroke="#63b8ff" d="M1504.48,-107.87C1484.74,-111.68 1463.21,-115.84 1444.31,-119.5"/>
<polygon fill="#63b8ff" stroke="#63b8ff" points="1504.91,-111.35 1514.06,-106.02 1503.58,-104.48 1504.91,-111.35"/>
</a>
</g>
</g>
<!-- Node20 -->
<g id="Node000020" class="node">
<title>Node20</title>
<g id="a_Node000020"><a xlink:href="class_server_game.html#a89e6dc23de2213b7cfa7d8a894f509a3" target="_top" xlink:title=" ">
<polygon fill="white" stroke="#666666" points="1460.75,-76.88 1321,-76.88 1321,-46.38 1460.75,-46.38 1460.75,-76.88"/>
<text text-anchor="start" x="1329" y="-63.38" font-family="Helvetica,sans-Serif" font-size="10.00">ServerGame::setup_position</text>
<text text-anchor="middle" x="1390.88" y="-52.12" font-family="Helvetica,sans-Serif" font-size="10.00">_timer</text>
</a>
</g>
</g>
<!-- Node7&#45;&gt;Node20 -->
<g id="edge23_Node000007_Node000020" class="edge">
<title>Node7&#45;&gt;Node20</title>
<g id="a_edge23_Node000007_Node000020"><a xlink:title=" ">
<path fill="none" stroke="#63b8ff" d="M1504.45,-83.37C1490.33,-80.65 1475.3,-77.74 1460.96,-74.97"/>
<polygon fill="#63b8ff" stroke="#63b8ff" points="1503.58,-86.77 1514.06,-85.23 1504.91,-79.9 1503.58,-86.77"/>
</a>
</g>
</g>
<!-- Node8&#45;&gt;Node8 -->
<g id="edge22_Node000008_Node000008" class="edge">
<title>Node8&#45;&gt;Node8</title>
<g id="a_edge22_Node000008_Node000008"><a xlink:title=" ">
<path fill="none" stroke="#63b8ff" d="M1418.65,-156.58C1414.11,-160.35 1404.85,-162.88 1390.88,-162.88 1365.32,-162.88 1355.54,-154.43 1361.53,-145.36"/>
<polygon fill="#63b8ff" stroke="#63b8ff" points="1422.09,-157.25 1420.01,-146.86 1415.16,-156.28 1422.09,-157.25"/>
</a>
</g>
</g>
<!-- Node9 -->
<g id="Node000009" class="node">
<title>Node9</title>
<g id="a_Node000009"><a xlink:href="class_core.html#a42623cce6be1bf30af3a1bca1ed73ed6" target="_top" xlink:title=" ">
<polygon fill="white" stroke="#666666" points="1267.75,-140.25 1182.75,-140.25 1182.75,-121 1267.75,-121 1267.75,-140.25"/>
<text text-anchor="middle" x="1225.25" y="-126.75" font-family="Helvetica,sans-Serif" font-size="10.00">Core::gui_game</text>
</a>
</g>
</g>
<!-- Node8&#45;&gt;Node9 -->
<g id="edge8_Node000008_Node000009" class="edge">
<title>Node8&#45;&gt;Node9</title>
<g id="a_edge8_Node000008_Node000009"><a xlink:title=" ">
<path fill="none" stroke="#63b8ff" d="M1326.36,-130.01C1306.84,-130.13 1285.85,-130.26 1268.16,-130.37"/>
<polygon fill="#63b8ff" stroke="#63b8ff" points="1326.16,-133.51 1336.14,-129.95 1326.12,-126.51 1326.16,-133.51"/>
</a>
</g>
</g>
<!-- Node10 -->
<g id="Node000010" class="node">
<title>Node10</title>
<g id="a_Node000010"><a xlink:href="class_core.html#a3b2840725a18b5e49614dd429f449289" target="_top" xlink:title=" ">
<polygon fill="white" stroke="#666666" points="1129.5,-179.25 992,-179.25 992,-160 1129.5,-160 1129.5,-179.25"/>
<text text-anchor="middle" x="1060.75" y="-165.75" font-family="Helvetica,sans-Serif" font-size="10.00">Core::handleStartCommand</text>
</a>
</g>
</g>
<!-- Node9&#45;&gt;Node10 -->
<g id="edge9_Node000009_Node000010" class="edge">
<title>Node9&#45;&gt;Node10</title>
<g id="a_edge9_Node000009_Node000010"><a xlink:title=" ">
<path fill="none" stroke="#63b8ff" d="M1171.27,-143.34C1149.37,-148.6 1124.34,-154.6 1103.74,-159.55"/>
<polygon fill="#63b8ff" stroke="#63b8ff" points="1172.02,-146.76 1180.93,-141.02 1170.39,-139.95 1172.02,-146.76"/>
</a>
</g>
</g>
<!-- Node19 -->
<g id="Node000019" class="node">
<title>Node19</title>
<g id="a_Node000019"><a xlink:href="class_core.html#afe1c190b0d03ded99b7408538b16998c" target="_top" xlink:title=" ">
<polygon fill="white" stroke="#666666" points="649.5,-103.25 562.25,-103.25 562.25,-84 649.5,-84 649.5,-103.25"/>
<text text-anchor="middle" x="605.88" y="-89.75" font-family="Helvetica,sans-Serif" font-size="10.00">Core::login_auto</text>
</a>
</g>
</g>
<!-- Node9&#45;&gt;Node19 -->
<g id="edge21_Node000009_Node000019" class="edge">
<title>Node9&#45;&gt;Node19</title>
<g id="a_edge21_Node000009_Node000019"><a xlink:title=" ">
<path fill="none" stroke="#63b8ff" d="M1171.07,-126.86C1116.95,-123.07 1030.66,-117.16 956,-112.62 845.73,-105.92 715.79,-99.15 649.88,-95.79"/>
<polygon fill="#63b8ff" stroke="#63b8ff" points="1170.71,-130.34 1180.93,-127.55 1171.2,-123.36 1170.71,-130.34"/>
</a>
</g>
</g>
<!-- Node11 -->
<g id="Node000011" class="node">
<title>Node11</title>
<g id="a_Node000011"><a xlink:href="class_core.html#aae2b137a9885ae1ac3d740786cfdcb34" target="_top" xlink:title=" ">
<polygon fill="white" stroke="#666666" points="956,-141.25 805.75,-141.25 805.75,-122 956,-122 956,-141.25"/>
<text text-anchor="middle" x="880.88" y="-127.75" font-family="Helvetica,sans-Serif" font-size="10.00">Core::handleServerCommands</text>
</a>
</g>
</g>
<!-- Node10&#45;&gt;Node11 -->
<g id="edge10_Node000010_Node000011" class="edge">
<title>Node10&#45;&gt;Node11</title>
<g id="a_edge10_Node000010_Node000011"><a xlink:title=" ">
<path fill="none" stroke="#63b8ff" d="M1001.32,-157.14C977.86,-152.13 951.18,-146.43 928.99,-141.69"/>
<polygon fill="#63b8ff" stroke="#63b8ff" points="1000.56,-160.56 1011.07,-159.23 1002.02,-153.71 1000.56,-160.56"/>
</a>
</g>
</g>
<!-- Node11&#45;&gt;Node9 -->
<g id="edge11_Node000011_Node000009" class="edge">
<title>Node11&#45;&gt;Node9</title>
<g id="a_edge11_Node000011_Node000009"><a xlink:title=" ">
<path fill="none" stroke="#63b8ff" d="M967.61,-131.37C1036.08,-131.17 1129.07,-130.9 1182.27,-130.75"/>
<polygon fill="#63b8ff" stroke="#63b8ff" points="967.92,-127.87 957.93,-131.4 967.94,-134.87 967.92,-127.87"/>
</a>
</g>
</g>
<!-- Node12 -->
<g id="Node000012" class="node">
<title>Node12</title>
<g id="a_Node000012"><a xlink:href="class_core.html#ab5c7da5be504f0f34380b1ca5b97924b" target="_top" xlink:title=" ">
<polygon fill="white" stroke="#666666" points="769.75,-141.25 685.5,-141.25 685.5,-122 769.75,-122 769.75,-141.25"/>
<text text-anchor="middle" x="727.62" y="-127.75" font-family="Helvetica,sans-Serif" font-size="10.00">Core::gui_lobby</text>
</a>
</g>
</g>
<!-- Node11&#45;&gt;Node12 -->
<g id="edge12_Node000011_Node000012" class="edge">
<title>Node11&#45;&gt;Node12</title>
<g id="a_edge12_Node000011_Node000012"><a xlink:title=" ">
<path fill="none" stroke="#63b8ff" d="M794.12,-131.62C785.76,-131.62 777.57,-131.62 769.97,-131.62"/>
<polygon fill="#63b8ff" stroke="#63b8ff" points="794.07,-135.13 804.07,-131.63 794.07,-128.13 794.07,-135.13"/>
</a>
</g>
</g>
<!-- Node13 -->
<g id="Node000013" class="node">
<title>Node13</title>
<g id="a_Node000013"><a xlink:href="class_core.html#ae373e5e53d26163bfc20d236fd116f89" target="_top" xlink:title=" ">
<polygon fill="white" stroke="#666666" points="637.5,-141.25 574.25,-141.25 574.25,-122 637.5,-122 637.5,-141.25"/>
<text text-anchor="middle" x="605.88" y="-127.75" font-family="Helvetica,sans-Serif" font-size="10.00">Core::login</text>
</a>
</g>
</g>
<!-- Node12&#45;&gt;Node13 -->
<g id="edge13_Node000012_Node000013" class="edge">
<title>Node12&#45;&gt;Node13</title>
<g id="a_edge13_Node000012_Node000013"><a xlink:title=" ">
<path fill="none" stroke="#63b8ff" d="M673.92,-131.62C661.57,-131.62 648.81,-131.62 637.77,-131.62"/>
<polygon fill="#63b8ff" stroke="#63b8ff" points="673.56,-135.13 683.56,-131.63 673.56,-128.13 673.56,-135.13"/>
</a>
</g>
</g>
<!-- Node12&#45;&gt;Node19 -->
<g id="edge19_Node000012_Node000019" class="edge">
<title>Node12&#45;&gt;Node19</title>
<g id="a_edge19_Node000012_Node000019"><a xlink:title=" ">
<path fill="none" stroke="#63b8ff" d="M684.21,-118.16C669.12,-113.38 652.4,-108.07 638.38,-103.62"/>
<polygon fill="#63b8ff" stroke="#63b8ff" points="682.82,-121.4 693.41,-121.08 684.93,-114.72 682.82,-121.4"/>
</a>
</g>
</g>
<!-- Node14 -->
<g id="Node000014" class="node">
<title>Node14</title>
<g id="a_Node000014"><a xlink:href="class_core.html#a245f461d8f0f1feaa8b126f329c7db22" target="_top" xlink:title=" ">
<polygon fill="white" stroke="#666666" points="526.25,-141.25 403,-141.25 403,-122 526.25,-122 526.25,-141.25"/>
<text text-anchor="middle" x="464.62" y="-127.75" font-family="Helvetica,sans-Serif" font-size="10.00">Core::handleMouseClick</text>
</a>
</g>
</g>
<!-- Node13&#45;&gt;Node14 -->
<g id="edge14_Node000013_Node000014" class="edge">
<title>Node13&#45;&gt;Node14</title>
<g id="a_edge14_Node000013_Node000014"><a xlink:title=" ">
<path fill="none" stroke="#63b8ff" d="M562.65,-131.62C551.32,-131.62 538.84,-131.62 526.71,-131.62"/>
<polygon fill="#63b8ff" stroke="#63b8ff" points="562.46,-135.13 572.46,-131.63 562.46,-128.13 562.46,-135.13"/>
</a>
</g>
</g>
<!-- Node15 -->
<g id="Node000015" class="node">
<title>Node15</title>
<g id="a_Node000015"><a xlink:href="class_core.html#a1460b7116a24aa8c866c33c4f16bd5a4" target="_top" xlink:title=" ">
<polygon fill="white" stroke="#666666" points="367,-141.25 285.75,-141.25 285.75,-122 367,-122 367,-141.25"/>
<text text-anchor="middle" x="326.38" y="-127.75" font-family="Helvetica,sans-Serif" font-size="10.00">Core::gui_login</text>
</a>
</g>
</g>
<!-- Node14&#45;&gt;Node15 -->
<g id="edge15_Node000014_Node000015" class="edge">
<title>Node14&#45;&gt;Node15</title>
<g id="a_edge15_Node000014_Node000015"><a xlink:title=" ">
<path fill="none" stroke="#63b8ff" d="M391.34,-131.62C383.03,-131.62 374.8,-131.62 367.16,-131.62"/>
<polygon fill="#63b8ff" stroke="#63b8ff" points="391.16,-135.13 401.16,-131.63 391.16,-128.13 391.16,-135.13"/>
</a>
</g>
</g>
<!-- Node16 -->
<g id="Node000016" class="node">
<title>Node16</title>
<g id="a_Node000016"><a xlink:href="class_core.html#a78dfa9b9ed54a7ba8cfe1be701b79feb" target="_top" xlink:title=" ">
<polygon fill="white" stroke="#666666" points="249.75,-141.25 164.75,-141.25 164.75,-122 249.75,-122 249.75,-141.25"/>
<text text-anchor="middle" x="207.25" y="-127.75" font-family="Helvetica,sans-Serif" font-size="10.00">Core::gui_menu</text>
</a>
</g>
</g>
<!-- Node15&#45;&gt;Node16 -->
<g id="edge16_Node000015_Node000016" class="edge">
<title>Node15&#45;&gt;Node16</title>
<g id="a_edge16_Node000015_Node000016"><a xlink:title=" ">
<path fill="none" stroke="#63b8ff" d="M273.91,-131.62C265.93,-131.62 257.78,-131.62 250.05,-131.62"/>
<polygon fill="#63b8ff" stroke="#63b8ff" points="273.88,-135.13 283.88,-131.63 273.88,-128.13 273.88,-135.13"/>
</a>
</g>
</g>
<!-- Node17 -->
<g id="Node000017" class="node">
<title>Node17</title>
<g id="a_Node000017"><a xlink:href="class_core.html#aa6045a2323610bfa0ee712b028eb43e4" target="_top" xlink:title=" ">
<polygon fill="white" stroke="#666666" points="128.75,-141.25 73,-141.25 73,-122 128.75,-122 128.75,-141.25"/>
<text text-anchor="middle" x="100.88" y="-127.75" font-family="Helvetica,sans-Serif" font-size="10.00">Core::gui</text>
</a>
</g>
</g>
<!-- Node16&#45;&gt;Node17 -->
<g id="edge17_Node000016_Node000017" class="edge">
<title>Node16&#45;&gt;Node17</title>
<g id="a_edge17_Node000016_Node000017"><a xlink:title=" ">
<path fill="none" stroke="#63b8ff" d="M153.09,-131.62C144.76,-131.62 136.46,-131.62 129.04,-131.62"/>
<polygon fill="#63b8ff" stroke="#63b8ff" points="152.88,-135.13 162.88,-131.63 152.88,-128.13 152.88,-135.13"/>
</a>
</g>
</g>
<!-- Node18 -->
<g id="Node000018" class="node">
<title>Node18</title>
<g id="a_Node000018"><a xlink:href="client_2main_8cpp.html#a0ddf1224851353fc92bfbff6f499fa97" target="_top" xlink:title=" ">
<polygon fill="white" stroke="#666666" points="37,-122.25 0,-122.25 0,-103 37,-103 37,-122.25"/>
<text text-anchor="middle" x="18.5" y="-108.75" font-family="Helvetica,sans-Serif" font-size="10.00">main</text>
</a>
</g>
</g>
<!-- Node17&#45;&gt;Node18 -->
<g id="edge18_Node000017_Node000018" class="edge">
<title>Node17&#45;&gt;Node18</title>
<g id="a_edge18_Node000017_Node000018"><a xlink:title=" ">
<path fill="none" stroke="#63b8ff" d="M61.68,-122.6C53.18,-120.59 44.55,-118.55 37.34,-116.84"/>
<polygon fill="#63b8ff" stroke="#63b8ff" points="60.65,-125.95 71.19,-124.84 62.26,-119.14 60.65,-125.95"/>
</a>
</g>
</g>
<!-- Node19&#45;&gt;Node18 -->
<g id="edge20_Node000019_Node000018" class="edge">
<title>Node19&#45;&gt;Node18</title>
<g id="a_edge20_Node000019_Node000018"><a xlink:title=" ">
<path fill="none" stroke="#63b8ff" d="M550.68,-93.62C494.75,-93.62 404.96,-93.62 327.38,-93.62 327.38,-93.62 327.38,-93.62 206.25,-93.62 144,-93.62 70.69,-104.2 37.47,-109.57"/>
<polygon fill="#63b8ff" stroke="#63b8ff" points="550.58,-97.13 560.58,-93.63 550.58,-90.13 550.58,-97.13"/>
</a>
</g>
</g>
<!-- Node20&#45;&gt;Node20 -->
<g id="edge26_Node000020_Node000020" class="edge">
<title>Node20&#45;&gt;Node20</title>
<g id="a_edge26_Node000020_Node000020"><a xlink:title=" ">
<path fill="none" stroke="#63b8ff" d="M1418.65,-88.58C1414.11,-92.35 1404.85,-94.88 1390.88,-94.88 1365.32,-94.88 1355.54,-86.43 1361.53,-77.36"/>
<polygon fill="#63b8ff" stroke="#63b8ff" points="1422.09,-89.25 1420.01,-78.86 1415.16,-88.28 1422.09,-89.25"/>
</a>
</g>
</g>
<!-- Node21 -->
<g id="Node000021" class="node">
<title>Node21</title>
<g id="a_Node000021"><a xlink:href="class_server_game.html#a0157100c7f7204cb8d870947d0b81e6f" target="_top" xlink:title=" ">
<polygon fill="white" stroke="#666666" points="1285,-69.25 1165.5,-69.25 1165.5,-50 1285,-50 1285,-69.25"/>
<text text-anchor="middle" x="1225.25" y="-55.75" font-family="Helvetica,sans-Serif" font-size="10.00">ServerGame::initTimers</text>
</a>
</g>
</g>
<!-- Node20&#45;&gt;Node21 -->
<g id="edge24_Node000020_Node000021" class="edge">
<title>Node20&#45;&gt;Node21</title>
<g id="a_edge24_Node000020_Node000021"><a xlink:title=" ">
<path fill="none" stroke="#63b8ff" d="M1309.55,-60.64C1301.44,-60.54 1293.32,-60.44 1285.5,-60.35"/>
<polygon fill="#63b8ff" stroke="#63b8ff" points="1309.4,-64.14 1319.44,-60.76 1309.49,-57.14 1309.4,-64.14"/>
</a>
</g>
</g>
<!-- Node22 -->
<g id="Node000022" class="node">
<title>Node22</title>
<g id="a_Node000022"><a xlink:href="class_server_game.html#a0dcb65cf6ca824c15b425d6e731ac7cb" target="_top" xlink:title=" ">
<polygon fill="white" stroke="#666666" points="1123.88,-65.25 997.62,-65.25 997.62,-46 1123.88,-46 1123.88,-65.25"/>
<text text-anchor="middle" x="1060.75" y="-51.75" font-family="Helvetica,sans-Serif" font-size="10.00">ServerGame::handleStart</text>
</a>
</g>
</g>
<!-- Node21&#45;&gt;Node22 -->
<g id="edge25_Node000021_Node000022" class="edge">
<title>Node21&#45;&gt;Node22</title>
<g id="a_edge25_Node000021_Node000022"><a xlink:title=" ">
<path fill="none" stroke="#63b8ff" d="M1153.7,-57.89C1143.85,-57.65 1133.8,-57.4 1124.11,-57.16"/>
<polygon fill="#63b8ff" stroke="#63b8ff" points="1153.53,-61.39 1163.61,-58.13 1153.7,-54.39 1153.53,-61.39"/>
</a>
</g>
</g>
</g>
</svg>

<g id="navigator" transform="translate(0 0)" fill="#404254">
  <rect fill="#f2f5e9" fill-opacity="0.5" stroke="#606060" stroke-width=".5" x="0" y="0" width="60" height="60"/>
  <use id="zoomplus" xlink:href="#zoomPlus" x="17" y="9" onmousedown="handleZoom(evt,'in')"/>
  <use id="zoomminus" xlink:href="#zoomMin" x="42" y="9" onmousedown="handleZoom(evt,'out')"/>
  <use id="reset" xlink:href="#resetDef" x="30" y="36" onmousedown="handleReset()"/>
   <use id="arrowup" xlink:href="#arrowUp" x="0" y="0" onmousedown="handlePan(0,-1)"/>
  <use id="arrowright" xlink:href="#arrowRight" x="0" y="0" onmousedown="handlePan(1,0)"/>
  <use id="arrowdown" xlink:href="#arrowDown" x="0" y="0" onmousedown="handlePan(0,1)"/>
  <use id="arrowleft" xlink:href="#arrowLeft" x="0" y="0" onmousedown="handlePan(-1,0)"/>
</g>
<svg viewBox="0 0 15 15" width="100%" height="30px" preserveAspectRatio="xMaxYMin meet">
 <g id="arrow_out" transform="scale(0.3 0.3)">
  <a xlink:href="classregistry_a3866ee276a5a1d78d00cd403e8e8c7d9_icgraph_org.svg" target="_base">
   <rect id="button" ry="5" rx="5" y="6" x="6" height="38" width="38"
        fill="#f2f5e9" fill-opacity="0.5" stroke="#606060" stroke-width="1.0"/>
   <path id="arrow"
     d="M 11.500037,31.436501 C 11.940474,20.09759 22.043105,11.32322 32.158766,21.979434 L 37.068811,17.246167 C 37.068811,17.246167 37.088388,32 37.088388,32 L 22.160133,31.978069 C 22.160133,31.978069 26.997745,27.140456 26.997745,27.140456 C 18.528582,18.264221 13.291696,25.230495 11.500037,31.436501 z"
     style="fill:#404040;"/>
  </a>
 </g>
</svg>

<style type='text/css'>
<![CDATA[
[data-mouse-over-selected='false'] { opacity: 0.7; }
[data-mouse-over-selected='true']  { opacity: 1.0; }
]]>
</style>
<script type="application/ecmascript"><![CDATA[
document.addEventListener('DOMContentLoaded', (event) => {
  highlightEdges();
  highlightAdjacentNodes();
});
]]></script>
</svg>
