<?xml version="1.0" encoding="UTF-8" standalone="no"?>
<!DOCTYPE svg PUBLIC "-//W3C//DTD SVG 1.1//EN"
 "http://www.w3.org/Graphics/SVG/1.1/DTD/svg11.dtd">
<!-- Generated by graphviz version 12.2.1 (20241206.2353)
 -->
<!-- Title: ServerGame::StopAllTimers Pages: 1 -->
<svg width="630pt" height="68pt"
 viewBox="0.00 0.00 630.00 67.90" xmlns="http://www.w3.org/2000/svg" xmlns:xlink="http://www.w3.org/1999/xlink">
<g id="graph0" class="graph" transform="scale(1 1) rotate(0) translate(4 63.9)">
<title>ServerGame::StopAllTimers</title>
<!-- Node1 -->
<g id="Node000001" class="node">
<title>Node1</title>
<g id="a_Node000001"><a xlink:title=" ">
<polygon fill="#999999" stroke="#666666" points="622,-54.88 483.75,-54.88 483.75,-35.62 622,-35.62 622,-54.88"/>
<text text-anchor="middle" x="552.88" y="-41.38" font-family="Helvetica,sans-Serif" font-size="10.00">ServerGame::StopAllTimers</text>
</a>
</g>
</g>
<!-- Node2 -->
<g id="Node000002" class="node">
<title>Node2</title>
<g id="a_Node000002"><a xlink:href="class_server_game.html#a0157100c7f7204cb8d870947d0b81e6f" target="_top" xlink:title=" ">
<polygon fill="white" stroke="#666666" points="281.75,-54.88 162.25,-54.88 162.25,-35.62 281.75,-35.62 281.75,-54.88"/>
<text text-anchor="middle" x="222" y="-41.38" font-family="Helvetica,sans-Serif" font-size="10.00">ServerGame::initTimers</text>
</a>
</g>
</g>
<!-- Node1&#45;&gt;Node2 -->
<g id="edge1_Node000001_Node000002" class="edge">
<title>Node1&#45;&gt;Node2</title>
<g id="a_edge1_Node000001_Node000002"><a xlink:title=" ">
<path fill="none" stroke="#63b8ff" d="M472.17,-55.38C463.94,-56.15 455.68,-56.79 447.75,-57.25 390.07,-60.56 375.41,-60.89 317.75,-57.25 306.17,-56.52 293.83,-55.29 282.03,-53.89"/>
<polygon fill="#63b8ff" stroke="#63b8ff" points="472.25,-58.89 481.85,-54.43 471.56,-51.93 472.25,-58.89"/>
</a>
</g>
</g>
<!-- Node4 -->
<g id="Node000004" class="node">
<title>Node4</title>
<g id="a_Node000004"><a xlink:href="class_server_game.html#ac11805bef3774422a1b0235d47a7efed" target="_top" xlink:title=" ">
<polygon fill="white" stroke="#666666" points="447.75,-30.5 317.75,-30.5 317.75,0 447.75,0 447.75,-30.5"/>
<text text-anchor="start" x="325.75" y="-17" font-family="Helvetica,sans-Serif" font-size="10.00">ServerGame::setup_game</text>
<text text-anchor="middle" x="382.75" y="-5.75" font-family="Helvetica,sans-Serif" font-size="10.00">_over_timer</text>
</a>
</g>
</g>
<!-- Node1&#45;&gt;Node4 -->
<g id="edge3_Node000001_Node000004" class="edge">
<title>Node1&#45;&gt;Node4</title>
<g id="a_edge3_Node000001_Node000004"><a xlink:title=" ">
<path fill="none" stroke="#63b8ff" d="M484.2,-33.17C472.31,-31.05 459.97,-28.85 448.17,-26.75"/>
<polygon fill="#63b8ff" stroke="#63b8ff" points="483.47,-36.6 493.93,-34.91 484.7,-29.71 483.47,-36.6"/>
</a>
</g>
</g>
<!-- Node3 -->
<g id="Node000003" class="node">
<title>Node3</title>
<g id="a_Node000003"><a xlink:href="class_server_game.html#a0dcb65cf6ca824c15b425d6e731ac7cb" target="_top" xlink:title=" ">
<polygon fill="white" stroke="#666666" points="126.25,-54.88 0,-54.88 0,-35.62 126.25,-35.62 126.25,-54.88"/>
<text text-anchor="middle" x="63.12" y="-41.38" font-family="Helvetica,sans-Serif" font-size="10.00">ServerGame::handleStart</text>
</a>
</g>
</g>
<!-- Node2&#45;&gt;Node3 -->
<g id="edge2_Node000002_Node000003" class="edge">
<title>Node2&#45;&gt;Node3</title>
<g id="a_edge2_Node000002_Node000003"><a xlink:title=" ">
<path fill="none" stroke="#63b8ff" d="M150.88,-45.25C142.83,-45.25 134.66,-45.25 126.73,-45.25"/>
<polygon fill="#63b8ff" stroke="#63b8ff" points="150.63,-48.75 160.63,-45.25 150.63,-41.75 150.63,-48.75"/>
</a>
</g>
</g>
<!-- Node4&#45;&gt;Node2 -->
<g id="edge4_Node000004_Node000002" class="edge">
<title>Node4&#45;&gt;Node2</title>
<g id="a_edge4_Node000004_Node000002"><a xlink:title=" ">
<path fill="none" stroke="#63b8ff" d="M306.63,-29.45C296.43,-31.37 286.13,-33.32 276.41,-35.16"/>
<polygon fill="#63b8ff" stroke="#63b8ff" points="306.97,-32.94 316.15,-27.65 305.67,-26.06 306.97,-32.94"/>
</a>
</g>
</g>
<!-- Node4&#45;&gt;Node4 -->
<g id="edge5_Node000004_Node000004" class="edge">
<title>Node4&#45;&gt;Node4</title>
<g id="a_edge5_Node000004_Node000004"><a xlink:title=" ">
<path fill="none" stroke="#63b8ff" d="M409.71,-42.2C405.3,-45.97 396.31,-48.5 382.75,-48.5 357.95,-48.5 348.45,-40.06 354.27,-30.99"/>
<polygon fill="#63b8ff" stroke="#63b8ff" points="413.15,-42.87 411.03,-32.49 406.21,-41.92 413.15,-42.87"/>
</a>
</g>
</g>
</g>
</svg>
