<?xml version="1.0" encoding="UTF-8" standalone="no"?>
<!DOCTYPE svg PUBLIC "-//W3C//DTD SVG 1.1//EN"
 "http://www.w3.org/Graphics/SVG/1.1/DTD/svg11.dtd">
<!-- Generated by graphviz version 12.2.1 (20241206.2353)
 -->
<!-- Title: ServerGame::setup_collision_timer Pages: 1 -->
<!--zoomable 101 -->

<svg id="main" version="1.1" xmlns="http://www.w3.org/2000/svg" xmlns:xlink="http://www.w3.org/1999/xlink" xml:space="preserve" onload="init(evt)">

<style type="text/css"><![CDATA[
.node, .edge {opacity: 0.7;}
.node.selected, .edge.selected {opacity: 1;}
.edge:hover path { stroke: red; }
.edge:hover polygon { stroke: red; fill: red; }
]]></style>

<defs>
  <circle id="rim" cx="0" cy="0" r="7"/>
  <circle id="rim2" cx="0" cy="0" r="3.5"/>
  <g id="zoomPlus">
    <use xlink:href="#rim" fill="#404040"><set attributeName="fill" to="#808080" begin="zoomplus.mouseover" end="zoomplus.mouseout"/></use>
    <path d="M-4,0h8M0,-4v8" fill="none" stroke="white" stroke-width="1.5" pointer-events="none"/>
  </g>
  <g id="zoomMin">
    <use xlink:href="#rim" fill="#404040"><set attributeName="fill" to="#808080" begin="zoomminus.mouseover" end="zoomminus.mouseout"/></use>
    <path d="M-4,0h8" fill="none" stroke="white" stroke-width="1.5" pointer-events="none"/>
  </g>
  <g id="arrowUp" transform="translate(30 24)">
    <use xlink:href="#rim"/>
    <path pointer-events="none" fill="none" stroke="white" stroke-width="1.5" d="M0,-3.0v7 M-2.5,-0.5L0,-3.0L2.5,-0.5"/>
  </g>
  <g id="arrowRight" transform="rotate(90) translate(36 -43)">
    <use xlink:href="#rim"/>
    <path pointer-events="none" fill="none" stroke="white" stroke-width="1.5" d="M0,-3.0v7 M-2.5,-0.5L0,-3.0L2.5,-0.5"/>
  </g>
  <g id="arrowDown" transform="rotate(180) translate(-30 -48)">
    <use xlink:href="#rim"/>
    <path pointer-events="none" fill="none" stroke="white" stroke-width="1.5" d="M0,-3.0v7 M-2.5,-0.5L0,-3.0L2.5,-0.5"/>
  </g>
  <g id="arrowLeft" transform="rotate(270) translate(-36 17)">
    <use xlink:href="#rim"/>
    <path pointer-events="none" fill="none" stroke="white" stroke-width="1.5" d="M0,-3.0v7 M-2.5,-0.5L0,-3.0L2.5,-0.5"/>
  </g>
  <g id="resetDef">
    <use xlink:href="#rim2" fill="#404040"><set attributeName="fill" to="#808080" begin="reset.mouseover" end="reset.mouseout"/></use>
  </g>
</defs>
<script type="application/ecmascript">
var viewWidth = 519;
var viewHeight = 101;
var sectionId = 'dynsection-18';
</script>
<script type="application/ecmascript" xlink:href="svg.min.js"/>
<svg id="graph" class="graph">
<g id="viewport">
<title>ServerGame::setup_collision_timer</title>
<!-- Node1 -->
<g id="Node000001" class="node">
<title>Node1</title>
<g id="a_Node000001"><a xlink:title=" ">
<polygon fill="#999999" stroke="#666666" points="141.25,-61.88 0,-61.88 0,-31.38 141.25,-31.38 141.25,-61.88"/>
<text text-anchor="start" x="8" y="-48.38" font-family="Helvetica,sans-Serif" font-size="10.00">ServerGame::setup_collision</text>
<text text-anchor="middle" x="70.62" y="-37.12" font-family="Helvetica,sans-Serif" font-size="10.00">_timer</text>
</a>
</g>
</g>
<!-- Node1&#45;&gt;Node1 -->
<g id="edge6_Node000001_Node000001" class="edge">
<title>Node1&#45;&gt;Node1</title>
<g id="a_edge6_Node000001_Node000001"><a xlink:title=" ">
<path fill="none" stroke="#63b8ff" d="M37.82,-62.36C31.13,-71.43 42.06,-79.88 70.62,-79.88 86.25,-79.88 96.59,-77.35 101.67,-73.58"/>
<polygon fill="#63b8ff" stroke="#63b8ff" points="105.1,-74.28 103.19,-63.86 98.19,-73.19 105.1,-74.28"/>
</a>
</g>
</g>
<!-- Node2 -->
<g id="Node000002" class="node">
<title>Node2</title>
<g id="a_Node000002"><a xlink:href="class_server_game.html#aa99390eeaadd29af06da639d8a9ef353" target="_top" xlink:title=" ">
<polygon fill="white" stroke="#666666" points="334.25,-56.25 177.25,-56.25 177.25,-37 334.25,-37 334.25,-56.25"/>
<text text-anchor="middle" x="255.75" y="-42.75" font-family="Helvetica,sans-Serif" font-size="10.00">ServerGame::checkAllCollisions</text>
</a>
</g>
</g>
<!-- Node1&#45;&gt;Node2 -->
<g id="edge1_Node000001_Node000002" class="edge">
<title>Node1&#45;&gt;Node2</title>
<g id="a_edge1_Node000001_Node000002"><a xlink:title=" ">
<path fill="none" stroke="#63b8ff" d="M141.64,-46.62C149.46,-46.62 157.51,-46.62 165.53,-46.62"/>
<polygon fill="#63b8ff" stroke="#63b8ff" points="165.32,-50.13 175.32,-46.63 165.32,-43.13 165.32,-50.13"/>
</a>
</g>
</g>
<!-- Node2&#45;&gt;Node2 -->
<g id="edge2_Node000002_Node000002" class="edge">
<title>Node2&#45;&gt;Node2</title>
<g id="a_edge2_Node000002_Node000002"><a xlink:title=" ">
<path fill="none" stroke="#63b8ff" d="M226.83,-56.54C213.63,-65.15 223.27,-74.25 255.75,-74.25 274.52,-74.25 285.67,-71.21 289.18,-66.98"/>
<polygon fill="#63b8ff" stroke="#63b8ff" points="292.45,-65.72 285.27,-57.93 286.02,-68.5 292.45,-65.72"/>
</a>
</g>
</g>
<!-- Node3 -->
<g id="Node000003" class="node">
<title>Node3</title>
<g id="a_Node000003"><a xlink:href="class_server_game.html#a9a2b4bb7a61cf272fae0d6ed1f13e59f" target="_top" xlink:title=" ">
<polygon fill="white" stroke="#666666" points="510.75,-93.25 370.25,-93.25 370.25,-74 510.75,-74 510.75,-93.25"/>
<text text-anchor="middle" x="440.5" y="-79.75" font-family="Helvetica,sans-Serif" font-size="10.00">ServerGame::handleColision</text>
</a>
</g>
</g>
<!-- Node2&#45;&gt;Node3 -->
<g id="edge3_Node000002_Node000003" class="edge">
<title>Node2&#45;&gt;Node3</title>
<g id="a_edge3_Node000002_Node000003"><a xlink:title=" ">
<path fill="none" stroke="#63b8ff" d="M306.69,-56.74C328.85,-61.22 355.13,-66.54 378.45,-71.26"/>
<polygon fill="#63b8ff" stroke="#63b8ff" points="377.64,-74.67 388.14,-73.23 379.03,-67.81 377.64,-74.67"/>
</a>
</g>
</g>
<!-- Node4 -->
<g id="Node000004" class="node">
<title>Node4</title>
<g id="a_Node000004"><a xlink:href="class_server_game.html#adf9d28b0bb99cd31ec005e81fa4128f4" target="_top" xlink:title=" ">
<polygon fill="white" stroke="#666666" points="506.25,-56.25 374.75,-56.25 374.75,-37 506.25,-37 506.25,-56.25"/>
<text text-anchor="middle" x="440.5" y="-42.75" font-family="Helvetica,sans-Serif" font-size="10.00">ServerGame::handleDeath</text>
</a>
</g>
</g>
<!-- Node2&#45;&gt;Node4 -->
<g id="edge4_Node000002_Node000004" class="edge">
<title>Node2&#45;&gt;Node4</title>
<g id="a_edge4_Node000002_Node000004"><a xlink:title=" ">
<path fill="none" stroke="#63b8ff" d="M334.52,-46.62C343.98,-46.62 353.64,-46.62 363.08,-46.62"/>
<polygon fill="#63b8ff" stroke="#63b8ff" points="362.95,-50.13 372.95,-46.63 362.95,-43.13 362.95,-50.13"/>
</a>
</g>
</g>
<!-- Node5 -->
<g id="Node000005" class="node">
<title>Node5</title>
<g id="a_Node000005"><a xlink:href="class_server_game.html#a0d2136187aa368d02f5bc66c2b1f85cf" target="_top" xlink:title=" ">
<polygon fill="white" stroke="#666666" points="501.38,-19.25 379.62,-19.25 379.62,0 501.38,0 501.38,-19.25"/>
<text text-anchor="middle" x="440.5" y="-5.75" font-family="Helvetica,sans-Serif" font-size="10.00">ServerGame::isColliding</text>
</a>
</g>
</g>
<!-- Node2&#45;&gt;Node5 -->
<g id="edge5_Node000002_Node000005" class="edge">
<title>Node2&#45;&gt;Node5</title>
<g id="a_edge5_Node000002_Node000005"><a xlink:title=" ">
<path fill="none" stroke="#63b8ff" d="M306.69,-36.51C328.85,-32.03 355.13,-26.71 378.45,-21.99"/>
<polygon fill="#63b8ff" stroke="#63b8ff" points="379.03,-25.44 388.14,-20.02 377.64,-18.58 379.03,-25.44"/>
</a>
</g>
</g>
</g>
</svg>

<g id="navigator" transform="translate(0 0)" fill="#404254">
  <rect fill="#f2f5e9" fill-opacity="0.5" stroke="#606060" stroke-width=".5" x="0" y="0" width="60" height="60"/>
  <use id="zoomplus" xlink:href="#zoomPlus" x="17" y="9" onmousedown="handleZoom(evt,'in')"/>
  <use id="zoomminus" xlink:href="#zoomMin" x="42" y="9" onmousedown="handleZoom(evt,'out')"/>
  <use id="reset" xlink:href="#resetDef" x="30" y="36" onmousedown="handleReset()"/>
   <use id="arrowup" xlink:href="#arrowUp" x="0" y="0" onmousedown="handlePan(0,-1)"/>
  <use id="arrowright" xlink:href="#arrowRight" x="0" y="0" onmousedown="handlePan(1,0)"/>
  <use id="arrowdown" xlink:href="#arrowDown" x="0" y="0" onmousedown="handlePan(0,1)"/>
  <use id="arrowleft" xlink:href="#arrowLeft" x="0" y="0" onmousedown="handlePan(-1,0)"/>
</g>
<svg viewBox="0 0 15 15" width="100%" height="30px" preserveAspectRatio="xMaxYMin meet">
 <g id="arrow_out" transform="scale(0.3 0.3)">
  <a xlink:href="class_server_game_acd85147947f8c366cccf07b8d6674026_cgraph_org.svg" target="_base">
   <rect id="button" ry="5" rx="5" y="6" x="6" height="38" width="38"
        fill="#f2f5e9" fill-opacity="0.5" stroke="#606060" stroke-width="1.0"/>
   <path id="arrow"
     d="M 11.500037,31.436501 C 11.940474,20.09759 22.043105,11.32322 32.158766,21.979434 L 37.068811,17.246167 C 37.068811,17.246167 37.088388,32 37.088388,32 L 22.160133,31.978069 C 22.160133,31.978069 26.997745,27.140456 26.997745,27.140456 C 18.528582,18.264221 13.291696,25.230495 11.500037,31.436501 z"
     style="fill:#404040;"/>
  </a>
 </g>
</svg>

<style type='text/css'>
<![CDATA[
[data-mouse-over-selected='false'] { opacity: 0.7; }
[data-mouse-over-selected='true']  { opacity: 1.0; }
]]>
</style>
<script type="application/ecmascript"><![CDATA[
document.addEventListener('DOMContentLoaded', (event) => {
  highlightEdges();
  highlightAdjacentNodes();
});
]]></script>
</svg>
