<?xml version="1.0" encoding="UTF-8" standalone="no"?>
<!DOCTYPE svg PUBLIC "-//W3C//DTD SVG 1.1//EN"
 "http://www.w3.org/Graphics/SVG/1.1/DTD/svg11.dtd">
<!-- Generated by graphviz version 12.2.1 (20241206.2353)
 -->
<!-- Title: Core::handleStartCommand Pages: 1 -->
<!--zoomable 787 -->

<svg id="main" version="1.1" xmlns="http://www.w3.org/2000/svg" xmlns:xlink="http://www.w3.org/1999/xlink" xml:space="preserve" onload="init(evt)">

<style type="text/css"><![CDATA[
.node, .edge {opacity: 0.7;}
.node.selected, .edge.selected {opacity: 1;}
.edge:hover path { stroke: red; }
.edge:hover polygon { stroke: red; fill: red; }
]]></style>

<defs>
  <circle id="rim" cx="0" cy="0" r="7"/>
  <circle id="rim2" cx="0" cy="0" r="3.5"/>
  <g id="zoomPlus">
    <use xlink:href="#rim" fill="#404040"><set attributeName="fill" to="#808080" begin="zoomplus.mouseover" end="zoomplus.mouseout"/></use>
    <path d="M-4,0h8M0,-4v8" fill="none" stroke="white" stroke-width="1.5" pointer-events="none"/>
  </g>
  <g id="zoomMin">
    <use xlink:href="#rim" fill="#404040"><set attributeName="fill" to="#808080" begin="zoomminus.mouseover" end="zoomminus.mouseout"/></use>
    <path d="M-4,0h8" fill="none" stroke="white" stroke-width="1.5" pointer-events="none"/>
  </g>
  <g id="arrowUp" transform="translate(30 24)">
    <use xlink:href="#rim"/>
    <path pointer-events="none" fill="none" stroke="white" stroke-width="1.5" d="M0,-3.0v7 M-2.5,-0.5L0,-3.0L2.5,-0.5"/>
  </g>
  <g id="arrowRight" transform="rotate(90) translate(36 -43)">
    <use xlink:href="#rim"/>
    <path pointer-events="none" fill="none" stroke="white" stroke-width="1.5" d="M0,-3.0v7 M-2.5,-0.5L0,-3.0L2.5,-0.5"/>
  </g>
  <g id="arrowDown" transform="rotate(180) translate(-30 -48)">
    <use xlink:href="#rim"/>
    <path pointer-events="none" fill="none" stroke="white" stroke-width="1.5" d="M0,-3.0v7 M-2.5,-0.5L0,-3.0L2.5,-0.5"/>
  </g>
  <g id="arrowLeft" transform="rotate(270) translate(-36 17)">
    <use xlink:href="#rim"/>
    <path pointer-events="none" fill="none" stroke="white" stroke-width="1.5" d="M0,-3.0v7 M-2.5,-0.5L0,-3.0L2.5,-0.5"/>
  </g>
  <g id="resetDef">
    <use xlink:href="#rim2" fill="#404040"><set attributeName="fill" to="#808080" begin="reset.mouseover" end="reset.mouseout"/></use>
  </g>
</defs>
<script type="application/ecmascript">
var viewWidth = 1002;
var viewHeight = 787;
var sectionId = 'dynsection-64';
</script>
<script type="application/ecmascript" xlink:href="svg.min.js"/>
<svg id="graph" class="graph">
<g id="viewport">
<title>Core::handleStartCommand</title>
<!-- Node1 -->
<g id="Node000001" class="node">
<title>Node1</title>
<g id="a_Node000001"><a xlink:title=" ">
<polygon fill="#999999" stroke="#666666" points="137.5,-392.25 0,-392.25 0,-373 137.5,-373 137.5,-392.25"/>
<text text-anchor="middle" x="68.75" y="-378.75" font-family="Helvetica,sans-Serif" font-size="10.00">Core::handleStartCommand</text>
</a>
</g>
</g>
<!-- Node2 -->
<g id="Node000002" class="node">
<title>Node2</title>
<g id="a_Node000002"><a xlink:href="class_core.html#a42623cce6be1bf30af3a1bca1ed73ed6" target="_top" xlink:title=" ">
<polygon fill="white" stroke="#666666" points="258.5,-485.25 173.5,-485.25 173.5,-466 258.5,-466 258.5,-485.25"/>
<text text-anchor="middle" x="216" y="-471.75" font-family="Helvetica,sans-Serif" font-size="10.00">Core::gui_game</text>
</a>
</g>
</g>
<!-- Node1&#45;&gt;Node2 -->
<g id="edge1_Node000001_Node000002" class="edge">
<title>Node1&#45;&gt;Node2</title>
<g id="a_edge1_Node000001_Node000002"><a xlink:title=" ">
<path fill="none" stroke="#63b8ff" d="M85.29,-392.58C110.41,-408.66 160.14,-440.5 190.19,-459.74"/>
<polygon fill="#63b8ff" stroke="#63b8ff" points="187.98,-462.48 198.29,-464.93 191.76,-456.59 187.98,-462.48"/>
</a>
</g>
</g>
<!-- Node3 -->
<g id="Node000003" class="node">
<title>Node3</title>
<g id="a_Node000003"><a xlink:href="class_core.html#a554a2d7af7f9aefe0a66e89773e681b2" target="_top" xlink:title=" ">
<polygon fill="white" stroke="#666666" points="433.12,-683.25 315.12,-683.25 315.12,-664 433.12,-664 433.12,-683.25"/>
<text text-anchor="middle" x="374.12" y="-669.75" font-family="Helvetica,sans-Serif" font-size="10.00">Core::checkInvincibility</text>
</a>
</g>
</g>
<!-- Node2&#45;&gt;Node3 -->
<g id="edge2_Node000002_Node000003" class="edge">
<title>Node2&#45;&gt;Node3</title>
<g id="a_edge2_Node000002_Node000003"><a xlink:title=" ">
<path fill="none" stroke="#63b8ff" d="M218.17,-485.66C222.3,-516.31 239.08,-609.45 294.5,-655.62 297.55,-658.17 300.89,-660.37 304.42,-662.27"/>
<polygon fill="#63b8ff" stroke="#63b8ff" points="302.83,-665.39 313.39,-666.26 305.68,-659 302.83,-665.39"/>
</a>
</g>
</g>
<!-- Node4 -->
<g id="Node000004" class="node">
<title>Node4</title>
<g id="a_Node000004"><a xlink:href="class_core.html#a9493dc851e77126a1bc9c005ec499159" target="_top" xlink:title=" ">
<polygon fill="white" stroke="#666666" points="429,-646.25 319.25,-646.25 319.25,-627 429,-627 429,-646.25"/>
<text text-anchor="middle" x="374.12" y="-632.75" font-family="Helvetica,sans-Serif" font-size="10.00">Core::control_system</text>
</a>
</g>
</g>
<!-- Node2&#45;&gt;Node4 -->
<g id="edge3_Node000002_Node000004" class="edge">
<title>Node2&#45;&gt;Node4</title>
<g id="a_edge3_Node000002_Node000004"><a xlink:title=" ">
<path fill="none" stroke="#63b8ff" d="M219.46,-485.73C226.38,-511.93 248.59,-582.42 294.5,-617.62 298.73,-620.87 303.44,-623.57 308.4,-625.82"/>
<polygon fill="#63b8ff" stroke="#63b8ff" points="306.82,-628.96 317.41,-629.28 309.33,-622.43 306.82,-628.96"/>
</a>
</g>
</g>
<!-- Node7 -->
<g id="Node000007" class="node">
<title>Node7</title>
<g id="a_Node000007"><a xlink:href="class_core.html#aad563284176b829fa64177092388ef31" target="_top" xlink:title=" ">
<polygon fill="white" stroke="#666666" points="993.75,-504.25 887.75,-504.25 887.75,-485 993.75,-485 993.75,-504.25"/>
<text text-anchor="middle" x="940.75" y="-490.75" font-family="Helvetica,sans-Serif" font-size="10.00">Core::encode_action</text>
</a>
</g>
</g>
<!-- Node2&#45;&gt;Node7 -->
<g id="edge23_Node000002_Node000007" class="edge">
<title>Node2&#45;&gt;Node7</title>
<g id="a_edge23_Node000002_Node000007"><a xlink:title=" ">
<path fill="none" stroke="#63b8ff" d="M258.98,-476.73C380.27,-479.92 731.74,-489.16 876.4,-492.96"/>
<polygon fill="#63b8ff" stroke="#63b8ff" points="876.09,-496.45 886.18,-493.22 876.27,-489.45 876.09,-496.45"/>
</a>
</g>
</g>
<!-- Node16 -->
<g id="Node000016" class="node">
<title>Node16</title>
<g id="a_Node000016"><a xlink:href="class_core.html#aa6b37e20d4a33fc29c07a9cd61f8a993" target="_top" xlink:title=" ">
<polygon fill="white" stroke="#666666" points="418.5,-542.25 329.75,-542.25 329.75,-523 418.5,-523 418.5,-542.25"/>
<text text-anchor="middle" x="374.12" y="-528.75" font-family="Helvetica,sans-Serif" font-size="10.00">Core::display_all</text>
</a>
</g>
</g>
<!-- Node2&#45;&gt;Node16 -->
<g id="edge21_Node000002_Node000016" class="edge">
<title>Node2&#45;&gt;Node16</title>
<g id="a_edge21_Node000002_Node000016"><a xlink:title=" ">
<path fill="none" stroke="#63b8ff" d="M238.8,-485.64C254.19,-492.54 275.4,-501.67 294.5,-508.62 304.75,-512.36 315.89,-516 326.47,-519.28"/>
<polygon fill="#63b8ff" stroke="#63b8ff" points="325.21,-522.55 335.79,-522.11 327.24,-515.85 325.21,-522.55"/>
</a>
</g>
</g>
<!-- Node18 -->
<g id="Node000018" class="node">
<title>Node18</title>
<g id="a_Node000018"><a xlink:href="class_core.html#a39ca9509fdb72319509d1ec5a35e648b" target="_top" xlink:title=" ">
<polygon fill="white" stroke="#666666" points="822.5,-466.25 722.5,-466.25 722.5,-447 822.5,-447 822.5,-466.25"/>
<text text-anchor="middle" x="772.5" y="-452.75" font-family="Helvetica,sans-Serif" font-size="10.00">Core::gui_gamewin</text>
</a>
</g>
</g>
<!-- Node2&#45;&gt;Node18 -->
<g id="edge24_Node000002_Node000018" class="edge">
<title>Node2&#45;&gt;Node18</title>
<g id="a_edge24_Node000002_Node000018"><a xlink:title=" ">
<path fill="none" stroke="#63b8ff" d="M220.24,-465.74C228.4,-442.71 252.19,-385.8 294.5,-363.62 357.19,-330.77 393.75,-326.09 453.75,-363.62 484.76,-383.02 459.41,-417.2 489.75,-437.62 556.13,-482.33 652.4,-477.75 713.47,-468.56"/>
<polygon fill="#63b8ff" stroke="#63b8ff" points="714,-472.02 723.32,-466.98 712.89,-465.11 714,-472.02"/>
</a>
</g>
</g>
<!-- Node19 -->
<g id="Node000019" class="node">
<title>Node19</title>
<g id="a_Node000019"><a xlink:href="class_core.html#aae2b137a9885ae1ac3d740786cfdcb34" target="_top" xlink:title=" ">
<polygon fill="white" stroke="#666666" points="449.25,-262.25 299,-262.25 299,-243 449.25,-243 449.25,-262.25"/>
<text text-anchor="middle" x="374.12" y="-248.75" font-family="Helvetica,sans-Serif" font-size="10.00">Core::handleServerCommands</text>
</a>
</g>
</g>
<!-- Node2&#45;&gt;Node19 -->
<g id="edge26_Node000002_Node000019" class="edge">
<title>Node2&#45;&gt;Node19</title>
<g id="a_edge26_Node000002_Node000019"><a xlink:title=" ">
<path fill="none" stroke="#63b8ff" d="M221.14,-465.53C231.44,-441.04 259.89,-377.1 294.5,-330.62 311.65,-307.59 335.55,-284.89 352.49,-269.97"/>
<polygon fill="#63b8ff" stroke="#63b8ff" points="354.67,-272.7 359.95,-263.52 350.09,-267.41 354.67,-272.7"/>
</a>
</g>
</g>
<!-- Node36 -->
<g id="Node000036" class="node">
<title>Node36</title>
<g id="a_Node000036"><a xlink:href="class_core.html#a7598cae8d7f080449adeb642bec57f82" target="_top" xlink:title=" ">
<polygon fill="white" stroke="#666666" points="433.12,-466.25 315.12,-466.25 315.12,-447 433.12,-447 433.12,-466.25"/>
<text text-anchor="middle" x="374.12" y="-452.75" font-family="Helvetica,sans-Serif" font-size="10.00">Core::loadAssetsGame</text>
</a>
</g>
</g>
<!-- Node2&#45;&gt;Node36 -->
<g id="edge49_Node000002_Node000036" class="edge">
<title>Node2&#45;&gt;Node36</title>
<g id="a_edge49_Node000002_Node000036"><a xlink:title=" ">
<path fill="none" stroke="#63b8ff" d="M258.84,-470.53C272.65,-468.85 288.4,-466.94 303.71,-465.07"/>
<polygon fill="#63b8ff" stroke="#63b8ff" points="303.73,-468.6 313.23,-463.91 302.88,-461.65 303.73,-468.6"/>
</a>
</g>
</g>
<!-- Node37 -->
<g id="Node000037" class="node">
<title>Node37</title>
<g id="a_Node000037"><a xlink:href="class_core.html#a60c2e3c959b9936a76fc4ece0c15c824" target="_top" xlink:title=" ">
<polygon fill="white" stroke="#666666" points="453.75,-429.25 294.5,-429.25 294.5,-410 453.75,-410 453.75,-429.25"/>
<text text-anchor="middle" x="374.12" y="-415.75" font-family="Helvetica,sans-Serif" font-size="10.00">Core::loadBlackAndWhiteShader</text>
</a>
</g>
</g>
<!-- Node2&#45;&gt;Node37 -->
<g id="edge50_Node000002_Node000037" class="edge">
<title>Node2&#45;&gt;Node37</title>
<g id="a_edge50_Node000002_Node000037"><a xlink:title=" ">
<path fill="none" stroke="#63b8ff" d="M234.65,-465.5C250.04,-457.04 273.17,-445.18 294.5,-437.62 299.59,-435.82 304.94,-434.15 310.34,-432.62"/>
<polygon fill="#63b8ff" stroke="#63b8ff" points="311.23,-436 320,-430.05 309.43,-429.24 311.23,-436"/>
</a>
</g>
</g>
<!-- Node38 -->
<g id="Node000038" class="node">
<title>Node38</title>
<g id="a_Node000038"><a xlink:href="class_core.html#a87bcabef342dd958994c72d7a6f90893" target="_top" xlink:title=" ">
<polygon fill="white" stroke="#666666" points="442.12,-392.25 306.12,-392.25 306.12,-373 442.12,-373 442.12,-392.25"/>
<text text-anchor="middle" x="374.12" y="-378.75" font-family="Helvetica,sans-Serif" font-size="10.00">Core::loadDaltonismShader</text>
</a>
</g>
</g>
<!-- Node2&#45;&gt;Node38 -->
<g id="edge51_Node000002_Node000038" class="edge">
<title>Node2&#45;&gt;Node38</title>
<g id="a_edge51_Node000002_Node000038"><a xlink:title=" ">
<path fill="none" stroke="#63b8ff" d="M224.35,-465.59C236.85,-449.3 263.89,-417.23 294.5,-400.62 297.18,-399.17 299.97,-397.84 302.83,-396.61"/>
<polygon fill="#63b8ff" stroke="#63b8ff" points="303.91,-399.94 312.04,-393.15 301.45,-393.39 303.91,-399.94"/>
</a>
</g>
</g>
<!-- Node39 -->
<g id="Node000039" class="node">
<title>Node39</title>
<g id="a_Node000039"><a xlink:href="class_core.html#a29ffabe78710e79a74cdcb1bebe48c72" target="_top" xlink:title=" ">
<polygon fill="white" stroke="#666666" points="427.12,-590.88 321.12,-590.88 321.12,-560.38 427.12,-560.38 427.12,-590.88"/>
<text text-anchor="start" x="329.12" y="-577.38" font-family="Helvetica,sans-Serif" font-size="10.00">Core::setup_position</text>
<text text-anchor="middle" x="374.12" y="-566.12" font-family="Helvetica,sans-Serif" font-size="10.00">_timer</text>
</a>
</g>
</g>
<!-- Node2&#45;&gt;Node39 -->
<g id="edge52_Node000002_Node000039" class="edge">
<title>Node2&#45;&gt;Node39</title>
<g id="a_edge52_Node000002_Node000039"><a xlink:title=" ">
<path fill="none" stroke="#63b8ff" d="M224.45,-485.55C237.11,-501.72 264.36,-533.73 294.5,-551.62 299.44,-554.56 304.76,-557.16 310.23,-559.46"/>
<polygon fill="#63b8ff" stroke="#63b8ff" points="308.86,-562.69 319.45,-563 311.37,-556.15 308.86,-562.69"/>
</a>
</g>
</g>
<!-- Node42 -->
<g id="Node000042" class="node">
<title>Node42</title>
<g id="a_Node000042"><a xlink:href="class_core.html#add546b58affbab300bbc14b34b7f091e" target="_top" xlink:title=" ">
<polygon fill="white" stroke="#666666" points="420.75,-720.25 327.5,-720.25 327.5,-701 420.75,-701 420.75,-720.25"/>
<text text-anchor="middle" x="374.12" y="-706.75" font-family="Helvetica,sans-Serif" font-size="10.00">Core::update_hud</text>
</a>
</g>
</g>
<!-- Node2&#45;&gt;Node42 -->
<g id="edge56_Node000002_Node000042" class="edge">
<title>Node2&#45;&gt;Node42</title>
<g id="a_edge56_Node000002_Node000042"><a xlink:title=" ">
<path fill="none" stroke="#63b8ff" d="M217.35,-485.66C219.14,-520.2 229.9,-635.23 294.5,-692.62 300.69,-698.12 308.21,-702.04 316.13,-704.82"/>
<polygon fill="#63b8ff" stroke="#63b8ff" points="315.04,-708.15 325.61,-707.52 316.95,-701.42 315.04,-708.15"/>
</a>
</g>
</g>
<!-- Node5 -->
<g id="Node000005" class="node">
<title>Node5</title>
<g id="a_Node000005"><a xlink:href="class_core.html#a63200a1cc9505da6942f9bd7642df237" target="_top" xlink:title=" ">
<polygon fill="white" stroke="#666666" points="632.88,-627.88 514.12,-627.88 514.12,-597.38 632.88,-597.38 632.88,-627.88"/>
<text text-anchor="start" x="522.12" y="-614.38" font-family="Helvetica,sans-Serif" font-size="10.00">Core::handle_horizontal</text>
<text text-anchor="middle" x="573.5" y="-603.12" font-family="Helvetica,sans-Serif" font-size="10.00">_movement</text>
</a>
</g>
</g>
<!-- Node4&#45;&gt;Node5 -->
<g id="edge4_Node000004_Node000005" class="edge">
<title>Node4&#45;&gt;Node5</title>
<g id="a_edge4_Node000004_Node000005"><a xlink:title=" ">
<path fill="none" stroke="#63b8ff" d="M429.32,-630.04C451.98,-627.28 478.6,-624.04 502.69,-621.11"/>
<polygon fill="#63b8ff" stroke="#63b8ff" points="502.92,-624.61 512.43,-619.93 502.08,-617.66 502.92,-624.61"/>
</a>
</g>
</g>
<!-- Node9 -->
<g id="Node000009" class="node">
<title>Node9</title>
<g id="a_Node000009"><a xlink:href="class_core.html#ac8463d54a65aacc36654e1dcd96166b9" target="_top" xlink:title=" ">
<polygon fill="white" stroke="#666666" points="623.88,-665.25 523.12,-665.25 523.12,-646 623.88,-646 623.88,-665.25"/>
<text text-anchor="middle" x="573.5" y="-651.75" font-family="Helvetica,sans-Serif" font-size="10.00">Core::handle_shoot</text>
</a>
</g>
</g>
<!-- Node4&#45;&gt;Node9 -->
<g id="edge9_Node000004_Node000009" class="edge">
<title>Node4&#45;&gt;Node9</title>
<g id="a_edge9_Node000004_Node000009"><a xlink:title=" ">
<path fill="none" stroke="#63b8ff" d="M429.32,-641.84C454.77,-644.29 485.21,-647.22 511.47,-649.75"/>
<polygon fill="#63b8ff" stroke="#63b8ff" points="511.03,-653.22 521.31,-650.7 511.7,-646.26 511.03,-653.22"/>
</a>
</g>
</g>
<!-- Node10 -->
<g id="Node000010" class="node">
<title>Node10</title>
<g id="a_Node000010"><a xlink:href="class_core.html#a7a1438f7b147b90acbe4130458a3048c" target="_top" xlink:title=" ">
<polygon fill="white" stroke="#666666" points="627.62,-713.88 519.38,-713.88 519.38,-683.38 627.62,-683.38 627.62,-713.88"/>
<text text-anchor="start" x="527.38" y="-700.38" font-family="Helvetica,sans-Serif" font-size="10.00">Core::handle_vertical</text>
<text text-anchor="middle" x="573.5" y="-689.12" font-family="Helvetica,sans-Serif" font-size="10.00">_movement</text>
</a>
</g>
</g>
<!-- Node4&#45;&gt;Node10 -->
<g id="edge11_Node000004_Node000010" class="edge">
<title>Node4&#45;&gt;Node10</title>
<g id="a_edge11_Node000004_Node000010"><a xlink:title=" ">
<path fill="none" stroke="#63b8ff" d="M428.6,-646.72C437.13,-648.94 445.77,-651.57 453.75,-654.62 470.84,-661.18 472.85,-667.59 489.75,-674.62 495.68,-677.09 501.94,-679.41 508.27,-681.55"/>
<polygon fill="#63b8ff" stroke="#63b8ff" points="506.88,-684.78 517.48,-684.53 509.04,-678.12 506.88,-684.78"/>
</a>
</g>
</g>
<!-- Node6 -->
<g id="Node000006" class="node">
<title>Node6</title>
<g id="a_Node000006"><a xlink:href="class_core.html#a5bf4669d69fe8e52f0c41dff71c2c592" target="_top" xlink:title=" ">
<polygon fill="white" stroke="#666666" points="843.88,-582.25 701.12,-582.25 701.12,-563 843.88,-563 843.88,-582.25"/>
<text text-anchor="middle" x="772.5" y="-568.75" font-family="Helvetica,sans-Serif" font-size="10.00">Core::handle_horizontal_stop</text>
</a>
</g>
</g>
<!-- Node5&#45;&gt;Node6 -->
<g id="edge5_Node000005_Node000006" class="edge">
<title>Node5&#45;&gt;Node6</title>
<g id="a_edge5_Node000005_Node000006"><a xlink:title=" ">
<path fill="none" stroke="#63b8ff" d="M633.34,-600.68C657.82,-595.71 686.23,-589.94 710.89,-584.93"/>
<polygon fill="#63b8ff" stroke="#63b8ff" points="711.35,-588.41 720.45,-582.99 709.95,-581.55 711.35,-588.41"/>
</a>
</g>
</g>
<!-- Node8 -->
<g id="Node000008" class="node">
<title>Node8</title>
<g id="a_Node000008"><a xlink:href="class_core.html#a76ad333a648e0e20b1b12fb5a416774c" target="_top" xlink:title=" ">
<polygon fill="white" stroke="#666666" points="822.88,-630.88 722.12,-630.88 722.12,-600.38 822.88,-600.38 822.88,-630.88"/>
<text text-anchor="start" x="730.12" y="-617.38" font-family="Helvetica,sans-Serif" font-size="10.00">Core::send_input_if</text>
<text text-anchor="middle" x="772.5" y="-606.12" font-family="Helvetica,sans-Serif" font-size="10.00">_needed</text>
</a>
</g>
</g>
<!-- Node5&#45;&gt;Node8 -->
<g id="edge7_Node000005_Node000008" class="edge">
<title>Node5&#45;&gt;Node8</title>
<g id="a_edge7_Node000005_Node000008"><a xlink:title=" ">
<path fill="none" stroke="#63b8ff" d="M633.34,-613.52C657.71,-613.89 685.97,-614.32 710.56,-614.7"/>
<polygon fill="#63b8ff" stroke="#63b8ff" points="710.37,-618.19 720.42,-614.85 710.48,-611.2 710.37,-618.19"/>
</a>
</g>
</g>
<!-- Node6&#45;&gt;Node7 -->
<g id="edge6_Node000006_Node000007" class="edge">
<title>Node6&#45;&gt;Node7</title>
<g id="a_edge6_Node000006_Node000007"><a xlink:title=" ">
<path fill="none" stroke="#63b8ff" d="M829.06,-562.56C836.83,-560.37 844.6,-557.75 851.75,-554.62 876.91,-543.62 902.49,-525.2 919.54,-511.66"/>
<polygon fill="#63b8ff" stroke="#63b8ff" points="921.35,-514.7 926.9,-505.68 916.93,-509.27 921.35,-514.7"/>
</a>
</g>
</g>
<!-- Node8&#45;&gt;Node7 -->
<g id="edge8_Node000008_Node000007" class="edge">
<title>Node8&#45;&gt;Node7</title>
<g id="a_edge8_Node000008_Node000007"><a xlink:title=" ">
<path fill="none" stroke="#63b8ff" d="M823.28,-604.75C833.15,-601.41 843.11,-597.11 851.75,-591.62 884.06,-571.11 911.93,-535.63 927.23,-513.74"/>
<polygon fill="#63b8ff" stroke="#63b8ff" points="929.95,-515.97 932.67,-505.73 924.15,-512.03 929.95,-515.97"/>
</a>
</g>
</g>
<!-- Node9&#45;&gt;Node8 -->
<g id="edge10_Node000009_Node000008" class="edge">
<title>Node9&#45;&gt;Node8</title>
<g id="a_edge10_Node000009_Node000008"><a xlink:title=" ">
<path fill="none" stroke="#63b8ff" d="M624.21,-645.53C650.46,-640.2 682.89,-633.62 710.63,-627.98"/>
<polygon fill="#63b8ff" stroke="#63b8ff" points="711.22,-631.44 720.32,-626.02 709.82,-624.58 711.22,-631.44"/>
</a>
</g>
</g>
<!-- Node10&#45;&gt;Node8 -->
<g id="edge20_Node000010_Node000008" class="edge">
<title>Node10&#45;&gt;Node8</title>
<g id="a_edge20_Node000010_Node000008"><a xlink:title=" ">
<path fill="none" stroke="#63b8ff" d="M627.74,-687.36C637.91,-684.07 648.2,-679.89 657.25,-674.62 676.54,-663.41 674.05,-650.99 693.25,-639.62 698.89,-636.29 705.04,-633.37 711.33,-630.84"/>
<polygon fill="#63b8ff" stroke="#63b8ff" points="712.38,-634.18 720.56,-627.44 709.97,-627.61 712.38,-634.18"/>
</a>
</g>
</g>
<!-- Node11 -->
<g id="Node000011" class="node">
<title>Node11</title>
<g id="a_Node000011"><a xlink:href="class_core.html#a1ae796fe1ad262de4484a8838fa53c48" target="_top" xlink:title=" ">
<polygon fill="white" stroke="#666666" points="825.5,-705.25 719.5,-705.25 719.5,-686 825.5,-686 825.5,-705.25"/>
<text text-anchor="middle" x="772.5" y="-691.75" font-family="Helvetica,sans-Serif" font-size="10.00">Core::animate_down</text>
</a>
</g>
</g>
<!-- Node10&#45;&gt;Node11 -->
<g id="edge12_Node000010_Node000011" class="edge">
<title>Node10&#45;&gt;Node11</title>
<g id="a_edge12_Node000010_Node000011"><a xlink:title=" ">
<path fill="none" stroke="#63b8ff" d="M628.07,-697.81C652.78,-697.43 682.3,-696.98 708.11,-696.59"/>
<polygon fill="#63b8ff" stroke="#63b8ff" points="707.84,-700.09 717.79,-696.44 707.74,-693.1 707.84,-700.09"/>
</a>
</g>
</g>
<!-- Node13 -->
<g id="Node000013" class="node">
<title>Node13</title>
<g id="a_Node000013"><a xlink:href="class_core.html#a5c24c3d1aa2061ee09283ffe7943e256" target="_top" xlink:title=" ">
<polygon fill="white" stroke="#666666" points="835.25,-779.25 709.75,-779.25 709.75,-760 835.25,-760 835.25,-779.25"/>
<text text-anchor="middle" x="772.5" y="-765.75" font-family="Helvetica,sans-Serif" font-size="10.00">Core::animate_to_neutral</text>
</a>
</g>
</g>
<!-- Node10&#45;&gt;Node13 -->
<g id="edge14_Node000010_Node000013" class="edge">
<title>Node10&#45;&gt;Node13</title>
<g id="a_edge14_Node000010_Node000013"><a xlink:title=" ">
<path fill="none" stroke="#63b8ff" d="M605.1,-714.26C628.7,-725.83 662.42,-741.31 693.25,-751.62 698.65,-753.43 704.31,-755.12 710.02,-756.68"/>
<polygon fill="#63b8ff" stroke="#63b8ff" points="708.98,-760.03 719.54,-759.15 710.74,-753.25 708.98,-760.03"/>
</a>
</g>
</g>
<!-- Node14 -->
<g id="Node000014" class="node">
<title>Node14</title>
<g id="a_Node000014"><a xlink:href="class_core.html#a32360bca0d21983d2d9b920229144fab" target="_top" xlink:title=" ">
<polygon fill="white" stroke="#666666" points="819.12,-742.25 725.88,-742.25 725.88,-723 819.12,-723 819.12,-742.25"/>
<text text-anchor="middle" x="772.5" y="-728.75" font-family="Helvetica,sans-Serif" font-size="10.00">Core::animate_up</text>
</a>
</g>
</g>
<!-- Node10&#45;&gt;Node14 -->
<g id="edge16_Node000010_Node000014" class="edge">
<title>Node10&#45;&gt;Node14</title>
<g id="a_edge16_Node000010_Node000014"><a xlink:title=" ">
<path fill="none" stroke="#63b8ff" d="M628.07,-707.87C654.79,-712.48 687.12,-718.06 714.32,-722.76"/>
<polygon fill="#63b8ff" stroke="#63b8ff" points="713.69,-726.2 724.14,-724.45 714.88,-719.3 713.69,-726.2"/>
</a>
</g>
</g>
<!-- Node15 -->
<g id="Node000015" class="node">
<title>Node15</title>
<g id="a_Node000015"><a xlink:href="class_core.html#a358f46d664d8eaa3680ec8de58a0fa1e" target="_top" xlink:title=" ">
<polygon fill="white" stroke="#666666" points="838.62,-668.25 706.38,-668.25 706.38,-649 838.62,-649 838.62,-668.25"/>
<text text-anchor="middle" x="772.5" y="-654.75" font-family="Helvetica,sans-Serif" font-size="10.00">Core::handle_vertical_stop</text>
</a>
</g>
</g>
<!-- Node10&#45;&gt;Node15 -->
<g id="edge18_Node000010_Node000015" class="edge">
<title>Node10&#45;&gt;Node15</title>
<g id="a_edge18_Node000010_Node000015"><a xlink:title=" ">
<path fill="none" stroke="#63b8ff" d="M628.07,-687.75C653.59,-682.57 684.24,-676.34 710.63,-670.98"/>
<polygon fill="#63b8ff" stroke="#63b8ff" points="711.07,-674.47 720.18,-669.05 709.68,-667.61 711.07,-674.47"/>
</a>
</g>
</g>
<!-- Node12 -->
<g id="Node000012" class="node">
<title>Node12</title>
<g id="a_Node000012"><a xlink:href="class_core.html#ae37ec3409102a80e9958b8c2910f16ef" target="_top" xlink:title=" ">
<polygon fill="white" stroke="#666666" points="991.5,-747.88 890,-747.88 890,-717.38 991.5,-717.38 991.5,-747.88"/>
<text text-anchor="start" x="898" y="-734.38" font-family="Helvetica,sans-Serif" font-size="10.00">Core::update_sprite</text>
<text text-anchor="middle" x="940.75" y="-723.12" font-family="Helvetica,sans-Serif" font-size="10.00">_frame</text>
</a>
</g>
</g>
<!-- Node11&#45;&gt;Node12 -->
<g id="edge13_Node000011_Node000012" class="edge">
<title>Node11&#45;&gt;Node12</title>
<g id="a_edge13_Node000011_Node000012"><a xlink:title=" ">
<path fill="none" stroke="#63b8ff" d="M818.93,-705.74C837.34,-709.83 858.88,-714.63 878.63,-719.02"/>
<polygon fill="#63b8ff" stroke="#63b8ff" points="877.7,-722.4 888.22,-721.16 879.22,-715.57 877.7,-722.4"/>
</a>
</g>
</g>
<!-- Node13&#45;&gt;Node12 -->
<g id="edge15_Node000013_Node000012" class="edge">
<title>Node13&#45;&gt;Node12</title>
<g id="a_edge15_Node000013_Node000012"><a xlink:title=" ">
<path fill="none" stroke="#63b8ff" d="M818.93,-759.51C837.34,-755.42 858.88,-750.62 878.63,-746.23"/>
<polygon fill="#63b8ff" stroke="#63b8ff" points="879.22,-749.68 888.22,-744.09 877.7,-742.85 879.22,-749.68"/>
</a>
</g>
</g>
<!-- Node14&#45;&gt;Node12 -->
<g id="edge17_Node000014_Node000012" class="edge">
<title>Node14&#45;&gt;Node12</title>
<g id="a_edge17_Node000014_Node000012"><a xlink:title=" ">
<path fill="none" stroke="#63b8ff" d="M819.37,-732.62C837.61,-732.62 858.86,-732.62 878.39,-732.62"/>
<polygon fill="#63b8ff" stroke="#63b8ff" points="878.14,-736.13 888.14,-732.63 878.14,-729.13 878.14,-736.13"/>
</a>
</g>
</g>
<!-- Node15&#45;&gt;Node7 -->
<g id="edge19_Node000015_Node000007" class="edge">
<title>Node15&#45;&gt;Node7</title>
<g id="a_edge19_Node000015_Node000007"><a xlink:title=" ">
<path fill="none" stroke="#63b8ff" d="M835.4,-648.59C841.22,-646.2 846.79,-643.26 851.75,-639.62 895.37,-607.7 921.68,-547.02 933.08,-515.22"/>
<polygon fill="#63b8ff" stroke="#63b8ff" points="936.3,-516.6 936.23,-506 929.68,-514.33 936.3,-516.6"/>
</a>
</g>
</g>
<!-- Node17 -->
<g id="Node000017" class="node">
<title>Node17</title>
<g id="a_Node000017"><a xlink:href="class_core.html#ae4b485ff1d26a87dbfb1f94051e1f902" target="_top" xlink:title=" ">
<polygon fill="white" stroke="#666666" points="637,-542.25 510,-542.25 510,-523 637,-523 637,-542.25"/>
<text text-anchor="middle" x="573.5" y="-528.75" font-family="Helvetica,sans-Serif" font-size="10.00">Core::displayRegistryInfo</text>
</a>
</g>
</g>
<!-- Node16&#45;&gt;Node17 -->
<g id="edge22_Node000016_Node000017" class="edge">
<title>Node16&#45;&gt;Node17</title>
<g id="a_edge22_Node000016_Node000017"><a xlink:title=" ">
<path fill="none" stroke="#63b8ff" d="M418.93,-532.62C442.28,-532.62 471.65,-532.62 498.43,-532.62"/>
<polygon fill="#63b8ff" stroke="#63b8ff" points="498.21,-536.13 508.21,-532.63 498.21,-529.13 498.21,-536.13"/>
</a>
</g>
</g>
<!-- Node18&#45;&gt;Node7 -->
<g id="edge25_Node000018_Node000007" class="edge">
<title>Node18&#45;&gt;Node7</title>
<g id="a_edge25_Node000018_Node000007"><a xlink:title=" ">
<path fill="none" stroke="#63b8ff" d="M817.62,-466.71C838.18,-471.41 862.86,-477.05 884.63,-482.03"/>
<polygon fill="#63b8ff" stroke="#63b8ff" points="883.71,-485.41 894.24,-484.22 885.27,-478.58 883.71,-485.41"/>
</a>
</g>
</g>
<!-- Node19&#45;&gt;Node1 -->
<g id="edge46_Node000019_Node000001" class="edge">
<title>Node19&#45;&gt;Node1</title>
<g id="a_edge46_Node000019_Node000001"><a xlink:title=" ">
<path fill="none" stroke="#63b8ff" d="M349.74,-262.64C296.4,-285.5 165.52,-341.59 103.45,-368.18"/>
<polygon fill="#63b8ff" stroke="#63b8ff" points="102.26,-364.89 94.44,-372.04 105.01,-371.32 102.26,-364.89"/>
</a>
</g>
</g>
<!-- Node19&#45;&gt;Node7 -->
<g id="edge27_Node000019_Node000007" class="edge">
<title>Node19&#45;&gt;Node7</title>
<g id="a_edge27_Node000019_Node000007"><a xlink:title=" ">
<path fill="none" stroke="#63b8ff" d="M377.52,-242.9C386.09,-210.55 418.55,-106.38 489.75,-66.62 560.08,-27.35 791.62,-32.02 851.75,-85.62 910.69,-138.17 932.99,-396.48 938.37,-473.14"/>
<polygon fill="#63b8ff" stroke="#63b8ff" points="934.87,-473.29 939.04,-483.04 941.86,-472.82 934.87,-473.29"/>
</a>
</g>
</g>
<!-- Node20 -->
<g id="Node000020" class="node">
<title>Node20</title>
<g id="a_Node000020"><a xlink:href="class_core.html#a402d54bcd5820fda94013f08a54fe394" target="_top" xlink:title=" ">
<polygon fill="white" stroke="#666666" points="650.5,-206.25 496.5,-206.25 496.5,-187 650.5,-187 650.5,-206.25"/>
<text text-anchor="middle" x="573.5" y="-192.75" font-family="Helvetica,sans-Serif" font-size="10.00">Core::handleCollisionCommand</text>
</a>
</g>
</g>
<!-- Node19&#45;&gt;Node20 -->
<g id="edge28_Node000019_Node000020" class="edge">
<title>Node19&#45;&gt;Node20</title>
<g id="a_edge28_Node000019_Node000020"><a xlink:title=" ">
<path fill="none" stroke="#63b8ff" d="M402.67,-242.58C425.73,-234.39 459.62,-222.87 489.75,-214.62 496.54,-212.77 503.69,-210.97 510.83,-209.28"/>
<polygon fill="#63b8ff" stroke="#63b8ff" points="511.53,-212.71 520.49,-207.06 509.96,-205.89 511.53,-212.71"/>
</a>
</g>
</g>
<!-- Node25 -->
<g id="Node000025" class="node">
<title>Node25</title>
<g id="a_Node000025"><a xlink:href="class_core.html#a38f36a0900fda03c200f0b900d25af9f" target="_top" xlink:title=" ">
<polygon fill="white" stroke="#666666" points="650.12,-132.25 496.88,-132.25 496.88,-113 650.12,-113 650.12,-132.25"/>
<text text-anchor="middle" x="573.5" y="-118.75" font-family="Helvetica,sans-Serif" font-size="10.00">Core::handleConnectCommand</text>
</a>
</g>
</g>
<!-- Node19&#45;&gt;Node25 -->
<g id="edge34_Node000019_Node000025" class="edge">
<title>Node19&#45;&gt;Node25</title>
<g id="a_edge34_Node000019_Node000025"><a xlink:title=" ">
<path fill="none" stroke="#63b8ff" d="M382.15,-242.68C398.35,-220.53 440.76,-167.01 489.75,-140.62 492.45,-139.17 495.26,-137.84 498.14,-136.61"/>
<polygon fill="#63b8ff" stroke="#63b8ff" points="499.26,-139.92 507.41,-133.15 496.82,-133.37 499.26,-139.92"/>
</a>
</g>
</g>
<!-- Node26 -->
<g id="Node000026" class="node">
<title>Node26</title>
<g id="a_Node000026"><a xlink:href="class_core.html#a6336489bf72426dc2c618a61832238ce" target="_top" xlink:title=" ">
<polygon fill="white" stroke="#666666" points="644.88,-169.25 502.12,-169.25 502.12,-150 644.88,-150 644.88,-169.25"/>
<text text-anchor="middle" x="573.5" y="-155.75" font-family="Helvetica,sans-Serif" font-size="10.00">Core::handleDeathCommand</text>
</a>
</g>
</g>
<!-- Node19&#45;&gt;Node26 -->
<g id="edge35_Node000019_Node000026" class="edge">
<title>Node19&#45;&gt;Node26</title>
<g id="a_edge35_Node000019_Node000026"><a xlink:title=" ">
<path fill="none" stroke="#63b8ff" d="M387,-242.7C406.93,-226.57 448.95,-194.72 489.75,-177.62 493.83,-175.92 498.09,-174.36 502.44,-172.94"/>
<polygon fill="#63b8ff" stroke="#63b8ff" points="503.31,-176.34 511.91,-170.14 501.33,-169.62 503.31,-176.34"/>
</a>
</g>
</g>
<!-- Node28 -->
<g id="Node000028" class="node">
<title>Node28</title>
<g id="a_Node000028"><a xlink:href="class_core.html#a7c67115737d781142c2e45bee998daac" target="_top" xlink:title=" ">
<polygon fill="white" stroke="#666666" points="656.5,-95.25 490.5,-95.25 490.5,-76 656.5,-76 656.5,-95.25"/>
<text text-anchor="middle" x="573.5" y="-81.75" font-family="Helvetica,sans-Serif" font-size="10.00">Core::handleDisconnectCommand</text>
</a>
</g>
</g>
<!-- Node19&#45;&gt;Node28 -->
<g id="edge38_Node000019_Node000028" class="edge">
<title>Node19&#45;&gt;Node28</title>
<g id="a_edge38_Node000019_Node000028"><a xlink:title=" ">
<path fill="none" stroke="#63b8ff" d="M379.65,-242.71C392.57,-215.61 432.4,-139.95 489.75,-103.62 491.61,-102.44 493.54,-101.34 495.52,-100.31"/>
<polygon fill="#63b8ff" stroke="#63b8ff" points="496.71,-103.61 504.41,-96.34 493.85,-97.22 496.71,-103.61"/>
</a>
</g>
</g>
<!-- Node29 -->
<g id="Node000029" class="node">
<title>Node29</title>
<g id="a_Node000029"><a xlink:href="class_core.html#a5db2bb533195df4af29c23d833e5a061" target="_top" xlink:title=" ">
<polygon fill="white" stroke="#666666" points="653.88,-19.25 493.12,-19.25 493.12,0 653.88,0 653.88,-19.25"/>
<text text-anchor="middle" x="573.5" y="-5.75" font-family="Helvetica,sans-Serif" font-size="10.00">Core::handleMobShootCommand</text>
</a>
</g>
</g>
<!-- Node19&#45;&gt;Node29 -->
<g id="edge40_Node000019_Node000029" class="edge">
<title>Node19&#45;&gt;Node29</title>
<g id="a_edge40_Node000019_Node000029"><a xlink:title=" ">
<path fill="none" stroke="#63b8ff" d="M377.39,-242.55C385.72,-207.87 417.99,-92.3 489.75,-33.62 494.27,-29.93 499.33,-26.81 504.66,-24.16"/>
<polygon fill="#63b8ff" stroke="#63b8ff" points="505.98,-27.4 513.79,-20.25 503.22,-20.97 505.98,-27.4"/>
</a>
</g>
</g>
<!-- Node30 -->
<g id="Node000030" class="node">
<title>Node30</title>
<g id="a_Node000030"><a xlink:href="class_core.html#a886c451a25e2e20ec3b5917250601f3d" target="_top" xlink:title=" ">
<polygon fill="white" stroke="#666666" points="656.12,-391.25 490.88,-391.25 490.88,-372 656.12,-372 656.12,-391.25"/>
<text text-anchor="middle" x="573.5" y="-377.75" font-family="Helvetica,sans-Serif" font-size="10.00">Core::handleMobSpawnCommand</text>
</a>
</g>
</g>
<!-- Node19&#45;&gt;Node30 -->
<g id="edge41_Node000019_Node000030" class="edge">
<title>Node19&#45;&gt;Node30</title>
<g id="a_edge41_Node000019_Node000030"><a xlink:title=" ">
<path fill="none" stroke="#63b8ff" d="M385.03,-262.51C411.7,-289.07 483.4,-360.22 489.75,-363.62 492.45,-365.07 495.26,-366.4 498.14,-367.63"/>
<polygon fill="#63b8ff" stroke="#63b8ff" points="496.83,-370.87 507.42,-371.08 499.27,-364.31 496.83,-370.87"/>
</a>
</g>
</g>
<!-- Node31 -->
<g id="Node000031" class="node">
<title>Node31</title>
<g id="a_Node000031"><a xlink:href="class_core.html#a18c325c19760f36a20ba7372ab9c69cd" target="_top" xlink:title=" ">
<polygon fill="white" stroke="#666666" points="643.75,-354.25 503.25,-354.25 503.25,-335 643.75,-335 643.75,-354.25"/>
<text text-anchor="middle" x="573.5" y="-340.75" font-family="Helvetica,sans-Serif" font-size="10.00">Core::handleMoveCommand</text>
</a>
</g>
</g>
<!-- Node19&#45;&gt;Node31 -->
<g id="edge42_Node000019_Node000031" class="edge">
<title>Node19&#45;&gt;Node31</title>
<g id="a_edge42_Node000019_Node000031"><a xlink:title=" ">
<path fill="none" stroke="#63b8ff" d="M387.35,-262.66C407.44,-278.65 449.28,-309.81 489.75,-326.62 494.03,-328.4 498.5,-330.01 503.07,-331.47"/>
<polygon fill="#63b8ff" stroke="#63b8ff" points="501.79,-334.75 512.37,-334.19 503.75,-328.03 501.79,-334.75"/>
</a>
</g>
</g>
<!-- Node32 -->
<g id="Node000032" class="node">
<title>Node32</title>
<g id="a_Node000032"><a xlink:href="class_core.html#a54f1d074e15b44725e628aa9367ef985" target="_top" xlink:title=" ">
<polygon fill="white" stroke="#666666" points="657.25,-317.25 489.75,-317.25 489.75,-298 657.25,-298 657.25,-317.25"/>
<text text-anchor="middle" x="573.5" y="-303.75" font-family="Helvetica,sans-Serif" font-size="10.00">Core::handleMovementCommands</text>
</a>
</g>
</g>
<!-- Node19&#45;&gt;Node32 -->
<g id="edge43_Node000019_Node000032" class="edge">
<title>Node19&#45;&gt;Node32</title>
<g id="a_edge43_Node000019_Node000032"><a xlink:title=" ">
<path fill="none" stroke="#63b8ff" d="M403.63,-262.69C426.68,-270.61 460.07,-281.63 489.75,-289.62 496.73,-291.5 504.07,-293.33 511.39,-295.04"/>
<polygon fill="#63b8ff" stroke="#63b8ff" points="510.42,-298.41 520.95,-297.22 511.98,-291.59 510.42,-298.41"/>
</a>
</g>
</g>
<!-- Node33 -->
<g id="Node000033" class="node">
<title>Node33</title>
<g id="a_Node000033"><a xlink:href="class_core.html#ab225cc2ef8539bcf400e02e46d16f7a1" target="_top" xlink:title=" ">
<polygon fill="white" stroke="#666666" points="652,-280.25 495,-280.25 495,-261 652,-261 652,-280.25"/>
<text text-anchor="middle" x="573.5" y="-266.75" font-family="Helvetica,sans-Serif" font-size="10.00">Core::handlePowerUpCommand</text>
</a>
</g>
</g>
<!-- Node19&#45;&gt;Node33 -->
<g id="edge44_Node000019_Node000033" class="edge">
<title>Node19&#45;&gt;Node33</title>
<g id="a_edge44_Node000019_Node000033"><a xlink:title=" ">
<path fill="none" stroke="#63b8ff" d="M449.74,-259.43C460.8,-260.44 472.28,-261.49 483.59,-262.52"/>
<polygon fill="#63b8ff" stroke="#63b8ff" points="483.03,-265.98 493.31,-263.4 483.67,-259.01 483.03,-265.98"/>
</a>
</g>
</g>
<!-- Node34 -->
<g id="Node000034" class="node">
<title>Node34</title>
<g id="a_Node000034"><a xlink:href="class_core.html#aa792853f5ed5d5c6248e20fad821f6ca" target="_top" xlink:title=" ">
<polygon fill="white" stroke="#666666" points="647.12,-243.25 499.88,-243.25 499.88,-224 647.12,-224 647.12,-243.25"/>
<text text-anchor="middle" x="573.5" y="-229.75" font-family="Helvetica,sans-Serif" font-size="10.00">Core::handleShootCommands</text>
</a>
</g>
</g>
<!-- Node19&#45;&gt;Node34 -->
<g id="edge45_Node000019_Node000034" class="edge">
<title>Node19&#45;&gt;Node34</title>
<g id="a_edge45_Node000019_Node000034"><a xlink:title=" ">
<path fill="none" stroke="#63b8ff" d="M449.74,-245.44C462.32,-244.23 475.46,-242.97 488.27,-241.73"/>
<polygon fill="#63b8ff" stroke="#63b8ff" points="488.28,-245.25 497.9,-240.81 487.61,-238.28 488.28,-245.25"/>
</a>
</g>
</g>
<!-- Node35 -->
<g id="Node000035" class="node">
<title>Node35</title>
<g id="a_Node000035"><a xlink:href="class_core.html#a99550195181899dc74f311dec7d3df4e" target="_top" xlink:title=" ">
<polygon fill="white" stroke="#666666" points="640.38,-428.25 506.62,-428.25 506.62,-409 640.38,-409 640.38,-428.25"/>
<text text-anchor="middle" x="573.5" y="-414.75" font-family="Helvetica,sans-Serif" font-size="10.00">Core::handleWinCommand</text>
</a>
</g>
</g>
<!-- Node19&#45;&gt;Node35 -->
<g id="edge47_Node000019_Node000035" class="edge">
<title>Node19&#45;&gt;Node35</title>
<g id="a_edge47_Node000019_Node000035"><a xlink:title=" ">
<path fill="none" stroke="#63b8ff" d="M387.5,-262.72C404.09,-276.7 433.75,-303.32 453.75,-330.62 474.42,-358.85 462.01,-379.31 489.75,-400.62 491.79,-402.19 493.93,-403.62 496.16,-404.94"/>
<polygon fill="#63b8ff" stroke="#63b8ff" points="494.51,-408.03 505.02,-409.31 497.6,-401.75 494.51,-408.03"/>
</a>
</g>
</g>
<!-- Node21 -->
<g id="Node000021" class="node">
<title>Node21</title>
<g id="a_Node000021"><a xlink:href="class_core.html#a18d897088678ca2d82d41413bd62c824" target="_top" xlink:title=" ">
<polygon fill="white" stroke="#666666" points="836.38,-206.25 708.62,-206.25 708.62,-187 836.38,-187 836.38,-206.25"/>
<text text-anchor="middle" x="772.5" y="-192.75" font-family="Helvetica,sans-Serif" font-size="10.00">Core::handleMobCollision</text>
</a>
</g>
</g>
<!-- Node20&#45;&gt;Node21 -->
<g id="edge29_Node000020_Node000021" class="edge">
<title>Node20&#45;&gt;Node21</title>
<g id="a_edge29_Node000020_Node000021"><a xlink:title=" ">
<path fill="none" stroke="#63b8ff" d="M650.95,-196.62C666.03,-196.62 681.84,-196.62 696.86,-196.62"/>
<polygon fill="#63b8ff" stroke="#63b8ff" points="696.66,-200.13 706.66,-196.63 696.66,-193.13 696.66,-200.13"/>
</a>
</g>
</g>
<!-- Node22 -->
<g id="Node000022" class="node">
<title>Node22</title>
<g id="a_Node000022"><a xlink:href="class_core.html#a517f4f0a345db4205dd553669bd72852" target="_top" xlink:title=" ">
<polygon fill="white" stroke="#666666" points="851.75,-280.25 693.25,-280.25 693.25,-261 851.75,-261 851.75,-280.25"/>
<text text-anchor="middle" x="772.5" y="-266.75" font-family="Helvetica,sans-Serif" font-size="10.00">Core::handleMobMissileCollision</text>
</a>
</g>
</g>
<!-- Node20&#45;&gt;Node22 -->
<g id="edge30_Node000020_Node000022" class="edge">
<title>Node20&#45;&gt;Node22</title>
<g id="a_edge30_Node000020_Node000022"><a xlink:title=" ">
<path fill="none" stroke="#63b8ff" d="M639.16,-206.68C645.47,-208.83 651.61,-211.45 657.25,-214.62 677.52,-226.05 673.05,-241.08 693.25,-252.62 695.6,-253.97 698.04,-255.21 700.55,-256.36"/>
<polygon fill="#63b8ff" stroke="#63b8ff" points="699.17,-259.58 709.75,-260.02 701.76,-253.07 699.17,-259.58"/>
</a>
</g>
</g>
<!-- Node23 -->
<g id="Node000023" class="node">
<title>Node23</title>
<g id="a_Node000023"><a xlink:href="class_core.html#a22e0fed60eb09cc09408650d66c38617" target="_top" xlink:title=" ">
<polygon fill="white" stroke="#666666" points="847.25,-243.25 697.75,-243.25 697.75,-224 847.25,-224 847.25,-243.25"/>
<text text-anchor="middle" x="772.5" y="-229.75" font-family="Helvetica,sans-Serif" font-size="10.00">Core::handlePowerUpCollision</text>
</a>
</g>
</g>
<!-- Node20&#45;&gt;Node23 -->
<g id="edge31_Node000020_Node000023" class="edge">
<title>Node20&#45;&gt;Node23</title>
<g id="a_edge31_Node000020_Node000023"><a xlink:title=" ">
<path fill="none" stroke="#63b8ff" d="M628.33,-206.74C652.54,-211.28 681.33,-216.69 706.71,-221.46"/>
<polygon fill="#63b8ff" stroke="#63b8ff" points="705.77,-224.84 716.25,-223.25 707.06,-217.96 705.77,-224.84"/>
</a>
</g>
</g>
<!-- Node24 -->
<g id="Node000024" class="node">
<title>Node24</title>
<g id="a_Node000024"><a xlink:href="class_core.html#a398cf70a8dafff61d11f9d0928ed6111" target="_top" xlink:title=" ">
<polygon fill="white" stroke="#666666" points="836.75,-169.25 708.25,-169.25 708.25,-150 836.75,-150 836.75,-169.25"/>
<text text-anchor="middle" x="772.5" y="-155.75" font-family="Helvetica,sans-Serif" font-size="10.00">Core::updatePlayerHealth</text>
</a>
</g>
</g>
<!-- Node20&#45;&gt;Node24 -->
<g id="edge32_Node000020_Node000024" class="edge">
<title>Node20&#45;&gt;Node24</title>
<g id="a_edge32_Node000020_Node000024"><a xlink:title=" ">
<path fill="none" stroke="#63b8ff" d="M628.33,-186.51C652.54,-181.97 681.33,-176.56 706.71,-171.79"/>
<polygon fill="#63b8ff" stroke="#63b8ff" points="707.06,-175.29 716.25,-170 705.77,-168.41 707.06,-175.29"/>
</a>
</g>
</g>
<!-- Node24&#45;&gt;Node7 -->
<g id="edge33_Node000024_Node000007" class="edge">
<title>Node24&#45;&gt;Node7</title>
<g id="a_edge33_Node000024_Node000007"><a xlink:title=" ">
<path fill="none" stroke="#63b8ff" d="M836.87,-167.67C842.33,-170.22 847.42,-173.48 851.75,-177.62 895.49,-219.45 927.11,-409.23 936.71,-473.37"/>
<polygon fill="#63b8ff" stroke="#63b8ff" points="933.24,-473.86 938.16,-483.25 940.17,-472.85 933.24,-473.86"/>
</a>
</g>
</g>
<!-- Node26&#45;&gt;Node24 -->
<g id="edge36_Node000026_Node000024" class="edge">
<title>Node26&#45;&gt;Node24</title>
<g id="a_edge36_Node000026_Node000024"><a xlink:title=" ">
<path fill="none" stroke="#63b8ff" d="M645.34,-159.62C661.92,-159.62 679.64,-159.62 696.4,-159.62"/>
<polygon fill="#63b8ff" stroke="#63b8ff" points="696.31,-163.13 706.31,-159.63 696.31,-156.13 696.31,-163.13"/>
</a>
</g>
</g>
<!-- Node27 -->
<g id="Node000027" class="node">
<title>Node27</title>
<g id="a_Node000027"><a xlink:href="class_core.html#ad9e2c3752fe957de05a7aa7a6675d502" target="_top" xlink:title=" ">
<polygon fill="white" stroke="#666666" points="826.62,-114.25 718.38,-114.25 718.38,-95 826.62,-95 826.62,-114.25"/>
<text text-anchor="middle" x="772.5" y="-100.75" font-family="Helvetica,sans-Serif" font-size="10.00">Core::updatePlayerId</text>
</a>
</g>
</g>
<!-- Node26&#45;&gt;Node27 -->
<g id="edge37_Node000026_Node000027" class="edge">
<title>Node26&#45;&gt;Node27</title>
<g id="a_edge37_Node000026_Node000027"><a xlink:title=" ">
<path fill="none" stroke="#63b8ff" d="M624.58,-149.57C635.4,-147.16 646.75,-144.46 657.25,-141.62 682.45,-134.82 710.32,-125.83 732.23,-118.41"/>
<polygon fill="#63b8ff" stroke="#63b8ff" points="733.33,-121.73 741.66,-115.18 731.07,-115.1 733.33,-121.73"/>
</a>
</g>
</g>
<!-- Node28&#45;&gt;Node27 -->
<g id="edge39_Node000028_Node000027" class="edge">
<title>Node28&#45;&gt;Node27</title>
<g id="a_edge39_Node000028_Node000027"><a xlink:title=" ">
<path fill="none" stroke="#63b8ff" d="M656.9,-93.57C673.53,-95.18 690.79,-96.84 706.71,-98.38"/>
<polygon fill="#63b8ff" stroke="#63b8ff" points="706.25,-101.85 716.54,-99.32 706.92,-94.88 706.25,-101.85"/>
</a>
</g>
</g>
<!-- Node35&#45;&gt;Node18 -->
<g id="edge48_Node000035_Node000018" class="edge">
<title>Node35&#45;&gt;Node18</title>
<g id="a_edge48_Node000035_Node000018"><a xlink:title=" ">
<path fill="none" stroke="#63b8ff" d="M626.78,-428.71C652.61,-433.69 683.93,-439.73 710.81,-444.92"/>
<polygon fill="#63b8ff" stroke="#63b8ff" points="710.07,-448.34 720.55,-446.8 711.39,-441.47 710.07,-448.34"/>
</a>
</g>
</g>
<!-- Node39&#45;&gt;Node39 -->
<g id="edge55_Node000039_Node000039" class="edge">
<title>Node39&#45;&gt;Node39</title>
<g id="a_edge55_Node000039_Node000039"><a xlink:title=" ">
<path fill="none" stroke="#63b8ff" d="M346.11,-591.36C340.39,-600.43 349.73,-608.88 374.12,-608.88 387.47,-608.88 396.31,-606.35 400.64,-602.58"/>
<polygon fill="#63b8ff" stroke="#63b8ff" points="404.09,-603.24 401.94,-592.86 397.15,-602.31 404.09,-603.24"/>
</a>
</g>
</g>
<!-- Node40 -->
<g id="Node000040" class="node">
<title>Node40</title>
<g id="a_Node000040"><a xlink:href="class_systems.html#a310d4de4ff4f8212b2ded614e411d102" target="_top" xlink:title=" ">
<polygon fill="white" stroke="#666666" points="639.62,-579.25 507.38,-579.25 507.38,-560 639.62,-560 639.62,-579.25"/>
<text text-anchor="middle" x="573.5" y="-565.75" font-family="Helvetica,sans-Serif" font-size="10.00">Systems::position_system</text>
</a>
</g>
</g>
<!-- Node39&#45;&gt;Node40 -->
<g id="edge53_Node000039_Node000040" class="edge">
<title>Node39&#45;&gt;Node40</title>
<g id="a_edge53_Node000039_Node000040"><a xlink:title=" ">
<path fill="none" stroke="#63b8ff" d="M427.5,-574.03C448.41,-573.4 472.9,-572.65 495.74,-571.96"/>
<polygon fill="#63b8ff" stroke="#63b8ff" points="495.75,-575.46 505.64,-571.66 495.54,-568.46 495.75,-575.46"/>
</a>
</g>
</g>
<!-- Node41 -->
<g id="Node000041" class="node">
<title>Node41</title>
<g id="a_Node000041"><a xlink:href="classregistry.html#a3866ee276a5a1d78d00cd403e8e8c7d9" target="_top" xlink:title=" ">
<polygon fill="white" stroke="#666666" points="835.62,-545.25 709.38,-545.25 709.38,-526 835.62,-526 835.62,-545.25"/>
<text text-anchor="middle" x="772.5" y="-531.75" font-family="Helvetica,sans-Serif" font-size="10.00">registry::get_components</text>
</a>
</g>
</g>
<!-- Node40&#45;&gt;Node41 -->
<g id="edge54_Node000040_Node000041" class="edge">
<title>Node40&#45;&gt;Node41</title>
<g id="a_edge54_Node000040_Node000041"><a xlink:title=" ">
<path fill="none" stroke="#63b8ff" d="M633.07,-559.52C654.71,-555.78 679.44,-551.51 701.96,-547.63"/>
<polygon fill="#63b8ff" stroke="#63b8ff" points="702.4,-551.1 711.66,-545.95 701.21,-544.2 702.4,-551.1"/>
</a>
</g>
</g>
</g>
</svg>

<g id="navigator" transform="translate(0 0)" fill="#404254">
  <rect fill="#f2f5e9" fill-opacity="0.5" stroke="#606060" stroke-width=".5" x="0" y="0" width="60" height="60"/>
  <use id="zoomplus" xlink:href="#zoomPlus" x="17" y="9" onmousedown="handleZoom(evt,'in')"/>
  <use id="zoomminus" xlink:href="#zoomMin" x="42" y="9" onmousedown="handleZoom(evt,'out')"/>
  <use id="reset" xlink:href="#resetDef" x="30" y="36" onmousedown="handleReset()"/>
   <use id="arrowup" xlink:href="#arrowUp" x="0" y="0" onmousedown="handlePan(0,-1)"/>
  <use id="arrowright" xlink:href="#arrowRight" x="0" y="0" onmousedown="handlePan(1,0)"/>
  <use id="arrowdown" xlink:href="#arrowDown" x="0" y="0" onmousedown="handlePan(0,1)"/>
  <use id="arrowleft" xlink:href="#arrowLeft" x="0" y="0" onmousedown="handlePan(-1,0)"/>
</g>
<svg viewBox="0 0 15 15" width="100%" height="30px" preserveAspectRatio="xMaxYMin meet">
 <g id="arrow_out" transform="scale(0.3 0.3)">
  <a xlink:href="class_core_a3b2840725a18b5e49614dd429f449289_cgraph_org.svg" target="_base">
   <rect id="button" ry="5" rx="5" y="6" x="6" height="38" width="38"
        fill="#f2f5e9" fill-opacity="0.5" stroke="#606060" stroke-width="1.0"/>
   <path id="arrow"
     d="M 11.500037,31.436501 C 11.940474,20.09759 22.043105,11.32322 32.158766,21.979434 L 37.068811,17.246167 C 37.068811,17.246167 37.088388,32 37.088388,32 L 22.160133,31.978069 C 22.160133,31.978069 26.997745,27.140456 26.997745,27.140456 C 18.528582,18.264221 13.291696,25.230495 11.500037,31.436501 z"
     style="fill:#404040;"/>
  </a>
 </g>
</svg>

<style type='text/css'>
<![CDATA[
[data-mouse-over-selected='false'] { opacity: 0.7; }
[data-mouse-over-selected='true']  { opacity: 1.0; }
]]>
</style>
<script type="application/ecmascript"><![CDATA[
document.addEventListener('DOMContentLoaded', (event) => {
  highlightEdges();
  highlightAdjacentNodes();
});
]]></script>
</svg>
