<?xml version="1.0" encoding="UTF-8" standalone="no"?>
<!DOCTYPE svg PUBLIC "-//W3C//DTD SVG 1.1//EN"
 "http://www.w3.org/Graphics/SVG/1.1/DTD/svg11.dtd">
<!-- Generated by graphviz version 12.2.1 (20241206.2353)
 -->
<!-- Title: ServerNetwork::start Pages: 1 -->
<!--zoomable 112 -->

<svg id="main" version="1.1" xmlns="http://www.w3.org/2000/svg" xmlns:xlink="http://www.w3.org/1999/xlink" xml:space="preserve" onload="init(evt)">

<style type="text/css"><![CDATA[
.node, .edge {opacity: 0.7;}
.node.selected, .edge.selected {opacity: 1;}
.edge:hover path { stroke: red; }
.edge:hover polygon { stroke: red; fill: red; }
]]></style>

<defs>
  <circle id="rim" cx="0" cy="0" r="7"/>
  <circle id="rim2" cx="0" cy="0" r="3.5"/>
  <g id="zoomPlus">
    <use xlink:href="#rim" fill="#404040"><set attributeName="fill" to="#808080" begin="zoomplus.mouseover" end="zoomplus.mouseout"/></use>
    <path d="M-4,0h8M0,-4v8" fill="none" stroke="white" stroke-width="1.5" pointer-events="none"/>
  </g>
  <g id="zoomMin">
    <use xlink:href="#rim" fill="#404040"><set attributeName="fill" to="#808080" begin="zoomminus.mouseover" end="zoomminus.mouseout"/></use>
    <path d="M-4,0h8" fill="none" stroke="white" stroke-width="1.5" pointer-events="none"/>
  </g>
  <g id="arrowUp" transform="translate(30 24)">
    <use xlink:href="#rim"/>
    <path pointer-events="none" fill="none" stroke="white" stroke-width="1.5" d="M0,-3.0v7 M-2.5,-0.5L0,-3.0L2.5,-0.5"/>
  </g>
  <g id="arrowRight" transform="rotate(90) translate(36 -43)">
    <use xlink:href="#rim"/>
    <path pointer-events="none" fill="none" stroke="white" stroke-width="1.5" d="M0,-3.0v7 M-2.5,-0.5L0,-3.0L2.5,-0.5"/>
  </g>
  <g id="arrowDown" transform="rotate(180) translate(-30 -48)">
    <use xlink:href="#rim"/>
    <path pointer-events="none" fill="none" stroke="white" stroke-width="1.5" d="M0,-3.0v7 M-2.5,-0.5L0,-3.0L2.5,-0.5"/>
  </g>
  <g id="arrowLeft" transform="rotate(270) translate(-36 17)">
    <use xlink:href="#rim"/>
    <path pointer-events="none" fill="none" stroke="white" stroke-width="1.5" d="M0,-3.0v7 M-2.5,-0.5L0,-3.0L2.5,-0.5"/>
  </g>
  <g id="resetDef">
    <use xlink:href="#rim2" fill="#404040"><set attributeName="fill" to="#808080" begin="reset.mouseover" end="reset.mouseout"/></use>
  </g>
</defs>
<script type="application/ecmascript">
var viewWidth = 579;
var viewHeight = 112;
var sectionId = 'dynsection-24';
</script>
<script type="application/ecmascript" xlink:href="svg.min.js"/>
<svg id="graph" class="graph">
<g id="viewport">
<title>ServerNetwork::start</title>
<!-- Node1 -->
<g id="Node000001" class="node">
<title>Node1</title>
<g id="a_Node000001"><a xlink:title=" ">
<polygon fill="#999999" stroke="#666666" points="106.75,-72.88 0,-72.88 0,-53.62 106.75,-53.62 106.75,-72.88"/>
<text text-anchor="middle" x="53.38" y="-59.38" font-family="Helvetica,sans-Serif" font-size="10.00">ServerNetwork::start</text>
</a>
</g>
</g>
<!-- Node2 -->
<g id="Node000002" class="node">
<title>Node2</title>
<g id="a_Node000002"><a xlink:href="class_server_network.html#a231bfb41bda1137994952ec41e01c5d0" target="_top" xlink:title=" ">
<polygon fill="white" stroke="#666666" points="261.5,-78.5 142.75,-78.5 142.75,-48 261.5,-48 261.5,-78.5"/>
<text text-anchor="start" x="150.75" y="-65" font-family="Helvetica,sans-Serif" font-size="10.00">ServerNetwork::receive</text>
<text text-anchor="middle" x="202.12" y="-53.75" font-family="Helvetica,sans-Serif" font-size="10.00">_messages</text>
</a>
</g>
</g>
<!-- Node1&#45;&gt;Node2 -->
<g id="edge1_Node000001_Node000002" class="edge">
<title>Node1&#45;&gt;Node2</title>
<g id="a_edge1_Node000001_Node000002"><a xlink:title=" ">
<path fill="none" stroke="#63b8ff" d="M106.94,-63.25C114.77,-63.25 122.94,-63.25 131.05,-63.25"/>
<polygon fill="#63b8ff" stroke="#63b8ff" points="130.94,-66.75 140.94,-63.25 130.94,-59.75 130.94,-66.75"/>
</a>
</g>
</g>
<!-- Node3 -->
<g id="Node000003" class="node">
<title>Node3</title>
<g id="a_Node000003"><a xlink:href="class_server_network.html#ae7ffb8d734525e9bf4f6bac4fa10dbfe" target="_top" xlink:title=" ">
<polygon fill="white" stroke="#666666" points="416.25,-103.5 297.5,-103.5 297.5,-73 416.25,-73 416.25,-103.5"/>
<text text-anchor="start" x="305.5" y="-90" font-family="Helvetica,sans-Serif" font-size="10.00">ServerNetwork::decode</text>
<text text-anchor="middle" x="356.88" y="-78.75" font-family="Helvetica,sans-Serif" font-size="10.00">_message</text>
</a>
</g>
</g>
<!-- Node2&#45;&gt;Node3 -->
<g id="edge2_Node000002_Node000003" class="edge">
<title>Node2&#45;&gt;Node3</title>
<g id="a_edge2_Node000002_Node000003"><a xlink:title=" ">
<path fill="none" stroke="#63b8ff" d="M261.75,-72.84C269.64,-74.14 277.8,-75.47 285.86,-76.79"/>
<polygon fill="#63b8ff" stroke="#63b8ff" points="285.23,-80.23 295.67,-78.4 286.36,-73.33 285.23,-80.23"/>
</a>
</g>
</g>
<!-- Node4 -->
<g id="Node000004" class="node">
<title>Node4</title>
<g id="a_Node000004"><a xlink:href="class_server_network.html#afab7785be9c68eb1c569a36b64b358b6" target="_top" xlink:title=" ">
<polygon fill="white" stroke="#666666" points="414.75,-54.5 299,-54.5 299,-24 414.75,-24 414.75,-54.5"/>
<text text-anchor="start" x="307" y="-41" font-family="Helvetica,sans-Serif" font-size="10.00">ServerNetwork::handle</text>
<text text-anchor="middle" x="356.88" y="-29.75" font-family="Helvetica,sans-Serif" font-size="10.00">_game_message</text>
</a>
</g>
</g>
<!-- Node2&#45;&gt;Node4 -->
<g id="edge3_Node000002_Node000004" class="edge">
<title>Node2&#45;&gt;Node4</title>
<g id="a_edge3_Node000002_Node000004"><a xlink:title=" ">
<path fill="none" stroke="#63b8ff" d="M261.75,-54.04C270.17,-52.72 278.9,-51.34 287.49,-49.99"/>
<polygon fill="#63b8ff" stroke="#63b8ff" points="287.84,-53.48 297.18,-48.47 286.75,-46.57 287.84,-53.48"/>
</a>
</g>
</g>
<!-- Node5 -->
<g id="Node000005" class="node">
<title>Node5</title>
<g id="a_Node000005"><a xlink:href="class_server_network.html#a3cdc99eb8ed134a23329bf2d8f9c74d2" target="_top" xlink:title=" ">
<polygon fill="white" stroke="#666666" points="571,-79.5 452.25,-79.5 452.25,-49 571,-49 571,-79.5"/>
<text text-anchor="start" x="460.25" y="-66" font-family="Helvetica,sans-Serif" font-size="10.00">ServerNetwork::encode</text>
<text text-anchor="middle" x="511.62" y="-54.75" font-family="Helvetica,sans-Serif" font-size="10.00">_action</text>
</a>
</g>
</g>
<!-- Node4&#45;&gt;Node5 -->
<g id="edge4_Node000004_Node000005" class="edge">
<title>Node4&#45;&gt;Node5</title>
<g id="a_edge4_Node000004_Node000005"><a xlink:title=" ">
<path fill="none" stroke="#63b8ff" d="M415.19,-48.63C423.55,-50 432.23,-51.42 440.8,-52.82"/>
<polygon fill="#63b8ff" stroke="#63b8ff" points="440.04,-56.24 450.48,-54.41 441.18,-49.34 440.04,-56.24"/>
</a>
</g>
</g>
<!-- Node6 -->
<g id="Node000006" class="node">
<title>Node6</title>
<g id="a_Node000006"><a xlink:href="class_server_network.html#a0db1c8289d4b7ebb1274dab1d4dc9798" target="_top" xlink:title=" ">
<polygon fill="white" stroke="#666666" points="562,-30.5 461.25,-30.5 461.25,0 562,0 562,-30.5"/>
<text text-anchor="start" x="469.25" y="-17" font-family="Helvetica,sans-Serif" font-size="10.00">ServerNetwork::get</text>
<text text-anchor="middle" x="511.62" y="-5.75" font-family="Helvetica,sans-Serif" font-size="10.00">_action_name</text>
</a>
</g>
</g>
<!-- Node4&#45;&gt;Node6 -->
<g id="edge5_Node000004_Node000006" class="edge">
<title>Node4&#45;&gt;Node6</title>
<g id="a_edge5_Node000004_Node000006"><a xlink:title=" ">
<path fill="none" stroke="#63b8ff" d="M415.19,-30.25C426.49,-28.47 438.39,-26.6 449.8,-24.81"/>
<polygon fill="#63b8ff" stroke="#63b8ff" points="450.18,-28.29 459.51,-23.28 449.09,-21.38 450.18,-28.29"/>
</a>
</g>
</g>
</g>
</svg>

<g id="navigator" transform="translate(0 0)" fill="#404254">
  <rect fill="#f2f5e9" fill-opacity="0.5" stroke="#606060" stroke-width=".5" x="0" y="0" width="60" height="60"/>
  <use id="zoomplus" xlink:href="#zoomPlus" x="17" y="9" onmousedown="handleZoom(evt,'in')"/>
  <use id="zoomminus" xlink:href="#zoomMin" x="42" y="9" onmousedown="handleZoom(evt,'out')"/>
  <use id="reset" xlink:href="#resetDef" x="30" y="36" onmousedown="handleReset()"/>
   <use id="arrowup" xlink:href="#arrowUp" x="0" y="0" onmousedown="handlePan(0,-1)"/>
  <use id="arrowright" xlink:href="#arrowRight" x="0" y="0" onmousedown="handlePan(1,0)"/>
  <use id="arrowdown" xlink:href="#arrowDown" x="0" y="0" onmousedown="handlePan(0,1)"/>
  <use id="arrowleft" xlink:href="#arrowLeft" x="0" y="0" onmousedown="handlePan(-1,0)"/>
</g>
<svg viewBox="0 0 15 15" width="100%" height="30px" preserveAspectRatio="xMaxYMin meet">
 <g id="arrow_out" transform="scale(0.3 0.3)">
  <a xlink:href="class_server_network_ae99b7e63fdf7ee47520e3b0891a70c6b_cgraph_org.svg" target="_base">
   <rect id="button" ry="5" rx="5" y="6" x="6" height="38" width="38"
        fill="#f2f5e9" fill-opacity="0.5" stroke="#606060" stroke-width="1.0"/>
   <path id="arrow"
     d="M 11.500037,31.436501 C 11.940474,20.09759 22.043105,11.32322 32.158766,21.979434 L 37.068811,17.246167 C 37.068811,17.246167 37.088388,32 37.088388,32 L 22.160133,31.978069 C 22.160133,31.978069 26.997745,27.140456 26.997745,27.140456 C 18.528582,18.264221 13.291696,25.230495 11.500037,31.436501 z"
     style="fill:#404040;"/>
  </a>
 </g>
</svg>

<style type='text/css'>
<![CDATA[
[data-mouse-over-selected='false'] { opacity: 0.7; }
[data-mouse-over-selected='true']  { opacity: 1.0; }
]]>
</style>
<script type="application/ecmascript"><![CDATA[
document.addEventListener('DOMContentLoaded', (event) => {
  highlightEdges();
  highlightAdjacentNodes();
});
]]></script>
</svg>
