<?xml version="1.0" encoding="UTF-8" standalone="no"?>
<!DOCTYPE svg PUBLIC "-//W3C//DTD SVG 1.1//EN"
 "http://www.w3.org/Graphics/SVG/1.1/DTD/svg11.dtd">
<!-- Generated by graphviz version 12.2.1 (20241206.2353)
 -->
<!-- Title: ServerGame::setup_invincible_timer Pages: 1 -->
<svg width="472pt" height="57pt"
 viewBox="0.00 0.00 472.25 56.50" xmlns="http://www.w3.org/2000/svg" xmlns:xlink="http://www.w3.org/1999/xlink">
<g id="graph0" class="graph" transform="scale(1 1) rotate(0) translate(4 52.5)">
<title>ServerGame::setup_invincible_timer</title>
<!-- Node1 -->
<g id="Node000001" class="node">
<title>Node1</title>
<g id="a_Node000001"><a xlink:title=" ">
<polygon fill="#999999" stroke="#666666" points="464.25,-30.5 317.75,-30.5 317.75,0 464.25,0 464.25,-30.5"/>
<text text-anchor="start" x="325.75" y="-17" font-family="Helvetica,sans-Serif" font-size="10.00">ServerGame::setup_invincible</text>
<text text-anchor="middle" x="391" y="-5.75" font-family="Helvetica,sans-Serif" font-size="10.00">_timer</text>
</a>
</g>
</g>
<!-- Node1&#45;&gt;Node1 -->
<g id="edge3_Node000001_Node000001" class="edge">
<title>Node1&#45;&gt;Node1</title>
<g id="a_edge3_Node000001_Node000001"><a xlink:title=" ">
<path fill="none" stroke="#63b8ff" d="M419.34,-42.2C414.71,-45.97 405.26,-48.5 391,-48.5 364.92,-48.5 354.94,-40.06 361.05,-30.99"/>
<polygon fill="#63b8ff" stroke="#63b8ff" points="422.78,-42.88 420.73,-32.48 415.85,-41.89 422.78,-42.88"/>
</a>
</g>
</g>
<!-- Node2 -->
<g id="Node000002" class="node">
<title>Node2</title>
<g id="a_Node000002"><a xlink:href="class_server_game.html#a0157100c7f7204cb8d870947d0b81e6f" target="_top" xlink:title=" ">
<polygon fill="white" stroke="#666666" points="281.75,-24.88 162.25,-24.88 162.25,-5.63 281.75,-5.63 281.75,-24.88"/>
<text text-anchor="middle" x="222" y="-11.38" font-family="Helvetica,sans-Serif" font-size="10.00">ServerGame::initTimers</text>
</a>
</g>
</g>
<!-- Node1&#45;&gt;Node2 -->
<g id="edge1_Node000001_Node000002" class="edge">
<title>Node1&#45;&gt;Node2</title>
<g id="a_edge1_Node000001_Node000002"><a xlink:title=" ">
<path fill="none" stroke="#63b8ff" d="M306.22,-15.25C298.07,-15.25 289.92,-15.25 282.08,-15.25"/>
<polygon fill="#63b8ff" stroke="#63b8ff" points="306.21,-18.75 316.21,-15.25 306.21,-11.75 306.21,-18.75"/>
</a>
</g>
</g>
<!-- Node3 -->
<g id="Node000003" class="node">
<title>Node3</title>
<g id="a_Node000003"><a xlink:href="class_server_game.html#a0dcb65cf6ca824c15b425d6e731ac7cb" target="_top" xlink:title=" ">
<polygon fill="white" stroke="#666666" points="126.25,-24.88 0,-24.88 0,-5.63 126.25,-5.63 126.25,-24.88"/>
<text text-anchor="middle" x="63.12" y="-11.38" font-family="Helvetica,sans-Serif" font-size="10.00">ServerGame::handleStart</text>
</a>
</g>
</g>
<!-- Node2&#45;&gt;Node3 -->
<g id="edge2_Node000002_Node000003" class="edge">
<title>Node2&#45;&gt;Node3</title>
<g id="a_edge2_Node000002_Node000003"><a xlink:title=" ">
<path fill="none" stroke="#63b8ff" d="M150.88,-15.25C142.83,-15.25 134.66,-15.25 126.73,-15.25"/>
<polygon fill="#63b8ff" stroke="#63b8ff" points="150.63,-18.75 160.63,-15.25 150.63,-11.75 150.63,-18.75"/>
</a>
</g>
</g>
</g>
</svg>
