<?xml version="1.0" encoding="UTF-8" standalone="no"?>
<!DOCTYPE svg PUBLIC "-//W3C//DTD SVG 1.1//EN"
 "http://www.w3.org/Graphics/SVG/1.1/DTD/svg11.dtd">
<!-- Generated by graphviz version 12.2.1 (20241206.2353)
 -->
<!-- Title: Core::handleMobShootCommand Pages: 1 -->
<svg width="1212pt" height="101pt"
 viewBox="0.00 0.00 1211.75 101.25" xmlns="http://www.w3.org/2000/svg" xmlns:xlink="http://www.w3.org/1999/xlink">
<g id="graph0" class="graph" transform="scale(1 1) rotate(0) translate(4 97.25)">
<title>Core::handleMobShootCommand</title>
<!-- Node1 -->
<g id="Node000001" class="node">
<title>Node1</title>
<g id="a_Node000001"><a xlink:title=" ">
<polygon fill="#999999" stroke="#666666" points="1203.75,-56.25 1043,-56.25 1043,-37 1203.75,-37 1203.75,-56.25"/>
<text text-anchor="middle" x="1123.38" y="-42.75" font-family="Helvetica,sans-Serif" font-size="10.00">Core::handleMobShootCommand</text>
</a>
</g>
</g>
<!-- Node2 -->
<g id="Node000002" class="node">
<title>Node2</title>
<g id="a_Node000002"><a xlink:href="class_core.html#aae2b137a9885ae1ac3d740786cfdcb34" target="_top" xlink:title=" ">
<polygon fill="white" stroke="#666666" points="1007,-56.25 856.75,-56.25 856.75,-37 1007,-37 1007,-56.25"/>
<text text-anchor="middle" x="931.88" y="-42.75" font-family="Helvetica,sans-Serif" font-size="10.00">Core::handleServerCommands</text>
</a>
</g>
</g>
<!-- Node1&#45;&gt;Node2 -->
<g id="edge1_Node000001_Node000002" class="edge">
<title>Node1&#45;&gt;Node2</title>
<g id="a_edge1_Node000001_Node000002"><a xlink:title=" ">
<path fill="none" stroke="#63b8ff" d="M1031.31,-46.62C1023.32,-46.62 1015.3,-46.62 1007.46,-46.62"/>
<polygon fill="#63b8ff" stroke="#63b8ff" points="1031.05,-50.13 1041.05,-46.63 1031.05,-43.13 1031.05,-50.13"/>
</a>
</g>
</g>
<!-- Node3 -->
<g id="Node000003" class="node">
<title>Node3</title>
<g id="a_Node000003"><a xlink:href="class_core.html#a42623cce6be1bf30af3a1bca1ed73ed6" target="_top" xlink:title=" ">
<polygon fill="white" stroke="#666666" points="820.75,-56.25 735.75,-56.25 735.75,-37 820.75,-37 820.75,-56.25"/>
<text text-anchor="middle" x="778.25" y="-42.75" font-family="Helvetica,sans-Serif" font-size="10.00">Core::gui_game</text>
</a>
</g>
</g>
<!-- Node2&#45;&gt;Node3 -->
<g id="edge2_Node000002_Node000003" class="edge">
<title>Node2&#45;&gt;Node3</title>
<g id="a_edge2_Node000002_Node000003"><a xlink:title=" ">
<path fill="none" stroke="#63b8ff" d="M845.05,-46.62C836.77,-46.62 828.65,-46.62 821.1,-46.62"/>
<polygon fill="#63b8ff" stroke="#63b8ff" points="844.88,-50.13 854.88,-46.63 844.88,-43.13 844.88,-50.13"/>
</a>
</g>
</g>
<!-- Node7 -->
<g id="Node000007" class="node">
<title>Node7</title>
<g id="a_Node000007"><a xlink:href="class_core.html#ab5c7da5be504f0f34380b1ca5b97924b" target="_top" xlink:title=" ">
<polygon fill="white" stroke="#666666" points="820.38,-19.25 736.12,-19.25 736.12,0 820.38,0 820.38,-19.25"/>
<text text-anchor="middle" x="778.25" y="-5.75" font-family="Helvetica,sans-Serif" font-size="10.00">Core::gui_lobby</text>
</a>
</g>
</g>
<!-- Node2&#45;&gt;Node7 -->
<g id="edge7_Node000002_Node000007" class="edge">
<title>Node2&#45;&gt;Node7</title>
<g id="a_edge7_Node000002_Node000007"><a xlink:title=" ">
<path fill="none" stroke="#63b8ff" d="M878.31,-33.8C859.44,-29.19 838.43,-24.07 820.63,-19.72"/>
<polygon fill="#63b8ff" stroke="#63b8ff" points="877.43,-37.19 887.97,-36.16 879.09,-30.38 877.43,-37.19"/>
</a>
</g>
</g>
<!-- Node4 -->
<g id="Node000004" class="node">
<title>Node4</title>
<g id="a_Node000004"><a xlink:href="class_core.html#a3b2840725a18b5e49614dd429f449289" target="_top" xlink:title=" ">
<polygon fill="white" stroke="#666666" points="699.75,-93.25 562.25,-93.25 562.25,-74 699.75,-74 699.75,-93.25"/>
<text text-anchor="middle" x="631" y="-79.75" font-family="Helvetica,sans-Serif" font-size="10.00">Core::handleStartCommand</text>
</a>
</g>
</g>
<!-- Node3&#45;&gt;Node4 -->
<g id="edge3_Node000003_Node000004" class="edge">
<title>Node3&#45;&gt;Node4</title>
<g id="a_edge3_Node000003_Node000004"><a xlink:title=" ">
<path fill="none" stroke="#63b8ff" d="M726.64,-59.52C708.62,-64.11 688.61,-69.2 671.64,-73.53"/>
<polygon fill="#63b8ff" stroke="#63b8ff" points="727.27,-62.97 736.09,-57.11 725.54,-56.19 727.27,-62.97"/>
</a>
</g>
</g>
<!-- Node5 -->
<g id="Node000005" class="node">
<title>Node5</title>
<g id="a_Node000005"><a xlink:href="class_core.html#afe1c190b0d03ded99b7408538b16998c" target="_top" xlink:title=" ">
<polygon fill="white" stroke="#666666" points="674.62,-56.25 587.38,-56.25 587.38,-37 674.62,-37 674.62,-56.25"/>
<text text-anchor="middle" x="631" y="-42.75" font-family="Helvetica,sans-Serif" font-size="10.00">Core::login_auto</text>
</a>
</g>
</g>
<!-- Node3&#45;&gt;Node5 -->
<g id="edge5_Node000003_Node000005" class="edge">
<title>Node3&#45;&gt;Node5</title>
<g id="a_edge5_Node000003_Node000005"><a xlink:title=" ">
<path fill="none" stroke="#63b8ff" d="M724.13,-46.62C707.93,-46.62 690.33,-46.62 674.89,-46.62"/>
<polygon fill="#63b8ff" stroke="#63b8ff" points="724.11,-50.13 734.11,-46.63 724.11,-43.13 724.11,-50.13"/>
</a>
</g>
</g>
<!-- Node4&#45;&gt;Node2 -->
<g id="edge4_Node000004_Node000002" class="edge">
<title>Node4&#45;&gt;Node2</title>
<g id="a_edge4_Node000004_Node000002"><a xlink:title=" ">
<path fill="none" stroke="#63b8ff" d="M711.08,-77.43C744.92,-74.43 784.84,-70.43 820.75,-65.62 839.21,-63.16 859.31,-59.87 877.23,-56.72"/>
<polygon fill="#63b8ff" stroke="#63b8ff" points="711.01,-73.92 701.35,-78.28 711.62,-80.89 711.01,-73.92"/>
</a>
</g>
</g>
<!-- Node6 -->
<g id="Node000006" class="node">
<title>Node6</title>
<g id="a_Node000006"><a xlink:href="client_2main_8cpp.html#a0ddf1224851353fc92bfbff6f499fa97" target="_top" xlink:title=" ">
<polygon fill="white" stroke="#666666" points="37,-38.25 0,-38.25 0,-19 37,-19 37,-38.25"/>
<text text-anchor="middle" x="18.5" y="-24.75" font-family="Helvetica,sans-Serif" font-size="10.00">main</text>
</a>
</g>
</g>
<!-- Node5&#45;&gt;Node6 -->
<g id="edge6_Node000005_Node000006" class="edge">
<title>Node5&#45;&gt;Node6</title>
<g id="a_edge6_Node000005_Node000006"><a xlink:title=" ">
<path fill="none" stroke="#63b8ff" d="M575.71,-46.91C515.14,-47.21 414.25,-47.63 327.38,-47.62 327.38,-47.62 327.38,-47.62 206.25,-47.62 144,-47.63 70.69,-37.05 37.47,-31.68"/>
<polygon fill="#63b8ff" stroke="#63b8ff" points="575.41,-50.41 585.39,-46.86 575.37,-43.41 575.41,-50.41"/>
</a>
</g>
</g>
<!-- Node7&#45;&gt;Node5 -->
<g id="edge14_Node000007_Node000005" class="edge">
<title>Node7&#45;&gt;Node5</title>
<g id="a_edge14_Node000007_Node000005"><a xlink:title=" ">
<path fill="none" stroke="#63b8ff" d="M726.64,-22.52C708.62,-27.11 688.61,-32.2 671.64,-36.53"/>
<polygon fill="#63b8ff" stroke="#63b8ff" points="727.27,-25.97 736.09,-20.11 725.54,-19.19 727.27,-25.97"/>
</a>
</g>
</g>
<!-- Node8 -->
<g id="Node000008" class="node">
<title>Node8</title>
<g id="a_Node000008"><a xlink:href="class_core.html#ae373e5e53d26163bfc20d236fd116f89" target="_top" xlink:title=" ">
<polygon fill="white" stroke="#666666" points="662.62,-19.25 599.38,-19.25 599.38,0 662.62,0 662.62,-19.25"/>
<text text-anchor="middle" x="631" y="-5.75" font-family="Helvetica,sans-Serif" font-size="10.00">Core::login</text>
</a>
</g>
</g>
<!-- Node7&#45;&gt;Node8 -->
<g id="edge8_Node000007_Node000008" class="edge">
<title>Node7&#45;&gt;Node8</title>
<g id="a_edge8_Node000007_Node000008"><a xlink:title=" ">
<path fill="none" stroke="#63b8ff" d="M724.16,-9.62C703.61,-9.62 680.79,-9.62 663.01,-9.62"/>
<polygon fill="#63b8ff" stroke="#63b8ff" points="724.11,-13.13 734.11,-9.63 724.11,-6.13 724.11,-13.13"/>
</a>
</g>
</g>
<!-- Node9 -->
<g id="Node000009" class="node">
<title>Node9</title>
<g id="a_Node000009"><a xlink:href="class_core.html#a245f461d8f0f1feaa8b126f329c7db22" target="_top" xlink:title=" ">
<polygon fill="white" stroke="#666666" points="526.25,-19.25 403,-19.25 403,0 526.25,0 526.25,-19.25"/>
<text text-anchor="middle" x="464.62" y="-5.75" font-family="Helvetica,sans-Serif" font-size="10.00">Core::handleMouseClick</text>
</a>
</g>
</g>
<!-- Node8&#45;&gt;Node9 -->
<g id="edge9_Node000008_Node000009" class="edge">
<title>Node8&#45;&gt;Node9</title>
<g id="a_edge9_Node000008_Node000009"><a xlink:title=" ">
<path fill="none" stroke="#63b8ff" d="M587.75,-9.62C569.18,-9.62 547.02,-9.62 526.71,-9.62"/>
<polygon fill="#63b8ff" stroke="#63b8ff" points="587.57,-13.13 597.57,-9.63 587.57,-6.13 587.57,-13.13"/>
</a>
</g>
</g>
<!-- Node10 -->
<g id="Node000010" class="node">
<title>Node10</title>
<g id="a_Node000010"><a xlink:href="class_core.html#a1460b7116a24aa8c866c33c4f16bd5a4" target="_top" xlink:title=" ">
<polygon fill="white" stroke="#666666" points="367,-19.25 285.75,-19.25 285.75,0 367,0 367,-19.25"/>
<text text-anchor="middle" x="326.38" y="-5.75" font-family="Helvetica,sans-Serif" font-size="10.00">Core::gui_login</text>
</a>
</g>
</g>
<!-- Node9&#45;&gt;Node10 -->
<g id="edge10_Node000009_Node000010" class="edge">
<title>Node9&#45;&gt;Node10</title>
<g id="a_edge10_Node000009_Node000010"><a xlink:title=" ">
<path fill="none" stroke="#63b8ff" d="M391.34,-9.62C383.03,-9.62 374.8,-9.62 367.16,-9.62"/>
<polygon fill="#63b8ff" stroke="#63b8ff" points="391.16,-13.13 401.16,-9.63 391.16,-6.13 391.16,-13.13"/>
</a>
</g>
</g>
<!-- Node11 -->
<g id="Node000011" class="node">
<title>Node11</title>
<g id="a_Node000011"><a xlink:href="class_core.html#a78dfa9b9ed54a7ba8cfe1be701b79feb" target="_top" xlink:title=" ">
<polygon fill="white" stroke="#666666" points="249.75,-19.25 164.75,-19.25 164.75,0 249.75,0 249.75,-19.25"/>
<text text-anchor="middle" x="207.25" y="-5.75" font-family="Helvetica,sans-Serif" font-size="10.00">Core::gui_menu</text>
</a>
</g>
</g>
<!-- Node10&#45;&gt;Node11 -->
<g id="edge11_Node000010_Node000011" class="edge">
<title>Node10&#45;&gt;Node11</title>
<g id="a_edge11_Node000010_Node000011"><a xlink:title=" ">
<path fill="none" stroke="#63b8ff" d="M273.91,-9.62C265.93,-9.62 257.78,-9.62 250.05,-9.62"/>
<polygon fill="#63b8ff" stroke="#63b8ff" points="273.88,-13.13 283.88,-9.63 273.88,-6.13 273.88,-13.13"/>
</a>
</g>
</g>
<!-- Node12 -->
<g id="Node000012" class="node">
<title>Node12</title>
<g id="a_Node000012"><a xlink:href="class_core.html#aa6045a2323610bfa0ee712b028eb43e4" target="_top" xlink:title=" ">
<polygon fill="white" stroke="#666666" points="128.75,-19.25 73,-19.25 73,0 128.75,0 128.75,-19.25"/>
<text text-anchor="middle" x="100.88" y="-5.75" font-family="Helvetica,sans-Serif" font-size="10.00">Core::gui</text>
</a>
</g>
</g>
<!-- Node11&#45;&gt;Node12 -->
<g id="edge12_Node000011_Node000012" class="edge">
<title>Node11&#45;&gt;Node12</title>
<g id="a_edge12_Node000011_Node000012"><a xlink:title=" ">
<path fill="none" stroke="#63b8ff" d="M153.09,-9.62C144.76,-9.62 136.46,-9.62 129.04,-9.62"/>
<polygon fill="#63b8ff" stroke="#63b8ff" points="152.88,-13.13 162.88,-9.63 152.88,-6.13 152.88,-13.13"/>
</a>
</g>
</g>
<!-- Node12&#45;&gt;Node6 -->
<g id="edge13_Node000012_Node000006" class="edge">
<title>Node12&#45;&gt;Node6</title>
<g id="a_edge13_Node000012_Node000006"><a xlink:title=" ">
<path fill="none" stroke="#63b8ff" d="M61.68,-18.65C53.18,-20.66 44.55,-22.7 37.34,-24.41"/>
<polygon fill="#63b8ff" stroke="#63b8ff" points="62.26,-22.11 71.19,-16.41 60.65,-15.3 62.26,-22.11"/>
</a>
</g>
</g>
</g>
</svg>
