<?xml version="1.0" encoding="UTF-8" standalone="no"?>
<!DOCTYPE svg PUBLIC "-//W3C//DTD SVG 1.1//EN"
 "http://www.w3.org/Graphics/SVG/1.1/DTD/svg11.dtd">
<!-- Generated by graphviz version 12.2.1 (20241206.2353)
 -->
<!-- Title: ServerNetwork::handleDisconnect Pages: 1 -->
<svg width="339pt" height="88pt"
 viewBox="0.00 0.00 339.25 87.50" xmlns="http://www.w3.org/2000/svg" xmlns:xlink="http://www.w3.org/1999/xlink">
<g id="graph0" class="graph" transform="scale(1 1) rotate(0) translate(4 83.5)">
<title>ServerNetwork::handleDisconnect</title>
<!-- Node1 -->
<g id="Node000001" class="node">
<title>Node1</title>
<g id="a_Node000001"><a xlink:title=" ">
<polygon fill="#999999" stroke="#666666" points="165.25,-48.88 0,-48.88 0,-29.62 165.25,-29.62 165.25,-48.88"/>
<text text-anchor="middle" x="82.62" y="-35.38" font-family="Helvetica,sans-Serif" font-size="10.00">ServerNetwork::handleDisconnect</text>
</a>
</g>
</g>
<!-- Node2 -->
<g id="Node000002" class="node">
<title>Node2</title>
<g id="a_Node000002"><a xlink:href="class_server_network.html#a9fd1b21ff45df9e1576a0a50a79bacd7" target="_top" xlink:title=" ">
<polygon fill="white" stroke="#666666" points="331.25,-79.5 201.25,-79.5 201.25,-49 331.25,-49 331.25,-79.5"/>
<text text-anchor="start" x="209.25" y="-66" font-family="Helvetica,sans-Serif" font-size="10.00">ServerNetwork::broadcast</text>
<text text-anchor="middle" x="266.25" y="-54.75" font-family="Helvetica,sans-Serif" font-size="10.00">_message</text>
</a>
</g>
</g>
<!-- Node1&#45;&gt;Node2 -->
<g id="edge1_Node000001_Node000002" class="edge">
<title>Node1&#45;&gt;Node2</title>
<g id="a_edge1_Node000001_Node000002"><a xlink:title=" ">
<path fill="none" stroke="#63b8ff" d="M156.98,-49.35C167.79,-50.83 178.95,-52.37 189.8,-53.87"/>
<polygon fill="#63b8ff" stroke="#63b8ff" points="189.1,-57.3 199.48,-55.2 190.05,-50.37 189.1,-57.3"/>
</a>
</g>
</g>
<!-- Node3 -->
<g id="Node000003" class="node">
<title>Node3</title>
<g id="a_Node000003"><a xlink:href="class_server_network.html#a3cdc99eb8ed134a23329bf2d8f9c74d2" target="_top" xlink:title=" ">
<polygon fill="white" stroke="#666666" points="325.62,-30.5 206.88,-30.5 206.88,0 325.62,0 325.62,-30.5"/>
<text text-anchor="start" x="214.88" y="-17" font-family="Helvetica,sans-Serif" font-size="10.00">ServerNetwork::encode</text>
<text text-anchor="middle" x="266.25" y="-5.75" font-family="Helvetica,sans-Serif" font-size="10.00">_action</text>
</a>
</g>
</g>
<!-- Node1&#45;&gt;Node3 -->
<g id="edge2_Node000001_Node000003" class="edge">
<title>Node1&#45;&gt;Node3</title>
<g id="a_edge2_Node000001_Node000003"><a xlink:title=" ">
<path fill="none" stroke="#63b8ff" d="M160.12,-29.14C171.76,-27.6 183.71,-26.02 195.2,-24.51"/>
<polygon fill="#63b8ff" stroke="#63b8ff" points="195.55,-27.99 205,-23.21 194.63,-21.05 195.55,-27.99"/>
</a>
</g>
</g>
</g>
</svg>
