<?xml version="1.0" encoding="UTF-8" standalone="no"?>
<!DOCTYPE svg PUBLIC "-//W3C//DTD SVG 1.1//EN"
 "http://www.w3.org/Graphics/SVG/1.1/DTD/svg11.dtd">
<!-- Generated by graphviz version 12.2.1 (20241206.2353)
 -->
<!-- Title: Systems::position_system Pages: 1 -->
<!--zoomable 141 -->

<svg id="main" version="1.1" xmlns="http://www.w3.org/2000/svg" xmlns:xlink="http://www.w3.org/1999/xlink" xml:space="preserve" onload="init(evt)">

<style type="text/css"><![CDATA[
.node, .edge {opacity: 0.7;}
.node.selected, .edge.selected {opacity: 1;}
.edge:hover path { stroke: red; }
.edge:hover polygon { stroke: red; fill: red; }
]]></style>

<defs>
  <circle id="rim" cx="0" cy="0" r="7"/>
  <circle id="rim2" cx="0" cy="0" r="3.5"/>
  <g id="zoomPlus">
    <use xlink:href="#rim" fill="#404040"><set attributeName="fill" to="#808080" begin="zoomplus.mouseover" end="zoomplus.mouseout"/></use>
    <path d="M-4,0h8M0,-4v8" fill="none" stroke="white" stroke-width="1.5" pointer-events="none"/>
  </g>
  <g id="zoomMin">
    <use xlink:href="#rim" fill="#404040"><set attributeName="fill" to="#808080" begin="zoomminus.mouseover" end="zoomminus.mouseout"/></use>
    <path d="M-4,0h8" fill="none" stroke="white" stroke-width="1.5" pointer-events="none"/>
  </g>
  <g id="arrowUp" transform="translate(30 24)">
    <use xlink:href="#rim"/>
    <path pointer-events="none" fill="none" stroke="white" stroke-width="1.5" d="M0,-3.0v7 M-2.5,-0.5L0,-3.0L2.5,-0.5"/>
  </g>
  <g id="arrowRight" transform="rotate(90) translate(36 -43)">
    <use xlink:href="#rim"/>
    <path pointer-events="none" fill="none" stroke="white" stroke-width="1.5" d="M0,-3.0v7 M-2.5,-0.5L0,-3.0L2.5,-0.5"/>
  </g>
  <g id="arrowDown" transform="rotate(180) translate(-30 -48)">
    <use xlink:href="#rim"/>
    <path pointer-events="none" fill="none" stroke="white" stroke-width="1.5" d="M0,-3.0v7 M-2.5,-0.5L0,-3.0L2.5,-0.5"/>
  </g>
  <g id="arrowLeft" transform="rotate(270) translate(-36 17)">
    <use xlink:href="#rim"/>
    <path pointer-events="none" fill="none" stroke="white" stroke-width="1.5" d="M0,-3.0v7 M-2.5,-0.5L0,-3.0L2.5,-0.5"/>
  </g>
  <g id="resetDef">
    <use xlink:href="#rim2" fill="#404040"><set attributeName="fill" to="#808080" begin="reset.mouseover" end="reset.mouseout"/></use>
  </g>
</defs>
<script type="application/ecmascript">
var viewWidth = 1637;
var viewHeight = 141;
var sectionId = 'dynsection-5';
</script>
<script type="application/ecmascript" xlink:href="svg.min.js"/>
<svg id="graph" class="graph">
<g id="viewport">
<title>Systems::position_system</title>
<!-- Node1 -->
<g id="Node000001" class="node">
<title>Node1</title>
<g id="a_Node000001"><a xlink:title=" ">
<polygon fill="#999999" stroke="#666666" points="1629,-58.25 1496.75,-58.25 1496.75,-39 1629,-39 1629,-58.25"/>
<text text-anchor="middle" x="1562.88" y="-44.75" font-family="Helvetica,sans-Serif" font-size="10.00">Systems::position_system</text>
</a>
</g>
</g>
<!-- Node2 -->
<g id="Node000002" class="node">
<title>Node2</title>
<g id="a_Node000002"><a xlink:href="class_core.html#a29ffabe78710e79a74cdcb1bebe48c72" target="_top" xlink:title=" ">
<polygon fill="white" stroke="#666666" points="1443.88,-98.88 1337.88,-98.88 1337.88,-68.38 1443.88,-68.38 1443.88,-98.88"/>
<text text-anchor="start" x="1345.88" y="-85.38" font-family="Helvetica,sans-Serif" font-size="10.00">Core::setup_position</text>
<text text-anchor="middle" x="1390.88" y="-74.12" font-family="Helvetica,sans-Serif" font-size="10.00">_timer</text>
</a>
</g>
</g>
<!-- Node1&#45;&gt;Node2 -->
<g id="edge1_Node000001_Node000002" class="edge">
<title>Node1&#45;&gt;Node2</title>
<g id="a_edge1_Node000001_Node000002"><a xlink:title=" ">
<path fill="none" stroke="#63b8ff" d="M1501.6,-61.03C1482.86,-64.89 1462.35,-69.11 1444.2,-72.85"/>
<polygon fill="#63b8ff" stroke="#63b8ff" points="1502.13,-64.5 1511.22,-59.05 1500.72,-57.64 1502.13,-64.5"/>
</a>
</g>
</g>
<!-- Node14 -->
<g id="Node000014" class="node">
<title>Node14</title>
<g id="a_Node000014"><a xlink:href="class_server_game.html#a89e6dc23de2213b7cfa7d8a894f509a3" target="_top" xlink:title=" ">
<polygon fill="white" stroke="#666666" points="1460.75,-30.88 1321,-30.88 1321,-0.37 1460.75,-0.37 1460.75,-30.88"/>
<text text-anchor="start" x="1329" y="-17.38" font-family="Helvetica,sans-Serif" font-size="10.00">ServerGame::setup_position</text>
<text text-anchor="middle" x="1390.88" y="-6.12" font-family="Helvetica,sans-Serif" font-size="10.00">_timer</text>
</a>
</g>
</g>
<!-- Node1&#45;&gt;Node14 -->
<g id="edge17_Node000001_Node000014" class="edge">
<title>Node1&#45;&gt;Node14</title>
<g id="a_edge17_Node000001_Node000014"><a xlink:title=" ">
<path fill="none" stroke="#63b8ff" d="M1498.85,-36.39C1486.52,-34 1473.54,-31.48 1461.03,-29.05"/>
<polygon fill="#63b8ff" stroke="#63b8ff" points="1497.98,-39.79 1508.46,-38.26 1499.31,-32.91 1497.98,-39.79"/>
</a>
</g>
</g>
<!-- Node2&#45;&gt;Node2 -->
<g id="edge16_Node000002_Node000002" class="edge">
<title>Node2&#45;&gt;Node2</title>
<g id="a_edge16_Node000002_Node000002"><a xlink:title=" ">
<path fill="none" stroke="#63b8ff" d="M1418.65,-110.58C1414.11,-114.35 1404.85,-116.88 1390.88,-116.88 1365.32,-116.88 1355.54,-108.43 1361.53,-99.36"/>
<polygon fill="#63b8ff" stroke="#63b8ff" points="1422.09,-111.25 1420.01,-100.86 1415.16,-110.28 1422.09,-111.25"/>
</a>
</g>
</g>
<!-- Node3 -->
<g id="Node000003" class="node">
<title>Node3</title>
<g id="a_Node000003"><a xlink:href="class_core.html#a42623cce6be1bf30af3a1bca1ed73ed6" target="_top" xlink:title=" ">
<polygon fill="white" stroke="#666666" points="1267.75,-94.25 1182.75,-94.25 1182.75,-75 1267.75,-75 1267.75,-94.25"/>
<text text-anchor="middle" x="1225.25" y="-80.75" font-family="Helvetica,sans-Serif" font-size="10.00">Core::gui_game</text>
</a>
</g>
</g>
<!-- Node2&#45;&gt;Node3 -->
<g id="edge2_Node000002_Node000003" class="edge">
<title>Node2&#45;&gt;Node3</title>
<g id="a_edge2_Node000002_Node000003"><a xlink:title=" ">
<path fill="none" stroke="#63b8ff" d="M1326.36,-84.01C1306.84,-84.13 1285.85,-84.26 1268.16,-84.37"/>
<polygon fill="#63b8ff" stroke="#63b8ff" points="1326.16,-87.51 1336.14,-83.95 1326.12,-80.51 1326.16,-87.51"/>
</a>
</g>
</g>
<!-- Node4 -->
<g id="Node000004" class="node">
<title>Node4</title>
<g id="a_Node000004"><a xlink:href="class_core.html#a3b2840725a18b5e49614dd429f449289" target="_top" xlink:title=" ">
<polygon fill="white" stroke="#666666" points="1129.5,-133.25 992,-133.25 992,-114 1129.5,-114 1129.5,-133.25"/>
<text text-anchor="middle" x="1060.75" y="-119.75" font-family="Helvetica,sans-Serif" font-size="10.00">Core::handleStartCommand</text>
</a>
</g>
</g>
<!-- Node3&#45;&gt;Node4 -->
<g id="edge3_Node000003_Node000004" class="edge">
<title>Node3&#45;&gt;Node4</title>
<g id="a_edge3_Node000003_Node000004"><a xlink:title=" ">
<path fill="none" stroke="#63b8ff" d="M1171.27,-97.34C1149.37,-102.6 1124.34,-108.6 1103.74,-113.55"/>
<polygon fill="#63b8ff" stroke="#63b8ff" points="1172.02,-100.76 1180.93,-95.02 1170.39,-93.95 1172.02,-100.76"/>
</a>
</g>
</g>
<!-- Node13 -->
<g id="Node000013" class="node">
<title>Node13</title>
<g id="a_Node000013"><a xlink:href="class_core.html#afe1c190b0d03ded99b7408538b16998c" target="_top" xlink:title=" ">
<polygon fill="white" stroke="#666666" points="649.5,-57.25 562.25,-57.25 562.25,-38 649.5,-38 649.5,-57.25"/>
<text text-anchor="middle" x="605.88" y="-43.75" font-family="Helvetica,sans-Serif" font-size="10.00">Core::login_auto</text>
</a>
</g>
</g>
<!-- Node3&#45;&gt;Node13 -->
<g id="edge15_Node000003_Node000013" class="edge">
<title>Node3&#45;&gt;Node13</title>
<g id="a_edge15_Node000003_Node000013"><a xlink:title=" ">
<path fill="none" stroke="#63b8ff" d="M1171.07,-80.86C1116.95,-77.07 1030.66,-71.16 956,-66.62 845.73,-59.92 715.79,-53.15 649.88,-49.79"/>
<polygon fill="#63b8ff" stroke="#63b8ff" points="1170.71,-84.34 1180.93,-81.55 1171.2,-77.36 1170.71,-84.34"/>
</a>
</g>
</g>
<!-- Node5 -->
<g id="Node000005" class="node">
<title>Node5</title>
<g id="a_Node000005"><a xlink:href="class_core.html#aae2b137a9885ae1ac3d740786cfdcb34" target="_top" xlink:title=" ">
<polygon fill="white" stroke="#666666" points="956,-95.25 805.75,-95.25 805.75,-76 956,-76 956,-95.25"/>
<text text-anchor="middle" x="880.88" y="-81.75" font-family="Helvetica,sans-Serif" font-size="10.00">Core::handleServerCommands</text>
</a>
</g>
</g>
<!-- Node4&#45;&gt;Node5 -->
<g id="edge4_Node000004_Node000005" class="edge">
<title>Node4&#45;&gt;Node5</title>
<g id="a_edge4_Node000004_Node000005"><a xlink:title=" ">
<path fill="none" stroke="#63b8ff" d="M1001.32,-111.14C977.86,-106.13 951.18,-100.43 928.99,-95.69"/>
<polygon fill="#63b8ff" stroke="#63b8ff" points="1000.56,-114.56 1011.07,-113.23 1002.02,-107.71 1000.56,-114.56"/>
</a>
</g>
</g>
<!-- Node5&#45;&gt;Node3 -->
<g id="edge5_Node000005_Node000003" class="edge">
<title>Node5&#45;&gt;Node3</title>
<g id="a_edge5_Node000005_Node000003"><a xlink:title=" ">
<path fill="none" stroke="#63b8ff" d="M967.61,-85.37C1036.08,-85.17 1129.07,-84.9 1182.27,-84.75"/>
<polygon fill="#63b8ff" stroke="#63b8ff" points="967.92,-81.87 957.93,-85.4 967.94,-88.87 967.92,-81.87"/>
</a>
</g>
</g>
<!-- Node6 -->
<g id="Node000006" class="node">
<title>Node6</title>
<g id="a_Node000006"><a xlink:href="class_core.html#ab5c7da5be504f0f34380b1ca5b97924b" target="_top" xlink:title=" ">
<polygon fill="white" stroke="#666666" points="769.75,-95.25 685.5,-95.25 685.5,-76 769.75,-76 769.75,-95.25"/>
<text text-anchor="middle" x="727.62" y="-81.75" font-family="Helvetica,sans-Serif" font-size="10.00">Core::gui_lobby</text>
</a>
</g>
</g>
<!-- Node5&#45;&gt;Node6 -->
<g id="edge6_Node000005_Node000006" class="edge">
<title>Node5&#45;&gt;Node6</title>
<g id="a_edge6_Node000005_Node000006"><a xlink:title=" ">
<path fill="none" stroke="#63b8ff" d="M794.12,-85.62C785.76,-85.62 777.57,-85.62 769.97,-85.62"/>
<polygon fill="#63b8ff" stroke="#63b8ff" points="794.07,-89.13 804.07,-85.63 794.07,-82.13 794.07,-89.13"/>
</a>
</g>
</g>
<!-- Node7 -->
<g id="Node000007" class="node">
<title>Node7</title>
<g id="a_Node000007"><a xlink:href="class_core.html#ae373e5e53d26163bfc20d236fd116f89" target="_top" xlink:title=" ">
<polygon fill="white" stroke="#666666" points="637.5,-95.25 574.25,-95.25 574.25,-76 637.5,-76 637.5,-95.25"/>
<text text-anchor="middle" x="605.88" y="-81.75" font-family="Helvetica,sans-Serif" font-size="10.00">Core::login</text>
</a>
</g>
</g>
<!-- Node6&#45;&gt;Node7 -->
<g id="edge7_Node000006_Node000007" class="edge">
<title>Node6&#45;&gt;Node7</title>
<g id="a_edge7_Node000006_Node000007"><a xlink:title=" ">
<path fill="none" stroke="#63b8ff" d="M673.92,-85.62C661.57,-85.62 648.81,-85.62 637.77,-85.62"/>
<polygon fill="#63b8ff" stroke="#63b8ff" points="673.56,-89.13 683.56,-85.63 673.56,-82.13 673.56,-89.13"/>
</a>
</g>
</g>
<!-- Node6&#45;&gt;Node13 -->
<g id="edge13_Node000006_Node000013" class="edge">
<title>Node6&#45;&gt;Node13</title>
<g id="a_edge13_Node000006_Node000013"><a xlink:title=" ">
<path fill="none" stroke="#63b8ff" d="M684.21,-72.16C669.12,-67.38 652.4,-62.07 638.38,-57.62"/>
<polygon fill="#63b8ff" stroke="#63b8ff" points="682.82,-75.4 693.41,-75.08 684.93,-68.72 682.82,-75.4"/>
</a>
</g>
</g>
<!-- Node8 -->
<g id="Node000008" class="node">
<title>Node8</title>
<g id="a_Node000008"><a xlink:href="class_core.html#a245f461d8f0f1feaa8b126f329c7db22" target="_top" xlink:title=" ">
<polygon fill="white" stroke="#666666" points="526.25,-95.25 403,-95.25 403,-76 526.25,-76 526.25,-95.25"/>
<text text-anchor="middle" x="464.62" y="-81.75" font-family="Helvetica,sans-Serif" font-size="10.00">Core::handleMouseClick</text>
</a>
</g>
</g>
<!-- Node7&#45;&gt;Node8 -->
<g id="edge8_Node000007_Node000008" class="edge">
<title>Node7&#45;&gt;Node8</title>
<g id="a_edge8_Node000007_Node000008"><a xlink:title=" ">
<path fill="none" stroke="#63b8ff" d="M562.65,-85.62C551.32,-85.62 538.84,-85.62 526.71,-85.62"/>
<polygon fill="#63b8ff" stroke="#63b8ff" points="562.46,-89.13 572.46,-85.63 562.46,-82.13 562.46,-89.13"/>
</a>
</g>
</g>
<!-- Node9 -->
<g id="Node000009" class="node">
<title>Node9</title>
<g id="a_Node000009"><a xlink:href="class_core.html#a1460b7116a24aa8c866c33c4f16bd5a4" target="_top" xlink:title=" ">
<polygon fill="white" stroke="#666666" points="367,-95.25 285.75,-95.25 285.75,-76 367,-76 367,-95.25"/>
<text text-anchor="middle" x="326.38" y="-81.75" font-family="Helvetica,sans-Serif" font-size="10.00">Core::gui_login</text>
</a>
</g>
</g>
<!-- Node8&#45;&gt;Node9 -->
<g id="edge9_Node000008_Node000009" class="edge">
<title>Node8&#45;&gt;Node9</title>
<g id="a_edge9_Node000008_Node000009"><a xlink:title=" ">
<path fill="none" stroke="#63b8ff" d="M391.34,-85.62C383.03,-85.62 374.8,-85.62 367.16,-85.62"/>
<polygon fill="#63b8ff" stroke="#63b8ff" points="391.16,-89.13 401.16,-85.63 391.16,-82.13 391.16,-89.13"/>
</a>
</g>
</g>
<!-- Node10 -->
<g id="Node000010" class="node">
<title>Node10</title>
<g id="a_Node000010"><a xlink:href="class_core.html#a78dfa9b9ed54a7ba8cfe1be701b79feb" target="_top" xlink:title=" ">
<polygon fill="white" stroke="#666666" points="249.75,-95.25 164.75,-95.25 164.75,-76 249.75,-76 249.75,-95.25"/>
<text text-anchor="middle" x="207.25" y="-81.75" font-family="Helvetica,sans-Serif" font-size="10.00">Core::gui_menu</text>
</a>
</g>
</g>
<!-- Node9&#45;&gt;Node10 -->
<g id="edge10_Node000009_Node000010" class="edge">
<title>Node9&#45;&gt;Node10</title>
<g id="a_edge10_Node000009_Node000010"><a xlink:title=" ">
<path fill="none" stroke="#63b8ff" d="M273.91,-85.62C265.93,-85.62 257.78,-85.62 250.05,-85.62"/>
<polygon fill="#63b8ff" stroke="#63b8ff" points="273.88,-89.13 283.88,-85.63 273.88,-82.13 273.88,-89.13"/>
</a>
</g>
</g>
<!-- Node11 -->
<g id="Node000011" class="node">
<title>Node11</title>
<g id="a_Node000011"><a xlink:href="class_core.html#aa6045a2323610bfa0ee712b028eb43e4" target="_top" xlink:title=" ">
<polygon fill="white" stroke="#666666" points="128.75,-95.25 73,-95.25 73,-76 128.75,-76 128.75,-95.25"/>
<text text-anchor="middle" x="100.88" y="-81.75" font-family="Helvetica,sans-Serif" font-size="10.00">Core::gui</text>
</a>
</g>
</g>
<!-- Node10&#45;&gt;Node11 -->
<g id="edge11_Node000010_Node000011" class="edge">
<title>Node10&#45;&gt;Node11</title>
<g id="a_edge11_Node000010_Node000011"><a xlink:title=" ">
<path fill="none" stroke="#63b8ff" d="M153.09,-85.62C144.76,-85.62 136.46,-85.62 129.04,-85.62"/>
<polygon fill="#63b8ff" stroke="#63b8ff" points="152.88,-89.13 162.88,-85.63 152.88,-82.13 152.88,-89.13"/>
</a>
</g>
</g>
<!-- Node12 -->
<g id="Node000012" class="node">
<title>Node12</title>
<g id="a_Node000012"><a xlink:href="client_2main_8cpp.html#a0ddf1224851353fc92bfbff6f499fa97" target="_top" xlink:title=" ">
<polygon fill="white" stroke="#666666" points="37,-76.25 0,-76.25 0,-57 37,-57 37,-76.25"/>
<text text-anchor="middle" x="18.5" y="-62.75" font-family="Helvetica,sans-Serif" font-size="10.00">main</text>
</a>
</g>
</g>
<!-- Node11&#45;&gt;Node12 -->
<g id="edge12_Node000011_Node000012" class="edge">
<title>Node11&#45;&gt;Node12</title>
<g id="a_edge12_Node000011_Node000012"><a xlink:title=" ">
<path fill="none" stroke="#63b8ff" d="M61.68,-76.6C53.18,-74.59 44.55,-72.55 37.34,-70.84"/>
<polygon fill="#63b8ff" stroke="#63b8ff" points="60.65,-79.95 71.19,-78.84 62.26,-73.14 60.65,-79.95"/>
</a>
</g>
</g>
<!-- Node13&#45;&gt;Node12 -->
<g id="edge14_Node000013_Node000012" class="edge">
<title>Node13&#45;&gt;Node12</title>
<g id="a_edge14_Node000013_Node000012"><a xlink:title=" ">
<path fill="none" stroke="#63b8ff" d="M550.68,-47.62C494.75,-47.62 404.96,-47.63 327.38,-47.62 327.38,-47.62 327.38,-47.62 206.25,-47.62 144,-47.62 70.69,-58.2 37.47,-63.57"/>
<polygon fill="#63b8ff" stroke="#63b8ff" points="550.58,-51.13 560.58,-47.63 550.58,-44.13 550.58,-51.13"/>
</a>
</g>
</g>
<!-- Node14&#45;&gt;Node14 -->
<g id="edge20_Node000014_Node000014" class="edge">
<title>Node14&#45;&gt;Node14</title>
<g id="a_edge20_Node000014_Node000014"><a xlink:title=" ">
<path fill="none" stroke="#63b8ff" d="M1418.65,-42.58C1414.11,-46.35 1404.85,-48.88 1390.88,-48.88 1365.32,-48.88 1355.54,-40.43 1361.53,-31.36"/>
<polygon fill="#63b8ff" stroke="#63b8ff" points="1422.09,-43.25 1420.01,-32.86 1415.16,-42.28 1422.09,-43.25"/>
</a>
</g>
</g>
<!-- Node15 -->
<g id="Node000015" class="node">
<title>Node15</title>
<g id="a_Node000015"><a xlink:href="class_server_game.html#a0157100c7f7204cb8d870947d0b81e6f" target="_top" xlink:title=" ">
<polygon fill="white" stroke="#666666" points="1285,-23.25 1165.5,-23.25 1165.5,-4 1285,-4 1285,-23.25"/>
<text text-anchor="middle" x="1225.25" y="-9.75" font-family="Helvetica,sans-Serif" font-size="10.00">ServerGame::initTimers</text>
</a>
</g>
</g>
<!-- Node14&#45;&gt;Node15 -->
<g id="edge18_Node000014_Node000015" class="edge">
<title>Node14&#45;&gt;Node15</title>
<g id="a_edge18_Node000014_Node000015"><a xlink:title=" ">
<path fill="none" stroke="#63b8ff" d="M1309.55,-14.64C1301.44,-14.54 1293.32,-14.44 1285.5,-14.35"/>
<polygon fill="#63b8ff" stroke="#63b8ff" points="1309.4,-18.14 1319.44,-14.76 1309.49,-11.14 1309.4,-18.14"/>
</a>
</g>
</g>
<!-- Node16 -->
<g id="Node000016" class="node">
<title>Node16</title>
<g id="a_Node000016"><a xlink:href="class_server_game.html#a0dcb65cf6ca824c15b425d6e731ac7cb" target="_top" xlink:title=" ">
<polygon fill="white" stroke="#666666" points="1123.88,-19.25 997.62,-19.25 997.62,0 1123.88,0 1123.88,-19.25"/>
<text text-anchor="middle" x="1060.75" y="-5.75" font-family="Helvetica,sans-Serif" font-size="10.00">ServerGame::handleStart</text>
</a>
</g>
</g>
<!-- Node15&#45;&gt;Node16 -->
<g id="edge19_Node000015_Node000016" class="edge">
<title>Node15&#45;&gt;Node16</title>
<g id="a_edge19_Node000015_Node000016"><a xlink:title=" ">
<path fill="none" stroke="#63b8ff" d="M1153.7,-11.89C1143.85,-11.65 1133.8,-11.4 1124.11,-11.16"/>
<polygon fill="#63b8ff" stroke="#63b8ff" points="1153.53,-15.39 1163.61,-12.13 1153.7,-8.39 1153.53,-15.39"/>
</a>
</g>
</g>
</g>
</svg>

<g id="navigator" transform="translate(0 0)" fill="#404254">
  <rect fill="#f2f5e9" fill-opacity="0.5" stroke="#606060" stroke-width=".5" x="0" y="0" width="60" height="60"/>
  <use id="zoomplus" xlink:href="#zoomPlus" x="17" y="9" onmousedown="handleZoom(evt,'in')"/>
  <use id="zoomminus" xlink:href="#zoomMin" x="42" y="9" onmousedown="handleZoom(evt,'out')"/>
  <use id="reset" xlink:href="#resetDef" x="30" y="36" onmousedown="handleReset()"/>
   <use id="arrowup" xlink:href="#arrowUp" x="0" y="0" onmousedown="handlePan(0,-1)"/>
  <use id="arrowright" xlink:href="#arrowRight" x="0" y="0" onmousedown="handlePan(1,0)"/>
  <use id="arrowdown" xlink:href="#arrowDown" x="0" y="0" onmousedown="handlePan(0,1)"/>
  <use id="arrowleft" xlink:href="#arrowLeft" x="0" y="0" onmousedown="handlePan(-1,0)"/>
</g>
<svg viewBox="0 0 15 15" width="100%" height="30px" preserveAspectRatio="xMaxYMin meet">
 <g id="arrow_out" transform="scale(0.3 0.3)">
  <a xlink:href="class_systems_a310d4de4ff4f8212b2ded614e411d102_icgraph_org.svg" target="_base">
   <rect id="button" ry="5" rx="5" y="6" x="6" height="38" width="38"
        fill="#f2f5e9" fill-opacity="0.5" stroke="#606060" stroke-width="1.0"/>
   <path id="arrow"
     d="M 11.500037,31.436501 C 11.940474,20.09759 22.043105,11.32322 32.158766,21.979434 L 37.068811,17.246167 C 37.068811,17.246167 37.088388,32 37.088388,32 L 22.160133,31.978069 C 22.160133,31.978069 26.997745,27.140456 26.997745,27.140456 C 18.528582,18.264221 13.291696,25.230495 11.500037,31.436501 z"
     style="fill:#404040;"/>
  </a>
 </g>
</svg>

<style type='text/css'>
<![CDATA[
[data-mouse-over-selected='false'] { opacity: 0.7; }
[data-mouse-over-selected='true']  { opacity: 1.0; }
]]>
</style>
<script type="application/ecmascript"><![CDATA[
document.addEventListener('DOMContentLoaded', (event) => {
  highlightEdges();
  highlightAdjacentNodes();
});
]]></script>
</svg>
