<?xml version="1.0" encoding="UTF-8" standalone="no"?>
<!DOCTYPE svg PUBLIC "-//W3C//DTD SVG 1.1//EN"
 "http://www.w3.org/Graphics/SVG/1.1/DTD/svg11.dtd">
<!-- Generated by graphviz version 12.2.1 (20241206.2353)
 -->
<!-- Title: Core::handleDeathCommand Pages: 1 -->
<svg width="457pt" height="64pt"
 viewBox="0.00 0.00 457.25 64.25" xmlns="http://www.w3.org/2000/svg" xmlns:xlink="http://www.w3.org/1999/xlink">
<g id="graph0" class="graph" transform="scale(1 1) rotate(0) translate(4 60.25)">
<title>Core::handleDeathCommand</title>
<!-- Node1 -->
<g id="Node000001" class="node">
<title>Node1</title>
<g id="a_Node000001"><a xlink:title=" ">
<polygon fill="#999999" stroke="#666666" points="142.75,-37.25 0,-37.25 0,-18 142.75,-18 142.75,-37.25"/>
<text text-anchor="middle" x="71.38" y="-23.75" font-family="Helvetica,sans-Serif" font-size="10.00">Core::handleDeathCommand</text>
</a>
</g>
</g>
<!-- Node2 -->
<g id="Node000002" class="node">
<title>Node2</title>
<g id="a_Node000002"><a xlink:href="class_core.html#a398cf70a8dafff61d11f9d0928ed6111" target="_top" xlink:title=" ">
<polygon fill="white" stroke="#666666" points="307.25,-56.25 178.75,-56.25 178.75,-37 307.25,-37 307.25,-56.25"/>
<text text-anchor="middle" x="243" y="-42.75" font-family="Helvetica,sans-Serif" font-size="10.00">Core::updatePlayerHealth</text>
</a>
</g>
</g>
<!-- Node1&#45;&gt;Node2 -->
<g id="edge1_Node000001_Node000002" class="edge">
<title>Node1&#45;&gt;Node2</title>
<g id="a_edge1_Node000001_Node000002"><a xlink:title=" ">
<path fill="none" stroke="#63b8ff" d="M142.84,-35.52C150.82,-36.41 158.97,-37.33 167.01,-38.23"/>
<polygon fill="#63b8ff" stroke="#63b8ff" points="166.43,-41.68 176.76,-39.32 167.21,-34.73 166.43,-41.68"/>
</a>
</g>
</g>
<!-- Node4 -->
<g id="Node000004" class="node">
<title>Node4</title>
<g id="a_Node000004"><a xlink:href="class_core.html#ad9e2c3752fe957de05a7aa7a6675d502" target="_top" xlink:title=" ">
<polygon fill="white" stroke="#666666" points="297.12,-19.25 188.88,-19.25 188.88,0 297.12,0 297.12,-19.25"/>
<text text-anchor="middle" x="243" y="-5.75" font-family="Helvetica,sans-Serif" font-size="10.00">Core::updatePlayerId</text>
</a>
</g>
</g>
<!-- Node1&#45;&gt;Node4 -->
<g id="edge3_Node000001_Node000004" class="edge">
<title>Node1&#45;&gt;Node4</title>
<g id="a_edge3_Node000001_Node000004"><a xlink:title=" ">
<path fill="none" stroke="#63b8ff" d="M142.84,-20.15C154.31,-18.93 166.14,-17.68 177.45,-16.47"/>
<polygon fill="#63b8ff" stroke="#63b8ff" points="177.49,-19.99 187.06,-15.45 176.75,-13.03 177.49,-19.99"/>
</a>
</g>
</g>
<!-- Node3 -->
<g id="Node000003" class="node">
<title>Node3</title>
<g id="a_Node000003"><a xlink:href="class_core.html#aad563284176b829fa64177092388ef31" target="_top" xlink:title=" ">
<polygon fill="white" stroke="#666666" points="449.25,-56.25 343.25,-56.25 343.25,-37 449.25,-37 449.25,-56.25"/>
<text text-anchor="middle" x="396.25" y="-42.75" font-family="Helvetica,sans-Serif" font-size="10.00">Core::encode_action</text>
</a>
</g>
</g>
<!-- Node2&#45;&gt;Node3 -->
<g id="edge2_Node000002_Node000003" class="edge">
<title>Node2&#45;&gt;Node3</title>
<g id="a_edge2_Node000002_Node000003"><a xlink:title=" ">
<path fill="none" stroke="#63b8ff" d="M307.71,-46.62C315.62,-46.62 323.72,-46.62 331.64,-46.62"/>
<polygon fill="#63b8ff" stroke="#63b8ff" points="331.56,-50.13 341.56,-46.63 331.56,-43.13 331.56,-50.13"/>
</a>
</g>
</g>
</g>
</svg>
