<?xml version="1.0" encoding="UTF-8" standalone="no"?>
<!DOCTYPE svg PUBLIC "-//W3C//DTD SVG 1.1//EN"
 "http://www.w3.org/Graphics/SVG/1.1/DTD/svg11.dtd">
<!-- Generated by graphviz version 12.2.1 (20241206.2353)
 -->
<!-- Title: Entity Pages: 1 -->
<svg width="97pt" height="170pt"
 viewBox="0.00 0.00 96.50 170.00" xmlns="http://www.w3.org/2000/svg" xmlns:xlink="http://www.w3.org/1999/xlink">

<svg id="main" version="1.1" xmlns="http://www.w3.org/2000/svg" xmlns:xlink="http://www.w3.org/1999/xlink" xml:space="preserve">

<style type="text/css"><![CDATA[
.node, .edge {opacity: 0.7;}
.node.selected, .edge.selected {opacity: 1;}
.edge:hover path { stroke: red; }
.edge:hover polygon { stroke: red; fill: red; }
]]></style>
<script type="application/ecmascript" xlink:href="svg.min.js"/>
<svg id="graph" class="graph">
<g id="graph0" class="graph" transform="scale(1 1) rotate(0) translate(4 166)">
<title>Entity</title>
<!-- Node1 -->
<g id="Node000001" class="node">
<title>Node1</title>
<g id="a_Node000001"><a xlink:title="Classe représentant une entité dans le système ECS.">
<polygon fill="#999999" stroke="none" points="88.5,-65 0,-65 0,0 88.5,0 88.5,-65"/>
<text text-anchor="start" x="31.5" y="-51.5" font-family="Helvetica,sans-Serif" font-size="10.00">Entity</text>
<text text-anchor="start" x="42.75" y="-36.25" font-family="Helvetica,sans-Serif" font-size="10.00"> </text>
<text text-anchor="start" x="4" y="-21" font-family="Helvetica,sans-Serif" font-size="10.00">+</text>
<text text-anchor="start" x="14" y="-21" font-family="Helvetica,sans-Serif" font-size="10.00">Entity()</text>
<text text-anchor="start" x="4" y="-5.75" font-family="Helvetica,sans-Serif" font-size="10.00">+</text>
<text text-anchor="start" x="14" y="-5.75" font-family="Helvetica,sans-Serif" font-size="10.00">operator size_t()</text>
<polygon fill="#666666" stroke="#666666" points="0,-47.75 0,-47.75 88.5,-47.75 88.5,-47.75 0,-47.75"/>
<polygon fill="#666666" stroke="#666666" points="0,-32.5 0,-32.5 88.5,-32.5 88.5,-32.5 0,-32.5"/>
<polygon fill="none" stroke="#666666" points="0,0 0,-65 88.5,-65 88.5,0 0,0"/>
</a>
</g>
</g>
<!-- Node2 -->
<g id="Node000002" class="node">
<title>Node2</title>
<g id="a_Node000002"><a xlink:title=" ">
<polygon fill="white" stroke="none" points="61.38,-162 27.12,-162 27.12,-112.25 61.38,-112.25 61.38,-162"/>
<text text-anchor="start" x="31.12" y="-148.5" font-family="Helvetica,sans-Serif" font-size="10.00">size_t</text>
<text text-anchor="start" x="42.75" y="-133.25" font-family="Helvetica,sans-Serif" font-size="10.00"> </text>
<text text-anchor="start" x="42.75" y="-118" font-family="Helvetica,sans-Serif" font-size="10.00"> </text>
<polygon fill="#666666" stroke="#666666" points="27.12,-144.75 27.12,-144.75 61.38,-144.75 61.38,-144.75 27.12,-144.75"/>
<polygon fill="#666666" stroke="#666666" points="27.12,-129.5 27.12,-129.5 61.38,-129.5 61.38,-129.5 27.12,-129.5"/>
<polygon fill="none" stroke="#666666" points="27.12,-112.25 27.12,-162 61.38,-162 61.38,-112.25 27.12,-112.25"/>
</a>
</g>
</g>
<!-- Node2&#45;&gt;Node1 -->
<g id="edge1_Node000001_Node000002" class="edge">
<title>Node2&#45;&gt;Node1</title>
<g id="a_edge1_Node000001_Node000002"><a xlink:title=" ">
<path fill="none" stroke="#63b8ff" d="M44.25,-112.32C44.25,-102.08 44.25,-89.77 44.25,-77.95"/>
<polygon fill="none" stroke="#63b8ff" points="44.25,-77.85 40.25,-71.85 44.25,-65.85 48.25,-71.85 44.25,-77.85"/>
</a>
</g>
<text text-anchor="middle" x="51" y="-84.75" font-family="Helvetica,sans-Serif" font-size="10.00" fill="grey"> &#45;id</text>
</g>
</g>
</svg>
</svg>

<style type='text/css'>
<![CDATA[
[data-mouse-over-selected='false'] { opacity: 0.7; }
[data-mouse-over-selected='true']  { opacity: 1.0; }
]]>
</style>
<script type="application/ecmascript"><![CDATA[
document.addEventListener('DOMContentLoaded', (event) => {
  highlightEdges();
  highlightAdjacentNodes();
});
]]></script>
</svg>
