<?xml version="1.0" encoding="UTF-8" standalone="no"?>
<!DOCTYPE svg PUBLIC "-//W3C//DTD SVG 1.1//EN"
 "http://www.w3.org/Graphics/SVG/1.1/DTD/svg11.dtd">
<!-- Generated by graphviz version 12.2.1 (20241206.2353)
 -->
<!-- Title: ServerNetwork Pages: 1 -->
<!--zoomable 873 -->

<svg id="main" version="1.1" xmlns="http://www.w3.org/2000/svg" xmlns:xlink="http://www.w3.org/1999/xlink" xml:space="preserve" onload="init(evt)">

<style type="text/css"><![CDATA[
.node, .edge {opacity: 0.7;}
.node.selected, .edge.selected {opacity: 1;}
.edge:hover path { stroke: red; }
.edge:hover polygon { stroke: red; fill: red; }
]]></style>

<defs>
  <circle id="rim" cx="0" cy="0" r="7"/>
  <circle id="rim2" cx="0" cy="0" r="3.5"/>
  <g id="zoomPlus">
    <use xlink:href="#rim" fill="#404040"><set attributeName="fill" to="#808080" begin="zoomplus.mouseover" end="zoomplus.mouseout"/></use>
    <path d="M-4,0h8M0,-4v8" fill="none" stroke="white" stroke-width="1.5" pointer-events="none"/>
  </g>
  <g id="zoomMin">
    <use xlink:href="#rim" fill="#404040"><set attributeName="fill" to="#808080" begin="zoomminus.mouseover" end="zoomminus.mouseout"/></use>
    <path d="M-4,0h8" fill="none" stroke="white" stroke-width="1.5" pointer-events="none"/>
  </g>
  <g id="arrowUp" transform="translate(30 24)">
    <use xlink:href="#rim"/>
    <path pointer-events="none" fill="none" stroke="white" stroke-width="1.5" d="M0,-3.0v7 M-2.5,-0.5L0,-3.0L2.5,-0.5"/>
  </g>
  <g id="arrowRight" transform="rotate(90) translate(36 -43)">
    <use xlink:href="#rim"/>
    <path pointer-events="none" fill="none" stroke="white" stroke-width="1.5" d="M0,-3.0v7 M-2.5,-0.5L0,-3.0L2.5,-0.5"/>
  </g>
  <g id="arrowDown" transform="rotate(180) translate(-30 -48)">
    <use xlink:href="#rim"/>
    <path pointer-events="none" fill="none" stroke="white" stroke-width="1.5" d="M0,-3.0v7 M-2.5,-0.5L0,-3.0L2.5,-0.5"/>
  </g>
  <g id="arrowLeft" transform="rotate(270) translate(-36 17)">
    <use xlink:href="#rim"/>
    <path pointer-events="none" fill="none" stroke="white" stroke-width="1.5" d="M0,-3.0v7 M-2.5,-0.5L0,-3.0L2.5,-0.5"/>
  </g>
  <g id="resetDef">
    <use xlink:href="#rim2" fill="#404040"><set attributeName="fill" to="#808080" begin="reset.mouseover" end="reset.mouseout"/></use>
  </g>
</defs>
<script type="application/ecmascript">
var viewWidth = 593;
var viewHeight = 873;
var sectionId = 'dynsection-1';
</script>
<script type="application/ecmascript" xlink:href="svg.min.js"/>
<svg id="graph" class="graph">
<g id="viewport">
<title>ServerNetwork</title>
<!-- Node1 -->
<g id="Node000001" class="node">
<title>Node1</title>
<g id="a_Node000001"><a xlink:title="Gère la communication réseau du serveur.">
<polygon fill="#999999" stroke="none" points="356.88,-385.25 230.12,-385.25 230.12,0 356.88,0 356.88,-385.25"/>
<text text-anchor="start" x="260.88" y="-371.75" font-family="Helvetica,sans-Serif" font-size="10.00">ServerNetwork</text>
<text text-anchor="start" x="292" y="-356.5" font-family="Helvetica,sans-Serif" font-size="10.00"> </text>
<text text-anchor="start" x="234.12" y="-341.25" font-family="Helvetica,sans-Serif" font-size="10.00">+</text>
<text text-anchor="start" x="244.12" y="-341.25" font-family="Helvetica,sans-Serif" font-size="10.00">ServerNetwork()</text>
<text text-anchor="start" x="234.12" y="-326" font-family="Helvetica,sans-Serif" font-size="10.00">+</text>
<text text-anchor="start" x="244.12" y="-326" font-family="Helvetica,sans-Serif" font-size="10.00">start()</text>
<text text-anchor="start" x="235.62" y="-310.75" font-family="Helvetica,sans-Serif" font-size="10.00">&#45;</text>
<text text-anchor="start" x="244.12" y="-310.75" font-family="Helvetica,sans-Serif" font-size="10.00">receive_messages()</text>
<text text-anchor="start" x="235.62" y="-295.5" font-family="Helvetica,sans-Serif" font-size="10.00">&#45;</text>
<text text-anchor="start" x="244.12" y="-295.5" font-family="Helvetica,sans-Serif" font-size="10.00">decode_message()</text>
<text text-anchor="start" x="235.62" y="-280.25" font-family="Helvetica,sans-Serif" font-size="10.00">&#45;</text>
<text text-anchor="start" x="244.12" y="-280.25" font-family="Helvetica,sans-Serif" font-size="10.00">encode_action()</text>
<text text-anchor="start" x="235.62" y="-265" font-family="Helvetica,sans-Serif" font-size="10.00">&#45;</text>
<text text-anchor="start" x="244.12" y="-265" font-family="Helvetica,sans-Serif" font-size="10.00">get_action_name()</text>
<text text-anchor="start" x="235.62" y="-249.75" font-family="Helvetica,sans-Serif" font-size="10.00">&#45;</text>
<text text-anchor="start" x="244.12" y="-249.75" font-family="Helvetica,sans-Serif" font-size="10.00">handle_game_message()</text>
<text text-anchor="start" x="235.62" y="-234.5" font-family="Helvetica,sans-Serif" font-size="10.00">&#45;</text>
<text text-anchor="start" x="244.12" y="-234.5" font-family="Helvetica,sans-Serif" font-size="10.00">broadcast_message()</text>
<text text-anchor="start" x="235.62" y="-219.25" font-family="Helvetica,sans-Serif" font-size="10.00">&#45;</text>
<text text-anchor="start" x="244.12" y="-219.25" font-family="Helvetica,sans-Serif" font-size="10.00">broadcast_message()</text>
<text text-anchor="start" x="235.62" y="-204" font-family="Helvetica,sans-Serif" font-size="10.00">&#45;</text>
<text text-anchor="start" x="244.12" y="-204" font-family="Helvetica,sans-Serif" font-size="10.00">handleDisconnect()</text>
<text text-anchor="start" x="235.62" y="-188.75" font-family="Helvetica,sans-Serif" font-size="10.00">&#45;</text>
<text text-anchor="start" x="244.12" y="-188.75" font-family="Helvetica,sans-Serif" font-size="10.00">handleConnect()</text>
<text text-anchor="start" x="235.62" y="-173.5" font-family="Helvetica,sans-Serif" font-size="10.00">&#45;</text>
<text text-anchor="start" x="244.12" y="-173.5" font-family="Helvetica,sans-Serif" font-size="10.00">handleMoves()</text>
<text text-anchor="start" x="235.62" y="-158.25" font-family="Helvetica,sans-Serif" font-size="10.00">&#45;</text>
<text text-anchor="start" x="244.12" y="-158.25" font-family="Helvetica,sans-Serif" font-size="10.00">handleShoot()</text>
<text text-anchor="start" x="235.62" y="-143" font-family="Helvetica,sans-Serif" font-size="10.00">&#45;</text>
<text text-anchor="start" x="244.12" y="-143" font-family="Helvetica,sans-Serif" font-size="10.00">handleMobSpawn()</text>
<text text-anchor="start" x="235.62" y="-127.75" font-family="Helvetica,sans-Serif" font-size="10.00">&#45;</text>
<text text-anchor="start" x="244.12" y="-127.75" font-family="Helvetica,sans-Serif" font-size="10.00">handleConciliation()</text>
<text text-anchor="start" x="235.62" y="-112.5" font-family="Helvetica,sans-Serif" font-size="10.00">&#45;</text>
<text text-anchor="start" x="244.12" y="-112.5" font-family="Helvetica,sans-Serif" font-size="10.00">handlePowerUpSpawn()</text>
<text text-anchor="start" x="235.62" y="-97.25" font-family="Helvetica,sans-Serif" font-size="10.00">&#45;</text>
<text text-anchor="start" x="244.12" y="-97.25" font-family="Helvetica,sans-Serif" font-size="10.00">handleColision()</text>
<text text-anchor="start" x="235.62" y="-82" font-family="Helvetica,sans-Serif" font-size="10.00">&#45;</text>
<text text-anchor="start" x="244.12" y="-82" font-family="Helvetica,sans-Serif" font-size="10.00">handleDeath()</text>
<text text-anchor="start" x="235.62" y="-66.75" font-family="Helvetica,sans-Serif" font-size="10.00">&#45;</text>
<text text-anchor="start" x="244.12" y="-66.75" font-family="Helvetica,sans-Serif" font-size="10.00">handleMobShoot()</text>
<text text-anchor="start" x="235.62" y="-51.5" font-family="Helvetica,sans-Serif" font-size="10.00">&#45;</text>
<text text-anchor="start" x="244.12" y="-51.5" font-family="Helvetica,sans-Serif" font-size="10.00">handleWin()</text>
<text text-anchor="start" x="235.62" y="-36.25" font-family="Helvetica,sans-Serif" font-size="10.00">&#45;</text>
<text text-anchor="start" x="244.12" y="-36.25" font-family="Helvetica,sans-Serif" font-size="10.00">handleLoose()</text>
<text text-anchor="start" x="235.62" y="-21" font-family="Helvetica,sans-Serif" font-size="10.00">&#45;</text>
<text text-anchor="start" x="244.12" y="-21" font-family="Helvetica,sans-Serif" font-size="10.00">handleStart()</text>
<text text-anchor="start" x="235.62" y="-5.75" font-family="Helvetica,sans-Serif" font-size="10.00">&#45;</text>
<text text-anchor="start" x="244.12" y="-5.75" font-family="Helvetica,sans-Serif" font-size="10.00">handleScoreUpdate()</text>
<polygon fill="#666666" stroke="#666666" points="230.12,-368 230.12,-368 356.88,-368 356.88,-368 230.12,-368"/>
<polygon fill="#666666" stroke="#666666" points="230.12,-352.75 230.12,-352.75 356.88,-352.75 356.88,-352.75 230.12,-352.75"/>
<polygon fill="none" stroke="#666666" points="230.12,0 230.12,-385.25 356.88,-385.25 356.88,0 230.12,0"/>
</a>
</g>
</g>
<!-- Node2 -->
<g id="Node000002" class="node">
<title>Node2</title>
<g id="a_Node000002"><a xlink:href="class_i_sender.html" target="_top" xlink:title="Interface pour la gestion des communications réseau.">
<polygon fill="white" stroke="none" points="123,-865 0,-865 0,-601.75 123,-601.75 123,-865"/>
<text text-anchor="start" x="44.62" y="-851.5" font-family="Helvetica,sans-Serif" font-size="10.00">ISender</text>
<text text-anchor="start" x="60" y="-836.25" font-family="Helvetica,sans-Serif" font-size="10.00"> </text>
<text text-anchor="start" x="4" y="-821" font-family="Helvetica,sans-Serif" font-size="10.00">+</text>
<text text-anchor="start" x="14" y="-821" font-family="Helvetica,sans-Serif" font-size="10.00">handleConnect()</text>
<text text-anchor="start" x="4" y="-805.75" font-family="Helvetica,sans-Serif" font-size="10.00">+</text>
<text text-anchor="start" x="14" y="-805.75" font-family="Helvetica,sans-Serif" font-size="10.00">handleDisconnect()</text>
<text text-anchor="start" x="4" y="-790.5" font-family="Helvetica,sans-Serif" font-size="10.00">+</text>
<text text-anchor="start" x="14" y="-790.5" font-family="Helvetica,sans-Serif" font-size="10.00">handleMoves()</text>
<text text-anchor="start" x="4" y="-775.25" font-family="Helvetica,sans-Serif" font-size="10.00">+</text>
<text text-anchor="start" x="14" y="-775.25" font-family="Helvetica,sans-Serif" font-size="10.00">handleShoot()</text>
<text text-anchor="start" x="4" y="-760" font-family="Helvetica,sans-Serif" font-size="10.00">+</text>
<text text-anchor="start" x="14" y="-760" font-family="Helvetica,sans-Serif" font-size="10.00">handleMobSpawn()</text>
<text text-anchor="start" x="4" y="-744.75" font-family="Helvetica,sans-Serif" font-size="10.00">+</text>
<text text-anchor="start" x="14" y="-744.75" font-family="Helvetica,sans-Serif" font-size="10.00">handleConciliation()</text>
<text text-anchor="start" x="4" y="-729.5" font-family="Helvetica,sans-Serif" font-size="10.00">+</text>
<text text-anchor="start" x="14" y="-729.5" font-family="Helvetica,sans-Serif" font-size="10.00">handlePowerUpSpawn()</text>
<text text-anchor="start" x="4" y="-714.25" font-family="Helvetica,sans-Serif" font-size="10.00">+</text>
<text text-anchor="start" x="14" y="-714.25" font-family="Helvetica,sans-Serif" font-size="10.00">handleColision()</text>
<text text-anchor="start" x="4" y="-699" font-family="Helvetica,sans-Serif" font-size="10.00">+</text>
<text text-anchor="start" x="14" y="-699" font-family="Helvetica,sans-Serif" font-size="10.00">handleDeath()</text>
<text text-anchor="start" x="4" y="-683.75" font-family="Helvetica,sans-Serif" font-size="10.00">+</text>
<text text-anchor="start" x="14" y="-683.75" font-family="Helvetica,sans-Serif" font-size="10.00">handleMobShoot()</text>
<text text-anchor="start" x="4" y="-668.5" font-family="Helvetica,sans-Serif" font-size="10.00">+</text>
<text text-anchor="start" x="14" y="-668.5" font-family="Helvetica,sans-Serif" font-size="10.00">handleWin()</text>
<text text-anchor="start" x="4" y="-653.25" font-family="Helvetica,sans-Serif" font-size="10.00">+</text>
<text text-anchor="start" x="14" y="-653.25" font-family="Helvetica,sans-Serif" font-size="10.00">handleLoose()</text>
<text text-anchor="start" x="4" y="-638" font-family="Helvetica,sans-Serif" font-size="10.00">+</text>
<text text-anchor="start" x="14" y="-638" font-family="Helvetica,sans-Serif" font-size="10.00">handleStart()</text>
<text text-anchor="start" x="4" y="-622.75" font-family="Helvetica,sans-Serif" font-size="10.00">+</text>
<text text-anchor="start" x="14" y="-622.75" font-family="Helvetica,sans-Serif" font-size="10.00">handleScoreUpdate()</text>
<text text-anchor="start" x="4" y="-607.5" font-family="Helvetica,sans-Serif" font-size="10.00">+</text>
<text text-anchor="start" x="14" y="-607.5" font-family="Helvetica,sans-Serif" font-size="10.00">~ISender()</text>
<polygon fill="#666666" stroke="#666666" points="0,-847.75 0,-847.75 123,-847.75 123,-847.75 0,-847.75"/>
<polygon fill="#666666" stroke="#666666" points="0,-832.5 0,-832.5 123,-832.5 123,-832.5 0,-832.5"/>
<polygon fill="none" stroke="#666666" points="0,-601.75 0,-865 123,-865 123,-601.75 0,-601.75"/>
</a>
</g>
</g>
<!-- Node2&#45;&gt;Node1 -->
<g id="edge1_Node000001_Node000002" class="edge">
<title>Node2&#45;&gt;Node1</title>
<g id="a_edge1_Node000001_Node000002"><a xlink:title=" ">
<path fill="none" stroke="#63b8ff" d="M41.68,-590.79C39.9,-539.29 44.45,-481.68 64.5,-432.5 98.12,-350.04 174.98,-279.87 230.39,-237.33"/>
<polygon fill="none" stroke="#63b8ff" points="38.18,-590.67 42.11,-600.51 45.17,-590.37 38.18,-590.67"/>
</a>
</g>
</g>
<!-- Node8 -->
<g id="Node000008" class="node">
<title>Node8</title>
<g id="a_Node000008"><a xlink:href="class_mediator.html" target="_top" xlink:title="Médiateur pour la communication entre le réseau et la logique de jeu.">
<polygon fill="white" stroke="none" points="169.5,-543.25 73.5,-543.25 73.5,-432.5 169.5,-432.5 169.5,-543.25"/>
<text text-anchor="start" x="102.75" y="-529.75" font-family="Helvetica,sans-Serif" font-size="10.00">Mediator</text>
<text text-anchor="start" x="120" y="-514.5" font-family="Helvetica,sans-Serif" font-size="10.00"> </text>
<text text-anchor="start" x="77.5" y="-499.25" font-family="Helvetica,sans-Serif" font-size="10.00">+</text>
<text text-anchor="start" x="87.5" y="-499.25" font-family="Helvetica,sans-Serif" font-size="10.00">Mediator()</text>
<text text-anchor="start" x="77.5" y="-484" font-family="Helvetica,sans-Serif" font-size="10.00">+</text>
<text text-anchor="start" x="87.5" y="-484" font-family="Helvetica,sans-Serif" font-size="10.00">Mediator()</text>
<text text-anchor="start" x="77.5" y="-468.75" font-family="Helvetica,sans-Serif" font-size="10.00">+</text>
<text text-anchor="start" x="87.5" y="-468.75" font-family="Helvetica,sans-Serif" font-size="10.00">notify()</text>
<text text-anchor="start" x="77.5" y="-453.5" font-family="Helvetica,sans-Serif" font-size="10.00">+</text>
<text text-anchor="start" x="87.5" y="-453.5" font-family="Helvetica,sans-Serif" font-size="10.00">register_network()</text>
<text text-anchor="start" x="77.5" y="-438.25" font-family="Helvetica,sans-Serif" font-size="10.00">+</text>
<text text-anchor="start" x="87.5" y="-438.25" font-family="Helvetica,sans-Serif" font-size="10.00">register_game()</text>
<polygon fill="#666666" stroke="#666666" points="73.5,-526 73.5,-526 169.5,-526 169.5,-526 73.5,-526"/>
<polygon fill="#666666" stroke="#666666" points="73.5,-510.75 73.5,-510.75 169.5,-510.75 169.5,-510.75 73.5,-510.75"/>
<polygon fill="none" stroke="#666666" points="73.5,-432.5 73.5,-543.25 169.5,-543.25 169.5,-432.5 73.5,-432.5"/>
</a>
</g>
</g>
<!-- Node2&#45;&gt;Node8 -->
<g id="edge8_Node000008_Node000002" class="edge">
<title>Node2&#45;&gt;Node8</title>
<g id="a_edge8_Node000008_Node000002"><a xlink:title=" ">
<path fill="none" stroke="#63b8ff" d="M93.61,-602.07C97.57,-585.98 101.49,-570.09 105.08,-555.53"/>
<polygon fill="none" stroke="#63b8ff" points="105.05,-555.63 102.6,-548.85 107.92,-543.98 110.37,-550.76 105.05,-555.63"/>
</a>
</g>
<text text-anchor="middle" x="122.34" y="-574.25" font-family="Helvetica,sans-Serif" font-size="10.00" fill="grey"> +game</text>
<text text-anchor="middle" x="122.34" y="-563" font-family="Helvetica,sans-Serif" font-size="10.00" fill="grey">+network</text>
</g>
<!-- Node3 -->
<g id="Node000003" class="node">
<title>Node3</title>
<g id="a_Node000003"><a xlink:title=" ">
<polygon fill="white" stroke="none" points="241,-512.75 188,-512.75 188,-463 241,-463 241,-512.75"/>
<text text-anchor="start" x="192" y="-499.25" font-family="Helvetica,sans-Serif" font-size="10.00">io_context</text>
<text text-anchor="start" x="213" y="-484" font-family="Helvetica,sans-Serif" font-size="10.00"> </text>
<text text-anchor="start" x="213" y="-468.75" font-family="Helvetica,sans-Serif" font-size="10.00"> </text>
<polygon fill="#666666" stroke="#666666" points="188,-495.5 188,-495.5 241,-495.5 241,-495.5 188,-495.5"/>
<polygon fill="#666666" stroke="#666666" points="188,-480.25 188,-480.25 241,-480.25 241,-480.25 188,-480.25"/>
<polygon fill="none" stroke="#666666" points="188,-463 188,-512.75 241,-512.75 241,-463 188,-463"/>
</a>
</g>
</g>
<!-- Node3&#45;&gt;Node1 -->
<g id="edge2_Node000001_Node000003" class="edge">
<title>Node3&#45;&gt;Node1</title>
<g id="a_edge2_Node000001_Node000003"><a xlink:title=" ">
<path fill="none" stroke="#63b8ff" d="M214.83,-463.22C215.45,-446.35 217.07,-423.21 221.25,-403.25 222.93,-395.24 224.82,-387.12 226.89,-378.96"/>
<polygon fill="none" stroke="#63b8ff" points="226.87,-379.03 224.53,-372.21 229.92,-367.42 232.26,-374.24 226.87,-379.03"/>
</a>
</g>
<text text-anchor="middle" x="249.38" y="-405" font-family="Helvetica,sans-Serif" font-size="10.00" fill="grey"> &#45;io_context_</text>
</g>
<!-- Node4 -->
<g id="Node000004" class="node">
<title>Node4</title>
<g id="a_Node000004"><a xlink:title=" ">
<polygon fill="white" stroke="none" points="296.12,-512.75 258.88,-512.75 258.88,-463 296.12,-463 296.12,-512.75"/>
<text text-anchor="start" x="262.88" y="-499.25" font-family="Helvetica,sans-Serif" font-size="10.00">socket</text>
<text text-anchor="start" x="276" y="-484" font-family="Helvetica,sans-Serif" font-size="10.00"> </text>
<text text-anchor="start" x="276" y="-468.75" font-family="Helvetica,sans-Serif" font-size="10.00"> </text>
<polygon fill="#666666" stroke="#666666" points="258.88,-495.5 258.88,-495.5 296.12,-495.5 296.12,-495.5 258.88,-495.5"/>
<polygon fill="#666666" stroke="#666666" points="258.88,-480.25 258.88,-480.25 296.12,-480.25 296.12,-480.25 258.88,-480.25"/>
<polygon fill="none" stroke="#666666" points="258.88,-463 258.88,-512.75 296.12,-512.75 296.12,-463 258.88,-463"/>
</a>
</g>
</g>
<!-- Node4&#45;&gt;Node1 -->
<g id="edge3_Node000001_Node000004" class="edge">
<title>Node4&#45;&gt;Node1</title>
<g id="a_edge3_Node000001_Node000004"><a xlink:title=" ">
<path fill="none" stroke="#63b8ff" d="M278.78,-463.37C279.66,-447.25 280.92,-424.13 282.34,-398.11"/>
<polygon fill="none" stroke="#63b8ff" points="282.35,-398.01 278.68,-391.8 283,-386.02 286.67,-392.23 282.35,-398.01"/>
</a>
</g>
<text text-anchor="middle" x="302.04" y="-405" font-family="Helvetica,sans-Serif" font-size="10.00" fill="grey"> &#45;socket_</text>
</g>
<!-- Node5 -->
<g id="Node000005" class="node">
<title>Node5</title>
<g id="a_Node000005"><a xlink:title=" ">
<polygon fill="white" stroke="none" points="458.38,-524 314.62,-524 314.62,-451.75 458.38,-451.75 458.38,-524"/>
<text text-anchor="start" x="318.62" y="-510.5" font-family="Helvetica,sans-Serif" font-size="10.00">map&lt; boost::asio::ip</text>
<text text-anchor="start" x="318.62" y="-499.25" font-family="Helvetica,sans-Serif" font-size="10.00">::udp::endpoint, ServerNetwork</text>
<text text-anchor="start" x="358" y="-488" font-family="Helvetica,sans-Serif" font-size="10.00">::ClientInfo &gt;</text>
<text text-anchor="start" x="385" y="-472.75" font-family="Helvetica,sans-Serif" font-size="10.00"> </text>
<text text-anchor="start" x="385" y="-457.5" font-family="Helvetica,sans-Serif" font-size="10.00"> </text>
<polygon fill="#666666" stroke="#666666" points="314.62,-484.25 314.62,-484.25 458.38,-484.25 458.38,-484.25 314.62,-484.25"/>
<polygon fill="#666666" stroke="#666666" points="314.62,-469 314.62,-469 458.38,-469 458.38,-469 314.62,-469"/>
<polygon fill="none" stroke="#666666" points="314.62,-451.75 314.62,-524 458.38,-524 458.38,-451.75 314.62,-451.75"/>
</a>
</g>
</g>
<!-- Node5&#45;&gt;Node1 -->
<g id="edge4_Node000001_Node000005" class="edge">
<title>Node5&#45;&gt;Node1</title>
<g id="a_edge4_Node000001_Node000005"><a xlink:title=" ">
<path fill="none" stroke="#63b8ff" d="M375.37,-451.79C370.62,-436.8 364.66,-418 358.13,-397.42"/>
<polygon fill="none" stroke="#63b8ff" points="358.13,-397.4 352.5,-392.89 354.5,-385.97 360.12,-390.48 358.13,-397.4"/>
</a>
</g>
<text text-anchor="middle" x="381.43" y="-405" font-family="Helvetica,sans-Serif" font-size="10.00" fill="grey"> &#45;clients_</text>
</g>
<!-- Node6 -->
<g id="Node000006" class="node">
<title>Node6</title>
<g id="a_Node000006"><a xlink:title=" ">
<polygon fill="white" stroke="none" points="502.5,-512.75 476.5,-512.75 476.5,-463 502.5,-463 502.5,-512.75"/>
<text text-anchor="start" x="480.5" y="-499.25" font-family="Helvetica,sans-Serif" font-size="10.00">bool</text>
<text text-anchor="start" x="488" y="-484" font-family="Helvetica,sans-Serif" font-size="10.00"> </text>
<text text-anchor="start" x="488" y="-468.75" font-family="Helvetica,sans-Serif" font-size="10.00"> </text>
<polygon fill="#666666" stroke="#666666" points="476.5,-495.5 476.5,-495.5 502.5,-495.5 502.5,-495.5 476.5,-495.5"/>
<polygon fill="#666666" stroke="#666666" points="476.5,-480.25 476.5,-480.25 502.5,-480.25 502.5,-480.25 476.5,-480.25"/>
<polygon fill="none" stroke="#666666" points="476.5,-463 476.5,-512.75 502.5,-512.75 502.5,-463 476.5,-463"/>
</a>
</g>
</g>
<!-- Node6&#45;&gt;Node1 -->
<g id="edge5_Node000001_Node000006" class="edge">
<title>Node6&#45;&gt;Node1</title>
<g id="a_edge5_Node000001_Node000006"><a xlink:title=" ">
<path fill="none" stroke="#63b8ff" d="M481.3,-463.01C477.59,-453.29 472.84,-442.11 467.5,-432.5 437.97,-379.34 398.49,-324.2 364.6,-280.32"/>
<polygon fill="none" stroke="#63b8ff" points="364.71,-280.45 357.87,-278.17 357.35,-270.98 364.19,-273.26 364.71,-280.45"/>
</a>
</g>
<text text-anchor="middle" x="476.93" y="-405" font-family="Helvetica,sans-Serif" font-size="10.00" fill="grey"> &#45;running_</text>
</g>
<!-- Node7 -->
<g id="Node000007" class="node">
<title>Node7</title>
<g id="a_Node000007"><a xlink:title=" ">
<polygon fill="white" stroke="none" points="564,-512.75 529,-512.75 529,-463 564,-463 564,-512.75"/>
<text text-anchor="start" x="533" y="-499.25" font-family="Helvetica,sans-Serif" font-size="10.00">thread</text>
<text text-anchor="start" x="545" y="-484" font-family="Helvetica,sans-Serif" font-size="10.00"> </text>
<text text-anchor="start" x="545" y="-468.75" font-family="Helvetica,sans-Serif" font-size="10.00"> </text>
<polygon fill="#666666" stroke="#666666" points="529,-495.5 529,-495.5 564,-495.5 564,-495.5 529,-495.5"/>
<polygon fill="#666666" stroke="#666666" points="529,-480.25 529,-480.25 564,-480.25 564,-480.25 529,-480.25"/>
<polygon fill="none" stroke="#666666" points="529,-463 529,-512.75 564,-512.75 564,-463 529,-463"/>
</a>
</g>
</g>
<!-- Node7&#45;&gt;Node1 -->
<g id="edge6_Node000001_Node000007" class="edge">
<title>Node7&#45;&gt;Node1</title>
<g id="a_edge6_Node000001_Node000007"><a xlink:title=" ">
<path fill="none" stroke="#63b8ff" d="M536.31,-463.06C528.33,-445.69 516.3,-422.02 502.5,-403.25 462.73,-349.17 409.13,-295.71 366.17,-256.3"/>
<polygon fill="none" stroke="#63b8ff" points="366.16,-256.29 359.03,-255.22 357.28,-248.22 364.41,-249.3 366.16,-256.29"/>
</a>
</g>
<text text-anchor="middle" x="547.28" y="-405" font-family="Helvetica,sans-Serif" font-size="10.00" fill="grey"> &#45;receive_thread_</text>
</g>
<!-- Node8&#45;&gt;Node1 -->
<g id="edge7_Node000001_Node000008" class="edge">
<title>Node8&#45;&gt;Node1</title>
<g id="a_edge7_Node000001_Node000008"><a xlink:title=" ">
<path fill="none" stroke="#63b8ff" d="M153.25,-432.75C173.03,-399.02 199.28,-354.26 223.72,-312.59"/>
<polygon fill="none" stroke="#63b8ff" points="223.7,-312.63 223.28,-305.43 229.77,-302.28 230.18,-309.48 223.7,-312.63"/>
</a>
</g>
<text text-anchor="middle" x="180" y="-405" font-family="Helvetica,sans-Serif" font-size="10.00" fill="grey"> &#45;med</text>
</g>
</g>
</svg>

<g id="navigator" transform="translate(0 0)" fill="#404254">
  <rect fill="#f2f5e9" fill-opacity="0.5" stroke="#606060" stroke-width=".5" x="0" y="0" width="60" height="60"/>
  <use id="zoomplus" xlink:href="#zoomPlus" x="17" y="9" onmousedown="handleZoom(evt,'in')"/>
  <use id="zoomminus" xlink:href="#zoomMin" x="42" y="9" onmousedown="handleZoom(evt,'out')"/>
  <use id="reset" xlink:href="#resetDef" x="30" y="36" onmousedown="handleReset()"/>
   <use id="arrowup" xlink:href="#arrowUp" x="0" y="0" onmousedown="handlePan(0,-1)"/>
  <use id="arrowright" xlink:href="#arrowRight" x="0" y="0" onmousedown="handlePan(1,0)"/>
  <use id="arrowdown" xlink:href="#arrowDown" x="0" y="0" onmousedown="handlePan(0,1)"/>
  <use id="arrowleft" xlink:href="#arrowLeft" x="0" y="0" onmousedown="handlePan(-1,0)"/>
</g>
<svg viewBox="0 0 15 15" width="100%" height="30px" preserveAspectRatio="xMaxYMin meet">
 <g id="arrow_out" transform="scale(0.3 0.3)">
  <a xlink:href="class_server_network__coll__graph_org.svg" target="_base">
   <rect id="button" ry="5" rx="5" y="6" x="6" height="38" width="38"
        fill="#f2f5e9" fill-opacity="0.5" stroke="#606060" stroke-width="1.0"/>
   <path id="arrow"
     d="M 11.500037,31.436501 C 11.940474,20.09759 22.043105,11.32322 32.158766,21.979434 L 37.068811,17.246167 C 37.068811,17.246167 37.088388,32 37.088388,32 L 22.160133,31.978069 C 22.160133,31.978069 26.997745,27.140456 26.997745,27.140456 C 18.528582,18.264221 13.291696,25.230495 11.500037,31.436501 z"
     style="fill:#404040;"/>
  </a>
 </g>
</svg>

<style type='text/css'>
<![CDATA[
[data-mouse-over-selected='false'] { opacity: 0.7; }
[data-mouse-over-selected='true']  { opacity: 1.0; }
]]>
</style>
<script type="application/ecmascript"><![CDATA[
document.addEventListener('DOMContentLoaded', (event) => {
  highlightEdges();
  highlightAdjacentNodes();
});
]]></script>
</svg>
