<?xml version="1.0" encoding="UTF-8" standalone="no"?>
<!DOCTYPE svg PUBLIC "-//W3C//DTD SVG 1.1//EN"
 "http://www.w3.org/Graphics/SVG/1.1/DTD/svg11.dtd">
<!-- Generated by graphviz version 12.2.1 (20241206.2353)
 -->
<!-- Title: Core::handle_vertical_movement Pages: 1 -->
<svg width="427pt" height="187pt"
 viewBox="0.00 0.00 426.50 186.88" xmlns="http://www.w3.org/2000/svg" xmlns:xlink="http://www.w3.org/1999/xlink">
<g id="graph0" class="graph" transform="scale(1 1) rotate(0) translate(4 182.88)">
<title>Core::handle_vertical_movement</title>
<!-- Node1 -->
<g id="Node000001" class="node">
<title>Node1</title>
<g id="a_Node000001"><a xlink:title=" ">
<polygon fill="#999999" stroke="#666666" points="108.25,-110.5 0,-110.5 0,-80 108.25,-80 108.25,-110.5"/>
<text text-anchor="start" x="8" y="-97" font-family="Helvetica,sans-Serif" font-size="10.00">Core::handle_vertical</text>
<text text-anchor="middle" x="54.12" y="-85.75" font-family="Helvetica,sans-Serif" font-size="10.00">_movement</text>
</a>
</g>
</g>
<!-- Node2 -->
<g id="Node000002" class="node">
<title>Node2</title>
<g id="a_Node000002"><a xlink:href="class_core.html#a1ae796fe1ad262de4484a8838fa53c48" target="_top" xlink:title=" ">
<polygon fill="white" stroke="#666666" points="263.38,-178.88 157.38,-178.88 157.38,-159.62 263.38,-159.62 263.38,-178.88"/>
<text text-anchor="middle" x="210.38" y="-165.38" font-family="Helvetica,sans-Serif" font-size="10.00">Core::animate_down</text>
</a>
</g>
</g>
<!-- Node1&#45;&gt;Node2 -->
<g id="edge1_Node000001_Node000002" class="edge">
<title>Node1&#45;&gt;Node2</title>
<g id="a_edge1_Node000001_Node000002"><a xlink:title=" ">
<path fill="none" stroke="#63b8ff" d="M76.12,-110.91C93.58,-123.33 119.5,-140.34 144.25,-151.25 147.79,-152.81 151.5,-154.27 155.28,-155.63"/>
<polygon fill="#63b8ff" stroke="#63b8ff" points="153.99,-158.88 164.58,-158.7 156.18,-152.24 153.99,-158.88"/>
</a>
</g>
</g>
<!-- Node4 -->
<g id="Node000004" class="node">
<title>Node4</title>
<g id="a_Node000004"><a xlink:href="class_core.html#a5c24c3d1aa2061ee09283ffe7943e256" target="_top" xlink:title=" ">
<polygon fill="white" stroke="#666666" points="273.12,-141.88 147.62,-141.88 147.62,-122.62 273.12,-122.62 273.12,-141.88"/>
<text text-anchor="middle" x="210.38" y="-128.38" font-family="Helvetica,sans-Serif" font-size="10.00">Core::animate_to_neutral</text>
</a>
</g>
</g>
<!-- Node1&#45;&gt;Node4 -->
<g id="edge3_Node000001_Node000004" class="edge">
<title>Node1&#45;&gt;Node4</title>
<g id="a_edge3_Node000001_Node000004"><a xlink:title=" ">
<path fill="none" stroke="#63b8ff" d="M108.64,-108.09C124.19,-111.82 141.15,-115.88 156.64,-119.6"/>
<polygon fill="#63b8ff" stroke="#63b8ff" points="155.61,-122.95 166.15,-121.88 157.25,-116.15 155.61,-122.95"/>
</a>
</g>
</g>
<!-- Node5 -->
<g id="Node000005" class="node">
<title>Node5</title>
<g id="a_Node000005"><a xlink:href="class_core.html#a32360bca0d21983d2d9b920229144fab" target="_top" xlink:title=" ">
<polygon fill="white" stroke="#666666" points="257,-104.88 163.75,-104.88 163.75,-85.62 257,-85.62 257,-104.88"/>
<text text-anchor="middle" x="210.38" y="-91.38" font-family="Helvetica,sans-Serif" font-size="10.00">Core::animate_up</text>
</a>
</g>
</g>
<!-- Node1&#45;&gt;Node5 -->
<g id="edge5_Node000001_Node000005" class="edge">
<title>Node1&#45;&gt;Node5</title>
<g id="a_edge5_Node000001_Node000005"><a xlink:title=" ">
<path fill="none" stroke="#63b8ff" d="M108.64,-95.25C122.72,-95.25 137.95,-95.25 152.21,-95.25"/>
<polygon fill="#63b8ff" stroke="#63b8ff" points="151.88,-98.75 161.88,-95.25 151.88,-91.75 151.88,-98.75"/>
</a>
</g>
</g>
<!-- Node6 -->
<g id="Node000006" class="node">
<title>Node6</title>
<g id="a_Node000006"><a xlink:href="class_core.html#a358f46d664d8eaa3680ec8de58a0fa1e" target="_top" xlink:title=" ">
<polygon fill="white" stroke="#666666" points="276.5,-67.88 144.25,-67.88 144.25,-48.62 276.5,-48.62 276.5,-67.88"/>
<text text-anchor="middle" x="210.38" y="-54.38" font-family="Helvetica,sans-Serif" font-size="10.00">Core::handle_vertical_stop</text>
</a>
</g>
</g>
<!-- Node1&#45;&gt;Node6 -->
<g id="edge7_Node000001_Node000006" class="edge">
<title>Node1&#45;&gt;Node6</title>
<g id="a_edge7_Node000001_Node000006"><a xlink:title=" ">
<path fill="none" stroke="#63b8ff" d="M108.64,-82.41C124.19,-78.68 141.15,-74.62 156.64,-70.9"/>
<polygon fill="#63b8ff" stroke="#63b8ff" points="157.25,-74.35 166.15,-68.62 155.61,-67.55 157.25,-74.35"/>
</a>
</g>
</g>
<!-- Node8 -->
<g id="Node000008" class="node">
<title>Node8</title>
<g id="a_Node000008"><a xlink:href="class_core.html#a76ad333a648e0e20b1b12fb5a416774c" target="_top" xlink:title=" ">
<polygon fill="white" stroke="#666666" points="260.75,-30.5 160,-30.5 160,0 260.75,0 260.75,-30.5"/>
<text text-anchor="start" x="168" y="-17" font-family="Helvetica,sans-Serif" font-size="10.00">Core::send_input_if</text>
<text text-anchor="middle" x="210.38" y="-5.75" font-family="Helvetica,sans-Serif" font-size="10.00">_needed</text>
</a>
</g>
</g>
<!-- Node1&#45;&gt;Node8 -->
<g id="edge9_Node000001_Node000008" class="edge">
<title>Node1&#45;&gt;Node8</title>
<g id="a_edge9_Node000001_Node000008"><a xlink:title=" ">
<path fill="none" stroke="#63b8ff" d="M77.09,-79.64C94.69,-67.58 120.31,-51.02 144.25,-39.25 146.94,-37.92 149.73,-36.63 152.57,-35.37"/>
<polygon fill="#63b8ff" stroke="#63b8ff" points="153.72,-38.69 161.58,-31.58 151.01,-32.23 153.72,-38.69"/>
</a>
</g>
</g>
<!-- Node3 -->
<g id="Node000003" class="node">
<title>Node3</title>
<g id="a_Node000003"><a xlink:href="class_core.html#ae37ec3409102a80e9958b8c2910f16ef" target="_top" xlink:title=" ">
<polygon fill="white" stroke="#666666" points="416.25,-147.5 314.75,-147.5 314.75,-117 416.25,-117 416.25,-147.5"/>
<text text-anchor="start" x="322.75" y="-134" font-family="Helvetica,sans-Serif" font-size="10.00">Core::update_sprite</text>
<text text-anchor="middle" x="365.5" y="-122.75" font-family="Helvetica,sans-Serif" font-size="10.00">_frame</text>
</a>
</g>
</g>
<!-- Node2&#45;&gt;Node3 -->
<g id="edge2_Node000002_Node000003" class="edge">
<title>Node2&#45;&gt;Node3</title>
<g id="a_edge2_Node000002_Node000003"><a xlink:title=" ">
<path fill="none" stroke="#63b8ff" d="M253.22,-159.14C268.69,-155.4 286.56,-151.08 303.39,-147.02"/>
<polygon fill="#63b8ff" stroke="#63b8ff" points="303.9,-150.49 312.8,-144.74 302.25,-143.69 303.9,-150.49"/>
</a>
</g>
</g>
<!-- Node4&#45;&gt;Node3 -->
<g id="edge4_Node000004_Node000003" class="edge">
<title>Node4&#45;&gt;Node3</title>
<g id="a_edge4_Node000004_Node000003"><a xlink:title=" ">
<path fill="none" stroke="#63b8ff" d="M273.22,-132.25C283.12,-132.25 293.36,-132.25 303.25,-132.25"/>
<polygon fill="#63b8ff" stroke="#63b8ff" points="303.14,-135.75 313.14,-132.25 303.14,-128.75 303.14,-135.75"/>
</a>
</g>
</g>
<!-- Node5&#45;&gt;Node3 -->
<g id="edge6_Node000005_Node000003" class="edge">
<title>Node5&#45;&gt;Node3</title>
<g id="a_edge6_Node000005_Node000003"><a xlink:title=" ">
<path fill="none" stroke="#63b8ff" d="M253.22,-105.36C268.69,-109.1 286.56,-113.42 303.39,-117.48"/>
<polygon fill="#63b8ff" stroke="#63b8ff" points="302.25,-120.81 312.8,-119.76 303.9,-114.01 302.25,-120.81"/>
</a>
</g>
</g>
<!-- Node7 -->
<g id="Node000007" class="node">
<title>Node7</title>
<g id="a_Node000007"><a xlink:href="class_core.html#aad563284176b829fa64177092388ef31" target="_top" xlink:title=" ">
<polygon fill="white" stroke="#666666" points="418.5,-46.88 312.5,-46.88 312.5,-27.62 418.5,-27.62 418.5,-46.88"/>
<text text-anchor="middle" x="365.5" y="-33.38" font-family="Helvetica,sans-Serif" font-size="10.00">Core::encode_action</text>
</a>
</g>
</g>
<!-- Node6&#45;&gt;Node7 -->
<g id="edge8_Node000006_Node000007" class="edge">
<title>Node6&#45;&gt;Node7</title>
<g id="a_edge8_Node000006_Node000007"><a xlink:title=" ">
<path fill="none" stroke="#63b8ff" d="M276.76,-49.28C284.82,-48.18 293.06,-47.05 301.1,-45.95"/>
<polygon fill="#63b8ff" stroke="#63b8ff" points="301.36,-49.44 310.79,-44.62 300.4,-42.51 301.36,-49.44"/>
</a>
</g>
</g>
<!-- Node8&#45;&gt;Node7 -->
<g id="edge10_Node000008_Node000007" class="edge">
<title>Node8&#45;&gt;Node7</title>
<g id="a_edge10_Node000008_Node000007"><a xlink:title=" ">
<path fill="none" stroke="#63b8ff" d="M261.09,-22.39C273.85,-24.23 287.74,-26.22 301.09,-28.14"/>
<polygon fill="#63b8ff" stroke="#63b8ff" points="300.24,-31.55 310.64,-29.51 301.24,-24.62 300.24,-31.55"/>
</a>
</g>
</g>
</g>
</svg>
