<?xml version="1.0" encoding="UTF-8" standalone="no"?>
<!DOCTYPE svg PUBLIC "-//W3C//DTD SVG 1.1//EN"
 "http://www.w3.org/Graphics/SVG/1.1/DTD/svg11.dtd">
<!-- Generated by graphviz version 12.2.1 (20241206.2353)
 -->
<!-- Title: ServerGame Pages: 1 -->
<!--zoomable 1369 -->

<svg id="main" version="1.1" xmlns="http://www.w3.org/2000/svg" xmlns:xlink="http://www.w3.org/1999/xlink" xml:space="preserve" onload="init(evt)">

<style type="text/css"><![CDATA[
.node, .edge {opacity: 0.7;}
.node.selected, .edge.selected {opacity: 1;}
.edge:hover path { stroke: red; }
.edge:hover polygon { stroke: red; fill: red; }
]]></style>

<defs>
  <circle id="rim" cx="0" cy="0" r="7"/>
  <circle id="rim2" cx="0" cy="0" r="3.5"/>
  <g id="zoomPlus">
    <use xlink:href="#rim" fill="#404040"><set attributeName="fill" to="#808080" begin="zoomplus.mouseover" end="zoomplus.mouseout"/></use>
    <path d="M-4,0h8M0,-4v8" fill="none" stroke="white" stroke-width="1.5" pointer-events="none"/>
  </g>
  <g id="zoomMin">
    <use xlink:href="#rim" fill="#404040"><set attributeName="fill" to="#808080" begin="zoomminus.mouseover" end="zoomminus.mouseout"/></use>
    <path d="M-4,0h8" fill="none" stroke="white" stroke-width="1.5" pointer-events="none"/>
  </g>
  <g id="arrowUp" transform="translate(30 24)">
    <use xlink:href="#rim"/>
    <path pointer-events="none" fill="none" stroke="white" stroke-width="1.5" d="M0,-3.0v7 M-2.5,-0.5L0,-3.0L2.5,-0.5"/>
  </g>
  <g id="arrowRight" transform="rotate(90) translate(36 -43)">
    <use xlink:href="#rim"/>
    <path pointer-events="none" fill="none" stroke="white" stroke-width="1.5" d="M0,-3.0v7 M-2.5,-0.5L0,-3.0L2.5,-0.5"/>
  </g>
  <g id="arrowDown" transform="rotate(180) translate(-30 -48)">
    <use xlink:href="#rim"/>
    <path pointer-events="none" fill="none" stroke="white" stroke-width="1.5" d="M0,-3.0v7 M-2.5,-0.5L0,-3.0L2.5,-0.5"/>
  </g>
  <g id="arrowLeft" transform="rotate(270) translate(-36 17)">
    <use xlink:href="#rim"/>
    <path pointer-events="none" fill="none" stroke="white" stroke-width="1.5" d="M0,-3.0v7 M-2.5,-0.5L0,-3.0L2.5,-0.5"/>
  </g>
  <g id="resetDef">
    <use xlink:href="#rim2" fill="#404040"><set attributeName="fill" to="#808080" begin="reset.mouseover" end="reset.mouseout"/></use>
  </g>
</defs>
<script type="application/ecmascript">
var viewWidth = 705;
var viewHeight = 1369;
var sectionId = 'dynsection-1';
</script>
<script type="application/ecmascript" xlink:href="svg.min.js"/>
<svg id="graph" class="graph">
<g id="viewport">
<title>ServerGame</title>
<!-- Node1 -->
<g id="Node000001" class="node">
<title>Node1</title>
<g id="a_Node000001"><a xlink:title="Gère la logique de jeu côté serveur.">
<polygon fill="#999999" stroke="none" points="446.25,-606 306.75,-606 306.75,0 446.25,0 446.25,-606"/>
<text text-anchor="start" x="349.12" y="-592.5" font-family="Helvetica,sans-Serif" font-size="10.00">ServerGame</text>
<text text-anchor="start" x="310.75" y="-577.25" font-family="Helvetica,sans-Serif" font-size="10.00">+</text>
<text text-anchor="start" x="320.75" y="-577.25" font-family="Helvetica,sans-Serif" font-size="10.00">win_timer_</text>
<text text-anchor="start" x="310.75" y="-562" font-family="Helvetica,sans-Serif" font-size="10.00">+</text>
<text text-anchor="start" x="320.75" y="-562" font-family="Helvetica,sans-Serif" font-size="10.00">ServerGame()</text>
<text text-anchor="start" x="310.75" y="-546.75" font-family="Helvetica,sans-Serif" font-size="10.00">+</text>
<text text-anchor="start" x="320.75" y="-546.75" font-family="Helvetica,sans-Serif" font-size="10.00">initTimers()</text>
<text text-anchor="start" x="310.75" y="-531.5" font-family="Helvetica,sans-Serif" font-size="10.00">+</text>
<text text-anchor="start" x="320.75" y="-531.5" font-family="Helvetica,sans-Serif" font-size="10.00">StopAllTimers()</text>
<text text-anchor="start" x="310.75" y="-516.25" font-family="Helvetica,sans-Serif" font-size="10.00">+</text>
<text text-anchor="start" x="320.75" y="-516.25" font-family="Helvetica,sans-Serif" font-size="10.00">positionConciliation()</text>
<text text-anchor="start" x="310.75" y="-501" font-family="Helvetica,sans-Serif" font-size="10.00">+</text>
<text text-anchor="start" x="320.75" y="-501" font-family="Helvetica,sans-Serif" font-size="10.00">setup_conciliation</text>
<text text-anchor="start" x="320.75" y="-489.75" font-family="Helvetica,sans-Serif" font-size="10.00">_timer()</text>
<text text-anchor="start" x="310.75" y="-474.5" font-family="Helvetica,sans-Serif" font-size="10.00">+</text>
<text text-anchor="start" x="320.75" y="-474.5" font-family="Helvetica,sans-Serif" font-size="10.00">setup_position_timer()</text>
<text text-anchor="start" x="310.75" y="-459.25" font-family="Helvetica,sans-Serif" font-size="10.00">+</text>
<text text-anchor="start" x="320.75" y="-459.25" font-family="Helvetica,sans-Serif" font-size="10.00">setup_spawn_timer()</text>
<text text-anchor="start" x="310.75" y="-444" font-family="Helvetica,sans-Serif" font-size="10.00">+</text>
<text text-anchor="start" x="320.75" y="-444" font-family="Helvetica,sans-Serif" font-size="10.00">setup_powerup_timer()</text>
<text text-anchor="start" x="310.75" y="-428.75" font-family="Helvetica,sans-Serif" font-size="10.00">+</text>
<text text-anchor="start" x="320.75" y="-428.75" font-family="Helvetica,sans-Serif" font-size="10.00">setup_collision_timer()</text>
<text text-anchor="start" x="310.75" y="-413.5" font-family="Helvetica,sans-Serif" font-size="10.00">+</text>
<text text-anchor="start" x="320.75" y="-413.5" font-family="Helvetica,sans-Serif" font-size="10.00">setup_invincible_timer()</text>
<text text-anchor="start" x="310.75" y="-398.25" font-family="Helvetica,sans-Serif" font-size="10.00">+</text>
<text text-anchor="start" x="320.75" y="-398.25" font-family="Helvetica,sans-Serif" font-size="10.00">setup_iaMobs()</text>
<text text-anchor="start" x="310.75" y="-383" font-family="Helvetica,sans-Serif" font-size="10.00">+</text>
<text text-anchor="start" x="320.75" y="-383" font-family="Helvetica,sans-Serif" font-size="10.00">setup_ia_player()</text>
<text text-anchor="start" x="310.75" y="-367.75" font-family="Helvetica,sans-Serif" font-size="10.00">+</text>
<text text-anchor="start" x="320.75" y="-367.75" font-family="Helvetica,sans-Serif" font-size="10.00">setup_triple_shot_expiration</text>
<text text-anchor="start" x="320.75" y="-356.5" font-family="Helvetica,sans-Serif" font-size="10.00">_timer()</text>
<text text-anchor="start" x="310.75" y="-341.25" font-family="Helvetica,sans-Serif" font-size="10.00">+</text>
<text text-anchor="start" x="320.75" y="-341.25" font-family="Helvetica,sans-Serif" font-size="10.00">setup_game_over_timer()</text>
<text text-anchor="start" x="310.75" y="-326" font-family="Helvetica,sans-Serif" font-size="10.00">+</text>
<text text-anchor="start" x="320.75" y="-326" font-family="Helvetica,sans-Serif" font-size="10.00">spawnMob()</text>
<text text-anchor="start" x="310.75" y="-310.75" font-family="Helvetica,sans-Serif" font-size="10.00">+</text>
<text text-anchor="start" x="320.75" y="-310.75" font-family="Helvetica,sans-Serif" font-size="10.00">spawnPowerUp()</text>
<text text-anchor="start" x="310.75" y="-295.5" font-family="Helvetica,sans-Serif" font-size="10.00">+</text>
<text text-anchor="start" x="320.75" y="-295.5" font-family="Helvetica,sans-Serif" font-size="10.00">checkAllCollisions()</text>
<text text-anchor="start" x="310.75" y="-280.25" font-family="Helvetica,sans-Serif" font-size="10.00">+</text>
<text text-anchor="start" x="320.75" y="-280.25" font-family="Helvetica,sans-Serif" font-size="10.00">isColliding()</text>
<text text-anchor="start" x="310.75" y="-265" font-family="Helvetica,sans-Serif" font-size="10.00">+</text>
<text text-anchor="start" x="320.75" y="-265" font-family="Helvetica,sans-Serif" font-size="10.00">checkTripleShotExpiration()</text>
<text text-anchor="start" x="310.75" y="-249.75" font-family="Helvetica,sans-Serif" font-size="10.00">+</text>
<text text-anchor="start" x="320.75" y="-249.75" font-family="Helvetica,sans-Serif" font-size="10.00">areAllPlayersDead()</text>
<text text-anchor="start" x="310.75" y="-234.5" font-family="Helvetica,sans-Serif" font-size="10.00">+</text>
<text text-anchor="start" x="320.75" y="-234.5" font-family="Helvetica,sans-Serif" font-size="10.00">showAllEnityAlive()</text>
<text text-anchor="start" x="310.75" y="-219.25" font-family="Helvetica,sans-Serif" font-size="10.00">+</text>
<text text-anchor="start" x="320.75" y="-219.25" font-family="Helvetica,sans-Serif" font-size="10.00">loadLuaScript()</text>
<text text-anchor="start" x="310.75" y="-204" font-family="Helvetica,sans-Serif" font-size="10.00">+</text>
<text text-anchor="start" x="320.75" y="-204" font-family="Helvetica,sans-Serif" font-size="10.00">handleConnect()</text>
<text text-anchor="start" x="310.75" y="-188.75" font-family="Helvetica,sans-Serif" font-size="10.00">+</text>
<text text-anchor="start" x="320.75" y="-188.75" font-family="Helvetica,sans-Serif" font-size="10.00">handleDisconnect()</text>
<text text-anchor="start" x="310.75" y="-173.5" font-family="Helvetica,sans-Serif" font-size="10.00">+</text>
<text text-anchor="start" x="320.75" y="-173.5" font-family="Helvetica,sans-Serif" font-size="10.00">handleMoves()</text>
<text text-anchor="start" x="310.75" y="-158.25" font-family="Helvetica,sans-Serif" font-size="10.00">+</text>
<text text-anchor="start" x="320.75" y="-158.25" font-family="Helvetica,sans-Serif" font-size="10.00">handleShoot()</text>
<text text-anchor="start" x="310.75" y="-143" font-family="Helvetica,sans-Serif" font-size="10.00">+</text>
<text text-anchor="start" x="320.75" y="-143" font-family="Helvetica,sans-Serif" font-size="10.00">handleMobSpawn()</text>
<text text-anchor="start" x="310.75" y="-127.75" font-family="Helvetica,sans-Serif" font-size="10.00">+</text>
<text text-anchor="start" x="320.75" y="-127.75" font-family="Helvetica,sans-Serif" font-size="10.00">handleConciliation()</text>
<text text-anchor="start" x="310.75" y="-112.5" font-family="Helvetica,sans-Serif" font-size="10.00">+</text>
<text text-anchor="start" x="320.75" y="-112.5" font-family="Helvetica,sans-Serif" font-size="10.00">handlePowerUpSpawn()</text>
<text text-anchor="start" x="310.75" y="-97.25" font-family="Helvetica,sans-Serif" font-size="10.00">+</text>
<text text-anchor="start" x="320.75" y="-97.25" font-family="Helvetica,sans-Serif" font-size="10.00">handleColision()</text>
<text text-anchor="start" x="310.75" y="-82" font-family="Helvetica,sans-Serif" font-size="10.00">+</text>
<text text-anchor="start" x="320.75" y="-82" font-family="Helvetica,sans-Serif" font-size="10.00">handleDeath()</text>
<text text-anchor="start" x="310.75" y="-66.75" font-family="Helvetica,sans-Serif" font-size="10.00">+</text>
<text text-anchor="start" x="320.75" y="-66.75" font-family="Helvetica,sans-Serif" font-size="10.00">handleMobShoot()</text>
<text text-anchor="start" x="310.75" y="-51.5" font-family="Helvetica,sans-Serif" font-size="10.00">+</text>
<text text-anchor="start" x="320.75" y="-51.5" font-family="Helvetica,sans-Serif" font-size="10.00">handleWin()</text>
<text text-anchor="start" x="310.75" y="-36.25" font-family="Helvetica,sans-Serif" font-size="10.00">+</text>
<text text-anchor="start" x="320.75" y="-36.25" font-family="Helvetica,sans-Serif" font-size="10.00">handleLoose()</text>
<text text-anchor="start" x="310.75" y="-21" font-family="Helvetica,sans-Serif" font-size="10.00">+</text>
<text text-anchor="start" x="320.75" y="-21" font-family="Helvetica,sans-Serif" font-size="10.00">handleStart()</text>
<text text-anchor="start" x="310.75" y="-5.75" font-family="Helvetica,sans-Serif" font-size="10.00">+</text>
<text text-anchor="start" x="320.75" y="-5.75" font-family="Helvetica,sans-Serif" font-size="10.00">handleScoreUpdate()</text>
<polygon fill="#666666" stroke="#666666" points="306.75,-588.75 306.75,-588.75 446.25,-588.75 446.25,-588.75 306.75,-588.75"/>
<polygon fill="#666666" stroke="#666666" points="306.75,-573.5 306.75,-573.5 318.75,-573.5 318.75,-573.5 306.75,-573.5"/>
<polygon fill="#666666" stroke="#666666" points="318.75,-573.5 318.75,-573.5 446.25,-573.5 446.25,-573.5 318.75,-573.5"/>
<polygon fill="none" stroke="#666666" points="306.75,0 306.75,-606 446.25,-606 446.25,0 306.75,0"/>
</a>
</g>
</g>
<!-- Node2 -->
<g id="Node000002" class="node">
<title>Node2</title>
<g id="a_Node000002"><a xlink:href="class_i_sender.html" target="_top" xlink:title="Interface pour la gestion des communications réseau.">
<polygon fill="white" stroke="none" points="123,-1360.5 0,-1360.5 0,-1097.25 123,-1097.25 123,-1360.5"/>
<text text-anchor="start" x="44.62" y="-1347" font-family="Helvetica,sans-Serif" font-size="10.00">ISender</text>
<text text-anchor="start" x="60" y="-1331.75" font-family="Helvetica,sans-Serif" font-size="10.00"> </text>
<text text-anchor="start" x="4" y="-1316.5" font-family="Helvetica,sans-Serif" font-size="10.00">+</text>
<text text-anchor="start" x="14" y="-1316.5" font-family="Helvetica,sans-Serif" font-size="10.00">handleConnect()</text>
<text text-anchor="start" x="4" y="-1301.25" font-family="Helvetica,sans-Serif" font-size="10.00">+</text>
<text text-anchor="start" x="14" y="-1301.25" font-family="Helvetica,sans-Serif" font-size="10.00">handleDisconnect()</text>
<text text-anchor="start" x="4" y="-1286" font-family="Helvetica,sans-Serif" font-size="10.00">+</text>
<text text-anchor="start" x="14" y="-1286" font-family="Helvetica,sans-Serif" font-size="10.00">handleMoves()</text>
<text text-anchor="start" x="4" y="-1270.75" font-family="Helvetica,sans-Serif" font-size="10.00">+</text>
<text text-anchor="start" x="14" y="-1270.75" font-family="Helvetica,sans-Serif" font-size="10.00">handleShoot()</text>
<text text-anchor="start" x="4" y="-1255.5" font-family="Helvetica,sans-Serif" font-size="10.00">+</text>
<text text-anchor="start" x="14" y="-1255.5" font-family="Helvetica,sans-Serif" font-size="10.00">handleMobSpawn()</text>
<text text-anchor="start" x="4" y="-1240.25" font-family="Helvetica,sans-Serif" font-size="10.00">+</text>
<text text-anchor="start" x="14" y="-1240.25" font-family="Helvetica,sans-Serif" font-size="10.00">handleConciliation()</text>
<text text-anchor="start" x="4" y="-1225" font-family="Helvetica,sans-Serif" font-size="10.00">+</text>
<text text-anchor="start" x="14" y="-1225" font-family="Helvetica,sans-Serif" font-size="10.00">handlePowerUpSpawn()</text>
<text text-anchor="start" x="4" y="-1209.75" font-family="Helvetica,sans-Serif" font-size="10.00">+</text>
<text text-anchor="start" x="14" y="-1209.75" font-family="Helvetica,sans-Serif" font-size="10.00">handleColision()</text>
<text text-anchor="start" x="4" y="-1194.5" font-family="Helvetica,sans-Serif" font-size="10.00">+</text>
<text text-anchor="start" x="14" y="-1194.5" font-family="Helvetica,sans-Serif" font-size="10.00">handleDeath()</text>
<text text-anchor="start" x="4" y="-1179.25" font-family="Helvetica,sans-Serif" font-size="10.00">+</text>
<text text-anchor="start" x="14" y="-1179.25" font-family="Helvetica,sans-Serif" font-size="10.00">handleMobShoot()</text>
<text text-anchor="start" x="4" y="-1164" font-family="Helvetica,sans-Serif" font-size="10.00">+</text>
<text text-anchor="start" x="14" y="-1164" font-family="Helvetica,sans-Serif" font-size="10.00">handleWin()</text>
<text text-anchor="start" x="4" y="-1148.75" font-family="Helvetica,sans-Serif" font-size="10.00">+</text>
<text text-anchor="start" x="14" y="-1148.75" font-family="Helvetica,sans-Serif" font-size="10.00">handleLoose()</text>
<text text-anchor="start" x="4" y="-1133.5" font-family="Helvetica,sans-Serif" font-size="10.00">+</text>
<text text-anchor="start" x="14" y="-1133.5" font-family="Helvetica,sans-Serif" font-size="10.00">handleStart()</text>
<text text-anchor="start" x="4" y="-1118.25" font-family="Helvetica,sans-Serif" font-size="10.00">+</text>
<text text-anchor="start" x="14" y="-1118.25" font-family="Helvetica,sans-Serif" font-size="10.00">handleScoreUpdate()</text>
<text text-anchor="start" x="4" y="-1103" font-family="Helvetica,sans-Serif" font-size="10.00">+</text>
<text text-anchor="start" x="14" y="-1103" font-family="Helvetica,sans-Serif" font-size="10.00">~ISender()</text>
<polygon fill="#666666" stroke="#666666" points="0,-1343.25 0,-1343.25 123,-1343.25 123,-1343.25 0,-1343.25"/>
<polygon fill="#666666" stroke="#666666" points="0,-1328 0,-1328 123,-1328 123,-1328 0,-1328"/>
<polygon fill="none" stroke="#666666" points="0,-1097.25 0,-1360.5 123,-1360.5 123,-1097.25 0,-1097.25"/>
</a>
</g>
</g>
<!-- Node2&#45;&gt;Node1 -->
<g id="edge1_Node000001_Node000002" class="edge">
<title>Node2&#45;&gt;Node1</title>
<g id="a_edge1_Node000001_Node000002"><a xlink:title=" ">
<path fill="none" stroke="#63b8ff" d="M59.6,-1085.83C61.09,-1018.89 66.32,-938.26 80.5,-867 102.85,-754.64 115.59,-726.63 166.5,-624 206.36,-543.64 262.58,-459.04 306.82,-397.03"/>
<polygon fill="none" stroke="#63b8ff" points="56.1,-1085.73 59.41,-1095.8 63.1,-1085.87 56.1,-1085.73"/>
</a>
</g>
</g>
<!-- Node10 -->
<g id="Node000010" class="node">
<title>Node10</title>
<g id="a_Node000010"><a xlink:href="class_mediator.html" target="_top" xlink:title="Médiateur pour la communication entre le réseau et la logique de jeu.">
<polygon fill="white" stroke="none" points="185.5,-1008.25 89.5,-1008.25 89.5,-897.5 185.5,-897.5 185.5,-1008.25"/>
<text text-anchor="start" x="118.75" y="-994.75" font-family="Helvetica,sans-Serif" font-size="10.00">Mediator</text>
<text text-anchor="start" x="136" y="-979.5" font-family="Helvetica,sans-Serif" font-size="10.00"> </text>
<text text-anchor="start" x="93.5" y="-964.25" font-family="Helvetica,sans-Serif" font-size="10.00">+</text>
<text text-anchor="start" x="103.5" y="-964.25" font-family="Helvetica,sans-Serif" font-size="10.00">Mediator()</text>
<text text-anchor="start" x="93.5" y="-949" font-family="Helvetica,sans-Serif" font-size="10.00">+</text>
<text text-anchor="start" x="103.5" y="-949" font-family="Helvetica,sans-Serif" font-size="10.00">Mediator()</text>
<text text-anchor="start" x="93.5" y="-933.75" font-family="Helvetica,sans-Serif" font-size="10.00">+</text>
<text text-anchor="start" x="103.5" y="-933.75" font-family="Helvetica,sans-Serif" font-size="10.00">notify()</text>
<text text-anchor="start" x="93.5" y="-918.5" font-family="Helvetica,sans-Serif" font-size="10.00">+</text>
<text text-anchor="start" x="103.5" y="-918.5" font-family="Helvetica,sans-Serif" font-size="10.00">register_network()</text>
<text text-anchor="start" x="93.5" y="-903.25" font-family="Helvetica,sans-Serif" font-size="10.00">+</text>
<text text-anchor="start" x="103.5" y="-903.25" font-family="Helvetica,sans-Serif" font-size="10.00">register_game()</text>
<polygon fill="#666666" stroke="#666666" points="89.5,-991 89.5,-991 185.5,-991 185.5,-991 89.5,-991"/>
<polygon fill="#666666" stroke="#666666" points="89.5,-975.75 89.5,-975.75 185.5,-975.75 185.5,-975.75 89.5,-975.75"/>
<polygon fill="none" stroke="#666666" points="89.5,-897.5 89.5,-1008.25 185.5,-1008.25 185.5,-897.5 89.5,-897.5"/>
</a>
</g>
</g>
<!-- Node2&#45;&gt;Node10 -->
<g id="edge10_Node000010_Node000002" class="edge">
<title>Node2&#45;&gt;Node10</title>
<g id="a_edge10_Node000010_Node000002"><a xlink:title=" ">
<path fill="none" stroke="#63b8ff" d="M97.72,-1097.29C105.11,-1070.66 112.58,-1043.71 119.03,-1020.46"/>
<polygon fill="none" stroke="#63b8ff" points="119.05,-1020.39 116.8,-1013.54 122.26,-1008.83 124.51,-1015.68 119.05,-1020.39"/>
</a>
</g>
<text text-anchor="middle" x="128.79" y="-1069.75" font-family="Helvetica,sans-Serif" font-size="10.00" fill="grey"> +game</text>
<text text-anchor="middle" x="128.79" y="-1058.5" font-family="Helvetica,sans-Serif" font-size="10.00" fill="grey">+network</text>
</g>
<!-- Node3 -->
<g id="Node000003" class="node">
<title>Node3</title>
<g id="a_Node000003"><a xlink:href="classregistry.html" target="_top" xlink:title="Registre central du système ECS.">
<polygon fill="white" stroke="none" points="317.5,-1038.75 203.5,-1038.75 203.5,-867 317.5,-867 317.5,-1038.75"/>
<text text-anchor="start" x="244.38" y="-1025.25" font-family="Helvetica,sans-Serif" font-size="10.00">registry</text>
<text text-anchor="start" x="259" y="-1010" font-family="Helvetica,sans-Serif" font-size="10.00"> </text>
<text text-anchor="start" x="207.5" y="-994.75" font-family="Helvetica,sans-Serif" font-size="10.00">+</text>
<text text-anchor="start" x="217.5" y="-994.75" font-family="Helvetica,sans-Serif" font-size="10.00">register_component()</text>
<text text-anchor="start" x="207.5" y="-979.5" font-family="Helvetica,sans-Serif" font-size="10.00">+</text>
<text text-anchor="start" x="217.5" y="-979.5" font-family="Helvetica,sans-Serif" font-size="10.00">get_components()</text>
<text text-anchor="start" x="207.5" y="-964.25" font-family="Helvetica,sans-Serif" font-size="10.00">+</text>
<text text-anchor="start" x="217.5" y="-964.25" font-family="Helvetica,sans-Serif" font-size="10.00">get_components()</text>
<text text-anchor="start" x="207.5" y="-949" font-family="Helvetica,sans-Serif" font-size="10.00">+</text>
<text text-anchor="start" x="217.5" y="-949" font-family="Helvetica,sans-Serif" font-size="10.00">spawn_entity()</text>
<text text-anchor="start" x="207.5" y="-933.75" font-family="Helvetica,sans-Serif" font-size="10.00">+</text>
<text text-anchor="start" x="217.5" y="-933.75" font-family="Helvetica,sans-Serif" font-size="10.00">entity_from_index()</text>
<text text-anchor="start" x="207.5" y="-918.5" font-family="Helvetica,sans-Serif" font-size="10.00">+</text>
<text text-anchor="start" x="217.5" y="-918.5" font-family="Helvetica,sans-Serif" font-size="10.00">kill_entity()</text>
<text text-anchor="start" x="207.5" y="-903.25" font-family="Helvetica,sans-Serif" font-size="10.00">+</text>
<text text-anchor="start" x="217.5" y="-903.25" font-family="Helvetica,sans-Serif" font-size="10.00">add_component()</text>
<text text-anchor="start" x="207.5" y="-888" font-family="Helvetica,sans-Serif" font-size="10.00">+</text>
<text text-anchor="start" x="217.5" y="-888" font-family="Helvetica,sans-Serif" font-size="10.00">emplace_component()</text>
<text text-anchor="start" x="207.5" y="-872.75" font-family="Helvetica,sans-Serif" font-size="10.00">+</text>
<text text-anchor="start" x="217.5" y="-872.75" font-family="Helvetica,sans-Serif" font-size="10.00">remove_component()</text>
<polygon fill="#666666" stroke="#666666" points="203.5,-1021.5 203.5,-1021.5 317.5,-1021.5 317.5,-1021.5 203.5,-1021.5"/>
<polygon fill="#666666" stroke="#666666" points="203.5,-1006.25 203.5,-1006.25 317.5,-1006.25 317.5,-1006.25 203.5,-1006.25"/>
<polygon fill="none" stroke="#666666" points="203.5,-867 203.5,-1038.75 317.5,-1038.75 317.5,-867 203.5,-867"/>
</a>
</g>
</g>
<!-- Node3&#45;&gt;Node1 -->
<g id="edge2_Node000001_Node000003" class="edge">
<title>Node3&#45;&gt;Node1</title>
<g id="a_edge2_Node000001_Node000003"><a xlink:title=" ">
<path fill="none" stroke="#63b8ff" d="M271.2,-867.05C279.95,-800.7 293.26,-706.23 308,-624 308.32,-622.22 308.64,-620.43 308.97,-618.63"/>
<polygon fill="none" stroke="#63b8ff" points="308.99,-618.49 306.14,-611.87 311.16,-606.69 314.01,-613.31 308.99,-618.49"/>
</a>
</g>
<text text-anchor="middle" x="319.25" y="-732.62" font-family="Helvetica,sans-Serif" font-size="10.00" fill="grey"> +reg</text>
</g>
<!-- Node4 -->
<g id="Node000004" class="node">
<title>Node4</title>
<g id="a_Node000004"><a xlink:title=" ">
<polygon fill="white" stroke="none" points="252.25,-1259.38 140.75,-1259.38 140.75,-1198.38 252.25,-1198.38 252.25,-1259.38"/>
<text text-anchor="start" x="144.75" y="-1245.88" font-family="Helvetica,sans-Serif" font-size="10.00">unordered_map&lt; std</text>
<text text-anchor="start" x="144.75" y="-1234.62" font-family="Helvetica,sans-Serif" font-size="10.00">::type_index, std::any &gt;</text>
<text text-anchor="start" x="195" y="-1219.38" font-family="Helvetica,sans-Serif" font-size="10.00"> </text>
<text text-anchor="start" x="195" y="-1204.12" font-family="Helvetica,sans-Serif" font-size="10.00"> </text>
<polygon fill="#666666" stroke="#666666" points="140.75,-1230.88 140.75,-1230.88 252.25,-1230.88 252.25,-1230.88 140.75,-1230.88"/>
<polygon fill="#666666" stroke="#666666" points="140.75,-1215.62 140.75,-1215.62 252.25,-1215.62 252.25,-1215.62 140.75,-1215.62"/>
<polygon fill="none" stroke="#666666" points="140.75,-1198.38 140.75,-1259.38 252.25,-1259.38 252.25,-1198.38 140.75,-1198.38"/>
</a>
</g>
</g>
<!-- Node4&#45;&gt;Node3 -->
<g id="edge3_Node000003_Node000004" class="edge">
<title>Node4&#45;&gt;Node3</title>
<g id="a_edge3_Node000003_Node000004"><a xlink:title=" ">
<path fill="none" stroke="#63b8ff" d="M196,-1198.56C196.12,-1164.04 198.55,-1105.24 211.75,-1056.75 212.29,-1054.78 212.86,-1052.8 213.46,-1050.81"/>
<polygon fill="none" stroke="#63b8ff" points="213.46,-1050.83 211.57,-1043.87 217.27,-1039.46 219.16,-1046.42 213.46,-1050.83"/>
</a>
</g>
<text text-anchor="middle" x="260.12" y="-1064.12" font-family="Helvetica,sans-Serif" font-size="10.00" fill="grey"> &#45;_components_arrays</text>
</g>
<!-- Node5 -->
<g id="Node000005" class="node">
<title>Node5</title>
<g id="a_Node000005"><a xlink:title=" ">
<polygon fill="white" stroke="none" points="391.12,-1270.62 269.88,-1270.62 269.88,-1187.12 391.12,-1187.12 391.12,-1270.62"/>
<text text-anchor="start" x="273.88" y="-1257.12" font-family="Helvetica,sans-Serif" font-size="10.00">unordered_map&lt; std</text>
<text text-anchor="start" x="273.88" y="-1245.88" font-family="Helvetica,sans-Serif" font-size="10.00">::type_index, std::function</text>
<text text-anchor="start" x="273.88" y="-1234.62" font-family="Helvetica,sans-Serif" font-size="10.00">&lt; void(registry &amp;, Entity</text>
<text text-anchor="start" x="303.12" y="-1223.38" font-family="Helvetica,sans-Serif" font-size="10.00"> const &amp;)&gt; &gt;</text>
<text text-anchor="start" x="329" y="-1208.12" font-family="Helvetica,sans-Serif" font-size="10.00"> </text>
<text text-anchor="start" x="329" y="-1192.88" font-family="Helvetica,sans-Serif" font-size="10.00"> </text>
<polygon fill="#666666" stroke="#666666" points="269.88,-1219.62 269.88,-1219.62 391.12,-1219.62 391.12,-1219.62 269.88,-1219.62"/>
<polygon fill="#666666" stroke="#666666" points="269.88,-1204.38 269.88,-1204.38 391.12,-1204.38 391.12,-1204.38 269.88,-1204.38"/>
<polygon fill="none" stroke="#666666" points="269.88,-1187.12 269.88,-1270.62 391.12,-1270.62 391.12,-1187.12 269.88,-1187.12"/>
</a>
</g>
</g>
<!-- Node5&#45;&gt;Node3 -->
<g id="edge4_Node000003_Node000005" class="edge">
<title>Node5&#45;&gt;Node3</title>
<g id="a_edge4_Node000003_Node000005"><a xlink:title=" ">
<path fill="none" stroke="#63b8ff" d="M328.81,-1187.4C326.52,-1152.26 321.14,-1100.33 308.5,-1056.75 307.93,-1054.79 307.33,-1052.83 306.7,-1050.86"/>
<polygon fill="none" stroke="#63b8ff" points="306.72,-1050.9 300.98,-1046.53 302.8,-1039.56 308.54,-1043.92 306.72,-1050.9"/>
</a>
</g>
<text text-anchor="middle" x="353.36" y="-1064.12" font-family="Helvetica,sans-Serif" font-size="10.00" fill="grey"> &#45;_erase_functions</text>
</g>
<!-- Node6 -->
<g id="Node000006" class="node">
<title>Node6</title>
<g id="a_Node000006"><a xlink:title=" ">
<polygon fill="white" stroke="none" points="487.75,-1253.75 409.25,-1253.75 409.25,-1204 487.75,-1204 487.75,-1253.75"/>
<text text-anchor="start" x="413.25" y="-1240.25" font-family="Helvetica,sans-Serif" font-size="10.00">vector&lt; Entity &gt;</text>
<text text-anchor="start" x="447" y="-1225" font-family="Helvetica,sans-Serif" font-size="10.00"> </text>
<text text-anchor="start" x="447" y="-1209.75" font-family="Helvetica,sans-Serif" font-size="10.00"> </text>
<polygon fill="#666666" stroke="#666666" points="409.25,-1236.5 409.25,-1236.5 487.75,-1236.5 487.75,-1236.5 409.25,-1236.5"/>
<polygon fill="#666666" stroke="#666666" points="409.25,-1221.25 409.25,-1221.25 487.75,-1221.25 487.75,-1221.25 409.25,-1221.25"/>
<polygon fill="none" stroke="#666666" points="409.25,-1204 409.25,-1253.75 487.75,-1253.75 487.75,-1204 409.25,-1204"/>
</a>
</g>
</g>
<!-- Node6&#45;&gt;Node3 -->
<g id="edge5_Node000003_Node000006" class="edge">
<title>Node6&#45;&gt;Node3</title>
<g id="a_edge5_Node000003_Node000006"><a xlink:title=" ">
<path fill="none" stroke="#63b8ff" d="M448.42,-1204.27C446.96,-1167.41 438.59,-1096.31 397.5,-1056.75 376.8,-1036.82 358.66,-1052.17 328.59,-1037.77"/>
<polygon fill="none" stroke="#63b8ff" points="328.6,-1037.78 321.4,-1038.24 318.21,-1031.78 325.4,-1031.31 328.6,-1037.78"/>
</a>
</g>
<text text-anchor="middle" x="436.84" y="-1064.12" font-family="Helvetica,sans-Serif" font-size="10.00" fill="grey"> &#45;_entities</text>
</g>
<!-- Node7 -->
<g id="Node000007" class="node">
<title>Node7</title>
<g id="a_Node000007"><a xlink:title=" ">
<polygon fill="white" stroke="none" points="371,-977.75 336,-977.75 336,-928 371,-928 371,-977.75"/>
<text text-anchor="start" x="340" y="-964.25" font-family="Helvetica,sans-Serif" font-size="10.00">thread</text>
<text text-anchor="start" x="352" y="-949" font-family="Helvetica,sans-Serif" font-size="10.00"> </text>
<text text-anchor="start" x="352" y="-933.75" font-family="Helvetica,sans-Serif" font-size="10.00"> </text>
<polygon fill="#666666" stroke="#666666" points="336,-960.5 336,-960.5 371,-960.5 371,-960.5 336,-960.5"/>
<polygon fill="#666666" stroke="#666666" points="336,-945.25 336,-945.25 371,-945.25 371,-945.25 336,-945.25"/>
<polygon fill="none" stroke="#666666" points="336,-928 336,-977.75 371,-977.75 371,-928 336,-928"/>
</a>
</g>
</g>
<!-- Node7&#45;&gt;Node1 -->
<g id="edge6_Node000001_Node000007" class="edge">
<title>Node7&#45;&gt;Node1</title>
<g id="a_edge6_Node000001_Node000007"><a xlink:title=" ">
<path fill="none" stroke="#63b8ff" d="M349.36,-928.27C345.94,-907.48 341.35,-876.34 339.5,-849 332.74,-749.23 333.75,-723.83 339.5,-624 339.6,-622.22 339.71,-620.43 339.82,-618.64"/>
<polygon fill="none" stroke="#63b8ff" points="339.81,-618.7 336.21,-612.46 340.58,-606.73 344.19,-612.97 339.81,-618.7"/>
</a>
</g>
<text text-anchor="middle" x="366.5" y="-732.62" font-family="Helvetica,sans-Serif" font-size="10.00" fill="grey"> +io_thread_</text>
</g>
<!-- Node8 -->
<g id="Node000008" class="node">
<title>Node8</title>
<g id="a_Node000008"><a xlink:title=" ">
<polygon fill="white" stroke="none" points="442,-977.75 389,-977.75 389,-928 442,-928 442,-977.75"/>
<text text-anchor="start" x="393" y="-964.25" font-family="Helvetica,sans-Serif" font-size="10.00">io_context</text>
<text text-anchor="start" x="414" y="-949" font-family="Helvetica,sans-Serif" font-size="10.00"> </text>
<text text-anchor="start" x="414" y="-933.75" font-family="Helvetica,sans-Serif" font-size="10.00"> </text>
<polygon fill="#666666" stroke="#666666" points="389,-960.5 389,-960.5 442,-960.5 442,-960.5 389,-960.5"/>
<polygon fill="#666666" stroke="#666666" points="389,-945.25 389,-945.25 442,-945.25 442,-945.25 389,-945.25"/>
<polygon fill="none" stroke="#666666" points="389,-928 389,-977.75 442,-977.75 442,-928 389,-928"/>
</a>
</g>
</g>
<!-- Node8&#45;&gt;Node1 -->
<g id="edge7_Node000001_Node000008" class="edge">
<title>Node8&#45;&gt;Node1</title>
<g id="a_edge7_Node000001_Node000008"><a xlink:title=" ">
<path fill="none" stroke="#63b8ff" d="M414.07,-928.05C410.93,-875.96 403.13,-746.38 395.44,-618.71"/>
<polygon fill="none" stroke="#63b8ff" points="395.45,-618.84 391.1,-613.1 394.73,-606.87 399.08,-612.61 395.45,-618.84"/>
</a>
</g>
<text text-anchor="middle" x="438.59" y="-732.62" font-family="Helvetica,sans-Serif" font-size="10.00" fill="grey"> +io_context_</text>
</g>
<!-- Node9 -->
<g id="Node000009" class="node">
<title>Node9</title>
<g id="a_Node000009"><a xlink:title=" ">
<polygon fill="white" stroke="none" points="557.12,-983.38 459.88,-983.38 459.88,-922.38 557.12,-922.38 557.12,-983.38"/>
<text text-anchor="start" x="463.88" y="-969.88" font-family="Helvetica,sans-Serif" font-size="10.00">unique_ptr&lt; boost::</text>
<text text-anchor="start" x="463.88" y="-958.62" font-family="Helvetica,sans-Serif" font-size="10.00">asio::steady_timer &gt;</text>
<text text-anchor="start" x="507" y="-943.38" font-family="Helvetica,sans-Serif" font-size="10.00"> </text>
<text text-anchor="start" x="507" y="-928.12" font-family="Helvetica,sans-Serif" font-size="10.00"> </text>
<polygon fill="#666666" stroke="#666666" points="459.88,-954.88 459.88,-954.88 557.12,-954.88 557.12,-954.88 459.88,-954.88"/>
<polygon fill="#666666" stroke="#666666" points="459.88,-939.62 459.88,-939.62 557.12,-939.62 557.12,-939.62 459.88,-939.62"/>
<polygon fill="none" stroke="#666666" points="459.88,-922.38 459.88,-983.38 557.12,-983.38 557.12,-922.38 459.88,-922.38"/>
</a>
</g>
</g>
<!-- Node9&#45;&gt;Node1 -->
<g id="edge8_Node000001_Node000009" class="edge">
<title>Node9&#45;&gt;Node1</title>
<g id="a_edge8_Node000001_Node000009"><a xlink:title=" ">
<path fill="none" stroke="#63b8ff" d="M505.98,-922.6C499.89,-853.33 484.06,-680.89 472.5,-624 466.23,-593.14 458.3,-560.98 449.7,-529.45"/>
<polygon fill="none" stroke="#63b8ff" points="449.68,-529.37 444.23,-524.65 446.48,-517.8 451.94,-522.52 449.68,-529.37"/>
</a>
</g>
<text text-anchor="middle" x="540.14" y="-839.5" font-family="Helvetica,sans-Serif" font-size="10.00" fill="grey"> +collision_timer_</text>
<text text-anchor="start" x="499.26" y="-828.25" font-family="Helvetica,sans-Serif" font-size="10.00" fill="grey">+conciliation_timer</text>
<text text-anchor="middle" x="540.14" y="-817" font-family="Helvetica,sans-Serif" font-size="10.00" fill="grey">_</text>
<text text-anchor="start" x="499.26" y="-805.75" font-family="Helvetica,sans-Serif" font-size="10.00" fill="grey">+game_over_timer</text>
<text text-anchor="middle" x="540.14" y="-794.5" font-family="Helvetica,sans-Serif" font-size="10.00" fill="grey">_</text>
<text text-anchor="middle" x="540.14" y="-783.25" font-family="Helvetica,sans-Serif" font-size="10.00" fill="grey">+ia_timer_</text>
<text text-anchor="start" x="499.26" y="-772" font-family="Helvetica,sans-Serif" font-size="10.00" fill="grey">+invincible_timer</text>
<text text-anchor="middle" x="540.14" y="-760.75" font-family="Helvetica,sans-Serif" font-size="10.00" fill="grey">_</text>
<text text-anchor="start" x="499.26" y="-749.5" font-family="Helvetica,sans-Serif" font-size="10.00" fill="grey">+player_ia_timer</text>
<text text-anchor="middle" x="540.14" y="-738.25" font-family="Helvetica,sans-Serif" font-size="10.00" fill="grey">_</text>
<text text-anchor="start" x="499.26" y="-727" font-family="Helvetica,sans-Serif" font-size="10.00" fill="grey">+position_timer</text>
<text text-anchor="middle" x="540.14" y="-715.75" font-family="Helvetica,sans-Serif" font-size="10.00" fill="grey">_</text>
<text text-anchor="start" x="499.26" y="-704.5" font-family="Helvetica,sans-Serif" font-size="10.00" fill="grey">+powerup_timer</text>
<text text-anchor="middle" x="540.14" y="-693.25" font-family="Helvetica,sans-Serif" font-size="10.00" fill="grey">_</text>
<text text-anchor="start" x="499.26" y="-682" font-family="Helvetica,sans-Serif" font-size="10.00" fill="grey">+spawn_timer</text>
<text text-anchor="middle" x="540.14" y="-670.75" font-family="Helvetica,sans-Serif" font-size="10.00" fill="grey">_</text>
<text text-anchor="start" x="499.26" y="-659.5" font-family="Helvetica,sans-Serif" font-size="10.00" fill="grey">+triple_shot</text>
<text text-anchor="start" x="499.26" y="-648.25" font-family="Helvetica,sans-Serif" font-size="10.00" fill="grey">_expiration_timer</text>
<text text-anchor="middle" x="540.14" y="-637" font-family="Helvetica,sans-Serif" font-size="10.00" fill="grey">_</text>
<text text-anchor="middle" x="540.14" y="-625.75" font-family="Helvetica,sans-Serif" font-size="10.00" fill="grey">...</text>
</g>
<!-- Node10&#45;&gt;Node1 -->
<g id="edge9_Node000001_Node000010" class="edge">
<title>Node10&#45;&gt;Node1</title>
<g id="a_edge9_Node000001_Node000010"><a xlink:title=" ">
<path fill="none" stroke="#63b8ff" d="M153.34,-897.73C172.82,-832.32 207.64,-719.22 242.75,-624 260.74,-575.2 281.82,-522.9 301.85,-475.02"/>
<polygon fill="none" stroke="#63b8ff" points="301.79,-475.17 300.43,-468.09 306.44,-464.1 307.8,-471.18 301.79,-475.17"/>
</a>
</g>
<text text-anchor="middle" x="256.62" y="-732.62" font-family="Helvetica,sans-Serif" font-size="10.00" fill="grey"> +med</text>
</g>
<!-- Node11 -->
<g id="Node000011" class="node">
<title>Node11</title>
<g id="a_Node000011"><a xlink:title=" ">
<polygon fill="white" stroke="none" points="632.25,-977.75 574.75,-977.75 574.75,-928 632.25,-928 632.25,-977.75"/>
<text text-anchor="start" x="578.75" y="-964.25" font-family="Helvetica,sans-Serif" font-size="10.00">GameState</text>
<text text-anchor="start" x="602" y="-949" font-family="Helvetica,sans-Serif" font-size="10.00"> </text>
<text text-anchor="start" x="602" y="-933.75" font-family="Helvetica,sans-Serif" font-size="10.00"> </text>
<polygon fill="#666666" stroke="#666666" points="574.75,-960.5 574.75,-960.5 632.25,-960.5 632.25,-960.5 574.75,-960.5"/>
<polygon fill="#666666" stroke="#666666" points="574.75,-945.25 574.75,-945.25 632.25,-945.25 632.25,-945.25 574.75,-945.25"/>
<polygon fill="none" stroke="#666666" points="574.75,-928 574.75,-977.75 632.25,-977.75 632.25,-928 574.75,-928"/>
</a>
</g>
</g>
<!-- Node11&#45;&gt;Node1 -->
<g id="edge11_Node000001_Node000011" class="edge">
<title>Node11&#45;&gt;Node1</title>
<g id="a_edge11_Node000001_Node000011"><a xlink:title=" ">
<path fill="none" stroke="#63b8ff" d="M605.86,-928.06C610.49,-872.92 617.4,-732.91 581.5,-624 554.02,-540.63 499.73,-457.48 453.92,-396.84"/>
<polygon fill="none" stroke="#63b8ff" points="453.89,-396.8 447.07,-394.46 446.61,-387.26 453.43,-389.6 453.89,-396.8"/>
</a>
</g>
<text text-anchor="middle" x="625.02" y="-732.62" font-family="Helvetica,sans-Serif" font-size="10.00" fill="grey"> +state</text>
</g>
<!-- Node12 -->
<g id="Node000012" class="node">
<title>Node12</title>
<g id="a_Node000012"><a xlink:title=" ">
<polygon fill="white" stroke="none" points="680.38,-977.75 650.62,-977.75 650.62,-928 680.38,-928 680.38,-977.75"/>
<text text-anchor="start" x="654.62" y="-964.25" font-family="Helvetica,sans-Serif" font-size="10.00">state</text>
<text text-anchor="start" x="664" y="-949" font-family="Helvetica,sans-Serif" font-size="10.00"> </text>
<text text-anchor="start" x="664" y="-933.75" font-family="Helvetica,sans-Serif" font-size="10.00"> </text>
<polygon fill="#666666" stroke="#666666" points="650.62,-960.5 650.62,-960.5 680.38,-960.5 680.38,-960.5 650.62,-960.5"/>
<polygon fill="#666666" stroke="#666666" points="650.62,-945.25 650.62,-945.25 680.38,-945.25 680.38,-945.25 650.62,-945.25"/>
<polygon fill="none" stroke="#666666" points="650.62,-928 650.62,-977.75 680.38,-977.75 680.38,-928 650.62,-928"/>
</a>
</g>
</g>
<!-- Node12&#45;&gt;Node1 -->
<g id="edge12_Node000001_Node000012" class="edge">
<title>Node12&#45;&gt;Node1</title>
<g id="a_edge12_Node000001_Node000012"><a xlink:title=" ">
<path fill="none" stroke="#63b8ff" d="M668.75,-928.13C675.34,-872.57 686.27,-730.71 643.5,-624 603.24,-523.55 518.88,-431.24 455.7,-371.85"/>
<polygon fill="none" stroke="#63b8ff" points="455.59,-371.75 448.47,-370.6 446.8,-363.58 453.92,-364.74 455.59,-371.75"/>
</a>
</g>
<text text-anchor="middle" x="685.92" y="-732.62" font-family="Helvetica,sans-Serif" font-size="10.00" fill="grey"> +lua</text>
</g>
</g>
</svg>

<g id="navigator" transform="translate(0 0)" fill="#404254">
  <rect fill="#f2f5e9" fill-opacity="0.5" stroke="#606060" stroke-width=".5" x="0" y="0" width="60" height="60"/>
  <use id="zoomplus" xlink:href="#zoomPlus" x="17" y="9" onmousedown="handleZoom(evt,'in')"/>
  <use id="zoomminus" xlink:href="#zoomMin" x="42" y="9" onmousedown="handleZoom(evt,'out')"/>
  <use id="reset" xlink:href="#resetDef" x="30" y="36" onmousedown="handleReset()"/>
   <use id="arrowup" xlink:href="#arrowUp" x="0" y="0" onmousedown="handlePan(0,-1)"/>
  <use id="arrowright" xlink:href="#arrowRight" x="0" y="0" onmousedown="handlePan(1,0)"/>
  <use id="arrowdown" xlink:href="#arrowDown" x="0" y="0" onmousedown="handlePan(0,1)"/>
  <use id="arrowleft" xlink:href="#arrowLeft" x="0" y="0" onmousedown="handlePan(-1,0)"/>
</g>
<svg viewBox="0 0 15 15" width="100%" height="30px" preserveAspectRatio="xMaxYMin meet">
 <g id="arrow_out" transform="scale(0.3 0.3)">
  <a xlink:href="class_server_game__coll__graph_org.svg" target="_base">
   <rect id="button" ry="5" rx="5" y="6" x="6" height="38" width="38"
        fill="#f2f5e9" fill-opacity="0.5" stroke="#606060" stroke-width="1.0"/>
   <path id="arrow"
     d="M 11.500037,31.436501 C 11.940474,20.09759 22.043105,11.32322 32.158766,21.979434 L 37.068811,17.246167 C 37.068811,17.246167 37.088388,32 37.088388,32 L 22.160133,31.978069 C 22.160133,31.978069 26.997745,27.140456 26.997745,27.140456 C 18.528582,18.264221 13.291696,25.230495 11.500037,31.436501 z"
     style="fill:#404040;"/>
  </a>
 </g>
</svg>

<style type='text/css'>
<![CDATA[
[data-mouse-over-selected='false'] { opacity: 0.7; }
[data-mouse-over-selected='true']  { opacity: 1.0; }
]]>
</style>
<script type="application/ecmascript"><![CDATA[
document.addEventListener('DOMContentLoaded', (event) => {
  highlightEdges();
  highlightAdjacentNodes();
});
]]></script>
</svg>
