<?xml version="1.0" encoding="UTF-8" standalone="no"?>
<!DOCTYPE svg PUBLIC "-//W3C//DTD SVG 1.1//EN"
 "http://www.w3.org/Graphics/SVG/1.1/DTD/svg11.dtd">
<!-- Generated by graphviz version 12.2.1 (20241206.2353)
 -->
<!-- Title: Core::control_system Pages: 1 -->
<svg width="593pt" height="224pt"
 viewBox="0.00 0.00 593.25 224.25" xmlns="http://www.w3.org/2000/svg" xmlns:xlink="http://www.w3.org/1999/xlink">
<g id="graph0" class="graph" transform="scale(1 1) rotate(0) translate(4 220.25)">
<title>Core::control_system</title>
<!-- Node1 -->
<g id="Node000001" class="node">
<title>Node1</title>
<g id="a_Node000001"><a xlink:title=" ">
<polygon fill="#999999" stroke="#666666" points="109.75,-163.25 0,-163.25 0,-144 109.75,-144 109.75,-163.25"/>
<text text-anchor="middle" x="54.88" y="-149.75" font-family="Helvetica,sans-Serif" font-size="10.00">Core::control_system</text>
</a>
</g>
</g>
<!-- Node2 -->
<g id="Node000002" class="node">
<title>Node2</title>
<g id="a_Node000002"><a xlink:href="class_core.html#a63200a1cc9505da6942f9bd7642df237" target="_top" xlink:title=" ">
<polygon fill="white" stroke="#666666" points="264.5,-211.88 145.75,-211.88 145.75,-181.38 264.5,-181.38 264.5,-211.88"/>
<text text-anchor="start" x="153.75" y="-198.38" font-family="Helvetica,sans-Serif" font-size="10.00">Core::handle_horizontal</text>
<text text-anchor="middle" x="205.12" y="-187.12" font-family="Helvetica,sans-Serif" font-size="10.00">_movement</text>
</a>
</g>
</g>
<!-- Node1&#45;&gt;Node2 -->
<g id="edge1_Node000001_Node000002" class="edge">
<title>Node1&#45;&gt;Node2</title>
<g id="a_edge1_Node000001_Node000002"><a xlink:title=" ">
<path fill="none" stroke="#63b8ff" d="M90.63,-163.71C105.1,-167.9 122.37,-172.91 139.03,-177.75"/>
<polygon fill="#63b8ff" stroke="#63b8ff" points="137.82,-181.04 148.4,-180.46 139.77,-174.32 137.82,-181.04"/>
</a>
</g>
</g>
<!-- Node6 -->
<g id="Node000006" class="node">
<title>Node6</title>
<g id="a_Node000006"><a xlink:href="class_core.html#ac8463d54a65aacc36654e1dcd96166b9" target="_top" xlink:title=" ">
<polygon fill="white" stroke="#666666" points="255.5,-163.25 154.75,-163.25 154.75,-144 255.5,-144 255.5,-163.25"/>
<text text-anchor="middle" x="205.12" y="-149.75" font-family="Helvetica,sans-Serif" font-size="10.00">Core::handle_shoot</text>
</a>
</g>
</g>
<!-- Node1&#45;&gt;Node6 -->
<g id="edge6_Node000001_Node000006" class="edge">
<title>Node1&#45;&gt;Node6</title>
<g id="a_edge6_Node000001_Node000006"><a xlink:title=" ">
<path fill="none" stroke="#63b8ff" d="M110.24,-153.62C121.03,-153.62 132.43,-153.62 143.42,-153.62"/>
<polygon fill="#63b8ff" stroke="#63b8ff" points="143.17,-157.13 153.17,-153.63 143.17,-150.13 143.17,-157.13"/>
</a>
</g>
</g>
<!-- Node7 -->
<g id="Node000007" class="node">
<title>Node7</title>
<g id="a_Node000007"><a xlink:href="class_core.html#a7a1438f7b147b90acbe4130458a3048c" target="_top" xlink:title=" ">
<polygon fill="white" stroke="#666666" points="259.25,-116.88 151,-116.88 151,-86.38 259.25,-86.38 259.25,-116.88"/>
<text text-anchor="start" x="159" y="-103.38" font-family="Helvetica,sans-Serif" font-size="10.00">Core::handle_vertical</text>
<text text-anchor="middle" x="205.12" y="-92.12" font-family="Helvetica,sans-Serif" font-size="10.00">_movement</text>
</a>
</g>
</g>
<!-- Node1&#45;&gt;Node7 -->
<g id="edge8_Node000001_Node000007" class="edge">
<title>Node1&#45;&gt;Node7</title>
<g id="a_edge8_Node000001_Node000007"><a xlink:title=" ">
<path fill="none" stroke="#63b8ff" d="M84.46,-143.6C102.6,-137.24 126.68,-128.79 148.48,-121.14"/>
<polygon fill="#63b8ff" stroke="#63b8ff" points="149.59,-124.46 157.86,-117.85 147.27,-117.86 149.59,-124.46"/>
</a>
</g>
</g>
<!-- Node3 -->
<g id="Node000003" class="node">
<title>Node3</title>
<g id="a_Node000003"><a xlink:href="class_core.html#a5bf4669d69fe8e52f0c41dff71c2c592" target="_top" xlink:title=" ">
<polygon fill="white" stroke="#666666" points="443.25,-216.25 300.5,-216.25 300.5,-197 443.25,-197 443.25,-216.25"/>
<text text-anchor="middle" x="371.88" y="-202.75" font-family="Helvetica,sans-Serif" font-size="10.00">Core::handle_horizontal_stop</text>
</a>
</g>
</g>
<!-- Node2&#45;&gt;Node3 -->
<g id="edge2_Node000002_Node000003" class="edge">
<title>Node2&#45;&gt;Node3</title>
<g id="a_edge2_Node000002_Node000003"><a xlink:title=" ">
<path fill="none" stroke="#63b8ff" d="M264.67,-200.18C272.47,-200.65 280.58,-201.14 288.68,-201.64"/>
<polygon fill="#63b8ff" stroke="#63b8ff" points="288.4,-205.13 298.59,-202.24 288.82,-198.14 288.4,-205.13"/>
</a>
</g>
</g>
<!-- Node5 -->
<g id="Node000005" class="node">
<title>Node5</title>
<g id="a_Node000005"><a xlink:href="class_core.html#a76ad333a648e0e20b1b12fb5a416774c" target="_top" xlink:title=" ">
<polygon fill="white" stroke="#666666" points="422.25,-178.88 321.5,-178.88 321.5,-148.38 422.25,-148.38 422.25,-178.88"/>
<text text-anchor="start" x="329.5" y="-165.38" font-family="Helvetica,sans-Serif" font-size="10.00">Core::send_input_if</text>
<text text-anchor="middle" x="371.88" y="-154.12" font-family="Helvetica,sans-Serif" font-size="10.00">_needed</text>
</a>
</g>
</g>
<!-- Node2&#45;&gt;Node5 -->
<g id="edge4_Node000002_Node000005" class="edge">
<title>Node2&#45;&gt;Node5</title>
<g id="a_edge4_Node000002_Node000005"><a xlink:title=" ">
<path fill="none" stroke="#63b8ff" d="M264.67,-184.9C279.41,-181.94 295.27,-178.77 310.11,-175.8"/>
<polygon fill="#63b8ff" stroke="#63b8ff" points="310.63,-179.26 319.75,-173.87 309.26,-172.4 310.63,-179.26"/>
</a>
</g>
</g>
<!-- Node4 -->
<g id="Node000004" class="node">
<title>Node4</title>
<g id="a_Node000004"><a xlink:href="class_core.html#aad563284176b829fa64177092388ef31" target="_top" xlink:title=" ">
<polygon fill="white" stroke="#666666" points="585.25,-173.25 479.25,-173.25 479.25,-154 585.25,-154 585.25,-173.25"/>
<text text-anchor="middle" x="532.25" y="-159.75" font-family="Helvetica,sans-Serif" font-size="10.00">Core::encode_action</text>
</a>
</g>
</g>
<!-- Node3&#45;&gt;Node4 -->
<g id="edge3_Node000003_Node000004" class="edge">
<title>Node3&#45;&gt;Node4</title>
<g id="a_edge3_Node000003_Node000004"><a xlink:title=" ">
<path fill="none" stroke="#63b8ff" d="M410.13,-196.58C420.83,-193.7 432.5,-190.54 443.25,-187.62 456.25,-184.1 470.33,-180.26 483.34,-176.72"/>
<polygon fill="#63b8ff" stroke="#63b8ff" points="484.25,-180.1 492.97,-174.09 482.41,-173.34 484.25,-180.1"/>
</a>
</g>
</g>
<!-- Node5&#45;&gt;Node4 -->
<g id="edge5_Node000005_Node000004" class="edge">
<title>Node5&#45;&gt;Node4</title>
<g id="a_edge5_Node000005_Node000004"><a xlink:title=" ">
<path fill="none" stroke="#63b8ff" d="M422.55,-163.62C436.86,-163.62 452.68,-163.62 467.71,-163.62"/>
<polygon fill="#63b8ff" stroke="#63b8ff" points="467.5,-167.13 477.5,-163.63 467.5,-160.13 467.5,-167.13"/>
</a>
</g>
</g>
<!-- Node6&#45;&gt;Node5 -->
<g id="edge7_Node000006_Node000005" class="edge">
<title>Node6&#45;&gt;Node5</title>
<g id="a_edge7_Node000006_Node000005"><a xlink:title=" ">
<path fill="none" stroke="#63b8ff" d="M255.56,-156.63C272.58,-157.66 291.86,-158.83 309.71,-159.91"/>
<polygon fill="#63b8ff" stroke="#63b8ff" points="309.49,-163.41 319.68,-160.52 309.91,-156.42 309.49,-163.41"/>
</a>
</g>
</g>
<!-- Node7&#45;&gt;Node5 -->
<g id="edge17_Node000007_Node000005" class="edge">
<title>Node7&#45;&gt;Node5</title>
<g id="a_edge17_Node000007_Node000005"><a xlink:title=" ">
<path fill="none" stroke="#63b8ff" d="M243.6,-117.26C260.85,-124.31 281.62,-132.61 300.5,-139.62 304.6,-141.15 308.85,-142.69 313.14,-144.22"/>
<polygon fill="#63b8ff" stroke="#63b8ff" points="311.79,-147.45 322.38,-147.47 314.11,-140.85 311.79,-147.45"/>
</a>
</g>
</g>
<!-- Node8 -->
<g id="Node000008" class="node">
<title>Node8</title>
<g id="a_Node000008"><a xlink:href="class_core.html#a1ae796fe1ad262de4484a8838fa53c48" target="_top" xlink:title=" ">
<polygon fill="white" stroke="#666666" points="424.88,-93.25 318.88,-93.25 318.88,-74 424.88,-74 424.88,-93.25"/>
<text text-anchor="middle" x="371.88" y="-79.75" font-family="Helvetica,sans-Serif" font-size="10.00">Core::animate_down</text>
</a>
</g>
</g>
<!-- Node7&#45;&gt;Node8 -->
<g id="edge9_Node000007_Node000008" class="edge">
<title>Node7&#45;&gt;Node8</title>
<g id="a_edge9_Node000007_Node000008"><a xlink:title=" ">
<path fill="none" stroke="#63b8ff" d="M259.61,-95.78C274.81,-94.12 291.51,-92.3 307.24,-90.58"/>
<polygon fill="#63b8ff" stroke="#63b8ff" points="307.43,-94.08 316.99,-89.51 306.67,-87.12 307.43,-94.08"/>
</a>
</g>
</g>
<!-- Node10 -->
<g id="Node000010" class="node">
<title>Node10</title>
<g id="a_Node000010"><a xlink:href="class_core.html#a5c24c3d1aa2061ee09283ffe7943e256" target="_top" xlink:title=" ">
<polygon fill="white" stroke="#666666" points="434.62,-56.25 309.12,-56.25 309.12,-37 434.62,-37 434.62,-56.25"/>
<text text-anchor="middle" x="371.88" y="-42.75" font-family="Helvetica,sans-Serif" font-size="10.00">Core::animate_to_neutral</text>
</a>
</g>
</g>
<!-- Node7&#45;&gt;Node10 -->
<g id="edge11_Node000007_Node000010" class="edge">
<title>Node7&#45;&gt;Node10</title>
<g id="a_edge11_Node000007_Node000010"><a xlink:title=" ">
<path fill="none" stroke="#63b8ff" d="M242.95,-85.97C260.24,-78.94 281.24,-70.84 300.5,-64.62 305.84,-62.9 311.45,-61.24 317.07,-59.66"/>
<polygon fill="#63b8ff" stroke="#63b8ff" points="317.64,-63.13 326.37,-57.13 315.81,-56.37 317.64,-63.13"/>
</a>
</g>
</g>
<!-- Node11 -->
<g id="Node000011" class="node">
<title>Node11</title>
<g id="a_Node000011"><a xlink:href="class_core.html#a32360bca0d21983d2d9b920229144fab" target="_top" xlink:title=" ">
<polygon fill="white" stroke="#666666" points="418.5,-19.25 325.25,-19.25 325.25,0 418.5,0 418.5,-19.25"/>
<text text-anchor="middle" x="371.88" y="-5.75" font-family="Helvetica,sans-Serif" font-size="10.00">Core::animate_up</text>
</a>
</g>
</g>
<!-- Node7&#45;&gt;Node11 -->
<g id="edge13_Node000007_Node000011" class="edge">
<title>Node7&#45;&gt;Node11</title>
<g id="a_edge13_Node000007_Node000011"><a xlink:title=" ">
<path fill="none" stroke="#63b8ff" d="M221.74,-85.98C239.38,-69.16 269.68,-42.81 300.5,-27.62 304.76,-25.52 309.3,-23.65 313.93,-21.99"/>
<polygon fill="#63b8ff" stroke="#63b8ff" points="314.95,-25.34 323.39,-18.93 312.8,-18.67 314.95,-25.34"/>
</a>
</g>
</g>
<!-- Node12 -->
<g id="Node000012" class="node">
<title>Node12</title>
<g id="a_Node000012"><a xlink:href="class_core.html#a358f46d664d8eaa3680ec8de58a0fa1e" target="_top" xlink:title=" ">
<polygon fill="white" stroke="#666666" points="438,-130.25 305.75,-130.25 305.75,-111 438,-111 438,-130.25"/>
<text text-anchor="middle" x="371.88" y="-116.75" font-family="Helvetica,sans-Serif" font-size="10.00">Core::handle_vertical_stop</text>
</a>
</g>
</g>
<!-- Node7&#45;&gt;Node12 -->
<g id="edge15_Node000007_Node000012" class="edge">
<title>Node7&#45;&gt;Node12</title>
<g id="a_edge15_Node000007_Node000012"><a xlink:title=" ">
<path fill="none" stroke="#63b8ff" d="M259.61,-107.79C270.65,-109.07 282.48,-110.43 294.16,-111.78"/>
<polygon fill="#63b8ff" stroke="#63b8ff" points="293.43,-115.22 303.77,-112.89 294.24,-108.26 293.43,-115.22"/>
</a>
</g>
</g>
<!-- Node9 -->
<g id="Node000009" class="node">
<title>Node9</title>
<g id="a_Node000009"><a xlink:href="class_core.html#ae37ec3409102a80e9958b8c2910f16ef" target="_top" xlink:title=" ">
<polygon fill="white" stroke="#666666" points="583,-61.88 481.5,-61.88 481.5,-31.38 583,-31.38 583,-61.88"/>
<text text-anchor="start" x="489.5" y="-48.38" font-family="Helvetica,sans-Serif" font-size="10.00">Core::update_sprite</text>
<text text-anchor="middle" x="532.25" y="-37.12" font-family="Helvetica,sans-Serif" font-size="10.00">_frame</text>
</a>
</g>
</g>
<!-- Node8&#45;&gt;Node9 -->
<g id="edge10_Node000008_Node000009" class="edge">
<title>Node8&#45;&gt;Node9</title>
<g id="a_edge10_Node000008_Node000009"><a xlink:title=" ">
<path fill="none" stroke="#63b8ff" d="M416.15,-73.51C432.76,-69.63 452.05,-65.13 470.03,-60.93"/>
<polygon fill="#63b8ff" stroke="#63b8ff" points="470.6,-64.39 479.54,-58.7 469.01,-57.57 470.6,-64.39"/>
</a>
</g>
</g>
<!-- Node10&#45;&gt;Node9 -->
<g id="edge12_Node000010_Node000009" class="edge">
<title>Node10&#45;&gt;Node9</title>
<g id="a_edge12_Node000010_Node000009"><a xlink:title=" ">
<path fill="none" stroke="#63b8ff" d="M435.01,-46.62C446.45,-46.62 458.39,-46.62 469.81,-46.62"/>
<polygon fill="#63b8ff" stroke="#63b8ff" points="469.5,-50.13 479.5,-46.63 469.5,-43.13 469.5,-50.13"/>
</a>
</g>
</g>
<!-- Node11&#45;&gt;Node9 -->
<g id="edge14_Node000011_Node000009" class="edge">
<title>Node11&#45;&gt;Node9</title>
<g id="a_edge14_Node000011_Node000009"><a xlink:title=" ">
<path fill="none" stroke="#63b8ff" d="M416.15,-19.74C432.76,-23.62 452.05,-28.12 470.03,-32.32"/>
<polygon fill="#63b8ff" stroke="#63b8ff" points="469.01,-35.68 479.54,-34.55 470.6,-28.86 469.01,-35.68"/>
</a>
</g>
</g>
<!-- Node12&#45;&gt;Node4 -->
<g id="edge16_Node000012_Node000004" class="edge">
<title>Node12&#45;&gt;Node4</title>
<g id="a_edge16_Node000012_Node000004"><a xlink:title=" ">
<path fill="none" stroke="#63b8ff" d="M410.13,-130.67C420.83,-133.55 432.5,-136.71 443.25,-139.62 456.25,-143.15 470.33,-146.99 483.34,-150.53"/>
<polygon fill="#63b8ff" stroke="#63b8ff" points="482.41,-153.91 492.97,-153.16 484.25,-147.15 482.41,-153.91"/>
</a>
</g>
</g>
</g>
</svg>
