<?xml version="1.0" encoding="UTF-8" standalone="no"?>
<!DOCTYPE svg PUBLIC "-//W3C//DTD SVG 1.1//EN"
 "http://www.w3.org/Graphics/SVG/1.1/DTD/svg11.dtd">
<!-- Generated by graphviz version 12.2.1 (20241206.2353)
 -->
<!-- Title: Core::update_hud Pages: 1 -->
<svg width="1388pt" height="117pt"
 viewBox="0.00 0.00 1387.75 117.10" xmlns="http://www.w3.org/2000/svg" xmlns:xlink="http://www.w3.org/1999/xlink">
<g id="graph0" class="graph" transform="scale(1 1) rotate(0) translate(4 113.1)">
<title>Core::update_hud</title>
<!-- Node1 -->
<g id="Node000001" class="node">
<title>Node1</title>
<g id="a_Node000001"><a xlink:title=" ">
<polygon fill="#999999" stroke="#666666" points="1379.75,-19.25 1286.5,-19.25 1286.5,0 1379.75,0 1379.75,-19.25"/>
<text text-anchor="middle" x="1333.12" y="-5.75" font-family="Helvetica,sans-Serif" font-size="10.00">Core::update_hud</text>
</a>
</g>
</g>
<!-- Node2 -->
<g id="Node000002" class="node">
<title>Node2</title>
<g id="a_Node000002"><a xlink:href="class_core.html#a42623cce6be1bf30af3a1bca1ed73ed6" target="_top" xlink:title=" ">
<polygon fill="white" stroke="#666666" points="1250.5,-57.25 1165.5,-57.25 1165.5,-38 1250.5,-38 1250.5,-57.25"/>
<text text-anchor="middle" x="1208" y="-43.75" font-family="Helvetica,sans-Serif" font-size="10.00">Core::gui_game</text>
</a>
</g>
</g>
<!-- Node1&#45;&gt;Node2 -->
<g id="edge1_Node000001_Node000002" class="edge">
<title>Node1&#45;&gt;Node2</title>
<g id="a_edge1_Node000001_Node000002"><a xlink:title=" ">
<path fill="none" stroke="#63b8ff" d="M1288.51,-23.09C1272.99,-27.87 1255.81,-33.18 1241.4,-37.63"/>
<polygon fill="#63b8ff" stroke="#63b8ff" points="1289.48,-26.45 1298.01,-20.15 1287.42,-19.76 1289.48,-26.45"/>
</a>
</g>
</g>
<!-- Node5 -->
<g id="Node000005" class="node">
<title>Node5</title>
<g id="a_Node000005"><a xlink:href="class_core.html#ab5c7da5be504f0f34380b1ca5b97924b" target="_top" xlink:title=" ">
<polygon fill="white" stroke="#666666" points="769.75,-57.25 685.5,-57.25 685.5,-38 769.75,-38 769.75,-57.25"/>
<text text-anchor="middle" x="727.62" y="-43.75" font-family="Helvetica,sans-Serif" font-size="10.00">Core::gui_lobby</text>
</a>
</g>
</g>
<!-- Node1&#45;&gt;Node5 -->
<g id="edge15_Node000001_Node000005" class="edge">
<title>Node1&#45;&gt;Node5</title>
<g id="a_edge15_Node000001_Node000005"><a xlink:title=" ">
<path fill="none" stroke="#63b8ff" d="M1274.78,-7.86C1177.7,-5.73 975.02,-4.98 805.75,-28.62 791.55,-30.61 776.15,-34.12 762.88,-37.58"/>
<polygon fill="#63b8ff" stroke="#63b8ff" points="1274.49,-11.36 1284.57,-8.09 1274.66,-4.36 1274.49,-11.36"/>
</a>
</g>
</g>
<!-- Node3 -->
<g id="Node000003" class="node">
<title>Node3</title>
<g id="a_Node000003"><a xlink:href="class_core.html#a3b2840725a18b5e49614dd429f449289" target="_top" xlink:title=" ">
<polygon fill="white" stroke="#666666" points="1129.5,-76.25 992,-76.25 992,-57 1129.5,-57 1129.5,-76.25"/>
<text text-anchor="middle" x="1060.75" y="-62.75" font-family="Helvetica,sans-Serif" font-size="10.00">Core::handleStartCommand</text>
</a>
</g>
</g>
<!-- Node2&#45;&gt;Node3 -->
<g id="edge2_Node000002_Node000003" class="edge">
<title>Node2&#45;&gt;Node3</title>
<g id="a_edge2_Node000002_Node000003"><a xlink:title=" ">
<path fill="none" stroke="#63b8ff" d="M1154.15,-54.54C1146.29,-55.57 1138.1,-56.64 1129.98,-57.7"/>
<polygon fill="#63b8ff" stroke="#63b8ff" points="1154.41,-58.03 1163.88,-53.27 1153.51,-51.09 1154.41,-58.03"/>
</a>
</g>
</g>
<!-- Node12 -->
<g id="Node000012" class="node">
<title>Node12</title>
<g id="a_Node000012"><a xlink:href="class_core.html#afe1c190b0d03ded99b7408538b16998c" target="_top" xlink:title=" ">
<polygon fill="white" stroke="#666666" points="649.5,-95.25 562.25,-95.25 562.25,-76 649.5,-76 649.5,-95.25"/>
<text text-anchor="middle" x="605.88" y="-81.75" font-family="Helvetica,sans-Serif" font-size="10.00">Core::login_auto</text>
</a>
</g>
</g>
<!-- Node2&#45;&gt;Node12 -->
<g id="edge14_Node000002_Node000012" class="edge">
<title>Node2&#45;&gt;Node12</title>
<g id="a_edge14_Node000002_Node000012"><a xlink:title=" ">
<path fill="none" stroke="#63b8ff" d="M1181.97,-63.54C1167.3,-71.92 1148.06,-81.32 1129.5,-85.62 955.6,-125.96 740.3,-104.3 649.96,-92.11"/>
<polygon fill="#63b8ff" stroke="#63b8ff" points="1183.66,-66.61 1190.46,-58.49 1180.08,-60.59 1183.66,-66.61"/>
</a>
</g>
</g>
<!-- Node4 -->
<g id="Node000004" class="node">
<title>Node4</title>
<g id="a_Node000004"><a xlink:href="class_core.html#aae2b137a9885ae1ac3d740786cfdcb34" target="_top" xlink:title=" ">
<polygon fill="white" stroke="#666666" points="956,-57.25 805.75,-57.25 805.75,-38 956,-38 956,-57.25"/>
<text text-anchor="middle" x="880.88" y="-43.75" font-family="Helvetica,sans-Serif" font-size="10.00">Core::handleServerCommands</text>
</a>
</g>
</g>
<!-- Node3&#45;&gt;Node4 -->
<g id="edge3_Node000003_Node000004" class="edge">
<title>Node3&#45;&gt;Node4</title>
<g id="a_edge3_Node000003_Node000004"><a xlink:title=" ">
<path fill="none" stroke="#63b8ff" d="M980.49,-58.16C972.47,-57.3 964.34,-56.43 956.36,-55.58"/>
<polygon fill="#63b8ff" stroke="#63b8ff" points="979.92,-61.62 990.24,-59.2 980.67,-54.66 979.92,-61.62"/>
</a>
</g>
</g>
<!-- Node4&#45;&gt;Node2 -->
<g id="edge4_Node000004_Node000002" class="edge">
<title>Node4&#45;&gt;Node2</title>
<g id="a_edge4_Node000004_Node000002"><a xlink:title=" ">
<path fill="none" stroke="#63b8ff" d="M967.67,-47.62C1031.37,-47.62 1115.49,-47.62 1165.16,-47.62"/>
<polygon fill="#63b8ff" stroke="#63b8ff" points="967.94,-44.13 957.94,-47.63 967.94,-51.13 967.94,-44.13"/>
</a>
</g>
</g>
<!-- Node4&#45;&gt;Node5 -->
<g id="edge5_Node000004_Node000005" class="edge">
<title>Node4&#45;&gt;Node5</title>
<g id="a_edge5_Node000004_Node000005"><a xlink:title=" ">
<path fill="none" stroke="#63b8ff" d="M794.12,-47.62C785.76,-47.62 777.57,-47.62 769.97,-47.62"/>
<polygon fill="#63b8ff" stroke="#63b8ff" points="794.07,-51.13 804.07,-47.63 794.07,-44.13 794.07,-51.13"/>
</a>
</g>
</g>
<!-- Node6 -->
<g id="Node000006" class="node">
<title>Node6</title>
<g id="a_Node000006"><a xlink:href="class_core.html#ae373e5e53d26163bfc20d236fd116f89" target="_top" xlink:title=" ">
<polygon fill="white" stroke="#666666" points="637.5,-57.25 574.25,-57.25 574.25,-38 637.5,-38 637.5,-57.25"/>
<text text-anchor="middle" x="605.88" y="-43.75" font-family="Helvetica,sans-Serif" font-size="10.00">Core::login</text>
</a>
</g>
</g>
<!-- Node5&#45;&gt;Node6 -->
<g id="edge6_Node000005_Node000006" class="edge">
<title>Node5&#45;&gt;Node6</title>
<g id="a_edge6_Node000005_Node000006"><a xlink:title=" ">
<path fill="none" stroke="#63b8ff" d="M673.92,-47.62C661.57,-47.62 648.81,-47.62 637.77,-47.62"/>
<polygon fill="#63b8ff" stroke="#63b8ff" points="673.56,-51.13 683.56,-47.63 673.56,-44.13 673.56,-51.13"/>
</a>
</g>
</g>
<!-- Node5&#45;&gt;Node12 -->
<g id="edge12_Node000005_Node000012" class="edge">
<title>Node5&#45;&gt;Node12</title>
<g id="a_edge12_Node000005_Node000012"><a xlink:title=" ">
<path fill="none" stroke="#63b8ff" d="M684.21,-61.09C669.12,-65.87 652.4,-71.18 638.38,-75.63"/>
<polygon fill="#63b8ff" stroke="#63b8ff" points="684.93,-64.53 693.41,-58.17 682.82,-57.85 684.93,-64.53"/>
</a>
</g>
</g>
<!-- Node7 -->
<g id="Node000007" class="node">
<title>Node7</title>
<g id="a_Node000007"><a xlink:href="class_core.html#a245f461d8f0f1feaa8b126f329c7db22" target="_top" xlink:title=" ">
<polygon fill="white" stroke="#666666" points="526.25,-57.25 403,-57.25 403,-38 526.25,-38 526.25,-57.25"/>
<text text-anchor="middle" x="464.62" y="-43.75" font-family="Helvetica,sans-Serif" font-size="10.00">Core::handleMouseClick</text>
</a>
</g>
</g>
<!-- Node6&#45;&gt;Node7 -->
<g id="edge7_Node000006_Node000007" class="edge">
<title>Node6&#45;&gt;Node7</title>
<g id="a_edge7_Node000006_Node000007"><a xlink:title=" ">
<path fill="none" stroke="#63b8ff" d="M562.65,-47.62C551.32,-47.62 538.84,-47.62 526.71,-47.62"/>
<polygon fill="#63b8ff" stroke="#63b8ff" points="562.46,-51.13 572.46,-47.63 562.46,-44.13 562.46,-51.13"/>
</a>
</g>
</g>
<!-- Node8 -->
<g id="Node000008" class="node">
<title>Node8</title>
<g id="a_Node000008"><a xlink:href="class_core.html#a1460b7116a24aa8c866c33c4f16bd5a4" target="_top" xlink:title=" ">
<polygon fill="white" stroke="#666666" points="367,-57.25 285.75,-57.25 285.75,-38 367,-38 367,-57.25"/>
<text text-anchor="middle" x="326.38" y="-43.75" font-family="Helvetica,sans-Serif" font-size="10.00">Core::gui_login</text>
</a>
</g>
</g>
<!-- Node7&#45;&gt;Node8 -->
<g id="edge8_Node000007_Node000008" class="edge">
<title>Node7&#45;&gt;Node8</title>
<g id="a_edge8_Node000007_Node000008"><a xlink:title=" ">
<path fill="none" stroke="#63b8ff" d="M391.34,-47.62C383.03,-47.62 374.8,-47.62 367.16,-47.62"/>
<polygon fill="#63b8ff" stroke="#63b8ff" points="391.16,-51.13 401.16,-47.63 391.16,-44.13 391.16,-51.13"/>
</a>
</g>
</g>
<!-- Node9 -->
<g id="Node000009" class="node">
<title>Node9</title>
<g id="a_Node000009"><a xlink:href="class_core.html#a78dfa9b9ed54a7ba8cfe1be701b79feb" target="_top" xlink:title=" ">
<polygon fill="white" stroke="#666666" points="249.75,-57.25 164.75,-57.25 164.75,-38 249.75,-38 249.75,-57.25"/>
<text text-anchor="middle" x="207.25" y="-43.75" font-family="Helvetica,sans-Serif" font-size="10.00">Core::gui_menu</text>
</a>
</g>
</g>
<!-- Node8&#45;&gt;Node9 -->
<g id="edge9_Node000008_Node000009" class="edge">
<title>Node8&#45;&gt;Node9</title>
<g id="a_edge9_Node000008_Node000009"><a xlink:title=" ">
<path fill="none" stroke="#63b8ff" d="M273.91,-47.62C265.93,-47.62 257.78,-47.62 250.05,-47.62"/>
<polygon fill="#63b8ff" stroke="#63b8ff" points="273.88,-51.13 283.88,-47.63 273.88,-44.13 273.88,-51.13"/>
</a>
</g>
</g>
<!-- Node10 -->
<g id="Node000010" class="node">
<title>Node10</title>
<g id="a_Node000010"><a xlink:href="class_core.html#aa6045a2323610bfa0ee712b028eb43e4" target="_top" xlink:title=" ">
<polygon fill="white" stroke="#666666" points="128.75,-57.25 73,-57.25 73,-38 128.75,-38 128.75,-57.25"/>
<text text-anchor="middle" x="100.88" y="-43.75" font-family="Helvetica,sans-Serif" font-size="10.00">Core::gui</text>
</a>
</g>
</g>
<!-- Node9&#45;&gt;Node10 -->
<g id="edge10_Node000009_Node000010" class="edge">
<title>Node9&#45;&gt;Node10</title>
<g id="a_edge10_Node000009_Node000010"><a xlink:title=" ">
<path fill="none" stroke="#63b8ff" d="M153.09,-47.62C144.76,-47.62 136.46,-47.62 129.04,-47.62"/>
<polygon fill="#63b8ff" stroke="#63b8ff" points="152.88,-51.13 162.88,-47.63 152.88,-44.13 152.88,-51.13"/>
</a>
</g>
</g>
<!-- Node11 -->
<g id="Node000011" class="node">
<title>Node11</title>
<g id="a_Node000011"><a xlink:href="client_2main_8cpp.html#a0ddf1224851353fc92bfbff6f499fa97" target="_top" xlink:title=" ">
<polygon fill="white" stroke="#666666" points="37,-76.25 0,-76.25 0,-57 37,-57 37,-76.25"/>
<text text-anchor="middle" x="18.5" y="-62.75" font-family="Helvetica,sans-Serif" font-size="10.00">main</text>
</a>
</g>
</g>
<!-- Node10&#45;&gt;Node11 -->
<g id="edge11_Node000010_Node000011" class="edge">
<title>Node10&#45;&gt;Node11</title>
<g id="a_edge11_Node000010_Node000011"><a xlink:title=" ">
<path fill="none" stroke="#63b8ff" d="M61.68,-56.65C53.18,-58.66 44.55,-60.7 37.34,-62.41"/>
<polygon fill="#63b8ff" stroke="#63b8ff" points="62.26,-60.11 71.19,-54.41 60.65,-53.3 62.26,-60.11"/>
</a>
</g>
</g>
<!-- Node12&#45;&gt;Node11 -->
<g id="edge13_Node000012_Node000011" class="edge">
<title>Node12&#45;&gt;Node11</title>
<g id="a_edge13_Node000012_Node000011"><a xlink:title=" ">
<path fill="none" stroke="#63b8ff" d="M550.68,-85.62C494.75,-85.62 404.96,-85.63 327.38,-85.62 327.38,-85.62 327.38,-85.62 206.25,-85.62 144,-85.62 70.69,-75.05 37.47,-69.68"/>
<polygon fill="#63b8ff" stroke="#63b8ff" points="550.58,-89.13 560.58,-85.63 550.58,-82.13 550.58,-89.13"/>
</a>
</g>
</g>
</g>
</svg>
