<?xml version="1.0" encoding="UTF-8" standalone="no"?>
<!DOCTYPE svg PUBLIC "-//W3C//DTD SVG 1.1//EN"
 "http://www.w3.org/Graphics/SVG/1.1/DTD/svg11.dtd">
<!-- Generated by graphviz version 12.2.1 (20241206.2353)
 -->
<!-- Title: Sprite Pages: 1 -->
<svg width="407pt" height="341pt"
 viewBox="0.00 0.00 406.89 341.00" xmlns="http://www.w3.org/2000/svg" xmlns:xlink="http://www.w3.org/1999/xlink">

<svg id="main" version="1.1" xmlns="http://www.w3.org/2000/svg" xmlns:xlink="http://www.w3.org/1999/xlink" xml:space="preserve">

<style type="text/css"><![CDATA[
.node, .edge {opacity: 0.7;}
.node.selected, .edge.selected {opacity: 1;}
.edge:hover path { stroke: red; }
.edge:hover polygon { stroke: red; fill: red; }
]]></style>
<script type="application/ecmascript" xlink:href="svg.min.js"/>
<svg id="graph" class="graph">
<g id="graph0" class="graph" transform="scale(1 1) rotate(0) translate(4 337)">
<title>Sprite</title>
<!-- Node1 -->
<g id="Node000001" class="node">
<title>Node1</title>
<g id="a_Node000001"><a xlink:title="Classe de gestion des sprites avec fonctionnalités avancées.">
<polygon fill="#999999" stroke="none" points="274.5,-202.25 147,-202.25 147,0 274.5,0 274.5,-202.25"/>
<text text-anchor="start" x="198" y="-188.75" font-family="Helvetica,sans-Serif" font-size="10.00">Sprite</text>
<text text-anchor="start" x="209.25" y="-173.5" font-family="Helvetica,sans-Serif" font-size="10.00"> </text>
<text text-anchor="start" x="151" y="-158.25" font-family="Helvetica,sans-Serif" font-size="10.00">+</text>
<text text-anchor="start" x="161" y="-158.25" font-family="Helvetica,sans-Serif" font-size="10.00">Sprite()</text>
<text text-anchor="start" x="151" y="-143" font-family="Helvetica,sans-Serif" font-size="10.00">+</text>
<text text-anchor="start" x="161" y="-143" font-family="Helvetica,sans-Serif" font-size="10.00">Sprite()</text>
<text text-anchor="start" x="151" y="-127.75" font-family="Helvetica,sans-Serif" font-size="10.00">+</text>
<text text-anchor="start" x="161" y="-127.75" font-family="Helvetica,sans-Serif" font-size="10.00">setAsGameBackground()</text>
<text text-anchor="start" x="151" y="-112.5" font-family="Helvetica,sans-Serif" font-size="10.00">+</text>
<text text-anchor="start" x="161" y="-112.5" font-family="Helvetica,sans-Serif" font-size="10.00">update()</text>
<text text-anchor="start" x="151" y="-97.25" font-family="Helvetica,sans-Serif" font-size="10.00">+</text>
<text text-anchor="start" x="161" y="-97.25" font-family="Helvetica,sans-Serif" font-size="10.00">update_xy()</text>
<text text-anchor="start" x="151" y="-82" font-family="Helvetica,sans-Serif" font-size="10.00">+</text>
<text text-anchor="start" x="161" y="-82" font-family="Helvetica,sans-Serif" font-size="10.00">setHovered()</text>
<text text-anchor="start" x="151" y="-66.75" font-family="Helvetica,sans-Serif" font-size="10.00">+</text>
<text text-anchor="start" x="161" y="-66.75" font-family="Helvetica,sans-Serif" font-size="10.00">isMouseOver()</text>
<text text-anchor="start" x="151" y="-51.5" font-family="Helvetica,sans-Serif" font-size="10.00">+</text>
<text text-anchor="start" x="161" y="-51.5" font-family="Helvetica,sans-Serif" font-size="10.00">setScale()</text>
<text text-anchor="start" x="151" y="-36.25" font-family="Helvetica,sans-Serif" font-size="10.00">+</text>
<text text-anchor="start" x="161" y="-36.25" font-family="Helvetica,sans-Serif" font-size="10.00">setOriginToMiddle()</text>
<text text-anchor="start" x="151" y="-21" font-family="Helvetica,sans-Serif" font-size="10.00">+</text>
<text text-anchor="start" x="161" y="-21" font-family="Helvetica,sans-Serif" font-size="10.00">setPosition()</text>
<text text-anchor="start" x="151" y="-5.75" font-family="Helvetica,sans-Serif" font-size="10.00">+</text>
<text text-anchor="start" x="161" y="-5.75" font-family="Helvetica,sans-Serif" font-size="10.00">getSprite()</text>
<polygon fill="#666666" stroke="#666666" points="147,-185 147,-185 274.5,-185 274.5,-185 147,-185"/>
<polygon fill="#666666" stroke="#666666" points="147,-169.75 147,-169.75 274.5,-169.75 274.5,-169.75 147,-169.75"/>
<polygon fill="none" stroke="#666666" points="147,0 147,-202.25 274.5,-202.25 274.5,0 147,0"/>
</a>
</g>
</g>
<!-- Node2 -->
<g id="Node000002" class="node">
<title>Node2</title>
<g id="a_Node000002"><a xlink:title=" ">
<polygon fill="white" stroke="none" points="33.5,-333 0,-333 0,-283.25 33.5,-283.25 33.5,-333"/>
<text text-anchor="start" x="4" y="-319.5" font-family="Helvetica,sans-Serif" font-size="10.00">Sprite</text>
<text text-anchor="start" x="15.25" y="-304.25" font-family="Helvetica,sans-Serif" font-size="10.00"> </text>
<text text-anchor="start" x="15.25" y="-289" font-family="Helvetica,sans-Serif" font-size="10.00"> </text>
<polygon fill="#666666" stroke="#666666" points="0,-315.75 0,-315.75 33.5,-315.75 33.5,-315.75 0,-315.75"/>
<polygon fill="#666666" stroke="#666666" points="0,-300.5 0,-300.5 33.5,-300.5 33.5,-300.5 0,-300.5"/>
<polygon fill="none" stroke="#666666" points="0,-283.25 0,-333 33.5,-333 33.5,-283.25 0,-283.25"/>
</a>
</g>
</g>
<!-- Node2&#45;&gt;Node1 -->
<g id="edge1_Node000001_Node000002" class="edge">
<title>Node2&#45;&gt;Node1</title>
<g id="a_edge1_Node000001_Node000002"><a xlink:title=" ">
<path fill="none" stroke="#63b8ff" d="M19.36,-283.5C22.37,-264.88 28.78,-239.02 42.25,-220.25 66.39,-186.61 103.21,-159.22 136.28,-139.31"/>
<polygon fill="none" stroke="#63b8ff" points="136.19,-139.36 139.35,-132.88 146.55,-133.31 143.39,-139.79 136.19,-139.36"/>
</a>
</g>
<text text-anchor="middle" x="70" y="-244.5" font-family="Helvetica,sans-Serif" font-size="10.00" fill="grey"> &#45;hoverSprite</text>
<text text-anchor="middle" x="70" y="-233.25" font-family="Helvetica,sans-Serif" font-size="10.00" fill="grey">&#45;sprite</text>
</g>
<!-- Node3 -->
<g id="Node000003" class="node">
<title>Node3</title>
<g id="a_Node000003"><a xlink:title=" ">
<polygon fill="white" stroke="none" points="108.75,-333 82.75,-333 82.75,-283.25 108.75,-283.25 108.75,-333"/>
<text text-anchor="start" x="86.75" y="-319.5" font-family="Helvetica,sans-Serif" font-size="10.00">bool</text>
<text text-anchor="start" x="94.25" y="-304.25" font-family="Helvetica,sans-Serif" font-size="10.00"> </text>
<text text-anchor="start" x="94.25" y="-289" font-family="Helvetica,sans-Serif" font-size="10.00"> </text>
<polygon fill="#666666" stroke="#666666" points="82.75,-315.75 82.75,-315.75 108.75,-315.75 108.75,-315.75 82.75,-315.75"/>
<polygon fill="#666666" stroke="#666666" points="82.75,-300.5 82.75,-300.5 108.75,-300.5 108.75,-300.5 82.75,-300.5"/>
<polygon fill="none" stroke="#666666" points="82.75,-283.25 82.75,-333 108.75,-333 108.75,-283.25 82.75,-283.25"/>
</a>
</g>
</g>
<!-- Node3&#45;&gt;Node1 -->
<g id="edge2_Node000001_Node000003" class="edge">
<title>Node3&#45;&gt;Node1</title>
<g id="a_edge2_Node000001_Node000003"><a xlink:title=" ">
<path fill="none" stroke="#63b8ff" d="M98.12,-283.3C100.6,-265.27 105.56,-240.29 115.25,-220.25 121.84,-206.62 130.28,-193.16 139.41,-180.48"/>
<polygon fill="none" stroke="#63b8ff" points="139.49,-180.36 139.88,-173.16 146.67,-170.75 146.29,-177.95 139.49,-180.36"/>
</a>
</g>
<text text-anchor="middle" x="161" y="-255.75" font-family="Helvetica,sans-Serif" font-size="10.00" fill="grey"> &#45;isGameBackground</text>
<text text-anchor="middle" x="161" y="-244.5" font-family="Helvetica,sans-Serif" font-size="10.00" fill="grey">&#45;isHoverable</text>
<text text-anchor="middle" x="161" y="-233.25" font-family="Helvetica,sans-Serif" font-size="10.00" fill="grey">&#45;isHovered</text>
<text text-anchor="middle" x="161" y="-222" font-family="Helvetica,sans-Serif" font-size="10.00" fill="grey">&#45;isScrolling</text>
</g>
<!-- Node4 -->
<g id="Node000004" class="node">
<title>Node4</title>
<g id="a_Node000004"><a xlink:title=" ">
<polygon fill="white" stroke="none" points="227.5,-333 194,-333 194,-283.25 227.5,-283.25 227.5,-333"/>
<text text-anchor="start" x="198" y="-319.5" font-family="Helvetica,sans-Serif" font-size="10.00">Clock</text>
<text text-anchor="start" x="209.25" y="-304.25" font-family="Helvetica,sans-Serif" font-size="10.00"> </text>
<text text-anchor="start" x="209.25" y="-289" font-family="Helvetica,sans-Serif" font-size="10.00"> </text>
<polygon fill="#666666" stroke="#666666" points="194,-315.75 194,-315.75 227.5,-315.75 227.5,-315.75 194,-315.75"/>
<polygon fill="#666666" stroke="#666666" points="194,-300.5 194,-300.5 227.5,-300.5 227.5,-300.5 194,-300.5"/>
<polygon fill="none" stroke="#666666" points="194,-283.25 194,-333 227.5,-333 227.5,-283.25 194,-283.25"/>
</a>
</g>
</g>
<!-- Node4&#45;&gt;Node1 -->
<g id="edge3_Node000001_Node000004" class="edge">
<title>Node4&#45;&gt;Node1</title>
<g id="a_edge3_Node000001_Node000004"><a xlink:title=" ">
<path fill="none" stroke="#63b8ff" d="M210.75,-283.61C210.75,-266.17 210.75,-240.98 210.75,-214.9"/>
<polygon fill="none" stroke="#63b8ff" points="210.75,-214.95 206.75,-208.95 210.75,-202.95 214.75,-208.95 210.75,-214.95"/>
</a>
</g>
<text text-anchor="middle" x="225.38" y="-238.88" font-family="Helvetica,sans-Serif" font-size="10.00" fill="grey"> &#45;clock</text>
</g>
<!-- Node5 -->
<g id="Node000005" class="node">
<title>Node5</title>
<g id="a_Node000005"><a xlink:title=" ">
<polygon fill="white" stroke="none" points="276.12,-333 249.38,-333 249.38,-283.25 276.12,-283.25 276.12,-333"/>
<text text-anchor="start" x="253.38" y="-319.5" font-family="Helvetica,sans-Serif" font-size="10.00">float</text>
<text text-anchor="start" x="261.25" y="-304.25" font-family="Helvetica,sans-Serif" font-size="10.00"> </text>
<text text-anchor="start" x="261.25" y="-289" font-family="Helvetica,sans-Serif" font-size="10.00"> </text>
<polygon fill="#666666" stroke="#666666" points="249.38,-315.75 249.38,-315.75 276.12,-315.75 276.12,-315.75 249.38,-315.75"/>
<polygon fill="#666666" stroke="#666666" points="249.38,-300.5 249.38,-300.5 276.12,-300.5 276.12,-300.5 249.38,-300.5"/>
<polygon fill="none" stroke="#666666" points="249.38,-283.25 249.38,-333 276.12,-333 276.12,-283.25 249.38,-283.25"/>
</a>
</g>
</g>
<!-- Node5&#45;&gt;Node1 -->
<g id="edge4_Node000001_Node000005" class="edge">
<title>Node5&#45;&gt;Node1</title>
<g id="a_edge4_Node000001_Node000005"><a xlink:title=" ">
<path fill="none" stroke="#63b8ff" d="M256.78,-283.53C252.36,-266.05 246.18,-241.67 240.75,-220.25 240.28,-218.39 239.8,-216.52 239.32,-214.63"/>
<polygon fill="none" stroke="#63b8ff" points="239.3,-214.52 233.94,-209.69 236.35,-202.89 241.7,-207.72 239.3,-214.52"/>
</a>
</g>
<text text-anchor="middle" x="280.08" y="-238.88" font-family="Helvetica,sans-Serif" font-size="10.00" fill="grey"> &#45;scrollSpeed</text>
</g>
<!-- Node6 -->
<g id="Node000006" class="node">
<title>Node6</title>
<g id="a_Node000006"><a xlink:title=" ">
<polygon fill="white" stroke="none" points="352,-333 333.5,-333 333.5,-283.25 352,-283.25 352,-333"/>
<text text-anchor="start" x="337.5" y="-319.5" font-family="Helvetica,sans-Serif" font-size="10.00">int</text>
<text text-anchor="start" x="341.25" y="-304.25" font-family="Helvetica,sans-Serif" font-size="10.00"> </text>
<text text-anchor="start" x="341.25" y="-289" font-family="Helvetica,sans-Serif" font-size="10.00"> </text>
<polygon fill="#666666" stroke="#666666" points="333.5,-315.75 333.5,-315.75 352,-315.75 352,-315.75 333.5,-315.75"/>
<polygon fill="#666666" stroke="#666666" points="333.5,-300.5 333.5,-300.5 352,-300.5 352,-300.5 333.5,-300.5"/>
<polygon fill="none" stroke="#666666" points="333.5,-283.25 333.5,-333 352,-333 352,-283.25 333.5,-283.25"/>
</a>
</g>
</g>
<!-- Node6&#45;&gt;Node1 -->
<g id="edge5_Node000001_Node000006" class="edge">
<title>Node6&#45;&gt;Node1</title>
<g id="a_edge5_Node000001_Node000006"><a xlink:title=" ">
<path fill="none" stroke="#63b8ff" d="M337.23,-283.6C332.39,-265.51 324.29,-240.3 312.75,-220.25 304.16,-205.32 293.54,-190.52 282.44,-176.71"/>
<polygon fill="none" stroke="#63b8ff" points="282.5,-176.79 275.6,-174.71 274.86,-167.54 281.77,-169.62 282.5,-176.79"/>
</a>
</g>
<text text-anchor="middle" x="365.14" y="-238.88" font-family="Helvetica,sans-Serif" font-size="10.00" fill="grey"> &#45;updateInterval</text>
</g>
</g>
</svg>
</svg>

<style type='text/css'>
<![CDATA[
[data-mouse-over-selected='false'] { opacity: 0.7; }
[data-mouse-over-selected='true']  { opacity: 1.0; }
]]>
</style>
<script type="application/ecmascript"><![CDATA[
document.addEventListener('DOMContentLoaded', (event) => {
  highlightEdges();
  highlightAdjacentNodes();
});
]]></script>
</svg>
