<?xml version="1.0" encoding="UTF-8" standalone="no"?>
<!DOCTYPE svg PUBLIC "-//W3C//DTD SVG 1.1//EN"
 "http://www.w3.org/Graphics/SVG/1.1/DTD/svg11.dtd">
<!-- Generated by graphviz version 12.2.1 (20241206.2353)
 -->
<!-- Title: ServerGame::initTimers Pages: 1 -->
<svg width="692pt" height="698pt"
 viewBox="0.00 0.00 692.25 697.88" xmlns="http://www.w3.org/2000/svg" xmlns:xlink="http://www.w3.org/1999/xlink">
<g id="graph0" class="graph" transform="scale(1 1) rotate(0) translate(4 693.88)">
<title>ServerGame::initTimers</title>
<!-- Node1 -->
<g id="Node000001" class="node">
<title>Node1</title>
<g id="a_Node000001"><a xlink:title=" ">
<polygon fill="#999999" stroke="#666666" points="119.5,-353.88 0,-353.88 0,-334.62 119.5,-334.62 119.5,-353.88"/>
<text text-anchor="middle" x="59.75" y="-340.38" font-family="Helvetica,sans-Serif" font-size="10.00">ServerGame::initTimers</text>
</a>
</g>
</g>
<!-- Node2 -->
<g id="Node000002" class="node">
<title>Node2</title>
<g id="a_Node000002"><a xlink:href="class_server_game.html#acd85147947f8c366cccf07b8d6674026" target="_top" xlink:title=" ">
<polygon fill="white" stroke="#666666" points="303.5,-658.5 162.25,-658.5 162.25,-628 303.5,-628 303.5,-658.5"/>
<text text-anchor="start" x="170.25" y="-645" font-family="Helvetica,sans-Serif" font-size="10.00">ServerGame::setup_collision</text>
<text text-anchor="middle" x="232.88" y="-633.75" font-family="Helvetica,sans-Serif" font-size="10.00">_timer</text>
</a>
</g>
</g>
<!-- Node1&#45;&gt;Node2 -->
<g id="edge1_Node000001_Node000002" class="edge">
<title>Node1&#45;&gt;Node2</title>
<g id="a_edge1_Node000001_Node000002"><a xlink:title=" ">
<path fill="none" stroke="#63b8ff" d="M61.16,-354.37C63.32,-394.06 76.55,-540.6 155.5,-618.25 156.54,-619.27 157.61,-620.24 158.73,-621.18"/>
<polygon fill="#63b8ff" stroke="#63b8ff" points="156.47,-623.87 166.67,-626.74 160.48,-618.14 156.47,-623.87"/>
</a>
</g>
</g>
<!-- Node7 -->
<g id="Node000007" class="node">
<title>Node7</title>
<g id="a_Node000007"><a xlink:href="class_server_game.html#ae04b9882336139be7cc8649e27dba330" target="_top" xlink:title=" ">
<polygon fill="white" stroke="#666666" points="310.25,-591.5 155.5,-591.5 155.5,-561 310.25,-561 310.25,-591.5"/>
<text text-anchor="start" x="163.5" y="-578" font-family="Helvetica,sans-Serif" font-size="10.00">ServerGame::setup_conciliation</text>
<text text-anchor="middle" x="232.88" y="-566.75" font-family="Helvetica,sans-Serif" font-size="10.00">_timer</text>
</a>
</g>
</g>
<!-- Node1&#45;&gt;Node7 -->
<g id="edge8_Node000001_Node000007" class="edge">
<title>Node1&#45;&gt;Node7</title>
<g id="a_edge8_Node000001_Node000007"><a xlink:title=" ">
<path fill="none" stroke="#63b8ff" d="M62.39,-354.12C68.37,-387.12 92.12,-494.65 155.5,-551.25 156.77,-552.38 158.09,-553.46 159.45,-554.5"/>
<polygon fill="#63b8ff" stroke="#63b8ff" points="157.44,-557.36 167.75,-559.81 161.22,-551.47 157.44,-557.36"/>
</a>
</g>
</g>
<!-- Node10 -->
<g id="Node000010" class="node">
<title>Node10</title>
<g id="a_Node000010"><a xlink:href="class_server_game.html#ac11805bef3774422a1b0235d47a7efed" target="_top" xlink:title=" ">
<polygon fill="white" stroke="#666666" points="297.88,-524.5 167.88,-524.5 167.88,-494 297.88,-494 297.88,-524.5"/>
<text text-anchor="start" x="175.88" y="-511" font-family="Helvetica,sans-Serif" font-size="10.00">ServerGame::setup_game</text>
<text text-anchor="middle" x="232.88" y="-499.75" font-family="Helvetica,sans-Serif" font-size="10.00">_over_timer</text>
</a>
</g>
</g>
<!-- Node1&#45;&gt;Node10 -->
<g id="edge13_Node000001_Node000010" class="edge">
<title>Node1&#45;&gt;Node10</title>
<g id="a_edge13_Node000001_Node000010"><a xlink:title=" ">
<path fill="none" stroke="#63b8ff" d="M65.16,-354.33C76.53,-379.22 109.22,-444.14 155.5,-480.25 159.44,-483.33 163.75,-486.11 168.24,-488.61"/>
<polygon fill="#63b8ff" stroke="#63b8ff" points="166.46,-491.63 176.96,-492.99 169.6,-485.37 166.46,-491.63"/>
</a>
</g>
</g>
<!-- Node12 -->
<g id="Node000012" class="node">
<title>Node12</title>
<g id="a_Node000012"><a xlink:href="class_server_game.html#a429c582fc2fce1fdd802208b51f77c68" target="_top" xlink:title=" ">
<polygon fill="white" stroke="#666666" points="496.12,-478.88 357.88,-478.88 357.88,-459.62 496.12,-459.62 496.12,-478.88"/>
<text text-anchor="middle" x="427" y="-465.38" font-family="Helvetica,sans-Serif" font-size="10.00">ServerGame::StopAllTimers</text>
</a>
</g>
</g>
<!-- Node1&#45;&gt;Node12 -->
<g id="edge36_Node000001_Node000012" class="edge">
<title>Node1&#45;&gt;Node12</title>
<g id="a_edge36_Node000001_Node000012"><a xlink:title=" ">
<path fill="none" stroke="#63b8ff" d="M66.29,-354.14C78.9,-375.57 112.05,-426.04 155.5,-447.25 214.82,-476.21 290.23,-480.06 346.35,-477.61"/>
<polygon fill="#63b8ff" stroke="#63b8ff" points="346.34,-481.12 356.15,-477.1 345.98,-474.13 346.34,-481.12"/>
</a>
</g>
</g>
<!-- Node13 -->
<g id="Node000013" class="node">
<title>Node13</title>
<g id="a_Node000013"><a xlink:href="class_server_game.html#a7932470ed83cb42d82debb8829a0956a" target="_top" xlink:title=" ">
<polygon fill="white" stroke="#666666" points="289.62,-420.5 176.12,-420.5 176.12,-390 289.62,-390 289.62,-420.5"/>
<text text-anchor="start" x="184.12" y="-407" font-family="Helvetica,sans-Serif" font-size="10.00">ServerGame::setup_ia</text>
<text text-anchor="middle" x="232.88" y="-395.75" font-family="Helvetica,sans-Serif" font-size="10.00">_player</text>
</a>
</g>
</g>
<!-- Node1&#45;&gt;Node13 -->
<g id="edge17_Node000001_Node000013" class="edge">
<title>Node1&#45;&gt;Node13</title>
<g id="a_edge17_Node000001_Node000013"><a xlink:title=" ">
<path fill="none" stroke="#63b8ff" d="M85.12,-354.29C104.16,-362.01 131.35,-372.75 155.5,-381.25 160.12,-382.88 164.92,-384.51 169.76,-386.12"/>
<polygon fill="#63b8ff" stroke="#63b8ff" points="168.33,-389.34 178.92,-389.12 170.51,-382.68 168.33,-389.34"/>
</a>
</g>
</g>
<!-- Node14 -->
<g id="Node000014" class="node">
<title>Node14</title>
<g id="a_Node000014"><a xlink:href="class_server_game.html#aa1aaafb4f5bd2691231d0bdedb079588" target="_top" xlink:title=" ">
<polygon fill="white" stroke="#666666" points="301.62,-353.88 164.12,-353.88 164.12,-334.62 301.62,-334.62 301.62,-353.88"/>
<text text-anchor="middle" x="232.88" y="-340.38" font-family="Helvetica,sans-Serif" font-size="10.00">ServerGame::setup_iaMobs</text>
</a>
</g>
</g>
<!-- Node1&#45;&gt;Node14 -->
<g id="edge19_Node000001_Node000014" class="edge">
<title>Node1&#45;&gt;Node14</title>
<g id="a_edge19_Node000001_Node000014"><a xlink:title=" ">
<path fill="none" stroke="#63b8ff" d="M119.64,-344.25C130.19,-344.25 141.34,-344.25 152.35,-344.25"/>
<polygon fill="#63b8ff" stroke="#63b8ff" points="152.24,-347.75 162.24,-344.25 152.24,-340.75 152.24,-347.75"/>
</a>
</g>
</g>
<!-- Node15 -->
<g id="Node000015" class="node">
<title>Node15</title>
<g id="a_Node000015"><a xlink:href="class_server_game.html#a6da0ae753b4a7e2d6f5231949d22331d" target="_top" xlink:title=" ">
<polygon fill="white" stroke="#666666" points="306.12,-298.5 159.62,-298.5 159.62,-268 306.12,-268 306.12,-298.5"/>
<text text-anchor="start" x="167.62" y="-285" font-family="Helvetica,sans-Serif" font-size="10.00">ServerGame::setup_invincible</text>
<text text-anchor="middle" x="232.88" y="-273.75" font-family="Helvetica,sans-Serif" font-size="10.00">_timer</text>
</a>
</g>
</g>
<!-- Node1&#45;&gt;Node15 -->
<g id="edge21_Node000001_Node000015" class="edge">
<title>Node1&#45;&gt;Node15</title>
<g id="a_edge21_Node000001_Node000015"><a xlink:title=" ">
<path fill="none" stroke="#63b8ff" d="M89.01,-334.18C112.93,-325.65 147.93,-313.17 177.29,-302.71"/>
<polygon fill="#63b8ff" stroke="#63b8ff" points="178.15,-306.12 186.4,-299.46 175.8,-299.52 178.15,-306.12"/>
</a>
</g>
</g>
<!-- Node16 -->
<g id="Node000016" class="node">
<title>Node16</title>
<g id="a_Node000016"><a xlink:href="class_server_game.html#a89e6dc23de2213b7cfa7d8a894f509a3" target="_top" xlink:title=" ">
<polygon fill="white" stroke="#666666" points="302.75,-231.5 163,-231.5 163,-201 302.75,-201 302.75,-231.5"/>
<text text-anchor="start" x="171" y="-218" font-family="Helvetica,sans-Serif" font-size="10.00">ServerGame::setup_position</text>
<text text-anchor="middle" x="232.88" y="-206.75" font-family="Helvetica,sans-Serif" font-size="10.00">_timer</text>
</a>
</g>
</g>
<!-- Node1&#45;&gt;Node16 -->
<g id="edge23_Node000001_Node000016" class="edge">
<title>Node1&#45;&gt;Node16</title>
<g id="a_edge23_Node000001_Node000016"><a xlink:title=" ">
<path fill="none" stroke="#63b8ff" d="M70.37,-334.3C86.84,-317.58 121.91,-283.33 155.5,-259.25 166.4,-251.43 178.86,-243.9 190.5,-237.38"/>
<polygon fill="#63b8ff" stroke="#63b8ff" points="192.04,-240.53 199.13,-232.66 188.68,-234.39 192.04,-240.53"/>
</a>
</g>
</g>
<!-- Node19 -->
<g id="Node000019" class="node">
<title>Node19</title>
<g id="a_Node000019"><a xlink:href="class_server_game.html#a52fe9325dc4644b455f6dfe03fa0a7e2" target="_top" xlink:title=" ">
<polygon fill="white" stroke="#666666" points="304.25,-164.5 161.5,-164.5 161.5,-134 304.25,-134 304.25,-164.5"/>
<text text-anchor="start" x="169.5" y="-151" font-family="Helvetica,sans-Serif" font-size="10.00">ServerGame::setup_powerup</text>
<text text-anchor="middle" x="232.88" y="-139.75" font-family="Helvetica,sans-Serif" font-size="10.00">_timer</text>
</a>
</g>
</g>
<!-- Node1&#45;&gt;Node19 -->
<g id="edge27_Node000001_Node000019" class="edge">
<title>Node1&#45;&gt;Node19</title>
<g id="a_edge27_Node000001_Node000019"><a xlink:title=" ">
<path fill="none" stroke="#63b8ff" d="M64.88,-334.19C76.06,-307.97 109.2,-236.52 155.5,-192.25 164.25,-183.88 174.94,-176.56 185.52,-170.45"/>
<polygon fill="#63b8ff" stroke="#63b8ff" points="187.13,-173.55 194.23,-165.68 183.78,-167.41 187.13,-173.55"/>
</a>
</g>
</g>
<!-- Node21 -->
<g id="Node000021" class="node">
<title>Node21</title>
<g id="a_Node000021"><a xlink:href="class_server_game.html#aa301bdf3d57c0e3652d1e5fd1a338e17" target="_top" xlink:title=" ">
<polygon fill="white" stroke="#666666" points="300.12,-97.5 165.62,-97.5 165.62,-67 300.12,-67 300.12,-97.5"/>
<text text-anchor="start" x="173.62" y="-84" font-family="Helvetica,sans-Serif" font-size="10.00">ServerGame::setup_spawn</text>
<text text-anchor="middle" x="232.88" y="-72.75" font-family="Helvetica,sans-Serif" font-size="10.00">_timer</text>
</a>
</g>
</g>
<!-- Node1&#45;&gt;Node21 -->
<g id="edge30_Node000001_Node000021" class="edge">
<title>Node1&#45;&gt;Node21</title>
<g id="a_edge30_Node000001_Node000021"><a xlink:title=" ">
<path fill="none" stroke="#63b8ff" d="M62.68,-334.29C69.58,-300.92 95.89,-191.43 155.5,-125.25 163.21,-116.69 173.05,-109.42 183.08,-103.44"/>
<polygon fill="#63b8ff" stroke="#63b8ff" points="184.72,-106.53 191.77,-98.63 181.33,-100.41 184.72,-106.53"/>
</a>
</g>
</g>
<!-- Node23 -->
<g id="Node000023" class="node">
<title>Node23</title>
<g id="a_Node000023"><a xlink:href="class_server_game.html#aaad24ffb6e289d83b1bb7ab4a0cd4b10" target="_top" xlink:title=" ">
<polygon fill="white" stroke="#666666" points="296.38,-30.5 169.38,-30.5 169.38,0 296.38,0 296.38,-30.5"/>
<text text-anchor="start" x="177.38" y="-17" font-family="Helvetica,sans-Serif" font-size="10.00">ServerGame::setup_triple</text>
<text text-anchor="middle" x="232.88" y="-5.75" font-family="Helvetica,sans-Serif" font-size="10.00">_shot_expiration_timer</text>
</a>
</g>
</g>
<!-- Node1&#45;&gt;Node23 -->
<g id="edge33_Node000001_Node000023" class="edge">
<title>Node1&#45;&gt;Node23</title>
<g id="a_edge33_Node000001_Node000023"><a xlink:title=" ">
<path fill="none" stroke="#63b8ff" d="M61.5,-334.14C64.95,-294.45 82.34,-147.08 155.5,-58.25 162.68,-49.53 172.12,-42.25 181.91,-36.31"/>
<polygon fill="#63b8ff" stroke="#63b8ff" points="183.4,-39.49 190.42,-31.55 179.98,-33.38 183.4,-39.49"/>
</a>
</g>
</g>
<!-- Node2&#45;&gt;Node2 -->
<g id="edge7_Node000002_Node000002" class="edge">
<title>Node2&#45;&gt;Node2</title>
<g id="a_edge7_Node000002_Node000002"><a xlink:title=" ">
<path fill="none" stroke="#63b8ff" d="M202.2,-658.99C195.94,-668.06 206.16,-676.5 232.88,-676.5 247.48,-676.5 257.16,-673.97 261.91,-670.2"/>
<polygon fill="#63b8ff" stroke="#63b8ff" points="265.35,-670.89 263.33,-660.48 258.42,-669.87 265.35,-670.89"/>
</a>
</g>
</g>
<!-- Node3 -->
<g id="Node000003" class="node">
<title>Node3</title>
<g id="a_Node000003"><a xlink:href="class_server_game.html#aa99390eeaadd29af06da639d8a9ef353" target="_top" xlink:title=" ">
<polygon fill="white" stroke="#666666" points="505.5,-652.88 348.5,-652.88 348.5,-633.62 505.5,-633.62 505.5,-652.88"/>
<text text-anchor="middle" x="427" y="-639.38" font-family="Helvetica,sans-Serif" font-size="10.00">ServerGame::checkAllCollisions</text>
</a>
</g>
</g>
<!-- Node2&#45;&gt;Node3 -->
<g id="edge2_Node000002_Node000003" class="edge">
<title>Node2&#45;&gt;Node3</title>
<g id="a_edge2_Node000002_Node000003"><a xlink:title=" ">
<path fill="none" stroke="#63b8ff" d="M303.78,-643.25C314.45,-643.25 325.59,-643.25 336.61,-643.25"/>
<polygon fill="#63b8ff" stroke="#63b8ff" points="336.51,-646.75 346.51,-643.25 336.51,-639.75 336.51,-646.75"/>
</a>
</g>
</g>
<!-- Node3&#45;&gt;Node3 -->
<g id="edge3_Node000003_Node000003" class="edge">
<title>Node3&#45;&gt;Node3</title>
<g id="a_edge3_Node000003_Node000003"><a xlink:title=" ">
<path fill="none" stroke="#63b8ff" d="M397.72,-653.16C384.37,-661.77 394.13,-670.88 427,-670.88 446,-670.88 457.28,-667.83 460.84,-663.6"/>
<polygon fill="#63b8ff" stroke="#63b8ff" points="464.09,-662.31 456.88,-654.55 457.68,-665.11 464.09,-662.31"/>
</a>
</g>
</g>
<!-- Node4 -->
<g id="Node000004" class="node">
<title>Node4</title>
<g id="a_Node000004"><a xlink:href="class_server_game.html#a9a2b4bb7a61cf272fae0d6ed1f13e59f" target="_top" xlink:title=" ">
<polygon fill="white" stroke="#666666" points="684.25,-689.88 543.75,-689.88 543.75,-670.62 684.25,-670.62 684.25,-689.88"/>
<text text-anchor="middle" x="614" y="-676.38" font-family="Helvetica,sans-Serif" font-size="10.00">ServerGame::handleColision</text>
</a>
</g>
</g>
<!-- Node3&#45;&gt;Node4 -->
<g id="edge4_Node000003_Node000004" class="edge">
<title>Node3&#45;&gt;Node4</title>
<g id="a_edge4_Node000003_Node000004"><a xlink:title=" ">
<path fill="none" stroke="#63b8ff" d="M478.55,-653.36C501.09,-657.87 527.84,-663.22 551.52,-667.95"/>
<polygon fill="#63b8ff" stroke="#63b8ff" points="550.53,-671.33 561.02,-669.85 551.91,-664.46 550.53,-671.33"/>
</a>
</g>
</g>
<!-- Node5 -->
<g id="Node000005" class="node">
<title>Node5</title>
<g id="a_Node000005"><a xlink:href="class_server_game.html#adf9d28b0bb99cd31ec005e81fa4128f4" target="_top" xlink:title=" ">
<polygon fill="white" stroke="#666666" points="679.75,-615.88 548.25,-615.88 548.25,-596.62 679.75,-596.62 679.75,-615.88"/>
<text text-anchor="middle" x="614" y="-602.38" font-family="Helvetica,sans-Serif" font-size="10.00">ServerGame::handleDeath</text>
</a>
</g>
</g>
<!-- Node3&#45;&gt;Node5 -->
<g id="edge5_Node000003_Node000005" class="edge">
<title>Node3&#45;&gt;Node5</title>
<g id="a_edge5_Node000003_Node000005"><a xlink:title=" ">
<path fill="none" stroke="#63b8ff" d="M478.55,-633.14C501.09,-628.63 527.84,-623.28 551.52,-618.55"/>
<polygon fill="#63b8ff" stroke="#63b8ff" points="551.91,-622.04 561.02,-616.65 550.53,-615.17 551.91,-622.04"/>
</a>
</g>
</g>
<!-- Node6 -->
<g id="Node000006" class="node">
<title>Node6</title>
<g id="a_Node000006"><a xlink:href="class_server_game.html#a0d2136187aa368d02f5bc66c2b1f85cf" target="_top" xlink:title=" ">
<polygon fill="white" stroke="#666666" points="674.88,-652.88 553.12,-652.88 553.12,-633.62 674.88,-633.62 674.88,-652.88"/>
<text text-anchor="middle" x="614" y="-639.38" font-family="Helvetica,sans-Serif" font-size="10.00">ServerGame::isColliding</text>
</a>
</g>
</g>
<!-- Node3&#45;&gt;Node6 -->
<g id="edge6_Node000003_Node000006" class="edge">
<title>Node3&#45;&gt;Node6</title>
<g id="a_edge6_Node000003_Node000006"><a xlink:title=" ">
<path fill="none" stroke="#63b8ff" d="M505.92,-643.25C517.7,-643.25 529.8,-643.25 541.43,-643.25"/>
<polygon fill="#63b8ff" stroke="#63b8ff" points="541.36,-646.75 551.36,-643.25 541.36,-639.75 541.36,-646.75"/>
</a>
</g>
</g>
<!-- Node7&#45;&gt;Node7 -->
<g id="edge12_Node000007_Node000007" class="edge">
<title>Node7&#45;&gt;Node7</title>
<g id="a_edge12_Node000007_Node000007"><a xlink:title=" ">
<path fill="none" stroke="#63b8ff" d="M202.2,-591.99C195.94,-601.06 206.16,-609.5 232.88,-609.5 247.48,-609.5 257.16,-606.97 261.91,-603.2"/>
<polygon fill="#63b8ff" stroke="#63b8ff" points="265.35,-603.89 263.33,-593.48 258.42,-602.87 265.35,-603.89"/>
</a>
</g>
</g>
<!-- Node8 -->
<g id="Node000008" class="node">
<title>Node8</title>
<g id="a_Node000008"><a xlink:href="class_server_game.html#ae364e3e373cb38cf5bfcbc5b5697c61a" target="_top" xlink:title=" ">
<polygon fill="white" stroke="#666666" points="507.75,-585.88 346.25,-585.88 346.25,-566.62 507.75,-566.62 507.75,-585.88"/>
<text text-anchor="middle" x="427" y="-572.38" font-family="Helvetica,sans-Serif" font-size="10.00">ServerGame::positionConciliation</text>
</a>
</g>
</g>
<!-- Node7&#45;&gt;Node8 -->
<g id="edge9_Node000007_Node000008" class="edge">
<title>Node7&#45;&gt;Node8</title>
<g id="a_edge9_Node000007_Node000008"><a xlink:title=" ">
<path fill="none" stroke="#63b8ff" d="M310.64,-576.25C318.52,-576.25 326.59,-576.25 334.61,-576.25"/>
<polygon fill="#63b8ff" stroke="#63b8ff" points="334.39,-579.75 344.39,-576.25 334.39,-572.75 334.39,-579.75"/>
</a>
</g>
</g>
<!-- Node8&#45;&gt;Node5 -->
<g id="edge10_Node000008_Node000005" class="edge">
<title>Node8&#45;&gt;Node5</title>
<g id="a_edge10_Node000008_Node000005"><a xlink:title=" ">
<path fill="none" stroke="#63b8ff" d="M490.37,-586.36C506.14,-588.92 523.22,-591.69 539.48,-594.33"/>
<polygon fill="#63b8ff" stroke="#63b8ff" points="538.66,-597.74 549.09,-595.89 539.78,-590.83 538.66,-597.74"/>
</a>
</g>
</g>
<!-- Node9 -->
<g id="Node000009" class="node">
<title>Node9</title>
<g id="a_Node000009"><a xlink:href="class_server_game.html#aca51614bfef206efa6799e569ea0ddc1" target="_top" xlink:title=" ">
<polygon fill="white" stroke="#666666" points="680.88,-578.5 547.12,-578.5 547.12,-548 680.88,-548 680.88,-578.5"/>
<text text-anchor="start" x="555.12" y="-565" font-family="Helvetica,sans-Serif" font-size="10.00">ServerGame::showAllEnity</text>
<text text-anchor="middle" x="614" y="-553.75" font-family="Helvetica,sans-Serif" font-size="10.00">Alive</text>
</a>
</g>
</g>
<!-- Node8&#45;&gt;Node9 -->
<g id="edge11_Node000008_Node000009" class="edge">
<title>Node8&#45;&gt;Node9</title>
<g id="a_edge11_Node000008_Node000009"><a xlink:title=" ">
<path fill="none" stroke="#63b8ff" d="M508.07,-570.62C517.13,-569.99 526.36,-569.34 535.39,-568.7"/>
<polygon fill="#63b8ff" stroke="#63b8ff" points="535.46,-572.21 545.19,-568.02 534.97,-565.22 535.46,-572.21"/>
</a>
</g>
</g>
<!-- Node10&#45;&gt;Node10 -->
<g id="edge15_Node000010_Node000010" class="edge">
<title>Node10&#45;&gt;Node10</title>
<g id="a_edge15_Node000010_Node000010"><a xlink:title=" ">
<path fill="none" stroke="#63b8ff" d="M202.2,-524.99C195.94,-534.06 206.16,-542.5 232.88,-542.5 247.48,-542.5 257.16,-539.97 261.91,-536.2"/>
<polygon fill="#63b8ff" stroke="#63b8ff" points="265.35,-536.89 263.33,-526.48 258.42,-535.87 265.35,-536.89"/>
</a>
</g>
</g>
<!-- Node11 -->
<g id="Node000011" class="node">
<title>Node11</title>
<g id="a_Node000011"><a xlink:href="class_server_game.html#ae618b046011fbfa5373127e48496b885" target="_top" xlink:title=" ">
<polygon fill="white" stroke="#666666" points="505.88,-518.88 348.12,-518.88 348.12,-499.62 505.88,-499.62 505.88,-518.88"/>
<text text-anchor="middle" x="427" y="-505.38" font-family="Helvetica,sans-Serif" font-size="10.00">ServerGame::areAllPlayersDead</text>
</a>
</g>
</g>
<!-- Node10&#45;&gt;Node11 -->
<g id="edge14_Node000010_Node000011" class="edge">
<title>Node10&#45;&gt;Node11</title>
<g id="a_edge14_Node000010_Node000011"><a xlink:title=" ">
<path fill="none" stroke="#63b8ff" d="M298.12,-509.25C310.44,-509.25 323.54,-509.25 336.49,-509.25"/>
<polygon fill="#63b8ff" stroke="#63b8ff" points="336.28,-512.75 346.28,-509.25 336.28,-505.75 336.28,-512.75"/>
</a>
</g>
</g>
<!-- Node10&#45;&gt;Node12 -->
<g id="edge16_Node000010_Node000012" class="edge">
<title>Node10&#45;&gt;Node12</title>
<g id="a_edge16_Node000010_Node000012"><a xlink:title=" ">
<path fill="none" stroke="#63b8ff" d="M298.12,-495.87C320.23,-491.27 344.87,-486.14 366.58,-481.62"/>
<polygon fill="#63b8ff" stroke="#63b8ff" points="367.07,-485.09 376.15,-479.63 365.65,-478.24 367.07,-485.09"/>
</a>
</g>
</g>
<!-- Node13&#45;&gt;Node13 -->
<g id="edge18_Node000013_Node000013" class="edge">
<title>Node13&#45;&gt;Node13</title>
<g id="a_edge18_Node000013_Node000013"><a xlink:title=" ">
<path fill="none" stroke="#63b8ff" d="M202.2,-420.99C195.94,-430.06 206.16,-438.5 232.88,-438.5 247.48,-438.5 257.16,-435.97 261.91,-432.2"/>
<polygon fill="#63b8ff" stroke="#63b8ff" points="265.35,-432.89 263.33,-422.48 258.42,-431.87 265.35,-432.89"/>
</a>
</g>
</g>
<!-- Node14&#45;&gt;Node14 -->
<g id="edge20_Node000014_Node000014" class="edge">
<title>Node14&#45;&gt;Node14</title>
<g id="a_edge20_Node000014_Node000014"><a xlink:title=" ">
<path fill="none" stroke="#63b8ff" d="M205.77,-354.16C193.41,-362.77 202.44,-371.88 232.88,-371.88 249.99,-371.88 260.34,-368.99 263.92,-364.94"/>
<polygon fill="#63b8ff" stroke="#63b8ff" points="267.22,-363.78 260.5,-355.58 260.64,-366.18 267.22,-363.78"/>
</a>
</g>
</g>
<!-- Node15&#45;&gt;Node15 -->
<g id="edge22_Node000015_Node000015" class="edge">
<title>Node15&#45;&gt;Node15</title>
<g id="a_edge22_Node000015_Node000015"><a xlink:title=" ">
<path fill="none" stroke="#63b8ff" d="M202.2,-298.99C195.94,-308.06 206.16,-316.5 232.88,-316.5 247.48,-316.5 257.16,-313.97 261.91,-310.2"/>
<polygon fill="#63b8ff" stroke="#63b8ff" points="265.35,-310.89 263.33,-300.48 258.42,-309.87 265.35,-310.89"/>
</a>
</g>
</g>
<!-- Node16&#45;&gt;Node16 -->
<g id="edge26_Node000016_Node000016" class="edge">
<title>Node16&#45;&gt;Node16</title>
<g id="a_edge26_Node000016_Node000016"><a xlink:title=" ">
<path fill="none" stroke="#63b8ff" d="M202.2,-231.99C195.94,-241.06 206.16,-249.5 232.88,-249.5 247.48,-249.5 257.16,-246.97 261.91,-243.2"/>
<polygon fill="#63b8ff" stroke="#63b8ff" points="265.35,-243.89 263.33,-233.48 258.42,-242.87 265.35,-243.89"/>
</a>
</g>
</g>
<!-- Node17 -->
<g id="Node000017" class="node">
<title>Node17</title>
<g id="a_Node000017"><a xlink:href="class_systems.html#a310d4de4ff4f8212b2ded614e411d102" target="_top" xlink:title=" ">
<polygon fill="white" stroke="#666666" points="493.12,-225.88 360.88,-225.88 360.88,-206.62 493.12,-206.62 493.12,-225.88"/>
<text text-anchor="middle" x="427" y="-212.38" font-family="Helvetica,sans-Serif" font-size="10.00">Systems::position_system</text>
</a>
</g>
</g>
<!-- Node16&#45;&gt;Node17 -->
<g id="edge24_Node000016_Node000017" class="edge">
<title>Node16&#45;&gt;Node17</title>
<g id="a_edge24_Node000016_Node000017"><a xlink:title=" ">
<path fill="none" stroke="#63b8ff" d="M303.24,-216.25C318.14,-216.25 333.97,-216.25 349.14,-216.25"/>
<polygon fill="#63b8ff" stroke="#63b8ff" points="349.07,-219.75 359.07,-216.25 349.07,-212.75 349.07,-219.75"/>
</a>
</g>
</g>
<!-- Node18 -->
<g id="Node000018" class="node">
<title>Node18</title>
<g id="a_Node000018"><a xlink:href="classregistry.html#a3866ee276a5a1d78d00cd403e8e8c7d9" target="_top" xlink:title=" ">
<polygon fill="white" stroke="#666666" points="677.12,-225.88 550.88,-225.88 550.88,-206.62 677.12,-206.62 677.12,-225.88"/>
<text text-anchor="middle" x="614" y="-212.38" font-family="Helvetica,sans-Serif" font-size="10.00">registry::get_components</text>
</a>
</g>
</g>
<!-- Node17&#45;&gt;Node18 -->
<g id="edge25_Node000017_Node000018" class="edge">
<title>Node17&#45;&gt;Node18</title>
<g id="a_edge25_Node000017_Node000018"><a xlink:title=" ">
<path fill="none" stroke="#63b8ff" d="M493.48,-216.25C508.23,-216.25 523.98,-216.25 539.04,-216.25"/>
<polygon fill="#63b8ff" stroke="#63b8ff" points="538.88,-219.75 548.88,-216.25 538.88,-212.75 538.88,-219.75"/>
</a>
</g>
</g>
<!-- Node19&#45;&gt;Node19 -->
<g id="edge28_Node000019_Node000019" class="edge">
<title>Node19&#45;&gt;Node19</title>
<g id="a_edge28_Node000019_Node000019"><a xlink:title=" ">
<path fill="none" stroke="#63b8ff" d="M202.2,-164.99C195.94,-174.06 206.16,-182.5 232.88,-182.5 247.48,-182.5 257.16,-179.97 261.91,-176.2"/>
<polygon fill="#63b8ff" stroke="#63b8ff" points="265.35,-176.89 263.33,-166.48 258.42,-175.87 265.35,-176.89"/>
</a>
</g>
</g>
<!-- Node20 -->
<g id="Node000020" class="node">
<title>Node20</title>
<g id="a_Node000020"><a xlink:href="class_server_game.html#a690321c8aa58ea064479f8205d28df73" target="_top" xlink:title=" ">
<polygon fill="white" stroke="#666666" points="499.88,-158.88 354.12,-158.88 354.12,-139.62 499.88,-139.62 499.88,-158.88"/>
<text text-anchor="middle" x="427" y="-145.38" font-family="Helvetica,sans-Serif" font-size="10.00">ServerGame::spawnPowerUp</text>
</a>
</g>
</g>
<!-- Node19&#45;&gt;Node20 -->
<g id="edge29_Node000019_Node000020" class="edge">
<title>Node19&#45;&gt;Node20</title>
<g id="a_edge29_Node000019_Node000020"><a xlink:title=" ">
<path fill="none" stroke="#63b8ff" d="M304.6,-149.25C316.88,-149.25 329.77,-149.25 342.36,-149.25"/>
<polygon fill="#63b8ff" stroke="#63b8ff" points="342.31,-152.75 352.31,-149.25 342.31,-145.75 342.31,-152.75"/>
</a>
</g>
</g>
<!-- Node21&#45;&gt;Node21 -->
<g id="edge31_Node000021_Node000021" class="edge">
<title>Node21&#45;&gt;Node21</title>
<g id="a_edge31_Node000021_Node000021"><a xlink:title=" ">
<path fill="none" stroke="#63b8ff" d="M202.2,-97.99C195.94,-107.06 206.16,-115.5 232.88,-115.5 247.48,-115.5 257.16,-112.97 261.91,-109.2"/>
<polygon fill="#63b8ff" stroke="#63b8ff" points="265.35,-109.89 263.33,-99.48 258.42,-108.87 265.35,-109.89"/>
</a>
</g>
</g>
<!-- Node22 -->
<g id="Node000022" class="node">
<title>Node22</title>
<g id="a_Node000022"><a xlink:href="class_server_game.html#aee4c62e6f6d9427eb126ce1c372b0446" target="_top" xlink:title=" ">
<polygon fill="white" stroke="#666666" points="489,-91.88 365,-91.88 365,-72.62 489,-72.62 489,-91.88"/>
<text text-anchor="middle" x="427" y="-78.38" font-family="Helvetica,sans-Serif" font-size="10.00">ServerGame::spawnMob</text>
</a>
</g>
</g>
<!-- Node21&#45;&gt;Node22 -->
<g id="edge32_Node000021_Node000022" class="edge">
<title>Node21&#45;&gt;Node22</title>
<g id="a_edge32_Node000021_Node000022"><a xlink:title=" ">
<path fill="none" stroke="#63b8ff" d="M300.53,-82.25C317.6,-82.25 336.04,-82.25 353.4,-82.25"/>
<polygon fill="#63b8ff" stroke="#63b8ff" points="353.1,-85.75 363.1,-82.25 353.1,-78.75 353.1,-85.75"/>
</a>
</g>
</g>
<!-- Node23&#45;&gt;Node23 -->
<g id="edge35_Node000023_Node000023" class="edge">
<title>Node23&#45;&gt;Node23</title>
<g id="a_edge35_Node000023_Node000023"><a xlink:title=" ">
<path fill="none" stroke="#63b8ff" d="M202.2,-30.99C195.94,-40.06 206.16,-48.5 232.88,-48.5 247.48,-48.5 257.16,-45.97 261.91,-42.2"/>
<polygon fill="#63b8ff" stroke="#63b8ff" points="265.35,-42.89 263.33,-32.48 258.42,-41.87 265.35,-42.89"/>
</a>
</g>
</g>
<!-- Node24 -->
<g id="Node000024" class="node">
<title>Node24</title>
<g id="a_Node000024"><a xlink:href="class_server_game.html#ac4bd21cf219e6eca5d8a63e0e5d799d9" target="_top" xlink:title=" ">
<polygon fill="white" stroke="#666666" points="500.62,-30.5 353.38,-30.5 353.38,0 500.62,0 500.62,-30.5"/>
<text text-anchor="start" x="361.38" y="-17" font-family="Helvetica,sans-Serif" font-size="10.00">ServerGame::checkTripleShot</text>
<text text-anchor="middle" x="427" y="-5.75" font-family="Helvetica,sans-Serif" font-size="10.00">Expiration</text>
</a>
</g>
</g>
<!-- Node23&#45;&gt;Node24 -->
<g id="edge34_Node000023_Node000024" class="edge">
<title>Node23&#45;&gt;Node24</title>
<g id="a_edge34_Node000023_Node000024"><a xlink:title=" ">
<path fill="none" stroke="#63b8ff" d="M296.78,-15.25C311.09,-15.25 326.51,-15.25 341.54,-15.25"/>
<polygon fill="#63b8ff" stroke="#63b8ff" points="341.42,-18.75 351.42,-15.25 341.42,-11.75 341.42,-18.75"/>
</a>
</g>
</g>
</g>
</svg>
