<?xml version="1.0" encoding="UTF-8" standalone="no"?>
<!DOCTYPE svg PUBLIC "-//W3C//DTD SVG 1.1//EN"
 "http://www.w3.org/Graphics/SVG/1.1/DTD/svg11.dtd">
<!-- Generated by graphviz version 12.2.1 (20241206.2353)
 -->
<!-- Title: ServerGame::ServerGame Pages: 1 -->
<svg width="312pt" height="64pt"
 viewBox="0.00 0.00 311.50 64.25" xmlns="http://www.w3.org/2000/svg" xmlns:xlink="http://www.w3.org/1999/xlink">
<g id="graph0" class="graph" transform="scale(1 1) rotate(0) translate(4 60.25)">
<title>ServerGame::ServerGame</title>
<!-- Node1 -->
<g id="Node000001" class="node">
<title>Node1</title>
<g id="a_Node000001"><a xlink:title=" ">
<polygon fill="#999999" stroke="#666666" points="131.5,-37.25 0,-37.25 0,-18 131.5,-18 131.5,-37.25"/>
<text text-anchor="middle" x="65.75" y="-23.75" font-family="Helvetica,sans-Serif" font-size="10.00">ServerGame::ServerGame</text>
</a>
</g>
</g>
<!-- Node2 -->
<g id="Node000002" class="node">
<title>Node2</title>
<g id="a_Node000002"><a xlink:href="class_server_game.html#a3ad8af6b58cbd6b471e7911738093b61" target="_top" xlink:title=" ">
<polygon fill="white" stroke="#666666" points="302.75,-56.25 168.25,-56.25 168.25,-37 302.75,-37 302.75,-56.25"/>
<text text-anchor="middle" x="235.5" y="-42.75" font-family="Helvetica,sans-Serif" font-size="10.00">ServerGame::handleMoves</text>
</a>
</g>
</g>
<!-- Node1&#45;&gt;Node2 -->
<g id="edge1_Node000001_Node000002" class="edge">
<title>Node1&#45;&gt;Node2</title>
<g id="a_edge1_Node000001_Node000002"><a xlink:title=" ">
<path fill="none" stroke="#63b8ff" d="M131.61,-34.97C139.78,-35.9 148.21,-36.85 156.57,-37.8"/>
<polygon fill="#63b8ff" stroke="#63b8ff" points="156.04,-41.26 166.37,-38.91 156.83,-34.31 156.04,-41.26"/>
</a>
</g>
</g>
<!-- Node3 -->
<g id="Node000003" class="node">
<title>Node3</title>
<g id="a_Node000003"><a xlink:href="class_server_game.html#a7c9354c0ff3baa76239cd837eeeb33d7" target="_top" xlink:title=" ">
<polygon fill="white" stroke="#666666" points="303.5,-19.25 167.5,-19.25 167.5,0 303.5,0 303.5,-19.25"/>
<text text-anchor="middle" x="235.5" y="-5.75" font-family="Helvetica,sans-Serif" font-size="10.00">ServerGame::loadLuaScript</text>
</a>
</g>
</g>
<!-- Node1&#45;&gt;Node3 -->
<g id="edge2_Node000001_Node000003" class="edge">
<title>Node1&#45;&gt;Node3</title>
<g id="a_edge2_Node000001_Node000003"><a xlink:title=" ">
<path fill="none" stroke="#63b8ff" d="M131.61,-20.67C139.5,-19.82 147.64,-18.95 155.71,-18.08"/>
<polygon fill="#63b8ff" stroke="#63b8ff" points="155.97,-21.57 165.54,-17.02 155.22,-14.61 155.97,-21.57"/>
</a>
</g>
</g>
</g>
</svg>
