<?xml version="1.0" encoding="UTF-8" standalone="no"?>
<!DOCTYPE svg PUBLIC "-//W3C//DTD SVG 1.1//EN"
 "http://www.w3.org/Graphics/SVG/1.1/DTD/svg11.dtd">
<!-- Generated by graphviz version 12.2.1 (20241206.2353)
 -->
<!-- Title: Core::send_input_if_needed Pages: 1 -->
<!--zoomable 193 -->

<svg id="main" version="1.1" xmlns="http://www.w3.org/2000/svg" xmlns:xlink="http://www.w3.org/1999/xlink" xml:space="preserve" onload="init(evt)">

<style type="text/css"><![CDATA[
.node, .edge {opacity: 0.7;}
.node.selected, .edge.selected {opacity: 1;}
.edge:hover path { stroke: red; }
.edge:hover polygon { stroke: red; fill: red; }
]]></style>

<defs>
  <circle id="rim" cx="0" cy="0" r="7"/>
  <circle id="rim2" cx="0" cy="0" r="3.5"/>
  <g id="zoomPlus">
    <use xlink:href="#rim" fill="#404040"><set attributeName="fill" to="#808080" begin="zoomplus.mouseover" end="zoomplus.mouseout"/></use>
    <path d="M-4,0h8M0,-4v8" fill="none" stroke="white" stroke-width="1.5" pointer-events="none"/>
  </g>
  <g id="zoomMin">
    <use xlink:href="#rim" fill="#404040"><set attributeName="fill" to="#808080" begin="zoomminus.mouseover" end="zoomminus.mouseout"/></use>
    <path d="M-4,0h8" fill="none" stroke="white" stroke-width="1.5" pointer-events="none"/>
  </g>
  <g id="arrowUp" transform="translate(30 24)">
    <use xlink:href="#rim"/>
    <path pointer-events="none" fill="none" stroke="white" stroke-width="1.5" d="M0,-3.0v7 M-2.5,-0.5L0,-3.0L2.5,-0.5"/>
  </g>
  <g id="arrowRight" transform="rotate(90) translate(36 -43)">
    <use xlink:href="#rim"/>
    <path pointer-events="none" fill="none" stroke="white" stroke-width="1.5" d="M0,-3.0v7 M-2.5,-0.5L0,-3.0L2.5,-0.5"/>
  </g>
  <g id="arrowDown" transform="rotate(180) translate(-30 -48)">
    <use xlink:href="#rim"/>
    <path pointer-events="none" fill="none" stroke="white" stroke-width="1.5" d="M0,-3.0v7 M-2.5,-0.5L0,-3.0L2.5,-0.5"/>
  </g>
  <g id="arrowLeft" transform="rotate(270) translate(-36 17)">
    <use xlink:href="#rim"/>
    <path pointer-events="none" fill="none" stroke="white" stroke-width="1.5" d="M0,-3.0v7 M-2.5,-0.5L0,-3.0L2.5,-0.5"/>
  </g>
  <g id="resetDef">
    <use xlink:href="#rim2" fill="#404040"><set attributeName="fill" to="#808080" begin="reset.mouseover" end="reset.mouseout"/></use>
  </g>
</defs>
<script type="application/ecmascript">
var viewWidth = 1696;
var viewHeight = 193;
var sectionId = 'dynsection-80';
</script>
<script type="application/ecmascript" xlink:href="svg.min.js"/>
<svg id="graph" class="graph">
<g id="viewport">
<title>Core::send_input_if_needed</title>
<!-- Node1 -->
<g id="Node000001" class="node">
<title>Node1</title>
<g id="a_Node000001"><a xlink:title=" ">
<polygon fill="#999999" stroke="#666666" points="1687.75,-110.5 1587,-110.5 1587,-80 1687.75,-80 1687.75,-110.5"/>
<text text-anchor="start" x="1595" y="-97" font-family="Helvetica,sans-Serif" font-size="10.00">Core::send_input_if</text>
<text text-anchor="middle" x="1637.38" y="-85.75" font-family="Helvetica,sans-Serif" font-size="10.00">_needed</text>
</a>
</g>
</g>
<!-- Node2 -->
<g id="Node000002" class="node">
<title>Node2</title>
<g id="a_Node000002"><a xlink:href="class_core.html#ab5c7da5be504f0f34380b1ca5b97924b" target="_top" xlink:title=" ">
<polygon fill="white" stroke="#666666" points="769.75,-131.88 685.5,-131.88 685.5,-112.62 769.75,-112.62 769.75,-131.88"/>
<text text-anchor="middle" x="727.62" y="-118.38" font-family="Helvetica,sans-Serif" font-size="10.00">Core::gui_lobby</text>
</a>
</g>
</g>
<!-- Node1&#45;&gt;Node2 -->
<g id="edge1_Node000001_Node000002" class="edge">
<title>Node1&#45;&gt;Node2</title>
<g id="a_edge1_Node000001_Node000002"><a xlink:title=" ">
<path fill="none" stroke="#63b8ff" d="M1613.92,-118.87C1597.93,-134.06 1575.08,-152.68 1551,-162.25 1464.47,-196.62 1435.48,-181.25 1342.38,-181.25 1342.38,-181.25 1342.38,-181.25 1059.75,-181.25 949.39,-181.25 821.5,-149.09 762.12,-132.26"/>
<polygon fill="#63b8ff" stroke="#63b8ff" points="1616.3,-121.43 1620.98,-111.92 1611.4,-116.44 1616.3,-121.43"/>
</a>
</g>
</g>
<!-- Node10 -->
<g id="Node000010" class="node">
<title>Node10</title>
<g id="a_Node000010"><a xlink:href="class_core.html#a63200a1cc9505da6942f9bd7642df237" target="_top" xlink:title=" ">
<polygon fill="white" stroke="#666666" points="1551,-153.5 1432.25,-153.5 1432.25,-123 1551,-123 1551,-153.5"/>
<text text-anchor="start" x="1440.25" y="-140" font-family="Helvetica,sans-Serif" font-size="10.00">Core::handle_horizontal</text>
<text text-anchor="middle" x="1491.62" y="-128.75" font-family="Helvetica,sans-Serif" font-size="10.00">_movement</text>
</a>
</g>
</g>
<!-- Node1&#45;&gt;Node10 -->
<g id="edge10_Node000001_Node000010" class="edge">
<title>Node1&#45;&gt;Node10</title>
<g id="a_edge10_Node000001_Node000010"><a xlink:title=" ">
<path fill="none" stroke="#63b8ff" d="M1575.57,-113.44C1565.36,-116.49 1554.83,-119.64 1544.85,-122.63"/>
<polygon fill="#63b8ff" stroke="#63b8ff" points="1576.47,-116.82 1585.05,-110.6 1574.47,-110.12 1576.47,-116.82"/>
</a>
</g>
</g>
<!-- Node15 -->
<g id="Node000015" class="node">
<title>Node15</title>
<g id="a_Node000015"><a xlink:href="class_core.html#ac8463d54a65aacc36654e1dcd96166b9" target="_top" xlink:title=" ">
<polygon fill="white" stroke="#666666" points="1542,-104.88 1441.25,-104.88 1441.25,-85.62 1542,-85.62 1542,-104.88"/>
<text text-anchor="middle" x="1491.62" y="-91.38" font-family="Helvetica,sans-Serif" font-size="10.00">Core::handle_shoot</text>
</a>
</g>
</g>
<!-- Node1&#45;&gt;Node15 -->
<g id="edge18_Node000001_Node000015" class="edge">
<title>Node1&#45;&gt;Node15</title>
<g id="a_edge18_Node000001_Node000015"><a xlink:title=" ">
<path fill="none" stroke="#63b8ff" d="M1575.25,-95.25C1564.3,-95.25 1553,-95.25 1542.41,-95.25"/>
<polygon fill="#63b8ff" stroke="#63b8ff" points="1574.99,-98.75 1584.99,-95.25 1574.99,-91.75 1574.99,-98.75"/>
</a>
</g>
</g>
<!-- Node16 -->
<g id="Node000016" class="node">
<title>Node16</title>
<g id="a_Node000016"><a xlink:href="class_core.html#a3735bea8b545e7ff9e5ae56299818352" target="_top" xlink:title=" ">
<polygon fill="white" stroke="#666666" points="1539.75,-67.88 1443.5,-67.88 1443.5,-48.62 1539.75,-48.62 1539.75,-67.88"/>
<text text-anchor="middle" x="1491.62" y="-54.38" font-family="Helvetica,sans-Serif" font-size="10.00">Core::handle_start</text>
</a>
</g>
</g>
<!-- Node1&#45;&gt;Node16 -->
<g id="edge20_Node000001_Node000016" class="edge">
<title>Node1&#45;&gt;Node16</title>
<g id="a_edge20_Node000001_Node000016"><a xlink:title=" ">
<path fill="none" stroke="#63b8ff" d="M1575.76,-79.65C1560.79,-75.8 1545.15,-71.77 1531.53,-68.26"/>
<polygon fill="#63b8ff" stroke="#63b8ff" points="1574.48,-82.93 1585.04,-82.04 1576.22,-76.15 1574.48,-82.93"/>
</a>
</g>
</g>
<!-- Node17 -->
<g id="Node000017" class="node">
<title>Node17</title>
<g id="a_Node000017"><a xlink:href="class_core.html#a7a1438f7b147b90acbe4130458a3048c" target="_top" xlink:title=" ">
<polygon fill="white" stroke="#666666" points="1545.75,-30.5 1437.5,-30.5 1437.5,0 1545.75,0 1545.75,-30.5"/>
<text text-anchor="start" x="1445.5" y="-17" font-family="Helvetica,sans-Serif" font-size="10.00">Core::handle_vertical</text>
<text text-anchor="middle" x="1491.62" y="-5.75" font-family="Helvetica,sans-Serif" font-size="10.00">_movement</text>
</a>
</g>
</g>
<!-- Node1&#45;&gt;Node17 -->
<g id="edge21_Node000001_Node000017" class="edge">
<title>Node1&#45;&gt;Node17</title>
<g id="a_edge21_Node000001_Node000017"><a xlink:title=" ">
<path fill="none" stroke="#63b8ff" d="M1605.65,-73.05C1589.78,-62.11 1569.83,-49.18 1551,-39.25 1545.48,-36.34 1539.52,-33.53 1533.59,-30.93"/>
<polygon fill="#63b8ff" stroke="#63b8ff" points="1603.52,-75.83 1613.72,-78.69 1607.53,-70.09 1603.52,-75.83"/>
</a>
</g>
</g>
<!-- Node3 -->
<g id="Node000003" class="node">
<title>Node3</title>
<g id="a_Node000003"><a xlink:href="class_core.html#ae373e5e53d26163bfc20d236fd116f89" target="_top" xlink:title=" ">
<polygon fill="white" stroke="#666666" points="637.5,-131.88 574.25,-131.88 574.25,-112.62 637.5,-112.62 637.5,-131.88"/>
<text text-anchor="middle" x="605.88" y="-118.38" font-family="Helvetica,sans-Serif" font-size="10.00">Core::login</text>
</a>
</g>
</g>
<!-- Node2&#45;&gt;Node3 -->
<g id="edge2_Node000002_Node000003" class="edge">
<title>Node2&#45;&gt;Node3</title>
<g id="a_edge2_Node000002_Node000003"><a xlink:title=" ">
<path fill="none" stroke="#63b8ff" d="M673.92,-122.25C661.57,-122.25 648.81,-122.25 637.77,-122.25"/>
<polygon fill="#63b8ff" stroke="#63b8ff" points="673.56,-125.75 683.56,-122.25 673.56,-118.75 673.56,-125.75"/>
</a>
</g>
</g>
<!-- Node9 -->
<g id="Node000009" class="node">
<title>Node9</title>
<g id="a_Node000009"><a xlink:href="class_core.html#afe1c190b0d03ded99b7408538b16998c" target="_top" xlink:title=" ">
<polygon fill="white" stroke="#666666" points="649.5,-93.88 562.25,-93.88 562.25,-74.62 649.5,-74.62 649.5,-93.88"/>
<text text-anchor="middle" x="605.88" y="-80.38" font-family="Helvetica,sans-Serif" font-size="10.00">Core::login_auto</text>
</a>
</g>
</g>
<!-- Node2&#45;&gt;Node9 -->
<g id="edge8_Node000002_Node000009" class="edge">
<title>Node2&#45;&gt;Node9</title>
<g id="a_edge8_Node000002_Node000009"><a xlink:title=" ">
<path fill="none" stroke="#63b8ff" d="M684.21,-108.79C669.12,-104 652.4,-98.7 638.38,-94.25"/>
<polygon fill="#63b8ff" stroke="#63b8ff" points="682.82,-112.02 693.41,-111.71 684.93,-105.35 682.82,-112.02"/>
</a>
</g>
</g>
<!-- Node4 -->
<g id="Node000004" class="node">
<title>Node4</title>
<g id="a_Node000004"><a xlink:href="class_core.html#a245f461d8f0f1feaa8b126f329c7db22" target="_top" xlink:title=" ">
<polygon fill="white" stroke="#666666" points="526.25,-131.88 403,-131.88 403,-112.62 526.25,-112.62 526.25,-131.88"/>
<text text-anchor="middle" x="464.62" y="-118.38" font-family="Helvetica,sans-Serif" font-size="10.00">Core::handleMouseClick</text>
</a>
</g>
</g>
<!-- Node3&#45;&gt;Node4 -->
<g id="edge3_Node000003_Node000004" class="edge">
<title>Node3&#45;&gt;Node4</title>
<g id="a_edge3_Node000003_Node000004"><a xlink:title=" ">
<path fill="none" stroke="#63b8ff" d="M562.65,-122.25C551.32,-122.25 538.84,-122.25 526.71,-122.25"/>
<polygon fill="#63b8ff" stroke="#63b8ff" points="562.46,-125.75 572.46,-122.25 562.46,-118.75 562.46,-125.75"/>
</a>
</g>
</g>
<!-- Node5 -->
<g id="Node000005" class="node">
<title>Node5</title>
<g id="a_Node000005"><a xlink:href="class_core.html#a1460b7116a24aa8c866c33c4f16bd5a4" target="_top" xlink:title=" ">
<polygon fill="white" stroke="#666666" points="367,-131.88 285.75,-131.88 285.75,-112.62 367,-112.62 367,-131.88"/>
<text text-anchor="middle" x="326.38" y="-118.38" font-family="Helvetica,sans-Serif" font-size="10.00">Core::gui_login</text>
</a>
</g>
</g>
<!-- Node4&#45;&gt;Node5 -->
<g id="edge4_Node000004_Node000005" class="edge">
<title>Node4&#45;&gt;Node5</title>
<g id="a_edge4_Node000004_Node000005"><a xlink:title=" ">
<path fill="none" stroke="#63b8ff" d="M391.34,-122.25C383.03,-122.25 374.8,-122.25 367.16,-122.25"/>
<polygon fill="#63b8ff" stroke="#63b8ff" points="391.16,-125.75 401.16,-122.25 391.16,-118.75 391.16,-125.75"/>
</a>
</g>
</g>
<!-- Node6 -->
<g id="Node000006" class="node">
<title>Node6</title>
<g id="a_Node000006"><a xlink:href="class_core.html#a78dfa9b9ed54a7ba8cfe1be701b79feb" target="_top" xlink:title=" ">
<polygon fill="white" stroke="#666666" points="249.75,-131.88 164.75,-131.88 164.75,-112.62 249.75,-112.62 249.75,-131.88"/>
<text text-anchor="middle" x="207.25" y="-118.38" font-family="Helvetica,sans-Serif" font-size="10.00">Core::gui_menu</text>
</a>
</g>
</g>
<!-- Node5&#45;&gt;Node6 -->
<g id="edge5_Node000005_Node000006" class="edge">
<title>Node5&#45;&gt;Node6</title>
<g id="a_edge5_Node000005_Node000006"><a xlink:title=" ">
<path fill="none" stroke="#63b8ff" d="M273.91,-122.25C265.93,-122.25 257.78,-122.25 250.05,-122.25"/>
<polygon fill="#63b8ff" stroke="#63b8ff" points="273.88,-125.75 283.88,-122.25 273.88,-118.75 273.88,-125.75"/>
</a>
</g>
</g>
<!-- Node7 -->
<g id="Node000007" class="node">
<title>Node7</title>
<g id="a_Node000007"><a xlink:href="class_core.html#aa6045a2323610bfa0ee712b028eb43e4" target="_top" xlink:title=" ">
<polygon fill="white" stroke="#666666" points="128.75,-131.88 73,-131.88 73,-112.62 128.75,-112.62 128.75,-131.88"/>
<text text-anchor="middle" x="100.88" y="-118.38" font-family="Helvetica,sans-Serif" font-size="10.00">Core::gui</text>
</a>
</g>
</g>
<!-- Node6&#45;&gt;Node7 -->
<g id="edge6_Node000006_Node000007" class="edge">
<title>Node6&#45;&gt;Node7</title>
<g id="a_edge6_Node000006_Node000007"><a xlink:title=" ">
<path fill="none" stroke="#63b8ff" d="M153.09,-122.25C144.76,-122.25 136.46,-122.25 129.04,-122.25"/>
<polygon fill="#63b8ff" stroke="#63b8ff" points="152.88,-125.75 162.88,-122.25 152.88,-118.75 152.88,-125.75"/>
</a>
</g>
</g>
<!-- Node8 -->
<g id="Node000008" class="node">
<title>Node8</title>
<g id="a_Node000008"><a xlink:href="client_2main_8cpp.html#a0ddf1224851353fc92bfbff6f499fa97" target="_top" xlink:title=" ">
<polygon fill="white" stroke="#666666" points="37,-112.88 0,-112.88 0,-93.62 37,-93.62 37,-112.88"/>
<text text-anchor="middle" x="18.5" y="-99.38" font-family="Helvetica,sans-Serif" font-size="10.00">main</text>
</a>
</g>
</g>
<!-- Node7&#45;&gt;Node8 -->
<g id="edge7_Node000007_Node000008" class="edge">
<title>Node7&#45;&gt;Node8</title>
<g id="a_edge7_Node000007_Node000008"><a xlink:title=" ">
<path fill="none" stroke="#63b8ff" d="M61.68,-113.22C53.18,-111.21 44.55,-109.17 37.34,-107.47"/>
<polygon fill="#63b8ff" stroke="#63b8ff" points="60.65,-116.57 71.19,-115.47 62.26,-109.76 60.65,-116.57"/>
</a>
</g>
</g>
<!-- Node9&#45;&gt;Node8 -->
<g id="edge9_Node000009_Node000008" class="edge">
<title>Node9&#45;&gt;Node8</title>
<g id="a_edge9_Node000009_Node000008"><a xlink:title=" ">
<path fill="none" stroke="#63b8ff" d="M550.68,-84.25C494.75,-84.25 404.96,-84.25 327.38,-84.25 327.38,-84.25 327.38,-84.25 206.25,-84.25 144,-84.25 70.69,-94.83 37.47,-100.2"/>
<polygon fill="#63b8ff" stroke="#63b8ff" points="550.58,-87.75 560.58,-84.25 550.58,-80.75 550.58,-87.75"/>
</a>
</g>
</g>
<!-- Node11 -->
<g id="Node000011" class="node">
<title>Node11</title>
<g id="a_Node000011"><a xlink:href="class_core.html#a9493dc851e77126a1bc9c005ec499159" target="_top" xlink:title=" ">
<polygon fill="white" stroke="#666666" points="1396.25,-105.88 1286.5,-105.88 1286.5,-86.62 1396.25,-86.62 1396.25,-105.88"/>
<text text-anchor="middle" x="1341.38" y="-92.38" font-family="Helvetica,sans-Serif" font-size="10.00">Core::control_system</text>
</a>
</g>
</g>
<!-- Node10&#45;&gt;Node11 -->
<g id="edge11_Node000010_Node000011" class="edge">
<title>Node10&#45;&gt;Node11</title>
<g id="a_edge11_Node000010_Node000011"><a xlink:title=" ">
<path fill="none" stroke="#63b8ff" d="M1424.43,-119.5C1408.39,-114.95 1391.84,-110.26 1377.84,-106.3"/>
<polygon fill="#63b8ff" stroke="#63b8ff" points="1423.39,-122.84 1433.97,-122.2 1425.3,-116.1 1423.39,-122.84"/>
</a>
</g>
</g>
<!-- Node12 -->
<g id="Node000012" class="node">
<title>Node12</title>
<g id="a_Node000012"><a xlink:href="class_core.html#a42623cce6be1bf30af3a1bca1ed73ed6" target="_top" xlink:title=" ">
<polygon fill="white" stroke="#666666" points="1250.5,-110.88 1165.5,-110.88 1165.5,-91.62 1250.5,-91.62 1250.5,-110.88"/>
<text text-anchor="middle" x="1208" y="-97.38" font-family="Helvetica,sans-Serif" font-size="10.00">Core::gui_game</text>
</a>
</g>
</g>
<!-- Node11&#45;&gt;Node12 -->
<g id="edge12_Node000011_Node000012" class="edge">
<title>Node11&#45;&gt;Node12</title>
<g id="a_edge12_Node000011_Node000012"><a xlink:title=" ">
<path fill="none" stroke="#63b8ff" d="M1274.95,-98.74C1266.67,-99.06 1258.39,-99.37 1250.62,-99.67"/>
<polygon fill="#63b8ff" stroke="#63b8ff" points="1274.81,-102.25 1284.67,-98.37 1274.54,-95.25 1274.81,-102.25"/>
</a>
</g>
</g>
<!-- Node12&#45;&gt;Node9 -->
<g id="edge17_Node000012_Node000009" class="edge">
<title>Node12&#45;&gt;Node9</title>
<g id="a_edge17_Node000012_Node000009"><a xlink:title=" ">
<path fill="none" stroke="#63b8ff" d="M1157.87,-88.81C1148.51,-86.91 1138.75,-85.25 1129.5,-84.25 952.25,-65.04 739.19,-75.32 649.72,-81.14"/>
<polygon fill="#63b8ff" stroke="#63b8ff" points="1157.04,-92.21 1167.55,-90.89 1158.52,-85.36 1157.04,-92.21"/>
</a>
</g>
</g>
<!-- Node13 -->
<g id="Node000013" class="node">
<title>Node13</title>
<g id="a_Node000013"><a xlink:href="class_core.html#a3b2840725a18b5e49614dd429f449289" target="_top" xlink:title=" ">
<polygon fill="white" stroke="#666666" points="1129.5,-112.88 992,-112.88 992,-93.62 1129.5,-93.62 1129.5,-112.88"/>
<text text-anchor="middle" x="1060.75" y="-99.38" font-family="Helvetica,sans-Serif" font-size="10.00">Core::handleStartCommand</text>
</a>
</g>
</g>
<!-- Node12&#45;&gt;Node13 -->
<g id="edge13_Node000012_Node000013" class="edge">
<title>Node12&#45;&gt;Node13</title>
<g id="a_edge13_Node000012_Node000013"><a xlink:title=" ">
<path fill="none" stroke="#63b8ff" d="M1153.88,-101.98C1146.1,-102.09 1138,-102.2 1129.98,-102.31"/>
<polygon fill="#63b8ff" stroke="#63b8ff" points="1153.91,-105.48 1163.86,-101.84 1153.82,-98.48 1153.91,-105.48"/>
</a>
</g>
</g>
<!-- Node14 -->
<g id="Node000014" class="node">
<title>Node14</title>
<g id="a_Node000014"><a xlink:href="class_core.html#aae2b137a9885ae1ac3d740786cfdcb34" target="_top" xlink:title=" ">
<polygon fill="white" stroke="#666666" points="956,-131.88 805.75,-131.88 805.75,-112.62 956,-112.62 956,-131.88"/>
<text text-anchor="middle" x="880.88" y="-118.38" font-family="Helvetica,sans-Serif" font-size="10.00">Core::handleServerCommands</text>
</a>
</g>
</g>
<!-- Node13&#45;&gt;Node14 -->
<g id="edge14_Node000013_Node000014" class="edge">
<title>Node13&#45;&gt;Node14</title>
<g id="a_edge14_Node000013_Node000014"><a xlink:title=" ">
<path fill="none" stroke="#63b8ff" d="M980.49,-111.72C972.47,-112.57 964.34,-113.44 956.36,-114.29"/>
<polygon fill="#63b8ff" stroke="#63b8ff" points="980.67,-115.22 990.24,-110.68 979.92,-108.26 980.67,-115.22"/>
</a>
</g>
</g>
<!-- Node14&#45;&gt;Node2 -->
<g id="edge16_Node000014_Node000002" class="edge">
<title>Node14&#45;&gt;Node2</title>
<g id="a_edge16_Node000014_Node000002"><a xlink:title=" ">
<path fill="none" stroke="#63b8ff" d="M794.12,-122.25C785.76,-122.25 777.57,-122.25 769.97,-122.25"/>
<polygon fill="#63b8ff" stroke="#63b8ff" points="794.07,-125.75 804.07,-122.25 794.07,-118.75 794.07,-125.75"/>
</a>
</g>
</g>
<!-- Node14&#45;&gt;Node12 -->
<g id="edge15_Node000014_Node000012" class="edge">
<title>Node14&#45;&gt;Node12</title>
<g id="a_edge15_Node000014_Node000012"><a xlink:title=" ">
<path fill="none" stroke="#63b8ff" d="M967.69,-127.8C1015.52,-129.51 1076.04,-129.36 1129.5,-122.25 1145.53,-120.12 1162.94,-115.61 1177.2,-111.31"/>
<polygon fill="#63b8ff" stroke="#63b8ff" points="968.08,-124.31 957.95,-127.42 967.8,-131.31 968.08,-124.31"/>
</a>
</g>
</g>
<!-- Node15&#45;&gt;Node11 -->
<g id="edge19_Node000015_Node000011" class="edge">
<title>Node15&#45;&gt;Node11</title>
<g id="a_edge19_Node000015_Node000011"><a xlink:title=" ">
<path fill="none" stroke="#63b8ff" d="M1429.63,-95.66C1418.68,-95.74 1407.34,-95.81 1396.6,-95.88"/>
<polygon fill="#63b8ff" stroke="#63b8ff" points="1429.36,-99.16 1439.33,-95.6 1429.31,-92.16 1429.36,-99.16"/>
</a>
</g>
</g>
<!-- Node17&#45;&gt;Node11 -->
<g id="edge22_Node000017_Node000011" class="edge">
<title>Node17&#45;&gt;Node11</title>
<g id="a_edge22_Node000017_Node000011"><a xlink:title=" ">
<path fill="none" stroke="#63b8ff" d="M1439.59,-35.61C1437.09,-36.8 1434.63,-38.02 1432.25,-39.25 1404.35,-53.69 1373.87,-74.09 1356.54,-86.16"/>
<polygon fill="#63b8ff" stroke="#63b8ff" points="1440.98,-38.82 1448.63,-31.5 1438.08,-32.45 1440.98,-38.82"/>
</a>
</g>
</g>
</g>
</svg>

<g id="navigator" transform="translate(0 0)" fill="#404254">
  <rect fill="#f2f5e9" fill-opacity="0.5" stroke="#606060" stroke-width=".5" x="0" y="0" width="60" height="60"/>
  <use id="zoomplus" xlink:href="#zoomPlus" x="17" y="9" onmousedown="handleZoom(evt,'in')"/>
  <use id="zoomminus" xlink:href="#zoomMin" x="42" y="9" onmousedown="handleZoom(evt,'out')"/>
  <use id="reset" xlink:href="#resetDef" x="30" y="36" onmousedown="handleReset()"/>
   <use id="arrowup" xlink:href="#arrowUp" x="0" y="0" onmousedown="handlePan(0,-1)"/>
  <use id="arrowright" xlink:href="#arrowRight" x="0" y="0" onmousedown="handlePan(1,0)"/>
  <use id="arrowdown" xlink:href="#arrowDown" x="0" y="0" onmousedown="handlePan(0,1)"/>
  <use id="arrowleft" xlink:href="#arrowLeft" x="0" y="0" onmousedown="handlePan(-1,0)"/>
</g>
<svg viewBox="0 0 15 15" width="100%" height="30px" preserveAspectRatio="xMaxYMin meet">
 <g id="arrow_out" transform="scale(0.3 0.3)">
  <a xlink:href="class_core_a76ad333a648e0e20b1b12fb5a416774c_icgraph_org.svg" target="_base">
   <rect id="button" ry="5" rx="5" y="6" x="6" height="38" width="38"
        fill="#f2f5e9" fill-opacity="0.5" stroke="#606060" stroke-width="1.0"/>
   <path id="arrow"
     d="M 11.500037,31.436501 C 11.940474,20.09759 22.043105,11.32322 32.158766,21.979434 L 37.068811,17.246167 C 37.068811,17.246167 37.088388,32 37.088388,32 L 22.160133,31.978069 C 22.160133,31.978069 26.997745,27.140456 26.997745,27.140456 C 18.528582,18.264221 13.291696,25.230495 11.500037,31.436501 z"
     style="fill:#404040;"/>
  </a>
 </g>
</svg>

<style type='text/css'>
<![CDATA[
[data-mouse-over-selected='false'] { opacity: 0.7; }
[data-mouse-over-selected='true']  { opacity: 1.0; }
]]>
</style>
<script type="application/ecmascript"><![CDATA[
document.addEventListener('DOMContentLoaded', (event) => {
  highlightEdges();
  highlightAdjacentNodes();
});
]]></script>
</svg>
