<?xml version="1.0" encoding="UTF-8" standalone="no"?>
<!DOCTYPE svg PUBLIC "-//W3C//DTD SVG 1.1//EN"
 "http://www.w3.org/Graphics/SVG/1.1/DTD/svg11.dtd">
<!-- Generated by graphviz version 12.2.1 (20241206.2353)
 -->
<!-- Title: Core::loadDaltonismShader Pages: 1 -->
<!--zoomable 138 -->

<svg id="main" version="1.1" xmlns="http://www.w3.org/2000/svg" xmlns:xlink="http://www.w3.org/1999/xlink" xml:space="preserve" onload="init(evt)">

<style type="text/css"><![CDATA[
.node, .edge {opacity: 0.7;}
.node.selected, .edge.selected {opacity: 1;}
.edge:hover path { stroke: red; }
.edge:hover polygon { stroke: red; fill: red; }
]]></style>

<defs>
  <circle id="rim" cx="0" cy="0" r="7"/>
  <circle id="rim2" cx="0" cy="0" r="3.5"/>
  <g id="zoomPlus">
    <use xlink:href="#rim" fill="#404040"><set attributeName="fill" to="#808080" begin="zoomplus.mouseover" end="zoomplus.mouseout"/></use>
    <path d="M-4,0h8M0,-4v8" fill="none" stroke="white" stroke-width="1.5" pointer-events="none"/>
  </g>
  <g id="zoomMin">
    <use xlink:href="#rim" fill="#404040"><set attributeName="fill" to="#808080" begin="zoomminus.mouseover" end="zoomminus.mouseout"/></use>
    <path d="M-4,0h8" fill="none" stroke="white" stroke-width="1.5" pointer-events="none"/>
  </g>
  <g id="arrowUp" transform="translate(30 24)">
    <use xlink:href="#rim"/>
    <path pointer-events="none" fill="none" stroke="white" stroke-width="1.5" d="M0,-3.0v7 M-2.5,-0.5L0,-3.0L2.5,-0.5"/>
  </g>
  <g id="arrowRight" transform="rotate(90) translate(36 -43)">
    <use xlink:href="#rim"/>
    <path pointer-events="none" fill="none" stroke="white" stroke-width="1.5" d="M0,-3.0v7 M-2.5,-0.5L0,-3.0L2.5,-0.5"/>
  </g>
  <g id="arrowDown" transform="rotate(180) translate(-30 -48)">
    <use xlink:href="#rim"/>
    <path pointer-events="none" fill="none" stroke="white" stroke-width="1.5" d="M0,-3.0v7 M-2.5,-0.5L0,-3.0L2.5,-0.5"/>
  </g>
  <g id="arrowLeft" transform="rotate(270) translate(-36 17)">
    <use xlink:href="#rim"/>
    <path pointer-events="none" fill="none" stroke="white" stroke-width="1.5" d="M0,-3.0v7 M-2.5,-0.5L0,-3.0L2.5,-0.5"/>
  </g>
  <g id="resetDef">
    <use xlink:href="#rim2" fill="#404040"><set attributeName="fill" to="#808080" begin="reset.mouseover" end="reset.mouseout"/></use>
  </g>
</defs>
<script type="application/ecmascript">
var viewWidth = 1431;
var viewHeight = 138;
var sectionId = 'dynsection-74';
</script>
<script type="application/ecmascript" xlink:href="svg.min.js"/>
<svg id="graph" class="graph">
<g id="viewport">
<title>Core::loadDaltonismShader</title>
<!-- Node1 -->
<g id="Node000001" class="node">
<title>Node1</title>
<g id="a_Node000001"><a xlink:title=" ">
<polygon fill="#999999" stroke="#666666" points="1422.5,-57.25 1286.5,-57.25 1286.5,-38 1422.5,-38 1422.5,-57.25"/>
<text text-anchor="middle" x="1354.5" y="-43.75" font-family="Helvetica,sans-Serif" font-size="10.00">Core::loadDaltonismShader</text>
</a>
</g>
</g>
<!-- Node2 -->
<g id="Node000002" class="node">
<title>Node2</title>
<g id="a_Node000002"><a xlink:href="class_core.html#a42623cce6be1bf30af3a1bca1ed73ed6" target="_top" xlink:title=" ">
<polygon fill="white" stroke="#666666" points="1250.5,-76.25 1165.5,-76.25 1165.5,-57 1250.5,-57 1250.5,-76.25"/>
<text text-anchor="middle" x="1208" y="-62.75" font-family="Helvetica,sans-Serif" font-size="10.00">Core::gui_game</text>
</a>
</g>
</g>
<!-- Node1&#45;&gt;Node2 -->
<g id="edge1_Node000001_Node000002" class="edge">
<title>Node1&#45;&gt;Node2</title>
<g id="a_edge1_Node000001_Node000002"><a xlink:title=" ">
<path fill="none" stroke="#63b8ff" d="M1274.98,-57.95C1266.68,-59.04 1258.49,-60.12 1250.86,-61.12"/>
<polygon fill="#63b8ff" stroke="#63b8ff" points="1275.37,-61.43 1284.83,-56.65 1274.45,-54.49 1275.37,-61.43"/>
</a>
</g>
</g>
<!-- Node13 -->
<g id="Node000013" class="node">
<title>Node13</title>
<g id="a_Node000013"><a xlink:href="class_core.html#a740b86b14dc5a3d314b1ef4122c18977" target="_top" xlink:title=" ">
<polygon fill="white" stroke="#666666" points="1104.38,-19.25 1017.12,-19.25 1017.12,0 1104.38,0 1104.38,-19.25"/>
<text text-anchor="middle" x="1060.75" y="-5.75" font-family="Helvetica,sans-Serif" font-size="10.00">Core::gui_option</text>
</a>
</g>
</g>
<!-- Node1&#45;&gt;Node13 -->
<g id="edge15_Node000001_Node000013" class="edge">
<title>Node1&#45;&gt;Node13</title>
<g id="a_edge15_Node000001_Node000013"><a xlink:title=" ">
<path fill="none" stroke="#63b8ff" d="M1274.8,-37.37C1220.13,-30.25 1149.37,-21.04 1104.75,-15.23"/>
<polygon fill="#63b8ff" stroke="#63b8ff" points="1274.33,-40.84 1284.7,-38.66 1275.24,-33.9 1274.33,-40.84"/>
</a>
</g>
</g>
<!-- Node3 -->
<g id="Node000003" class="node">
<title>Node3</title>
<g id="a_Node000003"><a xlink:href="class_core.html#a3b2840725a18b5e49614dd429f449289" target="_top" xlink:title=" ">
<polygon fill="white" stroke="#666666" points="1129.5,-95.25 992,-95.25 992,-76 1129.5,-76 1129.5,-95.25"/>
<text text-anchor="middle" x="1060.75" y="-81.75" font-family="Helvetica,sans-Serif" font-size="10.00">Core::handleStartCommand</text>
</a>
</g>
</g>
<!-- Node2&#45;&gt;Node3 -->
<g id="edge2_Node000002_Node000003" class="edge">
<title>Node2&#45;&gt;Node3</title>
<g id="a_edge2_Node000002_Node000003"><a xlink:title=" ">
<path fill="none" stroke="#63b8ff" d="M1154.15,-73.54C1146.29,-74.57 1138.1,-75.64 1129.98,-76.7"/>
<polygon fill="#63b8ff" stroke="#63b8ff" points="1154.41,-77.03 1163.88,-72.27 1153.51,-70.09 1154.41,-77.03"/>
</a>
</g>
</g>
<!-- Node12 -->
<g id="Node000012" class="node">
<title>Node12</title>
<g id="a_Node000012"><a xlink:href="class_core.html#afe1c190b0d03ded99b7408538b16998c" target="_top" xlink:title=" ">
<polygon fill="white" stroke="#666666" points="649.5,-118.25 562.25,-118.25 562.25,-99 649.5,-99 649.5,-118.25"/>
<text text-anchor="middle" x="605.88" y="-104.75" font-family="Helvetica,sans-Serif" font-size="10.00">Core::login_auto</text>
</a>
</g>
</g>
<!-- Node2&#45;&gt;Node12 -->
<g id="edge14_Node000002_Node000012" class="edge">
<title>Node2&#45;&gt;Node12</title>
<g id="a_edge14_Node000002_Node000012"><a xlink:title=" ">
<path fill="none" stroke="#63b8ff" d="M1181.95,-82.49C1167.28,-90.85 1148.04,-100.25 1129.5,-104.62 955.75,-145.63 740.37,-125.97 649.98,-114.67"/>
<polygon fill="#63b8ff" stroke="#63b8ff" points="1183.64,-85.56 1190.45,-77.45 1180.07,-79.54 1183.64,-85.56"/>
</a>
</g>
</g>
<!-- Node4 -->
<g id="Node000004" class="node">
<title>Node4</title>
<g id="a_Node000004"><a xlink:href="class_core.html#aae2b137a9885ae1ac3d740786cfdcb34" target="_top" xlink:title=" ">
<polygon fill="white" stroke="#666666" points="956,-86.25 805.75,-86.25 805.75,-67 956,-67 956,-86.25"/>
<text text-anchor="middle" x="880.88" y="-72.75" font-family="Helvetica,sans-Serif" font-size="10.00">Core::handleServerCommands</text>
</a>
</g>
</g>
<!-- Node3&#45;&gt;Node4 -->
<g id="edge3_Node000003_Node000004" class="edge">
<title>Node3&#45;&gt;Node4</title>
<g id="a_edge3_Node000003_Node000004"><a xlink:title=" ">
<path fill="none" stroke="#63b8ff" d="M980.49,-81.61C972.47,-81.21 964.34,-80.8 956.36,-80.39"/>
<polygon fill="#63b8ff" stroke="#63b8ff" points="980.07,-85.1 990.23,-82.11 980.42,-78.11 980.07,-85.1"/>
</a>
</g>
</g>
<!-- Node4&#45;&gt;Node2 -->
<g id="edge4_Node000004_Node000002" class="edge">
<title>Node4&#45;&gt;Node2</title>
<g id="a_edge4_Node000004_Node000002"><a xlink:title=" ">
<path fill="none" stroke="#63b8ff" d="M967.92,-68.06C976.06,-67.47 984.18,-66.98 992,-66.62 1052.22,-63.9 1122.03,-64.61 1165.36,-65.51"/>
<polygon fill="#63b8ff" stroke="#63b8ff" points="967.67,-64.57 957.96,-68.82 968.2,-71.55 967.67,-64.57"/>
</a>
</g>
</g>
<!-- Node5 -->
<g id="Node000005" class="node">
<title>Node5</title>
<g id="a_Node000005"><a xlink:href="class_core.html#ab5c7da5be504f0f34380b1ca5b97924b" target="_top" xlink:title=" ">
<polygon fill="white" stroke="#666666" points="769.75,-86.25 685.5,-86.25 685.5,-67 769.75,-67 769.75,-86.25"/>
<text text-anchor="middle" x="727.62" y="-72.75" font-family="Helvetica,sans-Serif" font-size="10.00">Core::gui_lobby</text>
</a>
</g>
</g>
<!-- Node4&#45;&gt;Node5 -->
<g id="edge5_Node000004_Node000005" class="edge">
<title>Node4&#45;&gt;Node5</title>
<g id="a_edge5_Node000004_Node000005"><a xlink:title=" ">
<path fill="none" stroke="#63b8ff" d="M794.12,-76.62C785.76,-76.62 777.57,-76.62 769.97,-76.62"/>
<polygon fill="#63b8ff" stroke="#63b8ff" points="794.07,-80.13 804.07,-76.63 794.07,-73.13 794.07,-80.13"/>
</a>
</g>
</g>
<!-- Node6 -->
<g id="Node000006" class="node">
<title>Node6</title>
<g id="a_Node000006"><a xlink:href="class_core.html#ae373e5e53d26163bfc20d236fd116f89" target="_top" xlink:title=" ">
<polygon fill="white" stroke="#666666" points="637.5,-81.25 574.25,-81.25 574.25,-62 637.5,-62 637.5,-81.25"/>
<text text-anchor="middle" x="605.88" y="-67.75" font-family="Helvetica,sans-Serif" font-size="10.00">Core::login</text>
</a>
</g>
</g>
<!-- Node5&#45;&gt;Node6 -->
<g id="edge6_Node000005_Node000006" class="edge">
<title>Node5&#45;&gt;Node6</title>
<g id="a_edge6_Node000005_Node000006"><a xlink:title=" ">
<path fill="none" stroke="#63b8ff" d="M673.92,-74.42C661.57,-73.91 648.81,-73.38 637.77,-72.92"/>
<polygon fill="#63b8ff" stroke="#63b8ff" points="673.43,-77.91 683.57,-74.83 673.72,-70.91 673.43,-77.91"/>
</a>
</g>
</g>
<!-- Node5&#45;&gt;Node12 -->
<g id="edge12_Node000005_Node000012" class="edge">
<title>Node5&#45;&gt;Node12</title>
<g id="a_edge12_Node000005_Node000012"><a xlink:title=" ">
<path fill="none" stroke="#63b8ff" d="M677.85,-89.66C666.74,-92.63 655.09,-95.74 644.52,-98.57"/>
<polygon fill="#63b8ff" stroke="#63b8ff" points="678.52,-93.1 687.27,-87.14 676.71,-86.34 678.52,-93.1"/>
</a>
</g>
</g>
<!-- Node7 -->
<g id="Node000007" class="node">
<title>Node7</title>
<g id="a_Node000007"><a xlink:href="class_core.html#a245f461d8f0f1feaa8b126f329c7db22" target="_top" xlink:title=" ">
<polygon fill="white" stroke="#666666" points="526.25,-80.25 403,-80.25 403,-61 526.25,-61 526.25,-80.25"/>
<text text-anchor="middle" x="464.62" y="-66.75" font-family="Helvetica,sans-Serif" font-size="10.00">Core::handleMouseClick</text>
</a>
</g>
</g>
<!-- Node6&#45;&gt;Node7 -->
<g id="edge7_Node000006_Node000007" class="edge">
<title>Node6&#45;&gt;Node7</title>
<g id="a_edge7_Node000006_Node000007"><a xlink:title=" ">
<path fill="none" stroke="#63b8ff" d="M562.65,-71.32C551.32,-71.24 538.84,-71.15 526.71,-71.06"/>
<polygon fill="#63b8ff" stroke="#63b8ff" points="562.43,-74.82 572.46,-71.39 562.48,-67.82 562.43,-74.82"/>
</a>
</g>
</g>
<!-- Node8 -->
<g id="Node000008" class="node">
<title>Node8</title>
<g id="a_Node000008"><a xlink:href="class_core.html#a1460b7116a24aa8c866c33c4f16bd5a4" target="_top" xlink:title=" ">
<polygon fill="white" stroke="#666666" points="367,-80.25 285.75,-80.25 285.75,-61 367,-61 367,-80.25"/>
<text text-anchor="middle" x="326.38" y="-66.75" font-family="Helvetica,sans-Serif" font-size="10.00">Core::gui_login</text>
</a>
</g>
</g>
<!-- Node7&#45;&gt;Node8 -->
<g id="edge8_Node000007_Node000008" class="edge">
<title>Node7&#45;&gt;Node8</title>
<g id="a_edge8_Node000007_Node000008"><a xlink:title=" ">
<path fill="none" stroke="#63b8ff" d="M391.34,-70.62C383.03,-70.62 374.8,-70.62 367.16,-70.62"/>
<polygon fill="#63b8ff" stroke="#63b8ff" points="391.16,-74.13 401.16,-70.63 391.16,-67.13 391.16,-74.13"/>
</a>
</g>
</g>
<!-- Node9 -->
<g id="Node000009" class="node">
<title>Node9</title>
<g id="a_Node000009"><a xlink:href="class_core.html#a78dfa9b9ed54a7ba8cfe1be701b79feb" target="_top" xlink:title=" ">
<polygon fill="white" stroke="#666666" points="249.75,-80.25 164.75,-80.25 164.75,-61 249.75,-61 249.75,-80.25"/>
<text text-anchor="middle" x="207.25" y="-66.75" font-family="Helvetica,sans-Serif" font-size="10.00">Core::gui_menu</text>
</a>
</g>
</g>
<!-- Node8&#45;&gt;Node9 -->
<g id="edge9_Node000008_Node000009" class="edge">
<title>Node8&#45;&gt;Node9</title>
<g id="a_edge9_Node000008_Node000009"><a xlink:title=" ">
<path fill="none" stroke="#63b8ff" d="M273.91,-70.62C265.93,-70.62 257.78,-70.62 250.05,-70.62"/>
<polygon fill="#63b8ff" stroke="#63b8ff" points="273.88,-74.13 283.88,-70.63 273.88,-67.13 273.88,-74.13"/>
</a>
</g>
</g>
<!-- Node10 -->
<g id="Node000010" class="node">
<title>Node10</title>
<g id="a_Node000010"><a xlink:href="class_core.html#aa6045a2323610bfa0ee712b028eb43e4" target="_top" xlink:title=" ">
<polygon fill="white" stroke="#666666" points="128.75,-80.25 73,-80.25 73,-61 128.75,-61 128.75,-80.25"/>
<text text-anchor="middle" x="100.88" y="-66.75" font-family="Helvetica,sans-Serif" font-size="10.00">Core::gui</text>
</a>
</g>
</g>
<!-- Node9&#45;&gt;Node10 -->
<g id="edge10_Node000009_Node000010" class="edge">
<title>Node9&#45;&gt;Node10</title>
<g id="a_edge10_Node000009_Node000010"><a xlink:title=" ">
<path fill="none" stroke="#63b8ff" d="M153.09,-70.62C144.76,-70.62 136.46,-70.62 129.04,-70.62"/>
<polygon fill="#63b8ff" stroke="#63b8ff" points="152.88,-74.13 162.88,-70.63 152.88,-67.13 152.88,-74.13"/>
</a>
</g>
</g>
<!-- Node11 -->
<g id="Node000011" class="node">
<title>Node11</title>
<g id="a_Node000011"><a xlink:href="client_2main_8cpp.html#a0ddf1224851353fc92bfbff6f499fa97" target="_top" xlink:title=" ">
<polygon fill="white" stroke="#666666" points="37,-99.25 0,-99.25 0,-80 37,-80 37,-99.25"/>
<text text-anchor="middle" x="18.5" y="-85.75" font-family="Helvetica,sans-Serif" font-size="10.00">main</text>
</a>
</g>
</g>
<!-- Node10&#45;&gt;Node11 -->
<g id="edge11_Node000010_Node000011" class="edge">
<title>Node10&#45;&gt;Node11</title>
<g id="a_edge11_Node000010_Node000011"><a xlink:title=" ">
<path fill="none" stroke="#63b8ff" d="M61.68,-79.65C53.18,-81.66 44.55,-83.7 37.34,-85.41"/>
<polygon fill="#63b8ff" stroke="#63b8ff" points="62.26,-83.11 71.19,-77.41 60.65,-76.3 62.26,-83.11"/>
</a>
</g>
</g>
<!-- Node12&#45;&gt;Node11 -->
<g id="edge13_Node000012_Node000011" class="edge">
<title>Node12&#45;&gt;Node11</title>
<g id="a_edge13_Node000012_Node000011"><a xlink:title=" ">
<path fill="none" stroke="#63b8ff" d="M550.68,-108.62C494.75,-108.62 404.96,-108.63 327.38,-108.62 327.38,-108.62 327.38,-108.62 206.25,-108.62 144,-108.62 70.69,-98.05 37.47,-92.68"/>
<polygon fill="#63b8ff" stroke="#63b8ff" points="550.58,-112.13 560.58,-108.63 550.58,-105.13 550.58,-112.13"/>
</a>
</g>
</g>
<!-- Node13&#45;&gt;Node9 -->
<g id="edge16_Node000013_Node000009" class="edge">
<title>Node13&#45;&gt;Node9</title>
<g id="a_edge16_Node000013_Node000009"><a xlink:title=" ">
<path fill="none" stroke="#63b8ff" d="M1005.34,-10.95C939.73,-12.43 826.12,-14.63 728.62,-14.62 728.62,-14.62 728.62,-14.62 463.62,-14.62 378.75,-14.63 281.61,-44.51 235.41,-60.61"/>
<polygon fill="#63b8ff" stroke="#63b8ff" points="1005.2,-14.45 1015.11,-10.73 1005.04,-7.46 1005.2,-14.45"/>
</a>
</g>
</g>
</g>
</svg>

<g id="navigator" transform="translate(0 0)" fill="#404254">
  <rect fill="#f2f5e9" fill-opacity="0.5" stroke="#606060" stroke-width=".5" x="0" y="0" width="60" height="60"/>
  <use id="zoomplus" xlink:href="#zoomPlus" x="17" y="9" onmousedown="handleZoom(evt,'in')"/>
  <use id="zoomminus" xlink:href="#zoomMin" x="42" y="9" onmousedown="handleZoom(evt,'out')"/>
  <use id="reset" xlink:href="#resetDef" x="30" y="36" onmousedown="handleReset()"/>
   <use id="arrowup" xlink:href="#arrowUp" x="0" y="0" onmousedown="handlePan(0,-1)"/>
  <use id="arrowright" xlink:href="#arrowRight" x="0" y="0" onmousedown="handlePan(1,0)"/>
  <use id="arrowdown" xlink:href="#arrowDown" x="0" y="0" onmousedown="handlePan(0,1)"/>
  <use id="arrowleft" xlink:href="#arrowLeft" x="0" y="0" onmousedown="handlePan(-1,0)"/>
</g>
<svg viewBox="0 0 15 15" width="100%" height="30px" preserveAspectRatio="xMaxYMin meet">
 <g id="arrow_out" transform="scale(0.3 0.3)">
  <a xlink:href="class_core_a87bcabef342dd958994c72d7a6f90893_icgraph_org.svg" target="_base">
   <rect id="button" ry="5" rx="5" y="6" x="6" height="38" width="38"
        fill="#f2f5e9" fill-opacity="0.5" stroke="#606060" stroke-width="1.0"/>
   <path id="arrow"
     d="M 11.500037,31.436501 C 11.940474,20.09759 22.043105,11.32322 32.158766,21.979434 L 37.068811,17.246167 C 37.068811,17.246167 37.088388,32 37.088388,32 L 22.160133,31.978069 C 22.160133,31.978069 26.997745,27.140456 26.997745,27.140456 C 18.528582,18.264221 13.291696,25.230495 11.500037,31.436501 z"
     style="fill:#404040;"/>
  </a>
 </g>
</svg>

<style type='text/css'>
<![CDATA[
[data-mouse-over-selected='false'] { opacity: 0.7; }
[data-mouse-over-selected='true']  { opacity: 1.0; }
]]>
</style>
<script type="application/ecmascript"><![CDATA[
document.addEventListener('DOMContentLoaded', (event) => {
  highlightEdges();
  highlightAdjacentNodes();
});
]]></script>
</svg>
