<?xml version="1.0" encoding="UTF-8" standalone="no"?>
<!DOCTYPE svg PUBLIC "-//W3C//DTD SVG 1.1//EN"
 "http://www.w3.org/Graphics/SVG/1.1/DTD/svg11.dtd">
<!-- Generated by graphviz version 12.2.1 (20241206.2353)
 -->
<!-- Title: Core::handle_horizontal_stop Pages: 1 -->
<svg width="1738pt" height="103pt"
 viewBox="0.00 0.00 1737.75 103.25" xmlns="http://www.w3.org/2000/svg" xmlns:xlink="http://www.w3.org/1999/xlink">
<g id="graph0" class="graph" transform="scale(1 1) rotate(0) translate(4 99.25)">
<title>Core::handle_horizontal_stop</title>
<!-- Node1 -->
<g id="Node000001" class="node">
<title>Node1</title>
<g id="a_Node000001"><a xlink:title=" ">
<polygon fill="#999999" stroke="#666666" points="1729.75,-57.25 1587,-57.25 1587,-38 1729.75,-38 1729.75,-57.25"/>
<text text-anchor="middle" x="1658.38" y="-43.75" font-family="Helvetica,sans-Serif" font-size="10.00">Core::handle_horizontal_stop</text>
</a>
</g>
</g>
<!-- Node2 -->
<g id="Node000002" class="node">
<title>Node2</title>
<g id="a_Node000002"><a xlink:href="class_core.html#a63200a1cc9505da6942f9bd7642df237" target="_top" xlink:title=" ">
<polygon fill="white" stroke="#666666" points="1551,-62.88 1432.25,-62.88 1432.25,-32.38 1551,-32.38 1551,-62.88"/>
<text text-anchor="start" x="1440.25" y="-49.38" font-family="Helvetica,sans-Serif" font-size="10.00">Core::handle_horizontal</text>
<text text-anchor="middle" x="1491.62" y="-38.12" font-family="Helvetica,sans-Serif" font-size="10.00">_movement</text>
</a>
</g>
</g>
<!-- Node1&#45;&gt;Node2 -->
<g id="edge1_Node000001_Node000002" class="edge">
<title>Node1&#45;&gt;Node2</title>
<g id="a_edge1_Node000001_Node000002"><a xlink:title=" ">
<path fill="none" stroke="#63b8ff" d="M1575.17,-47.62C1567.1,-47.62 1559.02,-47.62 1551.25,-47.62"/>
<polygon fill="#63b8ff" stroke="#63b8ff" points="1575.04,-51.13 1585.04,-47.63 1575.04,-44.13 1575.04,-51.13"/>
</a>
</g>
</g>
<!-- Node3 -->
<g id="Node000003" class="node">
<title>Node3</title>
<g id="a_Node000003"><a xlink:href="class_core.html#a9493dc851e77126a1bc9c005ec499159" target="_top" xlink:title=" ">
<polygon fill="white" stroke="#666666" points="1396.25,-57.25 1286.5,-57.25 1286.5,-38 1396.25,-38 1396.25,-57.25"/>
<text text-anchor="middle" x="1341.38" y="-43.75" font-family="Helvetica,sans-Serif" font-size="10.00">Core::control_system</text>
</a>
</g>
</g>
<!-- Node2&#45;&gt;Node3 -->
<g id="edge2_Node000002_Node000003" class="edge">
<title>Node2&#45;&gt;Node3</title>
<g id="a_edge2_Node000002_Node000003"><a xlink:title=" ">
<path fill="none" stroke="#63b8ff" d="M1420.71,-47.62C1412.64,-47.62 1404.5,-47.62 1396.68,-47.62"/>
<polygon fill="#63b8ff" stroke="#63b8ff" points="1420.52,-51.13 1430.52,-47.63 1420.52,-44.13 1420.52,-51.13"/>
</a>
</g>
</g>
<!-- Node4 -->
<g id="Node000004" class="node">
<title>Node4</title>
<g id="a_Node000004"><a xlink:href="class_core.html#a42623cce6be1bf30af3a1bca1ed73ed6" target="_top" xlink:title=" ">
<polygon fill="white" stroke="#666666" points="1250.5,-57.25 1165.5,-57.25 1165.5,-38 1250.5,-38 1250.5,-57.25"/>
<text text-anchor="middle" x="1208" y="-43.75" font-family="Helvetica,sans-Serif" font-size="10.00">Core::gui_game</text>
</a>
</g>
</g>
<!-- Node3&#45;&gt;Node4 -->
<g id="edge3_Node000003_Node000004" class="edge">
<title>Node3&#45;&gt;Node4</title>
<g id="a_edge3_Node000003_Node000004"><a xlink:title=" ">
<path fill="none" stroke="#63b8ff" d="M1274.95,-47.62C1266.67,-47.62 1258.39,-47.62 1250.62,-47.62"/>
<polygon fill="#63b8ff" stroke="#63b8ff" points="1274.67,-51.13 1284.67,-47.63 1274.67,-44.13 1274.67,-51.13"/>
</a>
</g>
</g>
<!-- Node5 -->
<g id="Node000005" class="node">
<title>Node5</title>
<g id="a_Node000005"><a xlink:href="class_core.html#a3b2840725a18b5e49614dd429f449289" target="_top" xlink:title=" ">
<polygon fill="white" stroke="#666666" points="1129.5,-95.25 992,-95.25 992,-76 1129.5,-76 1129.5,-95.25"/>
<text text-anchor="middle" x="1060.75" y="-81.75" font-family="Helvetica,sans-Serif" font-size="10.00">Core::handleStartCommand</text>
</a>
</g>
</g>
<!-- Node4&#45;&gt;Node5 -->
<g id="edge4_Node000004_Node000005" class="edge">
<title>Node4&#45;&gt;Node5</title>
<g id="a_edge4_Node000004_Node000005"><a xlink:title=" ">
<path fill="none" stroke="#63b8ff" d="M1157.45,-60.59C1138.75,-65.48 1117.76,-70.97 1100.22,-75.56"/>
<polygon fill="#63b8ff" stroke="#63b8ff" points="1158.2,-64.01 1166.99,-58.09 1156.43,-57.24 1158.2,-64.01"/>
</a>
</g>
</g>
<!-- Node14 -->
<g id="Node000014" class="node">
<title>Node14</title>
<g id="a_Node000014"><a xlink:href="class_core.html#afe1c190b0d03ded99b7408538b16998c" target="_top" xlink:title=" ">
<polygon fill="white" stroke="#666666" points="649.5,-19.25 562.25,-19.25 562.25,0 649.5,0 649.5,-19.25"/>
<text text-anchor="middle" x="605.88" y="-5.75" font-family="Helvetica,sans-Serif" font-size="10.00">Core::login_auto</text>
</a>
</g>
</g>
<!-- Node4&#45;&gt;Node14 -->
<g id="edge16_Node000004_Node000014" class="edge">
<title>Node4&#45;&gt;Node14</title>
<g id="a_edge16_Node000004_Node000014"><a xlink:title=" ">
<path fill="none" stroke="#63b8ff" d="M1153.93,-43.28C1103.14,-39.2 1024.37,-33.07 956,-28.62 845.76,-21.45 715.81,-14.88 649.89,-11.67"/>
<polygon fill="#63b8ff" stroke="#63b8ff" points="1153.51,-46.76 1163.76,-44.07 1154.08,-39.78 1153.51,-46.76"/>
</a>
</g>
</g>
<!-- Node6 -->
<g id="Node000006" class="node">
<title>Node6</title>
<g id="a_Node000006"><a xlink:href="class_core.html#aae2b137a9885ae1ac3d740786cfdcb34" target="_top" xlink:title=" ">
<polygon fill="white" stroke="#666666" points="956,-57.25 805.75,-57.25 805.75,-38 956,-38 956,-57.25"/>
<text text-anchor="middle" x="880.88" y="-43.75" font-family="Helvetica,sans-Serif" font-size="10.00">Core::handleServerCommands</text>
</a>
</g>
</g>
<!-- Node5&#45;&gt;Node6 -->
<g id="edge5_Node000005_Node000006" class="edge">
<title>Node5&#45;&gt;Node6</title>
<g id="a_edge5_Node000005_Node000006"><a xlink:title=" ">
<path fill="none" stroke="#63b8ff" d="M1001.32,-73.14C977.86,-68.13 951.18,-62.43 928.99,-57.69"/>
<polygon fill="#63b8ff" stroke="#63b8ff" points="1000.56,-76.56 1011.07,-75.23 1002.02,-69.71 1000.56,-76.56"/>
</a>
</g>
</g>
<!-- Node6&#45;&gt;Node4 -->
<g id="edge6_Node000006_Node000004" class="edge">
<title>Node6&#45;&gt;Node4</title>
<g id="a_edge6_Node000006_Node000004"><a xlink:title=" ">
<path fill="none" stroke="#63b8ff" d="M967.67,-47.62C1031.37,-47.62 1115.49,-47.62 1165.16,-47.62"/>
<polygon fill="#63b8ff" stroke="#63b8ff" points="967.94,-44.13 957.94,-47.63 967.94,-51.13 967.94,-44.13"/>
</a>
</g>
</g>
<!-- Node7 -->
<g id="Node000007" class="node">
<title>Node7</title>
<g id="a_Node000007"><a xlink:href="class_core.html#ab5c7da5be504f0f34380b1ca5b97924b" target="_top" xlink:title=" ">
<polygon fill="white" stroke="#666666" points="769.75,-57.25 685.5,-57.25 685.5,-38 769.75,-38 769.75,-57.25"/>
<text text-anchor="middle" x="727.62" y="-43.75" font-family="Helvetica,sans-Serif" font-size="10.00">Core::gui_lobby</text>
</a>
</g>
</g>
<!-- Node6&#45;&gt;Node7 -->
<g id="edge7_Node000006_Node000007" class="edge">
<title>Node6&#45;&gt;Node7</title>
<g id="a_edge7_Node000006_Node000007"><a xlink:title=" ">
<path fill="none" stroke="#63b8ff" d="M794.12,-47.62C785.76,-47.62 777.57,-47.62 769.97,-47.62"/>
<polygon fill="#63b8ff" stroke="#63b8ff" points="794.07,-51.13 804.07,-47.63 794.07,-44.13 794.07,-51.13"/>
</a>
</g>
</g>
<!-- Node8 -->
<g id="Node000008" class="node">
<title>Node8</title>
<g id="a_Node000008"><a xlink:href="class_core.html#ae373e5e53d26163bfc20d236fd116f89" target="_top" xlink:title=" ">
<polygon fill="white" stroke="#666666" points="637.5,-57.25 574.25,-57.25 574.25,-38 637.5,-38 637.5,-57.25"/>
<text text-anchor="middle" x="605.88" y="-43.75" font-family="Helvetica,sans-Serif" font-size="10.00">Core::login</text>
</a>
</g>
</g>
<!-- Node7&#45;&gt;Node8 -->
<g id="edge8_Node000007_Node000008" class="edge">
<title>Node7&#45;&gt;Node8</title>
<g id="a_edge8_Node000007_Node000008"><a xlink:title=" ">
<path fill="none" stroke="#63b8ff" d="M673.92,-47.62C661.57,-47.62 648.81,-47.62 637.77,-47.62"/>
<polygon fill="#63b8ff" stroke="#63b8ff" points="673.56,-51.13 683.56,-47.63 673.56,-44.13 673.56,-51.13"/>
</a>
</g>
</g>
<!-- Node7&#45;&gt;Node14 -->
<g id="edge14_Node000007_Node000014" class="edge">
<title>Node7&#45;&gt;Node14</title>
<g id="a_edge14_Node000007_Node000014"><a xlink:title=" ">
<path fill="none" stroke="#63b8ff" d="M684.21,-34.16C669.12,-29.38 652.4,-24.07 638.38,-19.62"/>
<polygon fill="#63b8ff" stroke="#63b8ff" points="682.82,-37.4 693.41,-37.08 684.93,-30.72 682.82,-37.4"/>
</a>
</g>
</g>
<!-- Node9 -->
<g id="Node000009" class="node">
<title>Node9</title>
<g id="a_Node000009"><a xlink:href="class_core.html#a245f461d8f0f1feaa8b126f329c7db22" target="_top" xlink:title=" ">
<polygon fill="white" stroke="#666666" points="526.25,-57.25 403,-57.25 403,-38 526.25,-38 526.25,-57.25"/>
<text text-anchor="middle" x="464.62" y="-43.75" font-family="Helvetica,sans-Serif" font-size="10.00">Core::handleMouseClick</text>
</a>
</g>
</g>
<!-- Node8&#45;&gt;Node9 -->
<g id="edge9_Node000008_Node000009" class="edge">
<title>Node8&#45;&gt;Node9</title>
<g id="a_edge9_Node000008_Node000009"><a xlink:title=" ">
<path fill="none" stroke="#63b8ff" d="M562.65,-47.62C551.32,-47.62 538.84,-47.62 526.71,-47.62"/>
<polygon fill="#63b8ff" stroke="#63b8ff" points="562.46,-51.13 572.46,-47.63 562.46,-44.13 562.46,-51.13"/>
</a>
</g>
</g>
<!-- Node10 -->
<g id="Node000010" class="node">
<title>Node10</title>
<g id="a_Node000010"><a xlink:href="class_core.html#a1460b7116a24aa8c866c33c4f16bd5a4" target="_top" xlink:title=" ">
<polygon fill="white" stroke="#666666" points="367,-57.25 285.75,-57.25 285.75,-38 367,-38 367,-57.25"/>
<text text-anchor="middle" x="326.38" y="-43.75" font-family="Helvetica,sans-Serif" font-size="10.00">Core::gui_login</text>
</a>
</g>
</g>
<!-- Node9&#45;&gt;Node10 -->
<g id="edge10_Node000009_Node000010" class="edge">
<title>Node9&#45;&gt;Node10</title>
<g id="a_edge10_Node000009_Node000010"><a xlink:title=" ">
<path fill="none" stroke="#63b8ff" d="M391.34,-47.62C383.03,-47.62 374.8,-47.62 367.16,-47.62"/>
<polygon fill="#63b8ff" stroke="#63b8ff" points="391.16,-51.13 401.16,-47.63 391.16,-44.13 391.16,-51.13"/>
</a>
</g>
</g>
<!-- Node11 -->
<g id="Node000011" class="node">
<title>Node11</title>
<g id="a_Node000011"><a xlink:href="class_core.html#a78dfa9b9ed54a7ba8cfe1be701b79feb" target="_top" xlink:title=" ">
<polygon fill="white" stroke="#666666" points="249.75,-57.25 164.75,-57.25 164.75,-38 249.75,-38 249.75,-57.25"/>
<text text-anchor="middle" x="207.25" y="-43.75" font-family="Helvetica,sans-Serif" font-size="10.00">Core::gui_menu</text>
</a>
</g>
</g>
<!-- Node10&#45;&gt;Node11 -->
<g id="edge11_Node000010_Node000011" class="edge">
<title>Node10&#45;&gt;Node11</title>
<g id="a_edge11_Node000010_Node000011"><a xlink:title=" ">
<path fill="none" stroke="#63b8ff" d="M273.91,-47.62C265.93,-47.62 257.78,-47.62 250.05,-47.62"/>
<polygon fill="#63b8ff" stroke="#63b8ff" points="273.88,-51.13 283.88,-47.63 273.88,-44.13 273.88,-51.13"/>
</a>
</g>
</g>
<!-- Node12 -->
<g id="Node000012" class="node">
<title>Node12</title>
<g id="a_Node000012"><a xlink:href="class_core.html#aa6045a2323610bfa0ee712b028eb43e4" target="_top" xlink:title=" ">
<polygon fill="white" stroke="#666666" points="128.75,-57.25 73,-57.25 73,-38 128.75,-38 128.75,-57.25"/>
<text text-anchor="middle" x="100.88" y="-43.75" font-family="Helvetica,sans-Serif" font-size="10.00">Core::gui</text>
</a>
</g>
</g>
<!-- Node11&#45;&gt;Node12 -->
<g id="edge12_Node000011_Node000012" class="edge">
<title>Node11&#45;&gt;Node12</title>
<g id="a_edge12_Node000011_Node000012"><a xlink:title=" ">
<path fill="none" stroke="#63b8ff" d="M153.09,-47.62C144.76,-47.62 136.46,-47.62 129.04,-47.62"/>
<polygon fill="#63b8ff" stroke="#63b8ff" points="152.88,-51.13 162.88,-47.63 152.88,-44.13 152.88,-51.13"/>
</a>
</g>
</g>
<!-- Node13 -->
<g id="Node000013" class="node">
<title>Node13</title>
<g id="a_Node000013"><a xlink:href="client_2main_8cpp.html#a0ddf1224851353fc92bfbff6f499fa97" target="_top" xlink:title=" ">
<polygon fill="white" stroke="#666666" points="37,-38.25 0,-38.25 0,-19 37,-19 37,-38.25"/>
<text text-anchor="middle" x="18.5" y="-24.75" font-family="Helvetica,sans-Serif" font-size="10.00">main</text>
</a>
</g>
</g>
<!-- Node12&#45;&gt;Node13 -->
<g id="edge13_Node000012_Node000013" class="edge">
<title>Node12&#45;&gt;Node13</title>
<g id="a_edge13_Node000012_Node000013"><a xlink:title=" ">
<path fill="none" stroke="#63b8ff" d="M61.68,-38.6C53.18,-36.59 44.55,-34.55 37.34,-32.84"/>
<polygon fill="#63b8ff" stroke="#63b8ff" points="60.65,-41.95 71.19,-40.84 62.26,-35.14 60.65,-41.95"/>
</a>
</g>
</g>
<!-- Node14&#45;&gt;Node13 -->
<g id="edge15_Node000014_Node000013" class="edge">
<title>Node14&#45;&gt;Node13</title>
<g id="a_edge15_Node000014_Node000013"><a xlink:title=" ">
<path fill="none" stroke="#63b8ff" d="M550.68,-9.63C494.75,-9.63 404.96,-9.63 327.38,-9.62 327.38,-9.62 327.38,-9.62 206.25,-9.62 144,-9.62 70.69,-20.2 37.47,-25.57"/>
<polygon fill="#63b8ff" stroke="#63b8ff" points="550.58,-13.13 560.58,-9.63 550.58,-6.13 550.58,-13.13"/>
</a>
</g>
</g>
</g>
</svg>
