<?xml version="1.0" encoding="UTF-8" standalone="no"?>
<!DOCTYPE svg PUBLIC "-//W3C//DTD SVG 1.1//EN"
 "http://www.w3.org/Graphics/SVG/1.1/DTD/svg11.dtd">
<!-- Generated by graphviz version 12.2.1 (20241206.2353)
 -->
<!-- Title: ServerGame::areAllPlayersDead Pages: 1 -->
<svg width="650pt" height="57pt"
 viewBox="0.00 0.00 649.50 56.50" xmlns="http://www.w3.org/2000/svg" xmlns:xlink="http://www.w3.org/1999/xlink">
<g id="graph0" class="graph" transform="scale(1 1) rotate(0) translate(4 52.5)">
<title>ServerGame::areAllPlayersDead</title>
<!-- Node1 -->
<g id="Node000001" class="node">
<title>Node1</title>
<g id="a_Node000001"><a xlink:title=" ">
<polygon fill="#999999" stroke="#666666" points="641.5,-24.88 483.75,-24.88 483.75,-5.63 641.5,-5.63 641.5,-24.88"/>
<text text-anchor="middle" x="562.62" y="-11.38" font-family="Helvetica,sans-Serif" font-size="10.00">ServerGame::areAllPlayersDead</text>
</a>
</g>
</g>
<!-- Node2 -->
<g id="Node000002" class="node">
<title>Node2</title>
<g id="a_Node000002"><a xlink:href="class_server_game.html#ac11805bef3774422a1b0235d47a7efed" target="_top" xlink:title=" ">
<polygon fill="white" stroke="#666666" points="447.75,-30.5 317.75,-30.5 317.75,0 447.75,0 447.75,-30.5"/>
<text text-anchor="start" x="325.75" y="-17" font-family="Helvetica,sans-Serif" font-size="10.00">ServerGame::setup_game</text>
<text text-anchor="middle" x="382.75" y="-5.75" font-family="Helvetica,sans-Serif" font-size="10.00">_over_timer</text>
</a>
</g>
</g>
<!-- Node1&#45;&gt;Node2 -->
<g id="edge1_Node000001_Node000002" class="edge">
<title>Node1&#45;&gt;Node2</title>
<g id="a_edge1_Node000001_Node000002"><a xlink:title=" ">
<path fill="none" stroke="#63b8ff" d="M472.01,-15.25C463.98,-15.25 455.95,-15.25 448.2,-15.25"/>
<polygon fill="#63b8ff" stroke="#63b8ff" points="471.83,-18.75 481.83,-15.25 471.83,-11.75 471.83,-18.75"/>
</a>
</g>
</g>
<!-- Node2&#45;&gt;Node2 -->
<g id="edge4_Node000002_Node000002" class="edge">
<title>Node2&#45;&gt;Node2</title>
<g id="a_edge4_Node000002_Node000002"><a xlink:title=" ">
<path fill="none" stroke="#63b8ff" d="M409.71,-42.2C405.3,-45.97 396.31,-48.5 382.75,-48.5 357.95,-48.5 348.45,-40.06 354.27,-30.99"/>
<polygon fill="#63b8ff" stroke="#63b8ff" points="413.15,-42.87 411.03,-32.49 406.21,-41.92 413.15,-42.87"/>
</a>
</g>
</g>
<!-- Node3 -->
<g id="Node000003" class="node">
<title>Node3</title>
<g id="a_Node000003"><a xlink:href="class_server_game.html#a0157100c7f7204cb8d870947d0b81e6f" target="_top" xlink:title=" ">
<polygon fill="white" stroke="#666666" points="281.75,-24.88 162.25,-24.88 162.25,-5.63 281.75,-5.63 281.75,-24.88"/>
<text text-anchor="middle" x="222" y="-11.38" font-family="Helvetica,sans-Serif" font-size="10.00">ServerGame::initTimers</text>
</a>
</g>
</g>
<!-- Node2&#45;&gt;Node3 -->
<g id="edge2_Node000002_Node000003" class="edge">
<title>Node2&#45;&gt;Node3</title>
<g id="a_edge2_Node000002_Node000003"><a xlink:title=" ">
<path fill="none" stroke="#63b8ff" d="M306.29,-15.25C298.21,-15.25 290.07,-15.25 282.22,-15.25"/>
<polygon fill="#63b8ff" stroke="#63b8ff" points="306.12,-18.75 316.12,-15.25 306.12,-11.75 306.12,-18.75"/>
</a>
</g>
</g>
<!-- Node4 -->
<g id="Node000004" class="node">
<title>Node4</title>
<g id="a_Node000004"><a xlink:href="class_server_game.html#a0dcb65cf6ca824c15b425d6e731ac7cb" target="_top" xlink:title=" ">
<polygon fill="white" stroke="#666666" points="126.25,-24.88 0,-24.88 0,-5.63 126.25,-5.63 126.25,-24.88"/>
<text text-anchor="middle" x="63.12" y="-11.38" font-family="Helvetica,sans-Serif" font-size="10.00">ServerGame::handleStart</text>
</a>
</g>
</g>
<!-- Node3&#45;&gt;Node4 -->
<g id="edge3_Node000003_Node000004" class="edge">
<title>Node3&#45;&gt;Node4</title>
<g id="a_edge3_Node000003_Node000004"><a xlink:title=" ">
<path fill="none" stroke="#63b8ff" d="M150.88,-15.25C142.83,-15.25 134.66,-15.25 126.73,-15.25"/>
<polygon fill="#63b8ff" stroke="#63b8ff" points="150.63,-18.75 160.63,-15.25 150.63,-11.75 150.63,-18.75"/>
</a>
</g>
</g>
</g>
</svg>
