<?xml version="1.0" encoding="UTF-8" standalone="no"?>
<!DOCTYPE svg PUBLIC "-//W3C//DTD SVG 1.1//EN"
 "http://www.w3.org/Graphics/SVG/1.1/DTD/svg11.dtd">
<!-- Generated by graphviz version 12.2.1 (20241206.2353)
 -->
<!-- Title: Graphe hiérarchique des classes Pages: 1 -->
<svg width="175pt" height="64pt"
 viewBox="0.00 0.00 175.00 64.25" xmlns="http://www.w3.org/2000/svg" xmlns:xlink="http://www.w3.org/1999/xlink">
<g id="graph0" class="graph" transform="scale(1 1) rotate(0) translate(4 60.25)">
<title>Graphe hiérarchique des classes</title>
<!-- Node0 -->
<g id="Node000000" class="node">
<title>Node0</title>
<g id="a_Node000000"><a xlink:href="class_i_sender.html" target="_top" xlink:title="Interface pour la gestion des communications réseau.">
<polygon fill="white" stroke="#666666" points="49.75,-37.25 0,-37.25 0,-18 49.75,-18 49.75,-37.25"/>
<text text-anchor="middle" x="24.88" y="-23.75" font-family="Helvetica,sans-Serif" font-size="10.00">ISender</text>
</a>
</g>
</g>
<!-- Node1 -->
<g id="Node000001" class="node">
<title>Node1</title>
<g id="a_Node000001"><a xlink:href="class_server_game.html" target="_top" xlink:title="Gère la logique de jeu côté serveur.">
<polygon fill="white" stroke="#666666" points="161.75,-56.25 91,-56.25 91,-37 161.75,-37 161.75,-56.25"/>
<text text-anchor="middle" x="126.38" y="-42.75" font-family="Helvetica,sans-Serif" font-size="10.00">ServerGame</text>
</a>
</g>
</g>
<!-- Node0&#45;&gt;Node1 -->
<g id="edge1_Node000000_Node000001" class="edge">
<title>Node0&#45;&gt;Node1</title>
<g id="a_edge1_Node000000_Node000001"><a xlink:title=" ">
<path fill="none" stroke="#63b8ff" d="M61.38,-34.41C70.94,-36.23 81.26,-38.2 90.76,-40.02"/>
<polygon fill="#63b8ff" stroke="#63b8ff" points="62.18,-30.99 51.7,-32.56 60.87,-37.87 62.18,-30.99"/>
</a>
</g>
</g>
<!-- Node2 -->
<g id="Node000002" class="node">
<title>Node2</title>
<g id="a_Node000002"><a xlink:href="class_server_network.html" target="_top" xlink:title="Gère la communication réseau du serveur.">
<polygon fill="white" stroke="#666666" points="167,-19.25 85.75,-19.25 85.75,0 167,0 167,-19.25"/>
<text text-anchor="middle" x="126.38" y="-5.75" font-family="Helvetica,sans-Serif" font-size="10.00">ServerNetwork</text>
</a>
</g>
</g>
<!-- Node0&#45;&gt;Node2 -->
<g id="edge2_Node000000_Node000002" class="edge">
<title>Node0&#45;&gt;Node2</title>
<g id="a_edge2_Node000000_Node000002"><a xlink:title=" ">
<path fill="none" stroke="#63b8ff" d="M61.49,-21.18C69.24,-19.78 77.49,-18.29 85.39,-16.86"/>
<polygon fill="#63b8ff" stroke="#63b8ff" points="60.92,-17.73 51.7,-22.95 62.17,-24.62 60.92,-17.73"/>
</a>
</g>
</g>
</g>
</svg>
