<?xml version="1.0" encoding="UTF-8" standalone="no"?>
<!DOCTYPE svg PUBLIC "-//W3C//DTD SVG 1.1//EN"
 "http://www.w3.org/Graphics/SVG/1.1/DTD/svg11.dtd">
<!-- Generated by graphviz version 12.2.1 (20241206.2353)
 -->
<!-- Title: main Pages: 1 -->
<svg width="652pt" height="112pt"
 viewBox="0.00 0.00 652.00 111.50" xmlns="http://www.w3.org/2000/svg" xmlns:xlink="http://www.w3.org/1999/xlink">
<g id="graph0" class="graph" transform="scale(1 1) rotate(0) translate(4 107.5)">
<title>main</title>
<!-- Node1 -->
<g id="Node000001" class="node">
<title>Node1</title>
<g id="a_Node000001"><a xlink:title=" ">
<polygon fill="#999999" stroke="#666666" points="37,-72.88 0,-72.88 0,-53.62 37,-53.62 37,-72.88"/>
<text text-anchor="middle" x="18.5" y="-59.38" font-family="Helvetica,sans-Serif" font-size="10.00">main</text>
</a>
</g>
</g>
<!-- Node2 -->
<g id="Node000002" class="node">
<title>Node2</title>
<g id="a_Node000002"><a xlink:href="class_server_network.html#ae99b7e63fdf7ee47520e3b0891a70c6b" target="_top" xlink:title=" ">
<polygon fill="white" stroke="#666666" points="179.75,-72.88 73,-72.88 73,-53.62 179.75,-53.62 179.75,-72.88"/>
<text text-anchor="middle" x="126.38" y="-59.38" font-family="Helvetica,sans-Serif" font-size="10.00">ServerNetwork::start</text>
</a>
</g>
</g>
<!-- Node1&#45;&gt;Node2 -->
<g id="edge1_Node000001_Node000002" class="edge">
<title>Node1&#45;&gt;Node2</title>
<g id="a_edge1_Node000001_Node000002"><a xlink:title=" ">
<path fill="none" stroke="#63b8ff" d="M37.46,-63.25C44.27,-63.25 52.48,-63.25 61.11,-63.25"/>
<polygon fill="#63b8ff" stroke="#63b8ff" points="61.1,-66.75 71.1,-63.25 61.1,-59.75 61.1,-66.75"/>
</a>
</g>
</g>
<!-- Node3 -->
<g id="Node000003" class="node">
<title>Node3</title>
<g id="a_Node000003"><a xlink:href="class_server_network.html#a231bfb41bda1137994952ec41e01c5d0" target="_top" xlink:title=" ">
<polygon fill="white" stroke="#666666" points="334.5,-78.5 215.75,-78.5 215.75,-48 334.5,-48 334.5,-78.5"/>
<text text-anchor="start" x="223.75" y="-65" font-family="Helvetica,sans-Serif" font-size="10.00">ServerNetwork::receive</text>
<text text-anchor="middle" x="275.12" y="-53.75" font-family="Helvetica,sans-Serif" font-size="10.00">_messages</text>
</a>
</g>
</g>
<!-- Node2&#45;&gt;Node3 -->
<g id="edge2_Node000002_Node000003" class="edge">
<title>Node2&#45;&gt;Node3</title>
<g id="a_edge2_Node000002_Node000003"><a xlink:title=" ">
<path fill="none" stroke="#63b8ff" d="M179.94,-63.25C187.77,-63.25 195.94,-63.25 204.05,-63.25"/>
<polygon fill="#63b8ff" stroke="#63b8ff" points="203.94,-66.75 213.94,-63.25 203.94,-59.75 203.94,-66.75"/>
</a>
</g>
</g>
<!-- Node4 -->
<g id="Node000004" class="node">
<title>Node4</title>
<g id="a_Node000004"><a xlink:href="class_server_network.html#ae7ffb8d734525e9bf4f6bac4fa10dbfe" target="_top" xlink:title=" ">
<polygon fill="white" stroke="#666666" points="489.25,-103.5 370.5,-103.5 370.5,-73 489.25,-73 489.25,-103.5"/>
<text text-anchor="start" x="378.5" y="-90" font-family="Helvetica,sans-Serif" font-size="10.00">ServerNetwork::decode</text>
<text text-anchor="middle" x="429.88" y="-78.75" font-family="Helvetica,sans-Serif" font-size="10.00">_message</text>
</a>
</g>
</g>
<!-- Node3&#45;&gt;Node4 -->
<g id="edge3_Node000003_Node000004" class="edge">
<title>Node3&#45;&gt;Node4</title>
<g id="a_edge3_Node000003_Node000004"><a xlink:title=" ">
<path fill="none" stroke="#63b8ff" d="M334.75,-72.84C342.64,-74.14 350.8,-75.47 358.86,-76.79"/>
<polygon fill="#63b8ff" stroke="#63b8ff" points="358.23,-80.23 368.67,-78.4 359.36,-73.33 358.23,-80.23"/>
</a>
</g>
</g>
<!-- Node5 -->
<g id="Node000005" class="node">
<title>Node5</title>
<g id="a_Node000005"><a xlink:href="class_server_network.html#afab7785be9c68eb1c569a36b64b358b6" target="_top" xlink:title=" ">
<polygon fill="white" stroke="#666666" points="487.75,-54.5 372,-54.5 372,-24 487.75,-24 487.75,-54.5"/>
<text text-anchor="start" x="380" y="-41" font-family="Helvetica,sans-Serif" font-size="10.00">ServerNetwork::handle</text>
<text text-anchor="middle" x="429.88" y="-29.75" font-family="Helvetica,sans-Serif" font-size="10.00">_game_message</text>
</a>
</g>
</g>
<!-- Node3&#45;&gt;Node5 -->
<g id="edge4_Node000003_Node000005" class="edge">
<title>Node3&#45;&gt;Node5</title>
<g id="a_edge4_Node000003_Node000005"><a xlink:title=" ">
<path fill="none" stroke="#63b8ff" d="M334.75,-54.04C343.17,-52.72 351.9,-51.34 360.49,-49.99"/>
<polygon fill="#63b8ff" stroke="#63b8ff" points="360.84,-53.48 370.18,-48.47 359.75,-46.57 360.84,-53.48"/>
</a>
</g>
</g>
<!-- Node6 -->
<g id="Node000006" class="node">
<title>Node6</title>
<g id="a_Node000006"><a xlink:href="class_server_network.html#a3cdc99eb8ed134a23329bf2d8f9c74d2" target="_top" xlink:title=" ">
<polygon fill="white" stroke="#666666" points="644,-79.5 525.25,-79.5 525.25,-49 644,-49 644,-79.5"/>
<text text-anchor="start" x="533.25" y="-66" font-family="Helvetica,sans-Serif" font-size="10.00">ServerNetwork::encode</text>
<text text-anchor="middle" x="584.62" y="-54.75" font-family="Helvetica,sans-Serif" font-size="10.00">_action</text>
</a>
</g>
</g>
<!-- Node5&#45;&gt;Node6 -->
<g id="edge5_Node000005_Node000006" class="edge">
<title>Node5&#45;&gt;Node6</title>
<g id="a_edge5_Node000005_Node000006"><a xlink:title=" ">
<path fill="none" stroke="#63b8ff" d="M488.19,-48.63C496.55,-50 505.23,-51.42 513.8,-52.82"/>
<polygon fill="#63b8ff" stroke="#63b8ff" points="513.04,-56.24 523.48,-54.41 514.18,-49.34 513.04,-56.24"/>
</a>
</g>
</g>
<!-- Node7 -->
<g id="Node000007" class="node">
<title>Node7</title>
<g id="a_Node000007"><a xlink:href="class_server_network.html#a0db1c8289d4b7ebb1274dab1d4dc9798" target="_top" xlink:title=" ">
<polygon fill="white" stroke="#666666" points="635,-30.5 534.25,-30.5 534.25,0 635,0 635,-30.5"/>
<text text-anchor="start" x="542.25" y="-17" font-family="Helvetica,sans-Serif" font-size="10.00">ServerNetwork::get</text>
<text text-anchor="middle" x="584.62" y="-5.75" font-family="Helvetica,sans-Serif" font-size="10.00">_action_name</text>
</a>
</g>
</g>
<!-- Node5&#45;&gt;Node7 -->
<g id="edge6_Node000005_Node000007" class="edge">
<title>Node5&#45;&gt;Node7</title>
<g id="a_edge6_Node000005_Node000007"><a xlink:title=" ">
<path fill="none" stroke="#63b8ff" d="M488.19,-30.25C499.49,-28.47 511.39,-26.6 522.8,-24.81"/>
<polygon fill="#63b8ff" stroke="#63b8ff" points="523.18,-28.29 532.51,-23.28 522.09,-21.38 523.18,-28.29"/>
</a>
</g>
</g>
</g>
</svg>
