<?xml version="1.0" encoding="UTF-8" standalone="no"?>
<!DOCTYPE svg PUBLIC "-//W3C//DTD SVG 1.1//EN"
 "http://www.w3.org/Graphics/SVG/1.1/DTD/svg11.dtd">
<!-- Generated by graphviz version 12.2.1 (20241206.2353)
 -->
<!-- Title: src/server/main.cpp Pages: 1 -->
<!--zoomable 414 -->

<svg id="main" version="1.1" xmlns="http://www.w3.org/2000/svg" xmlns:xlink="http://www.w3.org/1999/xlink" xml:space="preserve" onload="init(evt)">

<style type="text/css"><![CDATA[
.node, .edge {opacity: 0.7;}
.node.selected, .edge.selected {opacity: 1;}
.edge:hover path { stroke: red; }
.edge:hover polygon { stroke: red; fill: red; }
]]></style>

<defs>
  <circle id="rim" cx="0" cy="0" r="7"/>
  <circle id="rim2" cx="0" cy="0" r="3.5"/>
  <g id="zoomPlus">
    <use xlink:href="#rim" fill="#404040"><set attributeName="fill" to="#808080" begin="zoomplus.mouseover" end="zoomplus.mouseout"/></use>
    <path d="M-4,0h8M0,-4v8" fill="none" stroke="white" stroke-width="1.5" pointer-events="none"/>
  </g>
  <g id="zoomMin">
    <use xlink:href="#rim" fill="#404040"><set attributeName="fill" to="#808080" begin="zoomminus.mouseover" end="zoomminus.mouseout"/></use>
    <path d="M-4,0h8" fill="none" stroke="white" stroke-width="1.5" pointer-events="none"/>
  </g>
  <g id="arrowUp" transform="translate(30 24)">
    <use xlink:href="#rim"/>
    <path pointer-events="none" fill="none" stroke="white" stroke-width="1.5" d="M0,-3.0v7 M-2.5,-0.5L0,-3.0L2.5,-0.5"/>
  </g>
  <g id="arrowRight" transform="rotate(90) translate(36 -43)">
    <use xlink:href="#rim"/>
    <path pointer-events="none" fill="none" stroke="white" stroke-width="1.5" d="M0,-3.0v7 M-2.5,-0.5L0,-3.0L2.5,-0.5"/>
  </g>
  <g id="arrowDown" transform="rotate(180) translate(-30 -48)">
    <use xlink:href="#rim"/>
    <path pointer-events="none" fill="none" stroke="white" stroke-width="1.5" d="M0,-3.0v7 M-2.5,-0.5L0,-3.0L2.5,-0.5"/>
  </g>
  <g id="arrowLeft" transform="rotate(270) translate(-36 17)">
    <use xlink:href="#rim"/>
    <path pointer-events="none" fill="none" stroke="white" stroke-width="1.5" d="M0,-3.0v7 M-2.5,-0.5L0,-3.0L2.5,-0.5"/>
  </g>
  <g id="resetDef">
    <use xlink:href="#rim2" fill="#404040"><set attributeName="fill" to="#808080" begin="reset.mouseover" end="reset.mouseout"/></use>
  </g>
</defs>
<script type="application/ecmascript">
var viewWidth = 1263;
var viewHeight = 414;
var sectionId = 'dynsection-0';
</script>
<script type="application/ecmascript" xlink:href="svg.min.js"/>
<svg id="graph" class="graph">
<g id="viewport">
<title>src/server/main.cpp</title>
<!-- Node1 -->
<g id="Node000001" class="node">
<title>Node1</title>
<g id="a_Node000001"><a xlink:title=" ">
<polygon fill="#999999" stroke="#666666" points="954.12,-406 851.88,-406 851.88,-386.75 954.12,-386.75 954.12,-406"/>
<text text-anchor="middle" x="903" y="-392.5" font-family="Helvetica,sans-Serif" font-size="10.00">src/server/main.cpp</text>
</a>
</g>
</g>
<!-- Node2 -->
<g id="Node000002" class="node">
<title>Node2</title>
<g id="a_Node000002"><a xlink:href="_server_network_8hpp.html" target="_top" xlink:title=" ">
<polygon fill="white" stroke="#666666" points="1225,-295.5 1125,-295.5 1125,-276.25 1225,-276.25 1225,-295.5"/>
<text text-anchor="middle" x="1175" y="-282" font-family="Helvetica,sans-Serif" font-size="10.00">ServerNetwork.hpp</text>
</a>
</g>
</g>
<!-- Node1&#45;&gt;Node2 -->
<g id="edge1_Node000001_Node000002" class="edge">
<title>Node1&#45;&gt;Node2</title>
<g id="a_edge1_Node000001_Node000002"><a xlink:title=" ">
<path fill="none" stroke="#63b8ff" d="M925.72,-386.31C973.72,-367.16 1085.63,-322.53 1141.71,-300.15"/>
<polygon fill="#63b8ff" stroke="#63b8ff" points="1142.75,-303.51 1150.74,-296.55 1140.16,-297 1142.75,-303.51"/>
</a>
</g>
</g>
<!-- Node26 -->
<g id="Node000026" class="node">
<title>Node26</title>
<g id="a_Node000026"><a xlink:title=" ">
<polygon fill="#e0e0e0" stroke="#999999" points="77.75,-19.25 24.25,-19.25 24.25,0 77.75,0 77.75,-19.25"/>
<text text-anchor="middle" x="51" y="-5.75" font-family="Helvetica,sans-Serif" font-size="10.00">iostream</text>
</a>
</g>
</g>
<!-- Node1&#45;&gt;Node26 -->
<g id="edge59_Node000001_Node000026" class="edge">
<title>Node1&#45;&gt;Node26</title>
<g id="a_edge59_Node000001_Node000026"><a xlink:title=" ">
<path fill="none" stroke="#63b8ff" d="M851.54,-394.64C660.09,-391.25 0,-373.28 0,-286.88 0,-286.88 0,-286.88 0,-119.12 0,-84.58 21.43,-49.23 36.51,-28.63"/>
<polygon fill="#63b8ff" stroke="#63b8ff" points="39.26,-30.8 42.56,-20.73 33.7,-26.55 39.26,-30.8"/>
</a>
</g>
</g>
<!-- Node29 -->
<g id="Node000029" class="node">
<title>Node29</title>
<g id="a_Node000029"><a xlink:href="_server_game_8hpp.html" target="_top" xlink:title=" ">
<polygon fill="white" stroke="#666666" points="947.75,-350.75 858.25,-350.75 858.25,-331.5 947.75,-331.5 947.75,-350.75"/>
<text text-anchor="middle" x="903" y="-337.25" font-family="Helvetica,sans-Serif" font-size="10.00">ServerGame.hpp</text>
</a>
</g>
</g>
<!-- Node1&#45;&gt;Node29 -->
<g id="edge46_Node000001_Node000029" class="edge">
<title>Node1&#45;&gt;Node29</title>
<g id="a_edge46_Node000001_Node000029"><a xlink:title=" ">
<path fill="none" stroke="#63b8ff" d="M903,-386.58C903,-380.07 903,-370.92 903,-362.62"/>
<polygon fill="#63b8ff" stroke="#63b8ff" points="906.5,-362.62 903,-352.62 899.5,-362.62 906.5,-362.62"/>
</a>
</g>
</g>
<!-- Node3 -->
<g id="Node000003" class="node">
<title>Node3</title>
<g id="a_Node000003"><a xlink:title=" ">
<polygon fill="#e0e0e0" stroke="#999999" points="920.88,-129.75 841.12,-129.75 841.12,-110.5 920.88,-110.5 920.88,-129.75"/>
<text text-anchor="middle" x="881" y="-116.25" font-family="Helvetica,sans-Serif" font-size="10.00">boost/asio.hpp</text>
</a>
</g>
</g>
<!-- Node2&#45;&gt;Node3 -->
<g id="edge2_Node000002_Node000003" class="edge">
<title>Node2&#45;&gt;Node3</title>
<g id="a_edge2_Node000002_Node000003"><a xlink:title=" ">
<path fill="none" stroke="#63b8ff" d="M1164.91,-275.97C1148.63,-262.08 1115.05,-235.37 1082,-221 1014.36,-191.58 980,-227.89 920,-185 904.65,-174.03 894.17,-154.96 887.97,-140.5"/>
<polygon fill="#63b8ff" stroke="#63b8ff" points="891.37,-139.58 884.46,-131.55 884.85,-142.14 891.37,-139.58"/>
</a>
</g>
</g>
<!-- Node4 -->
<g id="Node000004" class="node">
<title>Node4</title>
<g id="a_Node000004"><a xlink:title=" ">
<polygon fill="#e0e0e0" stroke="#999999" points="1035,-74.5 995,-74.5 995,-55.25 1035,-55.25 1035,-74.5"/>
<text text-anchor="middle" x="1015" y="-61" font-family="Helvetica,sans-Serif" font-size="10.00">string</text>
</a>
</g>
</g>
<!-- Node2&#45;&gt;Node4 -->
<g id="edge3_Node000002_Node000004" class="edge">
<title>Node2&#45;&gt;Node4</title>
<g id="a_edge3_Node000002_Node000004"><a xlink:title=" ">
<path fill="none" stroke="#63b8ff" d="M1174.39,-276.03C1172,-248.11 1161.04,-160.8 1115,-110.5 1096.94,-90.77 1068.52,-79.24 1046.59,-72.87"/>
<polygon fill="#63b8ff" stroke="#63b8ff" points="1047.51,-69.49 1036.95,-70.3 1045.71,-76.26 1047.51,-69.49"/>
</a>
</g>
</g>
<!-- Node5 -->
<g id="Node000005" class="node">
<title>Node5</title>
<g id="a_Node000005"><a xlink:title=" ">
<polygon fill="#e0e0e0" stroke="#999999" points="962.5,-240.25 919.5,-240.25 919.5,-221 962.5,-221 962.5,-240.25"/>
<text text-anchor="middle" x="941" y="-226.75" font-family="Helvetica,sans-Serif" font-size="10.00">thread</text>
</a>
</g>
</g>
<!-- Node2&#45;&gt;Node5 -->
<g id="edge4_Node000002_Node000005" class="edge">
<title>Node2&#45;&gt;Node5</title>
<g id="a_edge4_Node000002_Node000005"><a xlink:title=" ">
<path fill="none" stroke="#63b8ff" d="M1130.48,-275.82C1091.66,-267.77 1033.58,-255.32 974.1,-240.66"/>
<polygon fill="#63b8ff" stroke="#63b8ff" points="974.99,-237.28 964.44,-238.26 973.31,-244.07 974.99,-237.28"/>
</a>
</g>
</g>
<!-- Node6 -->
<g id="Node000006" class="node">
<title>Node6</title>
<g id="a_Node000006"><a xlink:title=" ">
<polygon fill="#e0e0e0" stroke="#999999" points="1015.38,-240.25 980.62,-240.25 980.62,-221 1015.38,-221 1015.38,-240.25"/>
<text text-anchor="middle" x="998" y="-226.75" font-family="Helvetica,sans-Serif" font-size="10.00">map</text>
</a>
</g>
</g>
<!-- Node2&#45;&gt;Node6 -->
<g id="edge5_Node000002_Node000006" class="edge">
<title>Node2&#45;&gt;Node6</title>
<g id="a_edge5_Node000002_Node000006"><a xlink:title=" ">
<path fill="none" stroke="#63b8ff" d="M1143.09,-275.78C1114.74,-267.62 1071.91,-255.12 1026.55,-240.98"/>
<polygon fill="#63b8ff" stroke="#63b8ff" points="1027.63,-237.65 1017.04,-238 1025.54,-244.33 1027.63,-237.65"/>
</a>
</g>
</g>
<!-- Node7 -->
<g id="Node000007" class="node">
<title>Node7</title>
<g id="a_Node000007"><a xlink:title=" ">
<polygon fill="#e0e0e0" stroke="#999999" points="1199.62,-74.5 1154.38,-74.5 1154.38,-55.25 1199.62,-55.25 1199.62,-74.5"/>
<text text-anchor="middle" x="1177" y="-61" font-family="Helvetica,sans-Serif" font-size="10.00">chrono</text>
</a>
</g>
</g>
<!-- Node2&#45;&gt;Node7 -->
<g id="edge6_Node000002_Node000007" class="edge">
<title>Node2&#45;&gt;Node7</title>
<g id="a_edge6_Node000002_Node000007"><a xlink:title=" ">
<path fill="none" stroke="#63b8ff" d="M1175.08,-276.02C1175.38,-243.76 1176.4,-132.01 1176.82,-85.96"/>
<polygon fill="#63b8ff" stroke="#63b8ff" points="1180.31,-86.15 1176.91,-76.12 1173.32,-86.08 1180.31,-86.15"/>
</a>
</g>
</g>
<!-- Node8 -->
<g id="Node000008" class="node">
<title>Node8</title>
<g id="a_Node000008"><a xlink:title=" ">
<polygon fill="#e0e0e0" stroke="#999999" points="1073,-240.25 1033,-240.25 1033,-221 1073,-221 1073,-240.25"/>
<text text-anchor="middle" x="1053" y="-226.75" font-family="Helvetica,sans-Serif" font-size="10.00">bitset</text>
</a>
</g>
</g>
<!-- Node2&#45;&gt;Node8 -->
<g id="edge7_Node000002_Node000008" class="edge">
<title>Node2&#45;&gt;Node8</title>
<g id="a_edge7_Node000002_Node000008"><a xlink:title=" ">
<path fill="none" stroke="#63b8ff" d="M1154.3,-275.84C1135,-267.41 1105.94,-254.73 1083.89,-245.11"/>
<polygon fill="#63b8ff" stroke="#63b8ff" points="1085.34,-241.92 1074.78,-241.13 1082.54,-248.34 1085.34,-241.92"/>
</a>
</g>
</g>
<!-- Node9 -->
<g id="Node000009" class="node">
<title>Node9</title>
<g id="a_Node000009"><a xlink:title=" ">
<polygon fill="#e0e0e0" stroke="#999999" points="951.5,-19.25 908.5,-19.25 908.5,0 951.5,0 951.5,-19.25"/>
<text text-anchor="middle" x="930" y="-5.75" font-family="Helvetica,sans-Serif" font-size="10.00">vector</text>
</a>
</g>
</g>
<!-- Node2&#45;&gt;Node9 -->
<g id="edge8_Node000002_Node000009" class="edge">
<title>Node2&#45;&gt;Node9</title>
<g id="a_edge8_Node000002_Node000009"><a xlink:title=" ">
<path fill="none" stroke="#63b8ff" d="M1180.51,-276.08C1200.67,-242.71 1266.27,-122.4 1209,-55.25 1177.7,-18.54 1029.8,-11.9 962.95,-10.79"/>
<polygon fill="#63b8ff" stroke="#63b8ff" points="963.38,-7.3 953.34,-10.66 963.29,-14.3 963.38,-7.3"/>
</a>
</g>
</g>
<!-- Node10 -->
<g id="Node000010" class="node">
<title>Node10</title>
<g id="a_Node000010"><a xlink:href="_mediator_8hpp.html" target="_top" xlink:title=" ">
<polygon fill="white" stroke="#666666" points="861.75,-240.25 790.25,-240.25 790.25,-221 861.75,-221 861.75,-240.25"/>
<text text-anchor="middle" x="826" y="-226.75" font-family="Helvetica,sans-Serif" font-size="10.00">Mediator.hpp</text>
</a>
</g>
</g>
<!-- Node2&#45;&gt;Node10 -->
<g id="edge9_Node000002_Node000010" class="edge">
<title>Node2&#45;&gt;Node10</title>
<g id="a_edge9_Node000002_Node000010"><a xlink:title=" ">
<path fill="none" stroke="#63b8ff" d="M1124.63,-277.19C1057.31,-266.92 938.91,-248.85 873.23,-238.83"/>
<polygon fill="#63b8ff" stroke="#63b8ff" points="873.9,-235.39 863.49,-237.35 872.85,-242.31 873.9,-235.39"/>
</a>
</g>
</g>
<!-- Node10&#45;&gt;Node3 -->
<g id="edge45_Node000010_Node000003" class="edge">
<title>Node10&#45;&gt;Node3</title>
<g id="a_edge45_Node000010_Node000003"><a xlink:title=" ">
<path fill="none" stroke="#63b8ff" d="M830.5,-220.75C839.36,-203.26 859.26,-164.02 871.26,-140.34"/>
<polygon fill="#63b8ff" stroke="#63b8ff" points="874.35,-141.98 875.75,-131.48 868.11,-138.81 874.35,-141.98"/>
</a>
</g>
</g>
<!-- Node10&#45;&gt;Node4 -->
<g id="edge43_Node000010_Node000004" class="edge">
<title>Node10&#45;&gt;Node4</title>
<g id="a_edge43_Node000010_Node000004"><a xlink:title=" ">
<path fill="none" stroke="#63b8ff" d="M862.12,-223.01C911.93,-213.54 996.67,-196.04 1006,-185 1029.35,-157.36 1025.06,-112.07 1019.95,-86.02"/>
<polygon fill="#63b8ff" stroke="#63b8ff" points="1023.4,-85.43 1017.82,-76.42 1016.57,-86.94 1023.4,-85.43"/>
</a>
</g>
</g>
<!-- Node10&#45;&gt;Node9 -->
<g id="edge44_Node000010_Node000009" class="edge">
<title>Node10&#45;&gt;Node9</title>
<g id="a_edge44_Node000010_Node000009"><a xlink:title=" ">
<path fill="none" stroke="#63b8ff" d="M862.09,-222.56C917.85,-211.5 1019.18,-190.76 1025,-185 1066.43,-144.01 1076.85,-103.39 1044,-55.25 1025.95,-28.79 989.64,-18.02 962.83,-13.64"/>
<polygon fill="#63b8ff" stroke="#63b8ff" points="963.53,-10.2 953.14,-12.29 962.56,-17.13 963.53,-10.2"/>
</a>
</g>
</g>
<!-- Node11 -->
<g id="Node000011" class="node">
<title>Node11</title>
<g id="a_Node000011"><a xlink:href="_systems_8hpp.html" target="_top" xlink:title=" ">
<polygon fill="white" stroke="#666666" points="739.38,-185 656.62,-185 656.62,-165.75 739.38,-165.75 739.38,-185"/>
<text text-anchor="middle" x="698" y="-171.5" font-family="Helvetica,sans-Serif" font-size="10.00">../Systems.hpp</text>
</a>
</g>
</g>
<!-- Node10&#45;&gt;Node11 -->
<g id="edge10_Node000010_Node000011" class="edge">
<title>Node10&#45;&gt;Node11</title>
<g id="a_edge10_Node000010_Node000011"><a xlink:title=" ">
<path fill="none" stroke="#63b8ff" d="M799.07,-220.59C777.19,-212.22 746.69,-199.63 724.84,-190.03"/>
<polygon fill="#63b8ff" stroke="#63b8ff" points="726.53,-186.95 715.98,-186.07 723.68,-193.34 726.53,-186.95"/>
</a>
</g>
</g>
<!-- Node15 -->
<g id="Node000015" class="node">
<title>Node15</title>
<g id="a_Node000015"><a xlink:href="_registry_8hpp.html" target="_top" xlink:title=" ">
<polygon fill="white" stroke="#666666" points="447,-129.75 377,-129.75 377,-110.5 447,-110.5 447,-129.75"/>
<text text-anchor="middle" x="412" y="-116.25" font-family="Helvetica,sans-Serif" font-size="10.00">Registry.hpp</text>
</a>
</g>
</g>
<!-- Node10&#45;&gt;Node15 -->
<g id="edge37_Node000010_Node000015" class="edge">
<title>Node10&#45;&gt;Node15</title>
<g id="a_edge37_Node000010_Node000015"><a xlink:title=" ">
<path fill="none" stroke="#63b8ff" d="M789.81,-220.76C753.81,-211.9 697.02,-197.78 648,-185 580.84,-167.49 503.19,-146.29 455.85,-133.26"/>
<polygon fill="#63b8ff" stroke="#63b8ff" points="456.81,-129.89 446.24,-130.61 454.95,-136.64 456.81,-129.89"/>
</a>
</g>
</g>
<!-- Node10&#45;&gt;Node26 -->
<g id="edge42_Node000010_Node000026" class="edge">
<title>Node10&#45;&gt;Node26</title>
<g id="a_edge42_Node000010_Node000026"><a xlink:title=" ">
<path fill="none" stroke="#63b8ff" d="M789.91,-227.63C691.37,-221.41 410.25,-198.47 188,-129.75 133.44,-112.88 109.74,-117.36 72,-74.5 61.25,-62.29 55.98,-44.45 53.41,-30.72"/>
<polygon fill="#63b8ff" stroke="#63b8ff" points="56.9,-30.42 51.96,-21.05 49.98,-31.46 56.9,-30.42"/>
</a>
</g>
</g>
<!-- Node28 -->
<g id="Node000028" class="node">
<title>Node28</title>
<g id="a_Node000028"><a xlink:href="_i_sender_8hpp.html" target="_top" xlink:title=" ">
<polygon fill="white" stroke="#666666" points="996.88,-185 929.12,-185 929.12,-165.75 996.88,-165.75 996.88,-185"/>
<text text-anchor="middle" x="963" y="-171.5" font-family="Helvetica,sans-Serif" font-size="10.00">ISender.hpp</text>
</a>
</g>
</g>
<!-- Node10&#45;&gt;Node28 -->
<g id="edge38_Node000010_Node000028" class="edge">
<title>Node10&#45;&gt;Node28</title>
<g id="a_edge38_Node000010_Node000028"><a xlink:title=" ">
<path fill="none" stroke="#63b8ff" d="M849.24,-220.59C871.19,-212.06 904.35,-199.17 929.21,-189.51"/>
<polygon fill="#63b8ff" stroke="#63b8ff" points="930.18,-192.89 938.24,-186 927.65,-186.36 930.18,-192.89"/>
</a>
</g>
</g>
<!-- Node11&#45;&gt;Node10 -->
<g id="edge36_Node000011_Node000010" class="edge">
<title>Node11&#45;&gt;Node10</title>
<g id="a_edge36_Node000011_Node000010"><a xlink:title=" ">
<path fill="none" stroke="#63b8ff" d="M725.05,-185.45C746.96,-193.84 777.46,-206.43 799.27,-216.02"/>
<polygon fill="#63b8ff" stroke="#63b8ff" points="797.56,-219.09 808.12,-219.97 800.42,-212.7 797.56,-219.09"/>
</a>
</g>
</g>
<!-- Node12 -->
<g id="Node000012" class="node">
<title>Node12</title>
<g id="a_Node000012"><a xlink:href="_components_8hpp.html" target="_top" xlink:title=" ">
<polygon fill="white" stroke="#666666" points="823.12,-129.75 732.88,-129.75 732.88,-110.5 823.12,-110.5 823.12,-129.75"/>
<text text-anchor="middle" x="778" y="-116.25" font-family="Helvetica,sans-Serif" font-size="10.00">Components.hpp</text>
</a>
</g>
</g>
<!-- Node11&#45;&gt;Node12 -->
<g id="edge11_Node000011_Node000012" class="edge">
<title>Node11&#45;&gt;Node12</title>
<g id="a_edge11_Node000011_Node000012"><a xlink:title=" ">
<path fill="none" stroke="#63b8ff" d="M711.57,-165.34C723.41,-157.46 740.84,-145.86 754.87,-136.52"/>
<polygon fill="#63b8ff" stroke="#63b8ff" points="756.72,-139.5 763.1,-131.04 752.84,-133.67 756.72,-139.5"/>
</a>
</g>
</g>
<!-- Node13 -->
<g id="Node000013" class="node">
<title>Node13</title>
<g id="a_Node000013"><a xlink:title=" ">
<polygon fill="#e0e0e0" stroke="#999999" points="767.5,-74.5 664.5,-74.5 664.5,-55.25 767.5,-55.25 767.5,-74.5"/>
<text text-anchor="middle" x="716" y="-61" font-family="Helvetica,sans-Serif" font-size="10.00">SFML/Graphics.hpp</text>
</a>
</g>
</g>
<!-- Node11&#45;&gt;Node13 -->
<g id="edge33_Node000011_Node000013" class="edge">
<title>Node11&#45;&gt;Node13</title>
<g id="a_edge33_Node000011_Node000013"><a xlink:title=" ">
<path fill="none" stroke="#63b8ff" d="M695.05,-165.55C691.33,-153.09 685.98,-129.71 691,-110.5 693.41,-101.28 698.18,-91.96 702.92,-84.23"/>
<polygon fill="#63b8ff" stroke="#63b8ff" points="705.7,-86.38 708.3,-76.11 699.86,-82.51 705.7,-86.38"/>
</a>
</g>
</g>
<!-- Node14 -->
<g id="Node000014" class="node">
<title>Node14</title>
<g id="a_Node000014"><a xlink:title=" ">
<polygon fill="#e0e0e0" stroke="#999999" points="882.88,-74.5 785.12,-74.5 785.12,-55.25 882.88,-55.25 882.88,-74.5"/>
<text text-anchor="middle" x="834" y="-61" font-family="Helvetica,sans-Serif" font-size="10.00">SFML/Window.hpp</text>
</a>
</g>
</g>
<!-- Node11&#45;&gt;Node14 -->
<g id="edge34_Node000011_Node000014" class="edge">
<title>Node11&#45;&gt;Node14</title>
<g id="a_edge34_Node000011_Node000014"><a xlink:title=" ">
<path fill="none" stroke="#63b8ff" d="M699.4,-165.31C701.95,-151.69 708.58,-125.9 724,-110.5 739.06,-95.46 759.88,-85.29 779.36,-78.51"/>
<polygon fill="#63b8ff" stroke="#63b8ff" points="780.41,-81.84 788.86,-75.45 778.27,-75.18 780.41,-81.84"/>
</a>
</g>
</g>
<!-- Node11&#45;&gt;Node15 -->
<g id="edge17_Node000011_Node000015" class="edge">
<title>Node11&#45;&gt;Node15</title>
<g id="a_edge17_Node000011_Node000015"><a xlink:title=" ">
<path fill="none" stroke="#63b8ff" d="M656.41,-166.63C603.77,-156.83 513.33,-139.99 458.47,-129.78"/>
<polygon fill="#63b8ff" stroke="#63b8ff" points="459.28,-126.37 448.81,-127.98 458,-133.25 459.28,-126.37"/>
</a>
</g>
</g>
<!-- Node21 -->
<g id="Node000021" class="node">
<title>Node21</title>
<g id="a_Node000021"><a xlink:href="_sparse_array_8hpp.html" target="_top" xlink:title=" ">
<polygon fill="white" stroke="#666666" points="607.62,-74.5 520.38,-74.5 520.38,-55.25 607.62,-55.25 607.62,-74.5"/>
<text text-anchor="middle" x="564" y="-61" font-family="Helvetica,sans-Serif" font-size="10.00">SparseArray.hpp</text>
</a>
</g>
</g>
<!-- Node11&#45;&gt;Node21 -->
<g id="edge32_Node000011_Node000021" class="edge">
<title>Node11&#45;&gt;Node21</title>
<g id="a_edge32_Node000011_Node000021"><a xlink:title=" ">
<path fill="none" stroke="#63b8ff" d="M687.03,-165.5C664.46,-147.22 612.51,-105.15 583.86,-81.96"/>
<polygon fill="#63b8ff" stroke="#63b8ff" points="586.27,-79.4 576.29,-75.83 581.86,-84.84 586.27,-79.4"/>
</a>
</g>
</g>
<!-- Node11&#45;&gt;Node26 -->
<g id="edge35_Node000011_Node000026" class="edge">
<title>Node11&#45;&gt;Node26</title>
<g id="a_edge35_Node000011_Node000026"><a xlink:title=" ">
<path fill="none" stroke="#63b8ff" d="M656.46,-171.86C535.83,-163.91 188.2,-136.05 95,-74.5 78.69,-63.73 66.72,-44.63 59.43,-30.11"/>
<polygon fill="#63b8ff" stroke="#63b8ff" points="62.61,-28.66 55.22,-21.07 56.26,-31.62 62.61,-28.66"/>
</a>
</g>
</g>
<!-- Node12&#45;&gt;Node4 -->
<g id="edge14_Node000012_Node000004" class="edge">
<title>Node12&#45;&gt;Node4</title>
<g id="a_edge14_Node000012_Node000004"><a xlink:title=" ">
<path fill="none" stroke="#63b8ff" d="M818.47,-110.03C865.24,-99.52 941.2,-82.46 983.68,-72.91"/>
<polygon fill="#63b8ff" stroke="#63b8ff" points="984.26,-76.37 993.25,-70.76 982.73,-69.54 984.26,-76.37"/>
</a>
</g>
</g>
<!-- Node12&#45;&gt;Node7 -->
<g id="edge16_Node000012_Node000007" class="edge">
<title>Node12&#45;&gt;Node7</title>
<g id="a_edge16_Node000012_Node000007"><a xlink:title=" ">
<path fill="none" stroke="#63b8ff" d="M823.36,-111.78C826.28,-111.34 829.18,-110.91 832,-110.5 945.48,-94.1 1080.38,-77.48 1142.52,-69.99"/>
<polygon fill="#63b8ff" stroke="#63b8ff" points="1142.94,-73.47 1152.45,-68.8 1142.11,-66.52 1142.94,-73.47"/>
</a>
</g>
</g>
<!-- Node12&#45;&gt;Node9 -->
<g id="edge15_Node000012_Node000009" class="edge">
<title>Node12&#45;&gt;Node9</title>
<g id="a_edge15_Node000012_Node000009"><a xlink:title=" ">
<path fill="none" stroke="#63b8ff" d="M819.44,-110.01C842.76,-103.26 871.26,-92.1 892,-74.5 905.99,-62.63 916.16,-44.24 922.44,-30.24"/>
<polygon fill="#63b8ff" stroke="#63b8ff" points="925.62,-31.72 926.22,-21.14 919.15,-29.03 925.62,-31.72"/>
</a>
</g>
</g>
<!-- Node12&#45;&gt;Node13 -->
<g id="edge12_Node000012_Node000013" class="edge">
<title>Node12&#45;&gt;Node13</title>
<g id="a_edge12_Node000012_Node000013"><a xlink:title=" ">
<path fill="none" stroke="#63b8ff" d="M767.48,-110.09C758.61,-102.47 745.69,-91.37 735.01,-82.2"/>
<polygon fill="#63b8ff" stroke="#63b8ff" points="737.38,-79.62 727.51,-75.76 732.82,-84.93 737.38,-79.62"/>
</a>
</g>
</g>
<!-- Node12&#45;&gt;Node14 -->
<g id="edge13_Node000012_Node000014" class="edge">
<title>Node12&#45;&gt;Node14</title>
<g id="a_edge13_Node000012_Node000014"><a xlink:title=" ">
<path fill="none" stroke="#63b8ff" d="M787.5,-110.09C795.43,-102.55 806.95,-91.6 816.54,-82.48"/>
<polygon fill="#63b8ff" stroke="#63b8ff" points="818.71,-85.24 823.54,-75.82 813.89,-80.17 818.71,-85.24"/>
</a>
</g>
</g>
<!-- Node16 -->
<g id="Node000016" class="node">
<title>Node16</title>
<g id="a_Node000016"><a xlink:title=" ">
<polygon fill="#e0e0e0" stroke="#999999" points="502.38,-74.5 419.62,-74.5 419.62,-55.25 502.38,-55.25 502.38,-74.5"/>
<text text-anchor="middle" x="461" y="-61" font-family="Helvetica,sans-Serif" font-size="10.00">unordered_map</text>
</a>
</g>
</g>
<!-- Node15&#45;&gt;Node16 -->
<g id="edge18_Node000015_Node000016" class="edge">
<title>Node15&#45;&gt;Node16</title>
<g id="a_edge18_Node000015_Node000016"><a xlink:title=" ">
<path fill="none" stroke="#63b8ff" d="M420.09,-110.33C426.86,-102.98 436.72,-92.26 445.06,-83.19"/>
<polygon fill="#63b8ff" stroke="#63b8ff" points="447.51,-85.7 451.71,-75.97 442.36,-80.96 447.51,-85.7"/>
</a>
</g>
</g>
<!-- Node17 -->
<g id="Node000017" class="node">
<title>Node17</title>
<g id="a_Node000017"><a xlink:title=" ">
<polygon fill="#e0e0e0" stroke="#999999" points="211.88,-74.5 180.12,-74.5 180.12,-55.25 211.88,-55.25 211.88,-74.5"/>
<text text-anchor="middle" x="196" y="-61" font-family="Helvetica,sans-Serif" font-size="10.00">any</text>
</a>
</g>
</g>
<!-- Node15&#45;&gt;Node17 -->
<g id="edge19_Node000015_Node000017" class="edge">
<title>Node15&#45;&gt;Node17</title>
<g id="a_edge19_Node000015_Node000017"><a xlink:title=" ">
<path fill="none" stroke="#63b8ff" d="M376.52,-111.98C340.21,-104.41 281.99,-91.6 223.29,-74.93"/>
<polygon fill="#63b8ff" stroke="#63b8ff" points="224.36,-71.6 213.78,-72.2 222.43,-78.33 224.36,-71.6"/>
</a>
</g>
</g>
<!-- Node18 -->
<g id="Node000018" class="node">
<title>Node18</title>
<g id="a_Node000018"><a xlink:title=" ">
<polygon fill="#e0e0e0" stroke="#999999" points="288,-74.5 230,-74.5 230,-55.25 288,-55.25 288,-74.5"/>
<text text-anchor="middle" x="259" y="-61" font-family="Helvetica,sans-Serif" font-size="10.00">functional</text>
</a>
</g>
</g>
<!-- Node15&#45;&gt;Node18 -->
<g id="edge20_Node000015_Node000018" class="edge">
<title>Node15&#45;&gt;Node18</title>
<g id="a_edge20_Node000015_Node000018"><a xlink:title=" ">
<path fill="none" stroke="#63b8ff" d="M386.05,-110.09C361.21,-101.45 323.5,-88.32 295.62,-78.62"/>
<polygon fill="#63b8ff" stroke="#63b8ff" points="297.11,-75.43 286.51,-75.45 294.81,-82.04 297.11,-75.43"/>
</a>
</g>
</g>
<!-- Node19 -->
<g id="Node000019" class="node">
<title>Node19</title>
<g id="a_Node000019"><a xlink:title=" ">
<polygon fill="#e0e0e0" stroke="#999999" points="364,-74.5 306,-74.5 306,-55.25 364,-55.25 364,-74.5"/>
<text text-anchor="middle" x="335" y="-61" font-family="Helvetica,sans-Serif" font-size="10.00">typeindex</text>
</a>
</g>
</g>
<!-- Node15&#45;&gt;Node19 -->
<g id="edge21_Node000015_Node000019" class="edge">
<title>Node15&#45;&gt;Node19</title>
<g id="a_edge21_Node000015_Node000019"><a xlink:title=" ">
<path fill="none" stroke="#63b8ff" d="M398.94,-110.09C387.54,-102.21 370.77,-90.61 357.26,-81.27"/>
<polygon fill="#63b8ff" stroke="#63b8ff" points="359.59,-78.62 349.37,-75.81 355.6,-84.38 359.59,-78.62"/>
</a>
</g>
</g>
<!-- Node20 -->
<g id="Node000020" class="node">
<title>Node20</title>
<g id="a_Node000020"><a xlink:title=" ">
<polygon fill="#e0e0e0" stroke="#999999" points="436.38,-19.25 377.62,-19.25 377.62,0 436.38,0 436.38,-19.25"/>
<text text-anchor="middle" x="407" y="-5.75" font-family="Helvetica,sans-Serif" font-size="10.00">stdexcept</text>
</a>
</g>
</g>
<!-- Node15&#45;&gt;Node20 -->
<g id="edge22_Node000015_Node000020" class="edge">
<title>Node15&#45;&gt;Node20</title>
<g id="a_edge22_Node000015_Node000020"><a xlink:title=" ">
<path fill="none" stroke="#63b8ff" d="M411.59,-110.25C410.8,-93 409.03,-54.58 407.93,-30.81"/>
<polygon fill="#63b8ff" stroke="#63b8ff" points="411.44,-30.97 407.48,-21.14 404.45,-31.29 411.44,-30.97"/>
</a>
</g>
</g>
<!-- Node15&#45;&gt;Node21 -->
<g id="edge23_Node000015_Node000021" class="edge">
<title>Node15&#45;&gt;Node21</title>
<g id="a_edge23_Node000015_Node000021"><a xlink:title=" ">
<path fill="none" stroke="#63b8ff" d="M437.78,-110.09C462.35,-101.49 499.59,-88.44 527.26,-78.75"/>
<polygon fill="#63b8ff" stroke="#63b8ff" points="528.38,-82.06 536.66,-75.45 526.07,-75.46 528.38,-82.06"/>
</a>
</g>
</g>
<!-- Node25 -->
<g id="Node000025" class="node">
<title>Node25</title>
<g id="a_Node000025"><a xlink:href="_entity_8hpp.html" target="_top" xlink:title=" ">
<polygon fill="white" stroke="#666666" points="162.38,-74.5 103.62,-74.5 103.62,-55.25 162.38,-55.25 162.38,-74.5"/>
<text text-anchor="middle" x="133" y="-61" font-family="Helvetica,sans-Serif" font-size="10.00">Entity.hpp</text>
</a>
</g>
</g>
<!-- Node15&#45;&gt;Node25 -->
<g id="edge29_Node000015_Node000025" class="edge">
<title>Node15&#45;&gt;Node25</title>
<g id="a_edge29_Node000015_Node000025"><a xlink:title=" ">
<path fill="none" stroke="#63b8ff" d="M376.79,-113.06C331.89,-105.23 251.57,-90.89 173.8,-75.02"/>
<polygon fill="#63b8ff" stroke="#63b8ff" points="174.83,-71.66 164.33,-73.07 173.42,-78.51 174.83,-71.66"/>
</a>
</g>
</g>
<!-- Node21&#45;&gt;Node9 -->
<g id="edge24_Node000021_Node000009" class="edge">
<title>Node21&#45;&gt;Node9</title>
<g id="a_edge24_Node000021_Node000009"><a xlink:title=" ">
<path fill="none" stroke="#63b8ff" d="M608.02,-57.31C612.74,-56.61 617.47,-55.92 622,-55.25 722.1,-40.56 840.56,-23.48 896.96,-15.37"/>
<polygon fill="#63b8ff" stroke="#63b8ff" points="897.44,-18.84 906.84,-13.95 896.44,-11.91 897.44,-18.84"/>
</a>
</g>
</g>
<!-- Node21&#45;&gt;Node20 -->
<g id="edge26_Node000021_Node000020" class="edge">
<title>Node21&#45;&gt;Node20</title>
<g id="a_edge26_Node000021_Node000020"><a xlink:title=" ">
<path fill="none" stroke="#63b8ff" d="M537.37,-54.84C511.88,-46.2 473.19,-33.07 444.57,-23.37"/>
<polygon fill="#63b8ff" stroke="#63b8ff" points="445.79,-20.09 435.2,-20.19 443.54,-26.72 445.79,-20.09"/>
</a>
</g>
</g>
<!-- Node22 -->
<g id="Node000022" class="node">
<title>Node22</title>
<g id="a_Node000022"><a xlink:title=" ">
<polygon fill="#e0e0e0" stroke="#999999" points="517.88,-19.25 468.12,-19.25 468.12,0 517.88,0 517.88,-19.25"/>
<text text-anchor="middle" x="493" y="-5.75" font-family="Helvetica,sans-Serif" font-size="10.00">optional</text>
</a>
</g>
</g>
<!-- Node21&#45;&gt;Node22 -->
<g id="edge25_Node000021_Node000022" class="edge">
<title>Node21&#45;&gt;Node22</title>
<g id="a_edge25_Node000021_Node000022"><a xlink:title=" ">
<path fill="none" stroke="#63b8ff" d="M551.96,-54.84C541.59,-47.07 526.4,-35.67 514.03,-26.4"/>
<polygon fill="#63b8ff" stroke="#63b8ff" points="516.18,-23.63 506.08,-20.43 511.98,-29.23 516.18,-23.63"/>
</a>
</g>
</g>
<!-- Node23 -->
<g id="Node000023" class="node">
<title>Node23</title>
<g id="a_Node000023"><a xlink:title=" ">
<polygon fill="#e0e0e0" stroke="#999999" points="591.88,-19.25 536.12,-19.25 536.12,0 591.88,0 591.88,-19.25"/>
<text text-anchor="middle" x="564" y="-5.75" font-family="Helvetica,sans-Serif" font-size="10.00">algorithm</text>
</a>
</g>
</g>
<!-- Node21&#45;&gt;Node23 -->
<g id="edge27_Node000021_Node000023" class="edge">
<title>Node21&#45;&gt;Node23</title>
<g id="a_edge27_Node000021_Node000023"><a xlink:title=" ">
<path fill="none" stroke="#63b8ff" d="M564,-55.08C564,-48.57 564,-39.42 564,-31.12"/>
<polygon fill="#63b8ff" stroke="#63b8ff" points="567.5,-31.12 564,-21.12 560.5,-31.12 567.5,-31.12"/>
</a>
</g>
</g>
<!-- Node24 -->
<g id="Node000024" class="node">
<title>Node24</title>
<g id="a_Node000024"><a xlink:title=" ">
<polygon fill="#e0e0e0" stroke="#999999" points="661.62,-19.25 610.38,-19.25 610.38,0 661.62,0 661.62,-19.25"/>
<text text-anchor="middle" x="636" y="-5.75" font-family="Helvetica,sans-Serif" font-size="10.00">memory</text>
</a>
</g>
</g>
<!-- Node21&#45;&gt;Node24 -->
<g id="edge28_Node000021_Node000024" class="edge">
<title>Node21&#45;&gt;Node24</title>
<g id="a_edge28_Node000021_Node000024"><a xlink:title=" ">
<path fill="none" stroke="#63b8ff" d="M576.21,-54.84C586.83,-46.99 602.44,-35.45 615.04,-26.12"/>
<polygon fill="#63b8ff" stroke="#63b8ff" points="616.79,-29.19 622.75,-20.42 612.63,-23.56 616.79,-29.19"/>
</a>
</g>
</g>
<!-- Node25&#45;&gt;Node26 -->
<g id="edge30_Node000025_Node000026" class="edge">
<title>Node25&#45;&gt;Node26</title>
<g id="a_edge30_Node000025_Node000026"><a xlink:title=" ">
<path fill="none" stroke="#63b8ff" d="M119.09,-54.84C106.84,-46.89 88.75,-35.14 74.29,-25.75"/>
<polygon fill="#63b8ff" stroke="#63b8ff" points="76.54,-23.04 66.25,-20.53 72.73,-28.91 76.54,-23.04"/>
</a>
</g>
</g>
<!-- Node27 -->
<g id="Node000027" class="node">
<title>Node27</title>
<g id="a_Node000027"><a xlink:title=" ">
<polygon fill="#e0e0e0" stroke="#999999" points="157.12,-19.25 108.88,-19.25 108.88,0 157.12,0 157.12,-19.25"/>
<text text-anchor="middle" x="133" y="-5.75" font-family="Helvetica,sans-Serif" font-size="10.00">cstddef</text>
</a>
</g>
</g>
<!-- Node25&#45;&gt;Node27 -->
<g id="edge31_Node000025_Node000027" class="edge">
<title>Node25&#45;&gt;Node27</title>
<g id="a_edge31_Node000025_Node000027"><a xlink:title=" ">
<path fill="none" stroke="#63b8ff" d="M133,-55.08C133,-48.57 133,-39.42 133,-31.12"/>
<polygon fill="#63b8ff" stroke="#63b8ff" points="136.5,-31.12 133,-21.12 129.5,-31.12 136.5,-31.12"/>
</a>
</g>
</g>
<!-- Node28&#45;&gt;Node3 -->
<g id="edge41_Node000028_Node000003" class="edge">
<title>Node28&#45;&gt;Node3</title>
<g id="a_edge41_Node000028_Node000003"><a xlink:title=" ">
<path fill="none" stroke="#63b8ff" d="M949.09,-165.34C936.84,-157.39 918.75,-145.64 904.29,-136.25"/>
<polygon fill="#63b8ff" stroke="#63b8ff" points="906.54,-133.54 896.25,-131.03 902.73,-139.41 906.54,-133.54"/>
</a>
</g>
</g>
<!-- Node28&#45;&gt;Node4 -->
<g id="edge40_Node000028_Node000004" class="edge">
<title>Node28&#45;&gt;Node4</title>
<g id="a_edge40_Node000028_Node000004"><a xlink:title=" ">
<path fill="none" stroke="#63b8ff" d="M967.26,-165.5C975.64,-148.01 994.44,-108.77 1005.79,-85.09"/>
<polygon fill="#63b8ff" stroke="#63b8ff" points="1008.87,-86.77 1010.03,-76.24 1002.55,-83.75 1008.87,-86.77"/>
</a>
</g>
</g>
<!-- Node28&#45;&gt;Node9 -->
<g id="edge39_Node000028_Node000009" class="edge">
<title>Node28&#45;&gt;Node9</title>
<g id="a_edge39_Node000028_Node000009"><a xlink:title=" ">
<path fill="none" stroke="#63b8ff" d="M961.23,-165.57C956.1,-140.14 941.18,-66.1 933.98,-30.37"/>
<polygon fill="#63b8ff" stroke="#63b8ff" points="937.49,-30.07 932.08,-20.96 930.63,-31.45 937.49,-30.07"/>
</a>
</g>
</g>
<!-- Node29&#45;&gt;Node2 -->
<g id="edge57_Node000029_Node000002" class="edge">
<title>Node29&#45;&gt;Node2</title>
<g id="a_edge57_Node000029_Node000002"><a xlink:title=" ">
<path fill="none" stroke="#63b8ff" d="M948.22,-331.27C994.71,-322.17 1067.23,-307.97 1117.71,-298.09"/>
<polygon fill="#63b8ff" stroke="#63b8ff" points="1118.13,-301.57 1127.28,-296.22 1116.79,-294.7 1118.13,-301.57"/>
</a>
</g>
</g>
<!-- Node29&#45;&gt;Node3 -->
<g id="edge47_Node000029_Node000003" class="edge">
<title>Node29&#45;&gt;Node3</title>
<g id="a_edge47_Node000029_Node000003"><a xlink:title=" ">
<path fill="none" stroke="#63b8ff" d="M874.06,-331.06C854.7,-323.85 829.64,-312.19 812,-295.5 791.55,-276.15 788.12,-267.49 781,-240.25 769.06,-194.56 820.11,-155.69 853.66,-135.66"/>
<polygon fill="#63b8ff" stroke="#63b8ff" points="855.17,-138.82 862.1,-130.81 851.69,-132.75 855.17,-138.82"/>
</a>
</g>
</g>
<!-- Node29&#45;&gt;Node4 -->
<g id="edge49_Node000029_Node000004" class="edge">
<title>Node29&#45;&gt;Node4</title>
<g id="a_edge49_Node000029_Node000004"><a xlink:title=" ">
<path fill="none" stroke="#63b8ff" d="M898.21,-331.21C893.78,-322.42 887.51,-308.46 885,-295.5 878.32,-261.07 884.6,-244.08 911,-221 951,-186.03 988.86,-223.95 1025,-185 1047.86,-160.36 1045.92,-143.16 1038,-110.5 1035.82,-101.52 1031.5,-92.32 1027.19,-84.63"/>
<polygon fill="#63b8ff" stroke="#63b8ff" points="1030.28,-82.97 1022.1,-76.23 1024.29,-86.6 1030.28,-82.97"/>
</a>
</g>
</g>
<!-- Node29&#45;&gt;Node5 -->
<g id="edge50_Node000029_Node000005" class="edge">
<title>Node29&#45;&gt;Node5</title>
<g id="a_edge50_Node000029_Node000005"><a xlink:title=" ">
<path fill="none" stroke="#63b8ff" d="M898.3,-331.05C892.39,-318.3 883.91,-294.57 892,-276.25 897.16,-264.57 907.06,-254.63 916.62,-247.11"/>
<polygon fill="#63b8ff" stroke="#63b8ff" points="918.58,-250.01 924.64,-241.32 914.49,-244.33 918.58,-250.01"/>
</a>
</g>
</g>
<!-- Node29&#45;&gt;Node6 -->
<g id="edge51_Node000029_Node000006" class="edge">
<title>Node29&#45;&gt;Node6</title>
<g id="a_edge51_Node000029_Node000006"><a xlink:title=" ">
<path fill="none" stroke="#63b8ff" d="M948.22,-338.52C979.54,-334.76 1019.21,-324.14 1040,-295.5 1051.54,-279.61 1035.71,-260.75 1020.29,-247.66"/>
<polygon fill="#63b8ff" stroke="#63b8ff" points="1022.68,-245.08 1012.66,-241.63 1018.33,-250.57 1022.68,-245.08"/>
</a>
</g>
</g>
<!-- Node29&#45;&gt;Node7 -->
<g id="edge52_Node000029_Node000007" class="edge">
<title>Node29&#45;&gt;Node7</title>
<g id="a_edge52_Node000029_Node000007"><a xlink:title=" ">
<path fill="none" stroke="#63b8ff" d="M948.17,-341.01C1029.93,-341.55 1197.41,-337.35 1234,-295.5 1288.7,-232.93 1221.34,-125.84 1190.68,-83.68"/>
<polygon fill="#63b8ff" stroke="#63b8ff" points="1193.63,-81.77 1184.84,-75.85 1188.02,-85.96 1193.63,-81.77"/>
</a>
</g>
</g>
<!-- Node29&#45;&gt;Node8 -->
<g id="edge53_Node000029_Node000008" class="edge">
<title>Node29&#45;&gt;Node8</title>
<g id="a_edge53_Node000029_Node000008"><a xlink:title=" ">
<path fill="none" stroke="#63b8ff" d="M948.1,-333.06C988.37,-325.72 1042.97,-312.88 1056,-295.5 1065.38,-283 1063.53,-264.93 1059.98,-251.2"/>
<polygon fill="#63b8ff" stroke="#63b8ff" points="1063.41,-250.45 1057.1,-241.94 1056.72,-252.53 1063.41,-250.45"/>
</a>
</g>
</g>
<!-- Node29&#45;&gt;Node9 -->
<g id="edge55_Node000029_Node000009" class="edge">
<title>Node29&#45;&gt;Node9</title>
<g id="a_edge55_Node000029_Node000009"><a xlink:title=" ">
<path fill="none" stroke="#63b8ff" d="M857.75,-331.9C779.93,-316.45 629,-280.23 629,-231.62 629,-231.62 629,-231.62 629,-174.38 629,-120.09 616.45,-92.44 656,-55.25 690.29,-23 831.79,-13.98 896.92,-11.52"/>
<polygon fill="#63b8ff" stroke="#63b8ff" points="896.76,-15.03 906.63,-11.19 896.52,-8.03 896.76,-15.03"/>
</a>
</g>
</g>
<!-- Node29&#45;&gt;Node10 -->
<g id="edge58_Node000029_Node000010" class="edge">
<title>Node29&#45;&gt;Node10</title>
<g id="a_edge58_Node000029_Node000010"><a xlink:title=" ">
<path fill="none" stroke="#63b8ff" d="M869.53,-331.03C851.78,-324.32 831.52,-313.19 821,-295.5 813.17,-282.32 815.22,-264.82 818.78,-251.47"/>
<polygon fill="#63b8ff" stroke="#63b8ff" points="822.08,-252.65 821.78,-242.06 815.41,-250.53 822.08,-252.65"/>
</a>
</g>
</g>
<!-- Node29&#45;&gt;Node15 -->
<g id="edge56_Node000029_Node000015" class="edge">
<title>Node29&#45;&gt;Node15</title>
<g id="a_edge56_Node000029_Node000015"><a xlink:title=" ">
<path fill="none" stroke="#63b8ff" d="M857.9,-340.66C799.27,-339.71 694.96,-332.34 615,-295.5 531.72,-257.13 456.19,-174.28 425.96,-138.34"/>
<polygon fill="#63b8ff" stroke="#63b8ff" points="429.01,-136.53 419.94,-131.06 423.62,-141 429.01,-136.53"/>
</a>
</g>
</g>
<!-- Node30 -->
<g id="Node000030" class="node">
<title>Node30</title>
<g id="a_Node000030"><a xlink:title=" ">
<polygon fill="#e0e0e0" stroke="#999999" points="964.62,-295.5 901.38,-295.5 901.38,-276.25 964.62,-276.25 964.62,-295.5"/>
<text text-anchor="middle" x="933" y="-282" font-family="Helvetica,sans-Serif" font-size="10.00">sol/sol.hpp</text>
</a>
</g>
</g>
<!-- Node29&#45;&gt;Node30 -->
<g id="edge48_Node000029_Node000030" class="edge">
<title>Node29&#45;&gt;Node30</title>
<g id="a_edge48_Node000029_Node000030"><a xlink:title=" ">
<path fill="none" stroke="#63b8ff" d="M907.95,-331.33C911.88,-324.36 917.51,-314.37 922.44,-305.62"/>
<polygon fill="#63b8ff" stroke="#63b8ff" points="925.34,-307.61 927.2,-297.18 919.24,-304.17 925.34,-307.61"/>
</a>
</g>
</g>
<!-- Node31 -->
<g id="Node000031" class="node">
<title>Node31</title>
<g id="a_Node000031"><a xlink:title=" ">
<polygon fill="#e0e0e0" stroke="#999999" points="1031.12,-295.5 982.88,-295.5 982.88,-276.25 1031.12,-276.25 1031.12,-295.5"/>
<text text-anchor="middle" x="1007" y="-282" font-family="Helvetica,sans-Serif" font-size="10.00">random</text>
</a>
</g>
</g>
<!-- Node29&#45;&gt;Node31 -->
<g id="edge54_Node000029_Node000031" class="edge">
<title>Node29&#45;&gt;Node31</title>
<g id="a_edge54_Node000029_Node000031"><a xlink:title=" ">
<path fill="none" stroke="#63b8ff" d="M920.64,-331.09C936.63,-322.91 960.46,-310.71 979.04,-301.19"/>
<polygon fill="#63b8ff" stroke="#63b8ff" points="980.62,-304.32 987.92,-296.64 977.43,-298.08 980.62,-304.32"/>
</a>
</g>
</g>
</g>
</svg>

<g id="navigator" transform="translate(0 0)" fill="#404254">
  <rect fill="#f2f5e9" fill-opacity="0.5" stroke="#606060" stroke-width=".5" x="0" y="0" width="60" height="60"/>
  <use id="zoomplus" xlink:href="#zoomPlus" x="17" y="9" onmousedown="handleZoom(evt,'in')"/>
  <use id="zoomminus" xlink:href="#zoomMin" x="42" y="9" onmousedown="handleZoom(evt,'out')"/>
  <use id="reset" xlink:href="#resetDef" x="30" y="36" onmousedown="handleReset()"/>
   <use id="arrowup" xlink:href="#arrowUp" x="0" y="0" onmousedown="handlePan(0,-1)"/>
  <use id="arrowright" xlink:href="#arrowRight" x="0" y="0" onmousedown="handlePan(1,0)"/>
  <use id="arrowdown" xlink:href="#arrowDown" x="0" y="0" onmousedown="handlePan(0,1)"/>
  <use id="arrowleft" xlink:href="#arrowLeft" x="0" y="0" onmousedown="handlePan(-1,0)"/>
</g>
<svg viewBox="0 0 15 15" width="100%" height="30px" preserveAspectRatio="xMaxYMin meet">
 <g id="arrow_out" transform="scale(0.3 0.3)">
  <a xlink:href="server_2main_8cpp__incl_org.svg" target="_base">
   <rect id="button" ry="5" rx="5" y="6" x="6" height="38" width="38"
        fill="#f2f5e9" fill-opacity="0.5" stroke="#606060" stroke-width="1.0"/>
   <path id="arrow"
     d="M 11.500037,31.436501 C 11.940474,20.09759 22.043105,11.32322 32.158766,21.979434 L 37.068811,17.246167 C 37.068811,17.246167 37.088388,32 37.088388,32 L 22.160133,31.978069 C 22.160133,31.978069 26.997745,27.140456 26.997745,27.140456 C 18.528582,18.264221 13.291696,25.230495 11.500037,31.436501 z"
     style="fill:#404040;"/>
  </a>
 </g>
</svg>

<style type='text/css'>
<![CDATA[
[data-mouse-over-selected='false'] { opacity: 0.7; }
[data-mouse-over-selected='true']  { opacity: 1.0; }
]]>
</style>
<script type="application/ecmascript"><![CDATA[
document.addEventListener('DOMContentLoaded', (event) => {
  highlightEdges();
  highlightAdjacentNodes();
});
]]></script>
</svg>
