<?xml version="1.0" encoding="UTF-8" standalone="no"?>
<!DOCTYPE svg PUBLIC "-//W3C//DTD SVG 1.1//EN"
 "http://www.w3.org/Graphics/SVG/1.1/DTD/svg11.dtd">
<!-- Generated by graphviz version 12.2.1 (20241206.2353)
 -->
<!-- Title: ServerNetwork::ClientInfo Pages: 1 -->
<svg width="137pt" height="155pt"
 viewBox="0.00 0.00 137.46 154.75" xmlns="http://www.w3.org/2000/svg" xmlns:xlink="http://www.w3.org/1999/xlink">

<svg id="main" version="1.1" xmlns="http://www.w3.org/2000/svg" xmlns:xlink="http://www.w3.org/1999/xlink" xml:space="preserve">

<style type="text/css"><![CDATA[
.node, .edge {opacity: 0.7;}
.node.selected, .edge.selected {opacity: 1;}
.edge:hover path { stroke: red; }
.edge:hover polygon { stroke: red; fill: red; }
]]></style>
<script type="application/ecmascript" xlink:href="svg.min.js"/>
<svg id="graph" class="graph">
<g id="graph0" class="graph" transform="scale(1 1) rotate(0) translate(4 150.75)">
<title>ServerNetwork::ClientInfo</title>
<!-- Node1 -->
<g id="Node000001" class="node">
<title>Node1</title>
<g id="a_Node000001"><a xlink:title=" ">
<polygon fill="#999999" stroke="none" points="121.25,-49.75 0,-49.75 0,0 121.25,0 121.25,-49.75"/>
<text text-anchor="start" x="4" y="-36.25" font-family="Helvetica,sans-Serif" font-size="10.00">ServerNetwork::ClientInfo</text>
<text text-anchor="start" x="59.12" y="-21" font-family="Helvetica,sans-Serif" font-size="10.00"> </text>
<text text-anchor="start" x="59.12" y="-5.75" font-family="Helvetica,sans-Serif" font-size="10.00"> </text>
<polygon fill="#666666" stroke="#666666" points="0,-32.5 0,-32.5 121.25,-32.5 121.25,-32.5 0,-32.5"/>
<polygon fill="#666666" stroke="#666666" points="0,-17.25 0,-17.25 121.25,-17.25 121.25,-17.25 0,-17.25"/>
<polygon fill="none" stroke="#666666" points="0,0 0,-49.75 121.25,-49.75 121.25,0 0,0"/>
</a>
</g>
</g>
<!-- Node2 -->
<g id="Node000002" class="node">
<title>Node2</title>
<g id="a_Node000002"><a xlink:title=" ">
<polygon fill="white" stroke="none" points="48.62,-146.75 16.62,-146.75 16.62,-97 48.62,-97 48.62,-146.75"/>
<text text-anchor="start" x="20.62" y="-133.25" font-family="Helvetica,sans-Serif" font-size="10.00">string</text>
<text text-anchor="start" x="31.12" y="-118" font-family="Helvetica,sans-Serif" font-size="10.00"> </text>
<text text-anchor="start" x="31.12" y="-102.75" font-family="Helvetica,sans-Serif" font-size="10.00"> </text>
<polygon fill="#666666" stroke="#666666" points="16.62,-129.5 16.62,-129.5 48.62,-129.5 48.62,-129.5 16.62,-129.5"/>
<polygon fill="#666666" stroke="#666666" points="16.62,-114.25 16.62,-114.25 48.62,-114.25 48.62,-114.25 16.62,-114.25"/>
<polygon fill="none" stroke="#666666" points="16.62,-97 16.62,-146.75 48.62,-146.75 48.62,-97 16.62,-97"/>
</a>
</g>
</g>
<!-- Node2&#45;&gt;Node1 -->
<g id="edge1_Node000001_Node000002" class="edge">
<title>Node2&#45;&gt;Node1</title>
<g id="a_edge1_Node000001_Node000002"><a xlink:title=" ">
<path fill="none" stroke="#63b8ff" d="M30.32,-97.17C30.11,-87.82 30.77,-77.1 33.62,-67.75 34.31,-65.49 35.16,-63.24 36.13,-61.01"/>
<polygon fill="none" stroke="#63b8ff" points="36.16,-60.95 35.43,-53.77 41.77,-50.34 42.5,-57.51 36.16,-60.95"/>
</a>
</g>
<text text-anchor="middle" x="50.12" y="-69.5" font-family="Helvetica,sans-Serif" font-size="10.00" fill="grey"> +name</text>
</g>
<!-- Node3 -->
<g id="Node000003" class="node">
<title>Node3</title>
<g id="a_Node000003"><a xlink:title=" ">
<polygon fill="white" stroke="none" points="101.62,-146.75 75.62,-146.75 75.62,-97 101.62,-97 101.62,-146.75"/>
<text text-anchor="start" x="79.62" y="-133.25" font-family="Helvetica,sans-Serif" font-size="10.00">bool</text>
<text text-anchor="start" x="87.12" y="-118" font-family="Helvetica,sans-Serif" font-size="10.00"> </text>
<text text-anchor="start" x="87.12" y="-102.75" font-family="Helvetica,sans-Serif" font-size="10.00"> </text>
<polygon fill="#666666" stroke="#666666" points="75.62,-129.5 75.62,-129.5 101.62,-129.5 101.62,-129.5 75.62,-129.5"/>
<polygon fill="#666666" stroke="#666666" points="75.62,-114.25 75.62,-114.25 101.62,-114.25 101.62,-114.25 75.62,-114.25"/>
<polygon fill="none" stroke="#666666" points="75.62,-97 75.62,-146.75 101.62,-146.75 101.62,-97 75.62,-97"/>
</a>
</g>
</g>
<!-- Node3&#45;&gt;Node1 -->
<g id="edge2_Node000001_Node000003" class="edge">
<title>Node3&#45;&gt;Node1</title>
<g id="a_edge2_Node000001_Node000003"><a xlink:title=" ">
<path fill="none" stroke="#63b8ff" d="M81.7,-97.39C78.56,-86.74 74.78,-73.9 71.29,-62.06"/>
<polygon fill="none" stroke="#63b8ff" points="71.31,-62.12 65.78,-57.5 67.92,-50.61 73.45,-55.24 71.31,-62.12"/>
</a>
</g>
<text text-anchor="middle" x="102.46" y="-69.5" font-family="Helvetica,sans-Serif" font-size="10.00" fill="grey"> +connected</text>
</g>
</g>
</svg>
</svg>

<style type='text/css'>
<![CDATA[
[data-mouse-over-selected='false'] { opacity: 0.7; }
[data-mouse-over-selected='true']  { opacity: 1.0; }
]]>
</style>
<script type="application/ecmascript"><![CDATA[
document.addEventListener('DOMContentLoaded', (event) => {
  highlightEdges();
  highlightAdjacentNodes();
});
]]></script>
</svg>
