<?xml version="1.0" encoding="UTF-8" standalone="no"?>
<!DOCTYPE svg PUBLIC "-//W3C//DTD SVG 1.1//EN"
 "http://www.w3.org/Graphics/SVG/1.1/DTD/svg11.dtd">
<!-- Generated by graphviz version 12.2.1 (20241206.2353)
 -->
<!-- Title: component::triple_shot Pages: 1 -->
<svg width="156pt" height="155pt"
 viewBox="0.00 0.00 155.58 154.75" xmlns="http://www.w3.org/2000/svg" xmlns:xlink="http://www.w3.org/1999/xlink">
<g id="graph0" class="graph" transform="scale(1 1) rotate(0) translate(4 150.75)">
<title>component::triple_shot</title>
<!-- Node1 -->
<g id="Node000001" class="node">
<title>Node1</title>
<g id="a_Node000001"><a xlink:title=" ">
<polygon fill="#999999" stroke="none" points="107,-49.75 0,-49.75 0,0 107,0 107,-49.75"/>
<text text-anchor="start" x="4" y="-36.25" font-family="Helvetica,sans-Serif" font-size="10.00">component::triple_shot</text>
<text text-anchor="start" x="52" y="-21" font-family="Helvetica,sans-Serif" font-size="10.00"> </text>
<text text-anchor="start" x="52" y="-5.75" font-family="Helvetica,sans-Serif" font-size="10.00"> </text>
<polygon fill="#666666" stroke="#666666" points="0,-32.5 0,-32.5 107,-32.5 107,-32.5 0,-32.5"/>
<polygon fill="#666666" stroke="#666666" points="0,-17.25 0,-17.25 107,-17.25 107,-17.25 0,-17.25"/>
<polygon fill="none" stroke="#666666" points="0,0 0,-49.75 107,-49.75 107,0 0,0"/>
</a>
</g>
</g>
<!-- Node2 -->
<g id="Node000002" class="node">
<title>Node2</title>
<g id="a_Node000002"><a xlink:title=" ">
<polygon fill="white" stroke="none" points="31.5,-146.75 5.5,-146.75 5.5,-97 31.5,-97 31.5,-146.75"/>
<text text-anchor="start" x="9.5" y="-133.25" font-family="Helvetica,sans-Serif" font-size="10.00">bool</text>
<text text-anchor="start" x="17" y="-118" font-family="Helvetica,sans-Serif" font-size="10.00"> </text>
<text text-anchor="start" x="17" y="-102.75" font-family="Helvetica,sans-Serif" font-size="10.00"> </text>
<polygon fill="#666666" stroke="#666666" points="5.5,-129.5 5.5,-129.5 31.5,-129.5 31.5,-129.5 5.5,-129.5"/>
<polygon fill="#666666" stroke="#666666" points="5.5,-114.25 5.5,-114.25 31.5,-114.25 31.5,-114.25 5.5,-114.25"/>
<polygon fill="none" stroke="#666666" points="5.5,-97 5.5,-146.75 31.5,-146.75 31.5,-97 5.5,-97"/>
</a>
</g>
</g>
<!-- Node2&#45;&gt;Node1 -->
<g id="edge1_Node000001_Node000002" class="edge">
<title>Node2&#45;&gt;Node1</title>
<g id="a_edge1_Node000001_Node000002"><a xlink:title=" ">
<path fill="none" stroke="#63b8ff" d="M15.68,-97.26C15.38,-87.82 16.11,-77.02 19.5,-67.75 20.43,-65.21 21.58,-62.71 22.9,-60.27"/>
<polygon fill="none" stroke="#63b8ff" points="22.93,-60.21 22.86,-53 29.49,-50.16 29.56,-57.37 22.93,-60.21"/>
</a>
</g>
<text text-anchor="middle" x="43.5" y="-69.5" font-family="Helvetica,sans-Serif" font-size="10.00" fill="grey"> +is_active</text>
</g>
<!-- Node3 -->
<g id="Node000003" class="node">
<title>Node3</title>
<g id="a_Node000003"><a xlink:title=" ">
<polygon fill="white" stroke="none" points="116,-146.75 63,-146.75 63,-97 116,-97 116,-146.75"/>
<text text-anchor="start" x="67" y="-133.25" font-family="Helvetica,sans-Serif" font-size="10.00">time_point</text>
<text text-anchor="start" x="88" y="-118" font-family="Helvetica,sans-Serif" font-size="10.00"> </text>
<text text-anchor="start" x="88" y="-102.75" font-family="Helvetica,sans-Serif" font-size="10.00"> </text>
<polygon fill="#666666" stroke="#666666" points="63,-129.5 63,-129.5 116,-129.5 116,-129.5 63,-129.5"/>
<polygon fill="#666666" stroke="#666666" points="63,-114.25 63,-114.25 116,-114.25 116,-114.25 63,-114.25"/>
<polygon fill="none" stroke="#666666" points="63,-97 63,-146.75 116,-146.75 116,-97 63,-97"/>
</a>
</g>
</g>
<!-- Node3&#45;&gt;Node1 -->
<g id="edge2_Node000001_Node000003" class="edge">
<title>Node3&#45;&gt;Node1</title>
<g id="a_edge2_Node000001_Node000003"><a xlink:title=" ">
<path fill="none" stroke="#63b8ff" d="M80.6,-97.39C76.52,-86.63 71.6,-73.63 67.07,-61.68"/>
<polygon fill="none" stroke="#63b8ff" points="67.12,-61.81 61.25,-57.62 62.87,-50.59 68.73,-54.78 67.12,-61.81"/>
</a>
</g>
<text text-anchor="middle" x="110.08" y="-69.5" font-family="Helvetica,sans-Serif" font-size="10.00" fill="grey"> +activation_time</text>
</g>
</g>
</svg>
