<?xml version="1.0" encoding="UTF-8" standalone="no"?>
<!DOCTYPE svg PUBLIC "-//W3C//DTD SVG 1.1//EN"
 "http://www.w3.org/Graphics/SVG/1.1/DTD/svg11.dtd">
<!-- Generated by graphviz version 12.2.1 (20241206.2353)
 -->
<!-- Title: component::type Pages: 1 -->
<svg width="89pt" height="155pt"
 viewBox="0.00 0.00 88.75 154.75" xmlns="http://www.w3.org/2000/svg" xmlns:xlink="http://www.w3.org/1999/xlink">
<g id="graph0" class="graph" transform="scale(1 1) rotate(0) translate(4 150.75)">
<title>component::type</title>
<!-- Node1 -->
<g id="Node000001" class="node">
<title>Node1</title>
<g id="a_Node000001"><a xlink:title=" ">
<polygon fill="#999999" stroke="none" points="80.75,-49.75 0,-49.75 0,0 80.75,0 80.75,-49.75"/>
<text text-anchor="start" x="4" y="-36.25" font-family="Helvetica,sans-Serif" font-size="10.00">component::type</text>
<text text-anchor="start" x="38.88" y="-21" font-family="Helvetica,sans-Serif" font-size="10.00"> </text>
<text text-anchor="start" x="38.88" y="-5.75" font-family="Helvetica,sans-Serif" font-size="10.00"> </text>
<polygon fill="#666666" stroke="#666666" points="0,-32.5 0,-32.5 80.75,-32.5 80.75,-32.5 0,-32.5"/>
<polygon fill="#666666" stroke="#666666" points="0,-17.25 0,-17.25 80.75,-17.25 80.75,-17.25 0,-17.25"/>
<polygon fill="none" stroke="#666666" points="0,0 0,-49.75 80.75,-49.75 80.75,0 0,0"/>
</a>
</g>
</g>
<!-- Node2 -->
<g id="Node000002" class="node">
<title>Node2</title>
<g id="a_Node000002"><a xlink:title=" ">
<polygon fill="white" stroke="none" points="49.62,-146.75 31.12,-146.75 31.12,-97 49.62,-97 49.62,-146.75"/>
<text text-anchor="start" x="35.12" y="-133.25" font-family="Helvetica,sans-Serif" font-size="10.00">int</text>
<text text-anchor="start" x="38.88" y="-118" font-family="Helvetica,sans-Serif" font-size="10.00"> </text>
<text text-anchor="start" x="38.88" y="-102.75" font-family="Helvetica,sans-Serif" font-size="10.00"> </text>
<polygon fill="#666666" stroke="#666666" points="31.12,-129.5 31.12,-129.5 49.62,-129.5 49.62,-129.5 31.12,-129.5"/>
<polygon fill="#666666" stroke="#666666" points="31.12,-114.25 31.12,-114.25 49.62,-114.25 49.62,-114.25 31.12,-114.25"/>
<polygon fill="none" stroke="#666666" points="31.12,-97 31.12,-146.75 49.62,-146.75 49.62,-97 31.12,-97"/>
</a>
</g>
</g>
<!-- Node2&#45;&gt;Node1 -->
<g id="edge1_Node000001_Node000002" class="edge">
<title>Node2&#45;&gt;Node1</title>
<g id="a_edge1_Node000001_Node000002"><a xlink:title=" ">
<path fill="none" stroke="#63b8ff" d="M40.38,-97.39C40.38,-86.85 40.38,-74.17 40.38,-62.44"/>
<polygon fill="none" stroke="#63b8ff" points="40.38,-62.65 36.38,-56.65 40.38,-50.65 44.38,-56.65 40.38,-62.65"/>
</a>
</g>
<text text-anchor="middle" x="54.25" y="-69.5" font-family="Helvetica,sans-Serif" font-size="10.00" fill="grey"> +type</text>
</g>
</g>
</svg>
