<?xml version="1.0" encoding="UTF-8" standalone="no"?>
<!DOCTYPE svg PUBLIC "-//W3C//DTD SVG 1.1//EN"
 "http://www.w3.org/Graphics/SVG/1.1/DTD/svg11.dtd">
<!-- Generated by graphviz version 12.2.1 (20241206.2353)
 -->
<!-- Title: Core::AnimationState Pages: 1 -->
<svg width="166pt" height="155pt"
 viewBox="0.00 0.00 165.61 154.75" xmlns="http://www.w3.org/2000/svg" xmlns:xlink="http://www.w3.org/1999/xlink">

<svg id="main" version="1.1" xmlns="http://www.w3.org/2000/svg" xmlns:xlink="http://www.w3.org/1999/xlink" xml:space="preserve">

<style type="text/css"><![CDATA[
.node, .edge {opacity: 0.7;}
.node.selected, .edge.selected {opacity: 1;}
.edge:hover path { stroke: red; }
.edge:hover polygon { stroke: red; fill: red; }
]]></style>
<script type="application/ecmascript" xlink:href="svg.min.js"/>
<svg id="graph" class="graph">
<g id="graph0" class="graph" transform="scale(1 1) rotate(0) translate(4 150.75)">
<title>Core::AnimationState</title>
<!-- Node1 -->
<g id="Node000001" class="node">
<title>Node1</title>
<g id="a_Node000001"><a xlink:title=" ">
<polygon fill="#999999" stroke="none" points="105.12,-49.75 3.38,-49.75 3.38,0 105.12,0 105.12,-49.75"/>
<text text-anchor="start" x="7.38" y="-36.25" font-family="Helvetica,sans-Serif" font-size="10.00">Core::AnimationState</text>
<text text-anchor="start" x="52.75" y="-21" font-family="Helvetica,sans-Serif" font-size="10.00"> </text>
<text text-anchor="start" x="52.75" y="-5.75" font-family="Helvetica,sans-Serif" font-size="10.00"> </text>
<polygon fill="#666666" stroke="#666666" points="3.38,-32.5 3.38,-32.5 105.12,-32.5 105.12,-32.5 3.38,-32.5"/>
<polygon fill="#666666" stroke="#666666" points="3.38,-17.25 3.38,-17.25 105.12,-17.25 105.12,-17.25 3.38,-17.25"/>
<polygon fill="none" stroke="#666666" points="3.38,0 3.38,-49.75 105.12,-49.75 105.12,0 3.38,0"/>
</a>
</g>
</g>
<!-- Node2 -->
<g id="Node000002" class="node">
<title>Node2</title>
<g id="a_Node000002"><a xlink:title=" ">
<polygon fill="white" stroke="none" points="18.5,-146.75 0,-146.75 0,-97 18.5,-97 18.5,-146.75"/>
<text text-anchor="start" x="4" y="-133.25" font-family="Helvetica,sans-Serif" font-size="10.00">int</text>
<text text-anchor="start" x="7.75" y="-118" font-family="Helvetica,sans-Serif" font-size="10.00"> </text>
<text text-anchor="start" x="7.75" y="-102.75" font-family="Helvetica,sans-Serif" font-size="10.00"> </text>
<polygon fill="#666666" stroke="#666666" points="0,-129.5 0,-129.5 18.5,-129.5 18.5,-129.5 0,-129.5"/>
<polygon fill="#666666" stroke="#666666" points="0,-114.25 0,-114.25 18.5,-114.25 18.5,-114.25 0,-114.25"/>
<polygon fill="none" stroke="#666666" points="0,-97 0,-146.75 18.5,-146.75 18.5,-97 0,-97"/>
</a>
</g>
</g>
<!-- Node2&#45;&gt;Node1 -->
<g id="edge1_Node000001_Node000002" class="edge">
<title>Node2&#45;&gt;Node1</title>
<g id="a_edge1_Node000001_Node000002"><a xlink:title=" ">
<path fill="none" stroke="#63b8ff" d="M5.98,-97.01C5.64,-87.54 6.52,-76.78 10.5,-67.75 11.75,-64.91 13.3,-62.17 15.05,-59.54"/>
<polygon fill="none" stroke="#63b8ff" points="15.13,-59.45 15.78,-52.26 22.66,-50.11 22.01,-57.29 15.13,-59.45"/>
</a>
</g>
<text text-anchor="middle" x="43.88" y="-69.5" font-family="Helvetica,sans-Serif" font-size="10.00" fill="grey"> +currentFrame</text>
</g>
<!-- Node3 -->
<g id="Node000003" class="node">
<title>Node3</title>
<g id="a_Node000003"><a xlink:title=" ">
<polygon fill="white" stroke="none" points="112.62,-146.75 85.88,-146.75 85.88,-97 112.62,-97 112.62,-146.75"/>
<text text-anchor="start" x="89.88" y="-133.25" font-family="Helvetica,sans-Serif" font-size="10.00">float</text>
<text text-anchor="start" x="97.75" y="-118" font-family="Helvetica,sans-Serif" font-size="10.00"> </text>
<text text-anchor="start" x="97.75" y="-102.75" font-family="Helvetica,sans-Serif" font-size="10.00"> </text>
<polygon fill="#666666" stroke="#666666" points="85.88,-129.5 85.88,-129.5 112.62,-129.5 112.62,-129.5 85.88,-129.5"/>
<polygon fill="#666666" stroke="#666666" points="85.88,-114.25 85.88,-114.25 112.62,-114.25 112.62,-114.25 85.88,-114.25"/>
<polygon fill="none" stroke="#666666" points="85.88,-97 85.88,-146.75 112.62,-146.75 112.62,-97 85.88,-97"/>
</a>
</g>
</g>
<!-- Node3&#45;&gt;Node1 -->
<g id="edge2_Node000001_Node000003" class="edge">
<title>Node3&#45;&gt;Node1</title>
<g id="a_edge2_Node000001_Node000003"><a xlink:title=" ">
<path fill="none" stroke="#63b8ff" d="M90.05,-97.09C86.3,-87.84 81.79,-77.2 77.25,-67.75 76.17,-65.51 75.03,-63.21 73.86,-60.91"/>
<polygon fill="none" stroke="#63b8ff" points="73.88,-60.96 67.54,-57.53 68.27,-50.35 74.61,-53.78 73.88,-60.96"/>
</a>
</g>
<text text-anchor="middle" x="119.73" y="-69.5" font-family="Helvetica,sans-Serif" font-size="10.00" fill="grey"> +animationTimer</text>
</g>
</g>
</svg>
</svg>

<style type='text/css'>
<![CDATA[
[data-mouse-over-selected='false'] { opacity: 0.7; }
[data-mouse-over-selected='true']  { opacity: 1.0; }
]]>
</style>
<script type="application/ecmascript"><![CDATA[
document.addEventListener('DOMContentLoaded', (event) => {
  highlightEdges();
  highlightAdjacentNodes();
});
]]></script>
</svg>
