<?xml version="1.0" encoding="UTF-8" standalone="no"?>
<!DOCTYPE svg PUBLIC "-//W3C//DTD SVG 1.1//EN"
 "http://www.w3.org/Graphics/SVG/1.1/DTD/svg11.dtd">
<!-- Generated by graphviz version 12.2.1 (20241206.2353)
 -->
<!-- Title: MediatorContext_s Pages: 1 -->
<svg width="99pt" height="155pt"
 viewBox="0.00 0.00 98.50 154.75" xmlns="http://www.w3.org/2000/svg" xmlns:xlink="http://www.w3.org/1999/xlink">

<svg id="main" version="1.1" xmlns="http://www.w3.org/2000/svg" xmlns:xlink="http://www.w3.org/1999/xlink" xml:space="preserve">

<style type="text/css"><![CDATA[
.node, .edge {opacity: 0.7;}
.node.selected, .edge.selected {opacity: 1;}
.edge:hover path { stroke: red; }
.edge:hover polygon { stroke: red; fill: red; }
]]></style>
<script type="application/ecmascript" xlink:href="svg.min.js"/>
<svg id="graph" class="graph">
<g id="graph0" class="graph" transform="scale(1 1) rotate(0) translate(4 150.75)">
<title>MediatorContext_s</title>
<!-- Node1 -->
<g id="Node000001" class="node">
<title>Node1</title>
<g id="a_Node000001"><a xlink:title=" ">
<polygon fill="#999999" stroke="none" points="90.5,-49.75 0,-49.75 0,0 90.5,0 90.5,-49.75"/>
<text text-anchor="start" x="4" y="-36.25" font-family="Helvetica,sans-Serif" font-size="10.00">MediatorContext_s</text>
<text text-anchor="start" x="43.75" y="-21" font-family="Helvetica,sans-Serif" font-size="10.00"> </text>
<text text-anchor="start" x="43.75" y="-5.75" font-family="Helvetica,sans-Serif" font-size="10.00"> </text>
<polygon fill="#666666" stroke="#666666" points="0,-32.5 0,-32.5 90.5,-32.5 90.5,-32.5 0,-32.5"/>
<polygon fill="#666666" stroke="#666666" points="0,-17.25 0,-17.25 90.5,-17.25 90.5,-17.25 0,-17.25"/>
<polygon fill="none" stroke="#666666" points="0,0 0,-49.75 90.5,-49.75 90.5,0 0,0"/>
</a>
</g>
</g>
<!-- Node2 -->
<g id="Node000002" class="node">
<title>Node2</title>
<g id="a_Node000002"><a xlink:title=" ">
<polygon fill="white" stroke="none" points="67.62,-146.75 22.88,-146.75 22.88,-97 67.62,-97 67.62,-146.75"/>
<text text-anchor="start" x="26.88" y="-133.25" font-family="Helvetica,sans-Serif" font-size="10.00">endpoint</text>
<text text-anchor="start" x="43.75" y="-118" font-family="Helvetica,sans-Serif" font-size="10.00"> </text>
<text text-anchor="start" x="43.75" y="-102.75" font-family="Helvetica,sans-Serif" font-size="10.00"> </text>
<polygon fill="#666666" stroke="#666666" points="22.88,-129.5 22.88,-129.5 67.62,-129.5 67.62,-129.5 22.88,-129.5"/>
<polygon fill="#666666" stroke="#666666" points="22.88,-114.25 22.88,-114.25 67.62,-114.25 67.62,-114.25 22.88,-114.25"/>
<polygon fill="none" stroke="#666666" points="22.88,-97 22.88,-146.75 67.62,-146.75 67.62,-97 22.88,-97"/>
</a>
</g>
</g>
<!-- Node2&#45;&gt;Node1 -->
<g id="edge1_Node000001_Node000002" class="edge">
<title>Node2&#45;&gt;Node1</title>
<g id="a_edge1_Node000001_Node000002"><a xlink:title=" ">
<path fill="none" stroke="#63b8ff" d="M45.25,-97.39C45.25,-86.85 45.25,-74.17 45.25,-62.44"/>
<polygon fill="none" stroke="#63b8ff" points="45.25,-62.65 41.25,-56.65 45.25,-50.65 49.25,-56.65 45.25,-62.65"/>
</a>
</g>
<text text-anchor="middle" x="61.38" y="-69.5" font-family="Helvetica,sans-Serif" font-size="10.00" fill="grey"> +client</text>
</g>
</g>
</svg>
</svg>

<style type='text/css'>
<![CDATA[
[data-mouse-over-selected='false'] { opacity: 0.7; }
[data-mouse-over-selected='true']  { opacity: 1.0; }
]]>
</style>
<script type="application/ecmascript"><![CDATA[
document.addEventListener('DOMContentLoaded', (event) => {
  highlightEdges();
  highlightAdjacentNodes();
});
]]></script>
</svg>
