<?xml version="1.0" encoding="UTF-8" standalone="no"?>
<!DOCTYPE svg PUBLIC "-//W3C//DTD SVG 1.1//EN"
 "http://www.w3.org/Graphics/SVG/1.1/DTD/svg11.dtd">
<!-- Generated by graphviz version 12.2.1 (20241206.2353)
 -->
<!-- Title: component::position Pages: 1 -->
<svg width="104pt" height="166pt"
 viewBox="0.00 0.00 103.75 166.00" xmlns="http://www.w3.org/2000/svg" xmlns:xlink="http://www.w3.org/1999/xlink">

<svg id="main" version="1.1" xmlns="http://www.w3.org/2000/svg" xmlns:xlink="http://www.w3.org/1999/xlink" xml:space="preserve">

<style type="text/css"><![CDATA[
.node, .edge {opacity: 0.7;}
.node.selected, .edge.selected {opacity: 1;}
.edge:hover path { stroke: red; }
.edge:hover polygon { stroke: red; fill: red; }
]]></style>
<script type="application/ecmascript" xlink:href="svg.min.js"/>
<svg id="graph" class="graph">
<g id="graph0" class="graph" transform="scale(1 1) rotate(0) translate(4 162)">
<title>component::position</title>
<!-- Node1 -->
<g id="Node000001" class="node">
<title>Node1</title>
<g id="a_Node000001"><a xlink:title=" ">
<polygon fill="#999999" stroke="none" points="95.75,-49.75 0,-49.75 0,0 95.75,0 95.75,-49.75"/>
<text text-anchor="start" x="4" y="-36.25" font-family="Helvetica,sans-Serif" font-size="10.00">component::position</text>
<text text-anchor="start" x="46.38" y="-21" font-family="Helvetica,sans-Serif" font-size="10.00"> </text>
<text text-anchor="start" x="46.38" y="-5.75" font-family="Helvetica,sans-Serif" font-size="10.00"> </text>
<polygon fill="#666666" stroke="#666666" points="0,-32.5 0,-32.5 95.75,-32.5 95.75,-32.5 0,-32.5"/>
<polygon fill="#666666" stroke="#666666" points="0,-17.25 0,-17.25 95.75,-17.25 95.75,-17.25 0,-17.25"/>
<polygon fill="none" stroke="#666666" points="0,0 0,-49.75 95.75,-49.75 95.75,0 0,0"/>
</a>
</g>
</g>
<!-- Node2 -->
<g id="Node000002" class="node">
<title>Node2</title>
<g id="a_Node000002"><a xlink:title=" ">
<polygon fill="white" stroke="none" points="57.12,-158 38.62,-158 38.62,-108.25 57.12,-108.25 57.12,-158"/>
<text text-anchor="start" x="42.62" y="-144.5" font-family="Helvetica,sans-Serif" font-size="10.00">int</text>
<text text-anchor="start" x="46.38" y="-129.25" font-family="Helvetica,sans-Serif" font-size="10.00"> </text>
<text text-anchor="start" x="46.38" y="-114" font-family="Helvetica,sans-Serif" font-size="10.00"> </text>
<polygon fill="#666666" stroke="#666666" points="38.62,-140.75 38.62,-140.75 57.12,-140.75 57.12,-140.75 38.62,-140.75"/>
<polygon fill="#666666" stroke="#666666" points="38.62,-125.5 38.62,-125.5 57.12,-125.5 57.12,-125.5 38.62,-125.5"/>
<polygon fill="none" stroke="#666666" points="38.62,-108.25 38.62,-158 57.12,-158 57.12,-108.25 38.62,-108.25"/>
</a>
</g>
</g>
<!-- Node2&#45;&gt;Node1 -->
<g id="edge1_Node000001_Node000002" class="edge">
<title>Node2&#45;&gt;Node1</title>
<g id="a_edge1_Node000001_Node000002"><a xlink:title=" ">
<path fill="none" stroke="#63b8ff" d="M47.88,-108.28C47.88,-94.75 47.88,-77.53 47.88,-62.33"/>
<polygon fill="none" stroke="#63b8ff" points="47.88,-62.54 43.88,-56.54 47.88,-50.54 51.88,-56.54 47.88,-62.54"/>
</a>
</g>
<text text-anchor="middle" x="55" y="-80.75" font-family="Helvetica,sans-Serif" font-size="10.00" fill="grey"> +x</text>
<text text-anchor="middle" x="55" y="-69.5" font-family="Helvetica,sans-Serif" font-size="10.00" fill="grey">+y</text>
</g>
</g>
</svg>
</svg>

<style type='text/css'>
<![CDATA[
[data-mouse-over-selected='false'] { opacity: 0.7; }
[data-mouse-over-selected='true']  { opacity: 1.0; }
]]>
</style>
<script type="application/ecmascript"><![CDATA[
document.addEventListener('DOMContentLoaded', (event) => {
  highlightEdges();
  highlightAdjacentNodes();
});
]]></script>
</svg>
