<?xml version="1.0" encoding="UTF-8" standalone="no"?>
<!DOCTYPE svg PUBLIC "-//W3C//DTD SVG 1.1//EN"
 "http://www.w3.org/Graphics/SVG/1.1/DTD/svg11.dtd">
<!-- Generated by graphviz version 12.2.1 (20241206.2353)
 -->
<!-- Title: component::invincible Pages: 1 -->
<svg width="163pt" height="155pt"
 viewBox="0.00 0.00 163.47 154.75" xmlns="http://www.w3.org/2000/svg" xmlns:xlink="http://www.w3.org/1999/xlink">
<g id="graph0" class="graph" transform="scale(1 1) rotate(0) translate(4 150.75)">
<title>component::invincible</title>
<!-- Node1 -->
<g id="Node000001" class="node">
<title>Node1</title>
<g id="a_Node000001"><a xlink:title=" ">
<polygon fill="#999999" stroke="none" points="106.25,-49.75 3.75,-49.75 3.75,0 106.25,0 106.25,-49.75"/>
<text text-anchor="start" x="7.75" y="-36.25" font-family="Helvetica,sans-Serif" font-size="10.00">component::invincible</text>
<text text-anchor="start" x="53.5" y="-21" font-family="Helvetica,sans-Serif" font-size="10.00"> </text>
<text text-anchor="start" x="53.5" y="-5.75" font-family="Helvetica,sans-Serif" font-size="10.00"> </text>
<polygon fill="#666666" stroke="#666666" points="3.75,-32.5 3.75,-32.5 106.25,-32.5 106.25,-32.5 3.75,-32.5"/>
<polygon fill="#666666" stroke="#666666" points="3.75,-17.25 3.75,-17.25 106.25,-17.25 106.25,-17.25 3.75,-17.25"/>
<polygon fill="none" stroke="#666666" points="3.75,0 3.75,-49.75 106.25,-49.75 106.25,0 3.75,0"/>
</a>
</g>
</g>
<!-- Node2 -->
<g id="Node000002" class="node">
<title>Node2</title>
<g id="a_Node000002"><a xlink:title=" ">
<polygon fill="white" stroke="none" points="26,-146.75 0,-146.75 0,-97 26,-97 26,-146.75"/>
<text text-anchor="start" x="4" y="-133.25" font-family="Helvetica,sans-Serif" font-size="10.00">bool</text>
<text text-anchor="start" x="11.5" y="-118" font-family="Helvetica,sans-Serif" font-size="10.00"> </text>
<text text-anchor="start" x="11.5" y="-102.75" font-family="Helvetica,sans-Serif" font-size="10.00"> </text>
<polygon fill="#666666" stroke="#666666" points="0,-129.5 0,-129.5 26,-129.5 26,-129.5 0,-129.5"/>
<polygon fill="#666666" stroke="#666666" points="0,-114.25 0,-114.25 26,-114.25 26,-114.25 0,-114.25"/>
<polygon fill="none" stroke="#666666" points="0,-97 0,-146.75 26,-146.75 26,-97 0,-97"/>
</a>
</g>
</g>
<!-- Node2&#45;&gt;Node1 -->
<g id="edge1_Node000001_Node000002" class="edge">
<title>Node2&#45;&gt;Node1</title>
<g id="a_edge1_Node000001_Node000002"><a xlink:title=" ">
<path fill="none" stroke="#63b8ff" d="M9.6,-97.09C9.19,-87.63 9.94,-76.86 13.75,-67.75 14.87,-65.07 16.25,-62.47 17.82,-59.97"/>
<polygon fill="none" stroke="#63b8ff" points="17.87,-59.9 18.32,-52.7 25.13,-50.35 24.68,-57.55 17.87,-59.9"/>
</a>
</g>
<text text-anchor="middle" x="44.88" y="-69.5" font-family="Helvetica,sans-Serif" font-size="10.00" fill="grey"> +is_invincible</text>
</g>
<!-- Node3 -->
<g id="Node000003" class="node">
<title>Node3</title>
<g id="a_Node000003"><a xlink:title=" ">
<polygon fill="white" stroke="none" points="124.5,-146.75 71.5,-146.75 71.5,-97 124.5,-97 124.5,-146.75"/>
<text text-anchor="start" x="75.5" y="-133.25" font-family="Helvetica,sans-Serif" font-size="10.00">time_point</text>
<text text-anchor="start" x="96.5" y="-118" font-family="Helvetica,sans-Serif" font-size="10.00"> </text>
<text text-anchor="start" x="96.5" y="-102.75" font-family="Helvetica,sans-Serif" font-size="10.00"> </text>
<polygon fill="#666666" stroke="#666666" points="71.5,-129.5 71.5,-129.5 124.5,-129.5 124.5,-129.5 71.5,-129.5"/>
<polygon fill="#666666" stroke="#666666" points="71.5,-114.25 71.5,-114.25 124.5,-114.25 124.5,-114.25 71.5,-114.25"/>
<polygon fill="none" stroke="#666666" points="71.5,-97 71.5,-146.75 124.5,-146.75 124.5,-97 71.5,-97"/>
</a>
</g>
</g>
<!-- Node3&#45;&gt;Node1 -->
<g id="edge2_Node000001_Node000003" class="edge">
<title>Node3&#45;&gt;Node1</title>
<g id="a_edge2_Node000001_Node000003"><a xlink:title=" ">
<path fill="none" stroke="#63b8ff" d="M88.62,-97.18C84.84,-87.93 80.36,-77.28 76,-67.75 75.03,-65.62 74.01,-63.45 72.97,-61.26"/>
<polygon fill="none" stroke="#63b8ff" points="72.96,-61.24 66.73,-57.6 67.69,-50.46 73.92,-54.09 72.96,-61.24"/>
</a>
</g>
<text text-anchor="middle" x="117.97" y="-69.5" font-family="Helvetica,sans-Serif" font-size="10.00" fill="grey"> +expiration_time</text>
</g>
</g>
</svg>
