<?xml version="1.0" encoding="UTF-8" standalone="no"?>
<!DOCTYPE svg PUBLIC "-//W3C//DTD SVG 1.1//EN"
 "http://www.w3.org/Graphics/SVG/1.1/DTD/svg11.dtd">
<!-- Generated by graphviz version 12.2.1 (20241206.2353)
 -->
<!-- Title: component::health Pages: 1 -->
<svg width="96pt" height="155pt"
 viewBox="0.00 0.00 96.25 154.75" xmlns="http://www.w3.org/2000/svg" xmlns:xlink="http://www.w3.org/1999/xlink">
<g id="graph0" class="graph" transform="scale(1 1) rotate(0) translate(4 150.75)">
<title>component::health</title>
<!-- Node1 -->
<g id="Node000001" class="node">
<title>Node1</title>
<g id="a_Node000001"><a xlink:title=" ">
<polygon fill="#999999" stroke="none" points="88.25,-49.75 0,-49.75 0,0 88.25,0 88.25,-49.75"/>
<text text-anchor="start" x="4" y="-36.25" font-family="Helvetica,sans-Serif" font-size="10.00">component::health</text>
<text text-anchor="start" x="42.62" y="-21" font-family="Helvetica,sans-Serif" font-size="10.00"> </text>
<text text-anchor="start" x="42.62" y="-5.75" font-family="Helvetica,sans-Serif" font-size="10.00"> </text>
<polygon fill="#666666" stroke="#666666" points="0,-32.5 0,-32.5 88.25,-32.5 88.25,-32.5 0,-32.5"/>
<polygon fill="#666666" stroke="#666666" points="0,-17.25 0,-17.25 88.25,-17.25 88.25,-17.25 0,-17.25"/>
<polygon fill="none" stroke="#666666" points="0,0 0,-49.75 88.25,-49.75 88.25,0 0,0"/>
</a>
</g>
</g>
<!-- Node2 -->
<g id="Node000002" class="node">
<title>Node2</title>
<g id="a_Node000002"><a xlink:title=" ">
<polygon fill="white" stroke="none" points="53.38,-146.75 34.88,-146.75 34.88,-97 53.38,-97 53.38,-146.75"/>
<text text-anchor="start" x="38.88" y="-133.25" font-family="Helvetica,sans-Serif" font-size="10.00">int</text>
<text text-anchor="start" x="42.62" y="-118" font-family="Helvetica,sans-Serif" font-size="10.00"> </text>
<text text-anchor="start" x="42.62" y="-102.75" font-family="Helvetica,sans-Serif" font-size="10.00"> </text>
<polygon fill="#666666" stroke="#666666" points="34.88,-129.5 34.88,-129.5 53.38,-129.5 53.38,-129.5 34.88,-129.5"/>
<polygon fill="#666666" stroke="#666666" points="34.88,-114.25 34.88,-114.25 53.38,-114.25 53.38,-114.25 34.88,-114.25"/>
<polygon fill="none" stroke="#666666" points="34.88,-97 34.88,-146.75 53.38,-146.75 53.38,-97 34.88,-97"/>
</a>
</g>
</g>
<!-- Node2&#45;&gt;Node1 -->
<g id="edge1_Node000001_Node000002" class="edge">
<title>Node2&#45;&gt;Node1</title>
<g id="a_edge1_Node000001_Node000002"><a xlink:title=" ">
<path fill="none" stroke="#63b8ff" d="M44.12,-97.39C44.12,-86.85 44.12,-74.17 44.12,-62.44"/>
<polygon fill="none" stroke="#63b8ff" points="44.13,-62.65 40.13,-56.65 44.13,-50.65 48.13,-56.65 44.13,-62.65"/>
</a>
</g>
<text text-anchor="middle" x="53.88" y="-69.5" font-family="Helvetica,sans-Serif" font-size="10.00" fill="grey"> +hp</text>
</g>
</g>
</svg>
