<?xml version="1.0" encoding="UTF-8" standalone="no"?>
<!DOCTYPE svg PUBLIC "-//W3C//DTD SVG 1.1//EN"
 "http://www.w3.org/Graphics/SVG/1.1/DTD/svg11.dtd">
<!-- Generated by graphviz version 12.2.1 (20241206.2353)
 -->
<!-- Title: component::drawable Pages: 1 -->
<svg width="109pt" height="155pt"
 viewBox="0.00 0.00 109.00 154.75" xmlns="http://www.w3.org/2000/svg" xmlns:xlink="http://www.w3.org/1999/xlink">
<g id="graph0" class="graph" transform="scale(1 1) rotate(0) translate(4 150.75)">
<title>component::drawable</title>
<!-- Node1 -->
<g id="Node000001" class="node">
<title>Node1</title>
<g id="a_Node000001"><a xlink:title=" ">
<polygon fill="#999999" stroke="none" points="101,-49.75 0,-49.75 0,0 101,0 101,-49.75"/>
<text text-anchor="start" x="4" y="-36.25" font-family="Helvetica,sans-Serif" font-size="10.00">component::drawable</text>
<text text-anchor="start" x="49" y="-21" font-family="Helvetica,sans-Serif" font-size="10.00"> </text>
<text text-anchor="start" x="49" y="-5.75" font-family="Helvetica,sans-Serif" font-size="10.00"> </text>
<polygon fill="#666666" stroke="#666666" points="0,-32.5 0,-32.5 101,-32.5 101,-32.5 0,-32.5"/>
<polygon fill="#666666" stroke="#666666" points="0,-17.25 0,-17.25 101,-17.25 101,-17.25 0,-17.25"/>
<polygon fill="none" stroke="#666666" points="0,0 0,-49.75 101,-49.75 101,0 0,0"/>
</a>
</g>
</g>
<!-- Node2 -->
<g id="Node000002" class="node">
<title>Node2</title>
<g id="a_Node000002"><a xlink:title=" ">
<polygon fill="white" stroke="none" points="67.25,-146.75 33.75,-146.75 33.75,-97 67.25,-97 67.25,-146.75"/>
<text text-anchor="start" x="37.75" y="-133.25" font-family="Helvetica,sans-Serif" font-size="10.00">Sprite</text>
<text text-anchor="start" x="49" y="-118" font-family="Helvetica,sans-Serif" font-size="10.00"> </text>
<text text-anchor="start" x="49" y="-102.75" font-family="Helvetica,sans-Serif" font-size="10.00"> </text>
<polygon fill="#666666" stroke="#666666" points="33.75,-129.5 33.75,-129.5 67.25,-129.5 67.25,-129.5 33.75,-129.5"/>
<polygon fill="#666666" stroke="#666666" points="33.75,-114.25 33.75,-114.25 67.25,-114.25 67.25,-114.25 33.75,-114.25"/>
<polygon fill="none" stroke="#666666" points="33.75,-97 33.75,-146.75 67.25,-146.75 67.25,-97 33.75,-97"/>
</a>
</g>
</g>
<!-- Node2&#45;&gt;Node1 -->
<g id="edge1_Node000001_Node000002" class="edge">
<title>Node2&#45;&gt;Node1</title>
<g id="a_edge1_Node000001_Node000002"><a xlink:title=" ">
<path fill="none" stroke="#63b8ff" d="M50.5,-97.39C50.5,-86.85 50.5,-74.17 50.5,-62.44"/>
<polygon fill="none" stroke="#63b8ff" points="50.5,-62.65 46.5,-56.65 50.5,-50.65 54.5,-56.65 50.5,-62.65"/>
</a>
</g>
<text text-anchor="middle" x="67" y="-69.5" font-family="Helvetica,sans-Serif" font-size="10.00" fill="grey"> +sprite</text>
</g>
</g>
</svg>
