<?xml version="1.0" encoding="UTF-8" standalone="no"?>
<!DOCTYPE svg PUBLIC "-//W3C//DTD SVG 1.1//EN"
 "http://www.w3.org/Graphics/SVG/1.1/DTD/svg11.dtd">
<!-- Generated by graphviz version 12.2.1 (20241206.2353)
 -->
<!-- Title: Core::PlayerInfo Pages: 1 -->
<svg width="156pt" height="166pt"
 viewBox="0.00 0.00 156.31 166.00" xmlns="http://www.w3.org/2000/svg" xmlns:xlink="http://www.w3.org/1999/xlink">

<svg id="main" version="1.1" xmlns="http://www.w3.org/2000/svg" xmlns:xlink="http://www.w3.org/1999/xlink" xml:space="preserve">

<style type="text/css"><![CDATA[
.node, .edge {opacity: 0.7;}
.node.selected, .edge.selected {opacity: 1;}
.edge:hover path { stroke: red; }
.edge:hover polygon { stroke: red; fill: red; }
]]></style>
<script type="application/ecmascript" xlink:href="svg.min.js"/>
<svg id="graph" class="graph">
<g id="graph0" class="graph" transform="scale(1 1) rotate(0) translate(4 162)">
<title>Core::PlayerInfo</title>
<!-- Node1 -->
<g id="Node000001" class="node">
<title>Node1</title>
<g id="a_Node000001"><a xlink:title=" ">
<polygon fill="#999999" stroke="none" points="120.62,-49.75 41.38,-49.75 41.38,0 120.62,0 120.62,-49.75"/>
<text text-anchor="start" x="45.38" y="-36.25" font-family="Helvetica,sans-Serif" font-size="10.00">Core::PlayerInfo</text>
<text text-anchor="start" x="79.5" y="-21" font-family="Helvetica,sans-Serif" font-size="10.00"> </text>
<text text-anchor="start" x="79.5" y="-5.75" font-family="Helvetica,sans-Serif" font-size="10.00"> </text>
<polygon fill="#666666" stroke="#666666" points="41.38,-32.5 41.38,-32.5 120.62,-32.5 120.62,-32.5 41.38,-32.5"/>
<polygon fill="#666666" stroke="#666666" points="41.38,-17.25 41.38,-17.25 120.62,-17.25 120.62,-17.25 41.38,-17.25"/>
<polygon fill="none" stroke="#666666" points="41.38,0 41.38,-49.75 120.62,-49.75 120.62,0 41.38,0"/>
</a>
</g>
</g>
<!-- Node2 -->
<g id="Node000002" class="node">
<title>Node2</title>
<g id="a_Node000002"><a xlink:title=" ">
<polygon fill="white" stroke="none" points="26,-158 0,-158 0,-108.25 26,-108.25 26,-158"/>
<text text-anchor="start" x="4" y="-144.5" font-family="Helvetica,sans-Serif" font-size="10.00">bool</text>
<text text-anchor="start" x="11.5" y="-129.25" font-family="Helvetica,sans-Serif" font-size="10.00"> </text>
<text text-anchor="start" x="11.5" y="-114" font-family="Helvetica,sans-Serif" font-size="10.00"> </text>
<polygon fill="#666666" stroke="#666666" points="0,-140.75 0,-140.75 26,-140.75 26,-140.75 0,-140.75"/>
<polygon fill="#666666" stroke="#666666" points="0,-125.5 0,-125.5 26,-125.5 26,-125.5 0,-125.5"/>
<polygon fill="none" stroke="#666666" points="0,-108.25 0,-158 26,-158 26,-108.25 0,-108.25"/>
</a>
</g>
</g>
<!-- Node2&#45;&gt;Node1 -->
<g id="edge1_Node000001_Node000002" class="edge">
<title>Node2&#45;&gt;Node1</title>
<g id="a_edge1_Node000001_Node000002"><a xlink:title=" ">
<path fill="none" stroke="#63b8ff" d="M16.61,-108.41C19.36,-95.61 24.07,-79.97 32,-67.75 34,-64.67 36.29,-61.69 38.76,-58.84"/>
<polygon fill="none" stroke="#63b8ff" points="38.72,-58.89 40.05,-51.8 47.11,-50.31 45.77,-57.39 38.72,-58.89"/>
</a>
</g>
<text text-anchor="middle" x="54.5" y="-75.12" font-family="Helvetica,sans-Serif" font-size="10.00" fill="grey"> +isReady</text>
</g>
<!-- Node3 -->
<g id="Node000003" class="node">
<title>Node3</title>
<g id="a_Node000003"><a xlink:title=" ">
<polygon fill="white" stroke="none" points="90.25,-158 71.75,-158 71.75,-108.25 90.25,-108.25 90.25,-158"/>
<text text-anchor="start" x="75.75" y="-144.5" font-family="Helvetica,sans-Serif" font-size="10.00">int</text>
<text text-anchor="start" x="79.5" y="-129.25" font-family="Helvetica,sans-Serif" font-size="10.00"> </text>
<text text-anchor="start" x="79.5" y="-114" font-family="Helvetica,sans-Serif" font-size="10.00"> </text>
<polygon fill="#666666" stroke="#666666" points="71.75,-140.75 71.75,-140.75 90.25,-140.75 90.25,-140.75 71.75,-140.75"/>
<polygon fill="#666666" stroke="#666666" points="71.75,-125.5 71.75,-125.5 90.25,-125.5 90.25,-125.5 71.75,-125.5"/>
<polygon fill="none" stroke="#666666" points="71.75,-108.25 71.75,-158 90.25,-158 90.25,-108.25 71.75,-108.25"/>
</a>
</g>
</g>
<!-- Node3&#45;&gt;Node1 -->
<g id="edge2_Node000001_Node000003" class="edge">
<title>Node3&#45;&gt;Node1</title>
<g id="a_edge2_Node000001_Node000003"><a xlink:title=" ">
<path fill="none" stroke="#63b8ff" d="M81,-108.28C81,-94.75 81,-77.53 81,-62.33"/>
<polygon fill="none" stroke="#63b8ff" points="81,-62.54 77,-56.54 81,-50.54 85,-56.54 81,-62.54"/>
</a>
</g>
<text text-anchor="middle" x="90.75" y="-80.75" font-family="Helvetica,sans-Serif" font-size="10.00" fill="grey"> +hp</text>
<text text-anchor="middle" x="90.75" y="-69.5" font-family="Helvetica,sans-Serif" font-size="10.00" fill="grey">+id</text>
</g>
<!-- Node4 -->
<g id="Node000004" class="node">
<title>Node4</title>
<g id="a_Node000004"><a xlink:title=" ">
<polygon fill="white" stroke="none" points="137.38,-158 110.62,-158 110.62,-108.25 137.38,-108.25 137.38,-158"/>
<text text-anchor="start" x="114.62" y="-144.5" font-family="Helvetica,sans-Serif" font-size="10.00">Text</text>
<text text-anchor="start" x="122.5" y="-129.25" font-family="Helvetica,sans-Serif" font-size="10.00"> </text>
<text text-anchor="start" x="122.5" y="-114" font-family="Helvetica,sans-Serif" font-size="10.00"> </text>
<polygon fill="#666666" stroke="#666666" points="110.62,-140.75 110.62,-140.75 137.38,-140.75 137.38,-140.75 110.62,-140.75"/>
<polygon fill="#666666" stroke="#666666" points="110.62,-125.5 110.62,-125.5 137.38,-125.5 137.38,-125.5 110.62,-125.5"/>
<polygon fill="none" stroke="#666666" points="110.62,-108.25 110.62,-158 137.38,-158 137.38,-108.25 110.62,-108.25"/>
</a>
</g>
</g>
<!-- Node4&#45;&gt;Node1 -->
<g id="edge3_Node000001_Node000004" class="edge">
<title>Node4&#45;&gt;Node1</title>
<g id="a_edge3_Node000001_Node000004"><a xlink:title=" ">
<path fill="none" stroke="#63b8ff" d="M116.71,-108.29C112.74,-96.03 107.53,-80.93 102,-67.75 101.1,-65.59 100.13,-63.39 99.13,-61.19"/>
<polygon fill="none" stroke="#63b8ff" points="99.12,-61.17 92.93,-57.48 93.95,-50.34 100.14,-54.03 99.12,-61.17"/>
</a>
</g>
<text text-anchor="middle" x="129.18" y="-75.12" font-family="Helvetica,sans-Serif" font-size="10.00" fill="grey"> +hpText</text>
</g>
</g>
</svg>
</svg>

<style type='text/css'>
<![CDATA[
[data-mouse-over-selected='false'] { opacity: 0.7; }
[data-mouse-over-selected='true']  { opacity: 1.0; }
]]>
</style>
<script type="application/ecmascript"><![CDATA[
document.addEventListener('DOMContentLoaded', (event) => {
  highlightEdges();
  highlightAdjacentNodes();
});
]]></script>
</svg>
