<?xml version="1.0" encoding="UTF-8" standalone="no"?>
<!DOCTYPE svg PUBLIC "-//W3C//DTD SVG 1.1//EN"
 "http://www.w3.org/Graphics/SVG/1.1/DTD/svg11.dtd">
<!-- Generated by graphviz version 12.2.1 (20241206.2353)
 -->
<!-- Title: Core::InputState Pages: 1 -->
<svg width="101pt" height="211pt"
 viewBox="0.00 0.00 100.50 211.00" xmlns="http://www.w3.org/2000/svg" xmlns:xlink="http://www.w3.org/1999/xlink">
<g id="graph0" class="graph" transform="scale(1 1) rotate(0) translate(4 207)">
<title>Core::InputState</title>
<!-- Node1 -->
<g id="Node000001" class="node">
<title>Node1</title>
<g id="a_Node000001"><a xlink:title=" ">
<polygon fill="#999999" stroke="none" points="80,-49.75 0,-49.75 0,0 80,0 80,-49.75"/>
<text text-anchor="start" x="4" y="-36.25" font-family="Helvetica,sans-Serif" font-size="10.00">Core::InputState</text>
<text text-anchor="start" x="38.5" y="-21" font-family="Helvetica,sans-Serif" font-size="10.00"> </text>
<text text-anchor="start" x="38.5" y="-5.75" font-family="Helvetica,sans-Serif" font-size="10.00"> </text>
<polygon fill="#666666" stroke="#666666" points="0,-32.5 0,-32.5 80,-32.5 80,-32.5 0,-32.5"/>
<polygon fill="#666666" stroke="#666666" points="0,-17.25 0,-17.25 80,-17.25 80,-17.25 0,-17.25"/>
<polygon fill="none" stroke="#666666" points="0,0 0,-49.75 80,-49.75 80,0 0,0"/>
</a>
</g>
</g>
<!-- Node2 -->
<g id="Node000002" class="node">
<title>Node2</title>
<g id="a_Node000002"><a xlink:title=" ">
<polygon fill="white" stroke="none" points="53,-203 27,-203 27,-153.25 53,-153.25 53,-203"/>
<text text-anchor="start" x="31" y="-189.5" font-family="Helvetica,sans-Serif" font-size="10.00">bool</text>
<text text-anchor="start" x="38.5" y="-174.25" font-family="Helvetica,sans-Serif" font-size="10.00"> </text>
<text text-anchor="start" x="38.5" y="-159" font-family="Helvetica,sans-Serif" font-size="10.00"> </text>
<polygon fill="#666666" stroke="#666666" points="27,-185.75 27,-185.75 53,-185.75 53,-185.75 27,-185.75"/>
<polygon fill="#666666" stroke="#666666" points="27,-170.5 27,-170.5 53,-170.5 53,-170.5 27,-170.5"/>
<polygon fill="none" stroke="#666666" points="27,-153.25 27,-203 53,-203 53,-153.25 27,-153.25"/>
</a>
</g>
</g>
<!-- Node2&#45;&gt;Node1 -->
<g id="edge1_Node000001_Node000002" class="edge">
<title>Node2&#45;&gt;Node1</title>
<g id="a_edge1_Node000001_Node000002"><a xlink:title=" ">
<path fill="none" stroke="#63b8ff" d="M40,-153.49C40,-129.07 40,-90.64 40,-62.32"/>
<polygon fill="none" stroke="#63b8ff" points="40,-62.24 36,-56.24 40,-50.24 44,-56.24 40,-62.24"/>
</a>
</g>
<text text-anchor="middle" x="66.25" y="-125.75" font-family="Helvetica,sans-Serif" font-size="10.00" fill="grey"> +downSent</text>
<text text-anchor="middle" x="66.25" y="-114.5" font-family="Helvetica,sans-Serif" font-size="10.00" fill="grey">+leftSent</text>
<text text-anchor="middle" x="66.25" y="-103.25" font-family="Helvetica,sans-Serif" font-size="10.00" fill="grey">+rightSent</text>
<text text-anchor="middle" x="66.25" y="-92" font-family="Helvetica,sans-Serif" font-size="10.00" fill="grey">+shootSent</text>
<text text-anchor="middle" x="66.25" y="-80.75" font-family="Helvetica,sans-Serif" font-size="10.00" fill="grey">+startSent</text>
<text text-anchor="middle" x="66.25" y="-69.5" font-family="Helvetica,sans-Serif" font-size="10.00" fill="grey">+upSent</text>
</g>
</g>
</svg>
