<?xml version="1.0" encoding="UTF-8" standalone="no"?>
<!DOCTYPE svg PUBLIC "-//W3C//DTD SVG 1.1//EN"
 "http://www.w3.org/Graphics/SVG/1.1/DTD/svg11.dtd">
<!-- Generated by graphviz version 12.2.1 (20241206.2353)
 -->
<!-- Title: GameMessage Pages: 1 -->
<svg width="184pt" height="155pt"
 viewBox="0.00 0.00 184.25 154.75" xmlns="http://www.w3.org/2000/svg" xmlns:xlink="http://www.w3.org/1999/xlink">
<g id="graph0" class="graph" transform="scale(1 1) rotate(0) translate(4 150.75)">
<title>GameMessage</title>
<!-- Node1 -->
<g id="Node000001" class="node">
<title>Node1</title>
<g id="a_Node000001"><a xlink:title=" ">
<polygon fill="#999999" stroke="none" points="116,-49.75 42,-49.75 42,0 116,0 116,-49.75"/>
<text text-anchor="start" x="46" y="-36.25" font-family="Helvetica,sans-Serif" font-size="10.00">GameMessage</text>
<text text-anchor="start" x="77.5" y="-21" font-family="Helvetica,sans-Serif" font-size="10.00"> </text>
<text text-anchor="start" x="77.5" y="-5.75" font-family="Helvetica,sans-Serif" font-size="10.00"> </text>
<polygon fill="#666666" stroke="#666666" points="42,-32.5 42,-32.5 116,-32.5 116,-32.5 42,-32.5"/>
<polygon fill="#666666" stroke="#666666" points="42,-17.25 42,-17.25 116,-17.25 116,-17.25 42,-17.25"/>
<polygon fill="none" stroke="#666666" points="42,0 42,-49.75 116,-49.75 116,0 42,0"/>
</a>
</g>
</g>
<!-- Node2 -->
<g id="Node000002" class="node">
<title>Node2</title>
<g id="a_Node000002"><a xlink:title=" ">
<polygon fill="white" stroke="none" points="62,-146.75 0,-146.75 0,-97 62,-97 62,-146.75"/>
<text text-anchor="start" x="4" y="-133.25" font-family="Helvetica,sans-Serif" font-size="10.00">GameAction</text>
<text text-anchor="start" x="29.5" y="-118" font-family="Helvetica,sans-Serif" font-size="10.00"> </text>
<text text-anchor="start" x="29.5" y="-102.75" font-family="Helvetica,sans-Serif" font-size="10.00"> </text>
<polygon fill="#666666" stroke="#666666" points="0,-129.5 0,-129.5 62,-129.5 62,-129.5 0,-129.5"/>
<polygon fill="#666666" stroke="#666666" points="0,-114.25 0,-114.25 62,-114.25 62,-114.25 0,-114.25"/>
<polygon fill="none" stroke="#666666" points="0,-97 0,-146.75 62,-146.75 62,-97 0,-97"/>
</a>
</g>
</g>
<!-- Node2&#45;&gt;Node1 -->
<g id="edge1_Node000001_Node000002" class="edge">
<title>Node2&#45;&gt;Node1</title>
<g id="a_edge1_Node000001_Node000002"><a xlink:title=" ">
<path fill="none" stroke="#63b8ff" d="M42.87,-97.39C48.36,-86.51 55.01,-73.35 61.1,-61.3"/>
<polygon fill="none" stroke="#63b8ff" points="61.12,-61.26 60.26,-54.1 66.53,-50.55 67.4,-57.71 61.12,-61.26"/>
</a>
</g>
<text text-anchor="middle" x="74.06" y="-69.5" font-family="Helvetica,sans-Serif" font-size="10.00" fill="grey"> +action</text>
</g>
<!-- Node3 -->
<g id="Node000003" class="node">
<title>Node3</title>
<g id="a_Node000003"><a xlink:title=" ">
<polygon fill="white" stroke="none" points="176.25,-146.75 79.75,-146.75 79.75,-97 176.25,-97 176.25,-146.75"/>
<text text-anchor="start" x="83.75" y="-133.25" font-family="Helvetica,sans-Serif" font-size="10.00">vector&lt; std::string &gt;</text>
<text text-anchor="start" x="126.5" y="-118" font-family="Helvetica,sans-Serif" font-size="10.00"> </text>
<text text-anchor="start" x="126.5" y="-102.75" font-family="Helvetica,sans-Serif" font-size="10.00"> </text>
<polygon fill="#666666" stroke="#666666" points="79.75,-129.5 79.75,-129.5 176.25,-129.5 176.25,-129.5 79.75,-129.5"/>
<polygon fill="#666666" stroke="#666666" points="79.75,-114.25 79.75,-114.25 176.25,-114.25 176.25,-114.25 79.75,-114.25"/>
<polygon fill="none" stroke="#666666" points="79.75,-97 79.75,-146.75 176.25,-146.75 176.25,-97 79.75,-97"/>
</a>
</g>
</g>
<!-- Node3&#45;&gt;Node1 -->
<g id="edge2_Node000001_Node000003" class="edge">
<title>Node3&#45;&gt;Node1</title>
<g id="a_edge2_Node000001_Node000003"><a xlink:title=" ">
<path fill="none" stroke="#63b8ff" d="M115.89,-97.39C110.28,-86.51 103.49,-73.35 97.27,-61.3"/>
<polygon fill="none" stroke="#63b8ff" points="97.23,-61.21 90.92,-57.72 91.73,-50.55 98.03,-54.05 97.23,-61.21"/>
</a>
</g>
<text text-anchor="middle" x="132.34" y="-69.5" font-family="Helvetica,sans-Serif" font-size="10.00" fill="grey"> +arguments</text>
</g>
</g>
</svg>
